<?xml version="1.0" encoding="UTF-8"?><svg id="Icon" xmlns="http://www.w3.org/2000/svg" viewBox="0 0 512 512"><path d="M450.87,238.13c-9.11-9.11-21.22-14.13-34.11-14.13s-25,5.02-34.11,14.13l-153.87,153.87c-1.97,1.97-3.39,4.42-4.12,7.1l-17.1,62.69c-1.51,5.54.06,11.46,4.12,15.52,3.04,3.04,7.13,4.69,11.31,4.69,1.4,0,2.82-.19,4.21-.56l62.69-17.1c2.69-.73,5.13-2.15,7.1-4.12l153.87-153.87c9.11-9.11,14.13-21.22,14.13-34.11s-5.02-25-14.13-34.11ZM250.11,427.39c1.95,1.49,3.93,3.17,5.83,5.05,2.09,2.07,3.91,4.31,5.45,6.51l-15.59,4.25,4.31-15.81ZM428.24,283.72l-139.11,139.11c-2.84-4.32-6.37-8.88-10.69-13.15-3.99-3.94-8.12-7.28-12.05-10.04l138.89-138.89h0c3.07-3.07,7.14-4.76,11.48-4.76s8.41,1.69,11.48,4.76,4.76,7.14,4.76,11.48-1.69,8.41-4.76,11.48Z"/><path d="M432,357.33c-8.84,0-16,7.16-16,16v42.67h-42.67c-8.84,0-16,7.16-16,16s7.16,16,16,16h54.15c11.31,0,20.51-9.2,20.51-20.51v-54.15c0-8.84-7.16-16-16-16Z"/><path d="M179.28,149.03c8.84,0,16-7.16,16-16v-37.03h76.74v96.82c0,8.84,7.16,16,16,16h74.46c8.84,0,16-7.16,16-16s-7.16-16-16-16h-58.46v-80.82h111.97v96.82c0,8.84,7.16,16,16,16s16-7.16,16-16v-108.31c0-11.31-9.2-20.51-20.51-20.51H84.51c-11.31,0-20.51,9.2-20.51,20.51v342.97c0,11.31,9.2,20.51,20.51,20.51h94.18c.1,0,.2-.01.29-.01.1,0,.19.01.29.01,8.84,0,16-7.16,16-16v-50.77c0-8.84-7.16-16-16-16s-16,7.16-16,16v34.77h-67.28v-144h67.28v33.64c0,8.84,7.16,16,16,16s16-7.16,16-16v-99.28c0-8.84-7.16-16-16-16s-16,7.16-16,16v33.64h-67.28V96h67.28v37.03c0,8.84,7.16,16,16,16Z"/></svg>