<?xml version="1.0" encoding="UTF-8"?><svg id="Icon" xmlns="http://www.w3.org/2000/svg" viewBox="0 0 512 512"><path d="M336,198.63v153.37h57.37l-57.37,57.37v-57.37h-32v80H102.63l80-80h121.37v-144h-144v121.37l-80,80v-201.37h80v-32h-57.37l57.37-57.37v57.37h153.37l112-112h-249.37c-.53,0-1.06.03-1.59.08-.23.02-.45.07-.68.1-.29.04-.58.08-.87.13-.26.05-.52.12-.78.19-.25.06-.5.12-.74.19-.26.08-.5.17-.75.26-.24.09-.49.17-.72.27-.24.1-.46.21-.69.32-.24.11-.49.22-.73.35-.22.12-.43.26-.65.39-.23.14-.46.27-.69.42-.24.16-.47.34-.71.52-.18.14-.37.26-.55.41-.41.34-.81.69-1.18,1.07l-111.99,111.99c-.38.37-.73.77-1.07,1.18-.15.18-.27.37-.41.55-.18.23-.36.46-.52.71-.15.23-.28.46-.42.69-.13.22-.26.43-.38.65-.13.24-.24.48-.35.73-.11.23-.22.45-.32.69-.1.24-.18.48-.27.73-.09.25-.19.5-.26.75-.07.25-.13.49-.19.74-.06.26-.14.51-.19.77-.06.29-.09.58-.13.87-.03.23-.08.45-.1.68-.05.53-.08,1.06-.08,1.59v255.99c0,.53.03,1.06.08,1.59.02.23.07.45.1.68.04.29.08.58.13.87.05.26.12.52.19.78.06.25.12.49.19.74.08.26.17.51.26.76.09.24.17.48.26.72.1.24.21.47.32.7.11.24.22.48.35.72.12.23.26.44.39.66.14.23.27.46.41.68.17.25.35.48.53.72.13.18.26.36.4.53.67.82,1.42,1.57,2.24,2.24.17.14.35.26.52.39.24.18.48.37.74.54.22.14.44.27.66.4.23.14.45.28.68.4.23.12.47.23.7.34.24.11.47.23.72.33.23.09.46.17.7.26.26.09.51.19.78.27.24.07.47.12.71.18.27.07.53.14.81.2.28.05.56.09.83.13.24.03.47.08.71.1.52.05,1.05.08,1.58.08h256c.53,0,1.05-.03,1.58-.08.24-.02.48-.07.71-.1.28-.04.56-.07.83-.13.27-.05.54-.13.8-.2.24-.06.48-.11.71-.18.26-.08.52-.18.78-.27.23-.08.47-.16.7-.26.24-.1.48-.22.72-.33.23-.11.47-.21.7-.34.23-.12.45-.27.68-.4.22-.13.45-.26.67-.4.25-.17.49-.36.74-.54.17-.13.35-.25.52-.39.41-.34.81-.69,1.18-1.07l111.98-111.98c.38-.38.73-.77,1.07-1.18.14-.17.27-.36.4-.53.18-.24.36-.47.53-.72.15-.22.28-.45.41-.68.13-.22.27-.43.39-.66.13-.24.23-.48.35-.72.11-.23.23-.46.32-.7.1-.24.18-.48.26-.72.09-.25.19-.5.26-.76.07-.24.13-.49.19-.74.07-.26.14-.51.19-.78.06-.29.09-.58.13-.87.03-.23.08-.45.1-.68.05-.53.08-1.06.08-1.59V86.63l-112,112Z"/></svg>