<?xml version="1.0" encoding="UTF-8"?><svg id="Icon" xmlns="http://www.w3.org/2000/svg" viewBox="0 0 512 512"><path d="M445.31,344.88c.15-.22.28-.45.41-.68.13-.22.27-.44.39-.67.12-.23.23-.47.34-.71.11-.24.23-.47.33-.71.1-.23.17-.47.26-.71.09-.26.19-.51.27-.77.07-.24.12-.47.18-.71.07-.27.14-.53.2-.81.05-.27.09-.55.13-.82.03-.24.08-.48.1-.73.05-.51.08-1.02.08-1.53,0-.02,0-.03,0-.04V80s0-.03,0-.04c0-.51-.03-1.02-.08-1.53-.02-.24-.07-.48-.1-.72-.04-.28-.07-.55-.13-.82-.05-.27-.13-.54-.2-.8-.06-.24-.11-.48-.18-.72-.08-.26-.18-.51-.27-.77-.09-.24-.16-.48-.26-.71-.1-.24-.21-.47-.32-.7-.11-.24-.22-.48-.35-.72-.12-.22-.26-.44-.39-.65-.14-.23-.27-.46-.42-.69-.16-.24-.34-.47-.52-.7-.14-.18-.27-.37-.41-.55-.67-.82-1.42-1.56-2.23-2.23-.18-.15-.38-.28-.56-.42-.23-.17-.45-.35-.69-.51-.23-.15-.47-.29-.7-.43-.21-.13-.42-.26-.64-.38-.24-.13-.49-.24-.73-.35-.23-.11-.45-.22-.68-.32-.24-.1-.49-.18-.73-.27-.25-.09-.49-.18-.75-.26-.25-.07-.5-.13-.75-.19-.26-.06-.51-.14-.77-.19-.29-.06-.58-.09-.87-.13-.23-.03-.45-.08-.68-.1-.53-.05-1.06-.08-1.59-.08h-255.99c-.53,0-1.06.03-1.59.08-.23.02-.45.07-.68.1-.29.04-.58.08-.87.13-.26.05-.52.12-.77.19-.25.06-.5.12-.74.19-.25.08-.5.17-.75.26-.24.09-.49.17-.73.27-.23.1-.46.21-.68.32-.25.12-.49.22-.73.35-.22.12-.43.25-.64.38-.23.14-.47.27-.7.43-.24.16-.46.34-.69.51-.19.14-.38.27-.56.42-.41.34-.8.69-1.18,1.06l-111.99,111.99c-.37.37-.73.77-1.06,1.18-.15.18-.28.37-.41.55-.17.23-.35.46-.52.7-.15.22-.28.46-.42.69-.13.22-.27.43-.39.65-.13.24-.23.48-.35.72-.11.23-.23.46-.33.7-.1.23-.17.47-.26.71-.09.26-.19.51-.27.77-.07.24-.12.48-.18.72-.07.27-.14.53-.2.8-.05.27-.09.55-.13.82-.03.24-.08.48-.1.72-.05.51-.08,1.02-.08,1.53,0,.02,0,.03,0,.04v256s0,.03,0,.04c0,.51.03,1.02.08,1.53.02.25.07.48.1.73.04.27.07.55.13.82.05.27.13.54.2.81.06.24.11.48.18.71.08.26.18.52.27.77.08.23.16.47.26.7.1.24.22.47.33.71.11.24.22.48.34.71.12.23.26.44.39.67.14.23.26.46.41.68.17.25.35.48.53.72.14.18.26.36.4.54.67.82,1.42,1.57,2.24,2.24.17.14.36.27.53.4.24.18.47.36.72.53.22.15.45.27.67.41.22.13.44.27.67.4.23.12.47.23.71.34.24.11.47.23.71.33.23.1.47.17.7.26.26.09.51.19.77.27.24.07.48.12.72.18.27.07.53.14.8.2.28.05.56.09.84.13.24.03.47.08.71.1.52.05,1.05.08,1.58.08h256c.53,0,1.05-.03,1.58-.08.24-.02.47-.07.71-.1.28-.04.56-.07.84-.13.27-.05.54-.13.8-.2.24-.06.48-.11.72-.18.26-.08.52-.18.77-.27.24-.08.47-.16.7-.26.24-.1.47-.22.71-.33.24-.11.48-.22.71-.34.23-.12.45-.26.67-.39.23-.14.45-.26.68-.41.25-.17.48-.35.72-.53.18-.13.36-.26.54-.4.41-.34.81-.69,1.18-1.07l111.99-111.99c.38-.38.73-.77,1.07-1.18.14-.17.27-.36.4-.54.18-.24.36-.47.53-.72ZM336,352h57.37l-57.37,57.37v-57.37ZM160,176h-57.37l57.37-57.37v57.37ZM336,198.63l80-80v201.37h-80v-121.37ZM393.37,96l-80,80h-121.37v-80h201.37Z"/></svg>