<?xml version="1.0" encoding="UTF-8"?><svg id="Icon" xmlns="http://www.w3.org/2000/svg" viewBox="0 0 512 512"><path d="M384,305.79v-99.59c-.02-14.54-7.85-28.1-20.51-35.4l-87.05-49.74c-12.61-7.28-28.28-7.28-40.83-.04l-87.17,49.81c-12.6,7.27-20.43,20.82-20.44,35.39v99.57c.02,14.54,7.85,28.1,20.51,35.4l87.05,49.74c6.31,3.65,13.39,5.46,20.46,5.46s14.1-1.81,20.36-5.43l87.17-49.81c12.6-7.27,20.43-20.82,20.44-35.37ZM251.56,148.77c1.36-.79,2.89-1.18,4.43-1.18s3.11.4,4.52,1.22l74.77,42.73-79.28,46.08-79.28-46.08,74.83-42.76ZM164.44,313.45c-2.74-1.58-4.44-4.53-4.44-7.67v-86.95l80,46.5v91.29l-75.56-43.17ZM347.62,313.42l-75.62,43.21v-91.29l80-46.5v86.93c0,3.16-1.71,6.11-4.38,7.65Z"/><path d="M80,193.78c8.84,0,16-7.16,16-16v-58.67c0-12.74,10.37-23.11,23.11-23.11h58.67c8.84,0,16-7.16,16-16s-7.16-16-16-16h-58.67c-30.39,0-55.11,24.72-55.11,55.11v58.67c0,8.84,7.16,16,16,16Z"/><path d="M392.89,64h-58.67c-8.84,0-16,7.16-16,16s7.16,16,16,16h58.67c12.74,0,23.11,10.37,23.11,23.11v58.67c0,8.84,7.16,16,16,16s16-7.16,16-16v-58.67c0-30.39-24.72-55.11-55.11-55.11Z"/><path d="M177.78,416h-58.67c-12.74,0-23.11-10.37-23.11-23.11v-58.67c0-8.84-7.16-16-16-16s-16,7.16-16,16v58.67c0,30.39,24.72,55.11,55.11,55.11h58.67c8.84,0,16-7.16,16-16s-7.16-16-16-16Z"/><path d="M432,318.22c-8.84,0-16,7.16-16,16v58.67c0,12.74-10.37,23.11-23.11,23.11h-58.67c-8.84,0-16,7.16-16,16s7.16,16,16,16h58.67c30.39,0,55.11-24.72,55.11-55.11v-58.67c0-8.84-7.16-16-16-16Z"/></svg>