<?xml version="1.0" encoding="UTF-8"?><svg id="Icon" xmlns="http://www.w3.org/2000/svg" viewBox="0 0 512 512"><path d="M415.92,267.61c-7.47-4.71-17.35-2.47-22.07,5-4.71,7.47-2.47,17.35,5,22.07,7.96,5.02,21.32,15.12,21.32,26.38s-12.5,20.63-19.96,25.5c-15.65,10.24-38.23,18.61-65.29,24.23-8.65,1.79-14.21,10.26-12.42,18.92,1.57,7.56,8.23,12.75,15.65,12.75,1.08,0,2.17-.11,3.27-.34,69.35-14.39,110.75-44.69,110.75-81.06,0-13.95-6.29-34.55-36.25-53.45Z"/><path d="M220.4,345.38c-5.68-6.77-15.77-7.66-22.54-1.99-6.77,5.68-7.66,15.77-1.98,22.54l7.77,9.27c-28.47-3.57-54.18-10.15-74.48-19.22-23.51-10.5-37.54-23.56-37.54-34.94,0-8.64,8.05-18.3,22.66-27.21,7.55-4.6,9.93-14.44,5.34-21.99-4.6-7.55-14.44-9.93-21.99-5.34-31.41,19.14-38.01,40.22-38.01,54.53,0,25.1,20.06,47.88,56.49,64.16,23.49,10.49,52.96,18.02,85.25,21.94l-9.84,8.25c-6.77,5.68-7.66,15.77-1.98,22.54,3.16,3.78,7.7,5.72,12.27,5.72,3.63,0,7.27-1.23,10.27-3.74l39.17-32.83c6.77-5.68,7.66-15.77,1.98-22.54l-32.83-39.17Z"/><path d="M384,238.21v-99.59c-.02-14.54-7.85-28.1-20.51-35.4l-87.05-49.74c-12.61-7.28-28.28-7.28-40.83-.04l-87.17,49.81c-12.6,7.27-20.43,20.82-20.44,35.39v99.57c.02,14.54,7.85,28.1,20.51,35.4l87.05,49.74c6.31,3.65,13.39,5.46,20.46,5.46s14.1-1.81,20.36-5.43l87.17-49.81c12.6-7.27,20.43-20.82,20.44-35.37ZM251.56,81.19c1.36-.79,2.89-1.18,4.43-1.18s3.11.4,4.52,1.22l74.77,42.73-79.28,46.08-79.28-46.08,74.83-42.76ZM164.44,245.87c-2.74-1.58-4.44-4.53-4.44-7.67v-86.95l80,46.5v91.29l-75.56-43.17ZM347.62,245.83l-75.62,43.21v-91.29l80-46.5v86.93c0,3.16-1.71,6.11-4.38,7.65Z"/></svg>