<?xml version="1.0" encoding="UTF-8"?><svg id="Icon" xmlns="http://www.w3.org/2000/svg" viewBox="0 0 512 512"><path d="M449.08,363.02l-16.29-60.05c-2.31-8.53-11.1-13.56-19.63-11.25-8.53,2.31-13.57,11.1-11.25,19.63l6.12,22.57-26.17-15.15c1.39-4.13,2.14-8.5,2.14-12.97v-99.59c-.02-14.54-7.85-28.1-20.51-35.4l-87.05-49.74c-12.61-7.28-28.28-7.28-40.83-.04l-87.17,49.81c-12.6,7.27-20.43,20.82-20.44,35.39v99.57c.02,14.54,7.85,28.1,20.51,35.4l87.05,49.74c6.31,3.65,13.39,5.46,20.46,5.46s14.1-1.81,20.36-5.43l83.72-47.84,31.54,18.25-22,5.6c-8.56,2.18-13.74,10.89-11.56,19.45,1.84,7.24,8.35,12.06,15.49,12.06,1.31,0,2.64-.16,3.96-.5l60.06-15.29c4.15-1.06,7.71-3.74,9.87-7.44,2.16-3.7,2.75-8.12,1.62-12.25ZM251.56,148.77c1.36-.79,2.89-1.18,4.43-1.18s3.11.4,4.52,1.22l74.77,42.73-79.28,46.08-79.28-46.08,74.83-42.76ZM164.44,313.45c-2.74-1.58-4.44-4.53-4.44-7.67v-86.95l80,46.5v91.29l-75.56-43.17ZM272,356.62v-91.29l80-46.5v82.65l-27.08-15.67c-7.65-4.43-17.44-1.82-21.86,5.83-4.43,7.65-1.81,17.44,5.83,21.86l19.17,11.09-56.06,32.03Z"/></svg>