<?xml version="1.0" encoding="UTF-8"?><svg id="Icon" xmlns="http://www.w3.org/2000/svg" viewBox="0 0 512 512"><path d="M363.49,170.8l-87.05-49.74c-1.44-.83-2.93-1.56-4.44-2.2v-32.23l16.69,16.69c3.12,3.12,7.22,4.69,11.31,4.69s8.19-1.56,11.31-4.69c6.25-6.25,6.25-16.38,0-22.63l-44-44c-6.25-6.25-16.38-6.25-22.63,0l-44,44c-6.25,6.25-6.25,16.38,0,22.63,6.25,6.25,16.38,6.25,22.63,0l16.69-16.69v32.23c-1.49.64-2.96,1.35-4.38,2.17l-87.17,49.81c-12.6,7.27-20.43,20.82-20.44,35.39v99.57c.02,14.54,7.85,28.1,20.51,35.4l87.05,49.74c6.31,3.65,13.39,5.46,20.46,5.46s14.1-1.81,20.36-5.43l87.17-49.81c12.6-7.27,20.43-20.82,20.44-35.37v-99.59c-.02-14.54-7.85-28.1-20.51-35.4ZM240,155.38v29.62c0,8.84,7.16,16,16,16s16-7.16,16-16v-29.62l63.28,36.16-79.28,46.08-79.28-46.08,63.28-36.16ZM164.44,313.45c-2.74-1.58-4.44-4.53-4.44-7.67v-86.95l80,46.5v91.29l-75.56-43.17ZM347.62,313.42l-75.62,43.21v-91.29l80-46.5v86.93c0,3.16-1.71,6.11-4.38,7.65Z"/></svg>