<?xml version="1.0" encoding="UTF-8"?><svg id="Icon" xmlns="http://www.w3.org/2000/svg" viewBox="0 0 512 512"><path d="M480,202.2v-60.89c0-29.88-24.14-54.18-53.82-54.18H85.82c-29.68,0-53.82,24.31-53.82,54.18v60.89h448Z"/><path d="M206.6,287.39c-13.37-.23-24.44,10.43-24.74,23.78v.29c.09,13.33,10.98,24.14,24.32,24.14.06,0,.11,0,.17,0,13.26-.09,24-10.82,24.15-24.02,0-.1,0-.19,0-.29-.23-13.17-10.72-23.66-23.89-23.89Z"/><path d="M32,234.2v136.21c0,29.88,24.14,54.18,53.82,54.18h340.36c29.68,0,53.82-24.31,53.82-54.18v-136.21H32ZM346.13,327h-4.73v15.1c0,8.84-7.16,16-16,16h-22.42c-8.84,0-16-7.16-16-16v-15.1h-26.71c-6.79,23.28-28.24,40.42-53.71,40.59-.13,0-.26,0-.38,0-30.88,0-56.1-25.01-56.31-55.94v-.73c0-.06,0-.13,0-.19.54-31.05,26.27-55.87,57.29-55.33,25.02.43,45.88,16.88,52.85,39.61h86.12c8.84,0,16,7.16,16,16s-7.16,16-16,16Z"/></svg>