<?xml version="1.0" encoding="UTF-8"?><svg id="Icon" xmlns="http://www.w3.org/2000/svg" viewBox="0 0 512 512"><path d="M245.87,184.95s.09,0,.14,0c10.87.14,19.68,8.88,19.9,19.76l.86,55.75c.08,4.92,4.08,8.85,8.98,8.85.05,0,.09,0,.14,0l95.88-1.48s.09,0,.13,0c4.63,0,8.41,3.71,8.48,8.35l16.29,89.95-18.74,3.73-14.9-73.96c-.08-4.92-4.08-8.85-8.98-8.85-.05,0-.09,0-.14,0l-107.81,1.66c-.1,0-.2,0-.3,0-10.35,0-18.81-8.31-18.97-18.69l-1-64.7c-.17-11.08,8.67-20.2,19.74-20.37.1,0,.2,0,.3,0M245.87,152.95c-.28,0-.56,0-.85,0-13.86.22-26.84,5.83-36.52,15.82-9.68,9.98-14.89,23.14-14.67,37.05l1,64.69c.21,13.48,5.61,26.1,15.22,35.56,9.6,9.44,22.29,14.64,35.75,14.64.26,0,.52,0,.78,0l88.53-1.36,11.45,56.83c3.06,15.19,16.41,25.69,31.34,25.69,2.07,0,4.17-.2,6.28-.62l18.74-3.73c17.12-3.41,28.36-19.91,25.24-37.09l-15.99-88.29c-.96-9.36-5.1-18.02-11.88-24.69-7.62-7.5-17.7-11.62-28.39-11.62-.21,0-.43,0-.64,0l-72.85,1.12-.5-32.74c0-.05,0-.11,0-.16-.28-13.6-5.75-26.37-15.4-35.96s-22.47-14.96-36.07-15.14c-.07,0-.14,0-.21,0h-.35Z"/><path d="M241.26,143.63c-24.05,0-44.76-18.23-47.31-42.66-1.32-12.65,2.36-25.05,10.37-34.92,8.01-9.88,19.38-16.04,32.03-17.36,26.12-2.72,49.56,16.3,52.28,42.4,2.73,26.1-16.3,49.56-42.4,52.28-1.67.17-3.33.26-4.98.26ZM241.3,80.43c-.54,0-1.08.03-1.63.09h0c-4.14.43-7.87,2.45-10.5,5.69s-3.83,7.3-3.4,11.45c.89,8.56,8.58,14.79,17.13,13.9,8.56-.89,14.79-8.58,13.9-17.13-.84-8.01-7.62-13.98-15.5-13.98ZM238.01,64.6h0,0Z"/><path d="M222.87,458.43c-72.05,0-130.68-58.62-130.68-130.68,0-45.07,22.77-86.38,60.9-110.51,7.47-4.72,17.35-2.5,22.08,4.97,4.72,7.47,2.5,17.35-4.97,22.08-28.81,18.22-46.01,49.42-46.01,83.46,0,54.41,44.27,98.68,98.68,98.68,35,0,66.65-17.94,84.68-47.99,4.55-7.58,14.38-10.03,21.95-5.49,7.58,4.55,10.03,14.37,5.49,21.95-11.4,19.01-27.57,34.92-46.75,46.02-19.79,11.45-42.39,17.5-65.37,17.5Z"/></svg>