<?xml version="1.0" encoding="UTF-8"?><svg id="Icon" xmlns="http://www.w3.org/2000/svg" viewBox="0 0 512 512"><path d="M426.18,87.13H85.82c-29.68,0-53.82,24.31-53.82,54.18v229.1c0,29.88,24.14,54.18,53.82,54.18h340.36c29.68,0,53.82-24.31,53.82-54.18v-229.1c0-29.88-24.14-54.18-53.82-54.18ZM85.82,119.13h340.36c12.03,0,21.82,9.95,21.82,22.18v60.89H64v-60.89c0-12.23,9.79-22.18,21.82-22.18ZM426.18,392.59H85.82c-12.03,0-21.82-9.95-21.82-22.18v-136.21h384v136.21c0,12.23-9.79,22.18-21.82,22.18Z"/><path d="M346.13,295h-86.12c-6.97-22.73-27.83-39.17-52.85-39.61-15.04-.26-29.28,5.35-40.1,15.8-10.82,10.45-16.92,24.49-17.18,39.53,0,.05,0,.1,0,.15,0,.27,0,.53,0,.78.1,15.04,6.05,29.15,16.76,39.71,10.62,10.48,24.65,16.23,39.54,16.23.13,0,.26,0,.39,0,15.04-.1,29.15-6.05,39.71-16.76,6.68-6.77,11.44-14.93,14.02-23.83h26.69v15.1c0,8.84,7.16,16,16,16h22.42c8.84,0,16-7.16,16-16v-15.1h4.73c8.84,0,16-7.16,16-16s-7.16-16-16-16ZM223.5,328.35c-4.56,4.62-10.65,7.19-17.15,7.24-6.52.06-12.62-2.45-17.24-7.01-4.62-4.56-7.19-10.65-7.24-17.17v-.23c.14-6.46,2.77-12.48,7.42-16.97,4.67-4.51,10.82-6.93,17.32-6.82,13.17.23,23.66,10.72,23.89,23.89,0,.09,0,.19,0,.28-.07,6.33-2.55,12.28-7.01,16.79Z"/></svg>