<?xml version="1.0" encoding="UTF-8"?><svg id="Icon" xmlns="http://www.w3.org/2000/svg" viewBox="0 0 512 512"><path d="M256,32c-59.83,0-116.08,23.3-158.39,65.61-42.31,42.31-65.61,98.56-65.61,158.39s23.3,116.08,65.61,158.39c42.31,42.31,98.56,65.61,158.39,65.61s116.08-23.3,158.39-65.61,65.61-98.56,65.61-158.39-23.3-116.08-65.61-158.39c-42.31-42.31-98.56-65.61-158.39-65.61ZM129.5,400.3c25.35-13.84,75.54-37.01,127.5-37.01,60.39,0,105.19,22.37,126.76,35.9-33.96,30.34-78.74,48.81-127.76,48.81s-92.69-18.02-126.5-47.7ZM406.16,375.5c-22.98-15.47-75.58-44.21-149.16-44.21-65.16,0-125.43,30.58-150.42,45.13-26.61-32.96-42.58-74.86-42.58-120.42,0-105.87,86.13-192,192-192s192,86.13,192,192c0,45.14-15.67,86.69-41.84,119.5Z"/><path d="M256,133.71c-45.77,0-83,37.23-83,83s37.23,83,83,83,83-37.23,83-83-37.23-83-83-83ZM256,267.71c-28.12,0-51-22.88-51-51s22.88-51,51-51,51,22.88,51,51-22.88,51-51,51Z"/></svg>