<?xml version="1.0" encoding="UTF-8"?><svg id="Icon" xmlns="http://www.w3.org/2000/svg" viewBox="0 0 512 512"><path d="M214.41,255.97c0,22.95,18.61,41.56,41.57,41.56s41.57-18.61,41.57-41.56-18.61-41.57-41.57-41.57-41.57,18.61-41.57,41.57Z"/><path d="M323.96,166.71c6.25,6.25,16.38,6.25,22.63,0,6.25-6.25,6.25-16.38,0-22.63l-.09-.09c-24.16-24.13-56.25-37.42-90.4-37.42-.02,0-.05,0-.07,0-34.17.02-66.28,13.34-90.43,37.52-6.25,6.25-6.24,16.38.01,22.63,3.12,3.12,7.22,4.68,11.31,4.68s8.2-1.56,11.32-4.69c18.11-18.13,42.19-28.12,67.81-28.13h.06c25.6,0,49.67,9.96,67.78,28.05l.09.09Z"/><path d="M165.41,367.92l.09.09c24.94,24.91,57.66,37.35,90.4,37.35s65.56-12.49,90.5-37.46c6.25-6.25,6.24-16.38-.01-22.63-6.25-6.25-16.38-6.24-22.63.01-37.38,37.42-98.23,37.45-135.64.08l-.09-.09c-6.25-6.25-16.38-6.25-22.63,0s-6.25,16.38,0,22.63Z"/><path d="M399.18,91.3c-78.95-78.93-207.42-78.93-286.37,0-6.25,6.25-6.25,16.38,0,22.63,6.25,6.25,16.38,6.25,22.63,0,66.48-66.46,174.64-66.46,241.12,0,3.12,3.12,7.22,4.68,11.31,4.68s8.19-1.56,11.32-4.69c6.25-6.25,6.25-16.38,0-22.63Z"/><path d="M399.19,398.08c-6.25-6.25-16.38-6.25-22.63,0-66.48,66.46-174.64,66.46-241.12,0-6.25-6.25-16.38-6.25-22.63,0-6.25,6.25-6.25,16.38,0,22.63,39.48,39.46,91.33,59.2,143.18,59.2s103.71-19.73,143.18-59.2c6.25-6.25,6.25-16.38,0-22.63Z"/></svg>