<?xml version="1.0" encoding="UTF-8"?><svg id="Icon" xmlns="http://www.w3.org/2000/svg" viewBox="0 0 512 512"><path d="M452.69,294l-99.37,99.37-39-39c-6.25-6.25-16.38-6.25-22.63,0-6.25,6.25-6.25,16.38,0,22.63l50.31,50.31c3.12,3.12,7.22,4.69,11.31,4.69s8.19-1.56,11.31-4.69l110.69-110.69c6.25-6.25,6.25-16.38,0-22.63-6.25-6.25-16.38-6.25-22.63,0Z"/><path d="M156.78,160c0,52.93,43.07,96,96,96s96-43.07,96-96-43.07-96-96-96-96,43.07-96,96ZM316.78,160c0,35.29-28.71,64-64,64s-64-28.71-64-64,28.71-64,64-64,64,28.71,64,64Z"/><path d="M253.85,304c-89.16,0-169.75,53.76-173.14,56.05-7.32,4.94-9.24,14.88-4.3,22.2,3.09,4.58,8.14,7.05,13.28,7.05,3.08,0,6.18-.88,8.93-2.73.75-.51,76.05-50.57,155.24-50.57,8.84,0,16-7.16,16-16s-7.16-16-16-16Z"/></svg>