<?xml version="1.0" encoding="UTF-8"?><svg id="Icon" xmlns="http://www.w3.org/2000/svg" viewBox="0 0 512 512"><path d="M450.85,226.58c-2.06-22.22-6.84-43.06-14.6-63.71-2.34-6.24-8.31-10.37-14.98-10.37H92.92c-6.43,0-12.24,3.85-14.74,9.77-10.42,24.67-16.17,43.98-18.08,60.78-.51,4.52.92,9.05,3.95,12.45,3.03,3.4,7.36,5.35,11.91,5.36,7.07.02,10.77,7.63,10.77,15.13,0,8.03-5.19,14.66-11.81,15.11-4.3.29-8.3,2.3-11.1,5.58s-4.15,7.55-3.76,11.84c.32,3.5.78,7.09,1.34,10.71h-12.51c-8.84,0-16,7.16-16,16s7.16,16,16,16h20.24c2.18,6.65,4.67,13.06,7.39,18.97,2.62,5.67,8.29,9.29,14.53,9.29h329.81c6.8,0,12.85-4.29,15.1-10.71,2.59-7.39,9.03-27.48,12.93-54.49,3.33-23.02,3.98-45.8,1.95-67.72ZM93.71,298.37c14.85-7.69,25.02-23.88,25.02-42.37,0-19.5-9.71-35.53-24.37-42.85,2.03-8.41,5.12-17.91,9.31-28.65h258.22c4.65,14.58,7.64,29.41,9.09,45.03,1.8,19.41,1.21,39.66-1.76,60.19-2.28,15.78-5.48,28.81-8.07,37.78H101.73c-3.43-9.17-6.22-19.32-8.02-29.13ZM417.23,289.72c-2.28,15.78-5.48,28.81-8.07,37.78h-14.86c2.32-9.09,4.74-20.36,6.6-33.2,3.33-23.02,3.98-45.8,1.95-67.72-1.35-14.5-3.86-28.42-7.59-42.08h14.64c4.65,14.58,7.64,29.41,9.09,45.03,1.8,19.41,1.21,39.66-1.76,60.19Z"/><path d="M302,196.5c-30.88,0-56,25.12-56,56s25.12,56,56,56,56-25.12,56-56-25.12-56-56-56ZM302,276.5c-13.23,0-24-10.77-24-24s10.77-24,24-24,24,10.77,24,24-10.77,24-24,24Z"/></svg>