<?xml version="1.0" encoding="UTF-8"?><svg id="Icon" xmlns="http://www.w3.org/2000/svg" viewBox="0 0 512 512"><path d="M302,232c-13.23,0-24,10.77-24,24s10.77,24,24,24,24-10.77,24-24-10.77-24-24-24Z"/><path d="M374.79,213.15c-1.94-20.92-5.59-40.97-11.03-60.65H92.92c-6.43,0-12.24,3.85-14.74,9.77-10.42,24.67-16.17,43.98-18.08,60.78-.51,4.52.92,9.05,3.95,12.45,3.03,3.4,7.36,5.35,11.91,5.36,7.07.02,10.77,7.63,10.77,15.13,0,8.03-5.19,14.66-11.81,15.11-4.3.29-8.3,2.3-11.1,5.58s-4.15,7.55-3.76,11.84c.32,3.5.78,7.09,1.34,10.71h-12.51c-8.84,0-16,7.16-16,16s7.16,16,16,16h20.24c2.18,6.65,4.67,13.06,7.39,18.97,2.62,5.67,8.29,9.29,14.53,9.29h271.21c3.38-13.21,6.94-29.72,9.68-48.67,4.81-33.29,5.77-66.15,2.84-97.68ZM302,312c-30.88,0-56-25.12-56-56s25.12-56,56-56,56,25.12,56,56-25.12,56-56,56Z"/><path d="M450.85,226.58c-2.06-22.22-6.84-43.06-14.6-63.71-2.34-6.24-8.31-10.37-14.98-10.37h-24.42c4.71,18.76,7.95,37.87,9.79,57.69,3.16,34.04,2.14,69.43-3.03,105.22-2.39,16.57-5.4,31.44-8.4,44.09h25.65c6.8,0,12.85-4.29,15.1-10.71,2.59-7.39,9.03-27.48,12.93-54.49,3.33-23.02,3.98-45.8,1.95-67.72Z"/></svg>