<?xml version="1.0" encoding="UTF-8"?><svg id="Icon" xmlns="http://www.w3.org/2000/svg" viewBox="0 0 512 512"><path d="M456,352h-56v-56c0-8.84-7.16-16-16-16s-16,7.16-16,16v56h-56c-8.84,0-16,7.16-16,16s7.16,16,16,16h56v56c0,8.84,7.16,16,16,16s16-7.16,16-16v-56h56c8.84,0,16-7.16,16-16s-7.16-16-16-16Z"/><path d="M156.78,160c0,52.93,43.07,96,96,96s96-43.07,96-96-43.07-96-96-96-96,43.07-96,96ZM316.78,160c0,35.29-28.71,64-64,64s-64-28.71-64-64,28.71-64,64-64,64,28.71,64,64Z"/><path d="M253.85,304c-89.16,0-169.75,53.76-173.14,56.05-7.32,4.94-9.24,14.88-4.3,22.2,3.09,4.58,8.14,7.05,13.28,7.05,3.08,0,6.18-.88,8.93-2.73.75-.51,76.05-50.57,155.24-50.57,8.84,0,16-7.16,16-16s-7.16-16-16-16Z"/></svg>