<?xml version="1.0" encoding="UTF-8"?><svg id="Icon" xmlns="http://www.w3.org/2000/svg" viewBox="0 0 512 512"><path d="M164,160c0-8.84-7.16-16-16-16h-72c-8.84,0-16,7.16-16,16s7.16,16,16,16h72c8.84,0,16-7.16,16-16Z"/><path d="M75.47,271.73l72,.53c8.84.07,16.05-7.04,16.12-15.88.07-8.84-7.04-16.05-15.88-16.12l-72-.53c-8.84-.07-16.05,7.04-16.12,15.88s7.04,16.05,15.88,16.12Z"/><path d="M275.48,228.21c11.78,0,21.36-9.58,21.36-21.36s-9.58-21.36-21.36-21.36-21.36,9.58-21.36,21.36,9.58,21.36,21.36,21.36Z"/><path d="M382.22,32h-236.44c-27.45,0-49.78,22.73-49.78,50.67v45.21l52.53.39c17.64.13,31.89,14.59,31.76,32.24s-14.59,31.89-32.24,31.76l-52.06-.39v32.12h52c17.65,0,32,14.36,32,32s-14.35,32-32,32h-52v32h52c17.65,0,32,14.36,32,32s-14.35,32-32,32h-52v45.33c0,27.94,22.33,50.67,49.78,50.67h236.44c27.45,0,49.78-22.73,49.78-50.67V82.67c0-27.94-22.33-50.67-49.78-50.67ZM275.48,153.5c29.42,0,53.36,23.94,53.36,53.36s-23.94,53.36-53.36,53.36-53.36-23.94-53.36-53.36,23.94-53.36,53.36-53.36ZM372.62,331.95c-3.16,3.67-7.63,5.55-12.13,5.55-3.7,0-7.42-1.28-10.44-3.88-.22-.18-28.85-23.9-74.02-23.9-38.83,0-76.27,24.81-76.64,25.06-7.33,4.92-17.27,2.97-22.2-4.35s-3.01-17.24,4.3-22.18c1.84-1.25,45.74-30.53,94.53-30.53,57.52,0,93.41,30.37,94.91,31.66,6.69,5.77,7.44,15.87,1.67,22.57Z"/><path d="M164,352c0-8.84-7.16-16-16-16h-72c-8.84,0-16,7.16-16,16s7.16,16,16,16h72c8.84,0,16-7.16,16-16Z"/></svg>