<?xml version="1.0" encoding="UTF-8"?><svg id="Icon" xmlns="http://www.w3.org/2000/svg" viewBox="0 0 512 512"><path d="M328.84,206.86c0-29.42-23.94-53.36-53.36-53.36s-53.36,23.94-53.36,53.36,23.94,53.36,53.36,53.36,53.36-23.94,53.36-53.36ZM254.13,206.86c0-11.78,9.58-21.36,21.36-21.36s21.36,9.58,21.36,21.36-9.58,21.36-21.36,21.36-21.36-9.58-21.36-21.36Z"/><path d="M177.2,330.43c4.93,7.32,14.87,9.26,22.2,4.35.37-.25,37.81-25.06,76.64-25.06,45.16,0,73.79,23.72,74.02,23.9,3.02,2.61,6.74,3.88,10.44,3.88,4.49,0,8.96-1.88,12.13-5.55,5.77-6.69,5.02-16.8-1.67-22.57-1.5-1.29-37.39-31.66-94.91-31.66-48.79,0-92.69,29.28-94.53,30.53-7.31,4.94-9.23,14.86-4.3,22.18Z"/><path d="M164,160c0-8.84-7.16-16-16-16h-72c-8.84,0-16,7.16-16,16s7.16,16,16,16h72c8.84,0,16-7.16,16-16Z"/><path d="M76,272h72c8.84,0,16-7.16,16-16s-7.16-16-16-16h-72c-8.84,0-16,7.16-16,16s7.16,16,16,16Z"/><path d="M164,352c0-8.84-7.16-16-16-16h-72c-8.84,0-16,7.16-16,16s7.16,16,16,16h72c8.84,0,16-7.16,16-16Z"/><path d="M127.31,203.36c-.15-.5-.33-1-.53-1.48-.2-.48-.43-.96-.67-1.41-.24-.46-.51-.92-.8-1.35-.29-.44-.61-.86-.94-1.26-.33-.41-.68-.8-1.05-1.17s-.76-.73-1.17-1.06c-.4-.33-.83-.64-1.26-.93-.44-.29-.89-.56-1.35-.8-.46-.25-.94-.47-1.42-.67s-.97-.38-1.47-.53c-.5-.15-1.01-.28-1.52-.38-.51-.11-1.03-.19-1.55-.24-1.05-.1-2.11-.1-3.15,0-.52.05-1.04.13-1.55.24-.51.1-1.02.23-1.52.38-.5.15-.99.33-1.48.53-.48.2-.95.42-1.41.67-.46.24-.91.51-1.35.8-.43.29-.86.6-1.26.93-.41.33-.8.69-1.17,1.06s-.72.76-1.06,1.17c-.33.4-.64.82-.93,1.26-.29.43-.56.89-.8,1.35-.25.45-.47.93-.67,1.41-.2.48-.38.98-.53,1.48-.15.49-.28,1.01-.38,1.51-.11.52-.19,1.04-.24,1.56-.05.52-.08,1.05-.08,1.57s.03,1.05.08,1.58c.05.51.13,1.04.24,1.55.1.51.23,1.02.38,1.52s.33.99.53,1.47c.2.48.42.96.67,1.42.24.46.51.91.8,1.34.29.44.6.86.93,1.27.34.4.69.8,1.06,1.17.37.36.76.72,1.17,1.05.4.33.83.64,1.26.93.44.29.89.56,1.35.81.46.24.93.47,1.41.67.49.2.98.37,1.48.53.5.15,1.01.28,1.52.38.51.1,1.03.18,1.55.23.52.06,1.05.08,1.57.08s1.06-.02,1.58-.08c.52-.05,1.04-.13,1.55-.23.51-.1,1.02-.23,1.52-.38.5-.16.99-.33,1.47-.53s.96-.43,1.42-.67c.46-.25.91-.52,1.35-.81.43-.29.86-.6,1.26-.93.41-.33.8-.69,1.17-1.05.37-.37.72-.77,1.05-1.17.33-.41.65-.83.94-1.27.29-.43.56-.88.8-1.34.24-.46.47-.94.67-1.42.2-.48.38-.97.53-1.47.15-.5.28-1.01.38-1.52.1-.51.18-1.04.24-1.55.05-.53.07-1.06.07-1.58s-.02-1.05-.07-1.57c-.06-.52-.14-1.04-.24-1.56-.1-.5-.23-1.02-.38-1.51Z"/><path d="M127.31,299.36c-.16-.5-.33-1-.53-1.48-.2-.48-.43-.95-.67-1.41-.25-.46-.52-.92-.8-1.35-.29-.43-.61-.86-.94-1.26-.33-.41-.68-.8-1.05-1.17s-.77-.73-1.17-1.06c-.4-.33-.83-.64-1.26-.93-.44-.29-.89-.56-1.35-.8-.46-.25-.94-.47-1.42-.67s-.97-.38-1.47-.53c-.5-.15-1.01-.28-1.52-.39-.51-.1-1.03-.18-1.55-.23-1.05-.1-2.1-.1-3.15,0-.52.05-1.04.13-1.55.23-.51.11-1.02.24-1.52.39-.5.15-.99.33-1.48.53-.48.2-.95.42-1.41.67-.46.24-.91.51-1.35.8-.43.29-.86.6-1.26.93-.41.33-.8.69-1.17,1.06s-.72.76-1.06,1.17c-.33.4-.64.83-.93,1.26-.29.43-.56.89-.8,1.35-.25.46-.47.93-.67,1.41-.2.48-.38.98-.53,1.48s-.28,1.01-.38,1.52c-.11.51-.18,1.03-.24,1.55-.05.52-.08,1.05-.08,1.57s.03,1.05.08,1.58c.06.51.13,1.04.24,1.55.1.51.23,1.02.38,1.52.15.49.33.99.53,1.47.2.48.42.96.67,1.42.24.46.51.91.8,1.34.29.44.6.86.93,1.27.34.4.69.8,1.06,1.17.37.36.76.72,1.17,1.05.4.33.83.65,1.26.93.44.29.89.56,1.35.81.46.24.93.47,1.41.67.49.2.98.37,1.48.52.5.16,1.01.29,1.52.39.51.1,1.03.18,1.55.23.52.06,1.05.08,1.57.08s1.06-.02,1.58-.08c.52-.05,1.04-.13,1.55-.23.51-.1,1.02-.23,1.52-.39.5-.15.99-.32,1.47-.52s.96-.43,1.42-.67c.46-.25.91-.52,1.35-.81.43-.28.86-.6,1.26-.93s.8-.69,1.17-1.05c.37-.37.72-.77,1.05-1.17.33-.41.65-.83.94-1.27.28-.43.55-.88.8-1.34.24-.46.47-.94.67-1.42.2-.48.37-.98.53-1.47.15-.5.28-1.01.38-1.52.1-.51.18-1.04.23-1.55.06-.53.08-1.06.08-1.58s-.02-1.05-.08-1.57c-.05-.52-.13-1.04-.23-1.55-.1-.51-.23-1.02-.38-1.52Z"/><path d="M382.22,32h-236.44c-27.45,0-49.78,22.73-49.78,50.67v29.33c0,8.84,7.16,16,16,16s16-7.16,16-16v-29.33c0-10.29,7.98-18.67,17.78-18.67h236.44c9.8,0,17.78,8.37,17.78,18.67v346.67c0,10.29-7.98,18.67-17.78,18.67h-236.44c-9.8,0-17.78-8.37-17.78-18.67v-30.72c0-8.84-7.16-16-16-16s-16,7.16-16,16v30.72c0,27.94,22.33,50.67,49.78,50.67h236.44c27.45,0,49.78-22.73,49.78-50.67V82.67c0-27.94-22.33-50.67-49.78-50.67Z"/></svg>