<?xml version="1.0" encoding="UTF-8"?><svg id="Icon" xmlns="http://www.w3.org/2000/svg" viewBox="0 0 512 512"><path d="M463.9,101.26h-129.49c-8.84,0-16,7.16-16,16v39.5h-25.7c-6.72-20.13-25.73-34.69-48.08-34.69s-41.37,14.56-48.08,34.69H47.9c-8.84,0-16,7.16-16,16s7.16,16,16,16h148.65c6.72,20.13,25.73,34.69,48.08,34.69s41.37-14.56,48.08-34.69h25.7v134.49h-25.7c-6.72-20.13-25.73-34.69-48.08-34.69s-41.37,14.56-48.08,34.69h-70.03v-17.53c0-3.83-3.11-6.94-6.94-6.94h-23.12c-3.83,0-6.94,3.11-6.94,6.94v17.53h-41.62c-8.84,0-16,7.16-16,16s7.16,16,16,16h41.62v17.53c0,3.83,3.11,6.94,6.94,6.94h23.12c3.83,0,6.94-3.11,6.94-6.94v-17.53h70.03c6.72,20.13,25.73,34.68,48.08,34.68s41.37-14.56,48.08-34.68h25.7v39.5c0,8.84,7.16,16,16,16h129.49c8.84,0,16-7.16,16-16V117.26c0-8.84-7.16-16-16-16ZM244.64,191.44c-10.3,0-18.68-8.38-18.69-18.68,0,0,0,0,0,0s0,0,0,0c0-10.3,8.38-18.68,18.69-18.68s18.69,8.38,18.69,18.69-8.38,18.69-18.69,18.69ZM244.64,357.93c-10.3,0-18.69-8.38-18.69-18.68s8.38-18.69,18.69-18.69,18.69,8.38,18.69,18.69-8.38,18.68-18.69,18.68ZM447.9,378.74h-97.49v-245.48h97.49v245.48Z"/></svg>