<?xml version="1.0" encoding="UTF-8"?><svg id="Icon" xmlns="http://www.w3.org/2000/svg" viewBox="0 0 512 512"><path d="M160.79,139.36l-25.13,5.19c-11.62,2.4-20.71,11.48-23.11,23.11l-5.19,25.13c-1.75,8.46-13.83,8.46-15.58,0l-5.19-25.13c-2.4-11.62-11.48-20.71-23.11-23.11l-25.13-5.19c-8.46-1.75-8.46-13.83,0-15.58l25.13-5.19c11.62-2.4,20.71-11.48,23.11-23.11l5.19-25.13c1.75-8.46,13.83-8.46,15.58,0l5.19,25.13c2.4,11.62,11.48,20.71,23.11,23.11l25.13,5.19c8.46,1.75,8.46,13.83,0,15.58Z"/><path d="M93.54,344.21c-8.84,0-16-7.16-16-16v-58.67c0-8.84,7.16-16,16-16s16,7.16,16,16v58.67c0,8.84-7.16,16-16,16Z"/><path d="M170.26,448c-8.84,0-16-7.16-16-16v-205.33c0-8.84,7.16-16,16-16s16,7.16,16,16v205.33c0,8.84-7.16,16-16,16Z"/><path d="M256,402.87c-8.84,0-16-7.16-16-16V80c0-8.84,7.16-16,16-16s16,7.16,16,16v306.87c0,8.84-7.16,16-16,16Z"/><path d="M341.74,402.87c-8.84,0-16-7.16-16-16v-142.48c0-8.84,7.16-16,16-16s16,7.16,16,16v142.48c0,8.84-7.16,16-16,16Z"/><path d="M418.46,357.96c-8.84,0-16-7.16-16-16v-72.42c0-8.84,7.16-16,16-16s16,7.16,16,16v72.42c0,8.84-7.16,16-16,16Z"/></svg>