<?xml version="1.0" encoding="UTF-8"?><svg id="Icon" xmlns="http://www.w3.org/2000/svg" viewBox="0 0 512 512"><path d="M311.39,272h47.08c6.36,15.82,21.86,27.02,39.92,27.02,23.72,0,43.02-19.3,43.02-43.02s-19.3-43.02-43.02-43.02c-18.07,0-33.56,11.2-39.93,27.02h-47.08c-3.31,0-6.46-1.26-8.85-3.55l-9.34-8.92s-.05-.04-.07-.06v-56.39c.09,0,.19.01.28.01h8.81c4.08,0,8-1.56,10.97-4.36l17.6-16.59c5.28,2.32,11.11,3.61,17.23,3.61,23.72,0,43.02-19.3,43.02-43.02s-19.3-43.02-43.02-43.02-43.02,19.3-43.02,43.02c0,5.88,1.19,11.49,3.33,16.6l-12.47,11.75h-2.46c-.09,0-.19.01-.28.01v-46.47c0-11.5-8.67-20.18-20.18-20.18h-36c-40.09,0-72.85,23.44-86.16,47.47-13.42,4.43-25.3,12.85-33.94,24.2-9.29,12.19-14.55,26.98-15.34,42.99-17.72,14.73-28.1,38.9-28.1,66.21,0,18.12,6.22,37.58,16.15,51.38-1.52,19.75,2.77,46.82,19.85,66.17,7.1,8.26,22.42,21.42,48.74,23.15,17.96,30.6,45.57,45.5,84.12,45.5,9.75,0,20.66-1.13,34.35-3.54.1-.02.19-.04.29-.06,9.54-1.9,16.2-10.09,16.2-19.93v-58.41h2.74l24.62,23.2c-2.27,5.24-3.54,11.01-3.54,17.07,0,23.72,19.3,43.02,43.02,43.02s43.02-19.3,43.02-43.02-19.3-43.02-43.02-43.02c-5.94,0-11.6,1.21-16.76,3.4l-30.02-28.29c-2.97-2.8-6.89-4.36-10.97-4.36h-9.09v-57.48c5.68,2.54,11.88,3.88,18.26,3.88ZM398.4,244.98c5.97,0,11.02,5.05,11.02,11.02s-5.05,11.02-11.02,11.02-11.02-5.05-11.02-11.02,5.05-11.02,11.02-11.02ZM348.03,99.73c5.97,0,11.02,5.05,11.02,11.02s-5.05,11.02-11.02,11.02-11.02-5.05-11.02-11.02,5.05-11.02,11.02-11.02ZM370.99,397.87h0c0,5.98-5.05,11.02-11.02,11.02s-11.02-5.05-11.02-11.02,5.05-11.02,11.02-11.02,11.02,5.05,11.02,11.02ZM266.11,143.85c-5.65,0-5.65-.19-8.44-.19-9.16,0-16.84-2.27-21.73-7.87-3.03-3.46-7.82-4.78-12.08-3.06l-.56.23c-7.13,2.89-9.28,11.95-4.21,17.73,9.09,10.35,22.84,15.79,38.5,15.79,2.84,0-.49,0,8.52,0v48.34c-5.99-2.85-12.13-4.3-18.36-4.3-12.81.01-25.07,6.08-36.44,18.03-6,6.29-15.71,10.2-25.33,10.2-3.39,0-6.53-.5-9.28-1.45-2.41-12.71-11.09-22.77-23.13-27.38-7.33-2.8-15.17,2.77-15.17,10.62,0,4.6,2.8,8.73,7.06,10.46,5.67,2.31,9.43,7.39,9.43,13.57,0,5.07-2.25,10.19-5.64,13.62-2.99,3.03-3.95,7.53-2.53,11.55h0c2.73,7.71,12.64,10.12,18.4,4.3,3.95-3.98,7.13-8.84,9.26-14.17,3.64.8,7.49,1.23,11.47,1.23,15.97,0,31.56-6.37,41.73-17.06,6.97-7.32,13.75-11.03,20.2-11.03,5.78,0,11.93,2.98,18.32,8.89v88.04c-.99-.06-1.99-.1-2.97-.1-12.43,0-24.04,5.47-32.21,14.65-5.05,5.67-2.87,14.66,4.1,17.64,4.4,1.88,9.58.82,12.73-2.79,3.08-3.54,7.98-7.02,15.31-7.02.99,0,2,.07,3.04.2v57.84c-9.37,1.48-17.05,2.16-23.82,2.16-28.08,0-46.88-9.53-59.9-30.64h.66v-4.36c0-21.18,10.19-59.82,47.39-65.53,5.53-.85,9.65-5.52,9.65-11.12h0c0-6.92-6.19-12.16-13.03-11.1-17.98,2.8-33.4,11.51-45.2,25.61-5.16-2.09-9.45-6.05-11.79-9.83-2.09-3.37-5.69-5.51-9.66-5.51h0c-8.65,0-14.16,9.44-9.71,16.86,4.33,7.22,11.12,13.55,19.07,17.63-4.63,9.98-7.58,21.02-8.69,32.58-16.42-.77-26-7.8-31.22-13.89-.04-.06-.09-.1-.14-.16-11.97-13.52-15.02-35.06-12.75-50.4.59-3.94-.6-7.94-3.24-10.93-7.95-9-13.29-24.43-13.29-38.39,0-21.11,8.19-39.07,21.89-48.03,3.82-2.5,6.11-6.74,6.11-11.3v-2.67c0-19.93,10.22-36.56,26.18-43.91,4.62,39.21,28.16,49.38,53.85,51.41,6.5.51,12.04-4.68,12.04-11.2,0-5.91-4.58-10.75-10.47-11.2-22.83-1.77-33.76-10.95-33.76-43.86v-2.62c10.36-15.64,34.12-30.43,60.67-30.43h29.15v44.35Z"/></svg>