<?xml version="1.0" encoding="UTF-8"?><svg id="Icon" xmlns="http://www.w3.org/2000/svg" viewBox="0 0 512 512"><path d="M350.03,424.22c-4.09,0-8.19-1.56-11.31-4.69-6.25-6.25-6.25-16.38,0-22.63l70.66-70.66-70.66-70.66c-6.25-6.25-6.25-16.38,0-22.63,6.25-6.25,16.38-6.25,22.63,0l81.97,81.97c6.25,6.25,6.25,16.38,0,22.63l-81.97,81.97c-3.12,3.12-7.22,4.69-11.31,4.69Z"/><path d="M161.97,424.22c-4.1,0-8.19-1.56-11.31-4.69l-81.97-81.97c-6.25-6.25-6.25-16.38,0-22.63l81.97-81.97c6.25-6.25,16.38-6.25,22.63,0,6.25,6.25,6.25,16.38,0,22.63l-70.66,70.66,70.66,70.66c6.25,6.25,6.25,16.38,0,22.63-3.12,3.12-7.22,4.69-11.31,4.69Z"/><path d="M211.73,476.66c-1.66,0-3.35-.26-5.01-.81-8.39-2.76-12.96-11.81-10.19-20.2l88.55-268.82c2.76-8.39,11.81-12.95,20.2-10.19,8.39,2.76,12.96,11.81,10.19,20.2l-88.55,268.82c-2.22,6.73-8.47,11-15.19,11Z"/><path d="M186.34,127.8l-26.62,5.5c-12.31,2.54-21.93,12.16-24.47,24.47l-5.5,26.62c-1.85,8.96-14.65,8.96-16.5,0l-5.5-26.62c-2.54-12.31-12.16-21.93-24.47-24.47l-26.62-5.5c-8.96-1.85-8.96-14.65,0-16.5l26.62-5.5c12.31-2.54,21.93-12.16,24.47-24.47l5.5-26.62c1.85-8.96,14.65-8.96,16.5,0l5.5,26.62c2.54,12.31,12.16,21.93,24.47,24.47l26.62,5.5c8.96,1.85,8.96,14.65,0,16.5Z"/></svg>