<?xml version="1.0" encoding="UTF-8"?><svg id="Icon" xmlns="http://www.w3.org/2000/svg" viewBox="0 0 512 512"><path d="M186.34,127.8l-26.62,5.5c-12.31,2.54-21.93,12.16-24.47,24.47l-5.5,26.62c-1.85,8.96-14.65,8.96-16.5,0l-5.5-26.62c-2.54-12.31-12.16-21.93-24.47-24.47l-26.62-5.5c-8.96-1.85-8.96-14.65,0-16.5l26.62-5.5c12.31-2.54,21.93-12.16,24.47-24.47l5.5-26.62c1.85-8.96,14.65-8.96,16.5,0l5.5,26.62c2.54,12.31,12.16,21.93,24.47,24.47l26.62,5.5c8.96,1.85,8.96,14.65,0,16.5Z"/><path d="M64.79,455.47c-7.54,0-14.07-5.27-15.65-12.64-.81-3.79-.21-7.6,1.5-10.84l37.07-75.93c-25.68-31.34-39.71-69.27-39.71-107.93,0-24.14,5.21-47.63,15.5-69.81,3.72-8.02,13.23-11.5,21.25-7.79,8.02,3.72,11.5,13.23,7.79,21.25-8.31,17.93-12.53,36.89-12.53,56.35,0,34.59,13.31,67.29,38.49,94.58,4.47,4.85,5.51,11.94,2.62,17.87l-22.52,46.13,58.03-26.11c4.34-1.95,9.32-1.87,13.59.21,26.05,12.73,55.72,19.46,85.79,19.46,97.05,0,176-68.25,176-152.14s-78.95-152.14-176-152.14c-14.75,0-29.41,1.59-43.57,4.72-8.63,1.9-17.17-3.54-19.08-12.17-1.91-8.63,3.54-17.17,12.17-19.08,16.43-3.63,33.41-5.47,50.48-5.47,114.69,0,208,82.6,208,184.14s-93.31,184.14-208,184.14c-32.29,0-64.25-6.72-92.93-19.48l-91.35,41.1c-2.12,1.02-4.49,1.58-6.93,1.58Z"/></svg>