<?xml version="1.0" encoding="UTF-8"?><svg id="Icon" xmlns="http://www.w3.org/2000/svg" viewBox="0 0 512 512"><path d="M441.31,129.92l-59.23-59.23c-6.25-6.25-16.38-6.25-22.63,0L70.69,359.45c-6.25,6.25-6.25,16.38,0,22.63l59.23,59.23c3,3,7.07,4.69,11.31,4.69s8.31-1.69,11.31-4.69L441.31,152.55c6.25-6.25,6.25-16.38,0-22.63ZM204.17,344.44l-36.61-36.61,140.27-140.27,36.61,36.61-140.27,140.27ZM141.23,407.37l-36.61-36.61,40.31-40.31,36.61,36.61-40.31,40.31ZM367.06,181.54l-36.61-36.61,40.31-40.31,36.61,36.61-40.31,40.31Z"/><path d="M186.34,127.8l-26.62,5.5c-12.31,2.54-21.93,12.16-24.47,24.47l-5.5,26.62c-1.85,8.96-14.65,8.96-16.5,0l-5.5-26.62c-2.54-12.31-12.16-21.93-24.47-24.47l-26.62-5.5c-8.96-1.85-8.96-14.65,0-16.5l26.62-5.5c12.31-2.54,21.93-12.16,24.47-24.47l5.5-26.62c1.85-8.96,14.65-8.96,16.5,0l5.5,26.62c2.54,12.31,12.16,21.93,24.47,24.47l26.62,5.5c8.96,1.85,8.96,14.65,0,16.5Z"/></svg>