<?xml version="1.0" encoding="UTF-8"?><svg id="Icon" xmlns="http://www.w3.org/2000/svg" viewBox="0 0 512 512"><path d="M102.68,187.89c1.91,9.27,15.15,9.27,17.06,0l5.69-27.53c2.63-12.73,12.58-22.68,25.31-25.31l27.53-5.69c9.27-1.91,9.27-15.15,0-17.06l-27.53-5.69c-12.73-2.63-22.68-12.58-25.31-25.31l-5.69-27.53c-1.91-9.27-15.15-9.27-17.06,0l-5.69,27.53c-2.63,12.73-12.58,22.68-25.31,25.31l-27.53,5.69c-9.27,1.91-9.27,15.15,0,17.06l27.53,5.69c12.73,2.63,22.68,12.58,25.31,25.31l5.69,27.53Z"/><path d="M236.97,381.99h38.06c5.77,0,10.66-3.91,12.18-9.2,34.14-8.08,63.44-30.31,80.36-61.27h9.65c6.98,0,12.69-5.71,12.69-12.69v-38.06c0-6.98-5.71-12.69-12.69-12.69h-1.42c-13.42-53.66-62.04-93.52-119.79-93.52s-106.37,39.87-119.8,93.52h-1.42c-6.98,0-12.69,5.71-12.69,12.69v38.06c0,6.98,5.71,12.69,12.69,12.69h16.91c6.98,0,12.69-5.71,12.69-12.69v-18.76c.08-.67.14-1.34.14-2.03,0-50.44,41.04-91.48,91.48-91.48s91.48,41.04,91.48,91.48c0,.08.01.15.01.23-.63,1.01-1.16,2.1-1.56,3.28-10.21,30.09-34.91,52.23-64.75,59.77-1.83-1.02-3.92-1.61-6.15-1.61h-38.06c-6.98,0-12.69,5.71-12.69,12.69v16.91c0,6.98,5.71,12.69,12.69,12.69Z"/><path d="M414.45,451.22c-2.47-2.13-61.71-52.25-157.48-52.25-81.35,0-154.84,49.02-157.93,51.11-7.32,4.94-9.24,14.88-4.3,22.2,4.94,7.32,14.88,9.25,22.2,4.33.68-.46,68.65-45.63,140.02-45.63,83.39,0,136.1,44.07,136.59,44.48,3.02,2.61,6.74,3.88,10.44,3.88,4.49,0,8.96-1.88,12.13-5.55,5.77-6.69,5.02-16.8-1.67-22.57Z"/><path d="M209.96,324.05c-5.05,0-10.02-2.39-13.14-6.85-8.45-12.11-12.92-26.35-12.92-41.16,0-39.7,32.3-72,72-72s72,32.3,72,72c0,2.04-.09,4.11-.26,6.13-.74,8.81-8.48,15.32-17.29,14.6-8.81-.74-15.34-8.49-14.6-17.29.1-1.13.14-2.29.14-3.44,0-22.05-17.94-40-40-40s-40,17.94-40,40c0,8.23,2.48,16.13,7.16,22.85,5.06,7.25,3.28,17.22-3.97,22.28-2.79,1.95-5.98,2.88-9.14,2.88Z"/></svg>