<?xml version="1.0" encoding="UTF-8"?><svg id="Icon" xmlns="http://www.w3.org/2000/svg" viewBox="0 0 512 512"><path d="M440.73,146.83l-27.53,5.69c-12.73,2.63-22.68,12.58-25.31,25.31l-5.69,27.53c-1.91,9.27-15.15,9.27-17.07,0l-5.69-27.53c-2.63-12.73-12.58-22.68-25.31-25.31l-27.53-5.69c-9.27-1.91-9.27-15.15,0-17.07l27.53-5.69c12.73-2.63,22.68-12.58,25.31-25.31l5.69-27.53c1.91-9.27,15.15-9.27,17.07,0l5.69,27.53c2.63,12.73,12.58,22.68,25.31,25.31l27.53,5.69c9.27,1.91,9.27,15.15,0,17.07Z"/><path d="M357.1,295.89l-59.89,17.29c-17.05,4.92-30.38,18.26-35.3,35.32l-17.26,59.93c-3.84,13.32-22.71,13.32-26.55,0l-17.26-59.93c-4.91-17.06-18.24-30.39-35.3-35.32l-59.89-17.29c-13.31-3.84-13.31-22.7,0-26.54l59.89-17.29c17.05-4.92,30.38-18.26,35.3-35.32l17.26-59.93c3.84-13.32,22.71-13.32,26.55,0l17.26,59.93c4.91,17.06,18.24,30.39,35.3,35.32l59.89,17.29c13.31,3.84,13.31,22.7,0,26.54Z"/></svg>