<?xml version="1.0" encoding="UTF-8"?><svg id="Icon" xmlns="http://www.w3.org/2000/svg" viewBox="0 0 512 512"><path d="M240,240.33h32c8.84,0,16-7.16,16-16s-7.16-16-16-16h-32c-8.84,0-16,7.16-16,16s7.16,16,16,16Z"/><path d="M266,272h-20c-8.84,0-16,7.16-16,16s7.16,16,16,16h20c8.84,0,16-7.16,16-16s-7.16-16-16-16Z"/><path d="M432,432H80c-8.84,0-16,7.16-16,16s7.16,16,16,16h352c8.84,0,16-7.16,16-16s-7.16-16-16-16Z"/><path d="M80,416h144c8.84,0,16-7.16,16-16v-38.05h32v38.05c0,8.84,7.16,16,16,16h144c8.84,0,16-7.16,16-16s-7.16-16-16-16h-128v-22.05h6.29c7.84,0,14.53-5.69,15.79-13.43l25.43-156.24h.49c8.84,0,16-7.16,16-16v-48c0-8.84-7.16-16-16-16h-3.55c-.3-1.25-.74-2.48-1.36-3.66l-27.14-52.02c-2.76-5.29-8.22-8.6-14.19-8.6h-99.52c-5.96,0-11.43,3.31-14.19,8.6l-27.14,52.02c-.62,1.19-1.06,2.42-1.36,3.66h-3.55c-8.84,0-16,7.16-16,16v48c0,8.84,7.16,16,16,16h.49l25.43,156.24c1.26,7.74,7.95,13.43,15.79,13.43h6.29v22.05H80c-8.84,0-16,7.16-16,16s7.16,16,16,16ZM176,160.29v-16h160v16h-160ZM215.94,80h80.12l16.84,32.29h-113.81l16.84-32.29ZM192.91,192.29h126.18l-22.41,137.67h-81.36l-22.41-137.67Z"/></svg>