<?xml version="1.0" encoding="UTF-8"?><svg id="Icon" xmlns="http://www.w3.org/2000/svg" viewBox="0 0 512 512"><circle cx="224.69" cy="381.07" r="19.56" transform="translate(-213.36 442.82) rotate(-67.5)"/><circle cx="224.69" cy="318.49" r="19.56" transform="translate(-22.01 16.73) rotate(-4.07)"/><circle cx="224.69" cy="193.33" r="19.56" transform="translate(-39.91 326.93) rotate(-67.5)"/><circle cx="224.69" cy="255.91" r="19.56" transform="translate(-97.73 365.56) rotate(-67.5)"/><circle cx="224.69" cy="130.75" r="19.56" transform="translate(72.43 341.46) rotate(-84.35)"/><circle cx="287.27" cy="381.07" r="19.56"/><circle cx="287.27" cy="318.49" r="19.56"/><circle cx="287.27" cy="193.33" r="19.56"/><circle cx="287.27" cy="255.91" r="19.56"/><circle cx="287.27" cy="130.75" r="19.56"/><path d="M328.24,416h-144.71c-8.84,0-16,7.16-16,16s7.16,16,16,16h144.71c8.84,0,16-7.16,16-16s-7.16-16-16-16Z"/><path d="M183.53,96h144.71c8.84,0,16-7.16,16-16s-7.16-16-16-16h-144.71c-8.84,0-16,7.16-16,16s7.16,16,16,16Z"/><path d="M443.55,244.69l-41.48-41.48c-6.25-6.25-16.38-6.25-22.63,0-6.25,6.25-6.25,16.38,0,22.63l14.17,14.17h-52.02c-8.84,0-16,7.16-16,16s7.16,16,16,16h52.02l-14.17,14.17c-6.25,6.25-6.25,16.38,0,22.63,3.12,3.12,7.22,4.69,11.31,4.69s8.19-1.56,11.31-4.69l41.48-41.48c6.25-6.25,6.25-16.38,0-22.63Z"/><path d="M76.45,241.21c11.77,5.19,19.55,8.34,28.21,8.34s16.44-3.15,28.21-8.34c10.09-4.45,15.64-6.9,20.04-6.97,4.03-.06,8.31,1.71,18.36,6.73,5.7,2.84,12.66.52,15.51-5.18.8-1.6,1.22-3.38,1.22-5.16,0-4.41-2.45-8.38-6.39-10.35-11.88-5.94-19.96-9.16-28.6-9.16-.23,0-.48,0-.74,0-8.94.19-16.81,3.66-28.73,8.92-9.8,4.32-14.69,6.4-18.88,6.4s-9.08-2.08-18.88-6.39c-5.82-2.57-12.66.08-15.25,5.92-.65,1.48-.98,3.05-.98,4.66,0,4.58,2.71,8.74,6.9,10.59Z"/><path d="M186.78,287.13c.8-1.6,1.22-3.38,1.22-5.16,0-4.41-2.45-8.38-6.39-10.35-11.88-5.94-19.96-9.16-28.6-9.16-.23,0-.48,0-.74,0-8.94.19-16.81,3.66-28.73,8.92-9.8,4.32-14.69,6.4-18.88,6.4s-9.08-2.08-18.88-6.39c-5.82-2.57-12.66.08-15.25,5.92-.65,1.48-.98,3.05-.98,4.66,0,4.58,2.71,8.74,6.9,10.59,11.77,5.19,19.55,8.34,28.21,8.34s16.44-3.15,28.21-8.34c10.09-4.45,15.64-6.9,20.04-6.97,4.03-.06,8.31,1.71,18.36,6.73,5.7,2.84,12.66.52,15.51-5.18Z"/></svg>