<?xml version="1.0" encoding="UTF-8"?><svg id="Icon" xmlns="http://www.w3.org/2000/svg" viewBox="0 0 512 512"><path d="M470.45,202.95c-48.05-21.18-72.33-31.37-98.94-31.37s-50.89,10.18-98.94,31.37c-47.31,20.86-78.56,34.64-109.18,35.29-.78.02-1.56.02-2.33.02-29.52,0-58.82-11.95-105.91-35.49-7.9-3.95-17.52-.75-21.47,7.16-3.95,7.9-.75,17.51,7.16,21.47,51.57,25.78,84.32,38.87,120.22,38.87,1.01,0,2.02,0,3.02-.03,36.99-.78,70.57-15.59,121.4-38,43.89-19.35,65.88-28.65,86.03-28.65s42.14,9.3,86.03,28.65c8.08,3.57,17.53-.1,21.09-8.19,3.56-8.09-.1-17.53-8.19-21.09Z"/><path d="M470.45,273.11c-48.05-21.18-72.33-31.37-98.94-31.37s-50.89,10.18-98.94,31.37c-47.31,20.86-78.57,34.64-109.16,35.29-.78.02-1.57.02-2.35.02-29.52,0-58.82-11.95-105.91-35.49-7.91-3.96-17.51-.75-21.47,7.16-3.95,7.9-.75,17.51,7.16,21.47,51.57,25.78,84.32,38.87,120.22,38.87,1,0,2.01-.01,3.02-.03,36.99-.78,70.57-15.59,121.4-38,43.89-19.35,65.88-28.65,86.03-28.65s42.14,9.3,86.03,28.65c8.09,3.57,17.53-.1,21.09-8.19,3.56-8.09-.1-17.53-8.19-21.09Z"/></svg>