<?xml version="1.0" encoding="UTF-8"?><svg id="Icon" xmlns="http://www.w3.org/2000/svg" viewBox="0 0 512 512"><path d="M255.62,319c-44.38,0-80.36,35.97-80.36,80.35s35.98,80.35,80.36,80.35,80.36-35.97,80.36-80.35-35.99-80.35-80.36-80.35ZM280.15,340.58c8.62,0,15.62,7,15.62,15.63s-7,15.62-15.62,15.62-15.62-7-15.62-15.62,6.99-15.63,15.62-15.63ZM230.71,340.58c8.62,0,15.62,7,15.62,15.63s-6.99,15.62-15.62,15.62-15.62-7-15.62-15.62,6.99-15.63,15.62-15.63ZM190.37,398.7c0-8.63,6.99-15.62,15.62-15.62s15.62,6.99,15.62,15.62-6.99,15.62-15.62,15.62-15.62-7-15.62-15.62ZM230.71,458.35c-8.62,0-15.62-7-15.62-15.62s6.99-15.62,15.62-15.62,15.62,6.99,15.62,15.62-6.99,15.62-15.62,15.62ZM255.43,414.32c-8.62,0-15.62-7-15.62-15.62s6.99-15.62,15.62-15.62,15.62,6.99,15.62,15.62-6.99,15.62-15.62,15.62ZM280.15,458.35c-8.62,0-15.62-7-15.62-15.62s6.99-15.62,15.62-15.62,15.62,6.99,15.62,15.62-7,15.62-15.62,15.62ZM320.49,398.7c0,8.62-7,15.62-15.62,15.62s-15.62-7-15.62-15.62,7-15.62,15.62-15.62,15.62,6.99,15.62,15.62Z"/><path d="M340.35,351.04c5.1,0,9.89-2.43,12.91-6.55,9.34-12.76,56.81-89.51,56.81-146.29,0-53.33-14.28-95.02-42.44-123.89-26.55-27.22-65.03-41.6-111.27-41.6s-84.61,14.76-111.66,42.68c-27.97,28.87-42.76,71.34-42.76,122.81,0,55.55,46.07,129.91,57.48,145.34,3.07,4.15,7.96,6.58,13.1,6.49,5.16-.07,9.96-2.63,12.91-6.87,14.18-20.4,44.67-35.79,70.94-35.79s54.61,14.18,71.01,37c2.99,4.16,7.8,6.64,12.92,6.66h.07ZM256.35,275.38c-29.18,0-60.24,12.69-81.99,32.37-15.49-25.92-40.43-74.23-40.43-109.55,0-43.61,11.35-77.44,33.74-100.55,20.89-21.56,51.55-32.95,88.68-32.95s67.69,10.75,88.37,31.95c22.13,22.69,33.35,56.85,33.35,101.55,0,34.49-23.92,83.24-39.78,110.34-22.14-20.82-51.92-33.16-81.94-33.16Z"/><path d="M194.37,142.04c-28.01,0-50.79,22.79-50.79,50.8s22.79,50.8,50.79,50.8,50.8-22.79,50.8-50.8-22.79-50.8-50.8-50.8ZM194.37,211.64c-10.36,0-18.79-8.43-18.79-18.8s8.43-18.8,18.79-18.8,18.8,8.43,18.8,18.8-8.43,18.8-18.8,18.8Z"/><path d="M317.95,142.04c-28.01,0-50.8,22.79-50.8,50.8s22.79,50.8,50.8,50.8,50.8-22.79,50.8-50.8-22.79-50.8-50.8-50.8ZM317.95,211.64c-10.36,0-18.8-8.43-18.8-18.8s8.43-18.8,18.8-18.8,18.8,8.43,18.8,18.8-8.43,18.8-18.8,18.8Z"/></svg>