<?xml version="1.0" encoding="UTF-8"?><svg id="Icon" xmlns="http://www.w3.org/2000/svg" viewBox="0 0 512 512"><path d="M279.53,310.78c-4.24,0-8.31-1.68-11.31-4.69l-82.73-82.73c-6.25-6.25-6.25-16.38,0-22.63s16.38-6.25,22.63,0l70.96,70.96,145.7-157.77c6-6.49,16.12-6.89,22.61-.9,6.49,6,6.89,16.12.9,22.61l-157,170c-2.95,3.2-7.08,5.05-11.44,5.14-.11,0-.21,0-.32,0Z"/><path d="M255.91,448.02c-9.03,0-17.93-2.38-25.95-7.03-7.8-4.53-14.32-11.04-18.84-18.84-4.43-7.64-1.83-17.43,5.81-21.87,7.64-4.43,17.44-1.83,21.87,5.81,1.73,2.99,4.23,5.49,7.22,7.22,4.59,2.67,9.95,3.38,15.08,2.02,5.13-1.36,9.43-4.65,12.09-9.24,4.43-7.64,14.22-10.25,21.87-5.81,7.64,4.43,10.25,14.22,5.81,21.87-6.95,11.99-18.16,20.55-31.55,24.11-4.44,1.18-8.94,1.76-13.41,1.76Z"/><path d="M432,368H80c-6.44,0-12.24-3.86-14.74-9.79s-1.2-12.78,3.29-17.39c.04-.05,10.2-10.79,23.31-34.7,12.12-22.1,29.31-60.25,42.39-116.57.72-3.54,6.85-32,23.15-60.77,23.67-41.76,57.26-64.13,97.18-64.75.47-.03.94-.04,1.41-.04.47,0,.95,0,1.41.04,41.44.64,75.89,24.58,99.67,69.28,4.15,7.8,1.19,17.49-6.61,21.64-7.8,4.15-17.49,1.19-21.64-6.61-18.37-34.53-42.81-52.14-72.64-52.32-.13,0-.25,0-.38,0-28.46.18-52.08,16.29-70.19,47.89-14.67,25.59-19.98,51.85-20.03,52.11-.03.17-.07.36-.11.53-16.04,69.16-38.14,113.91-54.02,139.44h289.1c-8.33-13.39-18.37-32.03-28.31-56.65-3.31-8.19.65-17.52,8.84-20.83,8.19-3.31,17.52.65,20.83,8.84,20.76,51.37,41.39,73.31,41.6,73.53,4.49,4.61,5.76,11.43,3.26,17.36-2.5,5.93-8.34,9.76-14.77,9.76Z"/></svg>