<?xml version="1.0" encoding="UTF-8"?><svg id="Icon" xmlns="http://www.w3.org/2000/svg" viewBox="0 0 512 512"><path d="M279.53,310.78c-4.24,0-8.31-1.68-11.31-4.69l-82.73-82.73c-6.25-6.25-6.25-16.38,0-22.63s16.38-6.25,22.63,0l70.96,70.96,145.7-157.77c6-6.49,16.12-6.89,22.61-.9,6.49,6,6.89,16.12.9,22.61l-157,170c-2.95,3.2-7.08,5.05-11.44,5.14-.11,0-.21,0-.32,0Z"/><path d="M420.14,306.13c-11.28-20.56-20.24-42.55-27.29-63.3l-78.06,84.52c-8.81,9.54-21.32,15.17-34.31,15.42-.35,0-.66,0-.96,0-12.82,0-24.88-4.99-33.94-14.06l-82.73-82.73c-18.72-18.72-18.72-49.17,0-67.88,9.07-9.07,21.12-14.06,33.94-14.06s24.88,4.99,33.94,14.06l47.41,47.41,81.15-87.87c-1.47-2.93-3.04-5.89-4.72-8.86-23.67-41.76-57.26-64.13-97.18-64.75-.47-.03-.94-.04-1.41-.04-.47,0-.94,0-1.41.04-39.93.62-73.51,22.99-97.18,64.75-16.31,28.77-22.43,57.23-23.15,60.77-13.08,56.32-30.27,94.47-42.39,116.57-13.11,23.91-23.27,34.65-23.31,34.7-4.49,4.61-5.79,11.46-3.29,17.39s8.31,9.79,14.74,9.79h352c6.44,0,12.27-3.83,14.77-9.76,2.5-5.93,1.23-12.75-3.26-17.36-.1-.11-10.25-10.85-23.37-34.76Z"/><path d="M279.53,310.78c-4.24,0-8.31-1.68-11.31-4.69l-82.73-82.73c-6.25-6.25-6.25-16.38,0-22.63s16.38-6.25,22.63,0l70.96,70.96,145.7-157.77c6-6.49,16.12-6.89,22.61-.9,6.49,6,6.89,16.12.9,22.61l-157,170c-2.95,3.2-7.08,5.05-11.44,5.14-.11,0-.21,0-.32,0Z"/><path d="M255.91,448.02c-9.03,0-17.93-2.38-25.95-7.03-7.8-4.53-14.32-11.04-18.84-18.84-4.43-7.64-1.83-17.43,5.81-21.87,7.64-4.43,17.44-1.83,21.87,5.81,1.73,2.99,4.23,5.49,7.22,7.22,4.59,2.67,9.95,3.38,15.08,2.02,5.13-1.36,9.43-4.65,12.09-9.24,4.43-7.64,14.22-10.25,21.87-5.81,7.64,4.43,10.25,14.22,5.81,21.87-6.95,11.99-18.16,20.55-31.55,24.11-4.44,1.18-8.94,1.76-13.41,1.76Z"/></svg>