<?xml version="1.0" encoding="UTF-8"?><svg id="Icon" xmlns="http://www.w3.org/2000/svg" viewBox="0 0 512 512"><path d="M255.91,448.02c-9.03,0-17.93-2.38-25.95-7.03-7.8-4.53-14.32-11.04-18.84-18.84-4.43-7.64-1.83-17.43,5.81-21.87,7.64-4.43,17.43-1.83,21.87,5.81,1.73,2.99,4.23,5.49,7.22,7.22,4.59,2.67,9.95,3.38,15.08,2.02,5.13-1.36,9.43-4.65,12.09-9.24,4.43-7.64,14.22-10.25,21.87-5.81,7.64,4.43,10.25,14.22,5.81,21.87-6.95,11.99-18.16,20.55-31.55,24.11-4.44,1.18-8.94,1.76-13.41,1.76Z"/><path d="M432,368H80c-6.44,0-12.24-3.86-14.74-9.79s-1.2-12.78,3.29-17.39c.04-.05,10.2-10.79,23.31-34.7,12.12-22.1,29.31-60.25,42.39-116.57.72-3.54,6.85-32,23.15-60.77,23.67-41.76,57.26-64.13,97.18-64.75.47-.03.94-.04,1.41-.04.47,0,.95,0,1.41.04,39.92.62,73.51,22.99,97.18,64.75,16.31,28.78,22.44,57.25,23.16,60.77,7.24,31.15,20.45,76.57,42.39,116.56,13.11,23.91,23.27,34.65,23.37,34.76,4.49,4.61,5.76,11.43,3.26,17.36-2.5,5.93-8.34,9.76-14.77,9.76ZM111.46,336h289.09c-15.88-25.53-37.98-70.28-54.02-139.44-.04-.19-.08-.37-.12-.56-.05-.24-5.36-26.5-20.02-52.09-18.11-31.6-41.73-47.71-70.19-47.89-.13,0-.25,0-.38,0-28.46.18-52.08,16.29-70.19,47.89-14.67,25.59-19.98,51.85-20.03,52.11-.03.17-.07.36-.11.53-16.04,69.16-38.14,113.91-54.02,139.44Z"/></svg>