<?xml version="1.0" encoding="UTF-8"?><svg id="Icon" xmlns="http://www.w3.org/2000/svg" viewBox="0 0 512 512"><path d="M417.54,245.84c-.32,0-.63-.01-.95-.04-3.2-.26-6.1-1.75-8.18-4.19-2.08-2.44-3.08-5.55-2.82-8.74.17-2.09.89-4.11,2.08-5.84,18.27-26.55,11.56-63.05-14.95-81.37-5.44-3.75-6.82-11.24-3.07-16.69,2.24-3.25,5.94-5.2,9.89-5.2,2.44,0,4.79.73,6.8,2.12,37.37,25.85,46.83,77.32,21.08,114.75-2.25,3.25-5.94,5.18-9.88,5.18Z"/><path d="M451.51,269.26c-.33,0-.65-.01-.98-.04-6.59-.53-11.52-6.33-10.99-12.93.17-2.09.89-4.11,2.08-5.84,31.77-46.17,20.11-109.66-26-141.53-1.69-1.16-3.48-2.33-5.35-3.45-2.74-1.65-4.68-4.28-5.45-7.39s-.29-6.34,1.37-9.08c2.16-3.58,6.1-5.81,10.29-5.81,2.18,0,4.31.6,6.18,1.72,2.18,1.31,4.39,2.74,6.59,4.25,56.97,39.39,71.38,117.85,32.13,174.9-2.25,3.25-5.94,5.18-9.88,5.18Z"/><path d="M255.91,448.02c-9.03,0-17.93-2.38-25.95-7.03-7.8-4.53-14.32-11.04-18.84-18.84-4.43-7.64-1.83-17.43,5.81-21.87,7.64-4.43,17.43-1.83,21.87,5.81,1.73,2.99,4.23,5.49,7.22,7.22,4.59,2.67,9.95,3.38,15.08,2.02,5.13-1.36,9.43-4.65,12.09-9.24,4.43-7.64,14.22-10.25,21.87-5.81,7.64,4.43,10.25,14.22,5.81,21.87-6.95,11.99-18.16,20.55-31.55,24.11-4.44,1.18-8.94,1.76-13.41,1.76Z"/><path d="M432,368H80c-6.44,0-12.24-3.86-14.74-9.79s-1.2-12.78,3.29-17.39c.04-.05,10.2-10.79,23.31-34.7,12.12-22.1,29.31-60.25,42.39-116.57.72-3.54,6.85-32,23.15-60.77,23.67-41.76,57.26-64.13,97.18-64.75.47-.03.94-.04,1.41-.04.47,0,.95,0,1.41.04,39.92.62,73.51,22.99,97.18,64.75,16.31,28.78,22.44,57.25,23.16,60.77,7.24,31.15,20.45,76.57,42.39,116.56,13.11,23.91,23.27,34.65,23.37,34.76,4.49,4.61,5.76,11.43,3.26,17.36-2.5,5.93-8.34,9.76-14.77,9.76Z"/></svg>