<?xml version="1.0" encoding="UTF-8"?><svg id="Icon" xmlns="http://www.w3.org/2000/svg" viewBox="0 0 512 512"><path d="M295.06,400.28c-7.64-4.43-17.43-1.83-21.87,5.81-2.66,4.59-6.96,7.87-12.09,9.24-5.13,1.36-10.49.65-15.08-2.02-2.99-1.73-5.49-4.23-7.22-7.22-4.43-7.64-14.22-10.25-21.87-5.81-7.64,4.43-10.25,14.22-5.81,21.87,4.53,7.8,11.04,14.32,18.84,18.84,8.02,4.65,16.92,7.03,25.95,7.03,4.47,0,8.97-.58,13.41-1.76,13.39-3.56,24.6-12.12,31.55-24.11,4.43-7.64,1.83-17.43-5.81-21.87Z"/><path d="M91.31,68.69c-6.25-6.25-16.38-6.25-22.63,0-6.25,6.25-6.25,16.38,0,22.63l72.83,72.83c-4.72,13.47-6.86,23.42-7.26,25.42-13.08,56.32-30.27,94.47-42.39,116.57-13.11,23.91-23.27,34.65-23.31,34.7-4.49,4.61-5.79,11.46-3.29,17.39s8.31,9.79,14.74,9.79h265.28s.06,0,.09,0l75.32,75.32c3.12,3.12,7.22,4.69,11.31,4.69s8.19-1.56,11.31-4.69c6.25-6.25,6.25-16.38,0-22.63L91.31,68.69ZM111.46,336c15.88-25.53,37.98-70.28,54.02-139.44.04-.17.08-.36.11-.53.02-.08.49-2.4,1.51-6.29l146.26,146.26H111.46Z"/><path d="M255.81,96.03c.13,0,.25,0,.38,0,28.46.18,52.08,16.29,70.19,47.89,14.67,25.59,19.98,51.85,20.02,52.09.04.19.08.37.12.56,27.29,117.68,72.13,164.67,74.02,166.61,3.14,3.22,7.32,4.84,11.5,4.84s8.05-1.5,11.16-4.53c6.32-6.17,6.48-16.27.31-22.6-.1-.11-10.25-10.85-23.37-34.76-21.94-39.99-35.15-85.42-42.39-116.56-.72-3.52-6.85-31.99-23.16-60.77-23.67-41.76-57.26-64.13-97.18-64.75-.47-.03-.95-.04-1.41-.04-.46,0-.94,0-1.41.04-31.74.49-59.46,14.74-81.39,41.54l22.76,22.76c16.45-21.3,36.52-32.16,59.85-32.31Z"/></svg>