<?xml version="1.0" encoding="UTF-8"?><svg id="Icon" xmlns="http://www.w3.org/2000/svg" viewBox="0 0 512 512"><path d="M212.9,304.53c-.07,0-.15,0-.22,0,.08.1.15.2.22.3v-.3Z"/><path d="M212.9,322.84v-.3c-.08.1-.15.21-.23.3.08,0,.15,0,.23,0Z"/><path d="M212.9,304.53c-.07,0-.15,0-.22,0,.08.1.15.2.22.3v-.3Z"/><path d="M212.9,322.84v-.3c-.08.1-.15.21-.23.3.08,0,.15,0,.23,0Z"/><circle cx="269" cy="300.33" r="14.77"/><circle cx="215.9" cy="329.38" r="19.69"/><circle cx="259.71" cy="378.56" r="22.15"/><path d="M361.15,448c-.36,0-.72,0-1.07-.02h-208.14c-1.02.04-2.04.02-3.07-.05h-.14c-.36-.03-.73-.07-1.09-.12l-.16-.02c-14.46-2.04-25.69-6.8-34.39-14.56-9.67-8.63-15.43-20.88-16.22-34.49-1.11-19.1,5.86-37.67,18.26-63.3,6.33-13.07,14-27.45,22.12-42.68,17.95-33.64,38.2-71.6,54.48-114.15l-.24-32.05c-12.26-3.58-21.24-14.92-21.24-28.32v-24.75c0-16.27,13.23-29.5,29.5-29.5h112.5c16.27,0,29.5,13.23,29.5,29.5v24.75c0,13.4-8.98,24.74-21.23,28.32l-.24,32.05c16.26,42.54,36.52,80.49,54.43,114.07,8.13,15.24,15.81,29.62,22.17,42.76,12.4,25.61,19.36,44.18,18.26,63.29-.78,13.61-6.54,25.85-16.22,34.49-8.69,7.76-19.92,12.52-34.33,14.55l-.22.03c-.36.05-.73.09-1.09.11h-.16c-.64.06-1.31.08-1.97.08ZM151.58,415.98h208.84c.15,0,.29,0,.44,0,7.54-1.14,13.04-3.32,16.75-6.63,3.31-2.95,5.29-7.38,5.58-12.46.7-12.17-5.01-26.63-15.12-47.51-6.08-12.56-13.62-26.68-21.59-41.62-18.77-35.17-40.03-75.02-57.2-120.63-.69-1.84-1.04-3.79-1.03-5.76l.37-49.75c.07-8.79,7.21-15.88,16-15.88h5.12v-19.75h-107.5v19.75h5.13c8.79,0,15.93,7.09,16,15.88l.37,49.75c.01,1.97-.33,3.92-1.03,5.76-17.19,45.61-38.45,85.47-57.2,120.63-8.01,15.01-15.54,29.12-21.59,41.63-10.11,20.88-15.82,35.35-15.12,47.5.3,5.09,2.28,9.52,5.58,12.46,3.71,3.31,9.2,5.48,16.76,6.63.14,0,.29,0,.43,0Z"/></svg>