<?xml version="1.0" encoding="UTF-8"?><svg id="Icon" xmlns="http://www.w3.org/2000/svg" viewBox="0 0 512 512"><path d="M432,240h-48v-64c0-8.84-7.16-16-16-16h-80c-8.84,0-16,7.16-16,16v64h-29.87c-.72,0-1.43.06-2.13.16v-112.16c0-8.84-7.16-16-16-16h-80c-8.84,0-16,7.16-16,16v112h-48c-8.84,0-16,7.16-16,16s7.16,16,16,16h48v112c0,8.84,7.16,16,16,16h80c8.84,0,16-7.16,16-16v-112.16c.7.09,1.4.16,2.13.16h29.87v64c0,8.84,7.16,16,16,16h80c8.84,0,16-7.16,16-16v-64h48c8.84,0,16-7.16,16-16s-7.16-16-16-16ZM208,368h-48v-224h48v224ZM352,320h-48v-128h48v128Z"/></svg>