<?xml version="1.0" encoding="UTF-8"?><svg id="Icon" xmlns="http://www.w3.org/2000/svg" viewBox="0 0 512 512"><path d="M256,330.67c-41.17,0-74.67-33.5-74.67-74.67s33.49-74.67,74.67-74.67,74.67,33.5,74.67,74.67-33.49,74.67-74.67,74.67ZM256,213.33c-23.53,0-42.67,19.14-42.67,42.67s19.14,42.67,42.67,42.67,42.67-19.14,42.67-42.67-19.14-42.67-42.67-42.67Z"/><path d="M392.89,448H119.11c-30.39,0-55.11-24.72-55.11-55.11V119.11c0-30.39,24.72-55.11,55.11-55.11h273.78c30.39,0,55.11,24.72,55.11,55.11v273.78c0,30.39-24.72,55.11-55.11,55.11ZM119.11,96c-12.74,0-23.11,10.37-23.11,23.11v273.78c0,12.74,10.37,23.11,23.11,23.11h273.78c12.74,0,23.11-10.37,23.11-23.11V119.11c0-12.74-10.37-23.11-23.11-23.11H119.11Z"/></svg>