<?xml version="1.0" encoding="UTF-8"?><svg id="Icon" xmlns="http://www.w3.org/2000/svg" viewBox="0 0 512 512"><path d="M384,128h-112v-48c0-8.84-7.16-16-16-16s-16,7.16-16,16v48h-112c-8.84,0-16,7.16-16,16v80c0,8.84,7.16,16,16,16h112.16c-.09.7-.16,1.4-.16,2.13v29.87h-64c-8.84,0-16,7.16-16,16v80c0,8.84,7.16,16,16,16h64v48c0,8.84,7.16,16,16,16s16-7.16,16-16v-48h64c8.84,0,16-7.16,16-16v-80c0-8.84-7.16-16-16-16h-64v-29.87c0-.72-.06-1.43-.16-2.13h112.16c8.84,0,16-7.16,16-16v-80c0-8.84-7.16-16-16-16ZM320,352h-128v-48h128v48ZM368,208h-224v-48h224v48Z"/></svg>