<?xml version="1.0" encoding="UTF-8"?><svg id="Icon" xmlns="http://www.w3.org/2000/svg" viewBox="0 0 512 512"><path d="M416,112H64c-8.84,0-16-7.16-16-16s7.16-16,16-16h352c8.84,0,16,7.16,16,16s-7.16,16-16,16Z"/><path d="M352,336h-80c-8.84,0-16-7.16-16-16v-160c0-8.84,7.16-16,16-16h80c8.84,0,16,7.16,16,16v160c0,8.84-7.16,16-16,16ZM288,304h48v-128h-48v128Z"/><path d="M208,432h-80c-8.84,0-16-7.16-16-16V160c0-8.84,7.16-16,16-16h80c8.84,0,16,7.16,16,16v256c0,8.84-7.16,16-16,16ZM144,400h48v-224h-48v224Z"/></svg>