<?xml version="1.0" encoding="UTF-8"?><svg id="Icon" xmlns="http://www.w3.org/2000/svg" viewBox="0 0 512 512"><path d="M432,448c-8.84,0-16-7.16-16-16V80c0-8.84,7.16-16,16-16s16,7.16,16,16v352c0,8.84-7.16,16-16,16Z"/><path d="M368,384h-160c-8.84,0-16-7.16-16-16v-80c0-8.84,7.16-16,16-16h160c8.84,0,16,7.16,16,16v80c0,8.84-7.16,16-16,16ZM224,352h128v-48h-128v48Z"/><path d="M368,240H112c-8.84,0-16-7.16-16-16v-80c0-8.84,7.16-16,16-16h256c8.84,0,16,7.16,16,16v80c0,8.84-7.16,16-16,16ZM128,208h224v-48h-224v48Z"/></svg>