<?xml version="1.0" encoding="UTF-8"?><svg id="Icon" xmlns="http://www.w3.org/2000/svg" viewBox="0 0 512 512"><path d="M348.77,190.6c6.25-6.25,6.25-16.38,0-22.63-6.25-6.25-16.38-6.25-22.63,0l-57.86,57.86c-3.85-1.35-7.98-2.1-12.29-2.1-20.42,0-36.98,16.56-36.98,36.98s16.56,36.98,36.98,36.98,36.98-16.56,36.98-36.98c0-4.29-.74-8.4-2.08-12.23l57.87-57.88Z"/><path d="M414.39,102.31c-42.31-42.31-98.56-65.61-158.39-65.61s-116.08,23.3-158.39,65.61c-42.31,42.31-65.61,98.56-65.61,158.39,0,54.92,20.07,107.75,56.52,148.76,3.16,3.56,7.55,5.37,11.96,5.37,3.78,0,7.58-1.33,10.62-4.04,6.6-5.87,7.2-15.98,1.33-22.59-31.24-35.15-48.44-80.43-48.44-127.5,0-105.87,86.13-192,192-192s192,86.13,192,192c0,8.84,7.16,16,16,16s16-7.16,16-16c0-59.83-23.3-116.08-65.61-158.39Z"/><path d="M436,351.8h-64.23l16.69-16.69c6.25-6.25,6.25-16.38,0-22.63-6.25-6.25-16.38-6.25-22.63,0l-44,44c-6.25,6.25-6.25,16.38,0,22.63l44,44c3.12,3.12,7.22,4.69,11.31,4.69s8.19-1.56,11.31-4.69c6.25-6.25,6.25-16.38,0-22.63l-16.69-16.69h64.23c8.84,0,16-7.16,16-16s-7.16-16-16-16Z"/></svg>