<?xml version="1.0" encoding="UTF-8"?><svg id="Icon" xmlns="http://www.w3.org/2000/svg" viewBox="0 0 512 512"><path d="M216.89,232.89H80c-8.84,0-16-7.16-16-16V80c0-8.84,7.16-16,16-16h136.89c8.84,0,16,7.16,16,16v136.89c0,8.84-7.16,16-16,16ZM96,200.89h104.89v-104.89h-104.89v104.89Z"/><path d="M432,448h-136.89c-8.84,0-16-7.16-16-16v-136.89c0-8.84,7.16-16,16-16h136.89c8.84,0,16,7.16,16,16v136.89c0,8.84-7.16,16-16,16ZM311.11,416h104.89v-104.89h-104.89v104.89Z"/><path d="M363.56,232.89c-8.84,0-16-7.16-16-16V80c0-8.84,7.16-16,16-16s16,7.16,16,16v136.89c0,8.84-7.16,16-16,16Z"/><path d="M148.44,448c-8.84,0-16-7.16-16-16v-136.89c0-8.84,7.16-16,16-16s16,7.16,16,16v136.89c0,8.84-7.16,16-16,16Z"/></svg>