<?xml version="1.0" encoding="UTF-8"?><svg id="Icon" xmlns="http://www.w3.org/2000/svg" viewBox="0 0 512 512"><path d="M447.61,275.09c-1-25.36-7.63-49.39-19.24-69.7l-.08-.15c-1.61-2.92-3.42-6.22-5.61-9.41-6.75-11.36-15.39-21.32-25.71-29.61-3.3-2.9-6.34-5.17-9.54-7.1-9.28-6-19.33-10.65-29.91-13.84-1.13-.51-2.25-.86-3.3-1.08-9.79-2.75-20.4-4.2-30.83-4.2-11.44.06-22.79,1.75-33.75,5.01-6.15,1.73-12.19,4.09-18.08,7.02.33-1.4.49-2.86.42-4.36-.16-3.54-.51-7.05-1.05-10.51.18-3.27.45-6.67.84-10.16,4.01-35.85,17.34-53.74,27.82-62.43,6.8-5.64,7.74-15.73,2.1-22.53-5.64-6.8-15.73-7.74-22.53-2.1-15.8,13.1-25.61,30.47-31.62,48.34-1.9-2.09-3.9-4.11-6-6.05-18.52-17.05-42.57-25.9-67.8-24.92-12.71.55-24.96,3.64-36.41,9.18-4.7,2.27-8,6.7-8.83,11.86-.66,4.11-.51,7.92-.38,11.01.58,16.21,5.42,32.05,13.99,45.81,2.48,3.99,5.27,7.77,8.31,11.32-5.73,1.99-11.3,4.43-16.66,7.3-16.78,9-31.21,22.11-41.75,37.93-3.49,4.76-6.68,9.81-9.46,14.96-12.04,22.16-18.41,48.65-18.41,76.61,0,.26-.02.53-.04.81-.07,1.37-.18,3.32.04,5.61,0,2.84.04,5.07.43,7.41l.77,6.64.1.69c.27,1.7.58,3.43.91,5.15l.04.21c8.92,43.28,28.33,83.79,54.65,114.07,27.55,31.69,60.32,49.48,92.27,50.09h.31c3.44,0,6.69-.26,9.84-.52l7.7-.98.41-.06c15.47-2.52,33.24-2.42,51.39.3l.17.02c1.18.16,2.1.34,3.16.55l2.22.42h1.5c.48,0,1.15.04,1.95.08,1.71.08,4.05.19,6.55.19h.23c31.46-.45,64.14-18.32,92-50.32,26.66-30.6,46.1-70.86,54.74-113.36l.11-.58c.23-1.37.47-3.13.71-4.82l.17-1.19c.46-3,.62-5.49.75-7.5.05-.8.1-1.57.17-2.35l.02-.23c.29-3.5.61-7.47.61-11.16v-7.05l-.39-.35ZM175.05,89.3c16.65-.65,32.56,5.21,44.82,16.49,9.79,9.01,16.32,20.65,18.92,33.44-.16,4.23-.2,8.21-.15,11.86-14.26-6.76-29.85-10.52-45.95-11.03-.17-.1-.33-.21-.5-.3-9.38-5.03-17.31-12.47-22.93-21.5-4.99-8.02-8.05-17.11-8.94-26.49,4.78-1.43,9.71-2.27,14.73-2.48ZM415.71,288.36c-.07.87-.14,1.74-.21,2.58-.1,1.08-.17,2.15-.24,3.26-.11,1.67-.2,3.11-.45,4.72l-.23,1.63c-.18,1.29-.36,2.62-.53,3.7-15.14,73.96-68.04,136.97-115.67,137.75-1.72,0-3.43-.08-4.95-.15-.6-.03-1.17-.05-1.7-.07-1.12-.22-2.47-.46-4.13-.7-21.29-3.18-42.37-3.27-60.99-.26l-5.39.74-.36.03c-2.68.22-5,.41-7.1.42-22.75-.5-47.09-14.38-68.58-39.09-22.76-26.18-39.61-61.49-47.44-99.44-.24-1.25-.46-2.51-.67-3.75l-.78-6.76-.13-.92c-.03-.6-.03-2.01-.03-3.27v-1.21l-.13-.83c0-.23.03-.6.04-.89.04-.7.08-1.57.08-2.53,0-22.33,5.16-44.11,14.54-61.39,2.16-4,4.62-7.87,7.31-11.53l.48-.68c7.65-11.57,18.16-21.16,30.41-27.72,12.21-6.54,25.99-10,39.88-10h.14c16.83,0,32.93,4.84,46.57,13.99l.74.47c1.64.97,3.25,2.2,5.24,3.96l1.61,1.43,1.93.96c8.53,4.21,18.77,3.18,26.09-2.64l.71-.56.69-.69c.2-.15.41-.29.61-.43.46-.32.91-.64,1.34-.95,7.8-5.57,15.65-9.41,24-11.75l.27-.08c8.08-2.42,16.45-3.66,24.8-3.71,6.48,0,13.09.78,19.31,2.28l.1.1,3.99,1.13c8.29,2.34,16.15,5.91,23.36,10.6l.54.34c1.64.97,3.25,2.2,5.24,3.96l.66.55c7.54,6.01,13.84,13.27,18.71,21.58l.33.56.37.53c1.36,1.94,2.72,4.41,4.15,7.02l.29.52c9.43,16.45,14.68,36.3,15.17,57.4v9.78Z"/></svg>