<?xml version="1.0" encoding="UTF-8"?><svg id="Icon" xmlns="http://www.w3.org/2000/svg" viewBox="0 0 512 512"><path d="M432,352h-48v-48c0-8.84-7.16-16-16-16s-16,7.16-16,16v48h-48c-8.84,0-16,7.16-16,16s7.16,16,16,16h48v48c0,8.84,7.16,16,16,16s16-7.16,16-16v-48h48c8.84,0,16-7.16,16-16s-7.16-16-16-16Z"/><path d="M208,64H80c-8.84,0-16,7.16-16,16v128c0,8.84,7.16,16,16,16h128c8.84,0,16-7.16,16-16V80c0-8.84-7.16-16-16-16ZM192,192h-96v-96h96v96Z"/><path d="M432,64h-128c-8.84,0-16,7.16-16,16v128c0,8.84,7.16,16,16,16h128c8.84,0,16-7.16,16-16V80c0-8.84-7.16-16-16-16ZM416,192h-96v-96h96v96Z"/><path d="M208,288H80c-8.84,0-16,7.16-16,16v128c0,8.84,7.16,16,16,16h128c8.84,0,16-7.16,16-16v-128c0-8.84-7.16-16-16-16ZM192,416h-96v-96h96v96Z"/></svg>