<?xml version="1.0" encoding="UTF-8"?><svg id="Icon" xmlns="http://www.w3.org/2000/svg" viewBox="0 0 512 512"><path d="M208,288h96c8.84,0,16-7.16,16-16s-7.16-16-16-16h-96c-8.84,0-16,7.16-16,16s7.16,16,16,16Z"/><path d="M160,448h192c26.47,0,48-21.53,48-48v-224c26.47,0,48-21.53,48-48v-16c0-26.47-21.53-48-48-48H112c-26.47,0-48,21.53-48,48v16c0,26.47,21.53,48,48,48v224c0,26.47,21.53,48,48,48ZM96,128v-16c0-8.82,7.18-16,16-16h288c8.82,0,16,7.18,16,16v16c0,8.82-7.18,16-16,16H112c-8.82,0-16-7.18-16-16ZM368,176v224c0,8.82-7.18,16-16,16h-192c-8.82,0-16-7.18-16-16v-224h224Z"/></svg>