<?xml version="1.0" encoding="UTF-8"?><svg id="Icon" xmlns="http://www.w3.org/2000/svg" viewBox="0 0 512 512"><path d="M483.86,241.73l-110.51-56.1-110.11-55.9c-4.55-2.31-9.93-2.31-14.49,0l-107.75,54.7s0,0,0,0l-112.86,57.29c-5.37,2.73-8.76,8.24-8.76,14.27s3.38,11.54,8.76,14.27l110.43,56.06s.04.02.06.03h.02s110.11,55.91,110.11,55.91c2.28,1.16,4.76,1.73,7.24,1.73s4.97-.58,7.24-1.73l107.67-54.66s.04-.02.06-.03h.02s0-.01,0-.01l112.86-57.29c5.37-2.73,8.76-8.24,8.76-14.27s-3.38-11.54-8.76-14.27ZM256,161.94l74.81,37.98-74.66,38.04-73.22-38.93,73.06-37.09ZM148.07,216.73l73.28,38.96-75.47,38.45-75.15-38.15,77.34-39.27ZM256,350.06l-74.81-37.98,74.66-38.04,73.22,38.93-73.06,37.09ZM363.93,295.27l-73.28-38.96,75.47-38.45,75.15,38.15-77.34,39.27Z"/></svg>