<?xml version="1.0" encoding="UTF-8"?><svg id="Icon" xmlns="http://www.w3.org/2000/svg" viewBox="0 0 512 512"><path d="M28.14,219.27l110.43,56.06s.04.02.06.03h.02s110.11,55.91,110.11,55.91c2.28,1.16,4.76,1.73,7.24,1.73s4.97-.58,7.24-1.73l107.67-54.66s.04-.02.07-.03h.02s112.86-57.3,112.86-57.3c5.37-2.73,8.76-8.24,8.76-14.27s-3.38-11.54-8.76-14.27l-110.51-56.1-110.11-55.9c-4.55-2.31-9.93-2.31-14.49,0l-107.76,54.71-112.86,57.29c-5.37,2.73-8.76,8.24-8.76,14.27s3.38,11.54,8.76,14.27ZM256,299.06l-74.81-37.98,74.66-38.04,73.22,38.93-73.06,37.09ZM363.93,244.27l-73.28-38.96,75.47-38.45,75.15,38.15-77.34,39.27ZM256,110.94l74.81,37.98-74.66,38.04-73.22-38.93,73.06-37.09ZM148.07,165.73l73.28,38.96-75.47,38.45-75.15-38.15,77.34-39.27Z"/><path d="M483.93,286.77l-52.09-26.75c-7.86-4.04-17.51-.94-21.54,6.92-4.04,7.86-.94,17.51,6.92,21.54l24.22,12.44-77.44,39.31-43.5-23.55c-7.77-4.21-17.48-1.32-21.69,6.45-4.21,7.77-1.32,17.48,6.45,21.69l24.05,13.02-73.31,37.22-74.69-37.92,23.98-12.11c7.89-3.98,11.05-13.61,7.07-21.49-3.98-7.89-13.61-11.05-21.49-7.07l-44.95,22.7-75.02-38.09,24.07-12.08c7.9-3.96,11.09-13.58,7.12-21.48-3.96-7.9-13.58-11.09-21.48-7.12l-52.4,26.3c-5.4,2.71-8.81,8.22-8.82,14.26-.01,6.04,3.37,11.57,8.76,14.3l110.41,56.05s.03.02.05.02l.05.02,110.11,55.9c2.28,1.16,4.76,1.73,7.24,1.73s4.97-.58,7.24-1.73l107.63-54.64s.03-.02.05-.03l.07-.04,112.86-57.29c5.36-2.72,8.74-8.22,8.76-14.23s-3.34-11.52-8.69-14.27Z"/></svg>