<?xml version="1.0" encoding="UTF-8"?><svg id="Icon" xmlns="http://www.w3.org/2000/svg" viewBox="0 0 512 512"><defs><style>.cls-1{fill-rule:evenodd;}</style></defs><path class="cls-1" d="M306.06,83.76c-17.9-5.6-36.01-8.46-53.79-8.46-8.29,0-17.07.77-27.62,2.46-.77.12-1.37.54-2.1.77-11.15-14.79-28.72-24.53-48.66-24.53-33.64,0-61.01,27.3-61.01,60.85,0,8,1.64,15.62,4.47,22.64-.46.42-1.04.65-1.48,1.14-19.58,22.51-32.89,47.63-39.46,74.7-1.87,7.73,2.89,15.54,10.65,17.41,1.16.29,2.3.42,3.43.42,6.52,0,12.42-4.44,14.02-11.02,5.17-21.12,15.47-40.86,30.36-58.91,10.61,8.89,24.11,14.47,39.02,14.47,33.64,0,61.01-27.3,61.01-60.85,0-3.16-.46-6.18-.93-9.22,6.79-.9,12.86-1.48,18.3-1.48,14.85,0,30.03,2.4,45.11,7.14,1.45.46,2.91.67,4.34.67,6.15,0,11.86-3.96,13.81-10.12,2.39-7.58-1.85-15.68-9.47-18.08ZM173.89,146.84c-17.73,0-32.08-14.33-32.08-31.99s14.35-31.99,32.08-31.99,32.08,14.31,32.08,31.99-14.37,31.99-32.08,31.99Z"/><path class="cls-1" d="M422.7,195.51c-9.16-25.53-24.11-49-43.34-67.87-5.73-5.64-14.87-5.52-20.44.15-5.61,5.69-5.54,14.81.15,20.39,15.01,14.74,26.73,32.9,34.56,52.64-20.98,9.64-35.66,30.67-35.66,55.18s14.68,45.54,35.66,55.18c-7.83,19.72-19.56,37.9-34.56,52.62-5.69,5.58-5.77,14.72-.15,20.41,2.82,2.85,6.56,4.31,10.3,4.31s7.33-1.39,10.15-4.16c19.23-18.87,34.18-42.34,43.34-67.89,31.9-1.96,57.3-28.18,57.3-60.47s-25.4-58.52-57.3-60.48ZM418.97,287.99c-17.71,0-32.08-14.31-32.08-31.99s14.37-31.99,32.08-31.99,32.09,14.31,32.09,31.99-14.37,31.99-32.09,31.99Z"/><path class="cls-1" d="M315.53,410.15c-2.41-7.62-10.61-11.89-18.15-9.47-15.08,4.75-30.26,7.16-45.11,7.16-5.48,0-11.55-.58-18.3-1.52.46-3,.93-6.02.93-9.18,0-33.55-27.37-60.85-61.01-60.85-14.91,0-28.41,5.58-39.02,14.47-14.89-18.05-25.19-37.78-30.36-58.91-1.87-7.75-9.78-12.56-17.46-10.6-7.75,1.87-12.52,9.66-10.65,17.41,6.58,27.07,19.89,52.19,39.46,74.7.42.48,1.02.69,1.5,1.1-2.86,7.02-4.49,14.66-4.49,22.68,0,33.55,27.37,60.85,61.01,60.85,19.94,0,37.53-9.73,48.66-24.55.73.21,1.33.65,2.08.77,10.49,1.69,19.29,2.48,27.64,2.48,17.78,0,35.89-2.87,53.79-8.46,7.62-2.4,11.86-10.5,9.47-18.08ZM173.89,429.14c-17.73,0-32.08-14.31-32.08-31.99s14.35-31.99,32.08-31.99,32.08,14.31,32.08,31.99-14.37,31.99-32.08,31.99Z"/></svg>