<?xml version="1.0" encoding="UTF-8"?><svg id="Icon" xmlns="http://www.w3.org/2000/svg" viewBox="0 0 512 512"><path d="M418.46,181.33h-87.79v-87.79c0-16.29-13.25-29.54-29.54-29.54H93.54c-16.29,0-29.54,13.25-29.54,29.54v207.59c0,16.29,13.25,29.54,29.54,29.54h87.79v87.79c0,16.29,13.25,29.54,29.54,29.54h207.59c16.29,0,29.54-13.25,29.54-29.54v-207.59c0-16.29-13.25-29.54-29.54-29.54ZM170.86,298.67h-74.86V96h202.67v85.33h-87.79c-16.29,0-29.54,13.25-29.54,29.54v87.79h-10.48ZM416,416h-202.67v-85.33h87.53l-22.33,22.33c-6.25,6.25-6.25,16.38,0,22.63,3.12,3.12,7.22,4.69,11.31,4.69s8.19-1.56,11.31-4.69l49.64-49.64c3-3,4.69-7.07,4.69-11.31s-1.69-8.31-4.69-11.31l-49.64-49.64c-6.25-6.25-16.38-6.25-22.63,0s-6.25,16.38,0,22.63l22.33,22.33h-87.53v-85.33h202.67v202.67Z"/></svg>