<?xml version="1.0" encoding="UTF-8"?><svg id="Icon" xmlns="http://www.w3.org/2000/svg" viewBox="0 0 512 512"><path d="M108.73,413.28c22.39,22.39,52.15,34.72,83.81,34.72s61.43-12.33,83.81-34.72l156.95-156.95c6.25-6.25,6.25-16.38,0-22.63s-16.38-6.25-22.63,0l-156.95,156.95c-33.74,33.74-88.63,33.74-122.37,0-33.74-33.74-33.74-88.63,0-122.37l156.95-156.95c9.89-9.89,23.03-15.33,37.02-15.33s27.13,5.45,37.02,15.33c20.41,20.41,20.41,53.63,0,74.03l-157.13,156.96c-3.43,3.43-8,5.32-12.85,5.32s-9.42-1.89-12.85-5.32c-7.09-7.09-7.09-18.62,0-25.7l145-144.83c6.25-6.24,6.26-16.38.01-22.63s-16.38-6.26-22.63-.01l-145,144.83c-9.48,9.48-14.7,22.08-14.7,35.48s5.22,26,14.7,35.48c9.48,9.48,22.08,14.7,35.48,14.7s26-5.22,35.47-14.69l157.13-156.96c32.89-32.89,32.89-86.4,0-119.29-15.93-15.93-37.12-24.71-59.65-24.71s-43.71,8.77-59.65,24.71L108.73,245.66c-22.39,22.39-34.72,52.15-34.72,83.81s12.33,61.43,34.72,83.81Z"/></svg>