<?xml version="1.0" encoding="UTF-8"?><svg id="Icon" xmlns="http://www.w3.org/2000/svg" viewBox="0 0 512 512"><path d="M93.54,344.21c-8.84,0-16-7.16-16-16v-58.67c0-8.84,7.16-16,16-16s16,7.16,16,16v58.67c0,8.84-7.16,16-16,16Z"/><path d="M170.26,448c-8.84,0-16-7.16-16-16v-205.33c0-8.84,7.16-16,16-16s16,7.16,16,16v205.33c0,8.84-7.16,16-16,16Z"/><path d="M256,402.87c-8.84,0-16-7.16-16-16V80c0-8.84,7.16-16,16-16s16,7.16,16,16v306.87c0,8.84-7.16,16-16,16Z"/><path d="M341.74,402.87c-8.84,0-16-7.16-16-16v-142.48c0-8.84,7.16-16,16-16s16,7.16,16,16v142.48c0,8.84-7.16,16-16,16Z"/><path d="M418.46,357.96c-8.84,0-16-7.16-16-16v-72.42c0-8.84,7.16-16,16-16s16,7.16,16,16v72.42c0,8.84-7.16,16-16,16Z"/></svg>