<?xml version="1.0" encoding="UTF-8"?><svg id="Icon" xmlns="http://www.w3.org/2000/svg" viewBox="0 0 512 512"><path d="M442.34,67.79c-3.59-3.04-8.33-4.35-12.97-3.57l-234.67,39.11c-7.71,1.29-13.37,7.96-13.37,15.78v193c-12.1-8.46-26.81-13.44-42.67-13.44-41.17,0-74.67,33.5-74.67,74.67s33.5,74.67,74.67,74.67,74.67-33.5,74.67-74.67v-240.67l202.67-33.78v174.11c-12.1-8.46-26.81-13.44-42.67-13.44-41.17,0-74.67,33.5-74.67,74.67s33.5,74.67,74.67,74.67,74.67-33.5,74.67-74.67V80c0-4.7-2.07-9.17-5.66-12.21Z"/></svg>