<?xml version="1.0" encoding="UTF-8"?><svg id="Icon" xmlns="http://www.w3.org/2000/svg" viewBox="0 0 512 512"><path d="M419.34,423.55c0-3.65-.78-6.72-2.33-9.18-1.56-2.47-4.8-5.02-9.73-7.68-4.93-2.65-12.52-5.98-22.76-10.01-11.88-4.93-21.84-9.55-29.88-13.85-8.04-4.29-14.08-9.55-18.09-15.76-4.02-6.21-6.03-14.44-6.03-24.68,0-18.82,6.07-33.4,18.23-43.73,12.15-10.32,28.19-15.49,48.12-15.49,9.69,0,19.28.82,28.79,2.47,9.5,1.65,20.1,4.3,31.8,7.95l-8.77,34.54c-8.41-3.11-15.4-5.48-20.97-7.13-5.58-1.65-10.47-2.78-14.67-3.43-4.21-.64-8.68-.96-13.43-.96-7.86,0-13.98,1.78-18.37,5.35-4.39,3.56-6.58,8.46-6.58,14.67,0,3.29.73,6.08,2.19,8.36,1.46,2.29,4.48,4.66,9.05,7.13,4.57,2.47,11.52,5.62,20.84,9.46,10.23,4.21,18.96,8.05,26.18,11.52,7.22,3.47,13.11,7.18,17.68,11.1,4.57,3.93,7.95,8.73,10.14,14.39,2.19,5.67,3.29,12.8,3.29,21.39,0,19.38-5.99,34.13-17.96,44.28-11.97,10.14-29.38,15.22-52.23,15.22-12.06,0-22.99-.82-32.76-2.47-9.78-1.65-20.06-4.39-30.84-8.23l6.03-36.46c12.06,5.12,22.25,8.68,30.57,10.69,8.31,2.01,16.59,3.02,24.81,3.02s15.35-2.01,20.29-6.03c4.94-4.02,7.4-9.5,7.4-16.45Z"/><path d="M32,373.87c0,27.94,22.73,50.67,50.67,50.67h213.33v-92.44H32v41.78ZM133.51,346.31h92.44c8.84,0,16,7.16,16,16s-7.16,16-16,16h-92.44c-8.84,0-16-7.16-16-16s7.16-16,16-16Z"/><path d="M429.33,87.47H82.67c-27.94,0-50.67,22.73-50.67,50.67v41.78h448v-41.78c0-27.94-22.73-50.67-50.67-50.67ZM221.33,165.69h-92.44c-8.84,0-16-7.16-16-16s7.16-16,16-16h92.44c8.84,0,16,7.16,16,16s-7.16,16-16,16ZM363.47,165.69h-92.44c-8.84,0-16-7.16-16-16s7.16-16,16-16h92.44c8.84,0,16,7.16,16,16s-7.16,16-16,16Z"/><path d="M32,300.09h272.15c14.51-24.18,40.97-40.47,71.07-40.47h104.77s0-47.71,0-47.71H32v88.18Z"/></svg>