<?xml version="1.0" encoding="UTF-8"?><svg id="Icon" xmlns="http://www.w3.org/2000/svg" viewBox="0 0 512 512"><path d="M429.33,87.47H82.67c-27.94,0-50.67,22.73-50.67,50.67v235.73c0,27.94,22.73,50.67,50.67,50.67h346.67c27.94,0,50.67-22.73,50.67-50.67v-235.73c0-27.94-22.73-50.67-50.67-50.67ZM64,211.91h384v88.18H64v-88.18ZM82.67,119.47h346.67c10.29,0,18.67,8.37,18.67,18.67v41.78H64v-41.78c0-10.29,8.37-18.67,18.67-18.67ZM429.33,392.53H82.67c-10.29,0-18.67-8.37-18.67-18.67v-41.78h384v41.78c0,10.29-8.37,18.67-18.67,18.67Z"/><path d="M128.89,165.69h92.44c8.84,0,16-7.16,16-16s-7.16-16-16-16h-92.44c-8.84,0-16,7.16-16,16s7.16,16,16,16Z"/><path d="M271.02,165.69h92.44c8.84,0,16-7.16,16-16s-7.16-16-16-16h-92.44c-8.84,0-16,7.16-16,16s7.16,16,16,16Z"/><path d="M225.96,346.31h-92.44c-8.84,0-16,7.16-16,16s7.16,16,16,16h92.44c8.84,0,16-7.16,16-16s-7.16-16-16-16Z"/></svg>