<?xml version="1.0" encoding="UTF-8"?><svg id="Icon" xmlns="http://www.w3.org/2000/svg" viewBox="0 0 512 512"><rect x="32" y="211.91" width="448" height="88.18"/><path d="M32,332.09v41.78c0,27.94,22.73,50.67,50.67,50.67h346.67c27.94,0,50.67-22.73,50.67-50.67v-41.78H32ZM225.96,378.31h-92.44c-8.84,0-16-7.16-16-16s7.16-16,16-16h92.44c8.84,0,16,7.16,16,16s-7.16,16-16,16Z"/><path d="M480,179.91v-41.78c0-27.94-22.73-50.67-50.67-50.67H82.67c-27.94,0-50.67,22.73-50.67,50.67v41.78h448ZM271.02,133.69h92.44c8.84,0,16,7.16,16,16s-7.16,16-16,16h-92.44c-8.84,0-16-7.16-16-16s7.16-16,16-16ZM128.89,133.69h92.44c8.84,0,16,7.16,16,16s-7.16,16-16,16h-92.44c-8.84,0-16-7.16-16-16s7.16-16,16-16Z"/></svg>