<?xml version="1.0" encoding="UTF-8"?><svg id="Icon" xmlns="http://www.w3.org/2000/svg" viewBox="0 0 512 512"><path d="M368,368c-35.29,0-64-28.71-64-64s28.71-64,64-64,64,28.71,64,64-28.71,64-64,64ZM368,272c-17.65,0-32,14.35-32,32s14.35,32,32,32,32-14.35,32-32-14.35-32-32-32Z"/><path d="M208,368H80c-26.02,0-48-21.98-48-48v-160.86c0-26,21.53-47.14,48-47.14h128c8.84,0,16,7.16,16,16s-7.16,16-16,16H80c-8.67,0-16,6.94-16,15.14v160.86c0,8.37,7.63,16,16,16h128c8.84,0,16,7.16,16,16s-7.16,16-16,16Z"/><path d="M208,416h-48c-8.84,0-16-7.16-16-16s7.16-16,16-16h48c8.84,0,16,7.16,16,16s-7.16,16-16,16Z"/><path d="M432,416h-128c-26.47,0-48-21.53-48-48v-224c0-26.47,21.53-48,48-48h128c26.47,0,48,21.53,48,48v224c0,26.47-21.53,48-48,48ZM304,128c-8.82,0-16,7.18-16,16v224c0,8.82,7.18,16,16,16h128c8.82,0,16-7.18,16-16v-224c0-8.82-7.18-16-16-16h-128Z"/><circle cx="368" cy="176" r="16"/></svg>