<?xml version="1.0" encoding="UTF-8"?><svg id="Icon" xmlns="http://www.w3.org/2000/svg" viewBox="0 0 512 512"><path d="M48,239.61h416c5.62,0,10.82-2.95,13.72-7.76,2.89-4.82,3.05-10.8.41-15.76l-59.43-111.61c-2.78-5.22-8.21-8.48-14.12-8.48H107.43c-5.91,0-11.34,3.26-14.12,8.48l-59.43,111.61c-2.64,4.96-2.49,10.94.41,15.76,2.89,4.82,8.1,7.76,13.72,7.76Z"/><path d="M464,256H48c-8.84,0-16,7.16-16,16v52.9c0,27.94,22.73,50.67,50.67,50.67,13.4,0,25.6-5.24,34.67-13.77,9.07,8.53,21.26,13.77,34.67,13.77s25.6-5.24,34.67-13.77c9.07,8.53,21.26,13.77,34.67,13.77s25.6-5.24,34.67-13.77c9.07,8.53,21.26,13.77,34.67,13.77s25.6-5.24,34.67-13.77c9.07,8.53,21.26,13.77,34.67,13.77s25.6-5.24,34.67-13.77c9.07,8.53,21.26,13.77,34.67,13.77,27.94,0,50.67-22.73,50.67-50.67v-52.9c0-8.84-7.16-16-16-16ZM448,324.9c0,10.29-8.37,18.67-18.67,18.67s-18.67-8.37-18.67-18.67c0-8.84-7.16-16-16-16s-16,7.16-16,16c0,10.29-8.37,18.67-18.67,18.67s-18.67-8.37-18.67-18.67c0-8.84-7.16-16-16-16s-16,7.16-16,16c0,10.29-8.37,18.67-18.67,18.67s-18.67-8.37-18.67-18.67c0-8.84-7.16-16-16-16s-16,7.16-16,16c0,10.29-8.37,18.67-18.67,18.67s-18.67-8.37-18.67-18.67c0-8.84-7.16-16-16-16s-16,7.16-16,16c0,10.29-8.37,18.67-18.67,18.67s-18.67-8.37-18.67-18.67c0-8.84-7.16-16-16-16s-16,7.16-16,16c0,10.29-8.37,18.67-18.67,18.67s-18.67-8.37-18.67-18.67v-36.9h384v36.9Z"/></svg>