<?xml version="1.0" encoding="UTF-8"?><svg id="Icon" xmlns="http://www.w3.org/2000/svg" viewBox="0 0 512 512"><path d="M432,352h-192c-8.84,0-16,7.16-16,16s7.16,16,16,16h192c8.84,0,16-7.16,16-16s-7.16-16-16-16Z"/><path d="M244.69,308.69c-6.25,6.25-6.25,16.38,0,22.63,3.12,3.12,7.22,4.69,11.31,4.69s8.19-1.56,11.31-4.69l20.7-20.7,20.52,20.48c2.98,2.97,7.01,4.65,11.23,4.67l48.17.23h.08c8.8,0,15.96-7.11,16-15.92.04-8.84-7.09-16.03-15.92-16.08l-41.6-.2-27.18-27.12c-6.25-6.24-16.37-6.23-22.62.01l-32,32Z"/><path d="M416.02,336c8.84,0,16-7.16,16-16s-7.16-16-16-16h0c-8.84,0-16,7.16-16,16s7.17,16,16,16Z"/><path d="M192,144c22.06,0,40-17.94,40-40s-17.94-40-40-40-40,17.94-40,40,17.94,40,40,40ZM192,96c4.41,0,8,3.59,8,8s-3.59,8-8,8-8-3.59-8-8,3.59-8,8-8Z"/><path d="M261.33,274.37c6.46,0,12.54-3.94,14.96-10.33,3.13-8.26-1.03-17.5-9.29-20.63l-34.06-12.91-27.45-48.81c-.87-1.98-1.98-3.92-3.33-5.77-.17-.25-.36-.48-.54-.72-.1-.12-.18-.25-.28-.37-.06-.07-.12-.14-.18-.22-.04-.05-.08-.09-.12-.14-6.28-7.75-16.19-13.22-25.59-14.14-1.91-.28-3.85-.38-5.78-.3h-.38c-16.58,0-30.1,9.13-38.06,25.7-.06.13-.12.26-.18.39l-28.73,64.14c-1.62,3.37-2.79,6.92-3.49,10.54l-18.38,87.94c-.99,4.72.21,9.62,3.25,13.36,3.04,3.74,7.6,5.91,12.42,5.91h10.14l-24.93,57.65c-3.51,8.11.22,17.53,8.33,21.04,2.07.9,4.22,1.32,6.34,1.32,6.19,0,12.08-3.61,14.69-9.65l30.42-70.35h18.89v64c0,8.84,7.16,16,16,16s16-7.16,16-16v-64h.11c4.55,0,8.89-1.94,11.92-5.33,3.04-3.39,4.48-7.91,3.98-12.44l-9.8-88.23c-.01-.09-.02-.19-.03-.28-.5-3.85-.4-7.74.28-11.58,0-.05.02-.1.03-.16l2-11.91,7.41,13.17c1.84,3.27,4.77,5.79,8.28,7.12l39.49,14.97c1.87.71,3.78,1.04,5.67,1.04ZM130.17,267.21c.02-.1.04-.2.06-.3.18-.97.51-1.94.97-2.88.08-.15.15-.31.22-.47l28.73-64.13c3.6-7.39,7.06-7.39,9.14-7.39h.8c.28,0,.55,0,.83-.02.48.08.92.13,1.42.17.81.12,2.2.92,3.14,1.71l-8.54,50.71c-1.24,6.97-1.41,14.06-.52,21.07l7.81,70.33h-58.44l14.38-68.79Z"/></svg>