<?xml version="1.0" encoding="UTF-8"?><svg id="Icon" xmlns="http://www.w3.org/2000/svg" viewBox="0 0 512 512"><path d="M432,96h-237.58c-13.39,0-26.27,5.66-35.34,15.52l-102.95,112c-8.17,8.88-12.66,20.42-12.66,32.48s4.5,23.6,12.66,32.48l102.95,112c9.06,9.86,21.95,15.52,35.34,15.52h237.58c26.47,0,48-21.53,48-48v-224c0-26.47-21.53-48-48-48ZM395.31,324.69c6.25,6.25,6.25,16.38,0,22.63-3.12,3.12-7.22,4.69-11.31,4.69s-8.19-1.56-11.31-4.69l-68.69-68.69-68.69,68.69c-3.12,3.12-7.22,4.69-11.31,4.69s-8.19-1.56-11.31-4.69c-6.25-6.25-6.25-16.38,0-22.63l68.69-68.69-68.69-68.69c-6.25-6.25-6.25-16.38,0-22.63,6.25-6.25,16.38-6.25,22.63,0l68.69,68.69,68.69-68.69c6.25-6.25,16.38-6.25,22.63,0,6.25,6.25,6.25,16.38,0,22.63l-68.69,68.69,68.69,68.69Z"/></svg>