<?xml version="1.0" encoding="UTF-8"?><svg id="Icon" xmlns="http://www.w3.org/2000/svg" viewBox="0 0 512 512"><path d="M80,208h80c8.84,0,16-7.16,16-16s-7.16-16-16-16h-42.67c12.54-21.7,30.01-40.21,51.17-54.04,25.99-16.98,56.21-25.96,87.41-25.96,88.22,0,160,71.78,160,160s-71.78,160-160,160c-38.48,0-75.66-13.85-104.7-39.01-28.76-24.91-47.74-59.22-53.45-96.6-1.33-8.74-9.5-14.73-18.23-13.4-8.74,1.33-14.73,9.5-13.4,18.23,6.86,44.89,29.64,86.07,64.13,115.96,34.86,30.19,79.48,46.82,125.65,46.82,105.87,0,192-86.13,192-192S361.77,64,255.9,64c-37.43,0-73.71,10.78-104.91,31.17-21.97,14.36-40.61,32.93-54.99,54.55v-37.72c0-8.84-7.16-16-16-16s-16,7.16-16,16v80c0,8.84,7.16,16,16,16Z"/><path d="M256.01,143.72c-8.84,0-16,7.16-16,16v105.31c0,6.06,3.42,11.6,8.84,14.31l72.21,36.1c2.3,1.15,4.74,1.69,7.14,1.69,5.87,0,11.52-3.24,14.32-8.85,3.95-7.9.75-17.51-7.16-21.47l-63.36-31.68v-95.42c0-8.84-7.16-16-16-16Z"/></svg>