<?xml version="1.0" encoding="UTF-8"?><svg id="Icon" xmlns="http://www.w3.org/2000/svg" viewBox="0 0 512 512"><path d="M383.47,256l54.22-54.22c35.14-35.14,35.14-92.33,0-127.47-16.97-16.96-39.6-26.31-63.74-26.31s-46.77,9.34-63.74,26.31l-54.22,54.22-54.22-54.22c-16.97-16.97-39.6-26.31-63.74-26.31s-46.77,9.34-63.74,26.31c-16.97,16.97-26.31,39.6-26.31,63.74s9.34,46.77,26.31,63.74l54.22,54.21-54.22,54.22c-35.14,35.14-35.14,92.33,0,127.47,16.97,16.97,39.6,26.31,63.74,26.31s46.77-9.34,63.74-26.31l54.22-54.22,54.22,54.22c16.97,16.97,39.6,26.31,63.74,26.31s46.77-9.34,63.74-26.31c16.97-16.97,26.31-39.6,26.31-63.74s-9.34-46.77-26.31-63.74l-54.22-54.22ZM96.94,179.16c-10.92-10.92-16.94-25.52-16.94-41.11s6.02-30.19,16.94-41.11c10.92-10.92,25.52-16.94,41.11-16.94s30.19,6.02,41.11,16.94l54.22,54.22-82.22,82.22-54.22-54.22ZM179.16,415.06c-10.92,10.92-25.52,16.94-41.11,16.94s-30.19-6.02-41.11-16.94c-22.67-22.67-22.67-59.55,0-82.22l64.3-64.3c.45-.36.88-.74,1.29-1.16s.8-.85,1.16-1.29l169.15-169.15c10.92-10.92,25.52-16.94,41.11-16.94s30.19,6.02,41.11,16.94c22.67,22.67,22.67,59.55,0,82.22l-235.9,235.9ZM415.06,415.06c-10.92,10.92-25.52,16.94-41.11,16.94s-30.19-6.02-41.11-16.94l-54.22-54.22,82.22-82.22,54.22,54.22c10.92,10.92,16.94,25.52,16.94,41.11s-6.02,30.19-16.94,41.11Z"/><path d="M184,288.22c-6.25-6.25-16.38-6.25-22.63,0-6.25,6.25-6.25,16.38,0,22.63l41.77,41.77c3.12,3.12,7.22,4.69,11.31,4.69s8.19-1.56,11.31-4.69c6.25-6.25,6.25-16.38,0-22.63l-41.77-41.77Z"/><path d="M308.85,159.38c-6.25-6.25-16.38-6.25-22.63,0-6.25,6.25-6.25,16.38,0,22.63l41.77,41.77c3.12,3.12,7.22,4.69,11.31,4.69s8.19-1.56,11.31-4.69c6.25-6.25,6.25-16.38,0-22.63l-41.77-41.77Z"/><path d="M219.31,267.31c6.25-6.25,6.25-16.38,0-22.63-6.25-6.25-16.38-6.25-22.63,0-6.25,6.25-6.25,16.38,0,22.63,6.25,6.25,16.38,6.25,22.63,0Z"/><path d="M244.69,196.69c-6.25,6.25-6.25,16.38,0,22.63,6.25,6.25,16.38,6.25,22.63,0,6.25-6.25,6.25-16.38,0-22.63-6.25-6.25-16.38-6.25-22.63,0Z"/><path d="M244.69,244.69c-6.25,6.25-6.25,16.38,0,22.63,6.25,6.25,16.38,6.25,22.63,0,6.25-6.25,6.25-16.38,0-22.63-6.25-6.25-16.38-6.25-22.63,0Z"/><path d="M292.69,244.69c-6.25,6.25-6.25,16.38,0,22.63,6.25,6.25,16.38,6.25,22.63,0,6.25-6.25,6.25-16.38,0-22.63-6.25-6.25-16.38-6.25-22.63,0Z"/><path d="M244.69,292.69c-6.25,6.25-6.25,16.38,0,22.63,6.25,6.25,16.38,6.25,22.63,0,6.25-6.25,6.25-16.38,0-22.63-6.25-6.25-16.38-6.25-22.63,0Z"/></svg>