<?xml version="1.0" encoding="UTF-8"?><svg id="Icon" xmlns="http://www.w3.org/2000/svg" viewBox="0 0 512 512"><path d="M464,224c8.84,0,16-7.16,16-16v-38.86c0-5.69-3.03-10.96-7.95-13.83l-208-121.14c-4.98-2.9-11.13-2.9-16.11,0L39.95,155.32c-4.92,2.87-7.95,8.13-7.95,13.83v38.86c0,8.84,7.16,16,16,16h48v132.02c-18.78,7.87-32,26.43-32,48.03v11.95h-16c-8.84,0-16,7.16-16,16s7.16,16,16,16h416c8.84,0,16-7.16,16-16s-7.16-16-16-16h-16v-11.95c0-21.6-13.22-40.16-32-48.03v-132.02h48ZM64,178.34l192-111.82,192,111.82v13.66H64v-13.66ZM208,352v-128h96v128h-96ZM176,224v128h-48v-128h48ZM96,416v-11.95c0-11.06,9-20.05,20.05-20.05h279.89c11.06,0,20.05,9,20.05,20.05v11.95H96ZM384,352h-48v-128h48v128Z"/><path d="M288,128h-64c-8.84,0-16,7.16-16,16s7.16,16,16,16h64c8.84,0,16-7.16,16-16s-7.16-16-16-16Z"/></svg>