<?xml version="1.0" encoding="UTF-8"?><svg id="Icon" xmlns="http://www.w3.org/2000/svg" viewBox="0 0 512 512"><path d="M448,272c8.84,0,16-7.16,16-16v-112c0-8.84-7.16-16-16-16s-16,7.16-16,16v112c0,8.84,7.16,16,16,16Z"/><path d="M448.15,316h-.3c-10.96,0-19.85,8.96-19.85,20s8.89,20,19.85,20h.3c10.96,0,19.85-8.96,19.85-20s-8.89-20-19.85-20Z"/><path d="M244.68,211.31c.37.37.76.72,1.16,1.05.1.08.2.15.3.22.31.25.63.49.96.71.09.06.19.11.29.17.35.22.7.44,1.06.63.07.04.14.07.21.1.39.2.79.4,1.2.57.05.02.1.03.15.05.43.17.87.34,1.32.47.05.02.11.03.16.04.44.13.89.25,1.35.34.13.03.27.04.4.06.38.07.76.13,1.16.17.53.05,1.06.08,1.6.08s1.07-.03,1.6-.08c.39-.04.77-.11,1.15-.17.13-.02.27-.03.4-.06.46-.09.9-.21,1.35-.34.06-.02.11-.03.17-.04.45-.14.89-.3,1.32-.47.05-.02.1-.03.15-.06.41-.17.81-.36,1.2-.57.07-.04.15-.07.22-.11.36-.19.7-.41,1.04-.63.1-.06.2-.12.3-.18.32-.21.62-.45.93-.69.11-.08.22-.16.33-.25.39-.32.77-.66,1.13-1.02,0,0,.02-.02.03-.03l54.86-54.86c6.25-6.25,6.25-16.38,0-22.63s-16.38-6.25-22.63,0l-27.54,27.54V48c0-8.84-7.16-16-16-16s-16,7.16-16,16v113.37l-27.54-27.54c-6.25-6.25-16.38-6.25-22.63,0-6.25,6.25-6.25,16.38,0,22.63l54.85,54.85Z"/><path d="M267.31,300.69s-.02-.02-.03-.03c-.36-.36-.75-.71-1.14-1.03-.19-.16-.39-.29-.59-.44-.22-.17-.44-.34-.67-.49-.23-.15-.47-.29-.71-.43-.21-.13-.42-.26-.63-.37-.24-.13-.49-.24-.73-.35-.23-.11-.45-.22-.69-.32-.24-.1-.48-.18-.72-.26-.25-.09-.5-.19-.76-.26-.24-.07-.49-.13-.73-.19-.26-.07-.52-.14-.79-.19-.28-.06-.56-.09-.85-.13-.23-.03-.47-.08-.7-.1-1.05-.1-2.11-.1-3.16,0-.24.02-.47.07-.7.1-.28.04-.56.07-.84.13-.27.05-.53.13-.79.19-.24.06-.49.11-.73.19-.26.08-.51.17-.76.26-.24.09-.48.17-.72.26-.23.1-.46.21-.69.32-.25.12-.49.22-.73.35-.22.12-.42.25-.64.38-.24.14-.48.28-.71.43-.23.16-.45.33-.67.49-.19.15-.39.28-.58.44-.4.33-.78.67-1.14,1.03,0,0-.02.02-.03.03l-59.43,59.43c-6.25,6.25-6.25,16.38,0,22.63s16.38,6.25,22.63,0l32.12-32.11v113.37c0,8.84,7.16,16,16,16s16-7.16,16-16v-113.37l32.12,32.11c3.12,3.12,7.22,4.69,11.31,4.69s8.19-1.56,11.31-4.69c6.25-6.25,6.25-16.38,0-22.63l-59.43-59.43Z"/><path d="M368,240H112c-8.84,0-16,7.16-16,16s7.16,16,16,16h256c8.84,0,16-7.16,16-16s-7.16-16-16-16Z"/></svg>