<?xml version="1.0" encoding="UTF-8"?><svg id="Icon" xmlns="http://www.w3.org/2000/svg" viewBox="0 0 512 512"><path d="M432,64h-248.21c-8.84,0-16,7.16-16,16s7.16,16,16,16h232.21v320H96v-209.51l22.43-.11v21.98c0,8.84,7.16,16,16,16h25.47v22.36c0,8.84,7.16,16,16,16h27.15v23.49c0,8.84,7.16,16,16,16h30.26v20.1c0,8.84,7.16,16,16,16h26.87v17.85c0,8.84,7.16,16,16,16s16-7.16,16-16v-33.85c0-8.84-7.16-16-16-16h-26.87v-20.1c0-8.84-7.16-16-16-16h-30.26v-23.49c0-8.84-7.16-16-16-16h-27.15v-22.36c0-8.84-7.16-16-16-16h-25.47v-22.05c0-4.26-1.7-8.34-4.71-11.34-3-2.98-7.06-4.66-11.29-4.66h-.08l-54.43.26c-8.81.04-15.92,7.19-15.92,16v241.44c0,8.84,7.16,16,16,16h352c8.84,0,16-7.16,16-16V80c0-8.84-7.16-16-16-16Z"/><path d="M320,144c-8.84,0-16,7.16-16,16v25.37l-46.23-46.23c-6.25-6.25-16.38-6.25-22.63,0-6.25,6.25-6.25,16.38,0,22.63l46.23,46.23h-25.37c-8.84,0-16,7.16-16,16s7.16,16,16,16h64c.53,0,1.05-.03,1.58-.08.24-.02.48-.07.71-.1.28-.04.56-.07.83-.13.27-.05.54-.13.8-.2.24-.06.48-.11.71-.18.26-.08.52-.18.78-.27.23-.08.47-.16.7-.26.24-.1.48-.22.72-.33.23-.11.47-.21.7-.34.23-.12.45-.27.68-.4.22-.13.45-.26.67-.4.25-.17.49-.36.74-.54.17-.13.35-.25.52-.39.82-.67,1.57-1.42,2.24-2.24.14-.17.27-.36.4-.53.18-.24.36-.47.53-.72.15-.22.28-.45.41-.68.13-.22.27-.43.39-.66.13-.24.23-.48.35-.72.11-.23.23-.46.32-.7.1-.24.18-.48.26-.72.09-.25.19-.5.26-.76.07-.24.13-.49.19-.74.07-.26.14-.51.19-.78.06-.29.09-.58.13-.87.03-.23.08-.45.1-.68.05-.53.08-1.06.08-1.59v-63.99c0-8.84-7.16-16-16-16Z"/></svg>