<?xml version="1.0" encoding="UTF-8"?><svg id="Icon" xmlns="http://www.w3.org/2000/svg" viewBox="0 0 512 512"><path d="M414.39,97.61c-42.31-42.31-98.56-65.61-158.39-65.61s-116.08,23.3-158.39,65.61c-42.31,42.31-65.61,98.56-65.61,158.39s23.3,116.08,65.61,158.39c42.31,42.31,98.56,65.61,158.39,65.61s116.08-23.3,158.39-65.61c42.31-42.31,65.61-98.56,65.61-158.39s-23.3-116.08-65.61-158.39ZM386.23,396.95c-30.7,28.39-70.66,46.9-114.78,50.43,2.09-3.9,4.22-8.33,6.31-13.36,10.04-24.1,12.75-33.86,15.48-45.02,3.17-12.96,8.2-37.54,10.9-52.36,2.65-14.54,17.83-65.61,40.87-95.68,7.9,15.18,15.13,31.04,21.28,46.86,16.94,43.57,24.12,83.03,19.94,109.13ZM127.94,398.92c65.17-100.12,136.74-168.76,185.96-209.09,4.85,6.77,9.65,13.98,14.33,21.55-34.11,36.19-52.61,103.26-55.57,119.52-2.62,14.37-7.46,38.09-10.5,50.5-2.46,10.06-4.76,18.3-13.94,40.32-6.59,15.81-13.16,23.28-14.76,24.96-40.29-4.73-76.8-21.98-105.53-47.75ZM306.98,70.88c25.48,7.03,48.85,19.18,68.93,35.29-13.33,8.07-33.1,20.89-57.09,39.05-3.11-3.13-6.39-6.12-9.84-8.98,1.62-3.15,2.94-6.5,3.92-10.03,5.17-18.67.32-39.25-5.91-55.33ZM339.08,170.04c27.69-20.86,49.39-34.24,60.91-40.9,18.77,21.27,32.91,46.71,40.82,74.75-5.26-2.21-10.99-4.43-17-6.44-28.1-9.41-51.33-10.88-69.35-4.42-5.03-8.06-10.18-15.76-15.39-22.98ZM268.48,64.42c2.19,3.87,5.53,10.22,8.47,17.69,5.67,14.41,7.48,27.05,5.09,35.6-.02.08-.05.16-.07.24-34.99-19.6-76.72-30.41-106.71-36.13,24.56-11.43,51.92-17.83,80.74-17.83,4.19,0,8.35.15,12.48.42ZM133.84,107.98c6,.61,34.74,3.84,67.75,12.71,19.14,5.15,36.21,11.22,50.95,18.09-33.16,12.94-79.67,24.9-112.24,33.27-17.76,4.57-30.59,7.87-37.09,10.22-12.06,4.37-21.34,7.91-28.68,10.98,11.66-33.63,32.41-63.04,59.31-85.28ZM64.92,237.2c.59-.67,1.16-1.33,1.69-1.95,4.41-5.15,7.08-8.25,47.5-22.89,5.05-1.83,18.54-5.3,34.16-9.31,40.12-10.31,100.75-25.9,135.88-43.12.67-.33,1.32-.68,1.98-1.03,2.61,2.06,5.07,4.15,7.35,6.29-50.12,41.09-122,109.99-188.08,209.77-25.91-32.73-41.4-74.07-41.4-118.96,0-6.34.32-12.61.92-18.8ZM418.11,358.77c-2.5-21.63-8.88-48.84-21.99-82.56-7.15-18.39-15.7-36.87-25.08-54.46,10.62-1.76,25.03.19,42.14,5.87,14.29,4.75,27.06,10.97,34.33,14.79.31,4.49.49,9.01.49,13.58,0,37.78-10.97,73.04-29.89,102.77Z"/></svg>