<?xml version="1.0" encoding="UTF-8"?><svg id="Icon" xmlns="http://www.w3.org/2000/svg" viewBox="0 0 512 512"><path d="M305.61,111.5c-9.56-13.04-21.8-24.04-35.85-32.12-17.5-10.06-37.47-15.38-57.76-15.38-63.96,0-116,52.04-116,116v252c0,8.84,7.16,16,16,16s16-7.16,16-16v-252c0-46.32,37.68-84,84-84,21.27,0,41.13,7.81,56.33,21.61-45.79,15.53-78.83,58.92-78.83,109.89,0,8.84,7.16,16,16,16h200c8.84,0,16-7.16,16-16,0-63.93-51.98-115.94-115.89-116ZM223.03,211.5c6.9-35.62,36.38-63.26,72.88-67.44,1.94.2,3.92.05,5.86-.48,1.24-.05,2.48-.08,3.73-.08,40.85,0,74.98,29.31,82.47,68h-164.94Z"/><circle cx="240" cy="272" r="16"/><circle cx="304" cy="272" r="16"/><circle cx="368" cy="272" r="16"/><circle cx="240" cy="320" r="16"/><circle cx="304" cy="320" r="16"/><circle cx="368" cy="320" r="16"/><circle cx="304" cy="368" r="16"/><circle cx="368" cy="368" r="16"/><circle cx="368" cy="416" r="16"/></svg>