<?xml version="1.0" encoding="UTF-8"?><svg id="Icon" xmlns="http://www.w3.org/2000/svg" viewBox="0 0 512 512"><path d="M236.06,286.83h-29.98l22.24-35.35c4.71-7.48,2.46-17.36-5.02-22.06-7.48-4.71-17.36-2.46-22.06,5.02l-37.68,59.87c-3.1,4.93-3.28,11.16-.46,16.26,2.82,5.1,8.18,8.27,14.01,8.27h28.75l-24.82,36.56c-4.96,7.31-3.06,17.26,4.25,22.22,2.75,1.87,5.88,2.76,8.97,2.76,5.12,0,10.16-2.46,13.25-7.01l41.79-61.55c3.33-4.9,3.67-11.24.9-16.48-2.77-5.24-8.21-8.51-14.14-8.51Z"/><path d="M450.46,95.69h-11.05v-9.82c0-8.84-7.16-16-16-16h-49.56c-8.84,0-16,7.16-16,16v9.82h-6.07c-.95,0-1.89.05-2.82.13h-34.68v-9.95c0-8.84-7.16-16-16-16h-49.56c-8.84,0-16,7.16-16,16v9.95h-10.52c-16.58,0-30.08,13.49-30.08,30.08v50.11h-127.38c-18.05,0-32.73,14.68-32.73,32.73v190.53c0,18.05,14.68,32.73,32.73,32.73h286.53c17.81,0,32.33-14.29,32.71-32.01h66.48c16.29,0,29.54-12.93,29.54-28.81V124.5c0-15.89-13.25-28.81-29.54-28.81ZM384,240h64v48h-64v-48ZM448,208h-64.02c-.37-16.71-13.33-30.37-29.75-31.85v-48.32h1.53c.67,0,1.33-.05,1.98-.13h90.26v80.31ZM224.12,127.82h98.12v48.18h-98.12v-48.18ZM352,399.27c0,.37-.36.73-.73.73H64.73c-.37,0-.73-.36-.73-.73v-190.53c0-.37.36-.73.73-.73h286.53c.37,0,.73.36.73.73v190.53ZM384,368v-48h64v48h-64Z"/></svg>