<?xml version="1.0" encoding="UTF-8"?><svg id="Icon" xmlns="http://www.w3.org/2000/svg" viewBox="0 0 512 512"><path d="M103.55,241.89c-5.2-2.78-11.51-2.48-16.42.79l-36.03,24c-4.45,2.97-7.13,7.96-7.13,13.32s2.68,10.35,7.13,13.32l36.03,24c2.68,1.78,5.77,2.68,8.87,2.68,2.59,0,5.19-.63,7.55-1.89,5.2-2.78,8.45-8.21,8.45-14.11v-48c0-5.9-3.25-11.32-8.45-14.11Z"/><path d="M364.8,397.87c-8.84,0-16,7.16-16,16,0,10-8.13,18.13-18.13,18.13h-136.53c-10,0-18.13-8.13-18.13-18.13V146.33c0-10,8.13-18.13,18.13-18.13h136.53c10,0,18.13,8.13,18.13,18.13,0,8.84,7.16,16,16,16s16-7.16,16-16c0-27.64-22.49-50.13-50.13-50.13h-136.53c-27.64,0-50.13,22.49-50.13,50.13v267.53c0,27.64,22.49,50.13,50.13,50.13h136.53c27.64,0,50.13-22.49,50.13-50.13,0-8.84-7.16-16-16-16Z"/><path d="M447.7,198.98c-7.45,0-13.7,5.1-15.48,12-17.07-15.33-39.49-24.25-63.45-24.25-22.66,0-44.61,8.11-61.79,22.85-16.99,14.57-28.33,34.7-31.93,56.68-1.43,8.72,4.48,16.95,13.2,18.38.88.14,1.75.21,2.61.21,7.7,0,14.48-5.57,15.77-13.42,5-30.54,31.14-52.7,62.14-52.7,16.21,0,31.34,6.17,42.75,16.7h-.27c-8.84,0-16,7.16-16,16s7.16,16,16,16h36.45c8.84,0,16-7.16,16-16v-36.45c0-8.84-7.16-16-16-16Z"/><path d="M449.27,278.57c-8.72-1.43-16.95,4.48-18.38,13.2-5,30.54-31.14,52.7-62.14,52.7-16.21,0-31.34-6.17-42.75-16.7h.27c8.84,0,16-7.16,16-16s-7.16-16-16-16h-36.45c-8.84,0-16,7.16-16,16v36.45c0,8.84,7.16,16,16,16,7.45,0,13.7-5.1,15.48-12,17.07,15.33,39.49,24.25,63.45,24.25,22.66,0,44.61-8.11,61.79-22.85,16.99-14.57,28.33-34.7,31.93-56.68,1.43-8.72-4.48-16.95-13.2-18.38Z"/><path d="M240,80h48.38c8.84,0,16-7.16,16-16s-7.16-16-16-16h-48.38c-8.84,0-16,7.16-16,16s7.16,16,16,16Z"/></svg>