<?xml version="1.0" encoding="UTF-8"?><svg id="Icon" xmlns="http://www.w3.org/2000/svg" viewBox="0 0 512 512"><path d="M199.17,236.17s70.66,0,70.66,0h1.12c10.66,0,19.31,8.64,19.31,19.31,0,3.25-.85,6.38-2.26,9.06,0,0-78.61,147.84-78.61,147.84-2.72,5.11-9.07,7.06-14.19,4.34-4.76-2.53-6.77-8.21-4.84-13.1l49.47-127.45h-69.66s-1.12,0-1.12,0c-10.65,0-19.29-8.64-19.29-19.29,0-3.14.8-6.18,2.13-8.8,0,0,76.09-148.31,76.09-148.31,6.34-11.5,23.41-4,19.15,8.48l-47.96,127.93Z"/><path d="M464,304c-8.84,0-16-7.16-16-16v-64c0-8.84,7.16-16,16-16s16,7.16,16,16v64c0,8.84-7.16,16-16,16Z"/><path d="M174,384h-94c-26.47,0-48-21.53-48-48v-160c0-26.47,21.53-48,48-48h94c8.84,0,16,7.16,16,16s-7.16,16-16,16h-94c-8.82,0-16,7.18-16,16v160c0,8.82,7.18,16,16,16h94c8.84,0,16,7.16,16,16s-7.16,16-16,16Z"/><path d="M368,384h-102c-8.84,0-16-7.16-16-16s7.16-16,16-16h102c8.82,0,16-7.18,16-16v-160c0-8.82-7.18-16-16-16h-102c-8.84,0-16-7.16-16-16s7.16-16,16-16h102c26.47,0,48,21.53,48,48v160c0,26.47-21.53,48-48,48Z"/></svg>