<?xml version="1.0" encoding="UTF-8"?><svg id="Icon" xmlns="http://www.w3.org/2000/svg" viewBox="0 0 512 512"><path d="M289.26,408.11l-17.26,17.26v-137.37c0-8.84-7.16-16-16-16s-16,7.16-16,16v137.37l-17.26-17.26c-6.25-6.25-16.38-6.25-22.63,0s-6.25,16.38,0,22.63l44.57,44.57s.02.02.03.03c.36.36.74.7,1.13,1.02.11.09.22.16.33.25.3.24.61.47.93.69.1.07.2.12.3.18.34.22.69.43,1.04.63.07.04.15.07.22.11.39.2.79.4,1.2.57.05.02.1.04.15.06.43.17.87.34,1.32.47.05.02.11.03.17.04.44.13.89.25,1.35.34.13.03.27.04.4.06.38.07.76.13,1.15.17.53.05,1.06.08,1.6.08s1.07-.03,1.6-.08c.39-.04.77-.11,1.15-.17.13-.02.27-.03.4-.06.46-.09.9-.21,1.35-.34.06-.02.11-.03.17-.04.45-.14.89-.3,1.32-.47.05-.02.1-.03.15-.06.41-.17.81-.36,1.2-.57.07-.04.15-.07.22-.11.36-.19.7-.41,1.04-.63.1-.06.2-.12.3-.18.32-.21.62-.45.93-.69.11-.08.22-.16.33-.25.39-.32.77-.66,1.13-1.02,0,0,.02-.02.03-.03l44.57-44.57c6.25-6.25,6.25-16.38,0-22.63s-16.38-6.25-22.63,0Z"/><path d="M464,208c-8.84,0-16,7.16-16,16v64c0,8.84,7.16,16,16,16s16-7.16,16-16v-64c0-8.84-7.16-16-16-16Z"/><rect x="96" y="192" width="64" height="128" rx="13.25" ry="13.25"/><path d="M368,128H80c-26.47,0-48,21.53-48,48v160c0,26.47,21.53,48,48,48h128c8.84,0,16-7.16,16-16s-7.16-16-16-16H80c-8.82,0-16-7.18-16-16v-160c0-8.82,7.18-16,16-16h288c8.82,0,16,7.18,16,16v160c0,8.82-7.18,16-16,16h-64c-8.84,0-16,7.16-16,16s7.16,16,16,16h64c26.47,0,48-21.53,48-48v-160c0-26.47-21.53-48-48-48Z"/></svg>