<?xml version="1.0" encoding="UTF-8"?><svg id="Icon" xmlns="http://www.w3.org/2000/svg" viewBox="0 0 512 512"><path d="M432,160H80c-26.47,0-48,21.53-48,48v80c0,26.47,21.53,48,48,48h352c26.47,0,48-21.53,48-48v-80c0-26.47-21.53-48-48-48ZM152,288c-22.09,0-40-17.91-40-40s17.91-40,40-40,40,17.91,40,40-17.91,40-40,40ZM369.89,288.29c-8.84,0-16-7.16-16-16s7.16-16,16-16,16,7.16,16,16-7.17,16-16,16ZM420.5,288.29c-8.84,0-16-7.16-16-16s7.16-16,16-16,16,7.16,16,16-7.16,16-16,16Z"/><path d="M160,384h-48c-8.84,0-16-7.16-16-16s7.16-16,16-16h48c8.84,0,16,7.16,16,16s-7.16,16-16,16Z"/><path d="M400,384h-48c-8.84,0-16-7.16-16-16s7.16-16,16-16h48c8.84,0,16,7.16,16,16s-7.16,16-16,16Z"/></svg>