<?xml version="1.0" encoding="UTF-8"?><svg id="Icon" xmlns="http://www.w3.org/2000/svg" viewBox="0 0 512 512"><circle cx="369.89" cy="272.3" r="16" transform="translate(-75.67 160.76) rotate(-22.3)"/><circle cx="420.5" cy="272.3" r="16" transform="translate(-71.79 179.48) rotate(-22.25)"/><path d="M152,288c-22.09,0-40-17.91-40-40s17.91-40,40-40,40,17.91,40,40-17.91,40-40,40Z"/><path d="M432,336H80c-26.47,0-48-21.53-48-48v-80c0-26.47,21.53-48,48-48h352c26.47,0,48,21.53,48,48v80c0,26.47-21.53,48-48,48ZM80,192c-8.82,0-16,7.18-16,16v80c0,8.82,7.18,16,16,16h352c8.82,0,16-7.18,16-16v-80c0-8.82-7.18-16-16-16H80Z"/><path d="M160,384h-48c-8.84,0-16-7.16-16-16s7.16-16,16-16h48c8.84,0,16,7.16,16,16s-7.16,16-16,16Z"/><path d="M400,384h-48c-8.84,0-16-7.16-16-16s7.16-16,16-16h48c8.84,0,16,7.16,16,16s-7.16,16-16,16Z"/></svg>