<?xml version="1.0" encoding="UTF-8"?><svg id="Icon" xmlns="http://www.w3.org/2000/svg" viewBox="0 0 512 512"><path d="M96.99,281.35c5.31-.56,52.48-5.67,72.76-13.29,10.37-3.89,16.81-12.54,16.81-22.56v-73.48c0-9.9-6.38-18.53-16.66-22.5-19.8-7.67-67.16-14.07-72.49-14.77l-.33-.04c-6.45-.71-12.93,1.38-17.8,5.73-5.01,4.48-7.88,10.95-7.88,17.75v99.66c0,6.8,2.87,13.27,7.88,17.75,4.25,3.8,9.73,5.88,15.28,5.88.81,0,1.62-.04,2.43-.13ZM103.4,167.91c15.31,2.29,38.56,6.24,51.16,10.14v61.34c-12.79,3.75-36,7.12-51.16,9v-80.48Z"/><path d="M216.89,224.02h9.19c8.84,0,16-7.16,16-16s-7.16-16-16-16h-9.19c-8.84,0-16,7.16-16,16s7.16,16,16,16Z"/><path d="M268.6,224.02h9.19c8.84,0,16-7.16,16-16s-7.16-16-16-16h-9.19c-8.84,0-16,7.16-16,16s7.16,16,16,16Z"/><path d="M47.96,133.99c-8.84,0-16,7.16-16,16v173.52c0,8.84,7.16,16,16,16s16-7.16,16-16v-173.52c0-8.84-7.16-16-16-16Z"/><path d="M436.63,296.79c-5.88-8.27-10.52-15.51-21.93-13.16-5.93,1.22-10.39,8.13-9.98,13.96.5,7.08,10.27,14.83,13.6,22.11,9.26,20.27-6.58,37.85-11.52,57.14-4.82,18.86-2.45,35.57,8.43,51.67,6.32,9.35,15.97,20.36,27.4,10.59,13.89-11.86-6.04-23.97-9.29-35.6-5.27-18.84,8.76-36.84,13.26-54.65,5.07-20.03,1.95-35.29-9.97-52.06Z"/><path d="M359.96,387.74c-1.5,14.69,11.3,50.61,30.33,37.23,14.39-10.12-3.28-23.33-2.81-33.74.41-8.88,11.4-23.03,14.06-33.15,2.9-11.01,2.17-19.12-2.09-29.62-4.33-10.68-10.82-21.13-23.87-18.16-5.11,1.16-8.93,8.1-8.96,12.96-.06,9.13,10.48,15.13,9.07,24.99-1.66,11.57-14.23,24.71-15.74,39.49Z"/><path d="M438.56,220.91c-3.71-32.18-31.13-57.24-64.28-57.24s-60.93,25.4-64.35,57.89c-24.44,9.53-41.33,33.51-41.33,60.33,0,35.68,29.03,64.71,64.71,64.71,6.87,0,12.44-5.57,12.44-12.44s-5.57-12.44-12.44-12.44c-21.96,0-39.82-17.86-39.82-39.82,0-18.57,13.14-34.92,31.25-38.89,5.92-1.3,10.04-6.66,9.77-12.71-.03-.63-.05-1.27-.05-1.91,0-21.96,17.86-39.82,39.82-39.82s39.82,17.86,39.82,39.82c0,.35-.02.69-.02,1.03l-.02.42c-.19,5.99,3.92,11.26,9.77,12.55,18.1,3.97,31.24,20.32,31.24,38.88,0,6.87,5.57,12.44,12.44,12.44s12.44-5.57,12.44-12.44c0-26.84-16.93-50.85-41.4-60.36Z"/></svg>