<?xml version="1.0" encoding="UTF-8"?><svg id="Icon" xmlns="http://www.w3.org/2000/svg" viewBox="0 0 512 512"><path d="M392,208c-7.15,0-14.11.86-20.77,2.48l-13.5-30.13s0,0,0,0l-7.97-17.8,29.88-7.4c4.25-.8,5.31,1.82,5.89,3.23.64,1.56,1.13,2.85,1.51,3.89-.56.23-1.2.49-1.92.78-8.22,3.25-12.24,12.55-8.98,20.77,3.25,8.22,12.55,12.24,20.77,8.98,7.27-2.88,17.24-6.83,21.53-16.88,4.16-9.74.82-19.57-3.27-29.62-9.01-22.11-30.69-25.41-43.13-22.24l-48.55,12.02c-4.6,1.14-8.46,4.26-10.54,8.52-2.08,4.26-2.16,9.22-.22,13.55l3.86,8.61-104.26,9.37-6.24-16.14h1.91c8.84,0,16-7.16,16-16s-7.16-16-16-16h-48c-8.84,0-16,7.16-16,16s7.16,16,16,16h11.78l44.88,116h-10.95c-9.08-38.92-44.06-68-85.71-68-48.52,0-88,39.48-88,88s39.48,88,88,88c44.45,0,81.31-33.13,87.18-76h32.72s.07,0,.1,0c.52,0,1.05-.03,1.57-.08.14-.01.28-.04.42-.06.32-.04.64-.08.96-.14.05,0,.1-.02.14-.03.23-.05.46-.11.69-.17.2-.05.39-.09.59-.14.08-.02.15-.05.22-.07.24-.07.48-.16.72-.25.08-.03.15-.05.23-.08.08-.03.15-.05.23-.08,0,0,.01,0,.02,0,.09-.04.19-.07.28-.11.23-.09.45-.2.67-.3.25-.11.49-.23.74-.36.22-.11.42-.24.63-.36.18-.11.37-.2.55-.32.05-.03.1-.07.15-.11.2-.13.38-.27.58-.41.24-.17.48-.34.71-.53.15-.12.28-.25.42-.37.23-.2.46-.39.67-.6l88.27-85.63,2.59,5.78c-22.97,15.9-38.04,42.42-38.04,72.4,0,48.52,39.48,88,88,88s88-39.48,88-88-39.48-88-88-88ZM379.92,155.08s-.16.05,0,0h0ZM379.79,155.11c.06-.01.09-.02.11-.02-.05.01-.13.03-.24.06l.13-.03ZM120,352c-30.88,0-56-25.12-56-56s25.12-56,56-56,56,25.12,56,56-25.12,56-56,56ZM312.63,199.25l-66.43,64.44-21.86-56.51,88.29-7.93ZM392,352c-30.88,0-56-25.12-56-56s25.12-56,56-56,56,25.12,56,56-25.12,56-56,56Z"/></svg>