<?xml version="1.0" encoding="UTF-8"?><svg id="Icon" xmlns="http://www.w3.org/2000/svg" viewBox="0 0 512 512"><path d="M472,289.78c-1.78-5.22-6.12-9.17-11.5-10.42-5.39-1.26-11.05.35-14.96,4.26l-40.31,40.3-11.31-11.31,40.3-40.31c3.63-3.63,5.3-8.78,4.48-13.85s-4.01-9.44-8.59-11.75l-1-.5c-.15-.08-.31-.15-.46-.22-14.33-6.66-29.87-9.15-45-7.77l-25.91-57.86-7.97-17.8,29.88-7.4c4.24-.8,5.31,1.82,5.89,3.23.64,1.56,1.13,2.85,1.51,3.89-.56.23-1.2.49-1.92.78-8.22,3.25-12.24,12.55-8.98,20.77,3.25,8.22,12.55,12.24,20.77,8.98,7.27-2.88,17.24-6.83,21.53-16.88,4.16-9.74.82-19.57-3.27-29.62-9.01-22.11-30.69-25.41-43.13-22.24l-48.55,12.02c-4.6,1.14-8.46,4.26-10.54,8.52-2.08,4.26-2.16,9.22-.22,13.55l3.86,8.61-104.26,9.37-6.24-16.14h1.91c8.84,0,16-7.16,16-16s-7.16-16-16-16h-48c-8.84,0-16,7.16-16,16s7.16,16,16,16h11.78l44.88,116h-10.95c-9.08-38.92-44.06-68-85.71-68-48.52,0-88,39.48-88,88s39.48,88,88,88c44.45,0,81.31-33.13,87.18-76h32.72s.07,0,.1,0c.52,0,1.05-.03,1.57-.08.14-.01.28-.04.42-.06.32-.04.64-.08.96-.14.05,0,.1-.02.14-.03.23-.05.46-.11.69-.17.2-.05.39-.09.59-.14.08-.02.15-.05.22-.07.24-.07.48-.16.72-.25.08-.03.15-.05.23-.08.08-.03.15-.05.23-.08,0,0,.01,0,.02,0,.09-.04.19-.07.28-.11.23-.09.45-.2.67-.3.25-.11.49-.23.74-.36.22-.11.42-.24.63-.36.18-.11.37-.2.55-.32.05-.03.1-.07.15-.11.2-.13.38-.27.58-.41.24-.17.48-.34.71-.53.15-.12.28-.25.42-.37.23-.2.46-.39.67-.6l88.27-85.63,13.06,29.16c-8.45,4.17-16.31,9.71-23.19,16.59-23.69,23.69-31.66,58.56-21.38,89.76l-32.26,32.26c-6.25,6.25-6.25,16.38,0,22.63,6.25,6.25,16.38,6.25,22.63,0l39.75-39.75s.05-.05.07-.07c.06-.06.12-.12.18-.18,4.94-5.17,5.75-12.83,2.43-18.82-9.88-21.27-5.44-46.56,11.21-63.2,10.67-10.67,24.99-16.33,39.51-16.38l-23,23c-10.92,10.92-10.92,28.68,0,39.6l16.97,16.97c10.92,10.92,28.68,10.92,39.6,0l22.74-22.74c-.18,14.35-5.84,28.46-16.38,39.01-16.89,16.89-42.51,21.33-63.74,11.05-6.13-2.97-13.47-1.73-18.29,3.09l-8.36,8.36s0,0,0,.01l-31.79,31.79c-6.25,6.25-6.25,16.38,0,22.63,3.12,3.12,7.22,4.69,11.31,4.69s8.19-1.56,11.31-4.69l31.79-31.79s0,0,.01,0l.9-.9c31.02,10.16,65.77,2.11,89.48-21.6,25.82-25.82,32.98-65.29,17.98-98.49ZM379.92,155.08s-.16.05,0,0h0ZM379.79,155.11c.06-.01.09-.02.11-.02-.05.01-.13.03-.24.06l.13-.03ZM120,352c-30.88,0-56-25.12-56-56s25.12-56,56-56,56,25.12,56,56-25.12,56-56,56ZM312.63,199.25l-66.43,64.44-21.86-56.51,88.29-7.93Z"/></svg>