<?xml version="1.0" encoding="UTF-8"?><svg id="Icon" xmlns="http://www.w3.org/2000/svg" viewBox="0 0 512 512"><path d="M331.64,404.36h-151.27c-81.81,0-148.36-66.56-148.36-148.36S98.56,107.64,180.36,107.64h151.27c81.81,0,148.36,66.56,148.36,148.36s-66.56,148.36-148.36,148.36ZM180.36,139.64c-64.16,0-116.36,52.2-116.36,116.36s52.2,116.36,116.36,116.36h151.27c64.16,0,116.36-52.2,116.36-116.36s-52.2-116.36-116.36-116.36h-151.27Z"/><path d="M332,345c-49.07,0-89-39.93-89-89s39.93-89,89-89,89,39.93,89,89-39.93,89-89,89Z"/></svg>