<?xml version="1.0" encoding="UTF-8"?><svg id="Icon" xmlns="http://www.w3.org/2000/svg" viewBox="0 0 512 512"><path d="M445.61,401.25L269.13,95.58c-2.71-4.69-7.71-7.58-13.13-7.58s-10.42,2.89-13.13,7.58L66.39,401.25c-2.71,4.69-2.71,10.47,0,15.17,2.71,4.69,7.72,7.58,13.13,7.58h352.96c5.42,0,10.43-2.89,13.13-7.58,2.71-4.69,2.71-10.47,0-15.17ZM89.37,403.15L256,114.54l166.63,288.61H89.37Z"/><path d="M227.68,269.22c7.88-5.97,17.69-9.51,28.33-9.51s20.45,3.54,28.33,9.51c1.82-2.6,3.3-5.46,4.36-8.51-9.23-6.58-20.5-10.46-32.69-10.46s-23.49,3.88-32.72,10.46c1.06,3.06,2.56,5.91,4.38,8.51Z"/><path d="M199.82,301.38c-1.08,11.28,1.19,22.99,7.29,33.54,6.1,10.56,15.1,18.4,25.42,23.1,2.12-2.45,3.84-5.17,5.18-8.05-9.11-3.84-17.09-10.57-22.41-19.78-5.32-9.22-7.16-19.48-5.93-29.29-3.16-.28-6.38-.13-9.55.48Z"/><path d="M274.29,350.04c1.34,2.87,3.08,5.59,5.19,8.03,10.31-4.7,19.31-12.52,25.41-23.08,6.1-10.56,8.39-22.28,7.3-33.57-3.18-.61-6.4-.74-9.56-.46,1.23,9.81-.61,20.08-5.93,29.29-5.32,9.21-13.29,15.94-22.4,19.78Z"/><path d="M296.45,249.35c0,21.43-16.71,38.99-37.8,40.36v4.97c5.53,1.21,9.67,6.13,9.67,12.03,0,1.32-.21,2.59-.6,3.78l4.31,2.49c11.73-17.58,35.29-23.27,53.85-12.55,17.92,10.35,24.92,32.36,16.97,50.92l5.49,3.17c11.53-24.85,2.39-54.87-21.79-68.83-6.97-4.03-14.48-6.29-22.01-6.95,3.2-6.86,5-14.51,5-22.58,0-27.92-21.41-50.84-48.7-53.28v6.33c20.05,2.39,35.62,19.46,35.62,40.16Z"/><path d="M285.44,370.46c-18.56-10.72-25.42-33.96-16.05-52.91l-4.33-2.5c-2.25,2.45-5.47,3.99-9.06,3.99s-6.84-1.56-9.1-4.03l-4.3,2.48c9.36,18.95,2.51,42.19-16.05,52.91-17.92,10.35-40.49,5.4-52.58-10.77l-5.49,3.17c15.76,22.41,46.33,29.51,70.5,15.55,6.96-4.02,12.67-9.37,17.01-15.54,4.34,6.19,10.05,11.56,17.03,15.59,24.18,13.96,54.73,6.88,70.49-15.53l-5.48-3.17c-12.09,16.17-34.66,21.11-52.58,10.77Z"/><path d="M186.11,300.35c18.56-10.72,42.12-5.03,53.85,12.55l4.29-2.48c-.37-1.17-.57-2.42-.57-3.72,0-5.9,4.15-10.83,9.7-12.03v-4.97c-21.09-1.37-37.8-18.93-37.8-40.36s15.57-37.77,35.62-40.16v-6.33c-27.29,2.44-48.72,25.37-48.72,53.28,0,8.05,1.8,15.68,4.99,22.53-7.53.67-15.03,2.93-22,6.95-24.18,13.96-33.32,43.96-21.8,68.81l5.49-3.17c-7.96-18.56-.95-40.58,16.97-50.92Z"/></svg>