<?xml version="1.0" encoding="UTF-8"?><svg id="Icon" xmlns="http://www.w3.org/2000/svg" viewBox="0 0 512 512"><path d="M430.84,351.16c-7.49-15.46-16.55-32.44-26.14-50.41-4.46-8.36-9.12-16.86-14.05-25.87-18.44-33.68-39.29-71.74-54.66-111.81v-35.16c16.43-1.3,29.41-15.11,29.41-31.9v-32.05c0-17.62-14.33-31.95-31.95-31.95h-154.91c-17.62,0-31.95,14.33-31.95,31.95v32.25c0,16.68,12.98,30.4,29.41,31.7v35.16c-15.37,40.04-36.2,78.08-54.63,111.73-4.95,9.04-9.62,17.57-14.13,26.02-9.59,17.98-18.64,34.95-26.1,50.35-14.45,29.85-22.57,51.43-21.29,73.37.89,15.32,7.35,29.08,18.21,38.76,9.83,8.77,22.6,14.16,39.09,16.49l.18.03c.36.05.73.09,1.09.11h.18c1.13.09,2.25.11,3.36.06h268.05c.41.02.81.02,1.22.02.71,0,1.43-.02,2.13-.07h.19c.36-.04.73-.07,1.09-.12l.25-.03c16.44-2.32,29.21-7.72,39.04-16.49,10.85-9.69,17.32-23.46,18.2-38.76,1.27-21.95-6.85-43.52-21.3-73.36ZM420.19,422.68c-.39,6.78-3.08,12.73-7.56,16.73-4.86,4.34-11.94,7.15-21.57,8.58-.23,0-.45-.01-.68-.01H121.61c-.23,0-.44,0-.66.02-9.66-1.44-16.72-4.25-21.59-8.59-4.48-4-7.17-9.94-7.56-16.73-.87-15,6-32.47,18.15-57.57,7.18-14.83,16.09-31.54,25.57-49.29,4.39-8.23,9.02-16.69,13.93-25.65,19.35-35.33,41.28-75.38,57.53-118.52.68-1.8,1.03-3.71,1.03-5.64v-54c0-8.84-7.16-16-16-16h-13.41s-.05-32-.05-32l154.87-.05-.05,32.05h-13.35c-8.84,0-16,7.16-16,16v54c0,1.93.35,3.84,1.03,5.64,16.25,43.18,38.2,83.25,57.56,118.61,4.89,8.93,9.51,17.36,13.88,25.56,9.44,17.69,18.36,34.4,25.57,49.29,12.15,25.1,19.02,42.57,18.15,57.58Z"/><path d="M330.98,282.93c-.51.06-9.95,1.12-22.75,4.19-14.89-31.92-39.78-54.48-40.96-55.54-6.22-5.57-15.68-5.43-21.72.34-1.16,1.11-25.89,24.9-41.54,55.08-12.56-2.98-21.78-4.02-22.25-4.07-8.3-.91-15.91,4.72-17.47,12.92-.48,2.52-11.35,62.12,19.54,99.72,20.29,24.69,47.44,29.21,64.59,29.21,1.84,0,3.57-.05,5.16-.14.71-.04,1.4-.14,2.08-.26,2.6.23,5.56.39,8.81.39,17.93,0,44.41-4.85,64.42-29.2,30.9-37.6,20.02-97.2,19.54-99.72-1.56-8.21-9.16-13.83-17.47-12.92ZM256.74,266.77c6.44,7.45,14.55,18.07,20.81,30.39-8.02,3.49-15.07,7.43-21.18,11.79-6.17-4.41-13.33-8.38-21.43-11.89,6.79-11.94,15.21-22.67,21.8-30.3ZM208.56,375.25c-10.74-13.07-13.75-31.8-14.38-45.21-.21-4.51-.18-8.75-.02-12.5,12.52,2.83,28.4,7.75,40.46,15.34-10.32,18.94-10.07,40.17-7.49,56.06-6.57-2.65-13.04-6.94-18.58-13.68ZM318.55,330.05c-.63,13.41-3.63,32.14-14.38,45.21-13.57,16.52-32.72,18.13-43.58,17.47-3.11-11.72-6.52-33.3,4.64-48.49,10.5-14.3,35.25-22.65,53.33-26.71.16,3.76.2,8.01-.01,12.53Z"/></svg>