<?xml version="1.0" encoding="UTF-8"?><svg id="Icon" xmlns="http://www.w3.org/2000/svg" viewBox="0 0 512 512"><path d="M432,64H80c-8.84,0-16,7.16-16,16s7.16,16,16,16h352c8.84,0,16-7.16,16-16s-7.16-16-16-16Z"/><path d="M432,176c8.84,0,16-7.16,16-16s-7.16-16-16-16h-16v-16c0-8.84-7.16-16-16-16s-16,7.16-16,16v16H128v-16c0-8.84-7.16-16-16-16s-16,7.16-16,16v16h-16c-8.84,0-16,7.16-16,16s7.16,16,16,16h16v32h-16c-8.84,0-16,7.16-16,16s7.16,16,16,16h16v32h-16c-8.84,0-16,7.16-16,16s7.16,16,16,16h16v113.86c0,16.62,13.53,30.14,30.16,30.14h259.67c16.63,0,30.16-13.52,30.16-30.14v-113.86h16c8.84,0,16-7.16,16-16s-7.16-16-16-16h-16v-32h16c8.84,0,16-7.16,16-16s-7.16-16-16-16h-16v-32h16ZM384,416H128v-112h256v112ZM384,272H128v-32h256v32ZM384,208H128v-32h256v32Z"/></svg>