<?xml version="1.0" encoding="UTF-8"?><svg id="Icon" xmlns="http://www.w3.org/2000/svg" viewBox="0 0 512 512"><path d="M346.62,32h-181.64c-29.21,0-52.98,23.77-52.98,52.98v278.58c0,29.21,23.77,52.98,52.98,52.98h43.02v47.47c0,8.84,7.16,16,16,16s16-7.16,16-16v-47.47h32v47.47c0,8.84,7.16,16,16,16s16-7.16,16-16v-47.47h42.62c29.21,0,52.98-23.77,52.98-52.98V84.98c0-29.21-23.77-52.98-52.98-52.98ZM367.6,363.56c0,11.57-9.41,20.98-20.98,20.98h-181.64c-11.57,0-20.98-9.41-20.98-20.98V84.98c0-11.57,9.41-20.98,20.98-20.98h181.64c11.57,0,20.98,9.41,20.98,20.98v278.58Z"/><path d="M256,80c-26.47,0-48,21.53-48,48s21.53,48,48,48,48-21.53,48-48-21.53-48-48-48ZM256,144c-8.82,0-16-7.18-16-16s7.18-16,16-16,16,7.18,16,16-7.18,16-16,16Z"/><path d="M224,336h-48c-8.84,0-16,7.16-16,16s7.16,16,16,16h48c8.84,0,16-7.16,16-16s-7.16-16-16-16Z"/><path d="M351.69,348.87c-.1-.5-.23-1.02-.39-1.51-.15-.5-.33-1-.53-1.48-.19-.48-.42-.96-.66-1.41-.25-.46-.52-.92-.81-1.35-.29-.44-.6-.86-.93-1.26-.33-.41-.69-.8-1.06-1.17s-.76-.73-1.17-1.06c-.4-.33-.82-.64-1.26-.93-.43-.29-.89-.56-1.35-.81-.45-.24-.93-.47-1.41-.66-.48-.2-.98-.38-1.47-.53-.5-.16-1.01-.29-1.52-.39-.52-.1-1.04-.18-1.56-.23-1.04-.11-2.1-.11-3.14,0-.52.05-1.04.13-1.55.23-.51.1-1.03.23-1.52.39-.5.15-1,.33-1.48.53-.48.19-.96.42-1.41.66-.46.25-.92.52-1.35.81-.44.29-.86.6-1.26.93-.41.33-.8.69-1.17,1.06s-.73.76-1.06,1.17c-.33.4-.64.82-.93,1.26-.29.43-.56.89-.81,1.35-.24.45-.46.93-.66,1.41-.2.48-.38.98-.53,1.48-.16.49-.28,1.01-.39,1.51-.1.52-.18,1.04-.23,1.56s-.08,1.05-.08,1.57c0,4.21,1.71,8.34,4.69,11.31.37.37.76.73,1.17,1.06.4.33.82.64,1.26.93.43.29.89.56,1.35.81.45.24.93.47,1.41.67.48.19.98.37,1.48.52.49.16,1.01.29,1.52.39.51.1,1.03.18,1.55.23.52.05,1.05.08,1.57.08s1.05-.03,1.57-.08c.52-.05,1.04-.13,1.56-.23.51-.1,1.02-.23,1.52-.39.49-.15.99-.33,1.47-.52.48-.2.96-.43,1.41-.67.46-.25.92-.52,1.35-.81.44-.29.86-.6,1.26-.93.41-.33.8-.69,1.17-1.06,2.98-2.97,4.69-7.1,4.69-11.31,0-.52-.02-1.05-.08-1.57-.05-.52-.13-1.04-.23-1.56Z"/><path d="M303.69,348.87c-.11-.5-.23-1.02-.39-1.51-.15-.5-.33-1-.53-1.48-.19-.48-.42-.96-.66-1.41-.25-.46-.52-.92-.81-1.35-.29-.44-.6-.86-.93-1.26-.33-.41-.69-.8-1.06-1.17-.36-.37-.76-.73-1.16-1.06-.41-.33-.83-.64-1.27-.93-.43-.29-.88-.56-1.34-.81-.46-.24-.94-.47-1.42-.66-.48-.2-.98-.38-1.47-.53-.5-.16-1.01-.29-1.52-.39-.52-.1-1.04-.18-1.56-.23-1.04-.11-2.1-.11-3.14,0-.52.05-1.04.13-1.56.23-.51.1-1.02.23-1.52.39-.49.15-.99.33-1.47.53-.48.19-.96.42-1.42.66-.46.25-.91.52-1.34.81-.44.29-.86.6-1.26.93-.41.33-.8.69-1.17,1.06s-.73.76-1.06,1.17c-.33.4-.64.82-.93,1.26-.29.43-.56.89-.81,1.35-.24.45-.47.93-.66,1.41-.2.48-.38.98-.53,1.48-.15.49-.28,1.01-.39,1.51-.1.52-.18,1.04-.23,1.56s-.08,1.05-.08,1.57c0,4.22,1.71,8.34,4.69,11.31.37.37.76.73,1.17,1.06.4.33.82.64,1.26.93.43.29.88.56,1.34.81.46.24.94.47,1.42.67.48.19.98.37,1.47.52.5.16,1.01.29,1.52.39.52.1,1.04.18,1.56.23.52.05,1.05.08,1.57.08s1.05-.03,1.57-.08c.52-.05,1.04-.13,1.56-.23.51-.1,1.02-.23,1.52-.39.49-.15.99-.33,1.47-.52.48-.2.96-.43,1.42-.67.46-.25.91-.52,1.34-.81.44-.29.86-.6,1.27-.93.4-.33.8-.69,1.16-1.06.37-.36.73-.76,1.06-1.16.33-.41.64-.83.93-1.27.29-.43.56-.88.81-1.34.24-.46.47-.94.66-1.42.2-.48.38-.98.53-1.47.16-.5.28-1.01.39-1.52.1-.51.18-1.04.23-1.55.05-.53.08-1.06.08-1.58s-.03-1.05-.08-1.57-.13-1.04-.23-1.56Z"/></svg>