<?xml version="1.0" encoding="UTF-8"?><svg id="Icon" xmlns="http://www.w3.org/2000/svg" viewBox="0 0 512 512"><path d="M105.99,478.78c1.98.82,4.06,1.22,6.12,1.22,4.17,0,8.26-1.63,11.32-4.69l132.57-132.67,132.57,132.67c4.57,4.58,11.46,5.95,17.44,3.47,5.98-2.48,9.88-8.31,9.88-14.78V112c0-26.47-21.53-48-48-48h-223.78c-26.47,0-48,21.53-48,48v352c0,6.47,3.9,12.31,9.88,14.78ZM128.11,112c0-8.82,7.18-16,16-16h223.78c8.82,0,16,7.18,16,16v313.35l-116.57-116.66c-3-3-7.07-4.69-11.32-4.69s-8.32,1.69-11.32,4.69l-116.57,116.66V112Z"/></svg>