<?xml version="1.0" encoding="UTF-8"?><svg id="Icon" xmlns="http://www.w3.org/2000/svg" viewBox="0 0 512 512"><path d="M388.71,403.94l-33.02,32.06c-12,.17-21.68,9.95-21.68,21.99s9.85,22,22,22,21.47-9.33,21.98-21.04l33.02-32.06c6.34-6.16,6.49-16.28.33-22.62-6.15-6.34-16.28-6.49-22.62-.33Z"/><path d="M447.97,380.82c0-.22.03-.43.03-.65v-245.06c0-30.39-24.72-55.11-55.11-55.11h-40.89v-16c0-8.84-7.16-16-16-16s-16,7.16-16,16v16h-128v-16c0-8.84-7.16-16-16-16s-16,7.16-16,16v16h-40.89c-30.39,0-55.11,24.72-55.11,55.11v273.78c0,30.39,24.72,55.11,55.11,55.11h112.32s0,0,0,.01c0,8.84,7.16,16,16,16s16-7.16,16-16c0-50.89,41.4-92.29,92.29-92.29s92.29,41.4,92.29,92.29c0,8.84,7.16,16,16,16s16-7.16,16-16c0-31.97-12.13-61.15-32.03-83.19ZM119.11,112h40.89v16c0,8.84,7.16,16,16,16s16-7.16,16-16v-16h128v16c0,8.84,7.16,16,16,16s16-7.16,16-16v-16h40.89c12.74,0,23.11,10.37,23.11,23.11v56.78H96v-56.78c0-12.74,10.37-23.11,23.11-23.11ZM235.62,432h-116.5c-12.74,0-23.11-10.37-23.11-23.11v-185h320v131.47c-17.87-9.95-38.42-15.63-60.29-15.63-57.47,0-105.94,39.21-120.1,92.27Z"/><path d="M352.79,265.66c-13.56,0-24.54,11.01-24.44,24.58,0,13.37,10.94,24.31,24.44,24.31s24.45-10.95,24.45-24.44-10.94-24.45-24.45-24.45Z"/><path d="M256.26,265.66c-13.56,0-24.54,11.01-24.44,24.58,0,13.37,10.95,24.31,24.44,24.31s24.45-10.95,24.45-24.44-10.95-24.44-24.45-24.44Z"/><path d="M159.74,342.88c-13.56,0-24.54,11.01-24.44,24.58,0,13.37,10.95,24.31,24.44,24.31s24.44-10.95,24.44-24.44-10.95-24.45-24.44-24.45Z"/></svg>