<?xml version="1.0" encoding="UTF-8"?><svg id="Icon" xmlns="http://www.w3.org/2000/svg" viewBox="0 0 512 512"><path d="M413.48,191.77c-1.11-1.11-2.35-2.02-3.66-2.73-.07-.04-.14-.09-.21-.12-.04-.02-.07-.03-.11-.05-4.16-2.14-9.06-2.35-13.35-.61-1.93.78-3.73,1.95-5.29,3.51,0,0,0,0,0,0l-53.36,53.36c-6.25,6.25-6.25,16.38,0,22.63,3.12,3.12,7.22,4.69,11.31,4.69s8.19-1.56,11.31-4.69l42.05-42.05,42.05,42.05c3.12,3.12,7.22,4.69,11.31,4.69s8.19-1.56,11.31-4.69c6.25-6.25,6.25-16.38,0-22.63l-53.36-53.36Z"/><path d="M348.8,195.57c4.09,0,8.19-1.56,11.31-4.69l42.05-42.05,42.05,42.05c3.12,3.12,7.22,4.69,11.31,4.69s8.19-1.56,11.31-4.69c6.25-6.25,6.25-16.38,0-22.63l-53.36-53.36s0,0,0,0c-1.11-1.11-2.35-2.02-3.66-2.73-.07-.04-.14-.09-.21-.12-.04-.02-.07-.03-.11-.05-4.16-2.14-9.06-2.35-13.35-.61-1.93.78-3.73,1.95-5.29,3.51l-53.36,53.36c-6.25,6.25-6.25,16.38,0,22.63,3.12,3.12,7.22,4.69,11.31,4.69Z"/><path d="M239.57,479.58c55.53,0,100.71-45.18,100.71-100.71,0-37.28-20.27-70.91-52.48-88.42V79.82c0-26.6-21.64-48.24-48.24-48.24s-48.24,21.64-48.24,48.24v210.63c-32.2,17.52-52.48,51.14-52.48,88.42,0,55.53,45.18,100.71,100.71,100.71ZM213.43,315.32c5.99-2.47,9.91-8.31,9.91-14.79V79.82c0-8.95,7.28-16.24,16.24-16.24s16.24,7.28,16.24,16.24v220.71c0,6.48,3.91,12.32,9.91,14.79,25.86,10.65,42.57,35.6,42.57,63.55,0,37.89-30.82,68.71-68.71,68.71s-68.71-30.82-68.71-68.71c0-27.95,16.71-52.9,42.57-63.55Z"/></svg>