<?xml version="1.0" encoding="UTF-8"?><svg id="Icon" xmlns="http://www.w3.org/2000/svg" viewBox="0 0 512 512"><circle cx="177.42" cy="214.99" r="23.11" transform="translate(-98.73 252.89) rotate(-58.28)"/><circle cx="334.58" cy="214.99" r="23.11"/><path d="M391.7,100.77h-119.7v-21.64c4.38-4.21,7.11-10.12,7.11-16.67,0-12.76-10.35-23.11-23.11-23.11s-23.11,10.35-23.11,23.11c0,6.55,2.73,12.46,7.11,16.67v21.64h-119.7c-25.43,0-46.12,20.69-46.12,46.12v228.65c0,25.43,20.69,46.12,46.12,46.12h271.4c25.43,0,46.12-20.69,46.12-46.12v-228.65c0-25.43-20.69-46.12-46.12-46.12ZM405.82,375.53c0,7.79-6.33,14.12-14.12,14.12H120.3c-7.79,0-14.12-6.33-14.12-14.12v-228.65c0-7.79,6.33-14.12,14.12-14.12h271.4c7.79,0,14.12,6.33,14.12,14.12v228.65Z"/><path d="M323.52,294.71c-19.74,18.88-47.82,25.61-67.52,25.61-18.59,0-49.85-9.95-67.96-26.01-6.61-5.87-16.72-5.26-22.59,1.35-5.87,6.61-5.26,16.72,1.35,22.59,21.89,19.43,60.24,34.08,89.2,34.08,33.55,0,67.06-12.89,89.64-34.48,6.39-6.11,6.61-16.24.5-22.62-6.11-6.39-16.23-6.61-22.62-.5Z"/><path d="M48,185.12c-8.84,0-16,7.16-16,16v73.96c0,8.84,7.16,16,16,16s16-7.16,16-16v-73.96c0-8.84-7.16-16-16-16Z"/><path d="M464,185.12c-8.84,0-16,7.16-16,16v73.96c0,8.84,7.16,16,16,16s16-7.16,16-16v-73.96c0-8.84-7.16-16-16-16Z"/></svg>