<?xml version="1.0" encoding="UTF-8"?><svg id="Icon" xmlns="http://www.w3.org/2000/svg" viewBox="0 0 512 512"><path d="M400,338.75v-165.5c18.62-6.6,32-24.39,32-45.25,0-26.47-21.53-48-48-48-20.86,0-38.64,13.38-45.25,32h-165.5c-6.6-18.62-24.39-32-45.25-32-26.47,0-48,21.53-48,48,0,20.86,13.38,38.64,32,45.25v165.5c-18.62,6.6-32,24.39-32,45.25,0,26.47,21.53,48,48,48,20.86,0,38.64-13.38,45.25-32h165.5c6.6,18.62,24.39,32,45.25,32,26.47,0,48-21.53,48-48,0-20.86-13.38-38.64-32-45.25ZM338.75,368h-165.5c-4.83-13.61-15.63-24.42-29.25-29.25v-165.5c13.62-4.83,24.42-15.63,29.25-29.25h165.5c4.83,13.61,15.63,24.42,29.25,29.25v165.5c-13.62,4.83-24.42,15.63-29.25,29.25ZM384,112c8.82,0,16,7.18,16,16s-7.18,16-16,16-16-7.18-16-16,7.18-16,16-16ZM128,112c8.82,0,16,7.18,16,16s-7.18,16-16,16-16-7.18-16-16,7.18-16,16-16ZM128,400c-8.82,0-16-7.18-16-16s7.18-16,16-16,16,7.18,16,16-7.18,16-16,16ZM384,400c-8.82,0-16-7.18-16-16s7.18-16,16-16,16,7.18,16,16-7.18,16-16,16Z"/></svg>