<?xml version="1.0" encoding="UTF-8"?><svg id="Icon" xmlns="http://www.w3.org/2000/svg" viewBox="0 0 512 512"><path d="M420.38,129.4l-136.83-78.19c-17-9.81-38.11-9.81-55.05-.04l-136.95,78.26c-16.98,9.8-27.54,28.07-27.56,47.69v156.46c.02,19.6,10.58,37.87,27.62,47.71l136.83,78.19c8.51,4.91,18.04,7.36,27.57,7.36s19.02-2.44,27.48-7.33l136.95-78.26c16.98-9.8,27.54-28.07,27.56-47.67v-156.48c-.02-19.6-10.58-37.87-27.62-47.71ZM244.44,78.92c3.56-2.05,7.54-3.08,11.54-3.08s8.03,1.04,11.64,3.12l131.27,75.01-142.89,83.06-142.89-83.06,131.33-75.05ZM107.56,353.54c-7.12-4.11-11.55-11.77-11.56-19.97v-152.53l144,83.71v164.48l-132.44-75.68ZM404.51,353.5l-132.51,75.72v-164.48l144-83.71v152.51c0,8.22-4.44,15.88-11.49,19.96Z"/></svg>