<?xml version="1.0" encoding="UTF-8"?><svg id="Icon" xmlns="http://www.w3.org/2000/svg" viewBox="0 0 512 512"><path d="M256,64c-105.87,0-192,86.13-192,192s86.13,192,192,192,192-86.13,192-192-86.13-192-192-192ZM256,429.23c-95.52,0-173.23-77.71-173.23-173.23S160.48,82.77,256,82.77s173.23,77.71,173.23,173.22-77.71,173.23-173.23,173.23Z"/><path d="M196.7,231.92c.3-3.46-17.47-7.98-24.95-4.84-.95,2.93.5,10.91,2.65,13.21,4.81,1.66,21.83-5.33,22.3-8.37Z"/><path d="M373.72,175.46l2.24-1.13c2.11-1.06,2.96-3.62,1.9-5.73-1.06-2.11-3.62-2.96-5.72-1.9l-2.63,1.32c-3.91-6.31-8.25-11.82-12.73-16.33-21.37-21.53-55.41-35.97-71.12-39.36-6.49-1.4-16.61-1.45-23.47-1.41-29.71.2-53.59,4.16-85.72,26.68-9.17,7.47-16.01,16.52-9.39,37.99.9,2.67,1.4,7.15,3.02,7.08.02,0,.05,0,.07,0-5.1,9.64-11.73,29.5-12.06,31.62-1.32,6.51-.65,10.7-.34,15.81.11,4.05-.34,6.22-3.07,11.37-1.01-.64-1.91-1.3-2.65-1.98-14.79,15.64-27.67,48.08-27.31,54.9.57,10.81,11.95,43.52,36.41,59.45l7.78-5.64,19.33.08,4.44.02c17.46.11,29.96-1.97,32.45-2.42l17.47,52.92,105.62-25.5s-12.99-41.49-11.39-59.33l4.58-.25c2.35-.13,4.16-2.14,4.03-4.49-.04-.76-.3-1.46-.68-2.06,17.9-10.85,27.63-26.36,29.26-32.05,18.87-36.51,13.24-73.39-.32-99.67ZM165.66,223.34c.65,1.29,2.01,2.12,3.61,2.12.54,0,1.11-.09,1.68-.28l.2-.06.17-.11c2.92-1.8,7.17-2.76,12.29-2.76,8.15,0,15.96,2.41,19.17,4.68l.24.17.29.08c.36.1.73.15,1.09.15,1.46,0,2.67-.84,3.03-2.08.27-.94.27-2.79-2.82-4.72-.39-.23-9.74-5.53-21.7-5.53-5.61,0-10.88,1.17-15.72,3.52-.77.4-1.33,1.02-1.65,1.75,1.25-8.05,8.54-26.24,13.74-37.61.63,0,22.81.03,22.81.03l7.78-.89,7.17-6.82-11.65-.49c-11.74-.5-24.69-1.16-29.47-1.57-.9-3.33-1.49-6.39-1.8-9.31l-.02-.18-.03-.18c-1.11-6.15,1.69-12.93,7.13-17.34,28.65-18.61,51.25-25.87,80.56-25.87.55,0,1.11,0,1.67,0h.16s.45-.01.45-.01c.67-.02,1.34-.03,2-.03h.17c23.79,0,55.83,17.4,64.82,23.74,6.65,4.7,21.62,17.2,29.98,28.55l-158.49,79.45c-9.53-1.39-27.98-4.83-39.25-9.1.45-.74,3.7-7.11,2.39-19.29ZM161.08,348.62c-21.31-15.48-31.58-44.88-32.08-54.45-.26-4.96,10.38-32.97,23.67-48.95,12.72,7.75,40.1,11.85,50.37,13.16l3.48,57.26-45.44,32.98ZM336.77,366.62l-59.98,14.48-27.94,6.75c-3.1-9.36-11.78-34.63-14.99-44.2,9.49-2.99,12.93-5.88,16.01-10.16-1.83-2.67-3.82-5.23-6.13-6.71l-.04.05-.04.05s-7.86,8.77-29.73,12.39c-.99.16-1.78.23-2.3.32-1.34.19-10.09.45-23.59.54-2.2.01-1.14.07-3.44.07-.4,0,27.31-19.63,27.31-19.63l115.82-6.1c-.34,16.21,4.45,35.42,8.31,49.47.25.89.49,1.78.73,2.67ZM366.28,270.2l-.69,1.19c-8.8,15.08-9.93,17.02-24.25,26.78,0,0-7.29,4.96-8.39,5.62-1,.82-1.77,1.46-2.36,1.99l-117.25,5.98-3.7-53.76,38.73-19.61c-.99,2.7-1.49,5.48-1.5,8.16,0,1.13.09,2.24.29,3.32l6.72-1.19c-.12-.66-.18-1.38-.18-2.13-.02-3.57,1.43-7.94,4.17-11.19,2.76-3.26,6.57-5.5,11.95-5.52.98,0,2.01.08,3.11.25,4.69.74,8.2,3.3,10.71,6.82,2.5,3.51,3.82,7.98,3.8,11.89.01,3.64-1.13,6.62-2.83,8.17-4.69,4.38-7.44,9.66-9.13,14.22-1.69,4.53-2.36,8.52-2.7,10.04-.2.95-.85,2.34-1.67,3.24-.84.93-1.61,1.3-2.34,1.29-.11,0-.25,0-.4-.03-2.71-.42-4.12-1.27-4.82-2-.69-.75-.99-1.54-1.01-2.85,0-.37.03-.78.1-1.21l-6.74-1.06c-.12.75-.18,1.51-.18,2.27-.02,2.6.83,5.42,2.9,7.57,2.06,2.15,5.03,3.47,8.73,4.04.48.07.95.11,1.42.11,3.22,0,5.78-1.69,7.44-3.59,1.7-1.93,2.74-4.15,3.23-6.3.39-1.82.97-5.2,2.43-9.13,1.45-3.92,3.75-8.21,7.39-11.61,3.56-3.36,4.99-8.22,5-13.16-.01-5.37-1.7-11.06-5.06-15.83-2.82-4.01-6.97-7.37-12.21-8.93l88.55-44.44c14.97,27.44,15.3,62.82.75,90.63Z"/></svg>