<?xml version="1.0" encoding="UTF-8"?><svg id="Icon" xmlns="http://www.w3.org/2000/svg" viewBox="0 0 512 512"><path d="M138.58,157.01c-3.21,5.41-1.51,11.92,4.04,15.49l2.38,1.53c2.44,1.57,5.33,2.4,8.36,2.4,5.29,0,10.1-2.52,12.55-6.58,3.57-5.9,7.82-15.33,7.82-26.73,0-12.44-5-23.94-14.86-34.17-8.55-8.88-10.05-17.72-4.45-26.28,3.31-5.05,2.11-11.45-2.85-15.22l-2.18-1.65c-2.59-2-5.93-3.1-9.4-3.1-5.05,0-9.56,2.23-12.08,5.96-5.97,8.86-17.23,32.2,7.11,57.47,11.2,11.63,8.12,23.21,3.56,30.89Z"/><path d="M210.69,157.01c-3.21,5.41-1.51,11.92,4.04,15.49l2.38,1.53c2.44,1.57,5.33,2.4,8.36,2.4,5.29,0,10.1-2.52,12.55-6.58,3.57-5.9,7.82-15.33,7.82-26.73,0-12.44-5-23.94-14.86-34.17-8.55-8.88-10.05-17.72-4.45-26.28,3.31-5.06,2.11-11.46-2.85-15.22l-2.18-1.65c-2.59-2-5.93-3.1-9.4-3.1-5.05,0-9.56,2.23-12.08,5.96-5.97,8.86-17.23,32.2,7.11,57.47,11.2,11.63,8.12,23.21,3.56,30.89Z"/><path d="M282.79,157.01c-3.21,5.41-1.51,11.92,4.04,15.49l2.38,1.53c2.44,1.57,5.33,2.4,8.36,2.4,5.29,0,10.1-2.52,12.55-6.58,3.57-5.9,7.82-15.33,7.82-26.73,0-12.44-5-23.94-14.86-34.17-8.55-8.88-10.05-17.72-4.45-26.28,3.31-5.05,2.11-11.46-2.85-15.22l-2.18-1.65c-2.59-2-5.92-3.09-9.4-3.09-5.05,0-9.56,2.23-12.08,5.96-5.97,8.86-17.22,32.2,7.11,57.47,11.2,11.63,8.12,23.21,3.56,30.89Z"/><path d="M375.67,192H80c-8.84,0-16,7.16-16,16v160c0,44.11,35.89,80,80,80h144c44.11,0,80-35.89,80-80v-32h7.67c39.88,0,72.33-32.15,72.33-71.67s-32.45-72.33-72.33-72.33ZM336,368c0,26.47-21.53,48-48,48h-144c-26.47,0-48-21.53-48-48v-144h240v144ZM375.67,304h-7.67v-80h7.67c22.24,0,40.33,18.09,40.33,40.33s-18.09,39.67-40.33,39.67Z"/></svg>