<?xml version="1.0" encoding="UTF-8"?><svg id="Icon" xmlns="http://www.w3.org/2000/svg" viewBox="0 0 512 512"><path d="M299.31,100.69c-6.25-6.25-16.38-6.25-22.63,0-6.25,6.25-6.25,16.38,0,22.63l132.69,132.69-132.69,132.69c-6.25,6.25-6.25,16.38,0,22.63,3.12,3.12,7.22,4.69,11.31,4.69s8.19-1.56,11.31-4.69l144-144c6.25-6.25,6.25-16.38,0-22.63l-144-144Z"/><path d="M111.6,415.63l50.76.29c.09,0,.18,0,.27,0,12.64,0,25-5.12,33.95-14.06h0s134.55-134.55,134.55-134.55c6.25-6.25,6.25-16.38,0-22.63L196.48,110.04c-9.04-9.04-21.07-14.04-33.86-14.06l-50.66-.09h-.09c-12.8,0-24.84,4.98-33.91,14.03-9.09,9.07-14.09,21.13-14.09,33.97v223.74c0,26.31,21.41,47.85,47.72,48ZM95.88,143.89c0-4.28,1.67-8.3,4.7-11.32,3.02-3.02,7.03-4.68,11.3-4.68h.03l50.66.09c4.26,0,8.27,1.67,11.29,4.69l123.34,123.34-123.24,123.24c-3,3-7.19,4.71-11.41,4.69l-50.76-.29c-8.77-.05-15.91-7.23-15.91-16v-223.74Z"/></svg>