<?xml version="1.0" encoding="UTF-8"?><svg id="Icon" xmlns="http://www.w3.org/2000/svg" viewBox="0 0 512 512"><path d="M160,256c0,52.93,43.07,96,96,96s96-43.07,96-96-43.07-96-96-96-96,43.07-96,96ZM256,192c35.29,0,64,28.71,64,64s-28.71,64-64,64-64-28.71-64-64,28.71-64,64-64Z"/><path d="M403.08,108.92c-6.25-6.25-16.38-6.25-22.63,0l-33.94,33.94c-6.25,6.25-6.25,16.38,0,22.63,3.12,3.12,7.22,4.69,11.31,4.69s8.19-1.56,11.31-4.69l33.94-33.94c6.25-6.25,6.25-16.38,0-22.63Z"/><path d="M448,240h-48c-8.84,0-16,7.16-16,16s7.16,16,16,16h48c8.84,0,16-7.16,16-16s-7.16-16-16-16Z"/><path d="M369.14,346.51c-6.25-6.25-16.38-6.25-22.63,0-6.25,6.25-6.25,16.38,0,22.63l33.94,33.94c3.12,3.12,7.22,4.69,11.31,4.69s8.19-1.56,11.31-4.69c6.25-6.25,6.25-16.38,0-22.63l-33.94-33.94Z"/><path d="M240,400v48c0,8.84,7.16,16,16,16s16-7.16,16-16v-48c0-8.84-7.16-16-16-16s-16,7.16-16,16Z"/><path d="M108.92,403.08c3.12,3.12,7.22,4.69,11.31,4.69s8.19-1.56,11.31-4.69l33.94-33.94c6.25-6.25,6.25-16.38,0-22.63-6.25-6.25-16.38-6.25-22.63,0l-33.94,33.94c-6.25,6.25-6.25,16.38,0,22.63Z"/><path d="M48,256c0,8.84,7.16,16,16,16h48c8.84,0,16-7.16,16-16s-7.16-16-16-16h-48c-8.84,0-16,7.16-16,16Z"/><path d="M131.55,108.92c-6.25-6.25-16.38-6.25-22.63,0-6.25,6.25-6.25,16.38,0,22.63l33.94,33.94c3.12,3.12,7.22,4.69,11.31,4.69s8.19-1.56,11.31-4.69c6.25-6.25,6.25-16.38,0-22.63l-33.94-33.94Z"/><path d="M272,112v-48c0-8.84-7.16-16-16-16s-16,7.16-16,16v48c0,8.84,7.16,16,16,16s16-7.16,16-16Z"/></svg>