<?xml version="1.0" encoding="UTF-8"?><svg id="Icon" xmlns="http://www.w3.org/2000/svg" viewBox="0 0 512 512"><path d="M165.83,196.69l-93.12,93.12c-5.62,5.62-8.72,13.11-8.72,21.09s3.1,15.47,8.72,21.09l16.98,16.98,77.62-77.62c6.25-6.25,16.38-6.25,22.63,0s6.25,16.38,0,22.63l-77.63,77.63,28.07,28.07,77.63-77.63c6.25-6.25,16.38-6.25,22.63,0,6.25,6.25,6.25,16.38,0,22.63l-77.63,77.63,16.98,16.98c5.62,5.62,13.11,8.72,21.09,8.72s15.47-3.1,21.09-8.72l93.12-93.12-149.48-149.48Z"/><path d="M432.85,79.15c-9.77-9.77-22.8-15.15-36.68-15.15s-26.91,5.38-36.68,15.15c-.2.2-.39.4-.58.61l-74.36,82.62-21.11-21.11c-5.62-5.62-13.11-8.72-21.09-8.72s-15.47,3.1-21.09,8.72l-32.78,32.78,149.48,149.48,32.78-32.78c5.62-5.62,8.72-13.11,8.72-21.09s-3.1-15.47-8.72-21.09l-21.11-21.11,82.63-74.36c.21-.19.41-.38.61-.58,20.23-20.23,20.23-53.14,0-73.37Z"/></svg>