<?xml version="1.0" encoding="UTF-8"?><svg id="Icon" xmlns="http://www.w3.org/2000/svg" viewBox="0 0 512 512"><path d="M432.85,79.15c-9.77-9.77-22.8-15.15-36.68-15.15s-26.91,5.38-36.68,15.15c-.2.2-.39.4-.58.61l-74.36,82.62-21.11-21.11c-5.62-5.62-13.11-8.72-21.09-8.72s-15.47,3.1-21.09,8.72l-148.52,148.52c-5.62,5.62-8.72,13.11-8.72,21.09s3.1,15.47,8.72,21.09l107.3,107.3c5.62,5.62,13.11,8.72,21.09,8.72s15.47-3.1,21.09-8.72l148.52-148.52c5.62-5.62,8.72-13.11,8.72-21.09s-3.1-15.47-8.72-21.09l-21.11-21.11,82.63-74.36c.21-.19.41-.38.61-.58,20.23-20.23,20.23-53.14,0-73.37ZM201.11,415.12l-15.43-15.43,55-55c6.25-6.25,6.25-16.38,0-22.63s-16.38-6.25-22.63,0l-55,55-28.11-28.11,55-55c6.25-6.25,6.25-16.38,0-22.63-6.25-6.25-16.38-6.25-22.63,0l-55,55-15.43-15.43,91.58-91.58,104.22,104.22-91.58,91.58ZM410.47,129.64l-94.8,85.32c-3.26,2.94-5.18,7.08-5.29,11.47-.12,4.39,1.58,8.63,4.68,11.73l31.5,31.5-31.25,31.25-104.22-104.22,31.24-31.24,31.5,31.5c3.1,3.1,7.35,4.8,11.73,4.68,4.39-.12,8.54-2.03,11.47-5.29l85.32-94.8c3.7-3.57,8.58-5.53,13.8-5.53s10.33,2.05,14.06,5.78c7.67,7.67,7.75,20.09.25,27.86Z"/></svg>