<?xml version="1.0" encoding="UTF-8"?><svg id="Icon" xmlns="http://www.w3.org/2000/svg" viewBox="0 0 512 512"><path d="M400,480h-112c-8.84,0-16-7.16-16-16v-64h-48v64c0,8.84-7.16,16-16,16h-96c-8.84,0-16-7.16-16-16V48c0-8.84,7.16-16,16-16h288c8.84,0,16,7.16,16,16v416c0,8.84-7.16,16-16,16ZM304,448h80V64H128v384h64v-64c0-8.84,7.16-16,16-16h80c8.84,0,16,7.16,16,16v64Z"/><rect x="232" y="96" width="48" height="48" rx="7.83" ry="7.83"/><rect x="160" y="96" width="48" height="48" rx="7.83" ry="7.83"/><rect x="304" y="96" width="48" height="48" rx="7.83" ry="7.83"/><rect x="232" y="160" width="48" height="48" rx="7.83" ry="7.83"/><rect x="160" y="160" width="48" height="48" rx="7.83" ry="7.83"/><rect x="304" y="160" width="48" height="48" rx="7.83" ry="7.83"/><rect x="232" y="224" width="48" height="48" rx="7.83" ry="7.83"/><rect x="160" y="224" width="48" height="48" rx="7.83" ry="7.83"/><rect x="304" y="224" width="48" height="48" rx="7.83" ry="7.83"/><rect x="232" y="288" width="48" height="48" rx="7.83" ry="7.83"/><rect x="160" y="288" width="48" height="48" rx="7.83" ry="7.83"/><rect x="304" y="288" width="48" height="48" rx="7.83" ry="7.83"/></svg>