<?xml version="1.0" encoding="UTF-8"?><svg id="Icon" xmlns="http://www.w3.org/2000/svg" viewBox="0 0 512 512"><path d="M262.5,144.58h0M297.32,102.8h0"/><path d="M321.88,432.72c-8.85,0-16.04-7.2-16.04-16.04s7.2-16.04,16.04-16.04h13.1l3.85-26.97c1.45-10.31,8.12-19.38,17.83-24.26,3.56-1.81,7.09-3.86,10.47-6.09,5.48-3.65,11.82-5.59,18.31-5.59,4.06,0,8,.76,11.71,2.25l25.34,10.16,25.17-43.6-28.33-22.15c-4.45-3.45-6.77-9.07-6.04-14.66.46-3.75.99-8.71,1-13.67l-.15-4.73c-.14-2.61-.41-5.53-.86-9.09-.73-5.54,1.58-11.15,6.04-14.63l28.33-22.15-25.19-43.56-25.33,10.15c-3.69,1.5-7.62,2.26-11.68,2.26-6.47,0-12.8-1.94-18.33-5.62-3.56-2.33-7-4.33-10.51-6.1-9.69-4.86-16.34-13.93-17.8-24.25l-3.87-27-13.08.02c-8.85,0-16.04-7.2-16.04-16.04s7.2-16.04,16.04-16.04h13.1c15.86,0,29.51,11.83,31.74,27.53l3.84,26.78c.09.09.27.22.46.32,4.7,2.35,9.34,5.05,13.79,8.02.27.16.46.23.56.26l25.17-10.1c3.77-1.51,7.75-2.28,11.82-2.28,11.5,0,22.18,6.13,27.88,16.01l25.21,43.59c7.97,13.76,4.53,31.53-8,41.32l-21.39,16.72c.22,3.11.33,5.93.33,8.55l-.06,3.37c-.05,1.64-.14,3.34-.27,5.18l21.39,16.73c12.52,9.81,15.96,27.57,8,41.32l-25.22,43.61c-5.69,9.88-16.36,16.01-27.86,16.01h0c-4.08,0-8.06-.77-11.84-2.28l-25.19-10.13c-.11.04-.3.12-.45.22-4.39,2.94-9.03,5.64-13.82,8.05-.24.11-.43.25-.52.33l-3.84,26.8c-2.23,15.68-15.88,27.5-31.74,27.5h-13.1Z"/><path d="M335.07,312.87c-9.03,0-16.37-7.35-16.37-16.37s7.35-16.37,16.37-16.37c13.3,0,24.12-10.82,24.12-24.12s-10.82-24.12-24.12-24.12c-9.03,0-16.37-7.34-16.37-16.37s7.35-16.37,16.37-16.37c31.36,0,56.87,25.51,56.87,56.87s-25.51,56.87-56.87,56.87Z"/><path d="M257.57,431h-65.71l.55-63.76-.02-.27c-.17-.08-.48-.18-.96-.18h-29.35l-1.16.08c-.16.04-.28.08-.36.12v64.01h-66.16c-16.77,0-30.41-13.33-30.41-29.71V101.97l.4-3.42.22-.92c2.58-10.8,12.84-18.64,24.41-18.64h174.41c6.95,0,13.6,2.8,18.25,7.68,4.22,4.43,6.45,10.09,6.31,16v298.61c-.01,16.38-13.65,29.71-30.42,29.71ZM224.14,399h31.84V111s-159.98,0-159.98,0v288h32.56v-32.24c0-16.34,12.08-29.68,28.73-31.7l.88-.08,3.38-.19h29.88c16.7,0,30.45,11.58,32.68,27.52l.12,1.12.2,2.84-.28,32.72Z"/><rect x="125.03" y="132.41" width="104" height="27.56" rx="13.78" ry="13.78"/><rect x="125.03" y="184.56" width="104" height="27.56" rx="13.78" ry="13.78"/><rect x="125.03" y="288.87" width="104" height="27.56" rx="13.78" ry="13.78"/><rect x="125.03" y="236.72" width="104" height="27.56" rx="13.78" ry="13.78"/></svg>