<?xml version="1.0" encoding="UTF-8"?><svg id="Icon" xmlns="http://www.w3.org/2000/svg" viewBox="0 0 512 512"><path d="M400,32H112c-8.84,0-16,7.16-16,16v416c0,8.84,7.16,16,16,16h96c8.84,0,16-7.16,16-16v-64h48v64c0,8.84,7.16,16,16,16h112c8.84,0,16-7.16,16-16V48c0-8.84-7.16-16-16-16ZM208,328.17c0,4.33-3.51,7.83-7.83,7.83h-32.34c-4.33,0-7.83-3.51-7.83-7.83v-32.34c0-4.33,3.51-7.83,7.83-7.83h32.34c4.33,0,7.83,3.51,7.83,7.83v32.34ZM208,264.17c0,4.33-3.51,7.83-7.83,7.83h-32.34c-4.33,0-7.83-3.51-7.83-7.83v-32.34c0-4.33,3.51-7.83,7.83-7.83h32.34c4.33,0,7.83,3.51,7.83,7.83v32.34ZM208,200.17c0,4.33-3.51,7.83-7.83,7.83h-32.34c-4.33,0-7.83-3.51-7.83-7.83v-32.34c0-4.33,3.51-7.83,7.83-7.83h32.34c4.33,0,7.83,3.51,7.83,7.83v32.34ZM208,136.17c0,4.33-3.51,7.83-7.83,7.83h-32.34c-4.33,0-7.83-3.51-7.83-7.83v-32.34c0-4.33,3.51-7.83,7.83-7.83h32.34c4.33,0,7.83,3.51,7.83,7.83v32.34ZM280,328.17c0,4.33-3.51,7.83-7.83,7.83h-32.34c-4.33,0-7.83-3.51-7.83-7.83v-32.34c0-4.33,3.51-7.83,7.83-7.83h32.34c4.33,0,7.83,3.51,7.83,7.83v32.34ZM280,264.17c0,4.33-3.51,7.83-7.83,7.83h-32.34c-4.33,0-7.83-3.51-7.83-7.83v-32.34c0-4.33,3.51-7.83,7.83-7.83h32.34c4.33,0,7.83,3.51,7.83,7.83v32.34ZM280,200.17c0,4.33-3.51,7.83-7.83,7.83h-32.34c-4.33,0-7.83-3.51-7.83-7.83v-32.34c0-4.33,3.51-7.83,7.83-7.83h32.34c4.33,0,7.83,3.51,7.83,7.83v32.34ZM280,136.17c0,4.33-3.51,7.83-7.83,7.83h-32.34c-4.33,0-7.83-3.51-7.83-7.83v-32.34c0-4.33,3.51-7.83,7.83-7.83h32.34c4.33,0,7.83,3.51,7.83,7.83v32.34ZM352,328.17c0,4.33-3.51,7.83-7.83,7.83h-32.34c-4.33,0-7.83-3.51-7.83-7.83v-32.34c0-4.33,3.51-7.83,7.83-7.83h32.34c4.33,0,7.83,3.51,7.83,7.83v32.34ZM352,264.17c0,4.33-3.51,7.83-7.83,7.83h-32.34c-4.33,0-7.83-3.51-7.83-7.83v-32.34c0-4.33,3.51-7.83,7.83-7.83h32.34c4.33,0,7.83,3.51,7.83,7.83v32.34ZM352,200.17c0,4.33-3.51,7.83-7.83,7.83h-32.34c-4.33,0-7.83-3.51-7.83-7.83v-32.34c0-4.33,3.51-7.83,7.83-7.83h32.34c4.33,0,7.83,3.51,7.83,7.83v32.34ZM352,136.17c0,4.33-3.51,7.83-7.83,7.83h-32.34c-4.33,0-7.83-3.51-7.83-7.83v-32.34c0-4.33,3.51-7.83,7.83-7.83h32.34c4.33,0,7.83,3.51,7.83,7.83v32.34Z"/></svg>