<?xml version="1.0" encoding="UTF-8"?><svg id="Icon" xmlns="http://www.w3.org/2000/svg" viewBox="0 0 512 512"><path d="M80,342.73h178.12l37.35,17.27c3.94,2.81,5.61,7.83,4.08,12.48l-26.03,78.99c-2.77,8.39,1.8,17.44,10.19,20.2,1.66.55,3.35.81,5.01.81,6.72,0,12.98-4.27,15.19-11l26.03-78.99c4.59-13.93,1.77-28.72-6.76-39.77h108.82c8.84,0,16-7.16,16-16V78.53c0-8.84-7.16-16-16-16H80c-8.84,0-16,7.16-16,16v248.21c0,8.84,7.16,16,16,16ZM272.86,203.83c2.6,1.23,4.56,3.37,5.51,6.02l23.5,65.52c.95,2.66.8,5.55-.42,8.15-1.23,2.6-3.37,4.56-6.02,5.51l-36.85,13.22c-2.66.95-5.55.8-8.15-.42-2.6-1.23-4.56-3.37-5.51-6.02l-23.5-65.52c-.95-2.66-.8-5.55.42-8.15,1.23-2.6,3.37-4.56,6.02-5.51l36.85-13.22c1.15-.41,2.35-.62,3.55-.62,1.56,0,3.13.35,4.6,1.04ZM201.34,269.12l13.45,37.49c.51,1.42,1.09,2.79,1.73,4.12h-34.05l18.87-41.61ZM416,310.73h-19.21l-62.73-25.71c.99-6.82.31-13.8-2.07-20.45l-23.5-65.52c-1.19-3.32-2.76-6.4-4.63-9.21l15.11-13.33c11.34-8.45,19.65-20.01,24.04-33.48l15.81-48.5h57.19v216.21ZM96,94.53h229.16l-12.58,38.58c-2.37,7.27-6.89,13.49-13.08,17.99l-.61.44-22.67,20c-7.23-1.38-14.91-.91-22.32,1.75l-36.85,13.22c-10.7,3.84-19.28,11.64-24.16,21.97-1.25,2.66-2.22,5.4-2.9,8.19l-42.66,94.06h-51.34V94.53Z"/><path d="M222.17,170.5c3.63,0,7.32-.62,10.92-1.93,16.58-6.04,25.15-24.44,19.11-41.02-6.04-16.58-24.44-25.15-41.02-19.11h0c-16.58,6.04-25.15,24.44-19.11,41.02,4.73,12.98,17.03,21.05,30.1,21.05Z"/></svg>