<?xml version="1.0" encoding="UTF-8"?><svg id="Icon" xmlns="http://www.w3.org/2000/svg" viewBox="0 0 512 512"><path d="M463.98,96h-209.77c-5.76,0-11.97.1-18.43.84-.34.04-.68.06-1.02.09-.8.07-1.8.15-2.93.3-2.34.33-5.08.72-7.84,1.25l-.48.09c-.54.1-1.08.19-1.56.29-35.63,7.29-68.07,26.83-91.34,55.03-23.59,28.59-36.59,64.78-36.59,101.91,0,88.33,71.87,160.2,160.2,160.2,6.13,0,12.32-.35,18.43-1.05,1.32-.16,2.64-.32,4-.51,2.7-.39,5.35-.82,7.89-1.3,5.77-1.1,11.5-2.53,17.02-4.23,31.98-9.86,60.76-30.23,81.05-57.36,17.67-23.62,28.29-50.92,31.16-79.73h50.21c8.84,0,16-7.16,16-16V112c0-8.84-7.16-16-16-16ZM447.98,239.8h-49.41c-8.84,0-16,7.16-16,16,0,55.72-37.19,106.1-90.45,122.52-4.4,1.36-8.97,2.5-13.55,3.37-2.04.39-4.21.75-6.41,1.06-1.08.15-2.16.29-3.19.41-4.87.56-9.83.84-14.75.84-70.69,0-128.2-57.51-128.2-128.2,0-60.64,43.04-113.45,102.41-125.6.22-.05.45-.08.67-.12l.82-.15c1.9-.36,3.91-.66,6.36-1,.37-.05.75-.07,1.12-.11.71-.06,1.42-.12,2.08-.2,4.83-.55,9.94-.63,14.75-.63h193.77v111.8Z"/><path d="M160.38,254.69c0,52.74,42.91,95.64,95.64,95.64s95.64-42.91,95.64-95.64-42.91-95.64-95.64-95.64-95.64,42.91-95.64,95.64ZM256.03,191.05c35.09,0,63.64,28.55,63.64,63.64s-28.55,63.64-63.64,63.64-63.64-28.55-63.64-63.64,28.55-63.64,63.64-63.64Z"/></svg>