<?xml version="1.0" encoding="UTF-8"?><svg id="Icon" xmlns="http://www.w3.org/2000/svg" viewBox="0 0 512 512"><path d="M432,172.31h-18.77c-4.93-6.72-12.87-11.08-21.84-11.08s-16.91,4.36-21.84,11.08h-91.7c-4.93-6.72-12.87-11.08-21.84-11.08s-16.91,4.36-21.84,11.08h-91.7c-4.93-6.72-12.87-11.08-21.84-11.08s-16.91,4.36-21.84,11.08h-18.77c-8.84,0-16,7.16-16,16s7.16,16,16,16h18.78c1.64,2.23,3.61,4.2,5.84,5.84v140.62c0,8.84,7.16,16,16,16s16-7.16,16-16v-140.62c2.23-1.64,4.2-3.61,5.84-5.84h91.7c1.64,2.23,3.61,4.2,5.84,5.84v140.62c0,8.84,7.16,16,16,16s16-7.16,16-16v-140.62c2.23-1.64,4.2-3.61,5.84-5.84h91.7c1.64,2.23,3.61,4.2,5.84,5.84v140.62c0,8.84,7.16,16,16,16s16-7.16,16-16v-140.62c2.23-1.64,4.2-3.61,5.84-5.84h18.78c8.84,0,16-7.16,16-16s-7.16-16-16-16Z"/></svg>