<?xml version="1.0" encoding="UTF-8"?><svg id="Icon" xmlns="http://www.w3.org/2000/svg" viewBox="0 0 512 512"><path d="M426.63,221.36h-18.59c-4.81-6.27-12.38-10.32-20.89-10.32s-16.08,4.05-20.89,10.32h-89.81c-4.81-6.27-12.38-10.32-20.89-10.32s-16.08,4.05-20.89,10.32h-89.81c-4.81-6.27-12.38-10.32-20.89-10.32s-16.08,4.05-20.89,10.32h-18.59c-8.84,0-16,7.16-16,16s7.16,16,16,16h18.59c1.41,1.84,3.05,3.48,4.89,4.89v137.02c0,8.84,7.16,16,16,16s16-7.16,16-16v-137.02c1.84-1.41,3.48-3.05,4.89-4.89h89.81c1.41,1.84,3.05,3.48,4.89,4.89v137.02c0,8.84,7.16,16,16,16s16-7.16,16-16v-137.02c1.84-1.41,3.48-3.05,4.89-4.89h89.81c1.41,1.84,3.05,3.48,4.89,4.89v137.02c0,8.84,7.16,16,16,16s16-7.16,16-16v-137.02c1.84-1.41,3.48-3.05,4.89-4.89h18.59c8.84,0,16-7.16,16-16s-7.16-16-16-16Z"/><path d="M436.5,127.05h-18.59c-4.81-6.27-12.38-10.32-20.89-10.32s-16.08,4.05-20.89,10.32h-89.81c-4.81-6.27-12.38-10.32-20.89-10.32s-16.08,4.05-20.89,10.32h-89.81c-4.81-6.27-12.38-10.32-20.89-10.32s-16.08,4.05-20.89,10.32h-18.59c-8.84,0-16,7.16-16,16s7.16,16,16,16h18.59c2.1,2.74,4.73,5.05,7.73,6.79v24.47c0,1.79,1.47,3.18,3.26,3.18h.03c6.61,0,12.88,1.47,18.5,4.1,2.11.99,4.53-.61,4.53-2.94v-28.82c3-1.74,5.63-4.05,7.73-6.79h89.81c2.1,2.74,4.73,5.05,7.73,6.79v24.47c0,1.79,1.47,3.18,3.26,3.18h.03c6.61,0,12.88,1.47,18.5,4.1,2.11.99,4.53-.61,4.53-2.94v-28.82c3-1.74,5.63-4.05,7.73-6.79h89.81c2.1,2.74,4.73,5.05,7.73,6.79v24.47c0,1.79,1.47,3.18,3.26,3.18h.03c6.61,0,12.88,1.47,18.5,4.1,2.11.99,4.53-.61,4.53-2.94v-28.82c3-1.74,5.63-4.05,7.73-6.79h18.59c8.84,0,16-7.16,16-16s-7.16-16-16-16Z"/></svg>