<?xml version="1.0" encoding="UTF-8"?><svg id="Icon" xmlns="http://www.w3.org/2000/svg" viewBox="0 0 512 512"><path d="M320,145.15c2.52,1.46,5.27,2.15,7.99,2.15,5.53,0,10.91-2.87,13.87-8l32-55.43c4.42-7.65,1.8-17.44-5.86-21.86-7.65-4.42-17.44-1.8-21.86,5.86l-32,55.43c-4.42,7.65-1.8,17.44,5.86,21.86Z"/><path d="M428.13,138.14l-55.43,32c-7.65,4.42-10.27,14.2-5.86,21.86,2.96,5.13,8.34,8,13.87,8,2.71,0,5.47-.69,7.99-2.15l55.43-32c7.65-4.42,10.27-14.2,5.86-21.86-4.42-7.65-14.2-10.27-21.86-5.86Z"/><path d="M464,240h-64c-8.84,0-16,7.16-16,16s7.16,16,16,16h64c8.84,0,16-7.16,16-16s-7.16-16-16-16Z"/><path d="M444.13,346.14l-55.43-32c-7.65-4.42-17.44-1.8-21.86,5.86-4.42,7.65-1.8,17.44,5.86,21.86l55.43,32c2.52,1.45,5.27,2.15,7.99,2.15,5.53,0,10.91-2.87,13.87-8,4.42-7.65,1.8-17.44-5.86-21.86Z"/><path d="M314.14,388.71l32,55.43c2.96,5.13,8.34,8,13.87,8,2.71,0,5.47-.69,7.99-2.15,7.65-4.42,10.27-14.2,5.86-21.86l-32-55.43c-4.42-7.65-14.2-10.27-21.86-5.86-7.65,4.42-10.27,14.2-5.86,21.86Z"/><path d="M240,464c0,8.84,7.16,16,16,16s16-7.16,16-16v-64c0-8.84-7.16-16-16-16s-16,7.16-16,16v64Z"/><path d="M144,449.99c2.52,1.46,5.27,2.15,7.99,2.15,5.53,0,10.91-2.87,13.87-8l32-55.43c4.42-7.65,1.8-17.44-5.86-21.86-7.65-4.42-17.44-1.8-21.86,5.86l-32,55.43c-4.42,7.65-1.8,17.44,5.86,21.86Z"/><path d="M123.29,314.14l-55.43,32c-7.65,4.42-10.27,14.2-5.86,21.86,2.96,5.13,8.34,8,13.87,8,2.71,0,5.47-.69,7.99-2.15l55.43-32c7.65-4.42,10.27-14.2,5.86-21.86-4.42-7.65-14.2-10.27-21.86-5.86Z"/><path d="M48,272h64c8.84,0,16-7.16,16-16s-7.16-16-16-16H48c-8.84,0-16,7.16-16,16s7.16,16,16,16Z"/><path d="M67.87,165.86l55.43,32c2.52,1.45,5.27,2.15,7.99,2.15,5.53,0,10.91-2.87,13.87-8,4.42-7.65,1.8-17.44-5.86-21.86l-55.43-32c-7.65-4.42-17.44-1.8-21.86,5.86-4.42,7.65-1.8,17.44,5.86,21.86Z"/><path d="M184.01,147.29c2.71,0,5.47-.69,7.99-2.15,7.65-4.42,10.27-14.2,5.86-21.86l-32-55.43c-4.42-7.65-14.2-10.27-21.86-5.86-7.65,4.42-10.27,14.2-5.86,21.86l32,55.43c2.96,5.13,8.34,8,13.87,8Z"/><path d="M256,128c8.84,0,16-7.16,16-16V48c0-8.84-7.16-16-16-16s-16,7.16-16,16v64c0,8.84,7.16,16,16,16Z"/></svg>