<?xml version="1.0" encoding="UTF-8"?><svg id="Icon" xmlns="http://www.w3.org/2000/svg" viewBox="0 0 512 512"><path d="M431.38,325.47c-8.84,0-16,7.16-16,16v53.98c0,11.02-8.97,19.99-19.99,19.99H116.49c-11.02,0-19.99-8.97-19.99-19.99V116.55c0-11.02,8.97-19.99,19.99-19.99h278.9c11.02,0,19.99,8.97,19.99,19.99v53.98c0,8.84,7.16,16,16,16s16-7.16,16-16v-53.98c0-28.67-23.32-51.99-51.99-51.99H116.49c-28.67,0-51.99,23.32-51.99,51.99v278.9c0,28.67,23.32,51.99,51.99,51.99h278.9c28.67,0,51.99-23.32,51.99-51.99v-53.98c0-8.84-7.16-16-16-16Z"/><path d="M448.5,256c0-8.84-7.16-16-16-16h-197.54l22.17-22.17c6.25-6.25,6.25-16.38,0-22.63s-16.38-6.25-22.63,0l-49.48,49.48c-6.25,6.25-6.25,16.38,0,22.63l49.48,49.48c3.12,3.12,7.22,4.69,11.31,4.69s8.19-1.56,11.31-4.69c6.25-6.25,6.25-16.38,0-22.63l-22.17-22.17h197.54c8.84,0,16-7.16,16-16Z"/></svg>