<?xml version="1.0" encoding="UTF-8"?><svg id="Icon" xmlns="http://www.w3.org/2000/svg" viewBox="0 0 512 512"><path d="M392.89,80h-40.89v-16c0-8.84-7.16-16-16-16s-16,7.16-16,16v16h-128v-16c0-8.84-7.16-16-16-16s-16,7.16-16,16v16h-40.89c-30.39,0-55.11,24.72-55.11,55.11v273.78c0,30.39,24.72,55.11,55.11,55.11h273.78c30.39,0,55.11-24.72,55.11-55.11V135.11c0-30.39-24.72-55.11-55.11-55.11ZM159.74,391.77c-13.5,0-24.44-10.95-24.44-24.31-.1-13.56,10.88-24.58,24.44-24.58s24.44,10.94,24.44,24.44-10.95,24.44-24.44,24.44ZM256.26,391.77c-13.5,0-24.44-10.95-24.44-24.31-.1-13.56,10.88-24.58,24.44-24.58s24.45,10.94,24.45,24.44-10.95,24.44-24.45,24.44ZM256.26,314.55c-13.5,0-24.44-10.95-24.44-24.31-.1-13.57,10.88-24.58,24.44-24.58s24.45,10.95,24.45,24.44-10.95,24.44-24.45,24.44ZM352.79,314.55c-13.5,0-24.45-10.95-24.44-24.31-.1-13.57,10.88-24.58,24.44-24.58s24.45,10.95,24.45,24.45-10.94,24.44-24.45,24.44ZM416,191.89H96v-56.78c0-12.74,10.37-23.11,23.11-23.11h40.89v16c0,8.84,7.16,16,16,16s16-7.16,16-16v-16h128v16c0,8.84,7.16,16,16,16s16-7.16,16-16v-16h40.89c12.74,0,23.11,10.37,23.11,23.11v56.78Z"/></svg>