<?xml version="1.0" encoding="UTF-8"?><svg id="Icon" xmlns="http://www.w3.org/2000/svg" viewBox="0 0 512 512"><path d="M392.89,80h-40.89v-16c0-8.84-7.16-16-16-16s-16,7.16-16,16v16h-128v-16c0-8.84-7.16-16-16-16s-16,7.16-16,16v16h-40.89c-30.39,0-55.11,24.72-55.11,55.11v273.78c0,30.39,24.72,55.11,55.11,55.11h273.78c30.39,0,55.11-24.72,55.11-55.11V135.11c0-30.39-24.72-55.11-55.11-55.11ZM119.11,112h40.89v16c0,8.84,7.16,16,16,16s16-7.16,16-16v-16h128v16c0,8.84,7.16,16,16,16s16-7.16,16-16v-16h40.89c12.74,0,23.11,10.37,23.11,23.11v56.78H96v-56.78c0-12.74,10.37-23.11,23.11-23.11ZM392.89,432H119.11c-12.74,0-23.11-10.37-23.11-23.11v-185h320v185c0,12.74-10.37,23.11-23.11,23.11Z"/><path d="M352.79,265.66c-13.56,0-24.54,11.01-24.44,24.58,0,13.37,10.94,24.31,24.44,24.31s24.45-10.95,24.45-24.44-10.94-24.45-24.45-24.45Z"/><path d="M256.26,265.66c-13.56,0-24.54,11.01-24.44,24.58,0,13.37,10.95,24.31,24.44,24.31s24.45-10.95,24.45-24.44-10.95-24.44-24.45-24.44Z"/><path d="M256.26,342.88c-13.56,0-24.54,11.01-24.44,24.58,0,13.37,10.95,24.31,24.44,24.31s24.45-10.95,24.45-24.44-10.95-24.45-24.45-24.45Z"/><path d="M159.74,342.88c-13.56,0-24.54,11.01-24.44,24.58,0,13.37,10.95,24.31,24.44,24.31s24.44-10.95,24.44-24.44-10.95-24.45-24.44-24.45Z"/></svg>