<?xml version="1.0" encoding="UTF-8"?><svg id="Icon" xmlns="http://www.w3.org/2000/svg" viewBox="0 0 512 512"><path d="M400,144h-55.44l-27.25-40.88c-2.97-4.45-7.96-7.12-13.31-7.12h-96c-5.35,0-10.35,2.67-13.31,7.12l-27.25,40.88h-55.44c-26.47,0-48,21.53-48,48v176c0,26.47,21.53,48,48,48h288c26.47,0,48-21.53,48-48v-176c0-26.47-21.53-48-48-48ZM416,368c0,8.82-7.18,16-16,16H112c-8.82,0-16-7.18-16-16v-176c0-8.82,7.18-16,16-16h64c5.35,0,10.35-2.67,13.31-7.12l27.25-40.88h78.87l27.25,40.88c2.97,4.45,7.96,7.12,13.31,7.12h64c8.82,0,16,7.18,16,16v176Z"/><path d="M333.97,194.49c-7.37,0-13.56,4.99-15.42,11.77-16.86-15.04-38.95-23.8-62.55-23.8s-44.12,8.03-61.12,22.6c-16.81,14.41-28.02,34.32-31.59,56.07-1.43,8.72,4.48,16.95,13.2,18.38.88.14,1.75.21,2.61.21,7.7,0,14.48-5.57,15.77-13.42,4.92-30.04,30.63-51.84,61.13-51.84,15.79,0,30.56,5.95,41.74,16.14-8.78.07-15.87,7.2-15.87,15.99s7.16,16,16,16h36.1c8.84,0,16-7.16,16-16v-36.1c0-8.84-7.16-16-16-16Z"/><path d="M335.5,273.11c-8.71-1.43-16.95,4.48-18.38,13.2-4.92,30.04-30.63,51.84-61.13,51.84-15.79,0-30.56-5.95-41.74-16.14,8.78-.07,15.87-7.2,15.87-15.99s-7.16-16-16-16h-36.1c-8.84,0-16,7.16-16,16v36.1c0,8.84,7.16,16,16,16,7.37,0,13.56-4.99,15.42-11.77,16.86,15.04,38.95,23.8,62.55,23.8s44.12-8.03,61.12-22.6c16.81-14.41,28.02-34.32,31.59-56.07,1.43-8.72-4.48-16.95-13.2-18.38Z"/></svg>