<?xml version="1.0" encoding="UTF-8"?><svg id="Icon" xmlns="http://www.w3.org/2000/svg" viewBox="0 0 512 512"><path d="M400,416H112c-26.47,0-48-21.53-48-48v-176c0-26.47,21.53-48,48-48h55.44l27.25-40.88c2.97-4.45,7.96-7.12,13.31-7.12h96c5.35,0,10.35,2.67,13.31,7.12l27.25,40.88h55.44c26.47,0,48,21.53,48,48v176c0,26.47-21.53,48-48,48ZM112,176c-8.82,0-16,7.18-16,16v176c0,8.82,7.18,16,16,16h288c8.82,0,16-7.18,16-16v-176c0-8.82-7.18-16-16-16h-64c-5.35,0-10.35-2.67-13.31-7.12l-27.25-40.88h-78.87l-27.25,40.88c-2.97,4.45-7.96,7.12-13.31,7.12h-64Z"/><path d="M256,352c-44.11,0-80-35.89-80-80s35.89-80,80-80,80,35.89,80,80-35.89,80-80,80ZM256,224c-26.47,0-48,21.53-48,48s21.53,48,48,48,48-21.53,48-48-21.53-48-48-48Z"/></svg>