<?xml version="1.0" encoding="UTF-8"?><svg id="Icon" xmlns="http://www.w3.org/2000/svg" viewBox="0 0 512 512"><path d="M256,224c-26.47,0-48,21.53-48,48s21.53,48,48,48,48-21.53,48-48-21.53-48-48-48Z"/><path d="M400,144h-55.44l-27.25-40.88c-2.97-4.45-7.96-7.12-13.31-7.12h-96c-5.35,0-10.35,2.67-13.31,7.12l-27.25,40.88h-55.44c-26.47,0-48,21.53-48,48v176c0,26.47,21.53,48,48,48h288c26.47,0,48-21.53,48-48v-176c0-26.47-21.53-48-48-48ZM256,352c-44.11,0-80-35.89-80-80s35.89-80,80-80,80,35.89,80,80-35.89,80-80,80Z"/></svg>