<?xml version="1.0" encoding="UTF-8"?><svg id="Icon" xmlns="http://www.w3.org/2000/svg" viewBox="0 0 512 512"><path d="M411.31,100.69c-6.25-6.25-16.38-6.25-22.63,0l-132.69,132.69L123.31,100.69c-6.25-6.25-16.38-6.25-22.63,0-6.25,6.25-6.25,16.38,0,22.63l132.69,132.69-132.69,132.69c-6.25,6.25-6.25,16.38,0,22.63,3.12,3.12,7.22,4.69,11.31,4.69s8.19-1.56,11.31-4.69l132.69-132.69,132.69,132.69c3.12,3.12,7.22,4.69,11.31,4.69s8.19-1.56,11.31-4.69c6.25-6.25,6.25-16.38,0-22.63l-132.69-132.69,132.69-132.69c6.25-6.25,6.25-16.38,0-22.63Z"/></svg>