<?xml version="1.0" encoding="UTF-8"?><svg id="Icon" xmlns="http://www.w3.org/2000/svg" viewBox="0 0 512 512"><path d="M256,32c-123.71,0-224,100.29-224,224s100.29,224,224,224,224-100.29,224-224S379.71,32,256,32ZM395.31,372.69c6.25,6.25,6.25,16.38,0,22.63-3.12,3.12-7.22,4.69-11.31,4.69s-8.19-1.56-11.31-4.69l-116.69-116.69-116.69,116.69c-3.12,3.12-7.22,4.69-11.31,4.69s-8.19-1.56-11.31-4.69c-6.25-6.25-6.25-16.38,0-22.63l116.69-116.69-116.69-116.69c-6.25-6.25-6.25-16.38,0-22.63,6.25-6.25,16.38-6.25,22.63,0l116.69,116.69,116.69-116.69c6.25-6.25,16.38-6.25,22.63,0,6.25,6.25,6.25,16.38,0,22.63l-116.69,116.69,116.69,116.69Z"/></svg>