<?xml version="1.0" encoding="UTF-8"?><svg id="Icon" xmlns="http://www.w3.org/2000/svg" viewBox="0 0 512 512"><path d="M399.82,64H112.18c-26.57,0-48.18,21.53-48.18,48v176c0,26.47,21.61,48,48.18,48h127.82v37.37l-31.31,31.31c-6.25,6.25-6.25,16.38,0,22.63,3.12,3.12,7.22,4.69,11.31,4.69s8.19-1.56,11.31-4.69l24.69-24.69,24.69,24.69c3.12,3.12,7.22,4.69,11.31,4.69s8.19-1.56,11.31-4.69c6.25-6.25,6.25-16.38,0-22.63l-31.31-31.31v-37.37h127.82c26.57,0,48.18-21.53,48.18-48V112c0-26.47-21.61-48-48.18-48ZM416,288c0,8.82-7.26,16-16.18,16H112.18c-8.92,0-16.18-7.18-16.18-16V112c0-8.82,7.26-16,16.18-16h287.63c8.92,0,16.18,7.18,16.18,16v176Z"/></svg>