<?xml version="1.0" encoding="UTF-8"?><svg id="Icon" xmlns="http://www.w3.org/2000/svg" viewBox="0 0 512 512"><path d="M208,183.6c8.84,0,16-7.16,16-16,0-4.34,2.32-7.6,5.4-7.6h52.73c2.89,0,5.87,2.84,5.87,7.6,0,8.84,7.16,16,16,16s16-7.16,16-16c0-21.84-16.99-39.6-37.87-39.6h-52.73c-20.97,0-37.4,17.4-37.4,39.6,0,8.84,7.16,16,16,16Z"/><circle cx="256" cy="80" r="32"/><circle cx="128" cy="112" r="32"/><circle cx="384" cy="112" r="32"/><path d="M80,224c8.84,0,16-7.16,16-16v-7.03c0-4.94,4.02-8.97,8.97-8.97h55.03c8.84,0,16-7.16,16-16s-7.16-16-16-16h-55.03c-22.59,0-40.97,18.38-40.97,40.97v7.03c0,8.84,7.16,16,16,16Z"/><path d="M352,192h55.03c4.94,0,8.97,4.02,8.97,8.97v23.03c0,8.84,7.16,16,16,16s16-7.16,16-16v-23.03c0-22.59-18.38-40.97-40.97-40.97h-55.03c-8.84,0-16,7.16-16,16s7.16,16,16,16Z"/><path d="M479.85,338.32c-3.54-38.24-11.05-50.42-16.4-56.25-9.7-10.58-27.82-17.39-56.53-27.36-14.07-4.88-30.02-10.42-36.75-14.91-4.85-3.24-9.65-7.19-14.73-11.38-18.72-15.44-42.01-34.67-88.73-34.98-74-.51-80.18-.27-103.99,11.39-13.3,6.51-26.2,15.58-37.59,23.58-8.37,5.88-16.27,11.44-21.38,13.8-4.43,2.05-11.92,3.12-19.16,4.16-13.35,1.91-27.16,3.88-36.47,13.19-15.07,15.07-16.99,53.07-15.94,82.29.07,2.06.31,4.17.74,6.65,2.15,12.25,9.68,21.36,21.22,25.66,7.85,2.93,15.57,2.93,20.18,2.93h.34c7.25,22.54,28.4,38.9,53.32,38.9s46.07-16.36,53.32-38.9h133.36c7.25,22.54,28.4,38.9,53.32,38.9s46.07-16.36,53.32-38.9h23.15c9.97,0,19.54-4.23,26.26-11.59,6.71-7.36,10.03-17.27,9.12-27.19ZM128,384c-13.23,0-24-10.77-24-24s10.77-24,24-24,24,10.77,24,24-10.77,24-24,24ZM368,384c-13.23,0-24-10.77-24-24s10.77-24,24-24,24,10.77,24,24-10.77,24-24,24ZM447.08,343.95c-.48.53-1.32,1.15-2.61,1.15h-22.5c-6.54-23.67-28.25-41.1-53.97-41.1s-47.43,17.43-53.97,41.1h-132.06c-6.54-23.67-28.25-41.1-53.97-41.1s-47.43,17.43-53.97,41.1c-5.07-.02-8.21-.41-9.33-1.19-.05-.13-.15-.41-.24-.92-.17-.98-.27-1.73-.28-2.27-1.08-30.11,2.59-53.79,6.56-58.49,2.47-1.9,12.43-3.32,18.4-4.18,9.53-1.36,19.38-2.77,28.07-6.79,7.72-3.57,16.35-9.64,26.35-16.67,10.42-7.32,22.22-15.62,33.25-21.02,16.96-8.3,17.62-8.63,89.71-8.13,35.35.24,51.49,13.56,68.58,27.67,5.47,4.52,11.13,9.19,17.35,13.33,10.13,6.75,26.58,12.46,44,18.51,14.4,5,38.49,13.36,43.39,18.71.05.06,5.3,6.71,8.16,37.61.12,1.27-.42,2.16-.9,2.68Z"/></svg>