<?xml version="1.0" encoding="UTF-8"?><svg id="Icon" xmlns="http://www.w3.org/2000/svg" viewBox="0 0 512 512"><path d="M297.1,229.01l-27.58-21.21c-5.43-4.17-12.91-4.43-18.61-.64l-55.76,37.05c-3.44-1.51-6.35-2.97-8.4-4.34-4.85-3.24-9.65-7.19-14.73-11.38-18.72-15.44-42.01-34.67-88.73-34.99-15.61-.11-27.17-.15-35.33-.14-8.84.02-15.99,7.19-15.97,16.03.02,8.83,7.18,15.97,16,15.97h.03c8.06-.02,19.53.03,35.05.14,35.34.24,51.49,13.56,68.58,27.67,5.47,4.52,11.13,9.19,17.35,13.33,10.13,6.75,26.58,12.46,44.01,18.51,14.4,5,38.49,13.36,43.39,18.71.05.06,5.3,6.71,8.16,37.61.12,1.27-.42,2.16-.9,2.68-.48.53-1.32,1.15-2.61,1.15h-22.5c-6.54-23.67-28.25-41.1-53.97-41.1s-48.64,18.42-54.48,43.1H48c-8.84,0-16,7.16-16,16s7.16,16,16,16h83.94c7.83,21.5,28.47,36.9,52.64,36.9s46.07-16.36,53.32-38.9h23.15c9.97,0,19.54-4.23,26.26-11.59,6.71-7.36,10.03-17.27,9.12-27.19-3.54-38.24-11.05-50.42-16.4-56.25-8.65-9.44-24.03-15.89-47.64-24.24l26.69-17.74,18.5,14.23c7,5.39,17.05,4.08,22.44-2.93,5.39-7,4.08-17.05-2.93-22.44ZM184.58,384.05c-13.23,0-24-10.77-24-24s10.77-24,24-24,24,10.77,24,24-10.77,24-24,24Z"/><path d="M423.25,66.65c-4.95-2.44-10.81-2.15-15.5.76-4.71,2.92-7.57,8.06-7.57,13.6v57h-16v-57c0-5.13-2.46-9.96-6.62-12.96-4.16-3.01-9.51-3.84-14.39-2.23l-1.06.35c-.16.05-.32.11-.48.17-34.57,12.63-57.8,45.86-57.8,82.68,0,33.51,19.02,63.79,48.36,78.59v116.41c0,22.06,17.94,40,40,40s40-17.94,40-40v-116.45c29.12-14.76,48-45.01,48-78.55,0-36.51-22.84-69.49-56.93-82.35ZM410.93,201.89c-6.43,2.24-10.75,8.3-10.75,15.11v127c0,4.41-3.59,8-8,8s-8-3.59-8-8v-127c0-7.3-4.89-13.46-11.58-15.38-22.03-8.05-36.78-29.08-36.78-52.62,0-15.09,6.13-29.22,16.36-39.53v32.53c0,15.44,12.56,28,28,28h24c15.44,0,28-12.56,28-28v-32.16c10.02,10.27,16,24.25,16,39.16,0,23.89-14.97,45.14-37.25,52.89Z"/></svg>