<?xml version="1.0" encoding="UTF-8"?><svg id="Icon" xmlns="http://www.w3.org/2000/svg" viewBox="0 0 512 512"><path d="M399.71,299.1c-19.17,0-34.71,15.26-34.71,34.79h-9.71v34.55h44.43c19.17,0,34.71-15.52,34.71-34.7s-15.54-34.64-34.71-34.64ZM399.71,349.93c-8.93,0-16.18-7.24-16.18-16.18s7.24-16.18,16.18-16.18,16.18,7.24,16.18,16.18-7.24,16.18-16.18,16.18Z"/><path d="M394.73,154.84v-9.71h-34.55v44.42c0,19.17,15.52,34.71,34.7,34.71s34.64-15.54,34.64-34.71-15.26-34.71-34.79-34.71ZM394.87,205.73c-8.93,0-16.18-7.24-16.18-16.18s7.24-16.18,16.18-16.18,16.18,7.24,16.18,16.18-7.24,16.18-16.18,16.18Z"/><path d="M435.54,89.72c3.31-2.93,5.4-7.2,5.4-11.96,0-8.84-7.16-16-16-16h-81.77c-8.84,0-16,7.16-16,16,0,4.56,1.91,8.66,4.97,11.57H82.67c-27.94,0-50.67,22.73-50.67,50.67v235.73c0,27.94,22.73,50.67,50.67,50.67h346.67c27.94,0,50.67-22.73,50.67-50.67v-235.73c0-25.83-19.44-47.2-44.46-50.27ZM448,139.99v101.87h-112.04v-120.53h93.37c10.29,0,18.67,8.37,18.67,18.67ZM160.68,364.8l-91.58-106.92,91.58-106.3v213.22ZM192.68,273.86h111.29v120.53h-111.29v-120.53ZM192.68,241.86v-120.53h111.29v120.53h-111.29ZM82.67,121.32h61.84l-80.51,93.45v-74.78c0-10.29,8.37-18.67,18.67-18.67ZM64,375.72v-74.59l79.88,93.26h-61.22c-10.29,0-18.67-8.37-18.67-18.67ZM429.33,394.39h-93.37v-120.53h112.04v101.87c0,10.29-8.37,18.67-18.67,18.67Z"/></svg>