<?xml version="1.0" encoding="UTF-8"?><svg id="Icon" xmlns="http://www.w3.org/2000/svg" viewBox="0 0 512 512"><path d="M243.48,354.97c3.04,3.81,7.64,6.03,12.51,6.03h0c4.87,0,9.48-2.22,12.51-6.03,1.89-2.37,46.27-58.38,60.14-103.47,2.55-7.26,3.99-14.87,4.28-22.63.05-.95.07-1.92.07-2.91,0-42.44-34.54-76.96-77-76.96s-77,34.53-77,76.96c0,.9.02,1.84.07,2.87.29,7.78,1.73,15.4,4.28,22.66,13.87,45.09,58.25,101.11,60.13,103.47ZM256,181c24.81,0,45,20.17,45,44.96,0,.44,0,.89-.03,1.34,0,.1-.01.2-.01.3-.16,4.64-1.03,9.18-2.57,13.48-.09.24-.17.49-.24.73-7.82,25.67-28.58,57.37-42.15,76.4-13.57-19.03-34.33-50.73-42.14-76.4-.07-.24-.15-.49-.24-.73-1.54-4.3-2.4-8.84-2.57-13.49,0-.07,0-.13,0-.2-.02-.48-.04-.96-.04-1.43,0-24.79,20.19-44.96,45-44.96Z"/><path d="M256,247.18c11.4,0,20.64-9.24,20.64-20.64s-9.24-20.64-20.64-20.64-20.64,9.24-20.64,20.64,9.24,20.64,20.64,20.64Z"/><path d="M447.98,111.41c0-8.84-7.16-16-16-16s-16,7.16-16,16v34.45c-35.17-52.96-94.75-85.67-159.98-85.67-45.83,0-90.21,16.41-124.96,46.2-34.37,29.47-57.3,70.17-64.59,114.62-1.43,8.72,4.48,16.95,13.2,18.38.88.14,1.75.21,2.61.21,7.7,0,14.48-5.57,15.77-13.42,6.06-37.02,25.18-70.93,53.83-95.5,28.96-24.82,65.94-38.5,104.14-38.5,56.01,0,107.01,28.95,135.93,75.46h-32.19c-8.84,0-16,7.16-16,16s7.16,16,16,16h55.98c1.69.28,3.43.29,5.16,0h11.1c8.84,0,16-7.16,16-16v-72.24Z"/><path d="M445.52,290.99c1.43-8.72-4.48-16.95-13.2-18.38-8.71-1.41-16.95,4.48-18.38,13.2-6.06,37.02-25.18,70.93-53.83,95.5-28.96,24.82-65.94,38.5-104.14,38.5-56.01,0-107.01-28.95-135.93-75.46h32.19c8.84,0,16-7.16,16-16s-7.16-16-16-16h-55.99c-1.68-.28-3.41-.28-5.14,0h-11.11c-8.84,0-16,7.16-16,16v72.24c0,8.84,7.16,16,16,16s16-7.16,16-16v-34.45c35.17,52.96,94.75,85.67,159.98,85.67,45.83,0,90.21-16.41,124.96-46.2,34.37-29.47,57.3-70.17,64.59-114.62Z"/></svg>