<?xml version="1.0" encoding="UTF-8"?><svg id="Icon" xmlns="http://www.w3.org/2000/svg" viewBox="0 0 512 512"><path d="M280.01,353.15h-10.34l9.69-15.4c4.71-7.48,2.46-17.36-5.02-22.06-7.48-4.71-17.36-2.46-22.06,5.02l-25.12,39.92c-3.1,4.93-3.28,11.16-.46,16.26,2.82,5.1,8.18,8.27,14.01,8.27h9.11l-10.9,16.06c-4.96,7.31-3.06,17.26,4.25,22.22,2.75,1.87,5.88,2.76,8.97,2.76,5.12,0,10.16-2.46,13.25-7.01l27.87-41.04c3.33-4.9,3.67-11.24.9-16.48-2.77-5.24-8.21-8.51-14.14-8.51Z"/><rect x="217.62" y="233.95" width="85.48" height="47.49" rx="9.24" ry="9.24"/><path d="M465.42,271.92c0-1.07-.02-2.14-.02-3.2,0-5.97-2.17-11.4-6.1-15.27-2.7-2.67-6.13-4.49-9.94-5.33v-12.76c0-8.84-7.16-16-16-16s-16,7.16-16,16v12.21h-3.93v-11.64c0-8.84-7.16-16-16-16s-16,7.16-16,16v12.09c-10.1,1.92-16.66,9.88-16.77,20.96-.06,5.74,0,10.15.17,14.32.46,11.12,4.4,21.18,11.74,29.91,6.03,7.18,13.44,12.23,22.47,15.3v45.54h-44.48v-168.4c0-14.56-11.85-26.41-26.41-26.41h-137.91c-14.56,0-26.41,11.85-26.41,26.41v241.58h-7.4c-8.84,0-16,7.16-16,16s7.16,16,16,16h205.53c8.84,0,16-7.16,16-16s-7.16-16-16-16h-7.4v-41.18h60.48c8.84,0,16-7.16,16-16v-61.6c19.25-6.79,32.99-24.62,34.21-45.3.23-3.91.2-7.62.17-11.21ZM195.83,447.23v-235.99h126.73v235.99h-126.73ZM433.31,281.26c-.5,8.56-6.76,15.82-15.23,17.66-.36.08-.72.16-1.14.27l-4.14-.05c-5.29-1.1-8.84-3.09-11.72-6.51-2.75-3.27-4.1-6.65-4.26-10.63-.03-.79-.06-1.59-.08-2.42h36.66c-.02.57-.04,1.13-.08,1.69Z"/><path d="M150.32,315.22c0-8.84-7.16-16-16-16h-16.74V63.23h126.74v91.47c0,8.84,7.16,16,16,16s16-7.16,16-16V57.64c0-14.56-11.85-26.41-26.41-26.41H112c-14.56,0-26.41,11.85-26.41,26.41v241.58h-4.67c-8.84,0-16,7.16-16,16s7.16,16,16,16h53.41c8.84,0,16-7.16,16-16Z"/><rect x="138.21" y="85.95" width="85.48" height="47.49" rx="9.24" ry="9.24"/><path d="M297.16,153.65c8,9.52,18.41,15.3,31.83,17.67l1.28.23,11.13.15,3.41-.88c.28-.07.49-.13.67-.17,22.43-4.87,39.03-24.22,40.37-47.05.23-3.91.2-7.63.17-11.23,0-1.06-.02-2.13-.02-3.19,0-5.97-2.17-11.39-6.1-15.27-2.7-2.67-6.13-4.46-9.94-5.31v-12.78c0-8.84-7.16-16-16-16s-16,7.16-16,16v12.21h-3.93v-11.64c0-8.84-7.16-16-16-16s-16,7.16-16,16v12.09c-10.1,1.92-16.66,9.88-16.77,20.96-.06,5.72,0,10.14.16,14.32.46,11.12,4.4,21.18,11.74,29.91ZM353.9,121.7c-.5,8.56-6.76,15.83-15.22,17.66-.36.08-.73.17-1.15.27l-4.14-.05c-5.29-1.1-8.84-3.09-11.72-6.51-2.74-3.27-4.1-6.65-4.26-10.63-.03-.79-.06-1.59-.08-2.42h36.66c-.02.57-.04,1.13-.08,1.69Z"/></svg>