<?xml version="1.0" encoding="UTF-8"?><svg id="Icon" xmlns="http://www.w3.org/2000/svg" viewBox="0 0 512 512"><path d="M443.31,420.69l-208.57-208.57h35.53c8.84,0,16-7.16,16-16v-67.77c0-8.84-7.16-16-16-16h-121.99c-3.73,0-7.16,1.29-9.88,3.43l-38.2-38.2c-1.09-1.46-1.91-3.05-2.44-4.72-.38.38-.75.77-1.11,1.17l-5.34-5.34c-6.25-6.25-16.38-6.25-22.63,0-6.25,6.25-6.25,16.38,0,22.63l20.34,20.34v304.52h-11.15c-8.84,0-16,7.16-16,16s7.16,16,16,16h269.95c8.84,0,16-7.16,16-16s-7.16-16-16-16h-18.31v-64.03l91.16,91.16c3.12,3.12,7.22,4.69,11.31,4.69s8.19-1.56,11.31-4.69c6.25-6.25,6.25-16.38,0-22.63ZM254.27,144.34v35.77h-51.53l-35.77-35.77h87.3ZM297.52,416.18H121.03V143.66l11.25,11.25v41.2c0,8.84,7.16,16,16,16h41.2l28.11,28.11c-5.7-.4-11.42,2.27-14.68,7.44l-33,52.44c-3.1,4.93-3.28,11.16-.46,16.26,2.82,5.1,8.18,8.27,14.01,8.27h21.43l-19.64,28.92c-4.96,7.31-3.06,17.26,4.25,22.22,2.75,1.87,5.88,2.76,8.97,2.76,5.12,0,10.16-2.46,13.25-7.01l36.6-53.91c3.33-4.9,3.67-11.24.9-16.48-2.77-5.24-8.21-8.51-14.14-8.51h-22.66l17.57-27.92c1.89-3,2.64-6.39,2.4-9.67l65.12,65.12v96.03Z"/><path d="M473.6,180.95c-.01-1.41-.02-2.82-.03-4.23-.01-8.32-3.55-13.56-6.52-16.49-2.91-2.87-8.04-6.26-16.06-6.27v-21.05c0-8.84-7.16-16-16-16s-16,7.16-16,16v21.05h-13.67v-20.31c0-8.84-7.16-16-16-16s-16,7.16-16,16v20.37c-13.28.59-21.9,9.53-22.03,23.1-.07,7.44,0,13.17.21,18.55.55,13.47,5.34,25.67,14.24,36.26,8.05,9.58,18.14,16.03,30.7,19.62v84.53c0,8.84,7.16,16,16,16s16-7.16,16-16v-84.58c25.15-7.3,43.39-29.81,44.94-56.13.29-4.97.25-9.76.21-14.4ZM441.45,193.47c-.79,13.48-10.64,24.92-23.93,27.8-.6.13-1.19.28-1.98.48l-6.58-.09c-8.3-1.65-14.11-4.87-18.7-10.34-4.36-5.18-6.51-10.58-6.77-16.99-.11-2.61-.17-5.34-.2-8.4h58.35c0,2.59-.04,5.09-.18,7.52Z"/><path d="M314,256c-8.84,0-16-7.16-16-16V96h-138c-8.84,0-16-7.16-16-16s7.16-16,16-16h140c16.26,0,30,13.74,30,30v146c0,8.84-7.16,16-16,16ZM300,96h0,0Z"/></svg>