<?xml version="1.0" encoding="UTF-8"?><svg id="Icon" xmlns="http://www.w3.org/2000/svg" viewBox="0 0 512 512"><path d="M235.09,292.62h-22.66l17.57-27.92c4.71-7.48,2.46-17.36-5.02-22.06-7.48-4.71-17.36-2.46-22.06,5.02l-33,52.44c-3.1,4.93-3.28,11.16-.46,16.26,2.82,5.1,8.18,8.27,14.01,8.27h21.43l-19.64,28.92c-4.96,7.31-3.06,17.26,4.25,22.22,2.75,1.87,5.88,2.76,8.97,2.76,5.12,0,10.16-2.46,13.25-7.01l36.6-53.91c3.33-4.9,3.67-11.24.9-16.48-2.77-5.24-8.21-8.51-14.14-8.51Z"/><path d="M270.27,112.34h-121.99c-8.84,0-16,7.16-16,16v67.77c0,8.84,7.16,16,16,16h121.99c8.84,0,16-7.16,16-16v-67.77c0-8.84-7.16-16-16-16ZM254.27,180.11h-89.99v-35.77h89.99v35.77Z"/><path d="M473.6,180.95c-.01-1.41-.02-2.82-.03-4.23-.01-8.32-3.55-13.56-6.52-16.49-2.91-2.87-8.04-6.26-16.06-6.27v-21.05c0-8.84-7.16-16-16-16s-16,7.16-16,16v21.05h-13.67v-20.31c0-8.84-7.16-16-16-16s-16,7.16-16,16v20.37c-13.28.59-21.9,9.53-22.03,23.1-.07,7.44,0,13.17.21,18.55.55,13.47,5.34,25.67,14.24,36.26,8.05,9.58,18.14,16.03,30.7,19.62v68.53h-66.93V93.86c0-16.36-13.31-29.68-29.68-29.68H118.71c-16.36,0-29.68,13.31-29.68,29.68v322.32h-11.15c-8.84,0-16,7.16-16,16s7.16,16,16,16h269.95c8.84,0,16-7.16,16-16s-7.16-16-16-16h-18.31v-64.12h82.93c8.84,0,16-7.16,16-16v-84.58c25.15-7.3,43.39-29.81,44.94-56.13.29-4.97.25-9.76.21-14.4ZM121.03,416.18V96.18h176.49v320H121.03ZM441.45,193.47c-.79,13.48-10.64,24.92-23.93,27.8-.6.13-1.19.28-1.98.48l-6.58-.09c-8.3-1.65-14.11-4.87-18.7-10.34-4.36-5.18-6.51-10.58-6.77-16.99-.11-2.61-.17-5.34-.2-8.4h58.35c0,2.59-.04,5.09-.18,7.52Z"/></svg>