<?xml version="1.0" encoding="UTF-8"?><svg id="Icon" xmlns="http://www.w3.org/2000/svg" viewBox="0 0 512 512"><path d="M80,401.33c-2.06,0-4.14-.4-6.12-1.22-5.98-2.48-9.88-8.31-9.88-14.78v-248.71c0-25.96,21.12-47.09,47.09-47.09h217.62c25.96,0,47.09,21.12,47.09,47.09v155.44c0,25.96-21.12,47.09-47.09,47.09h-179.9l-57.49,57.49c-3.06,3.06-7.15,4.69-11.32,4.69ZM111.09,121.54c-8.32,0-15.09,6.77-15.09,15.09v210.08l34.86-34.86c3-3,7.07-4.69,11.31-4.69h186.53c8.32,0,15.09-6.77,15.09-15.09v-155.44c0-8.32-6.77-15.09-15.09-15.09H111.09Z"/><path d="M432,446.46c-4.16,0-8.26-1.63-11.32-4.69l-57.49-57.49h-179.9c-8.84,0-16-7.16-16-16s7.16-16,16-16h186.53c4.24,0,8.31,1.69,11.31,4.69l34.86,34.86v-210.08c0-8.32-6.77-15.09-15.09-15.09-8.84,0-16-7.16-16-16s7.16-16,16-16c25.96,0,47.09,21.12,47.09,47.09v248.71c0,6.47-3.9,12.31-9.88,14.78-1.98.82-4.06,1.22-6.12,1.22Z"/><path d="M219.9,234.23c-12.12,0-21.97-9.86-21.97-21.97s9.86-21.97,21.97-21.97,21.97,9.86,21.97,21.97-9.86,21.97-21.97,21.97Z"/><path d="M288.05,233.78c-11.87,0-21.52-9.65-21.52-21.52s9.65-21.52,21.52-21.52,21.52,9.65,21.52,21.52-9.65,21.52-21.52,21.52Z"/><path d="M151.74,233.78c-11.87,0-21.52-9.65-21.52-21.52s9.65-21.52,21.52-21.52,21.52,9.65,21.52,21.52-9.65,21.52-21.52,21.52Z"/></svg>