<?xml version="1.0" encoding="UTF-8"?><svg id="Icon" xmlns="http://www.w3.org/2000/svg" viewBox="0 0 512 512"><path d="M391.7,96.46h-119.7v-21.64c4.38-4.21,7.11-10.12,7.11-16.67,0-12.76-10.35-23.11-23.11-23.11s-23.11,10.35-23.11,23.11c0,6.55,2.73,12.46,7.11,16.67v21.64h-119.7c-25.43,0-46.12,20.69-46.12,46.12v228.65c0,25.43,20.69,46.12,46.12,46.12h13.39v48.02c0,5.77,3.11,11.09,8.13,13.93,2.44,1.38,5.16,2.07,7.87,2.07,2.86,0,5.72-.77,8.25-2.29l102.5-61.73h131.26c25.43,0,46.12-20.69,46.12-46.12v-228.65c0-25.43-20.69-46.12-46.12-46.12ZM405.82,371.23c0,7.79-6.33,14.12-14.12,14.12h-135.7c-2.91,0-5.76.79-8.25,2.29l-82.06,49.42v-35.71c0-8.84-7.16-16-16-16h-29.39c-7.79,0-14.12-6.33-14.12-14.12v-228.65c0-7.79,6.33-14.12,14.12-14.12h271.4c7.79,0,14.12,6.33,14.12,14.12v228.65Z"/><path d="M323.52,290.4c-19.74,18.88-47.82,25.61-67.52,25.61-18.59,0-49.85-9.95-67.96-26.01-6.61-5.87-16.72-5.26-22.59,1.35-5.87,6.61-5.26,16.72,1.35,22.59,21.89,19.43,60.24,34.08,89.2,34.08,33.55,0,67.06-12.89,89.64-34.48,6.39-6.11,6.61-16.24.5-22.62-6.11-6.39-16.23-6.61-22.62-.5Z"/><path d="M48,180.81c-8.84,0-16,7.16-16,16v73.96c0,8.84,7.16,16,16,16s16-7.16,16-16v-73.96c0-8.84-7.16-16-16-16Z"/><path d="M464,180.81c-8.84,0-16,7.16-16,16v73.96c0,8.84,7.16,16,16,16s16-7.16,16-16v-73.96c0-8.84-7.16-16-16-16Z"/><circle cx="177.42" cy="210.68" r="23.11" transform="translate(-36.64 37.35) rotate(-10.9)"/><circle cx="334.58" cy="210.68" r="23.11"/></svg>