<?xml version="1.0" encoding="UTF-8"?><svg id="Icon" xmlns="http://www.w3.org/2000/svg" viewBox="0 0 512 512"><path d="M256,464c-114.69,0-208-93.31-208-208S141.31,48,256,48s208,93.31,208,208-93.31,208-208,208ZM256,80c-97.05,0-176,78.95-176,176s78.95,176,176,176,176-78.95,176-176-78.95-176-176-176Z"/><path d="M213.14,350.57c-4.09,0-8.19-1.56-11.31-4.69l-71.43-71.43c-6.25-6.25-6.25-16.38,0-22.63,6.25-6.25,16.38-6.25,22.63,0l60.12,60.12,145.83-145.83c6.25-6.25,16.38-6.25,22.63,0,6.25,6.25,6.25,16.38,0,22.63l-157.14,157.14c-3.12,3.12-7.22,4.69-11.31,4.69Z"/><path d="M213.14,350.57c-4.09,0-8.19-1.56-11.31-4.69l-71.43-71.43c-6.25-6.25-6.25-16.38,0-22.63,6.25-6.25,16.38-6.25,22.63,0l60.12,60.12,145.83-145.83c6.25-6.25,16.38-6.25,22.63,0,6.25,6.25,6.25,16.38,0,22.63l-157.14,157.14c-3.12,3.12-7.22,4.69-11.31,4.69Z"/></svg>