<?xml version="1.0" encoding="UTF-8"?><svg id="Icon" xmlns="http://www.w3.org/2000/svg" viewBox="0 0 512 512"><path d="M392.89,64H119.11c-30.39,0-55.11,24.72-55.11,55.11v273.78c0,30.39,24.72,55.11,55.11,55.11h273.78c30.39,0,55.11-24.72,55.11-55.11V119.11c0-30.39-24.72-55.11-55.11-55.11ZM366.6,199.06l-136.51,136.51c-3,3-7.07,4.69-11.31,4.69s-8.31-1.69-11.31-4.69l-62.05-62.05c-6.25-6.25-6.25-16.38,0-22.63,6.25-6.25,16.38-6.25,22.63,0l50.74,50.74,125.2-125.2c6.25-6.25,16.38-6.25,22.63,0,6.25,6.25,6.25,16.38,0,22.63Z"/></svg>