<?xml version="1.0" encoding="UTF-8"?><svg id="Icon" xmlns="http://www.w3.org/2000/svg" viewBox="0 0 512 512"><path d="M464,360h-16.38c-2.76-22.54-20.85-40-42.7-40h-4.92v-32.18c26.82-2.15,48-25.16,48-53.15v-2.67h16c8.84,0,16-7.16,16-16s-7.16-16-16-16h-16v-2.67c0-29.41-23.37-53.33-52.1-53.33h-27.9v-56c0-8.84-7.16-16-16-16h-64v-7.74c0-8.68-6.92-15.78-15.6-16-.87-.02-21.72-.52-68.92-.27-23.55.13-37.19,9.95-44.5,18.17-16.49,18.56-15.43,43.99-14.91,50.03v27.8h-27.96c-28.73,0-52.1,23.92-52.1,53.33v2.67h-16c-8.84,0-16,7.16-16,16s7.16,16,16,16h16v2.67c0,27.99,21.18,51,48,53.15v32.18h-4.92c-21.85,0-39.94,17.46-42.7,40h-16.38c-8.84,0-16,7.16-16,16s7.16,16,16,16h16.38c2.76,22.54,20.85,40,42.7,40h4.92c-8.84,0-16,7.16-16,16s7.16,16,16,16h32c8.84,0,16-7.16,16-16s-7.16-16-16-16h224c-8.84,0-16,7.16-16,16s7.16,16,16,16h32c8.84,0,16-7.16,16-16s-7.16-16-16-16h4.92c21.85,0,39.94-17.46,42.7-40h16.38c8.84,0,16-7.16,16-16s-7.16-16-16-16ZM224,208c-8.84,0-16,7.16-16,16v32h-64v-80h224v80h-16v-32c0-8.84-7.16-16-16-16h-112ZM320,240v112h-80v-112h80ZM352,288h16v32h-16v-32ZM416,197.33v37.33c0,10.27-6.88,18.87-16,20.88v-79.1c9.12,2.02,16,10.61,16,20.88ZM336,104v40h-112.28v-15.78h48.28c8.84,0,16-7.16,16-16v-8.22h48ZM175.97,113.67c-.46-4.72-.08-18.45,7.02-26.34,4.39-4.88,11.15-7.28,20.66-7.33,24-.13,41.24-.06,52.35.04v16.18h-48.28c-8.84,0-16,7.16-16,16v31.78h-15.65v-28.57c0-.66-.02-1.12-.1-1.76ZM96,234.67v-37.33c0-10.27,6.88-18.87,16-20.88v79.1c-9.12-2.02-16-10.61-16-20.88ZM144,288h64v32h-64v-32ZM107.08,400c-6,0-11.08-6.41-11.08-14v-20c0-7.59,5.07-14,11.08-14h4.92v48h-4.92ZM144,400v-48h64v16c0,8.84,7.16,16,16,16h112c8.84,0,16-7.16,16-16v-16h16v48h-224ZM416,386c0,7.59-5.07,14-11.08,14h-4.92v-48h4.92c6,0,11.08,6.41,11.08,14v20Z"/></svg>