<?xml version="1.0" encoding="UTF-8"?><svg id="Icon" xmlns="http://www.w3.org/2000/svg" viewBox="0 0 512 512"><path d="M435.35,360.18c-7.58-4.54-17.41-2.07-21.94,5.52-1.11,1.86-2.45,3.72-3.99,5.57l-37.25-161.84c27.73-2.19,47.94-11.18,60.23-26.85,14.53-18.52,13.34-41.67,10.34-52.43-1.55-5.57-5.99-9.88-11.61-11.25l-63.13-15.46v-19.45c0-.68-.06-1.34-.14-2,.08-.66.14-1.32.14-2,0-8.84-7.16-16-16-16-17.71,0-33.43,6.7-45.45,19.37-14.27,15.05-23.54,38.29-27.55,69.09-1.14,8.76-1.68,16.88-1.91,23.5-26.62-.06-79.72-.14-107.05.04-.49,0-.97.04-1.45.08-16.29.05-24.08.09-25.63.14-13.99.5-22.75,5.7-27.63,9.97-5.75,5.03-8.02,10.25-8.73,12.26-.02.05-.03.1-.05.14l-22.91,66.92-19.52,15.73c-6.88,5.54-7.97,15.62-2.42,22.5,3.16,3.92,7.79,5.96,12.47,5.96,3.52,0,7.07-1.16,10.03-3.54l23.12-18.63c2.35-1.9,4.12-4.42,5.1-7.28l23.94-69.94c.63-.56,2.67-1.93,7.71-2.11.36-.01,1.27-.02,2.58-.03l-44.11,156.96c-.63-1.1-1.2-2.21-1.69-3.32-3.53-8.1-12.96-11.8-21.06-8.27-8.1,3.53-11.8,12.96-8.27,21.06,9.85,22.58,33.77,41.77,69.19,55.49,33.6,13.01,74.2,19.89,117.42,19.89,85.03,0,158.46-27.27,182.73-67.86,4.54-7.58,2.06-17.41-5.52-21.94ZM276.36,207.96c-1.28,15.35-3.96,22.19-5.4,24.85-7.9.1-37.5.44-52.45.14-2.02-4.88-4.1-14.46-5.54-25.05,23.07,0,47.64.03,63.39.07ZM129.03,389.16l50.9-181.11c.28,0,.57,0,.84,0,.55,4.67,1.3,10.06,2.31,15.5,2.04,11,7.45,40.24,28.98,41.22,4.99.23,13.62.3,22.86.3,15.4,0,32.49-.21,37.24-.27,4.04.41,10.54-.05,17.27-5.1,12.96-9.73,19.22-31.03,19.63-66.88,0,0,0-.01,0-.02.01-1.23.02-2.48.02-3.75,0-.72-.06-1.42-.16-2.12-.33-19.64,2.76-62.49,20.88-81.56,1.95-2.05,4.01-3.75,6.2-5.12v15.75c0,7.37,5.04,13.79,12.19,15.54l64.37,15.76c-.21,4.76-1.46,10.69-5.51,15.74-8.47,10.55-27.28,15.68-54.38,14.83-4.94-.15-9.71,2-12.86,5.83-3.15,3.83-4.34,8.91-3.23,13.75l44.86,194.92c-4.84,2.54-10.12,4.97-15.82,7.24-3.02-60.27-50.54-108.33-108.52-108.33s-105.07,47.63-108.47,107.52c-7.19-2.96-13.76-6.2-19.6-9.64ZM180.49,409.02c-.04-1.11-.06-2.22-.06-3.33,0-45.45,34.4-82.42,76.67-82.42s76.67,36.97,76.67,82.42c0,1.3-.04,2.6-.09,3.9-21.86,5.22-47.31,8.38-75.54,8.38s-53.94-3.13-77.65-8.96Z"/></svg>