<?xml version="1.0" encoding="UTF-8"?><svg id="Icon" xmlns="http://www.w3.org/2000/svg" viewBox="0 0 512 512"><path d="M453.49,255.71l-4.95,4.95-29.7-29.7,4.95-4.95c6.25-6.25,6.25-16.38,0-22.63-6.25-6.25-16.38-6.25-22.63,0l-197.28,197.28c-6.25,6.25-6.25,16.38,0,22.63,3.12,3.12,7.22,4.69,11.31,4.69s8.19-1.56,11.31-4.69l5.66-5.66,29.7,29.7-5.66,5.66c-6.25,6.25-6.25,16.38,0,22.63,3.12,3.12,7.22,4.69,11.31,4.69s8.19-1.56,11.31-4.69l197.28-197.28c6.25-6.25,6.25-16.38,0-22.63-6.25-6.25-16.38-6.25-22.63,0ZM425.91,283.29l-18.39,18.39-29.7-29.7,18.38-18.38,29.7,29.7ZM366.52,342.68l-29.7-29.7,18.39-18.39,29.7,29.7-18.39,18.39ZM325.5,383.69l-29.7-29.7,18.38-18.38,29.7,29.7-18.39,18.39ZM254.79,395.01l18.39-18.39,29.7,29.7-18.39,18.39-29.7-29.7Z"/><path d="M309.38,192c0,31.22-25.4,56.62-56.62,56.62s-56.62-25.4-56.62-56.62c0-8.84-7.16-16-16-16s-16,7.16-16,16c0,48.86,39.75,88.62,88.62,88.62s88.62-39.75,88.62-88.62c0-8.84-7.16-16-16-16s-16,7.16-16,16Z"/><path d="M156.33,160h192.88c8.84,0,16-7.16,16-16s-7.16-16-16-16h-22.71v-52c0-15.44-12.56-28-28-28h-85c-15.44,0-28,12.56-28,28v52h-29.17c-8.84,0-16,7.16-16,16s7.16,16,16,16ZM217.5,80h77v48h-77v-48Z"/><path d="M207.28,330.4c-2.26-8.54-11.01-13.64-19.56-11.38-60.95,16.1-106.76,46.77-108.69,48.06-7.32,4.94-9.24,14.88-4.3,22.2,3.09,4.58,8.14,7.05,13.28,7.05,3.08,0,6.18-.88,8.93-2.73.43-.29,43.46-28.99,98.95-43.65,8.54-2.26,13.64-11.01,11.38-19.56Z"/></svg>