<?xml version="1.0" encoding="UTF-8"?><svg id="Icon" xmlns="http://www.w3.org/2000/svg" viewBox="0 0 512 512"><path d="M336,160h-160c-8.84,0-16,7.16-16,16v160c0,8.84,7.16,16,16,16h160c8.84,0,16-7.16,16-16v-160c0-8.84-7.16-16-16-16ZM320,320h-128v-128h128v128Z"/><path d="M448,272c8.84,0,16-7.16,16-16s-7.16-16-16-16h-47.36v-48h47.36c8.84,0,16-7.16,16-16s-7.16-16-16-16h-47.36v-.31c0-26.47-21.53-48-48-48h-.64v-47.69c0-8.84-7.16-16-16-16s-16,7.16-16,16v47.69h-48v-45.69c0-8.84-7.16-16-16-16s-16,7.16-16,16v45.69h-48v-47.69c0-8.84-7.16-16-16-16s-16,7.16-16,16v47.71c-26.17.35-47.36,21.73-47.36,47.98v.31h-48.64c-8.84,0-16,7.16-16,16s7.16,16,16,16h48.64v48h-46.64c-8.84,0-16,7.16-16,16s7.16,16,16,16h46.64v48h-48.64c-8.84,0-16,7.16-16,16s7.16,16,16,16h48.65c.17,26.11,21.28,47.33,47.35,47.67v48.33c0,8.84,7.16,16,16,16s16-7.16,16-16v-48.31h48v48.31c0,8.84,7.16,16,16,16s16-7.16,16-16v-48.31h48v48.31c0,8.84,7.16,16,16,16s16-7.16,16-16v-48.31h.64c26.36,0,47.82-21.37,47.99-47.69h47.36c8.84,0,16-7.16,16-16s-7.16-16-16-16h-47.36v-48h47.36ZM368.64,351.69c0,8.82-7.18,16-16,16h-192c-8.82,0-16-7.18-16-16v-192c0-8.82,7.18-16,16-16h192c8.82,0,16,7.18,16,16v192Z"/></svg>