<?xml version="1.0" encoding="UTF-8"?><svg id="Icon" xmlns="http://www.w3.org/2000/svg" viewBox="0 0 512 512"><path d="M432,416h-55.21L222.7,57.68c-3.49-8.12-12.9-11.87-21.02-8.38-8.12,3.49-11.87,12.9-8.38,21.02l52.25,121.5H80.11c-4.44,0-8.68,1.84-11.71,5.09-3.03,3.25-4.57,7.61-4.25,12.04l15.89,224.18c.59,8.38,7.56,14.87,15.96,14.87h144c8.29,0,15.21-6.33,15.94-14.59l16-180.25,70.03,162.84h-37.96c-8.84,0-16,7.16-16,16s7.16,16,16,16h128c8.84,0,16-7.16,16-16s-7.16-16-16-16ZM242.03,228.15c-8.13,30.7-36.15,53.39-69.37,53.39s-63.83-24.85-70.37-57.72h140.12l-.38,4.33ZM110.91,416l-9.26-130.64c18.58,17.47,43.57,28.18,71.02,28.18,24.01,0,46.14-8.2,63.74-21.94l-11.04,124.4h-114.45Z"/></svg>