<?xml version="1.0" encoding="UTF-8"?><svg id="Icon" xmlns="http://www.w3.org/2000/svg" viewBox="0 0 512 512"><path d="M256,480c-59.83,0-116.08-23.3-158.39-65.61-42.31-42.31-65.61-98.56-65.61-158.39s23.3-116.08,65.61-158.39c42.31-42.31,98.56-65.61,158.39-65.61s116.08,23.3,158.39,65.61c42.31,42.31,65.61,98.56,65.61,158.39s-23.3,116.08-65.61,158.39c-42.31,42.31-98.56,65.61-158.39,65.61ZM256,64c-105.87,0-192,86.13-192,192s86.13,192,192,192,192-86.13,192-192-86.13-192-192-192Z"/><path d="M328.09,308.06c-2.4,0-4.85-.54-7.14-1.69l-72.11-36.05c-5.42-2.71-8.84-8.25-8.84-14.31v-108.16c0-8.84,7.16-16,16-16s16,7.16,16,16v98.27l63.26,31.63c7.9,3.95,11.11,13.56,7.16,21.47-2.8,5.61-8.45,8.85-14.32,8.85Z"/></svg>