<?xml version="1.0" encoding="UTF-8"?><svg id="Icon" xmlns="http://www.w3.org/2000/svg" viewBox="0 0 512 512"><path d="M222.39,184.65c9.61-4.56,19.92-6.88,30.66-6.88,39.46,0,71.56,32.1,71.56,71.56,0,8.84,7.16,16,16,16s16-7.16,16-16c0-57.1-46.46-103.56-103.56-103.56-15.52,0-30.46,3.35-44.39,9.97-7.98,3.79-11.38,13.34-7.59,21.32,3.79,7.98,13.34,11.38,21.32,7.59Z"/><path d="M255.19,115.22c8.84,0,16-7.16,16-16v-35.02c0-8.84-7.16-16-16-16s-16,7.16-16,16v35.02c0,8.84,7.16,16,16,16Z"/><path d="M132.5,156.77c3.12,3.12,7.22,4.69,11.31,4.69s8.19-1.56,11.31-4.69c6.25-6.25,6.25-16.38,0-22.63l-24.87-24.87c-6.25-6.25-16.38-6.25-22.63,0-6.25,6.25-6.25,16.38,0,22.63l24.87,24.87Z"/><path d="M447.82,240.83h-35.02c-8.84,0-16,7.16-16,16s7.16,16,16,16h35.02c8.84,0,16-7.16,16-16s-7.16-16-16-16Z"/><path d="M366.57,161.45c4.09,0,8.19-1.56,11.31-4.69l24.87-24.87c6.25-6.25,6.25-16.38,0-22.63-6.25-6.25-16.38-6.25-22.63,0l-24.87,24.87c-6.25,6.25-6.25,16.38,0,22.63,3.12,3.12,7.22,4.69,11.31,4.69Z"/><path d="M293.94,440.2c41.15,0,74.63-33.48,74.63-74.64,0-17.93-6.5-35.25-18.3-48.77-8.98-10.28-20.57-17.87-33.41-22.03-4.4-19.91-14.87-38.07-30.18-52.01-18.33-16.7-42.06-25.89-66.81-25.89-37.41,0-71.16,20.97-88.08,54.06-35.58,11.39-60.63,44.78-60.63,82.3,0,47.96,39.02,86.98,86.98,86.98h135.79ZM103.18,353.22c0-25.33,18.26-47.69,43.41-53.17,5.12-1.12,9.37-4.67,11.38-9.51,10.48-25.31,34.78-41.67,61.91-41.67,16.76,0,32.84,6.23,45.26,17.55,12.35,11.25,20.06,26.52,21.72,43,.73,7.26,6.28,13.11,13.5,14.22,20.65,3.16,36.22,21.19,36.22,41.93,0,23.51-19.13,42.64-42.63,42.64h-135.79c-30.32,0-54.98-24.66-54.98-54.98Z"/></svg>