<?xml version="1.0" encoding="UTF-8"?><svg id="Icon" xmlns="http://www.w3.org/2000/svg" viewBox="0 0 512 512"><path d="M463.15,221.11c-3.6-5.18-9.9-7.77-16.1-6.6-19.42,3.64-38.62-5.66-47.79-23.14-11.45-21.81-3.01-48.86,18.79-60.31,5.58-2.93,8.93-8.87,8.53-15.16-.39-6.29-4.45-11.77-10.35-13.99-42.37-15.89-90.09.69-113.48,39.43-3.92,6.5-7,13.34-9.24,20.45-15.62-6.89-32.62-10.52-50.01-10.52-47.48,0-90.26,27-111.12,69.45-20.68,6.21-39.3,18.56-53.06,35.34-15.69,19.13-24.32,43.16-24.32,67.67,0,59.7,48.57,108.27,108.27,108.27h176.51c50.85,0,92.22-41.37,92.22-92.22,0-21.88-7.85-43.03-22.1-59.64,21.95-6.48,41.31-20.96,53.8-41.64,3.26-5.4,3.04-12.21-.55-17.39ZM339.78,400h-176.51c-42.05,0-76.27-34.21-76.27-76.27,0-35.16,25.32-66.2,60.21-73.81,5.12-1.12,9.37-4.67,11.37-9.51,14.37-34.71,47.7-57.13,84.92-57.13,22.99,0,45.03,8.55,62.07,24.06,16.93,15.42,27.5,36.36,29.78,58.97.73,7.26,6.28,13.11,13.5,14.22,14.1,2.16,27.04,9.28,36.44,20.05,9.49,10.87,14.71,24.79,14.71,39.2,0,33.21-27.01,60.22-60.22,60.22ZM368.87,250.26c-1.26-.3-2.52-.43-3.77-.42-5.37-25.33-18.55-48.46-37.98-66.15-1.63-1.48-3.3-2.91-4.99-4.3,1.31-7.59,3.99-14.82,8.02-21.5,9.95-16.47,26.56-26.87,44.6-29.37-14.76,22.54-17.21,52.23-3.83,77.73,9.52,18.14,25.32,31.14,43.69,37.22-13.46,7.91-29.75,10.62-45.75,6.8Z"/></svg>