<?xml version="1.0" encoding="UTF-8"?><svg id="Icon" xmlns="http://www.w3.org/2000/svg" viewBox="0 0 512 512"><path d="M453.56,237.62c-14.14-16.2-32.77-27.79-53.35-33.36-5.75-31.41-21.68-60.18-45.6-81.96-27.06-24.64-62.08-38.21-98.61-38.21-56.47,0-107.3,32.39-131.66,83.2-24.87,7.16-47.28,21.85-63.76,41.95-18.43,22.48-28.58,50.71-28.58,79.5,0,70.17,57.09,127.26,127.26,127.26h212.84c59.5,0,107.91-48.41,107.91-107.91,0-25.91-9.39-50.94-26.44-70.47ZM322.78,313.84c6.25,6.25,6.25,16.38,0,22.63-3.12,3.12-7.22,4.69-11.31,4.69s-8.19-1.56-11.31-4.69l-44.15-44.15-44.15,44.15c-3.12,3.12-7.22,4.69-11.31,4.69s-8.19-1.56-11.31-4.69c-6.25-6.25-6.25-16.38,0-22.63l44.15-44.15-44.15-44.15c-6.25-6.25-6.25-16.38,0-22.63,6.25-6.25,16.38-6.25,22.63,0l44.15,44.15,44.15-44.15c6.25-6.25,16.38-6.25,22.63,0,6.25,6.25,6.25,16.38,0,22.63l-44.15,44.15,44.15,44.15Z"/></svg>