<?xml version="1.0" encoding="UTF-8"?><svg id="Icon" xmlns="http://www.w3.org/2000/svg" viewBox="0 0 512 512"><path d="M372.09,416h-212.84c-70.17,0-127.26-57.09-127.26-127.26,0-28.79,10.15-57.03,28.58-79.5,16.48-20.1,38.89-34.79,63.76-41.95,24.36-50.81,75.19-83.2,131.66-83.2,36.53,0,71.55,13.57,98.61,38.21,23.92,21.78,39.85,50.54,45.6,81.96,20.58,5.57,39.21,17.15,53.35,33.36,17.05,19.54,26.44,44.56,26.44,70.47,0,59.5-48.41,107.91-107.91,107.91ZM256,116.09c-46.21,0-87.59,27.84-105.43,70.92-2.01,4.84-6.25,8.4-11.38,9.51-43.57,9.5-75.19,48.28-75.19,92.22,0,52.52,42.73,95.26,95.26,95.26h212.84c41.86,0,75.91-34.05,75.91-75.91,0-18.17-6.59-35.72-18.55-49.43-11.85-13.57-28.16-22.55-45.92-25.27-7.22-1.11-12.77-6.95-13.5-14.22-2.82-28.07-15.95-54.07-36.96-73.21-21.15-19.26-48.52-29.87-77.06-29.87Z"/></svg>