<?xml version="1.0" encoding="UTF-8"?><svg id="Icon" xmlns="http://www.w3.org/2000/svg" viewBox="0 0 512 512"><path d="M336.3,435.23c-1.37-3.98-5.12-6.65-9.31-6.65-1.28,0-2.53.25-3.73.74-2.07.85-4,1.53-5.72,2.01-3.55.99-7.55,1.49-11.89,1.49-9.97,0-17.61-3.31-23.36-10.11-5.75-6.81-8.66-16.29-8.66-28.18s2.78-20.94,8.24-28.39c5.31-7.12,12.78-10.59,22.86-10.59,5.31,0,11.05,1.19,17.06,3.54,1.14.44,2.33.67,3.55.67,3.95,0,7.51-2.36,9.06-6.01,1.07-2.51,1.04-5.38-.06-7.87-1.11-2.5-3.14-4.37-5.71-5.27-8.3-2.89-16.65-4.35-24.82-4.35-14.35,0-26.24,4.02-35.34,11.97-12.37,10.9-18.64,26.63-18.64,46.76,0,17.9,5.18,32.21,15.41,42.54,9.57,9.68,22.88,14.58,39.57,14.58,6.13,0,11.64-.54,16.38-1.62,2.8-.63,5.91-1.58,9.25-2.8,4.97-1.83,7.61-7.42,5.9-12.36l-.04-.11Z"/><path d="M433.73,353.38c-9.12-11.35-22.3-17.11-39.17-17.11-21.96,0-37.54,9.76-46.31,28.99-3.93,8.53-5.92,18.05-5.92,28.28,0,16.65,4.42,30.6,13.13,41.47,9.12,11.35,22.28,17.11,39.09,17.11,15.49,0,27.87-4.84,36.78-14.4,10.3-11.09,15.52-25.72,15.52-43.49,0-16.19-4.42-29.93-13.13-40.85ZM416,421.62c-5.21,7.55-12.22,11.21-21.44,11.21-8.36,0-14.93-3.11-20.08-9.5-5.54-6.89-8.35-16.83-8.35-29.56,0-11.05,2.38-20.14,7.07-27.01,5.1-7.54,12.09-11.2,21.35-11.2,8.46,0,15.05,3.11,20.16,9.5,5.54,6.84,8.35,16.65,8.35,29.17,0,11.35-2.38,20.57-7.06,27.38Z"/><path d="M474.87,469.33h-11.85c2.46-2.4,4.75-4.76,6.83-7.05,3.62-3.95,6.09-7.23,7.54-10.03,1.5-2.9,2.26-5.99,2.26-9.19,0-4.91-1.75-8.78-5.21-11.48-3.06-2.38-7.2-3.59-12.29-3.59-4.03,0-8.07.74-12.01,2.2-2.64.98-4.08,3.87-3.29,6.6.68,2.33,2.78,3.9,5.22,3.9.75,0,1.47-.15,2.16-.44,2.59-1.1,4.95-1.66,7.01-1.66,1.92,0,3.45.51,4.65,1.54.96.84,1.42,1.92,1.42,3.39,0,1.57-.49,3.22-1.45,4.91-1.07,1.87-3.07,4.43-5.96,7.62-3.05,3.39-7.51,7.79-13.24,13.08-.98.91-1.54,2.19-1.54,3.52v2.21c0,2.83,2.3,5.13,5.13,5.13h24.64c2.83,0,5.13-2.3,5.13-5.13v-.4c0-2.83-2.3-5.13-5.13-5.13Z"/><path d="M260.78,304.02c23.78,0,43.15-19.36,43.2-43.2l.2-100.79c.02-13.02-5.72-25.24-15.76-33.51l-88.82-73.19c-8.78-7.22-21.56-7.26-30.42-.05l-89.12,72.84c-10.07,8.24-15.86,20.43-15.88,33.45l-.2,100.79c-.05,23.87,19.29,43.32,43.11,43.37l153.6.3h.09ZM95.98,260.41l.2-100.78c0-3.41,1.52-6.6,4.14-8.74l84.02-68.67,83.73,69c2.62,2.16,4.12,5.35,4.11,8.76l-.2,100.78c-.01,6.21-5.04,11.26-11.2,11.26h-.02l-153.6-.3c-6.17-.01-11.19-5.08-11.18-11.31Z"/></svg>