<?xml version="1.0" encoding="UTF-8"?><svg id="Icon" xmlns="http://www.w3.org/2000/svg" viewBox="0 0 512 512"><path d="M227.92,330c-1.49-4.32-5.56-7.22-10.12-7.22-1.39,0-2.75.27-4.05.8-2.25.93-4.34,1.66-6.22,2.19-3.86,1.08-8.2,1.62-12.91,1.62-10.83,0-19.13-3.59-25.37-10.98-6.24-7.39-9.41-17.69-9.41-30.61s3.02-22.75,8.95-30.84c5.76-7.74,13.89-11.5,24.83-11.5,5.77,0,12,1.3,18.53,3.85,1.24.48,2.53.73,3.85.73,4.29,0,8.16-2.56,9.84-6.53,1.16-2.73,1.13-5.84-.07-8.55-1.2-2.72-3.41-4.75-6.2-5.72-9.02-3.14-18.09-4.73-26.96-4.73-15.58,0-28.5,4.37-38.39,13-13.44,11.84-20.25,28.92-20.25,50.79,0,19.44,5.63,34.98,16.74,46.2,10.39,10.51,24.86,15.84,42.98,15.84,6.66,0,12.64-.59,17.79-1.76,3.04-.69,6.42-1.71,10.04-3.05,5.4-1.99,8.26-8.06,6.41-13.42l-.04-.12Z"/><path d="M333.75,241.1c-9.91-12.33-24.23-18.58-42.55-18.58-23.85,0-40.77,10.6-50.3,31.49-4.26,9.27-6.43,19.6-6.43,30.72,0,18.08,4.8,33.24,14.26,45.04,9.91,12.33,24.2,18.58,42.46,18.58,16.83,0,30.27-5.26,39.95-15.64,11.19-12.04,16.86-27.93,16.86-47.23,0-17.58-4.8-32.51-14.26-44.37ZM314.49,315.21c-5.65,8.2-13.27,12.18-23.29,12.18-9.08,0-16.21-3.38-21.81-10.32-6.02-7.48-9.07-18.28-9.07-32.1,0-12.01,2.58-21.88,7.68-29.34,5.54-8.19,13.13-12.17,23.19-12.17,9.19,0,16.34,3.37,21.89,10.32,6.02,7.43,9.07,18.09,9.07,31.68,0,12.33-2.58,22.34-7.67,29.74Z"/><path d="M378.43,367.04h-12.88c2.68-2.61,5.16-5.17,7.42-7.66,3.93-4.29,6.61-7.85,8.18-10.9,1.63-3.15,2.45-6.5,2.45-9.98,0-5.34-1.9-9.53-5.65-12.47-3.32-2.59-7.82-3.9-13.35-3.9-4.37,0-8.76.8-13.05,2.39-2.86,1.06-4.43,4.21-3.57,7.17.74,2.53,3.02,4.24,5.67,4.24.81,0,1.6-.16,2.35-.48,2.81-1.2,5.37-1.8,7.62-1.8,2.09,0,3.74.55,5.05,1.67,1.05.92,1.54,2.09,1.54,3.69,0,1.71-.53,3.5-1.58,5.33-1.16,2.03-3.34,4.81-6.48,8.28-3.32,3.68-8.16,8.46-14.38,14.2-1.06.98-1.67,2.38-1.67,3.82v2.4c0,3.07,2.5,5.57,5.57,5.57h26.76c3.07,0,5.57-2.5,5.57-5.57v-.44c0-3.07-2.5-5.57-5.57-5.57Z"/><path d="M425.25,167.91l-150.54-123.19c-10.81-8.83-26.52-8.84-37.4,0l-150.57,123.18c-14.45,11.83-22.74,29.33-22.74,48.01v184.08c0,26.47,21.53,48,48,48h288c26.47,0,48-21.53,48-48v-184.08c0-18.68-8.29-36.18-22.75-48.01ZM416,400c0,8.82-7.18,16-16,16H112c-8.82,0-16-7.18-16-16v-184.08c0-9.04,4.01-17.52,11.01-23.25l149.01-121.9,148.97,121.9c7,5.73,11.01,14.21,11.01,23.25v184.08Z"/></svg>