<?xml version="1.0" encoding="UTF-8"?><svg id="Icon" xmlns="http://www.w3.org/2000/svg" viewBox="0 0 512 512"><path d="M183.4,329.73c-2.69-7.79-11.39-11.76-19.01-8.62-3.95,1.63-7.58,2.9-10.89,3.83-6.85,1.91-14.43,2.87-22.73,2.87-19.21,0-34.39-6.6-45.53-19.79-11.15-13.19-16.72-31.17-16.72-53.93s5.27-39.77,15.81-54.14c10.35-13.89,25.27-20.84,44.76-20.84,10.22,0,21.07,2.25,32.55,6.73,7.21,2.82,15.35-.67,18.37-7.79,3.23-7.61-.58-16.45-8.39-19.16-14.87-5.17-29.61-7.76-44.21-7.76-25.46,0-46.21,6.99-62.25,20.98-21.92,19.3-32.87,46.91-32.87,82.81,0,31.89,9.04,56.98,27.14,75.26,16.88,17.07,40.15,25.6,69.8,25.6,11,0,20.73-.96,29.17-2.87,5-1.13,10.49-2.8,16.46-5,7.31-2.69,11.09-10.79,8.55-18.15v-.04Z"/><path d="M293.46,151.12c-38.8,0-65.93,16.97-81.41,50.92-6.99,15.2-10.49,31.94-10.49,50.22,0,29.75,7.74,54.28,23.22,73.58,16.04,19.96,38.93,29.94,68.68,29.94,27.42,0,48.96-8.39,64.63-25.18,18.28-19.68,27.42-45.37,27.42-77.08,0-28.91-7.74-53.06-23.22-72.46-16.04-19.96-38.98-29.94-68.82-29.94ZM335.71,305.7c-10.17,14.74-24.25,22.1-42.25,22.1-16.32,0-29.51-6.25-39.59-18.74-10.73-13.34-16.09-32.13-16.09-56.38,0-21.07,4.52-38.23,13.57-51.48,9.98-14.73,24.01-22.1,42.11-22.1,16.51,0,29.75,6.25,39.73,18.75,10.72,13.24,16.09,31.8,16.09,55.67,0,21.64-4.52,39.03-13.57,52.18Z"/><path d="M472.28,379.78h-41.25c-.69,0-1.01-.84-.5-1.31,9.33-8.69,17.7-17.13,25.12-25.3,8.87-9.67,15.04-17.86,18.51-24.57,3.47-6.71,5.2-13.76,5.2-21.15,0-10.98-3.78-19.42-11.35-25.34-6.94-5.4-16.38-8.1-28.32-8.1-9.74,0-19.4,1.77-28.96,5.31-4.28,1.58-6.55,6.27-5.28,10.65v.02c1.49,5.1,7.1,7.65,11.98,5.56,7.29-3.1,13.94-4.66,19.95-4.66s11.23,1.74,15.27,5.2c3.58,3.13,5.37,7.31,5.37,12.54,0,4.95-1.47,9.98-4.39,15.1-2.93,5.12-8.23,11.91-15.91,20.39-7.95,8.82-19.36,20.08-34.21,33.79-1.46,1.35-2.3,3.25-2.3,5.25v5.66c0,4.43,3.59,8.01,8.01,8.01h63.05c4.43,0,8.01-3.59,8.01-8.01v-1.03c0-4.43-3.59-8.01-8.01-8.01Z"/></svg>