<?xml version="1.0" encoding="UTF-8"?><svg id="Icon" xmlns="http://www.w3.org/2000/svg" viewBox="0 0 512 512"><circle cx="176.98" cy="256.18" r="17.6"/><circle cx="256.18" cy="256.18" r="17.6"/><circle cx="335.38" cy="256.18" r="17.6"/><path d="M333,371c-4.09,0-8.19-1.56-11.31-4.69-6.25-6.25-6.25-16.38,0-22.63l87.69-87.69-87.69-87.69c-6.25-6.25-6.25-16.38,0-22.63,6.25-6.25,16.38-6.25,22.63,0l99,99c6.25,6.25,6.25,16.38,0,22.63l-99,99c-3.12,3.12-7.22,4.69-11.31,4.69Z"/><path d="M179,371c-4.09,0-8.19-1.56-11.31-4.69l-99-99c-6.25-6.25-6.25-16.38,0-22.63l99-99c6.25-6.25,16.38-6.25,22.63,0,6.25,6.25,6.25,16.38,0,22.63l-87.69,87.69,87.69,87.69c6.25,6.25,6.25,16.38,0,22.63-3.12,3.12-7.22,4.69-11.31,4.69Z"/></svg>