<?xml version="1.0" encoding="UTF-8"?><svg id="Icon" xmlns="http://www.w3.org/2000/svg" viewBox="0 0 512 512"><path d="M464,448h-16V128c0-8.84-7.16-16-16-16h-48c0-44.11-35.89-80-80-80h-96c-44.11,0-80,35.89-80,80h-48c-8.84,0-16,7.16-16,16v320h-16c-8.84,0-16,7.16-16,16s7.16,16,16,16h416c8.84,0,16-7.16,16-16s-7.16-16-16-16ZM160,112c0-26.47,21.53-48,48-48h96c26.47,0,48,21.53,48,48v112h-192v-112ZM96,144h32v96c0,8.84,7.16,16,16,16h96v16c0,8.84,7.16,16,16,16s16-7.16,16-16v-16h96c8.84,0,16-7.16,16-16v-96h32v304h-68.68c3-6.69,4.68-14.09,4.68-21.88v-11.17h.46c26.28,0,47.66-21.21,47.66-47.29s-21.38-47.66-47.66-47.66h-176.46c-8.84,0-16,7.16-16,16v90.12c0,7.79,1.68,15.19,4.68,21.88h-68.68V144ZM352.46,352c8.63,0,15.66,7.02,15.66,15.66s-7.02,15.29-15.66,15.29h-.46v-30.95h.46ZM320,352v74.12c0,11.94-9.71,21.65-21.65,21.65h-84.71c-11.94,0-21.65-9.71-21.65-21.65v-74.12h128Z"/><circle cx="256" cy="128" r="16"/></svg>