<?xml version="1.0" encoding="UTF-8"?><svg id="Icon" xmlns="http://www.w3.org/2000/svg" viewBox="0 0 512 512"><path d="M288,96c-10.8,0-21.52,1.11-32,3.25v-19.25c0-26.47-21.53-48-48-48h-32c-26.47,0-48,21.53-48,48v352c0,26.47,21.53,48,48,48h32c26.47,0,48-21.53,48-48v-19.25c10.47,2.14,21.19,3.25,32,3.25,88.22,0,160-71.78,160-160s-71.78-160-160-160ZM224,432c0,8.82-7.18,16-16,16h-32c-8.82,0-16-7.18-16-16V80c0-8.82,7.18-16,16-16h32c8.82,0,16,7.18,16,16v29.37c-5.47,2.39-10.81,5.09-16,8.08v-5.44c0-8.84-7.16-16-16-16s-16,7.16-16,16v288c0,8.84,7.16,16,16,16s16-7.16,16-16v-5.44c5.18,2.99,10.53,5.68,16,8.07v29.37ZM288,384c-29.08,0-57.38-9.95-80-28.08v-199.84c22.61-18.12,50.93-28.08,80-28.08,70.58,0,128,57.42,128,128s-57.42,128-128,128Z"/><path d="M288,192c-8.84,0-16,7.16-16,16v96c0,8.84,7.16,16,16,16s16-7.16,16-16v-96c0-8.84-7.16-16-16-16Z"/></svg>