<?xml version="1.0" encoding="UTF-8"?><svg id="Icon" xmlns="http://www.w3.org/2000/svg" viewBox="0 0 512 512"><path d="M256,32c-123.71,0-224,100.29-224,224s100.29,224,224,224,224-100.29,224-224S379.71,32,256,32ZM412.26,343.92c-8.84,0-16-7.16-16-16v-3.32c-5.71-.02-12.75.04-20.67.28-11.25.34-15.39,2.76-26.44,9.24-4.54,2.66-10.05,5.88-17.08,9.51-1.4,3.77-4.39,9.47-11.88,13.98-4.6,2.77-9.3,2.89-13.44,2.3-3.15,7.36-5.83,13.17-11.66,16.63-6.6,3.92-13.52,2.92-18.53,1.88-.23.32-.46.63-.66.91-2.88,4.03-6.46,9.04-12.13,12.19-7.7,4.28-15.14,5.71-21.71,5.71-9.93,0-17.91-3.26-21.91-4.89-17.81-7.28-52.88-33.45-87.28-59.62-7.11-5.41-14.44-10.99-16.9-12.67-.07-.01-.15-.02-.23-.03v7.92c0,8.84-7.16,16-16,16h-14.39c-5.26-10.17-9.64-20.87-13.03-32h11.43v-5.29c-.01-.4-.02-.8,0-1.2v-115.59h-7.99c4.12-11.19,9.27-21.89,15.3-32h8.68c8.84,0,16,7.16,16,16v16.59l50.39-8.03c12.07-1.92,24.31-1.92,36.39.03l19.72,3.17c1.08-1,2.16-1.99,3.24-2.96,29.43-26.43,49.79-21.66,66.15-17.82,1.64.38,3.31.78,5,1.14,9.07,1.92,36.05,9.39,62.14,16.63,15.37,4.26,30.01,8.32,37.48,10.25v-18.98c0-8.84,7.16-16,16-16h8.68c6.04,10.11,11.18,20.81,15.3,32h-7.99v122.08h11.43c-3.39,11.13-7.77,21.83-13.03,32h-14.4Z"/><path d="M205.65,305.31c-.15,0-.3,0-.45,0-12.72,0-23.93-5.29-32.43-15.33-15.89-18.76-7.86-40.06-1.4-48.69.08-.11.16-.21.24-.32.65-.83,10.09-12.76,23.22-27.33-7.87-1.01-15.82-.9-23.67.35l-55.43,8.83v65.13c5.56.22,11.36,1.4,16.36,4.42,2.83,1.71,8.22,5.79,20.15,14.87,20.97,15.96,64.61,49.17,80,55.46,7.09,2.9,11.08,3.25,15.21,1.24.64-.76,1.68-2.2,2.4-3.22,2.95-4.12,6.61-9.25,12.45-12.55,5.41-3.06,11.01-2.87,15.55-2.13,3.25-7.6,5.86-13.6,11.76-17.17,5.04-3.04,10.2-2.94,14.64-2.17.61-1.18,1.38-2.43,2.37-3.68l-50.22-40.77c-14.73,11.94-33.03,22.89-50.75,23.06Z"/><path d="M350.23,213.4c-23.22-6.44-52.12-14.44-60.22-16.16-1.93-.41-3.82-.85-5.69-1.29-13.63-3.2-20.46-4.8-37.46,10.47-23.11,20.76-46.87,50.28-49.81,53.97-1.5,2.3-2.61,5.65.14,8.9,2.41,2.85,4.74,4.02,8.02,4.02h.12c10.51-.09,25.86-10.79,39.03-22.95.52-.55,1.06-1.07,1.64-1.53,5.94-5.61,11.36-11.44,15.6-16.62,5.59-6.84,15.66-7.86,22.51-2.28,6.84,5.58,7.87,15.65,2.3,22.5-.88,1.08-3.19,3.86-6.6,7.61l55.54,45.09c11.36-6.61,21.12-11.67,39.28-12.22,8.3-.25,15.65-.32,21.64-.3v-66.97c-1.38-.25-2.79-.54-4.25-.88-6.24-1.49-22.71-6.05-41.78-11.33Z"/></svg>