<?xml version="1.0" encoding="UTF-8"?><svg id="Icon" xmlns="http://www.w3.org/2000/svg" viewBox="0 0 512 512"><path d="M112,288c-26.47,0-48-21.53-48-48s21.53-48,48-48,48,21.53,48,48-21.53,48-48,48ZM112,224c-8.82,0-16,7.18-16,16s7.18,16,16,16,16-7.18,16-16-7.18-16-16-16Z"/><path d="M112,416c-26.47,0-48-21.53-48-48s21.53-48,48-48,48,21.53,48,48-21.53,48-48,48ZM112,352c-8.82,0-16,7.18-16,16s7.18,16,16,16,16-7.18,16-16-7.18-16-16-16Z"/><path d="M432,256h-208c-8.84,0-16-7.16-16-16s7.16-16,16-16h208c8.84,0,16,7.16,16,16s-7.16,16-16,16Z"/><path d="M432,144H80c-8.84,0-16-7.16-16-16s7.16-16,16-16h352c8.84,0,16,7.16,16,16s-7.16,16-16,16Z"/><path d="M432,384h-208c-8.84,0-16-7.16-16-16s7.16-16,16-16h208c8.84,0,16,7.16,16,16s-7.16,16-16,16Z"/></svg>