<?xml version="1.0" encoding="UTF-8"?><svg id="Icon" xmlns="http://www.w3.org/2000/svg" viewBox="0 0 512 512"><path d="M464,189.83c8.84,0,16-7.16,16-16s-7.16-16-16-16h-51.74c-8.84,0-16,7.16-16,16v18.98c-7.47-1.93-22.11-5.99-37.48-10.25-26.09-7.23-53.08-14.71-62.14-16.63-1.7-.36-3.36-.75-5-1.14-16.36-3.84-36.72-8.61-66.15,17.82-1.08.97-2.16,1.96-3.24,2.96l-19.72-3.17c-12.07-1.94-24.32-1.95-36.39-.03l-50.39,8.03v-16.59c0-8.84-7.16-16-16-16h-51.74c-8.84,0-16,7.16-16,16s7.16,16,16,16h35.74v115.59c-.02.4-.01.8,0,1.2v5.29h-35.74c-8.84,0-16,7.16-16,16s7.16,16,16,16h51.74c8.84,0,16-7.16,16-16v-7.92c.08.01.16.02.23.03,2.45,1.68,9.79,7.26,16.9,12.67,34.39,26.18,69.46,52.34,87.28,59.62,4,1.63,11.97,4.89,21.91,4.89,6.58,0,14.01-1.43,21.71-5.71,5.67-3.15,9.25-8.16,12.13-12.19.2-.28.42-.59.66-.91,5.01,1.04,11.93,2.04,18.53-1.88,5.83-3.46,8.51-9.28,11.66-16.63,4.14.59,8.84.47,13.44-2.3,7.49-4.51,10.48-10.2,11.88-13.98,7.03-3.62,12.55-6.85,17.08-9.51,11.06-6.47,15.2-8.89,26.44-9.24,7.92-.24,14.96-.3,20.67-.28v3.32c0,8.84,7.16,16,16,16h51.74c8.84,0,16-7.16,16-16s-7.16-16-16-16h-35.74v-122.08h35.74ZM289.62,328.88c-5.9,3.57-8.51,9.57-11.76,17.17-4.54-.74-10.14-.92-15.55,2.13-5.84,3.29-9.5,8.43-12.45,12.55-.72,1.01-1.76,2.46-2.4,3.22-4.13,2.01-8.12,1.66-15.21-1.24-15.39-6.29-59.03-39.5-80-55.46-11.93-9.08-17.32-13.16-20.15-14.87-5-3.02-10.8-4.2-16.36-4.42v-65.13l55.43-8.83c7.85-1.25,15.8-1.36,23.67-.35-13.13,14.57-22.56,26.5-23.22,27.33-.08.1-.16.21-.24.32-6.47,8.64-14.5,29.93,1.4,48.69,8.5,10.04,19.71,15.33,32.43,15.33.15,0,.3,0,.45,0,17.72-.17,36.02-11.12,50.75-23.06l50.22,40.77c-.99,1.25-1.76,2.5-2.37,3.68-4.44-.76-9.6-.87-14.64,2.17ZM374.62,292.89c-18.16.55-27.92,5.62-39.28,12.22l-55.54-45.09c3.42-3.75,5.72-6.52,6.6-7.61,5.58-6.85,4.55-16.91-2.3-22.5-6.84-5.58-16.92-4.56-22.51,2.28-4.23,5.18-9.66,11.01-15.6,16.62-.58.46-1.12.98-1.64,1.53-13.18,12.16-28.52,22.86-39.03,22.95h-.12c-3.27,0-5.6-1.17-8.02-4.02-2.75-3.25-1.63-6.59-.14-8.9,2.94-3.69,26.7-33.21,49.81-53.97,17-15.27,23.84-13.67,37.46-10.47,1.87.44,3.76.88,5.69,1.29,8.1,1.71,37,9.72,60.22,16.16,19.07,5.28,35.53,9.85,41.78,11.33,1.46.35,2.87.63,4.25.88v66.97c-5.99-.02-13.34.05-21.64.3Z"/></svg>