<?xml version="1.0" encoding="UTF-8"?><svg id="Icon" xmlns="http://www.w3.org/2000/svg" viewBox="0 0 512 512"><path d="M217.69,299.96v-.27c-.07,0-.13,0-.2,0,.07.09.13.18.2.26Z"/><path d="M464,96H48c-8.84,0-16,7.16-16,16s7.16,16,16,16h416c8.84,0,16-7.16,16-16s-7.16-16-16-16Z"/><path d="M156.17,165.63c-2.93-3.44-7.3-5.63-12.17-5.63s-9.24,2.19-12.17,5.63l-69.54,69.54c-6.25,6.25-6.25,16.38,0,22.63,3.12,3.12,7.22,4.69,11.31,4.69s8.19-1.56,11.31-4.69l43.08-43.08v153.29c0,8.84,7.16,16,16,16s16-7.16,16-16v-153.29l43.08,43.08c3.12,3.12,7.22,4.69,11.31,4.69s8.19-1.56,11.31-4.69c6.25-6.25,6.25-16.38,0-22.63l-69.54-69.54Z"/><path d="M432,256h-144c-8.84,0-16,7.16-16,16s7.16,16,16,16h144c8.84,0,16-7.16,16-16s-7.16-16-16-16Z"/><path d="M432,176h-144c-8.84,0-16,7.16-16,16s7.16,16,16,16h144c8.84,0,16-7.16,16-16s-7.16-16-16-16Z"/><path d="M432,336h-144c-8.84,0-16,7.16-16,16s7.16,16,16,16h144c8.84,0,16-7.16,16-16s-7.16-16-16-16Z"/></svg>