<?xml version="1.0" encoding="UTF-8"?><svg id="Icon" xmlns="http://www.w3.org/2000/svg" viewBox="0 0 512 512"><path d="M160,224h-80c-8.84,0-16,7.16-16,16v192c0,8.84,7.16,16,16,16h80c8.84,0,16-7.16,16-16v-192c0-8.84-7.16-16-16-16Z"/><path d="M296,224h-80c-8.84,0-16,7.16-16,16v192c0,8.84,7.16,16,16,16h80c8.84,0,16-7.16,16-16v-192c0-8.84-7.16-16-16-16ZM280,416h-48v-160h48v160Z"/><path d="M432,224h-80c-8.84,0-16,7.16-16,16v192c0,8.84,7.16,16,16,16h80c8.84,0,16-7.16,16-16v-192c0-8.84-7.16-16-16-16ZM416,416h-48v-160h48v160Z"/><path d="M386.9,140.59c6.25-6.25,6.25-16.38,0-22.63-6.25-6.25-16.38-6.25-22.63,0l-22.33,22.33v-76.29c0-8.84-7.16-16-16-16H120.62c-4.25,0-8.32,1.69-11.32,4.69-3,3-4.69,7.08-4.68,11.32l.08,86.87c0,8.83,7.17,15.99,16,15.99h.02c8.84,0,15.99-7.18,15.98-16.01l-.07-70.86h173.32v60.29l-22.33-22.33c-6.25-6.25-16.38-6.25-22.63,0-6.25,6.25-6.25,16.38,0,22.63l49.64,49.64c3,3,7.07,4.69,11.31,4.69s8.31-1.69,11.31-4.69l49.64-49.64Z"/></svg>