<?xml version="1.0" encoding="UTF-8"?><svg id="Icon" xmlns="http://www.w3.org/2000/svg" viewBox="0 0 512 512"><path d="M271.56,278.62v-45.48c0-8.07-6.56-14.63-14.63-14.63s-14.63,6.56-14.63,14.63v45.48c0,8.07,6.56,14.63,14.63,14.63s14.63-6.56,14.63-14.63Z"/><path d="M339.32,283.18c1.28,0,2.56-.17,3.79-.5,3.78-1.01,6.93-3.43,8.89-6.82,1.95-3.38,2.47-7.33,1.46-11.1l-11.77-43.93c-1.71-6.39-7.51-10.85-14.12-10.85-1.28,0-2.56.17-3.8.5-7.79,2.09-12.43,10.13-10.35,17.92l11.77,43.93c1.71,6.39,7.52,10.85,14.13,10.85Z"/><path d="M417.38,253.27c2.56,0,5.08-.68,7.3-1.96,6.99-4.03,9.39-13,5.36-19.99l-22.74-39.38c-2.6-4.52-7.46-7.32-12.68-7.32-2.56,0-5.09.68-7.31,1.96-6.98,4.03-9.39,13-5.36,19.99l22.74,39.38c2.6,4.52,7.46,7.32,12.68,7.32Z"/><path d="M188.24,210.48c-1.24-.33-2.52-.5-3.8-.5-6.6,0-12.41,4.46-14.12,10.85l-11.77,43.93c-2.09,7.79,2.55,15.83,10.34,17.92,1.24.33,2.52.5,3.8.5,6.61,0,12.42-4.46,14.13-10.85l11.77-43.93c2.09-7.79-2.55-15.83-10.34-17.92Z"/><path d="M124.69,186.58c-2.22-1.28-4.75-1.96-7.31-1.96-5.22,0-10.08,2.8-12.68,7.32l-22.74,39.38c-1.95,3.38-2.47,7.32-1.46,11.1,1.01,3.78,3.43,6.93,6.81,8.88,2.22,1.29,4.75,1.97,7.31,1.97,5.22,0,10.08-2.81,12.68-7.32l22.74-39.38c4.03-6.99,1.63-15.95-5.35-19.99Z"/><path d="M170.62,341.7c-6.25,6.25-6.25,16.38,0,22.63,23.57,23.56,54.53,35.34,85.48,35.34s61.92-11.78,85.49-35.34c6.25-6.25,6.25-16.38,0-22.63-6.25-6.25-16.38-6.25-22.63,0-34.66,34.65-91.06,34.65-125.72,0-6.25-6.25-16.38-6.25-22.63,0Z"/><path d="M96.34,390.12c-6.25,6.25-6.25,16.38,0,22.63,42.65,42.64,99.35,66.12,159.66,66.12s117.01-23.48,159.66-66.12c6.25-6.25,6.25-16.38,0-22.63-6.25-6.25-16.38-6.25-22.63,0-75.56,75.54-198.51,75.54-274.07,0-6.25-6.25-16.38-6.25-22.63,0Z"/><path d="M422.68,56.26H89.32c-8.84,0-16,7.16-16,16v7.24c0,34.45,19.95,66.36,56.16,89.86,34.08,22.11,79.01,34.29,126.51,34.29s92.43-12.18,126.51-34.29c36.22-23.5,56.16-55.42,56.16-89.86v-7.24c0-8.84-7.16-16-16-16ZM365.09,142.51c-28.95,18.79-67.7,29.13-109.09,29.13s-80.14-10.35-109.09-29.13c-23.43-15.2-37.66-34.2-40.88-54.26h299.95c-3.22,20.05-17.46,39.06-40.88,54.26Z"/></svg>