<?xml version="1.0" encoding="UTF-8"?><svg id="Icon" xmlns="http://www.w3.org/2000/svg" viewBox="0 0 512 512"><path d="M257.15,360.41c-6.25,6.25-6.25,16.38,0,22.63,3.12,3.12,7.22,4.69,11.31,4.69s8.19-1.56,11.31-4.69l115.73-115.73c3-3,4.69-7.07,4.69-11.31s-1.69-8.31-4.69-11.31l-115.73-115.73c-6.25-6.25-16.38-6.25-22.63,0-6.25,6.25-6.25,16.38,0,22.63l104.41,104.41-104.41,104.41Z"/><path d="M121.69,97.22c-5.98,2.48-9.88,8.31-9.88,14.78v288c0,6.47,3.9,12.31,9.88,14.78,1.98.82,4.06,1.22,6.12,1.22,4.16,0,8.26-1.63,11.32-4.69l144-144c6.25-6.25,6.25-16.38,0-22.63L139.13,100.69c-4.58-4.58-11.46-5.94-17.44-3.47ZM143.81,150.63l105.37,105.37-105.37,105.37v-210.75Z"/></svg>