<?xml version="1.0" encoding="UTF-8"?><svg id="Icon" xmlns="http://www.w3.org/2000/svg" viewBox="0 0 512 512"><path d="M182.16,358.24c-3.02,0-6.02-.85-8.65-2.54l-134.16-86.24c-4.58-2.94-7.35-8.01-7.35-13.46s2.77-10.51,7.35-13.46l134.16-86.24c4.92-3.17,11.18-3.39,16.32-.58,5.14,2.8,8.33,8.19,8.33,14.04v172.49c0,5.85-3.2,11.24-8.33,14.04-2.39,1.31-5.03,1.96-7.67,1.96ZM77.59,256l88.57,56.94v-113.87l-88.57,56.94Z"/><path d="M329.84,358.24c-2.63,0-5.27-.65-7.67-1.96-5.14-2.8-8.33-8.19-8.33-14.04v-172.49c0-5.85,3.2-11.24,8.33-14.04,5.14-2.8,11.4-2.58,16.32.58l134.16,86.24c4.58,2.94,7.35,8.01,7.35,13.46s-2.77,10.51-7.35,13.46l-134.16,86.24c-2.63,1.69-5.64,2.54-8.65,2.54ZM345.84,199.06v113.87l88.57-56.94-88.57-56.94Z"/><path d="M256,439.41c-8.84,0-16-7.16-16-16V88.59c0-8.84,7.16-16,16-16s16,7.16,16,16v334.83c0,8.84-7.16,16-16,16Z"/></svg>