<?xml version="1.0" encoding="UTF-8"?><svg id="Icon" xmlns="http://www.w3.org/2000/svg" viewBox="0 0 512 512"><path d="M80,353.97c-2.63,0-5.27-.65-7.67-1.96-5.14-2.8-8.33-8.19-8.33-14.04v-163.94c0-5.85,3.2-11.24,8.33-14.04,5.14-2.81,11.4-2.58,16.32.58l127.51,81.97c4.58,2.94,7.35,8.01,7.35,13.46s-2.77,10.51-7.35,13.46l-127.51,81.97c-2.63,1.69-5.64,2.54-8.65,2.54ZM96,203.33v105.33l81.92-52.67-81.92-52.67Z"/><path d="M432,353.97c-3.02,0-6.02-.85-8.65-2.54l-127.51-81.97c-4.58-2.94-7.35-8.01-7.35-13.46s2.77-10.51,7.35-13.46l127.51-81.97c4.92-3.16,11.18-3.39,16.32-.58,5.14,2.8,8.33,8.19,8.33,14.04v163.94c0,5.85-3.2,11.24-8.33,14.04-2.39,1.31-5.03,1.96-7.67,1.96ZM334.08,256l81.92,52.67v-105.33l-81.92,52.67Z"/><path d="M256,431.12c-8.84,0-16-7.16-16-16V96.88c0-8.84,7.16-16,16-16s16,7.16,16,16v318.25c0,8.84-7.16,16-16,16Z"/></svg>