<?xml version="1.0" encoding="UTF-8"?><svg id="Icon" xmlns="http://www.w3.org/2000/svg" viewBox="0 0 512 512"><path d="M156.59,206.44c-27.39,0-49.59,22.18-49.59,49.56s22.2,49.48,49.59,49.48,49.59-21.8,49.59-49.7h13.87v-49.35h-63.46ZM156.59,279.09c-12.77,0-23.11-10.34-23.11-23.11s10.35-23.11,23.11-23.11,23.11,10.35,23.11,23.11-10.35,23.11-23.11,23.11Z"/><path d="M414.86,116.56H102.86c-29.3,0-53.14,23.84-53.14,53.14v34.25c-2.8-4.66-7.88-7.79-13.71-7.79-8.84,0-16,7.16-16,16v87.61c0,8.84,7.16,16,16,16,5.83,0,10.92-3.13,13.71-7.79v34.65c0,29.3,23.84,53.14,53.14,53.14h312c29.3,0,53.14-23.84,53.14-53.14v-172.93c0-29.3-23.84-53.14-53.14-53.14ZM81.71,342.63v-172.93c0-11.66,9.48-21.14,21.14-21.14h140v215.21H102.86c-11.66,0-21.14-9.48-21.14-21.14ZM436,342.63c0,11.66-9.48,21.14-21.14,21.14h-140v-215.21h140c11.66,0,21.14,9.48,21.14,21.14v172.93Z"/></svg>