<?xml version="1.0" encoding="UTF-8"?><svg id="Icon" xmlns="http://www.w3.org/2000/svg" viewBox="0 0 512 512"><path d="M176,384h-110.15c-.46,0-1.85-1.34-1.85-3.78v-248.44c0-2.44,1.39-3.78,1.85-3.78h110.15c8.84,0,16-7.16,16-16s-7.16-16-16-16h-110.15c-18.67,0-33.85,16.05-33.85,35.78v248.44c0,19.73,15.19,35.78,33.85,35.78h110.15c8.84,0,16-7.16,16-16s-7.16-16-16-16Z"/><path d="M443.05,96h-166.42v-48c0-8.84-7.16-16-16-16s-16,7.16-16,16v63.24c-.01.26-.04.51-.04.76s.03.51.04.76v351.24c0,8.84,7.16,16,16,16s16-7.16,16-16v-48h166.42c20.38,0,36.95-16.05,36.95-35.78v-248.44c0-19.73-16.58-35.78-36.95-35.78ZM448,380.22c0,2.05-2.27,3.78-4.95,3.78h-166.42V128h166.42c2.69,0,4.95,1.73,4.95,3.78v248.44Z"/><path d="M133.84,192.04l-48.84,127.92h28.71l10.92-30.51h48.3l11.01,30.51h30.51l-50.56-127.92h-30.06ZM132.13,267.78l9.93-27.62c2.89-8.06,5.08-14.72,6.59-19.95,2.23,7.22,4.42,13.87,6.59,19.95l10.11,27.62h-33.22Z"/><path d="M385.37,254.51c12.82-4.45,19.23-13.87,19.23-28.26,0-5.48-1.08-10.64-3.25-15.48-2.17-4.84-5.15-8.71-8.94-11.6-3.55-2.71-7.69-4.57-12.41-5.6-4.73-1.02-11.6-1.53-20.63-1.53h-46.04v127.92h49.11c13.96,0,24.31-2.53,31.06-7.58,4.15-3.07,7.39-7.12,9.7-12.14,2.32-5.02,3.48-10.52,3.48-16.48,0-15.11-7.1-24.86-21.31-29.25ZM341.4,212.71h11.83c8.36,0,14.14,1.26,17.33,3.79,3.73,2.89,5.6,7.28,5.6,13.18s-1.81,10.23-5.42,12.82c-2.89,2.11-8.22,3.16-15.98,3.16h-13.36v-32.95ZM375.48,291.21c-1.3,2.62-2.99,4.53-5.1,5.73-2.95,1.57-8.07,2.35-15.35,2.35h-13.63v-34.58h14.08c6.8,0,11.83,1.14,15.08,3.43,4.57,3.25,6.86,8.03,6.86,14.35,0,3.19-.65,6.09-1.94,8.71Z"/></svg>