<?xml version="1.0" encoding="UTF-8"?><svg id="Icon" xmlns="http://www.w3.org/2000/svg" viewBox="0 0 512 512"><path d="M378.74,249.07l-109.51-209.07c-2.58-4.92-7.67-8-13.23-8s-10.65,3.08-13.23,8l-109.51,209.07c-2.27,4.34-2.27,9.52,0,13.86l109.51,209.07c2.58,4.92,7.67,8,13.23,8s10.65-3.08,13.23-8l109.51-209.07c2.27-4.34,2.27-9.52,0-13.86ZM256,231.11c13.75,0,24.89,11.14,24.89,24.89s-11.14,24.89-24.89,24.89-24.89-11.14-24.89-24.89,11.14-24.89,24.89-24.89ZM256,432.88l-92.65-176.88h37.9c0,30.19,24.56,54.76,54.76,54.76s54.76-24.56,54.76-54.76h37.9l-92.65,176.88Z"/></svg>