<?xml version="1.0" encoding="UTF-8"?><svg id="Icon" xmlns="http://www.w3.org/2000/svg" viewBox="0 0 512 512"><path d="M289.35,125.47c-4.12-3.9-8.09-7.52-11.77-10.74-2.52-2.21-4.07-3.51-4.77-4.09l-.9-.7c-.3-.23-.6-.45-.91-.66l-.48-.35-.41-.23c-.08-.05-.15-.09-.23-.14h0s-.91-.54-.91-.54c-.78-.45-1.58-.85-2.39-1.2l-1.3-.52-1.74-.59c-.51-.15-1.03-.28-1.64-.44l-.71-.16c-.46-.09-.92-.16-1.41-.23-.72-.11-1.46-.18-2.2-.22-.53-.03-1.05-.05-1.59-.05l-1.47.05c-.77.04-1.54.12-2.28.23-.46.06-.93.13-1.39.22l-.9.2c-.49.12-.97.24-1.46.39l-.36.11c-.27.08-.54.17-.8.26l-.33.12c-.48.18-.96.37-1.45.58l-.32.14c-.58.26-1.16.54-1.79.88l-.6.34c-.31.18-.62.36-.93.56-.63.39-1.24.81-1.8,1.25-.05.04-.1.08-.16.12l-.76.59c-.7.58-2.25,1.88-4.74,4.06-3.72,3.24-7.69,6.86-11.79,10.75-12.82,12.12-24.77,24.79-35.53,37.66-28.9,34.59-46.56,67.56-52.49,98.02-1.49,7.68-2.25,15.29-2.25,22.61v.02c0,68.16,55.45,123.61,123.61,123.61,32.33,0,62.92-12.4,86.11-34.93,23.14-22.47,36.44-52.58,37.44-84.77l.06-3.67v-.24c0-7.33-.76-14.95-2.25-22.64-5.93-30.45-23.59-63.43-52.49-98.02-10.75-12.86-22.71-25.53-35.51-37.65ZM347.61,283.65l-.05,3.15c-.77,23.8-10.62,46.06-27.75,62.69-17.19,16.69-39.85,25.88-63.82,25.88-50.48,0-91.55-41.04-91.61-91.5v-.18s0,0,0,0c0-5.26.57-10.8,1.66-16.44,4.89-25.09,20.24-53.22,45.63-83.61,9.96-11.91,21.05-23.67,32.98-34.95,3.8-3.6,7.44-6.92,10.85-9.89.17-.15.33-.29.49-.43.17.15.34.3.52.45,3.38,2.95,7.03,6.27,10.83,9.88,11.92,11.27,23.01,23.03,32.96,34.93,25.4,30.39,40.75,58.52,45.64,83.61,1.1,5.63,1.66,11.15,1.67,16.4Z"/><path d="M226.71,326.23c-19.58-8.96-24.23-31.49-23.41-41,.57-6.6-4.33-12.42-10.93-12.98-6.59-.57-12.41,4.33-12.98,10.93-1.59,18.48,7.05,51.02,37.34,64.88,1.62.74,3.32,1.09,4.99,1.09,4.55,0,8.9-2.6,10.92-7.01,2.76-6.03.11-13.15-5.92-15.91Z"/><path d="M156.72,64h-63.18c-16.29,0-29.54,13.25-29.54,29.54v63.18c0,8.84,7.16,16,16,16s16-7.16,16-16v-60.72h60.72c8.84,0,16-7.16,16-16s-7.16-16-16-16Z"/><path d="M448,93.54c0-16.29-13.25-29.54-29.54-29.54h-63.18c-8.84,0-16,7.16-16,16s7.16,16,16,16h60.72v60.72c0,8.84,7.16,16,16,16s16-7.16,16-16v-63.18Z"/><path d="M172.72,432c0-8.84-7.16-16-16-16h-60.72v-60.72c0-8.84-7.16-16-16-16s-16,7.16-16,16v63.18c0,16.29,13.25,29.54,29.54,29.54h63.18c8.84,0,16-7.16,16-16Z"/><path d="M432,339.28c-8.84,0-16,7.16-16,16v60.72h-60.72c-8.84,0-16,7.16-16,16s7.16,16,16,16h63.18c16.29,0,29.54-13.25,29.54-29.54v-63.18c0-8.84-7.16-16-16-16Z"/></svg>