<?xml version="1.0" encoding="UTF-8"?><svg id="Icon" xmlns="http://www.w3.org/2000/svg" viewBox="0 0 512 512"><path d="M304.29,119.68v32.9c0,8.84,7.16,16,16,16s16-7.16,16-16v-72.58c0-8.84-7.16-16-16-16h-72.58c-8.84,0-16,7.16-16,16s7.16,16,16,16h35.01l-214.39,214.39c-6.25,6.25-6.25,16.38,0,22.63,3.12,3.12,7.22,4.69,11.31,4.69s8.19-1.56,11.31-4.69l213.34-213.34Z"/><path d="M104.75,238.58c8.84,0,16-7.16,16-16v-32.34c0-10.04,8.17-18.22,18.22-18.22h28.81c8.84,0,16-7.16,16-16s-7.16-16-16-16h-28.81c-27.69,0-50.22,22.53-50.22,50.22v32.34c0,8.84,7.16,16,16,16Z"/><path d="M378.48,140.03c-8.84,0-16,7.16-16,16s7.16,16,16,16c10.04,0,18.22,8.17,18.22,18.22v239.51c0,10.04-8.17,18.22-18.22,18.22h-239.51c-10.04,0-18.22-8.17-18.22-18.22v-61.47c0-8.84-7.16-16-16-16s-16,7.16-16,16v61.47c0,27.69,22.53,50.22,50.22,50.22h239.51c27.69,0,50.22-22.53,50.22-50.22v-239.51c0-27.69-22.53-50.22-50.22-50.22Z"/></svg>