<?xml version="1.0" encoding="UTF-8"?><svg id="Icon" xmlns="http://www.w3.org/2000/svg" viewBox="0 0 512 512"><path d="M433.67,348.3c11.59-11.63,13.97-22.91,13.93-30.33-.05-7.33-2.5-18.41-13.94-29.6-6.55-6.41-13.44-12.2-20.72-18.33-3.17-2.67-6.45-5.42-9.81-8.33l-3.42-3.42,43.61-43.61c6.25-6.25,6.25-16.38,0-22.63-6.25-6.25-16.38-6.25-22.63,0l-43.6,43.6-102.68-102.82,41.5-41.5c6.25-6.25,6.25-16.38,0-22.63-6.25-6.25-16.38-6.25-22.63,0l-41.49,41.49-1.42-1.42c-3.2-3.7-6.05-7.11-8.82-10.42-6.01-7.18-11.2-13.38-17.2-19.29-20.67-20.33-41.69-20.3-62.47.09-2.62,2.57-5.15,5.06-7.61,7.49l270.58,270.58c2.93-2.98,5.86-5.97,8.81-8.93Z"/><path d="M443.31,420.69L91.31,68.69c-6.25-6.25-16.38-6.25-22.63,0-6.25,6.25-6.25,16.38,0,22.63l41.27,41.27c-26.4,30.12-41.61,66.36-45.21,107.81-4.1,47.19,8.81,91.41,39.45,135.18l.74,1.06,3.47,3.56-29.36,29.36c-6.25,6.25-6.25,16.38,0,22.63,3.12,3.12,7.22,4.69,11.31,4.69s8.19-1.56,11.31-4.69l29.07-29.07,4.02,4.13,1.83,1.08c2.31,1.36,4.16,2.44,5.72,3.35,2.47,1.44,4.1,2.39,5.54,3.31,34.33,22.09,71.26,33.02,107.71,33.02,43.58,0,86.45-15.64,123.32-46.5l41.82,41.82c3.12,3.12,7.22,4.69,11.31,4.69s8.19-1.56,11.31-4.69c6.25-6.25,6.25-16.38,0-22.63Z"/></svg>