<?xml version="1.0" encoding="UTF-8"?><svg id="Icon" xmlns="http://www.w3.org/2000/svg" viewBox="0 0 512 512"><path d="M448,96h-96c-17.65,0-32,14.35-32,32h-128c0-17.65-14.35-32-32-32h-96c-17.65,0-32,14.35-32,32v32c0,17.65,14.35,32,32,32h96c17.65,0,32-14.35,32-32h56.37c-3.53,7.47-5.52,15.85-5.52,24.7v46.57c0,13.62-11.08,24.7-24.7,24.7h-26.15c-.02-17.63-14.37-31.97-32-31.97h-96c-17.65,0-32,14.35-32,32v32c0,17.65,14.35,32,32,32h96c17.65,0,32-14.35,32-32v-.03h26.15c31.26,0,56.7-25.44,56.7-56.7v-46.57c0-13.62,10.4-24.7,23.19-24.7h21.96c0,17.65,14.35,32,32,32h96c17.65,0,32-14.35,32-32v-32c0-17.65-14.35-32-32-32ZM160,160h-96l-.02-32s0,0,.02,0h96v32ZM160,288h-96l-.02-32s0,0,.02,0h96v32ZM448,160h-96l-.02-32s0,0,.02,0h96v32Z"/><path d="M244.62,479.44l62.02-16.91c2.69-.73,5.13-2.15,7.1-4.12l152.23-152.23c18.67-18.67,18.67-49.06,0-67.73-18.67-18.67-49.06-18.67-67.73,0l-152.23,152.23c-1.97,1.97-3.39,4.42-4.12,7.1l-16.91,62.02c-1.51,5.54.06,11.46,4.12,15.52,3.04,3.04,7.13,4.69,11.31,4.69,1.4,0,2.82-.19,4.21-.56ZM420.87,261.07c6.2-6.2,16.28-6.2,22.48,0,6.2,6.2,6.2,16.28,0,22.48l-148.76,148.76c-2.38-4.32-5.8-9.44-10.49-14.08-3.79-3.75-7.78-6.73-11.36-9.02l148.13-148.13Z"/></svg>