<?xml version="1.0" encoding="UTF-8"?><svg id="Icon" xmlns="http://www.w3.org/2000/svg" viewBox="0 0 512 512"><path d="M129.93,381.48c-3.95,0-7.9-1.45-10.99-4.38l-81.93-77.48c-4.76-4.5-6.3-11.45-3.87-17.54s8.31-10.08,14.87-10.08h416c8.84,0,16,7.16,16,16s-7.16,16-16,16H88.21l52.72,49.86c6.42,6.07,6.7,16.2.63,22.62-3.15,3.33-7.38,5.01-11.63,5.01Z"/><path d="M464,240H48c-8.84,0-16-7.16-16-16s7.16-16,16-16h375.79l-52.72-49.86c-6.42-6.07-6.7-16.2-.63-22.62,6.07-6.42,16.2-6.7,22.62-.63l81.93,77.48c4.76,4.5,6.3,11.45,3.87,17.54-2.42,6.09-8.31,10.08-14.87,10.08Z"/></svg>