<?xml version="1.0" encoding="UTF-8"?><svg id="Icon" xmlns="http://www.w3.org/2000/svg" viewBox="0 0 512 512"><path d="M463.75,239.94h-15.17c-.19-.73-.36-1.39-.52-1.97-.36-1.37-.6-2.27-.76-2.99-11.08-51.07-50.21-84.72-102.12-87.81-9.72-.58-19.36-.49-28.68-.41-2.95.03-5.9.05-8.84.06-11.3.02-18.17,4.57-21.94,8.39-3.72,3.77-8.14,10.58-8.04,21.59v15.35h-43.85v-14.4s0-.13,0-.13c-.16-19.42-11.43-30.67-30.91-30.86-15.03-.15-26.55-.02-37.37.43-23.92.98-45.62,9.52-64.51,25.39-19.98,16.78-32.39,38.77-37.93,67.09h-15.36c-8.84,0-16,7.16-16,16s7.16,16,16,16h15.17c.19.73.36,1.39.52,1.97.36,1.37.6,2.27.76,2.99,11.08,51.07,50.21,84.72,102.12,87.81,6.26.37,12.48.47,18.61.47,3.39,0,6.75-.03,10.08-.06,2.95-.03,5.9-.05,8.84-.06,11.3-.02,18.17-4.57,21.94-8.39,3.72-3.77,8.14-10.58,8.04-21.59v-16.62c.51.05,1.03.08,1.55.08h42.3v15.59s0,.13,0,.13c.16,19.42,11.43,30.67,30.91,30.86,3.93.04,7.61.06,11.11.06,9.89,0,18.27-.16,26.26-.48,23.92-.98,45.62-9.52,64.51-25.39,19.98-16.78,32.39-38.77,37.93-67.09h15.36c8.84,0,16-7.16,16-16s-7.16-16-16-16ZM235.37,286.27c-.52,0-1.04.03-1.55.08v-62.19h43.85v62.11h-42.3Z"/></svg>