<?xml version="1.0" encoding="UTF-8"?><svg id="Icon" xmlns="http://www.w3.org/2000/svg" viewBox="0 0 512 512"><path d="M280,448c-8.84,0-16-7.16-16-16,0-101.46-82.54-184-184-184-8.84,0-16-7.16-16-16s7.16-16,16-16c57.7,0,111.94,22.47,152.74,63.27,40.8,40.8,63.26,95.04,63.26,152.73,0,8.84-7.16,16-16,16Z"/><path d="M432.66,447.34c-8.84,0-16-7.16-16-16,0-89.75-34.95-174.13-98.41-237.59S170.41,95.34,80.66,95.34c-8.84,0-16-7.16-16-16s7.16-16,16-16c49.67,0,97.87,9.73,143.25,28.93,43.82,18.54,83.18,45.07,116.97,78.86s60.32,73.15,78.86,116.97c19.19,45.38,28.93,93.57,28.93,143.25,0,8.84-7.16,16-16,16Z"/><path d="M102.87,448c-21.43,0-38.87-17.43-38.87-38.87s17.43-38.87,38.87-38.87,38.87,17.43,38.87,38.87-17.43,38.87-38.87,38.87Z"/></svg>