<?xml version="1.0" encoding="UTF-8"?><svg id="Icon" xmlns="http://www.w3.org/2000/svg" viewBox="0 0 512 512"><path d="M412.93,270.05c-3.17-2.67-6.45-5.42-9.81-8.33l-3.42-3.42,43.61-43.61c6.25-6.25,6.25-16.38,0-22.63-6.25-6.25-16.38-6.25-22.63,0l-43.6,43.6-102.68-102.82,41.5-41.5c6.25-6.25,6.25-16.38,0-22.63-6.25-6.25-16.38-6.25-22.63,0l-41.49,41.49-1.42-1.42c-3.2-3.7-6.05-7.11-8.82-10.42-6.01-7.18-11.2-13.38-17.2-19.29-20.67-20.33-41.69-20.3-62.47.09-20.05,19.66-35.07,35.02-48.71,49.83-28.39,30.82-44.68,68.3-48.43,111.4-4.1,47.19,8.81,91.41,39.45,135.18l.74,1.06,3.47,3.56-29.36,29.36c-6.25,6.25-6.25,16.38,0,22.63,3.12,3.12,7.22,4.69,11.31,4.69s8.19-1.56,11.31-4.69l29.07-29.07,4.02,4.13,1.83,1.08c2.31,1.36,4.16,2.44,5.72,3.35,2.47,1.44,4.1,2.39,5.54,3.31,34.33,22.09,71.26,33.02,107.71,33.02,45.54,0,90.33-17.08,128.28-50.76,13.36-11.86,25.92-24.64,38.06-37,3.92-3.99,7.84-7.98,11.78-11.93,11.59-11.63,13.97-22.91,13.93-30.33-.05-7.33-2.5-18.41-13.94-29.6-6.55-6.41-13.44-12.2-20.72-18.33ZM411.01,325.71c-4,4.01-7.97,8.05-11.94,12.1-11.77,11.98-23.94,24.37-36.48,35.5-28.37,25.18-61.55,39.83-95.96,42.38-34.35,2.54-69.44-7.01-101.48-27.62-2.03-1.31-4.01-2.46-6.75-4.05-1.07-.62-2.29-1.33-3.7-2.16l-25.02-25.68c-25.98-37.5-36.49-73.44-33.05-113.01,3.16-36.39,16.27-66.64,40.08-92.48,13.26-14.39,27.94-29.4,47.58-48.67,6.03-5.92,8.63-6.1,8.91-6.1h0c.28,0,2.82.17,8.72,5.98,4.9,4.81,9.62,10.46,15.1,17.01,2.82,3.37,6.01,7.19,9.54,11.26l.37.43,153.96,154.16.85.79c3.69,3.19,7.2,6.14,10.59,9,7.11,5.98,13.25,11.15,18.95,16.71,2.73,2.67,4.3,5.19,4.32,6.92.01,1.82-1.7,4.64-4.59,7.53Z"/></svg>