<?xml version="1.0" encoding="UTF-8"?><svg id="Icon" xmlns="http://www.w3.org/2000/svg" viewBox="0 0 512 512"><path d="M432,64H80c-8.84,0-16,7.16-16,16v320c0,8.84,7.16,16,16,16h16.27c-.17.94-.27,1.9-.27,2.88v45.12c0,8.84,7.16,16,16,16h288c8.84,0,16-7.16,16-16v-45.12c0-.99-.1-1.95-.27-2.88h16.27c8.84,0,16-7.16,16-16V80c0-8.84-7.16-16-16-16ZM96,96h144v288H96V96ZM384,418.88v29.12H128v-29.12c0-.99-.1-1.95-.27-2.88h256.55c-.17.94-.27,1.9-.27,2.88ZM416,384h-144V96h144v288Z"/><path d="M320,272c8.84,0,16-7.16,16-16v-32c0-8.84-7.16-16-16-16s-16,7.16-16,16v32c0,8.84,7.16,16,16,16Z"/><path d="M214.21,232.65c-2.75-5.31-8.23-8.65-14.21-8.65h-30.18l21.34-32.15c4.89-7.36,2.88-17.29-4.48-22.18-7.36-4.89-17.29-2.88-22.18,4.48l-37.83,57c-3.26,4.91-3.56,11.22-.77,16.41,2.79,5.2,8.2,8.44,14.1,8.44h29.07l-23.89,33.76c-5.1,7.21-3.4,17.2,3.82,22.3,2.81,1.99,6.03,2.94,9.23,2.94,5.02,0,9.96-2.35,13.07-6.76l41.76-59c3.46-4.88,3.9-11.28,1.15-16.6Z"/></svg>