<?xml version="1.0" encoding="UTF-8"?><svg id="Icon" xmlns="http://www.w3.org/2000/svg" viewBox="0 0 512 512"><path d="M244.87,312.09c0,6.88,5.57,12.45,12.45,12.45s12.45-5.57,12.45-12.45-5.57-12.45-12.45-12.45-12.45,5.57-12.45,12.45Z"/><path d="M436,351.8h-64.23l16.69-16.69c6.25-6.25,6.25-16.38,0-22.63-6.25-6.25-16.38-6.25-22.63,0l-44,44c-6.25,6.25-6.25,16.38,0,22.63l44,44c3.12,3.12,7.22,4.69,11.31,4.69s8.19-1.56,11.31-4.69c6.25-6.25,6.25-16.38,0-22.63l-16.69-16.69h64.23c8.84,0,16-7.16,16-16s-7.16-16-16-16Z"/><path d="M291,356.43H97.47c-.34-1.25-.06-2.7.32-3.22l.14-.19c32.13-44.38,73.93-73.48,120.87-84.14,45.11-10.24,92.48-2,133.38,23.22,7.52,4.64,17.38,2.3,22.02-5.22,4.64-7.52,2.3-17.38-5.22-22.02-48.08-29.65-103.93-39.3-157.26-27.19-.63.14-1.25.3-1.88.45l-47.6-56.1c3.73-6.74,5.86-14.49,5.86-22.73,0-25.99-21.14-47.13-47.13-47.13s-47.13,21.14-47.13,47.13,21.14,47.13,47.13,47.13c6.08,0,11.89-1.17,17.23-3.27l38.7,45.61c-40.33,16.72-76.1,45.76-104.83,85.41-7.04,9.51-8.74,22.47-4.44,33.87,4.58,12.31,15.35,20.31,27.55,20.38h195.81c8.84,0,16-7.16,16-16s-7.16-16-16-16ZM105.85,159.3c0-8.34,6.79-15.13,15.13-15.13s15.13,6.79,15.13,15.13-6.79,15.13-15.13,15.13-15.13-6.79-15.13-15.13Z"/></svg>