<?xml version="1.0" encoding="UTF-8"?><svg id="Icon" xmlns="http://www.w3.org/2000/svg" viewBox="0 0 512 512"><path d="M256,299.64c-6.88,0-12.45,5.57-12.45,12.45s5.57,12.45,12.45,12.45,12.45-5.57,12.45-12.45-5.57-12.45-12.45-12.45Z"/><path d="M441.23,334.17c-6.19-8.55-12.86-16.75-19.82-24.38-48.58-53.29-111.39-80.62-176.84-76.92-12.2.69-24.24,2.44-36.06,5.23l-47.58-56.06c3.73-6.74,5.86-14.49,5.86-22.73,0-25.99-21.14-47.13-47.13-47.13s-47.13,21.14-47.13,47.13,21.14,47.13,47.13,47.13c6.08,0,11.89-1.17,17.23-3.28l38.74,45.65c-8.6,3.59-17.06,7.75-25.35,12.52-30.38,17.45-57.13,41.96-79.51,72.84-7.05,9.51-8.75,22.48-4.44,33.88,4.59,12.31,15.35,20.31,27.54,20.38h324.36c12.09-.07,22.86-8.06,27.44-20.37,4.31-11.41,2.61-24.38-4.44-33.89ZM104.53,159.3c0-8.34,6.79-15.13,15.13-15.13s15.13,6.79,15.13,15.13-6.79,15.13-15.13,15.13-15.13-6.79-15.13-15.13ZM415.84,356.43H96.16c-.34-1.25-.06-2.7.32-3.22l.14-.19c38.83-53.63,92.01-84.96,149.75-88.21,3.28-.18,6.54-.28,9.8-.28,52.15,0,102.1,23.48,141.59,66.81,6.17,6.77,12.1,14.07,17.61,21.68l.14.19c.39.52.67,1.96.32,3.22Z"/></svg>