<?xml version="1.0" encoding="UTF-8"?><svg id="Icon" xmlns="http://www.w3.org/2000/svg" viewBox="0 0 512 512"><path d="M245.79,312.09c0,6.88,5.57,12.45,12.45,12.45s12.45-5.57,12.45-12.45-5.57-12.45-12.45-12.45-12.45,5.57-12.45,12.45Z"/><path d="M419.74,348.74c-.27-.26-.55-.52-.84-.76-9.9-8.36-22.23-13.14-35.09-13.71,11.86-7.48,19.76-20.68,19.76-35.7,0-23.26-18.92-42.19-42.19-42.19s-42.19,18.92-42.19,42.19c0,15.03,7.9,28.23,19.76,35.71-12.85.58-25.17,5.34-35.07,13.68-.3.25-.59.51-.87.78-14.92,14.55-14.53,43.29-12.96,59.12.44,4.47,2.74,8.55,6.34,11.25,16.08,12.02,37.94,17.79,64.98,17.23,1.26.03,2.5.04,3.74.04,25.31,0,45.9-5.8,61.25-17.27,3.6-2.69,5.91-6.78,6.35-11.26,1.55-15.85,1.93-44.6-12.97-59.11ZM361.38,288.38c5.62,0,10.19,4.57,10.19,10.19s-4.57,10.19-10.19,10.19-10.19-4.57-10.19-10.19,4.57-10.19,10.19-10.19ZM401.38,397.13c-9.9,5.17-23.13,7.59-39.47,7.21-.12,0-.25,0-.37,0h-.31c-.12,0-.24,0-.36,0-16.34.38-29.59-2.05-39.48-7.22-.51-14.56,2.1-23.02,3.76-25.22,3.6-2.84,7.84-4.68,12.33-5.38,7.01,4.75,15.28,7.31,23.91,7.31s16.9-2.56,23.91-7.31c4.48.7,8.72,2.54,12.31,5.39,1.66,2.2,4.26,10.67,3.77,25.23Z"/><path d="M262.86,356.43H98.39c-.34-1.25-.06-2.7.32-3.22l.14-.19c26.28-36.29,59.85-62.91,97.1-76.97,35.81-13.52,73.99-15.16,110.4-4.72,8.5,2.44,17.35-2.48,19.79-10.97,2.43-8.49-2.48-17.35-10.97-19.79-34.98-10.02-70.53-10.57-104.47-2.5l-47.54-56.03c3.73-6.74,5.86-14.49,5.86-22.73,0-25.99-21.14-47.13-47.13-47.13s-47.13,21.14-47.13,47.13,21.14,47.13,47.13,47.13c6.08,0,11.89-1.17,17.23-3.27l38.72,45.63c-39.73,16.61-76,45.58-104.84,85.39-7.05,9.51-8.75,22.48-4.44,33.88,4.59,12.31,15.35,20.3,27.54,20.38h166.76c8.84,0,16-7.16,16-16s-7.16-16-16-16ZM106.77,159.3c0-8.34,6.79-15.13,15.13-15.13s15.13,6.79,15.13,15.13-6.79,15.13-15.13,15.13-15.13-6.79-15.13-15.13Z"/></svg>