<?xml version="1.0" encoding="UTF-8"?><svg id="Icon" xmlns="http://www.w3.org/2000/svg" viewBox="0 0 512 512"><path d="M383.95,176h-.05c-8.55.03-16.57,3.38-22.6,9.44-6.03,6.06-9.33,14.11-9.3,22.66.05,17.61,14.4,31.9,32,31.9h.1c17.59-.05,31.9-14.41,31.9-32.05-.05-17.62-14.43-31.95-32.05-31.95Z"/><path d="M304,176H112c-8.84,0-16,7.16-16,16v128c0,8.84,7.16,16,16,16h192c8.84,0,16-7.16,16-16v-128c0-8.84-7.16-16-16-16ZM288,304h-160v-96h160v96Z"/><path d="M416,128H96c-26.47,0-48,21.53-48,48v160c0,26.47,21.53,48,48,48h320c26.47,0,48-21.53,48-48v-160c0-26.47-21.53-48-48-48ZM432,336c0,8.82-7.18,16-16,16H96c-8.82,0-16-7.18-16-16v-160c0-8.82,7.18-16,16-16h320c8.82,0,16,7.18,16,16v160Z"/></svg>