<?xml version="1.0" encoding="UTF-8"?><svg id="Icon" xmlns="http://www.w3.org/2000/svg" viewBox="0 0 512 512"><path d="M208.86,308.83v-.32c-.08,0-.16,0-.24,0,.08.1.16.21.24.32Z"/><path d="M208.86,328.11v-.32c-.08.11-.16.22-.24.33.08,0,.16,0,.24,0Z"/><path d="M464,272h-50.75c-6.6-18.62-24.39-32-45.25-32-26.47,0-48,21.53-48,48s21.53,48,48,48c20.86,0,38.64-13.38,45.25-32h50.75c8.84,0,16-7.16,16-16s-7.16-16-16-16ZM368,304c-8.82,0-16-7.18-16-16s7.18-16,16-16,16,7.18,16,16-7.18,16-16,16Z"/><path d="M321.32,196.02c7.25-5.05,9.04-15.02,4-22.27s-15.02-9.04-22.27-4l-114.51,79.68c-7.98-5.92-17.85-9.42-28.53-9.42-20.95,0-38.79,13.49-45.33,32.24-.87-.15-1.76-.24-2.67-.24H48c-8.84,0-16,7.16-16,16s7.16,16,16,16h64c.91,0,1.8-.09,2.67-.24,6.54,18.75,24.38,32.24,45.33,32.24,26.47,0,48-21.53,48-48,0-4.17-.54-8.21-1.54-12.07l114.86-79.91ZM160,304c-8.82,0-16-7.18-16-16s7.18-16,16-16,16,7.18,16,16-7.18,16-16,16Z"/></svg>