<?xml version="1.0" encoding="UTF-8"?><svg id="Icon" xmlns="http://www.w3.org/2000/svg" viewBox="0 0 512 512"><path d="M208.86,308.83v-.32c-.08,0-.16,0-.24,0,.08.1.16.21.24.32Z"/><path d="M208.86,328.11v-.32c-.08.11-.16.22-.24.33.08,0,.16,0,.24,0Z"/><path d="M464,272h-64c-.91,0-1.8.09-2.67.24-6.54-18.75-24.38-32.24-45.33-32.24s-38.64,13.38-45.25,32h-2.75v-32.81l34.2-14.01c8.18-3.35,12.09-12.7,8.74-20.87-3.35-8.18-12.7-12.09-20.87-8.74l-22.1,9.06c-.44-8.44-7.4-15.16-15.96-15.16s-16,7.16-16,16v12.26l-81.37,33.35c-8.32-6.91-19-11.07-30.63-11.07-20.95,0-38.79,13.49-45.33,32.24-.87-.15-1.76-.24-2.67-.24H48c-8.84,0-16,7.16-16,16s7.16,16,16,16h64c.91,0,1.8-.09,2.67-.24,6.54,18.75,24.38,32.24,45.33,32.24,26.47,0,48-21.53,48-48,0-3.11-.31-6.15-.88-9.1l64.88-26.59v35.69c0,8.84,7.16,16,16,16h18.75c6.6,18.62,24.39,32,45.25,32s38.79-13.49,45.33-32.24c.87.15,1.76.24,2.67.24h64c8.84,0,16-7.16,16-16s-7.16-16-16-16ZM160,304c-8.82,0-16-7.18-16-16s7.18-16,16-16,16,7.18,16,16-7.18,16-16,16ZM352,304c-8.82,0-16-7.18-16-16s7.18-16,16-16,16,7.18,16,16-7.18,16-16,16Z"/></svg>