<?xml version="1.0" encoding="UTF-8"?><svg id="Icon" xmlns="http://www.w3.org/2000/svg" viewBox="0 0 512 512"><path d="M331.64,112h-59.95c-8.84,0-16,7.16-16,16s7.16,16,16,16h59.95c64.16,0,116.36,50.24,116.36,112s-52.2,112-116.36,112h-151.27c-64.16,0-116.36-50.24-116.36-112s50.6-110.44,113.4-111.96l-24.77,24.77c-6.25,6.25-6.25,16.38,0,22.63,3.12,3.12,7.22,4.69,11.31,4.69s8.19-1.56,11.31-4.69l52.12-52.12c3-3,4.69-7.07,4.69-11.31s-1.69-8.31-4.69-11.31l-52.12-52.12c-6.25-6.25-16.38-6.25-22.63,0-6.25,6.25-6.25,16.38,0,22.63l24.85,24.85c-80.48,1.5-145.47,65.5-145.47,143.96s66.56,144,148.36,144h151.27c81.81,0,148.36-64.6,148.36-144s-66.56-144-148.36-144Z"/></svg>