<?xml version="1.0" encoding="UTF-8"?><svg id="Icon" xmlns="http://www.w3.org/2000/svg" viewBox="0 0 512 512"><path d="M337.7,214.5c.06,0,.12,0,.18,0,.47,0,.95-.02,1.42-.07.45-.04.9-.12,1.34-.2.08-.01.16-.02.24-.04,1.06-.21,2.08-.53,3.06-.94.08-.04.16-.08.25-.12.4-.18.79-.36,1.17-.57.2-.11.39-.24.58-.35.26-.16.52-.31.77-.48.19-.13.37-.28.56-.42.24-.18.49-.36.72-.56.17-.14.33-.3.49-.45.24-.22.48-.44.7-.67.05-.06.11-.1.17-.16.11-.11.2-.24.3-.36.2-.22.39-.44.57-.67.15-.19.3-.39.44-.59.16-.22.32-.45.47-.68.14-.22.27-.44.4-.66.13-.23.26-.45.38-.69.12-.23.23-.47.34-.7.11-.24.21-.48.31-.72.09-.24.18-.48.26-.72.09-.25.17-.5.24-.76.07-.25.13-.5.19-.75.06-.25.12-.51.16-.77.05-.27.09-.53.12-.8.03-.25.06-.5.08-.75.02-.29.04-.58.04-.87,0-.16.02-.31.02-.48v-54c0-8.84-7.16-16-16-16s-16,7.16-16,16v17.01l-14.63-13.75c-10.13-10.08-22.59-17.92-36.06-22.69-50.42-17.84-105.96,8.66-123.8,59.08-2.95,8.33,1.42,17.47,9.75,20.42,8.33,2.95,17.47-1.42,20.42-9.75,11.96-33.79,49.17-51.54,82.96-39.59,9.08,3.21,17.48,8.51,24.29,15.33.12.12.24.23.36.35l12.32,11.58h-13.61c-8.84,0-16,7.16-16,16s7.16,16,16,16h54Z"/><circle cx="400" cy="320" r="80"/><path d="M112,240c-44.11,0-80,35.89-80,80s35.89,80,80,80,80-35.89,80-80-35.89-80-80-80ZM112,368c-26.47,0-48-21.53-48-48s21.53-48,48-48,48,21.53,48,48-21.53,48-48,48Z"/></svg>