<?xml version="1.0" encoding="UTF-8"?><svg id="Icon" xmlns="http://www.w3.org/2000/svg" viewBox="0 0 512 512"><path d="M432,112h-32v-16c8.84,0,16-7.16,16-16s-7.16-16-16-16h-112c-8.84,0-16,7.16-16,16s7.16,16,16,16v16h-64v-16c8.84,0,16-7.16,16-16s-7.16-16-16-16h-112c-8.84,0-16,7.16-16,16s6.9,15.71,15.5,15.97v16.03h-31.5c-8.84,0-16,7.16-16,16v272c0,8.84,7.16,16,16,16h16v16c0,8.84,7.16,16,16,16s16-7.16,16-16v-16h256v16c0,8.84,7.16,16,16,16s16-7.16,16-16v-16h16c8.84,0,16-7.16,16-16V128c0-8.84-7.16-16-16-16ZM320,96h48v16h-48v-16ZM143.5,96h48.5v16h-48.5v-16ZM96,144h144v240H96v-240ZM416,384h-144v-240h144v240Z"/><path d="M144,176h-16c-8.84,0-16,7.16-16,16s7.16,16,16,16h16c8.84,0,16-7.16,16-16s-7.16-16-16-16Z"/><path d="M192,208h16c8.84,0,16-7.16,16-16s-7.16-16-16-16h-16c-8.84,0-16,7.16-16,16s7.16,16,16,16Z"/><path d="M144,224h-16c-8.84,0-16,7.16-16,16s7.16,16,16,16h16c8.84,0,16-7.16,16-16s-7.16-16-16-16Z"/><path d="M208,224h-16c-8.84,0-16,7.16-16,16s7.16,16,16,16h16c8.84,0,16-7.16,16-16s-7.16-16-16-16Z"/><path d="M304,208h16c8.84,0,16-7.16,16-16s-7.16-16-16-16h-16c-8.84,0-16,7.16-16,16s7.16,16,16,16Z"/><path d="M368,208h16c8.84,0,16-7.16,16-16s-7.16-16-16-16h-16c-8.84,0-16,7.16-16,16s7.16,16,16,16Z"/><path d="M320,224h-16c-8.84,0-16,7.16-16,16s7.16,16,16,16h16c8.84,0,16-7.16,16-16s-7.16-16-16-16Z"/><path d="M368,256h16c8.84,0,16-7.16,16-16s-7.16-16-16-16h-16c-8.84,0-16,7.16-16,16s7.16,16,16,16Z"/></svg>