<?xml version="1.0" encoding="UTF-8"?><svg id="Icon" xmlns="http://www.w3.org/2000/svg" viewBox="0 0 512 512"><path d="M420.38,130.05l-136.83-78.19c-17-9.81-38.11-9.81-55.05-.04l-136.95,78.26c-16.98,9.8-27.54,28.07-27.56,47.69v156.46c.02,19.6,10.58,37.87,27.62,47.71l136.83,78.19c8.51,4.91,18.04,7.36,27.57,7.36s19.02-2.45,27.48-7.33l136.95-78.26c16.98-9.8,27.54-28.07,27.56-47.67v-156.48c-.02-19.6-10.58-37.87-27.62-47.71ZM416,334.21c0,8.22-4.44,15.88-11.49,19.96l-136.95,78.26c-7.13,4.12-15.98,4.12-23.17-.04l-136.83-78.19c-7.12-4.11-11.55-11.77-11.56-19.97v-156.43c0-8.22,4.44-15.88,11.49-19.96l136.95-78.26c3.56-2.05,7.54-3.08,11.54-3.08s8.03,1.04,11.64,3.12l136.83,78.19c7.12,4.11,11.55,11.77,11.56,19.97v156.43Z"/><path d="M357.79,197.23c-4.42-7.65-14.2-10.27-21.86-5.86l-63.94,36.91v-73.83c0-8.84-7.16-16-16-16s-16,7.16-16,16v73.83l-63.94-36.91c-7.65-4.42-17.44-1.79-21.86,5.86-4.42,7.65-1.8,17.44,5.86,21.86l63.94,36.91-63.94,36.91c-7.65,4.42-10.27,14.2-5.86,21.86,2.96,5.13,8.34,8,13.87,8,2.71,0,5.47-.69,7.98-2.15l63.94-36.91v73.83c0,8.84,7.16,16,16,16s16-7.16,16-16v-73.83l63.94,36.91c2.52,1.46,5.27,2.15,7.98,2.15,5.53,0,10.91-2.87,13.87-8,4.42-7.65,1.8-17.44-5.86-21.86l-63.94-36.91,63.94-36.91c7.65-4.42,10.27-14.2,5.86-21.86Z"/></svg>