<?xml version="1.0" encoding="UTF-8"?><svg id="Icon" xmlns="http://www.w3.org/2000/svg" viewBox="0 0 512 512"><path d="M444,346.07l-33.94-19.6c6.3-6.19,13.94-10.95,22.4-13.86,8.36-2.88,12.8-11.98,9.92-20.33-2.87-8.36-11.98-12.8-20.33-9.92-15.81,5.44-29.73,15.08-40.37,27.74l-93.68-54.09,93.68-54.09c10.64,12.66,24.56,22.3,40.37,27.74,1.72.59,3.48.87,5.21.87,6.64,0,12.85-4.17,15.13-10.8,2.87-8.36-1.57-17.46-9.92-20.33-8.47-2.91-16.1-7.67-22.4-13.86l33.94-19.6c7.65-4.42,10.27-14.2,5.86-21.86s-14.2-10.28-21.86-5.86l-33.94,19.6c-2.21-8.55-2.51-17.54-.8-26.33,1.69-8.67-3.97-17.07-12.65-18.76-8.68-1.69-17.07,3.97-18.76,12.65-3.2,16.41-1.81,33.29,3.84,48.83l-93.68,54.09v-108.17c16.28-2.88,31.59-10.12,44.21-21.1,6.67-5.8,7.37-15.9,1.57-22.57-5.8-6.67-15.91-7.37-22.57-1.57-6.76,5.88-14.7,10.11-23.21,12.47v-39.19c0-8.84-7.16-16-16-16s-16,7.16-16,16v39.19c-8.51-2.36-16.45-6.59-23.21-12.47-6.67-5.8-16.77-5.1-22.57,1.57-5.8,6.67-5.09,16.77,1.57,22.57,12.62,10.98,27.92,18.21,44.21,21.1v108.17l-93.68-54.09c5.65-15.54,7.03-32.42,3.84-48.83-1.69-8.67-10.09-14.34-18.76-12.65-8.67,1.69-14.34,10.09-12.65,18.76,1.71,8.79,1.41,17.78-.8,26.33l-33.94-19.6c-7.65-4.42-17.44-1.8-21.86,5.86-4.42,7.65-1.8,17.44,5.86,21.86l33.94,19.6c-6.3,6.19-13.94,10.95-22.4,13.86-8.36,2.88-12.8,11.98-9.92,20.33,2.28,6.63,8.49,10.8,15.13,10.8,1.73,0,3.48-.28,5.21-.87,15.81-5.44,29.73-15.08,40.37-27.74l93.68,54.09-93.68,54.09c-10.64-12.66-24.56-22.3-40.37-27.74-8.36-2.88-17.46,1.57-20.33,9.92-2.87,8.36,1.57,17.46,9.92,20.33,8.47,2.91,16.1,7.67,22.4,13.86l-33.94,19.6c-7.65,4.42-10.27,14.2-5.86,21.86,2.96,5.13,8.34,8,13.87,8,2.71,0,5.47-.69,7.98-2.15l33.94-19.6c2.21,8.55,2.51,17.54.8,26.33-1.69,8.67,3.97,17.07,12.65,18.76,1.03.2,2.06.3,3.07.3,7.5,0,14.2-5.3,15.69-12.95,3.2-16.42,1.81-33.29-3.83-48.83l93.68-54.09v108.17c-16.28,2.88-31.59,10.12-44.21,21.1-6.67,5.8-7.37,15.9-1.57,22.57,3.16,3.64,7.61,5.5,12.08,5.5,3.72,0,7.46-1.29,10.49-3.93,6.76-5.88,14.7-10.11,23.21-12.47v39.19c0,8.84,7.16,16,16,16s16-7.16,16-16v-39.19c8.51,2.36,16.45,6.59,23.21,12.47,3.03,2.64,6.77,3.93,10.49,3.93,4.47,0,8.92-1.86,12.08-5.5,5.8-6.67,5.09-16.77-1.57-22.57-12.62-10.98-27.92-18.21-44.21-21.1v-108.17l93.68,54.09c-5.65,15.54-7.03,32.42-3.83,48.83,1.49,7.64,8.18,12.95,15.69,12.95,1.01,0,2.04-.1,3.07-.3,8.67-1.69,14.34-10.09,12.65-18.76-1.71-8.79-1.41-17.78.8-26.33l33.94,19.6c2.52,1.45,5.27,2.15,7.98,2.15,5.53,0,10.91-2.87,13.87-8,4.42-7.65,1.8-17.44-5.86-21.86Z"/></svg>