<?xml version="1.0" encoding="UTF-8"?><svg id="Icon" xmlns="http://www.w3.org/2000/svg" viewBox="0 0 512 512"><path d="M484.75,126.73c-4.63-7.52-14.49-9.86-22.02-5.23l-62.74,38.66v-32.17c0-8.84-7.16-16-16-16h-96v-16h96c8.84,0,16-7.16,16-16s-7.16-16-16-16h-96v-16c0-8.84-7.16-16-16-16H128c-8.84,0-16,7.16-16,16v119.06l-57.24-38.23c-7.35-4.91-17.28-2.93-22.19,4.42-4.91,7.35-2.93,17.28,4.42,22.19l75.02,50.1v242.46c0,8.84,7.16,16,16,16h16c0,8.84,7.16,16,16,16h32c8.84,0,16-7.16,16-16h96c0,8.84,7.16,16,16,16h32c8.84,0,16-7.16,16-16h16c8.84,0,16-7.16,16-16v-250.25l79.53-49.01c7.52-4.64,9.86-14.49,5.23-22.02ZM256,64v48h-112v-48h112ZM368,432h-224v-64h176c8.84,0,16-7.16,16-16s-7.16-16-16-16h-176v-80h176c8.84,0,16-7.16,16-16s-7.16-16-16-16h-176v-80h224v288Z"/><path d="M208,272h-32c-8.84,0-16,7.16-16,16s7.16,16,16,16h32c8.84,0,16-7.16,16-16s-7.16-16-16-16Z"/><path d="M208,384h-32c-8.84,0-16,7.16-16,16s7.16,16,16,16h32c8.84,0,16-7.16,16-16s-7.16-16-16-16Z"/></svg>