<?xml version="1.0" encoding="UTF-8"?><svg id="Icon" xmlns="http://www.w3.org/2000/svg" viewBox="0 0 512 512"><path d="M240,192c-26.47,0-48,21.53-48,48v160c0,26.47,21.53,48,48,48h160c26.47,0,48-21.53,48-48v-160c0-26.47-21.53-48-48-48h-160ZM416,240v160c0,8.82-7.18,16-16,16h-160c-8.82,0-16-7.18-16-16v-160c0-8.82,7.18-16,16-16h160c8.82,0,16,7.18,16,16Z"/><path d="M64,112v160c0,26.47,21.53,48,48,48h32c8.84,0,16-7.16,16-16s-7.16-16-16-16h-32c-8.82,0-16-7.18-16-16V112c0-8.82,7.18-16,16-16h160c8.82,0,16,7.18,16,16v32c0,8.84,7.16,16,16,16s16-7.16,16-16v-32c0-26.47-21.53-48-48-48H112c-26.47,0-48,21.53-48,48Z"/></svg>