<?xml version="1.0" encoding="UTF-8"?><svg id="Icon" xmlns="http://www.w3.org/2000/svg" viewBox="0 0 512 512"><path d="M432,96H80c-26.47,0-48,21.53-48,48v224c0,26.47,21.53,48,48,48h352c26.47,0,48-21.53,48-48v-224c0-26.47-21.53-48-48-48ZM448,368c0,8.82-7.18,16-16,16H80c-8.82,0-16-7.18-16-16v-224c0-8.82,7.18-16,16-16h352c8.82,0,16,7.18,16,16v224Z"/><path d="M368,304h-112c-8.84,0-16,7.16-16,16s7.16,16,16,16h112c8.84,0,16-7.16,16-16s-7.16-16-16-16Z"/><path d="M368,176h-112c-8.84,0-16,7.16-16,16s7.16,16,16,16h112c8.84,0,16-7.16,16-16s-7.16-16-16-16Z"/><path d="M256,256h64c8.84,0,16-7.16,16-16s-7.16-16-16-16h-64c-8.84,0-16,7.16-16,16s7.16,16,16,16Z"/><path d="M152,176c-30.88,0-56,26.62-56,59.35,0,.72.02,1.45.05,2.18.2,5.85,1.2,11.59,2.97,17.06,9.32,32.76,38.83,73.16,40.09,74.87,3.01,4.1,7.8,6.53,12.89,6.53h0c5.09,0,9.88-2.42,12.89-6.53,1.26-1.71,30.77-42.1,40.09-74.88,1.77-5.47,2.77-11.2,2.97-17.03.04-.75.05-1.49.05-2.22,0-32.73-25.12-59.35-56-59.35ZM175.98,236.1c0,.1,0,.2-.01.3-.09,2.94-.6,5.81-1.49,8.52-.08.23-.15.46-.21.69-4.13,14.73-14.03,32.44-22.27,45.63-8.24-13.2-18.13-30.91-22.27-45.63-.06-.23-.13-.46-.21-.69-.89-2.71-1.4-5.58-1.49-8.54,0-.06,0-.12,0-.18-.01-.29-.02-.57-.02-.86,0-15.08,10.77-27.35,24-27.35s24,12.27,24,27.35c0,.25,0,.5-.02.75Z"/><path d="M152.18,219.06c-8.83,0-16,7.17-16,16s7.16,16,16,16,16-7.16,16-16-7.16-16-16-16Z"/></svg>