<?xml version="1.0" encoding="UTF-8"?><svg id="Icon" xmlns="http://www.w3.org/2000/svg" viewBox="0 0 512 512"><path d="M152,208c-13.23,0-24,12.27-24,27.35,0,.28,0,.57.02.86,0,.06,0,.12,0,.18.1,2.95.6,5.83,1.49,8.54.08.23.14.46.21.69,4.13,14.73,14.03,32.44,22.27,45.63,8.24-13.2,18.13-30.9,22.27-45.63.06-.23.13-.46.21-.69.9-2.71,1.4-5.58,1.49-8.52v-.28c.03-.26.03-.51.03-.77,0-15.08-10.77-27.35-24-27.35ZM152.18,251.06c-8.83,0-16-7.16-16-16s7.16-16,16-16,16,7.17,16,16-7.16,16-16,16Z"/><path d="M432,96H80c-26.47,0-48,21.53-48,48v224c0,26.47,21.53,48,48,48h352c26.47,0,48-21.53,48-48v-224c0-26.47-21.53-48-48-48ZM207.95,237.57c-.2,5.83-1.2,11.56-2.97,17.03-9.32,32.77-38.84,73.17-40.09,74.87-3.01,4.1-7.8,6.53-12.89,6.53h0c-5.09,0-9.88-2.42-12.89-6.53-1.25-1.71-30.76-42.11-40.09-74.87-1.77-5.48-2.77-11.22-2.97-17.07-.03-.73-.05-1.46-.05-2.18,0-32.73,25.12-59.35,56-59.35s56,26.63,56,59.35c0,.73-.02,1.47-.05,2.22ZM368,336h-112c-8.84,0-16-7.16-16-16s7.16-16,16-16h112c8.84,0,16,7.16,16,16s-7.16,16-16,16ZM240,240c0-8.84,7.16-16,16-16h64c8.84,0,16,7.16,16,16s-7.16,16-16,16h-64c-8.84,0-16-7.16-16-16ZM368,208h-112c-8.84,0-16-7.16-16-16s7.16-16,16-16h112c8.84,0,16,7.16,16,16s-7.16,16-16,16Z"/></svg>