<?xml version="1.0" encoding="UTF-8"?><svg id="Icon" xmlns="http://www.w3.org/2000/svg" viewBox="0 0 512 512"><path d="M416,192c-11.65,0-22.58,3.15-32,8.61v-88.61c0-26.47-21.53-48-48-48h-160c-26.47,0-48,21.53-48,48v88.61c-9.42-5.46-20.35-8.61-32-8.61-35.29,0-64,28.71-64,64v80c0,35.29,28.71,64,64,64h32v32c0,8.84,7.16,16,16,16s16-7.16,16-16v-32h192v32c0,8.84,7.16,16,16,16s16-7.16,16-16v-32h32c35.29,0,64-28.71,64-64v-80c0-35.29-28.71-64-64-64ZM160,112c0-8.82,7.18-16,16-16h160c8.82,0,16,7.18,16,16v176h-192V112ZM448,336c0,17.64-14.36,32-32,32H96c-17.64,0-32-14.36-32-32v-80c0-17.64,14.36-32,32-32s32,14.36,32,32v48c0,8.84,7.16,16,16,16h224c8.84,0,16-7.16,16-16v-48c0-17.64,14.36-32,32-32s32,14.36,32,32v80Z"/></svg>