<?xml version="1.0" encoding="UTF-8"?><svg id="Icon" xmlns="http://www.w3.org/2000/svg" viewBox="0 0 512 512"><path d="M400,448H112c-26.47,0-48-21.53-48-48V112c0-26.47,21.53-48,48-48h288c26.47,0,48,21.53,48,48v288c0,26.47-21.53,48-48,48ZM112,96c-8.82,0-16,7.18-16,16v288c0,8.82,7.18,16,16,16h288c8.82,0,16-7.18,16-16V112c0-8.82-7.18-16-16-16H112Z"/><path d="M125.23,221.6v-98.96h15.8v59.03l24.46-29.09h18.31l-26.64,30.28,29.28,38.74h-19.24l-26.18-35.43v35.43h-15.8Z"/><path d="M213.08,221.6l-21.95-93.67h16.46l11.3,51.17c1.63,7.4,3.06,14.54,4.3,21.42,1.54-7.01,3.19-13.95,4.96-20.82l13.35-51.76h17.25l12.82,50.11c2.12,8.2,3.81,15.38,5.09,21.55,1.15-6.35,2.62-13.49,4.43-21.42l11.5-50.24h15.6l-22.48,93.67h-17.45l-12.96-50.24c-1.98-7.62-3.83-15.31-5.55-23.07-1.63,7.1-3.55,14.72-5.75,22.87l-13.42,50.44h-17.52Z"/><path d="M323.41,221.6v-98.96h15.8v39.2c6.92-7.14,14.76-10.71,23.53-10.71s15.34,3.24,18.77,9.72c2.03,3.75,3.04,10.16,3.04,19.24v41.51h-15.8v-40.66c0-5.55-.44-9.45-1.32-11.7-1.59-3.97-4.89-5.95-9.92-5.95-6.44,0-12.52,3.88-18.25,11.63v46.67h-15.87Z"/><path d="M139.44,399.61c-8.84,0-16-7.16-16-16v-74.72c0-8.84,7.16-16,16-16s16,7.16,16,16v74.72c0,8.84-7.16,16-16,16Z"/><path d="M292.88,399.61c-8.84,0-16-7.16-16-16v-74.72c0-8.84,7.16-16,16-16s16,7.16,16,16v74.72c0,8.84-7.16,16-16,16Z"/><path d="M216.16,399.61c-8.84,0-16-7.16-16-16v-126.94c0-8.84,7.16-16,16-16s16,7.16,16,16v126.94c0,8.84-7.16,16-16,16Z"/><path d="M369.59,399.61c-8.84,0-16-7.16-16-16v-126.94c0-8.84,7.16-16,16-16s16,7.16,16,16v126.94c0,8.84-7.16,16-16,16Z"/></svg>