<?xml version="1.0" encoding="UTF-8"?><svg id="Icon" xmlns="http://www.w3.org/2000/svg" viewBox="0 0 512 512"><path d="M207.45,276.98h-92.42c-8.84,0-16,7.16-16,16s7.16,16,16,16h92.42c8.84,0,16-7.16,16-16s-7.16-16-16-16Z"/><path d="M161.24,327.82h-46.22c-8.84,0-16,7.16-16,16s7.16,16,16,16h46.22c8.84,0,16-7.16,16-16s-7.16-16-16-16Z"/><path d="M381.26,273.1c-10.52,0-20.18,3.73-27.73,9.94-7.55-6.21-17.21-9.94-27.73-9.94-24.11,0-43.73,19.62-43.73,43.73s19.62,43.73,43.73,43.73c10.52,0,20.18-3.73,27.73-9.94,7.55,6.21,17.21,9.94,27.73,9.94,24.11,0,43.73-19.62,43.73-43.73s-19.62-43.73-43.73-43.73ZM325.8,328.57c-6.47,0-11.73-5.26-11.73-11.73s5.26-11.73,11.73-11.73,11.73,5.26,11.73,11.73-5.26,11.73-11.73,11.73ZM381.26,328.57c-6.47,0-11.73-5.26-11.73-11.73s5.26-11.73,11.73-11.73,11.73,5.26,11.73,11.73-5.26,11.73-11.73,11.73Z"/><path d="M432,96H80c-26.47,0-48,21.53-48,48v224c0,26.47,21.53,48,48,48h352c26.47,0,48-21.53,48-48v-224c0-26.47-21.53-48-48-48ZM80,128h352c8.82,0,16,7.18,16,16v16H64v-16c0-8.82,7.18-16,16-16ZM432,384H80c-8.82,0-16-7.18-16-16v-176h384v176c0,8.82-7.18,16-16,16Z"/></svg>