<?xml version="1.0" encoding="UTF-8"?><svg id="Icon" xmlns="http://www.w3.org/2000/svg" viewBox="0 0 512 512"><path d="M432.5,63.5H79.5c-8.84,0-16,7.16-16,16,0,8.01,5.89,14.63,13.58,15.8v337.2c0,8.84,7.16,16,16,16s16-7.16,16-16v-96.49c16.78,21.15,38.15,56.03,38.15,96.49,0,8.84,7.16,16,16,16s16-7.16,16-16c0-57.38-33.12-103.55-53.44-126.49.34-.22.67-.44,1.01-.66.64-.41,1.27-.83,1.91-1.24.92-.61,1.84-1.22,2.76-1.84.63-.43,1.26-.86,1.89-1.29.91-.63,1.81-1.27,2.71-1.92.61-.43,1.21-.87,1.81-1.31.93-.68,1.85-1.38,2.77-2.07.55-.42,1.1-.83,1.64-1.25,1.06-.82,2.1-1.65,3.14-2.49.39-.31.78-.61,1.17-.93,1.41-1.15,2.81-2.32,4.19-3.5.36-.31.71-.62,1.06-.93,1.02-.89,2.04-1.78,3.04-2.69.51-.46,1.02-.94,1.52-1.4.83-.77,1.67-1.54,2.49-2.32.55-.52,1.09-1.05,1.63-1.57.77-.75,1.54-1.5,2.3-2.26.55-.55,1.09-1.11,1.64-1.66.74-.76,1.47-1.52,2.2-2.29.54-.57,1.07-1.13,1.6-1.7.73-.79,1.45-1.59,2.17-2.39.51-.56,1.01-1.12,1.51-1.69.75-.85,1.49-1.72,2.23-2.58.45-.53.9-1.05,1.35-1.58.88-1.06,1.75-2.12,2.61-3.2.28-.35.58-.7.86-1.06,1.13-1.42,2.24-2.86,3.34-4.32.34-.45.67-.91,1.01-1.37.76-1.02,1.51-2.05,2.25-3.08.42-.59.83-1.18,1.24-1.77.65-.92,1.29-1.85,1.92-2.78.43-.64.86-1.28,1.29-1.93.6-.9,1.19-1.81,1.78-2.72.43-.67.85-1.34,1.27-2.01.57-.92,1.14-1.84,1.7-2.76.41-.67.82-1.35,1.22-2.03.57-.96,1.13-1.92,1.68-2.89.38-.66.76-1.31,1.13-1.98.59-1.05,1.16-2.11,1.74-3.18.32-.59.64-1.18.96-1.77.74-1.4,1.47-2.82,2.18-4.25.13-.26.27-.52.4-.79.84-1.69,1.66-3.39,2.47-5.11.25-.54.5-1.09.75-1.64.55-1.19,1.09-2.38,1.62-3.58.3-.68.59-1.36.88-2.04.47-1.09.93-2.17,1.38-3.27.3-.73.6-1.47.89-2.2.43-1.07.85-2.14,1.27-3.22.29-.75.58-1.51.86-2.27.41-1.09.81-2.18,1.2-3.28.27-.75.54-1.51.81-2.26.4-1.14.78-2.28,1.17-3.43.24-.73.49-1.45.72-2.18.41-1.27.81-2.55,1.2-3.83.19-.62.39-1.23.57-1.85.57-1.91,1.13-3.82,1.66-5.76,8.98-32.54,10.51-61.19,10.5-77.14h47.54c-.01,15.95,1.52,44.6,10.5,77.14.53,1.93,1.09,3.85,1.66,5.76.19.62.38,1.24.57,1.85.39,1.28.79,2.56,1.2,3.83.24.73.48,1.45.72,2.18.38,1.15.77,2.29,1.17,3.43.26.76.54,1.51.81,2.26.39,1.1.79,2.19,1.2,3.28.28.76.57,1.51.86,2.27.42,1.08.84,2.15,1.27,3.22.3.74.59,1.47.89,2.2.45,1.1.92,2.19,1.38,3.27.29.68.58,1.37.88,2.04.53,1.2,1.07,2.39,1.62,3.58.25.55.5,1.1.75,1.64.81,1.72,1.63,3.42,2.47,5.11.13.26.27.52.4.79.72,1.42,1.44,2.84,2.18,4.25.31.6.64,1.18.96,1.77.57,1.06,1.15,2.12,1.74,3.18.37.66.75,1.32,1.13,1.98.55.97,1.11,1.93,1.68,2.89.4.68.81,1.35,1.22,2.03.56.93,1.13,1.85,1.7,2.76.42.67.84,1.34,1.27,2.01.59.91,1.18,1.82,1.78,2.72.43.64.85,1.29,1.29,1.93.63.93,1.28,1.86,1.92,2.78.41.59.82,1.19,1.24,1.77.74,1.04,1.5,2.06,2.25,3.08.34.46.67.92,1.01,1.37,1.1,1.45,2.21,2.89,3.34,4.32.28.36.57.7.86,1.06.86,1.07,1.73,2.14,2.61,3.2.45.53.9,1.06,1.35,1.58.74.87,1.48,1.73,2.23,2.58.5.57,1.01,1.13,1.51,1.69.72.8,1.44,1.6,2.17,2.39.53.57,1.06,1.14,1.6,1.7.73.77,1.46,1.53,2.2,2.29.54.56,1.09,1.11,1.64,1.66.76.76,1.53,1.51,2.3,2.26.54.53,1.08,1.05,1.63,1.57.82.78,1.65,1.55,2.49,2.32.51.47,1.01.94,1.52,1.4,1,.91,2.02,1.8,3.04,2.69.36.31.7.63,1.06.93,1.38,1.18,2.78,2.35,4.19,3.5.38.31.78.62,1.17.93,1.04.84,2.09,1.67,3.14,2.49.54.42,1.1.83,1.64,1.25.92.7,1.84,1.39,2.77,2.07.6.44,1.21.87,1.81,1.31.9.64,1.8,1.29,2.71,1.92.63.43,1.25.87,1.89,1.29.91.62,1.83,1.23,2.76,1.84.63.42,1.27.83,1.91,1.24.34.22.67.44,1.01.66-20.32,22.93-53.44,69.11-53.44,126.49,0,8.84,7.16,16,16,16s16-7.16,16-16c0-40.74,21.67-75.83,38.5-96.93v96.93c0,8.84,7.16,16,16,16s16-7.16,16-16V95.3c7.68-1.17,13.58-7.79,13.58-15.8,0-8.84-7.16-16-16-16ZM402.92,278.95c-40.16-25.4-67.62-63.6-81.7-113.82-.38-1.35-.74-2.69-1.09-4.03-.12-.46-.23-.91-.35-1.37-.22-.87-.45-1.75-.66-2.62-.14-.56-.26-1.11-.39-1.66-.18-.76-.36-1.52-.54-2.27-.13-.58-.25-1.14-.38-1.72-.16-.72-.32-1.45-.47-2.16-.12-.57-.23-1.13-.34-1.7-.14-.71-.29-1.42-.43-2.12-.11-.58-.22-1.16-.33-1.74-.13-.67-.26-1.35-.38-2.01-.11-.62-.21-1.23-.32-1.85-.11-.61-.22-1.22-.32-1.82-.11-.65-.21-1.29-.31-1.93-.09-.56-.18-1.12-.27-1.67-.1-.65-.19-1.29-.28-1.93-.08-.53-.16-1.06-.23-1.59-.09-.65-.17-1.28-.25-1.92-.07-.5-.14-1.02-.2-1.52-.08-.64-.15-1.27-.23-1.9-.06-.48-.12-.96-.17-1.43-.07-.65-.14-1.29-.21-1.93-.05-.44-.1-.88-.14-1.31-.06-.63-.12-1.25-.18-1.87-.04-.42-.08-.85-.12-1.26-.05-.62-.1-1.21-.15-1.82-.03-.4-.07-.81-.1-1.21-.05-.61-.09-1.21-.13-1.81-.03-.37-.06-.74-.08-1.1-.04-.6-.07-1.18-.11-1.76-.02-.34-.04-.7-.06-1.04-.03-.58-.06-1.14-.09-1.7-.02-.32-.03-.65-.05-.97-.03-.55-.04-1.07-.07-1.6-.01-.31-.03-.63-.04-.94-.02-.53-.03-1.04-.05-1.56,0-.28-.02-.57-.03-.84-.01-.52-.02-1.02-.03-1.53,0-.24-.01-.5-.02-.74,0-.48-.01-.93-.02-1.39,0-.24,0-.5,0-.73,0-.46,0-.88,0-1.32,0-.09,0-.19,0-.28h91.31v183.45ZM190.43,165.14c-14.05,50.07-41.38,88.2-81.35,113.6V95.5h90.96c0,13.95-1.35,40.21-9.6,69.64Z"/></svg>