<?xml version="1.0" encoding="UTF-8"?><svg id="Icon" xmlns="http://www.w3.org/2000/svg" viewBox="0 0 512 512"><path d="M448.5,79.5c0-8.84-7.16-16-16-16H79.5c-8.84,0-16,7.16-16,16,0,8.01,5.89,14.63,13.58,15.8v336.7c0,8.84,7.16,16,16,16h70.15c8.84,0,16-7.16,16-16,0-57.31-33.03-103.2-53.38-126.03.32-.21.64-.42.96-.63.64-.41,1.28-.83,1.92-1.25.92-.61,1.83-1.22,2.74-1.83.63-.43,1.26-.86,1.89-1.3.91-.63,1.81-1.27,2.71-1.92.6-.43,1.21-.87,1.81-1.3.94-.69,1.86-1.38,2.78-2.08.54-.41,1.09-.82,1.62-1.23,1.07-.83,2.12-1.67,3.18-2.51.37-.3.76-.6,1.13-.9,1.42-1.16,2.83-2.34,4.22-3.53.26-.22.51-.45.77-.67,1.12-.98,2.24-1.96,3.34-2.96.46-.42.92-.85,1.38-1.27.89-.82,1.77-1.63,2.64-2.46.51-.49,1.01-.98,1.52-1.47.81-.79,1.62-1.58,2.41-2.38.52-.52,1.03-1.04,1.54-1.56.78-.79,1.55-1.6,2.31-2.4.5-.53,1-1.06,1.5-1.6.77-.83,1.53-1.67,2.29-2.52.47-.52.93-1.04,1.4-1.56.8-.91,1.59-1.83,2.38-2.76.4-.47.81-.94,1.21-1.41.96-1.14,1.9-2.3,2.83-3.47.21-.27.43-.53.64-.79,1.15-1.45,2.28-2.91,3.39-4.39.25-.33.49-.67.74-1.01.85-1.14,1.69-2.29,2.52-3.45.37-.52.74-1.05,1.1-1.58.69-.99,1.38-1.98,2.06-2.98.4-.59.79-1.19,1.19-1.78.63-.96,1.26-1.92,1.88-2.88.4-.62.79-1.25,1.19-1.87.6-.96,1.2-1.93,1.79-2.91.38-.63.77-1.26,1.14-1.9.6-1,1.18-2.02,1.76-3.03.35-.61.71-1.23,1.05-1.84.62-1.11,1.23-2.23,1.83-3.35.29-.54.58-1.07.87-1.61.79-1.49,1.56-3,2.32-4.51.09-.18.18-.35.27-.53.85-1.7,1.68-3.42,2.49-5.16.23-.48.44-.98.67-1.46.57-1.25,1.14-2.5,1.7-3.76.28-.65.56-1.3.84-1.95.48-1.12.96-2.24,1.42-3.37.29-.71.58-1.42.87-2.14.44-1.09.87-2.18,1.29-3.28.29-.74.57-1.48.85-2.23.41-1.1.82-2.2,1.21-3.31.27-.74.53-1.49.79-2.23.4-1.15.79-2.3,1.18-3.46.24-.72.48-1.43.72-2.16.41-1.27.81-2.55,1.2-3.84.19-.62.39-1.23.57-1.84.57-1.91,1.13-3.82,1.66-5.76,8.98-32.54,10.51-61.19,10.5-77.14h47.54c0,.15,0,.29,0,.45.02,16.03,1.6,44.46,10.5,76.69,15.94,57.77,48.77,103.4,95.5,133.18-20.34,23.03-53.17,69.05-53.17,126.18,0,8.84,7.16,16,16,16h70.5c8.84,0,16-7.16,16-16V95.3c7.68-1.17,13.58-7.79,13.58-15.8Z"/></svg>