<?xml version="1.0" encoding="UTF-8"?><svg id="Icon" xmlns="http://www.w3.org/2000/svg" viewBox="0 0 512 512"><path d="M178.57,310.61c-11.64-7.48-25.47-11.84-40.3-11.84-41.23,0-74.76,33.54-74.76,74.76s33.54,74.77,74.76,74.77,74.76-33.54,74.76-74.77c0-14.83-4.36-28.65-11.84-40.29l242.12-241.92c6.25-6.25,6.25-16.38,0-22.63-6.25-6.25-16.38-6.25-22.63,0l-164.86,164.73-54.64-54.64c7.48-11.64,11.84-25.46,11.84-40.3,0-41.23-33.54-74.76-74.76-74.76s-74.76,33.54-74.76,74.76,33.54,74.76,74.76,74.76c14.83,0,28.66-4.36,40.3-11.84l54.63,54.63-54.63,54.58ZM95.5,138.47c0-23.58,19.18-42.76,42.76-42.76s42.76,19.18,42.76,42.76c0,11.71-4.73,22.33-12.39,30.06-.05.05-.11.1-.17.15-.05.05-.1.11-.15.16-7.73,7.65-18.35,12.39-30.06,12.39-23.58,0-42.76-19.18-42.76-42.76ZM138.26,416.29c-23.58,0-42.76-19.18-42.76-42.77s19.18-42.76,42.76-42.76c11.71,0,22.33,4.73,30.06,12.38.05.05.1.11.15.17.05.05.12.1.17.15,7.65,7.73,12.39,18.35,12.39,30.06,0,23.58-19.18,42.77-42.76,42.77Z"/><path d="M292.69,292.69c-6.25,6.25-6.25,16.38,0,22.63l128,128c3.12,3.12,7.22,4.69,11.31,4.69s8.19-1.56,11.31-4.69c6.25-6.25,6.25-16.38,0-22.63l-128-128c-6.25-6.25-16.38-6.25-22.63,0Z"/></svg>