<?xml version="1.0" encoding="UTF-8"?><svg id="Icon" xmlns="http://www.w3.org/2000/svg" viewBox="0 0 512 512"><path d="M192,256c0,35.29,28.71,64,64,64s64-28.71,64-64-28.71-64-64-64-64,28.71-64,64ZM256,224c17.65,0,32,14.35,32,32s-14.35,32-32,32-32-14.35-32-32,14.35-32,32-32Z"/><path d="M335.2,154.18l-11.31,11.31c-6.25,6.25-6.25,16.38,0,22.63,3.12,3.12,7.22,4.69,11.31,4.69s8.19-1.56,11.31-4.69l11.31-11.31c6.25-6.25,6.25-16.38,0-22.63-6.25-6.25-16.38-6.25-22.63,0Z"/><path d="M384,240h-16c-8.84,0-16,7.16-16,16s7.16,16,16,16h16c8.84,0,16-7.16,16-16s-7.16-16-16-16Z"/><path d="M346.51,362.51c4.09,0,8.19-1.56,11.31-4.69,6.25-6.25,6.25-16.38,0-22.63l-11.31-11.31c-6.25-6.25-16.38-6.25-22.63,0-6.25,6.25-6.25,16.38,0,22.63l11.31,11.31c3.12,3.12,7.22,4.69,11.31,4.69Z"/><path d="M272,384v-16c0-8.84-7.16-16-16-16s-16,7.16-16,16v16c0,8.84,7.16,16,16,16s16-7.16,16-16Z"/><path d="M165.49,323.88l-11.31,11.31c-6.25,6.25-6.25,16.38,0,22.63,3.12,3.12,7.22,4.69,11.31,4.69s8.19-1.56,11.31-4.69l11.31-11.31c6.25-6.25,6.25-16.38,0-22.63-6.25-6.25-16.38-6.25-22.63,0Z"/><path d="M128,240c-8.84,0-16,7.16-16,16s7.16,16,16,16h16c8.84,0,16-7.16,16-16s-7.16-16-16-16h-16Z"/><path d="M188.12,165.49l-11.31-11.31c-6.25-6.25-16.38-6.25-22.63,0-6.25,6.25-6.25,16.38,0,22.63l11.31,11.31c3.12,3.12,7.22,4.69,11.31,4.69s8.19-1.56,11.31-4.69c6.25-6.25,6.25-16.38,0-22.63Z"/><path d="M272,144v-16c0-8.84-7.16-16-16-16s-16,7.16-16,16v16c0,8.84,7.16,16,16,16s16-7.16,16-16Z"/></svg>