<?xml version="1.0" encoding="UTF-8"?><svg id="Icon" xmlns="http://www.w3.org/2000/svg" viewBox="0 0 512 512"><path d="M256,480.02c-29.58,0-59.14-5.94-87.21-17.81-55.1-23.3-97.83-66.66-120.32-122.1s-22.04-116.31,1.26-171.41c22.44-53.07,63.89-95,116.71-118.05,8.1-3.54,17.53.17,21.06,8.27,3.53,8.1-.17,17.53-8.27,21.06-45.27,19.76-80.79,55.69-100.03,101.18-19.97,47.23-20.35,99.41-1.08,146.92s55.9,84.68,103.13,104.65c47.23,19.97,99.41,20.35,146.92,1.08,47.52-19.27,84.68-55.9,104.65-103.13,3.44-8.14,12.83-11.94,20.97-8.5,8.14,3.44,11.95,12.83,8.51,20.97-23.3,55.1-66.66,97.83-122.1,120.32-27.2,11.03-55.71,16.55-84.21,16.55Z"/><path d="M464,272.02h-207.97c-8.84,0-16-7.16-16-16V48.05c0-8.84,7.16-16,16-16,59.82,0,116.07,23.3,158.37,65.6,42.3,42.3,65.6,98.54,65.6,158.37,0,8.84-7.16,16-16,16Z"/></svg>