<?xml version="1.0" encoding="UTF-8"?><svg id="Icon" xmlns="http://www.w3.org/2000/svg" viewBox="0 0 512 512"><path d="M373.07,80.29c-31.51-10.5-73.08-16.29-117.07-16.29s-85.56,5.78-117.07,16.29c-47.39,15.8-57.33,37.28-57.33,52.51v246.4c0,15.26,9.91,36.77,57.13,52.53,31.42,10.49,73.07,16.27,117.27,16.27s85.84-5.78,117.27-16.27c47.22-15.76,57.13-37.27,57.13-52.53v-246.4c0-15.24-9.95-36.72-57.33-52.51ZM398.4,256c0,3.4-8.62,13.28-35.27,22.18-28.24,9.43-66.29,14.62-107.13,14.62s-78.89-5.19-107.13-14.62c-26.65-8.9-35.27-18.78-35.27-22.18v-81.39c6.94,3.75,15.29,7.35,25.33,10.7,31.51,10.5,73.08,16.29,117.07,16.29s85.56-5.78,117.07-16.29c10.05-3.35,18.39-6.95,25.33-10.7v81.39ZM149.05,110.64c28.33-9.44,66.31-14.64,106.95-14.64s78.62,5.2,106.95,14.64c26.79,8.93,35.45,18.78,35.45,22.16s-8.67,13.23-35.45,22.16c-28.33,9.44-66.31,14.64-106.95,14.64s-78.62-5.2-106.95-14.64c-26.79-8.93-35.45-18.78-35.45-22.16s8.67-13.23,35.45-22.16ZM363.13,401.38c-28.24,9.43-66.29,14.62-107.13,14.62s-78.89-5.19-107.13-14.62c-26.65-8.9-35.27-18.78-35.27-22.18v-81.29c6.9,3.72,15.18,7.3,25.13,10.63,31.42,10.49,73.07,16.27,117.27,16.27s85.84-5.78,117.27-16.27c9.96-3.32,18.24-6.9,25.13-10.63v81.29c0,3.4-8.62,13.28-35.27,22.18Z"/></svg>