<?xml version="1.0" encoding="UTF-8"?><svg id="Icon" xmlns="http://www.w3.org/2000/svg" viewBox="0 0 512 512"><path d="M325.98,220.21c-6.25-6.25-16.38-6.25-22.63,0s-6.25,16.38,0,22.63l27.16,27.16h-149.03l27.16-27.16c6.25-6.25,6.25-16.38,0-22.63-6.25-6.25-16.38-6.25-22.63,0l-54.48,54.48c-3,3-4.69,7.07-4.69,11.31s1.69,8.31,4.69,11.31l54.48,54.48c3.12,3.12,7.22,4.69,11.31,4.69s8.19-1.56,11.31-4.69c6.25-6.25,6.25-16.38,0-22.63l-27.16-27.16h149.03l-27.16,27.16c-6.25,6.25-6.25,16.38,0,22.63,3.12,3.12,7.22,4.69,11.31,4.69s8.19-1.56,11.31-4.69l54.48-54.48c6.25-6.25,6.25-16.38,0-22.63l-54.48-54.48Z"/><path d="M392.89,80h-40.89v-16c0-8.84-7.16-16-16-16s-16,7.16-16,16v16h-128v-16c0-8.84-7.16-16-16-16s-16,7.16-16,16v16h-40.89c-30.39,0-55.11,24.72-55.11,55.11v273.78c0,30.39,24.72,55.11,55.11,55.11h273.78c30.39,0,55.11-24.72,55.11-55.11V135.11c0-30.39-24.72-55.11-55.11-55.11ZM416,408.89c0,12.74-10.37,23.11-23.11,23.11H119.11c-12.74,0-23.11-10.37-23.11-23.11V135.11c0-12.74,10.37-23.11,23.11-23.11h40.89v16c0,8.84,7.16,16,16,16s16-7.16,16-16v-16h128v16c0,8.84,7.16,16,16,16s16-7.16,16-16v-16h40.89c12.74,0,23.11,10.37,23.11,23.11v273.78Z"/></svg>