<?xml version="1.0" encoding="UTF-8"?><svg id="Icon" xmlns="http://www.w3.org/2000/svg" viewBox="0 0 512 512"><path d="M197.36,215.02c-18.1,0-31.46,7.35-39.7,21.86-6.24,11.06-9.4,27.36-9.4,48.42,0,24,3.97,42.06,11.8,53.69,8.04,11.94,20.59,17.99,37.3,17.99,18.11,0,31.46-7.38,39.7-21.95,6.24-11.07,9.4-27.55,9.4-48.99,0-23.69-3.99-41.57-11.85-53.14-8.07-11.87-20.6-17.89-37.25-17.89ZM212.67,322.54c-3.4,7.28-8.41,10.82-15.31,10.82s-12.09-3.77-15.67-11.51c-3.4-7.38-5.12-19.62-5.12-36.36s1.85-28.39,5.48-36.11c3.4-7.22,8.41-10.73,15.31-10.73s12.14,3.76,15.67,11.51c3.4,7.39,5.12,19.46,5.12,35.9s-1.85,28.7-5.49,36.49Z"/><path d="M392.89,80h-40.89v-16c0-8.84-7.16-16-16-16s-16,7.16-16,16v16h-128v-16c0-8.84-7.16-16-16-16s-16,7.16-16,16v16h-40.89c-30.39,0-55.11,24.72-55.11,55.11v273.78c0,30.39,24.72,55.11,55.11,55.11h273.78c30.39,0,55.11-24.72,55.11-55.11V135.11c0-30.39-24.72-55.11-55.11-55.11ZM416,408.89c0,12.74-10.37,23.11-23.11,23.11H119.11c-12.74,0-23.11-10.37-23.11-23.11V135.11c0-12.74,10.37-23.11,23.11-23.11h40.89v16c0,8.84,7.16,16,16,16s16-7.16,16-16v-16h128v16c0,8.84,7.16,16,16,16s16-7.16,16-16v-16h40.89c12.74,0,23.11,10.37,23.11,23.11v273.78Z"/><path d="M316.17,263.65c-9.13,0-17.16,2.55-23.95,7.6,1.44-7.15,3.98-13.41,7.6-18.67,6.57-9.5,15.69-14.12,27.88-14.12,3.71,0,8.71.79,14.86,2.36l2.76.7,2.37-24.67-2.33-.32c-7.39-1.01-13.43-1.52-17.95-1.52-26.65,0-45.64,11.7-56.46,34.76-6.5,13.82-9.79,30.31-9.79,49.01,0,17.69,3.63,31.64,10.78,41.45,8.13,11.11,20.65,16.74,37.2,16.74,15.01,0,26.97-4.74,35.53-14.1,7.95-8.67,11.98-20.32,11.98-34.63,0-12.89-3.18-23.28-9.45-30.87-7.45-9.11-17.89-13.73-31.03-13.73ZM323.12,327.61c-3.45,4.25-7.96,6.31-13.8,6.31s-10.52-2.03-14.17-6.18c-3.58-4.14-5.4-10.13-5.4-17.8,0-6.91,1.91-12.58,5.67-16.84,3.73-4.23,8.47-6.29,14.47-6.29s10.49,2.14,13.9,6.55c3.08,3.98,4.64,9.49,4.64,16.4,0,7.51-1.79,13.51-5.31,17.85Z"/></svg>