<?xml version="1.0" encoding="UTF-8"?><svg id="Icon" xmlns="http://www.w3.org/2000/svg" viewBox="0 0 512 512"><path d="M406.08,236.38c-4.67-25.2-15.1-47.92-30.19-65.74-18.85-23.47-45.95-38.07-72.54-39.1-18.07-.93-35.18,2.77-52.34,11.32-12.61,5.9-21.92,11.91-30.83,20.02-16.84-15.32-35.49-25.19-55.52-29.38-29.97-6.53-57.88-.07-82.94,19.21-.21.16-.42.33-.62.5-25.33,21.58-43.17,55.1-47.72,89.68,0,.03,0,.07-.01.1-1.95,15.57-.83,32.88,2.91,45.3,8.45,32.42,33.74,69.94,73.18,108.55,31.44,31.43,69.57,61.2,97.15,75.85,1.15.61,2.36,1.08,3.62,1.39.42.1,1.21.47,1.84.76,1.87.86,4.69,2.16,8.54,2.16,1.72,0,3.43-.28,5.06-.82.59-.2,3.72-1.27,7.78-3.31.09-.04.18-.09.27-.14,20.28-10.62,44.16-27.64,65.56-46.72,23.44-19.56,43.15-39.53,61.99-62.84,24.3-28.83,40.2-57.28,44.77-80.14.05-.23.09-.47.12-.71,1.86-12.07,1.87-32.4.02-45.3-.03-.22-.07-.43-.11-.65ZM374.58,277.11c-3.56,17.16-17.69,41.62-37.89,65.56-.07.09-.15.18-.22.26-17.58,21.76-35.97,40.4-57.89,58.67-.14.12-.28.24-.41.36-19.09,17.05-40.12,32.18-57.96,41.72h0c-24.92-13.57-59.33-40.67-88.18-69.52-.04-.04-.08-.08-.12-.12-47.13-46.13-60.78-78.74-64.73-94.07-.06-.24-.13-.48-.2-.72-2.46-8-3.23-21.26-1.86-32.25,3.49-26.38,17.43-52.84,36.43-69.18,17.64-13.45,35.56-17.6,56.35-13.05.05.01.1.02.16.03,15.96,3.32,31.01,11.97,44.74,25.7,3.94,3.94,7.79,6.85,8.21,7.17,5.69,4.27,13.51,4.27,19.2,0,.77-.58,4.68-3.61,8.77-8.53,7.51-7.41,14.58-12.16,25.76-17.38.13-.06.26-.12.39-.19,12.19-6.09,24.18-8.74,36.67-8.08.08,0,.17,0,.25.01,17.53.65,35.85,10.86,49.01,27.3.1.12.2.25.3.37,11.49,13.51,19.5,31.04,23.2,50.69,1.34,9.71,1.35,26.25.03,35.24Z"/><path d="M256,288h-32l28.8-38.4c5.3-7.07,3.87-17.1-3.2-22.4-7.07-5.3-17.1-3.87-22.4,3.2l-48,64c-3.64,4.85-4.22,11.33-1.51,16.76,2.71,5.42,8.25,8.84,14.31,8.84h32l-28.8,38.4c-5.3,7.07-3.87,17.1,3.2,22.4,2.88,2.16,6.25,3.2,9.59,3.2,4.86,0,9.67-2.21,12.81-6.4l48-64c3.64-4.85,4.22-11.33,1.51-16.76-2.71-5.42-8.25-8.84-14.31-8.84Z"/><path d="M448,80h-32v-32c0-8.84-7.16-16-16-16s-16,7.16-16,16v32h-32c-8.84,0-16,7.16-16,16s7.16,16,16,16h32v32c0,8.84,7.16,16,16,16s16-7.16,16-16v-32h32c8.84,0,16-7.16,16-16s-7.16-16-16-16Z"/></svg>