<?xml version="1.0" encoding="UTF-8"?><svg id="Icon" xmlns="http://www.w3.org/2000/svg" viewBox="0 0 512 512"><path d="M370.35,171.81l-103.13-103.13c-3-3-7.07-4.69-11.31-4.69h0c-4.25,0-8.32,1.69-11.32,4.7l-103.01,103.19c-63.05,63.09-63.02,165.72.07,228.77,30.55,30.53,71.15,47.34,114.35,47.34h.06c43.21-.01,83.83-16.85,114.37-47.42,63.05-63.09,63.02-165.72-.07-228.77ZM347.79,377.96c-50.58,50.61-132.9,50.64-183.52.06-50.61-50.58-50.64-132.9-.06-183.51.02-.02.05-.05.09-.09l91.62-91.78,91.81,91.81c50.61,50.58,50.64,132.9.06,183.52Z"/><path d="M351.94,321.69l-4.57-2.64c6.71-3.68,10-11.74,7.43-19.21-2.87-8.36-11.98-12.8-20.33-9.93-6.91,2.38-13.2,6.15-18.51,11l-27.95-16.14,27.95-16.14c5.31,4.86,11.6,8.63,18.51,11,1.72.59,3.48.87,5.21.87,6.64,0,12.85-4.17,15.13-10.8,2.57-7.48-.73-15.54-7.43-19.21l4.57-2.64c7.65-4.42,10.27-14.2,5.86-21.86-4.42-7.65-14.2-10.28-21.86-5.86l-4.57,2.64c.17-7.65-5.16-14.53-12.92-16.04-8.67-1.69-17.07,3.97-18.76,12.65-1.4,7.17-1.28,14.5.28,21.53l-27.95,16.14v-32.27c6.86-2.17,13.27-5.73,18.78-10.53,6.67-5.8,7.37-15.91,1.57-22.57-5.19-5.97-13.82-7.14-20.36-3.17v-5.28c0-8.84-7.16-16-16-16s-16,7.16-16,16v5.28c-6.54-3.97-15.17-2.79-20.36,3.17-5.8,6.67-5.1,16.77,1.57,22.57,5.52,4.8,11.92,8.35,18.78,10.53v32.27l-27.95-16.14c1.55-7.03,1.67-14.36.28-21.53-1.69-8.67-10.09-14.34-18.76-12.65-7.76,1.51-13.09,8.4-12.92,16.04l-4.57-2.64c-7.65-4.42-17.44-1.8-21.86,5.86-4.42,7.65-1.8,17.44,5.86,21.86l4.57,2.64c-6.71,3.68-10,11.74-7.43,19.21,2.28,6.63,8.49,10.8,15.13,10.8,1.73,0,3.48-.28,5.21-.87,6.91-2.38,13.2-6.15,18.51-11l27.95,16.14-27.95,16.14c-5.31-4.86-11.6-8.63-18.51-11-8.36-2.87-17.46,1.57-20.33,9.93-2.57,7.48.73,15.54,7.43,19.21l-4.57,2.64c-7.65,4.42-10.27,14.2-5.86,21.86,2.96,5.13,8.34,8,13.87,8,2.71,0,5.47-.69,7.98-2.15l4.57-2.64c-.17,7.65,5.16,14.53,12.92,16.04,1.03.2,2.06.3,3.08.3,7.5,0,14.2-5.3,15.69-12.94,1.4-7.17,1.28-14.5-.27-21.53l27.95-16.14v32.27c-6.86,2.17-13.27,5.73-18.78,10.53-6.67,5.8-7.37,15.91-1.57,22.57,3.16,3.64,7.61,5.5,12.08,5.5,2.86,0,5.73-.77,8.28-2.32v5.27c0,8.84,7.16,16,16,16s16-7.16,16-16v-5.27c2.55,1.55,5.42,2.32,8.28,2.32,4.47,0,8.92-1.86,12.08-5.5,5.8-6.67,5.1-16.77-1.57-22.57-5.52-4.8-11.92-8.35-18.78-10.53v-32.27l27.95,16.14c-1.55,7.03-1.67,14.36-.28,21.53,1.49,7.64,8.18,12.95,15.69,12.95,1.01,0,2.04-.1,3.07-.3,7.76-1.51,13.09-8.4,12.92-16.04l4.57,2.64c2.52,1.45,5.27,2.15,7.98,2.15,5.53,0,10.91-2.87,13.87-8,4.42-7.65,1.8-17.44-5.86-21.86Z"/></svg>