<?xml version="1.0" encoding="UTF-8"?><svg id="Icon" xmlns="http://www.w3.org/2000/svg" viewBox="0 0 512 512"><path d="M208,272H80c-8.84,0-16-7.16-16-16s7.16-16,16-16h128c8.84,0,16,7.16,16,16s-7.16,16-16,16Z"/><path d="M357.19,366.74c-50.35,0-91.31-40.96-91.31-91.31v-.02c0-5.43.56-11.06,1.67-16.73,4.31-22.12,17.01-45.92,37.76-70.75,7.65-9.15,16.14-18.15,25.25-26.76,2.92-2.77,5.75-5.35,8.4-7.66,1.79-1.57,2.92-2.51,3.42-2.93l.7-.55s.07-.05.1-.07c.51-.39,1.05-.76,1.61-1.11.26-.17.52-.32.78-.47l.59-.33c.49-.26,1.01-.52,1.54-.76l.34-.15c.4-.17.8-.33,1.21-.48l.28-.1c.24-.08.49-.16.73-.24l.36-.11c.41-.12.82-.23,1.24-.33l.81-.18c.41-.08.82-.14,1.22-.2.66-.1,1.34-.17,2.03-.2l1.28-.04c.48,0,.93.02,1.39.04.62.03,1.29.1,1.95.2.41.06.82.12,1.22.2l.72.16c.49.12.92.23,1.34.36l2.7.98c.73.31,1.45.68,2.15,1.08l.7.42h0c.06.03.11.06.17.1l.37.21.44.32c.31.21.61.43.9.65l.76.6c.51.42,1.63,1.36,3.46,2.96,2.61,2.28,5.44,4.86,8.38,7.64,9.09,8.6,17.59,17.61,25.23,26.75,20.75,24.83,33.46,48.64,37.76,70.75,1.11,5.69,1.67,11.32,1.67,16.76l-.04,2.89c-.74,23.78-10.56,46.02-27.66,62.62-17.13,16.64-39.72,25.8-63.6,25.8ZM297.89,275.54c.06,32.66,26.64,59.21,59.31,59.21,15.51,0,30.18-5.95,41.31-16.76,11.08-10.76,17.45-25.15,17.96-40.54l.03-2.13c0-3.36-.37-6.9-1.08-10.53-3.26-16.75-13.66-35.71-30.91-56.34-6.85-8.19-14.48-16.28-22.68-24.04-1.6-1.52-3.15-2.95-4.64-4.3-1.5,1.35-3.04,2.78-4.63,4.29-8.21,7.77-15.85,15.86-22.7,24.05-17.24,20.64-27.64,39.59-30.9,56.34-.71,3.67-1.08,7.25-1.08,10.64h-.3.3s0,0,0,0h0s0,0,0,0v.1ZM296.78,275.65l1.1.03v-.02s-1.1,0-1.1,0Z"/></svg>