<?xml version="1.0" encoding="UTF-8"?><svg id="Icon" xmlns="http://www.w3.org/2000/svg" viewBox="0 0 512 512"><path d="M80,192h313.9l-41.6,41.6c-6.25,6.25-6.25,16.38,0,22.63,3.12,3.12,7.22,4.69,11.31,4.69s8.19-1.56,11.31-4.69l68.91-68.91c3-3,4.69-7.07,4.69-11.31s-1.69-8.31-4.69-11.31l-68.91-68.91c-6.25-6.25-16.38-6.25-22.63,0s-6.25,16.38,0,22.63l41.6,41.6H80c-8.84,0-16,7.16-16,16s7.16,16,16,16Z"/><path d="M432,320H118.6l41.6-41.6c6.25-6.25,6.25-16.38,0-22.63s-16.38-6.25-22.63,0l-68.9,68.9c-.37.37-.72.76-1.06,1.17-.08.09-.14.2-.22.29-.25.31-.49.63-.71.96-.06.09-.11.19-.17.28-.22.35-.44.7-.64,1.07-.04.07-.06.14-.1.2-.21.4-.4.8-.57,1.21-.02.04-.03.09-.05.14-.18.44-.34.88-.48,1.33-.02.05-.02.1-.04.15-.13.45-.25.9-.34,1.36-.03.13-.04.26-.06.39-.07.39-.13.77-.17,1.17-.05.53-.08,1.06-.08,1.6s.03,1.07.08,1.6c.04.39.11.78.17,1.17.02.13.03.26.06.39.09.46.21.91.34,1.36.01.05.02.1.04.15.14.45.3.9.48,1.33.02.04.03.09.05.14.17.42.37.82.57,1.21.03.07.06.14.1.2.2.37.41.72.64,1.07.06.09.11.19.17.28.22.33.47.65.71.96.08.1.14.2.22.29.33.41.69.8,1.06,1.17l68.9,68.9c3.12,3.12,7.22,4.69,11.31,4.69s8.19-1.56,11.31-4.69c6.25-6.25,6.25-16.38,0-22.63l-41.6-41.6h313.4c8.84,0,16-7.16,16-16s-7.16-16-16-16Z"/></svg>