<?xml version="1.0" encoding="UTF-8"?><svg id="Icon" xmlns="http://www.w3.org/2000/svg" viewBox="0 0 512 512"><path d="M159.64,448h192.72c26.47,0,48-21.53,48-48v-240h31.64c8.84,0,16-7.16,16-16s-7.16-16-16-16h-92.31v-16c0-26.47-21.53-48-48-48h-71.38c-26.47,0-48,21.53-48,48v16h-92.31c-8.84,0-16,7.16-16,16s7.16,16,16,16h31.64v240c0,26.47,21.53,48,48,48ZM368.36,400c0,8.82-7.18,16-16,16h-192.72c-8.82,0-16-7.18-16-16v-240h224.72v240ZM204.31,112c0-8.82,7.18-16,16-16h71.38c8.82,0,16,7.18,16,16v16h-103.38v-16Z"/><path d="M208,368c8.84,0,16-7.16,16-16v-128c0-8.84-7.16-16-16-16s-16,7.16-16,16v128c0,8.84,7.16,16,16,16Z"/><path d="M304,368c8.84,0,16-7.16,16-16v-128c0-8.84-7.16-16-16-16s-16,7.16-16,16v128c0,8.84,7.16,16,16,16Z"/></svg>