<?xml version="1.0" encoding="UTF-8"?><svg id="Icon" xmlns="http://www.w3.org/2000/svg" viewBox="0 0 512 512"><path d="M426.58,89.07c-29.2-31.57-75.9-24.47-77.9-24.15-19.33,3.15-73.56,11.32-92.06,11.33h-.05c-18.8,0-73.68-8.18-93.27-11.33-1.97-.32-48.68-7.42-77.88,24.15-22.21,24.01-27.17,62.19-14.74,113.47,31.09,128.31,51.29,189.04,53.84,196.53,4.67,18.55,20.43,48.93,51.14,48.93,18.34,0,33.74-11.71,45.78-34.79,8.51-16.31,14.12-35.53,18.64-50.97,1.66-5.68,3.09-10.59,4.37-14.28,3.56-10.32,6.58-12.22,11.56-12.25,4.98.04,8,1.94,11.56,12.25,1.28,3.69,2.71,8.6,4.37,14.28,4.51,15.44,10.13,34.65,18.64,50.97,12.04,23.09,27.44,34.79,45.78,34.79,30.71,0,46.48-30.38,51.14-48.93,2.55-7.5,22.75-68.22,53.84-196.53,12.42-51.28,7.46-89.45-14.74-113.47ZM410.22,195c-32.17,132.77-53.03,193.75-53.23,194.35-.17.49-.3.93-.42,1.44-.06.25-6.86,25.22-20.23,25.22-7.16,0-13.98-11.02-17.4-17.59-7.05-13.52-12.18-31.06-16.29-45.15-1.78-6.08-3.31-11.32-4.83-15.74-7.66-22.19-21.54-33.56-41.29-33.81-.12,0-.25,0-.37,0h-.3c-.12,0-.25,0-.37,0-19.74.25-33.63,11.62-41.29,33.81-1.53,4.42-3.06,9.67-4.83,15.74-4.12,14.09-9.24,31.63-16.29,45.15-3.42,6.57-10.24,17.59-17.4,17.59-13.37,0-20.16-24.96-20.21-25.15-.12-.5-.27-1.01-.44-1.5-.21-.6-21.06-61.58-53.23-194.35-9.58-39.54-7.15-68.61,7.02-84.07,17.42-19.01,49.17-14.46,49.41-14.42,2.98.48,73.16,11.74,98.37,11.74h.07c24.85-.02,94.23-11.27,97.07-11.73.32-.05,32.07-4.61,49.49,14.41,14.17,15.46,16.6,44.54,7.02,84.07Z"/><path d="M368,160h-16v-16c0-8.84-7.16-16-16-16s-16,7.16-16,16v16h-16c-8.84,0-16,7.16-16,16s7.16,16,16,16h16v16c0,8.84,7.16,16,16,16s16-7.16,16-16v-16h16c8.84,0,16-7.16,16-16s-7.16-16-16-16Z"/></svg>