<?xml version="1.0" encoding="UTF-8"?><svg id="Icon" xmlns="http://www.w3.org/2000/svg" viewBox="0 0 512 512"><path d="M140,152c24.26,0,44-19.74,44-44s-19.74-44-44-44-44,19.74-44,44,19.74,44,44,44ZM140,96c6.62,0,12,5.38,12,12s-5.38,12-12,12-12-5.38-12-12,5.38-12,12-12Z"/><path d="M416,288h-127.49v-11.92c0-21.41-17.42-38.83-38.83-38.83h-30.34l-34.7-39.99c-16.52-21.12-32.59-38.08-61.17-32.84l-.25.05c-20.09,3.69-34.33,22.26-40.1,52.28-4.18,21.75-8.54,78.53-8.72,80.94-.67,8.81,5.92,16.5,14.74,17.17.41.03.83.05,1.23.05,8.28,0,15.3-6.39,15.94-14.78.04-.57,4.41-57.37,8.24-77.34,2.88-15,8.69-25.79,14.45-26.84l.25-.05c8.53-1.56,13.67-.07,30.43,21.39.17.22.34.43.52.64l37.79,43.55c2.8,4.65,7.88,7.78,13.71,7.78h37.99c3.7,0,6.83,3.13,6.83,6.83v11.92h-56.06l-36.96-39.82c-6.01-6.48-16.13-6.85-22.61-.84-6.48,6.01-6.85,16.14-.84,22.61l17.02,18.33c-7.43,1.39-13.05,7.89-13.05,15.72,0,8.84,7.16,16,16,16h256c8.84,0,16-7.16,16-16s-7.16-16-16-16Z"/><path d="M306.87,356.69l-68.69,68.69-25.05-25.05c-6.25-6.25-16.38-6.25-22.63,0-6.25,6.25-6.25,16.38,0,22.63l36.36,36.36c3.12,3.12,7.22,4.69,11.31,4.69s8.19-1.56,11.31-4.69l80-80c6.25-6.25,6.25-16.38,0-22.63-6.25-6.25-16.38-6.25-22.63,0Z"/><path d="M445.88,120.04c-2.85-4.97-8.15-8.04-13.88-8.04h-155.29c-5.67,0-10.92,3-13.79,7.89l-36.35,61.83c-4.48,7.62-1.93,17.42,5.69,21.9,7.62,4.48,17.42,1.93,21.9-5.68l31.71-53.94h118.24l-47.18,80.63h-34.06c-8.84,0-16,7.16-16,16s7.16,16,16,16h43.24c5.68,0,10.94-3.01,13.81-7.92l65.91-112.63c2.9-4.95,2.92-11.07.07-16.04Z"/></svg>