<?xml version="1.0" encoding="UTF-8"?><svg id="Icon" xmlns="http://www.w3.org/2000/svg" viewBox="0 0 512 512"><path d="M124,128c24.26,0,44-19.74,44-44s-19.74-44-44-44-44,19.74-44,44,19.74,44,44,44ZM124,72c6.62,0,12,5.38,12,12s-5.38,12-12,12-12-5.38-12-12,5.38-12,12-12Z"/><path d="M432,272h-48v-77.48c0-8.07-6.01-14.87-14.01-15.88l-21.8-2.73,24.57-87.33c2.39-8.51-2.56-17.34-11.07-19.74-8.5-2.39-17.34,2.56-19.74,11.07l-28.92,102.77c-.69,1.48-1.17,3.08-1.38,4.79,0,.06,0,.12-.01.18l-12.82,45.57c-2.39,8.51,2.56,17.34,11.07,19.74,1.45.41,2.91.6,4.34.6,6.99,0,13.41-4.61,15.39-11.67l9.8-34.82,12.58,1.57v63.36h-64v-6.34c0-22.87-18.61-41.48-41.48-41.48h-69.79l-6.48-35.24c-2.53-13.77-10.31-25.76-21.89-33.75s-25.55-10.99-39.29-8.47l-.3.05c-6.9,1.27-13.34,3.85-19.04,7.56l-3.62-20.43c-1.54-8.7-9.85-14.5-18.55-12.96-8.7,1.54-14.5,9.85-12.96,18.55l30.09,169.77c4.38,24.77,25.82,42.75,50.97,42.75h8.35v78c0,.68.06,1.34.14,2h-24.14c-8.84,0-16,7.16-16,16s7.16,16,16,16h80c8.84,0,16-7.16,16-16s-7.16-16-16-16h-24.14c.08-.66.14-1.32.14-2v-78h22.63l29.21,83.88c5.94,17.26,22.15,28.13,39.46,28.13,4.49,0,9.05-.73,13.53-2.27,21.74-7.48,33.34-31.25,25.86-52.99l-36.04-104.74h113.34v128c0,8.84,7.16,16,16,16s16-7.16,16-16v-128h16c8.84,0,16-7.16,16-16s-7.16-16-16-16ZM276.44,419.16c1.71,4.97-1.04,10.61-6.01,12.32-4.97,1.71-10.61-1.04-12.34-6.07l-32.97-94.67c-.04-.12-.09-.22-.14-.34-.12-.32-.25-.65-.39-.96-.09-.2-.18-.38-.28-.58-.13-.27-.27-.53-.42-.79-.13-.22-.26-.44-.4-.65-.13-.21-.27-.42-.41-.62-.17-.23-.34-.46-.51-.69-.14-.18-.28-.35-.42-.52-.19-.22-.39-.44-.59-.65-.16-.16-.31-.32-.47-.48-.2-.19-.41-.38-.62-.56-.19-.16-.38-.32-.57-.47-.2-.15-.39-.3-.6-.45-.23-.16-.46-.32-.7-.47-.18-.11-.36-.23-.55-.33-.27-.16-.54-.31-.82-.45-.17-.09-.34-.17-.51-.25-.3-.14-.6-.26-.9-.38-.18-.07-.36-.13-.54-.2-.3-.1-.6-.2-.91-.29-.21-.06-.42-.11-.63-.16-.28-.07-.55-.13-.83-.18-.26-.05-.53-.09-.8-.12-.24-.03-.48-.06-.72-.08-.32-.03-.63-.04-.95-.05-.14,0-.27-.02-.41-.02h-74.35c-9.6,0-17.79-6.86-19.46-16.33l-17.83-100.6c-.04-.32-.07-.64-.13-.97-.99-5.39.17-10.85,3.26-15.36,3.08-4.5,7.72-7.51,13.03-8.49l.3-.05c5.37-.99,10.83.2,15.38,3.33,4.55,3.14,7.6,7.82,8.58,13.19l8.83,48.03c.83,4.54,3.52,8.26,7.12,10.57,2.58,1.79,5.72,2.85,9.1,2.85h82.69c5.14,0,9.48,4.34,9.48,9.48v6.34h-64c-8.84,0-16,7.16-16,16s7.16,16,16,16h44.82l39.62,115.16Z"/></svg>