<?xml version="1.0" encoding="UTF-8"?><svg id="Icon" xmlns="http://www.w3.org/2000/svg" viewBox="0 0 512 512"><path d="M377.12,105.74c.12-.21.25-.41.36-.62.55-1.01,5.47-10.16,8.07-21.13,2.15-9.05,5.05-31.26-14.25-42.13-5.09-2.87-14.63-5.81-49.63-7.88-21.53-1.28-49.34-1.98-78.31-1.98s-56.79.7-78.31,1.98c-35,2.07-44.54,5.02-49.62,7.88-19.31,10.87-16.4,33.08-14.25,42.13,2.6,10.96,7.52,20.12,8.07,21.13.12.21.24.42.36.62l18.47,30.38c.93,1.54,2.12,2.91,3.51,4.05l36.96,30.38c2.86,2.35,6.45,3.64,10.16,3.64h17.25v45.84l-22.03,6.89c-6.68,2.09-11.22,8.27-11.22,15.27v83.25c0,7.17,4.76,13.46,11.66,15.4l25.3,7.13v113.69c0,2.3.74,13.9,15.32,16.73,2.1.41,4.75.73,8.11.98,5.4.41,12.57.63,20.21.63s14.86-.22,20.29-.63c3.37-.25,6.03-.57,8.13-.98,14.61-2.82,15.35-14.44,15.35-16.74v-113.69l25.3-7.13c6.9-1.94,11.66-8.23,11.66-15.4v-83.25c0-7-4.54-13.18-11.22-15.27l-22.03-6.89v-45.84h17.25c3.71,0,7.3-1.29,10.16-3.64l36.96-30.38c1.39-1.14,2.58-2.51,3.51-4.05l18.47-30.38Z"/><path d="M385.91,203.38c-6.25-6.24-16.38-6.24-22.63.01-6.24,6.25-6.24,16.38.01,22.63,33.49,33.45,33.52,87.91.07,121.39l-.08.08c-6.25,6.25-6.25,16.38,0,22.63,3.12,3.12,7.22,4.69,11.31,4.69s8.19-1.56,11.31-4.69l.09-.09c45.92-45.97,45.88-120.73-.09-166.65Z"/><path d="M411.32,155.35c-6.25,6.25-6.25,16.38,0,22.63,59.91,59.93,59.91,157.44,0,217.38-6.25,6.25-6.25,16.38,0,22.63,3.12,3.12,7.22,4.68,11.31,4.68s8.19-1.56,11.32-4.69c72.38-72.41,72.38-190.22,0-262.62-6.25-6.25-16.38-6.25-22.63,0Z"/></svg>