<?xml version="1.0" encoding="UTF-8"?><svg id="Icon" xmlns="http://www.w3.org/2000/svg" viewBox="0 0 512 512"><path d="M383.94,41.86c-5.09-2.87-14.63-5.81-49.63-7.88-21.53-1.28-49.34-1.98-78.31-1.98s-56.79.7-78.31,1.98c-35,2.07-44.54,5.02-49.62,7.88-19.31,10.87-16.4,33.08-14.25,42.13,2.6,10.96,7.52,20.12,8.07,21.13.12.21.24.42.36.62l18.47,30.38c.93,1.54,2.12,2.91,3.51,4.05l36.96,30.38c2.86,2.35,6.45,3.64,10.16,3.64h17.25v45.84l-22.03,6.89c-6.68,2.09-11.22,8.27-11.22,15.27v83.25c0,7.17,4.76,13.46,11.66,15.4l25.3,7.13v113.69c0,2.3.74,13.9,15.32,16.73,2.1.41,4.75.73,8.11.98,5.4.41,12.57.63,20.21.63s14.86-.22,20.29-.63c3.37-.25,6.03-.57,8.13-.98,14.61-2.82,15.35-14.44,15.35-16.74v-113.69l25.3-7.13c6.9-1.94,11.66-8.23,11.66-15.4v-83.25c0-7-4.54-13.18-11.22-15.27l-22.03-6.89v-45.84h17.25c3.71,0,7.3-1.29,10.16-3.64l36.96-30.38c1.39-1.14,2.58-2.51,3.51-4.05l18.47-30.38c.12-.21.25-.41.36-.62.55-1.01,5.47-10.16,8.07-21.13,2.15-9.05,5.05-31.26-14.25-42.13ZM362.2,89.48l-16.84,27.7-30.43,25.01h-27.52c-8.84,0-16,7.16-16,16v73.6c0,7,4.54,13.18,11.22,15.27l22.03,6.89v59.37l-25.3,7.13c-6.9,1.94-11.66,8.23-11.66,15.4v111.97c-7.16.26-16.26.26-23.41,0v-111.98c0-7.17-4.76-13.46-11.66-15.4l-25.3-7.13v-59.37l22.03-6.89c6.68-2.09,11.22-8.27,11.22-15.27v-73.6c0-8.84-7.16-16-16-16h-27.52l-30.43-25.01-16.83-27.69c-3.6-6.79-6.21-16.12-5.62-19.75,9.26-2.5,48.06-5.74,111.81-5.74s102.55,3.24,111.81,5.74c.59,3.64-2.03,12.98-5.61,19.74Z"/></svg>