<?xml version="1.0" encoding="UTF-8"?><svg id="Icon" xmlns="http://www.w3.org/2000/svg" viewBox="0 0 512 512"><path d="M411.31,420.69L59.31,68.69c-6.25-6.25-16.38-6.25-22.63,0-6.25,6.25-6.25,16.38,0,22.63l136.03,136.03c-6.02,2.42-10.02,8.27-10.02,14.84v83.25c0,7.17,4.76,13.46,11.66,15.4l25.3,7.13v113.69c0,2.3.74,13.9,15.32,16.73,2.1.41,4.75.73,8.11.98,5.4.41,12.57.63,20.21.63s14.86-.22,20.29-.63c3.37-.25,6.03-.57,8.13-.98,14.61-2.82,15.35-14.44,15.35-16.74v-113.69l4.9-1.38,96.73,96.73c3.12,3.12,7.22,4.69,11.31,4.69s8.19-1.56,11.31-4.69c6.25-6.25,6.25-16.38,0-22.63Z"/><path d="M104.31,68.69l219.71,219.71v-46.2c0-7-4.54-13.18-11.22-15.27l-22.03-6.89v-45.84h17.25c3.71,0,7.3-1.29,10.16-3.64l36.96-30.38c1.39-1.14,2.58-2.51,3.51-4.05l18.47-30.38c.12-.21.25-.41.36-.62.55-1.01,5.47-10.16,8.07-21.13,2.15-9.05,5.05-31.26-14.25-42.13-5.09-2.87-14.63-5.81-49.63-7.88-21.53-1.28-49.34-1.98-78.31-1.98s-56.79.7-78.31,1.98c-35,2.07-44.54,5.02-49.62,7.88-10.01,5.63-14.03,14.31-15.3,22.63l4.2,4.2Z"/></svg>