<?xml version="1.0" encoding="UTF-8"?><svg id="Icon" xmlns="http://www.w3.org/2000/svg" viewBox="0 0 512 512"><path d="M291.36,141.06c40.1,3.1,77.24,11.22,107.4,23.49,3.08,1.25,10.23,4.76,10.19,10.29-.11,15.57-1.31,38.88-6.47,61.48-1.56,6.82-3.72,13.12-6.24,18.98-4.1-1.71-8.3-3.36-12.58-4.91-8.31-3.01-17.48,1.29-20.49,9.59-3.01,8.31,1.29,17.48,9.59,20.49,2.53.92,5.03,1.88,7.49,2.86-1.9,2.75-3.77,5.37-5.56,7.88-1.4,1.96-2.75,3.86-4.05,5.71-68.04,38.98-169.08,38.83-232.67-.54-3.56-3.73-6.41-7.56-9.01-12.05,3.3-1.38,6.67-2.71,10.1-3.97,8.3-3.04,12.55-12.23,9.51-20.53-3.04-8.3-12.23-12.55-20.53-9.51-3.98,1.46-7.89,3.01-11.72,4.62-.99-2.68-2.04-5.52-3.15-8.57-1.24-3.38-2.55-6.95-3.96-10.75-.96-5.34-1.8-10.94-2.5-16.68-1.07-8.77-9.04-15.01-17.82-13.95-8.77,1.07-15.02,9.05-13.95,17.82.84,6.88,1.87,13.6,3.05,19.99.17.9.41,1.79.73,2.65,1.58,4.25,3.04,8.22,4.4,11.94,11.01,29.99,17.07,46.51,33.43,62.86.83.83,1.74,1.56,2.73,2.19,36.08,22.91,83.64,35.53,133.95,35.53s98.73-12.54,136.79-35.3c2.01-1.2,3.74-2.84,5.05-4.78,1.66-2.47,3.61-5.18,5.66-8.06,11.04-15.46,26.17-36.64,32.95-66.39,5.79-25.42,7.15-51.21,7.27-68.38.12-17.42-11.15-32.43-30.14-40.15-33.18-13.5-73.64-22.4-117-25.75-8.81-.68-16.5,5.91-17.18,14.72-.68,8.81,5.91,16.5,14.72,17.18Z"/><path d="M281.48,262.22c14.4.96,28.64,2.72,42.32,5.22.97.18,1.94.26,2.9.26,7.58,0,14.31-5.4,15.72-13.12,1.59-8.69-4.16-17.03-12.86-18.62-14.87-2.72-30.33-4.63-45.95-5.67-8.81-.59-16.44,6.08-17.03,14.9s6.08,16.44,14.9,17.03Z"/><path d="M185.04,267.54c.95,0,1.92-.09,2.89-.26,13.63-2.49,27.86-4.21,42.29-5.13,8.82-.56,15.51-8.17,14.95-16.99-.56-8.82-8.16-15.52-16.99-14.95-15.67,1-31.14,2.88-45.99,5.59-8.69,1.59-14.46,9.92-12.87,18.61,1.41,7.72,8.14,13.13,15.72,13.13Z"/><path d="M61.82,152.37c.8,1.5,1.55,2.89,2.25,4.2,5.81,10.94,10.02,18.84,20.38,25.98.84.58,1.73,1.07,2.66,1.48,19.96,8.75,45.42,13.12,71.16,13.12s51.46-4.33,72.43-12.99c2-.83,3.82-2.05,5.33-3.6.82-.84,1.75-1.73,2.73-2.68,6.12-5.92,15.38-14.86,19.75-28.09,3.47-10.51,4.28-21.02,4.35-27.99.04-4.29-1.42-18.75-22.08-24.55-46.92-13.17-116.57-13.17-162.01,0-20.38,5.9-21.86,20.21-21.82,24.45.05,6.68.71,16.84,3.51,27.24.32,1.19.78,2.34,1.36,3.43ZM230.55,127.65c-.35,3.76-1.07,8.02-2.42,12.13-1.89,5.73-7.05,10.71-11.6,15.11-.29.28-.58.56-.86.83-33.28,12.6-83.3,12.5-114.19-.33-2.84-2.23-4.37-4.82-9.16-13.83-.44-.83-.9-1.7-1.38-2.6-.94-3.97-1.46-7.91-1.72-11.39,39.35-10.94,100.63-10.91,141.34.08Z"/><path d="M256.41,430.22h.05c23.24-.01,45.19-7.81,61.82-21.95,6.73-5.73,7.55-15.82,1.82-22.55-5.72-6.73-15.82-7.55-22.55-1.82-10.85,9.23-25.45,14.32-41.1,14.33h-.03c-15.64,0-30.23-5.07-41.06-14.26-.07-.06-.18-.16-.26-.22-6.82-5.62-16.9-4.66-22.52,2.16-5.59,6.78-4.67,16.79,2.05,22.43,16.64,14.12,38.58,21.89,61.8,21.89Z"/><path d="M158.81,421.28c-5.91,6.57-5.39,16.68,1.18,22.6,25.86,23.29,60.12,36.12,96.49,36.12s70.63-12.83,96.49-36.12c6.57-5.91,7.09-16.03,1.18-22.6-5.91-6.57-16.03-7.09-22.6-1.18-41.39,37.29-108.75,37.29-150.14,0-6.56-5.91-16.68-5.39-22.6,1.18Z"/></svg>