<?xml version="1.0" encoding="UTF-8"?><svg id="Icon" xmlns="http://www.w3.org/2000/svg" viewBox="0 0 512 512"><path d="M336,128h-96c-8.84,0-16,7.16-16,16v96c0,8.84,7.16,16,16,16h96c8.84,0,16-7.16,16-16v-96c0-8.84-7.16-16-16-16ZM320,224h-64v-64h64v64Z"/><circle cx="176" cy="352" r="16"/><circle cx="176" cy="144" r="16"/><circle cx="176" cy="192" r="16"/><circle cx="176" cy="240" r="16"/><circle cx="229.33" cy="352" r="16"/><circle cx="282.67" cy="352" r="16"/><circle cx="336" cy="352" r="16"/><path d="M368,64h-224c-26.47,0-48,21.53-48,48v288c0,26.47,21.53,48,48,48h224c26.47,0,48-21.53,48-48V112c0-26.47-21.53-48-48-48ZM384,400c0,8.82-7.18,16-16,16h-224c-8.82,0-16-7.18-16-16V112c0-8.82,7.18-16,16-16h224c8.82,0,16,7.18,16,16v288Z"/></svg>