<?xml version="1.0" encoding="UTF-8"?><svg id="Icon" xmlns="http://www.w3.org/2000/svg" viewBox="0 0 512 512"><path d="M448,224V64c0-17.64-14.35-32-32-32H96c-17.65,0-32,14.36-32,32v160c0,17.64,14.35,32,32,32h32c8.84,0,16-7.16,16-16s-7.16-16-16-16h-32V64h320v160s-51,0-51,0c-8.84,0-16,7.16-16,16s7.16,16,16,16h51c17.65,0,32-14.36,32-32Z"/><path d="M239.22,160c-22.76,0-41.27,18.52-41.27,41.27v97.47l-1.79-4.1c-.24-.55-.51-1.09-.81-1.61l-.66-1.15c-6.31-10.91-17.92-17.69-30.3-17.69-19.36,0-35.12,16.08-35.12,35.85,0,5.22.98,10.1,2.9,14.5l44.01,100.4c.24.54.5,1.07.8,1.58l.59,1.03c17.94,32.35,51.63,52.44,87.95,52.44,27.08,0,55.69-10.8,78.48-29.63,24.99-20.65,38.75-47.28,38.75-75v-30.01c0-12.48-2.23-30.71-21.47-44.86-16.55-12.16-43.07-18.82-80.78-20.24v-78.98c0-22.76-18.52-41.27-41.27-41.27ZM342.32,326.29c7.08,5.21,8.42,10.72,8.42,19.08v30.01c0,10.42-3.52,30.83-27.13,50.33-16.9,13.96-38.62,22.3-58.1,22.3-24.73,0-47.73-13.82-60.02-36.06-.05-.09-.1-.17-.15-.26l-.22-.39-43.66-99.58c-.08-.18-.21-.74-.21-1.66,0-2.09,1.43-3.85,3.12-3.85.95,0,2.02.7,2.6,1.7l.22.37,14.38,32.94c3.23,9.77,12.48,16.46,23.04,16.46,13.97,0,25.34-11.53,25.34-25.69v-130.7c0-5.11,4.16-9.27,9.27-9.27s9.27,4.16,9.27,9.27v94.7c0,8.84,7.16,16,16,16,48.23,0,68.94,7.79,77.83,14.32Z"/></svg>