<?xml version="1.0" encoding="UTF-8"?><svg id="Icon" xmlns="http://www.w3.org/2000/svg" viewBox="0 0 512 512"><path d="M433.66,185.12H167v-61.34l90.91-18.84c8.08-1.81,13.46-8.97,11.65-17.05-1.79-8.07-8.96-13.46-17.05-11.66l-173.16,35.89c-5.6,1.25-9.9,5.1-11.41,10.04-.6,1.64-.94,3.43-.94,5.32v63.11c-.11.13-.21.27-.31.41-1.7,2.36-2.69,5.05-2.69,8.26v222.49c0,8.1,6.29,14.37,14.35,14.37h147.15c8.07,0,14.5-6.27,14.5-14.37v-128.63h90v32.64c0,8.08,5.85,14.36,13.93,14.36h89.73c8.05,0,14.34-7.18,14.34-14.36v-126.5c0-8.09-6.29-14.14-14.34-14.14ZM95,138.7l43-8.91v55.33h-43v-46.42ZM213,407.12h-118v-194h118v194ZM418,310.12h-60v-17h60v17ZM418,264.12h-178v-51h178v51Z"/></svg>