<?xml version="1.0" encoding="UTF-8"?><svg id="Icon" xmlns="http://www.w3.org/2000/svg" viewBox="0 0 512 512"><path d="M407.67,202.77c-19-10.37-37.53-10.76-39.67-10.77h-80v-26h16c3.92,0,7.71-1.44,10.64-4.05,13.67-12.17,21.31-27.03,22.12-42.98,1.36-27.01-16.72-47.54-18.79-49.79-3.03-3.3-7.31-5.18-11.79-5.18h-129.09c-3.97,0-7.79,1.47-10.74,4.14-18.67,16.89-22.59,34.24-22.59,45.82,0,27.21,20.27,46.35,22.58,48.44,3.01,2.73,6.98,4.21,11.01,4.13l14.63-.25v25.72h-112c-8.84,0-16,7.16-16,16v96c0,8.84,7.16,16,16,16h217.04c3.64.49,7.22,1.65,7.07,6.79-.1.68-.06.74-.06,1.54v103.68c0,8.84,7.16,16,16,16h111.96c8.84,0,16-7.16,16-16v-154.45c0-43.6-21.93-64.73-40.33-74.77ZM416,416h-79.96v-86.97c1.15-15.07-7.43-37.71-36.26-40.93-.59-.07-1.18-.1-1.78-.1H96v-64h112c8.84,0,16-7.16,16-16v-58c0-4.29-1.72-8.4-4.79-11.41-3.06-3.01-7.19-4.65-11.49-4.59l-23.69.41c-3.81-4.91-8.33-12.64-8.27-20.61.04-6.06,2.64-11.92,7.92-17.81h114.48c3.18,5.01,7.11,13.02,6.62,21.53-.33,5.82-2.75,11.25-7.37,16.47h-25.42c-8.84,0-16,7.16-16,16v58c0,8.84,7.16,16,16,16h95.85c.79.02,13.41.51,25.36,7.35,15.34,8.78,22.79,23.89,22.79,46.19v138.45Z"/></svg>