<?xml version="1.0" encoding="UTF-8"?><svg id="Icon" xmlns="http://www.w3.org/2000/svg" viewBox="0 0 512 512"><path d="M292.78,430.17c-.43,0-.86-.02-1.29-.06-5.89-.55-10.76-4.82-12.09-10.59l-64.26-280.42-53.55,122.4c-2.18,4.99-7.12,8.22-12.56,8.22h-71.31c-7.57,0-13.71-6.14-13.71-13.71s6.14-13.71,13.71-13.71h62.34l66.61-152.24c2.37-5.42,7.95-8.7,13.85-8.16,5.89.55,10.76,4.82,12.09,10.59l64.26,280.42,53.55-122.4c2.18-4.99,7.12-8.22,12.56-8.22h71.31c7.57,0,13.71,6.14,13.71,13.71s-6.14,13.71-13.71,13.71h-62.35l-66.6,152.24c-2.2,5.02-7.15,8.22-12.56,8.22Z"/></svg>