<?xml version="1.0" encoding="UTF-8"?><svg id="Icon" xmlns="http://www.w3.org/2000/svg" viewBox="0 0 512 512"><path d="M363.24,480c-17.94,0-37-13.89-37-39.62v-124.85h-6.24c-8.84,0-16-7.16-16-16V85.38c0-35.05,24.15-53.38,48-53.38s48,18.34,48,53.38v354.99c0,25.74-18.94,39.62-36.76,39.62ZM336,283.52h6.24c8.84,0,16,7.16,16,16v140.85c0,4.92,1.77,7.62,5,7.62,4.15,0,4.76-4.78,4.76-7.62V85.38c0-15.78-8.62-21.38-16-21.38s-16,5.6-16,21.38v198.14Z"/><path d="M199.7,155.29c-8.84,0-16-7.16-16-16V48.4c0-8.84,7.16-16,16-16s16,7.16,16,16v90.89c0,8.84-7.16,16-16,16Z"/><path d="M199.78,479.07c-21.32,0-38.67-17.35-38.67-38.67v-192.97c0-26.6-6.23-32.61-9.58-35.84-.45-.43-.86-.83-1.24-1.21-.25-.25-.57-.54-.93-.86-6.63-6.09-24.26-22.28-24.26-65.74V48.4c0-8.84,7.16-16,16-16s16,7.16,16,16v95.38c0,29.4,9.39,38.02,13.9,42.17.78.72,1.45,1.34,2,1.89.22.23.47.46.74.72,9.57,9.24,19.36,23.45,19.36,58.87v192.97c0,3.68,2.99,6.67,6.67,6.67s6.67-2.99,6.67-6.67v-192.97c0-33.49,8.99-47.39,18.71-57.42.49-.51,1-1.03,1.23-1.3,1.21-1.41,2.45-2.58,3.66-3.71,4.64-4.36,12.41-11.65,12.41-41.22V48.4c0-8.84,7.16-16,16-16s16,7.16,16,16v95.38c0,43.41-15.2,57.69-22.51,64.55-.47.44-1.11,1.04-1.31,1.25-.81.94-1.66,1.83-2.5,2.69-3.86,3.99-9.69,10.01-9.69,35.16v192.97c0,21.32-17.35,38.67-38.67,38.67Z"/></svg>