<?xml version="1.0" encoding="UTF-8"?><svg id="Icon" xmlns="http://www.w3.org/2000/svg" viewBox="0 0 512 512"><path d="M256.11,283.08h-33.09c-.12,0-.23.02-.35.02v-55.68h32.02c8.84,0,16-7.16,16-16s-7.16-16-16-16h-32.02v-12.45c-.16-18.77-11.05-29.65-29.88-29.83-14.02-.14-24.77-.02-34.86.4-22.53.92-42.97,8.97-60.75,23.9-18.6,15.63-30.23,36.03-35.53,62.24h-13.41c-8.84,0-16,7.16-16,16s7.16,16,16,16h13.29c.09.36.18.69.27,1,.33,1.27.56,2.1.7,2.75,10.43,48.08,47.26,79.75,96.13,82.66,5.86.35,11.68.44,17.4.44,3.16,0,6.3-.03,9.39-.06,2.74-.02,5.49-.05,8.23-.05,10.91-.02,17.56-4.43,21.21-8.14,3.61-3.66,7.9-10.25,7.81-20.89v-14.33c.12,0,.23.02.35.02h33.09c8.84,0,16-7.16,16-16s-7.16-16-16-16Z"/><path d="M464.25,239.94h-13.29c-.09-.36-.18-.69-.27-1-.33-1.27-.56-2.1-.7-2.75-10.43-48.08-47.26-79.75-96.13-82.66-9.09-.54-18.09-.46-26.8-.38-2.74.02-5.49.05-8.23.05-10.91.02-17.56,4.43-21.21,8.14-3.61,3.66-7.9,10.25-7.81,20.89v146.29s0,.13,0,.13c.16,18.77,11.05,29.65,29.88,29.83,3.65.04,7.08.05,10.34.05,9.24,0,17.06-.15,24.52-.45,22.53-.92,42.97-8.97,60.75-23.9,18.6-15.63,30.23-36.03,35.53-62.24h13.41c8.84,0,16-7.16,16-16s-7.16-16-16-16Z"/></svg>