<?xml version="1.0" encoding="UTF-8"?><svg id="Icon" xmlns="http://www.w3.org/2000/svg" viewBox="0 0 512 512"><polygon points="232.74 232.88 205.85 306.18 279.26 279.61 279.28 279.58 232.77 232.87 232.74 232.88"/><path d="M414.39,97.61c-42.31-42.31-98.56-65.61-158.39-65.61s-116.08,23.3-158.39,65.61c-42.31,42.31-65.61,98.56-65.61,158.39s23.3,116.08,65.61,158.39,98.56,65.61,158.39,65.61,116.08-23.3,158.39-65.61c42.31-42.31,65.61-98.56,65.61-158.39s-23.3-116.08-65.61-158.39ZM353.97,182.08l-43.33,118.11c-1.86,5.07-5.86,9.05-10.94,10.89l-118.3,42.8c-2.04.74-4.16,1.1-6.26,1.09-4.76-.01-9.43-1.89-12.91-5.38-5.01-5.03-6.65-12.52-4.21-19.18l43.33-118.11c1.86-5.07,5.86-9.05,10.94-10.89l118.3-42.8c6.68-2.42,14.15-.74,19.17,4.29,5.01,5.03,6.65,12.52,4.21,19.18Z"/></svg>