<?xml version="1.0" encoding="UTF-8"?><svg id="Icon" xmlns="http://www.w3.org/2000/svg" viewBox="0 0 512 512"><path d="M256,480c-59.83,0-116.08-23.3-158.39-65.61s-65.61-98.56-65.61-158.39,23.3-116.08,65.61-158.39c42.31-42.31,98.56-65.61,158.39-65.61s116.08,23.3,158.39,65.61c42.31,42.31,65.61,98.56,65.61,158.39s-23.3,116.08-65.61,158.39c-42.31,42.31-98.56,65.61-158.39,65.61ZM256,64c-105.87,0-192,86.13-192,192s86.13,192,192,192,192-86.13,192-192S361.87,64,256,64Z"/><path d="M349.76,162.9c-5.01-5.03-12.48-6.71-19.17-4.29l-118.3,42.8c-5.08,1.84-9.08,5.82-10.94,10.89l-43.33,118.11c-2.45,6.67-.81,14.15,4.21,19.18,3.48,3.5,8.15,5.37,12.91,5.38,2.1,0,4.21-.35,6.26-1.09l118.3-42.8c5.08-1.84,9.08-5.82,10.94-10.89l43.33-118.11c2.45-6.67.81-14.15-4.21-19.18ZM205.85,306.18l26.89-73.3h.03s46.51,46.7,46.51,46.7v.03s-73.43,26.56-73.43,26.56Z"/></svg>