<?xml version="1.0" encoding="UTF-8"?><svg id="Icon" xmlns="http://www.w3.org/2000/svg" viewBox="0 0 512 512"><path d="M328.77,126.08l-.29-.47c-.35-.62-.79-1.12-1.2-1.54-1.83-2.08-4.38-3.27-7.1-3.27h0c-1.37.03-2.68.34-3.92.93-1.23.59-2.3,1.42-3.18,2.47l-.27.33-.12.23s-.26.27-.26.27l-.11.13c-.31.4-.63.86-.95,1.32l-.07.1c-.2.31-.41.62-.62.9l-.09.12-.08.13c-4.46,7.1-6.45,11.87-6.45,15.48,0,9.31,7.18,16.89,16,16.89s16-7.58,16-16.89c0-3.74-2.04-8.69-6.23-15.14-.29-.76-.69-1.42-1.07-2Z"/><path d="M445.78,309.75c-14.64-17.87-41.64-20.9-60.27-6.7l-24.56,18.94c-.05.04-.1.08-.15.12-1.2.95-2.59,1.66-4.21,2.13l-7.57,2.25c.05-.06.1-.12.15-.18,7.27-8.38,11.76-19.08,12.63-30.14,0-.12.02-.24.03-.37.45-7.96-2.21-15.7-7.5-21.8-.13-.15-.26-.29-.39-.43-5.64-6.06-13.41-9.39-21.88-9.39h-44.06s0-40.18,0-40.18c0-38.81-27.78-71.24-64.5-78.48.32-1.25.5-2.56.5-3.91v-37.95c7.81-1.35,16.69-3.63,25.91-5.99,12.96-3.33,27.66-7.1,35.7-7.1,17.08,0,23.89,2.42,28.93,4.69,8.06,3.63,17.53.03,21.16-8.02,3.63-8.06.03-17.53-8.02-21.16-8.66-3.9-19.75-7.5-42.06-7.5-12.09,0-28.14,4.12-43.66,8.1-11.39,2.92-24.3,6.24-30.19,6.24-9.16,0-25.21-6.35-33.18-10.35-7.88-3.97-17.5-.81-21.48,7.08-3.98,7.89-.82,17.51,7.07,21.49,1.9.96,14.05,6.96,27.83,10.72v39.76c0,1.35.19,2.66.5,3.91-36.72,7.24-64.5,39.67-64.5,78.48v64h-32c-17.64,0-32,14.35-32,32v96c0,17.65,14.36,32,32,32h64c10.62,0,20.04-5.21,25.87-13.19l63.35,11.04s.09.02.13.02c8.83,1.46,16.97,2.17,24.97,2.17,20.44,0,41.05-4.55,59.56-13.13l48.87-22.55c12.38-5.76,23.88-13.24,34.24-22.31l24.19-21.41c8.27-7.35,13.29-17.48,14.16-28.52.86-11.04-2.53-21.83-9.55-30.37ZM160,224c0-26.47,21.53-48,48-48s48,21.53,48,48v41.33c-16.8,2.58-32.85,9.5-46.28,20.15l-22.38,17.9c-5.62-9.22-15.77-15.38-27.34-15.38v-64ZM160,416h-64v-96h64l.02,96s0,0-.02,0ZM423.42,337.62c-.22,2.75-1.46,5.28-3.49,7.08l-24.09,21.32c-8.01,7.01-16.96,12.83-26.55,17.29l-48.85,22.54c-14.35,6.66-30.3,10.18-46.2,10.18-6.14,0-12.55-.57-19.61-1.73l-62.64-10.91v-63.68c1.46-.57,2.86-1.37,4.15-2.4l33.5-26.8c11.55-9.16,26.02-14.25,40.66-14.33h59.22c-.71,3.37-2.28,6.55-4.53,9.15-2.83,3.26-6.74,5.58-11,6.53-.04,0-.08.02-.13.03l-35.6,8.21c-6.88,1.59-11.9,7.49-12.37,14.54-.47,7.04,3.74,13.56,10.35,16.04l30.51,11.44c9.22,3.72,19.67,4.27,29.46,1.54.09-.02.17-.05.26-.07l29.1-8.64c5.49-1.59,10.52-4.17,14.96-7.67l24.42-18.83c4.92-3.75,12.27-3.03,16.06,1.6,1.78,2.17,2.61,4.79,2.39,7.59Z"/></svg>