<?xml version="1.0" encoding="UTF-8"?><svg id="Icon" xmlns="http://www.w3.org/2000/svg" viewBox="0 0 512 512"><path d="M326.89,480h-38.89c-8.84,0-16-7.16-16-16v-48h-32v48c0,8.84-7.16,16-16,16h-38.89c-22.67,0-41.11-18.44-41.11-41.11v-92.75c0-12.38,5.49-23.97,15.07-31.81l82.13-67.19c8.61-7,21.05-7,29.61,0l82.12,67.2c9.58,7.84,15.07,19.44,15.07,31.82v92.75c0,22.67-18.44,41.11-41.11,41.11ZM304,448h22.89c5.02,0,9.11-4.09,9.11-9.11v-92.75c0-2.74-1.22-5.32-3.34-7.05l-76.65-62.72-76.67,62.73c-2.12,1.73-3.34,4.31-3.34,7.05v92.75c0,5.02,4.09,9.11,9.11,9.11h22.89v-48c0-8.84,7.16-16,16-16h64c8.84,0,16,7.16,16,16v48Z"/><path d="M112,416h-40.15c-21.97,0-39.85-17.88-39.85-39.85v-88.11c0-12,5.32-23.24,14.61-30.84l78.02-63.83c8.48-6.89,20.71-6.89,29.14,0l45.09,36.9c6.84,5.6,7.85,15.68,2.25,22.52-5.59,6.84-15.67,7.85-22.52,2.25l-39.39-32.23-72.33,59.17c-1.85,1.52-2.88,3.68-2.88,6.08v88.11c0,4.33,3.52,7.85,7.85,7.85h40.15c8.84,0,16,7.16,16,16s-7.16,16-16,16Z"/><path d="M440.15,416h-40.15c-8.84,0-16-7.16-16-16s7.16-16,16-16h40.15c4.33,0,7.85-3.52,7.85-7.85v-88.11c0-2.4-1.02-4.56-2.88-6.08l-72.32-59.17-39.39,32.23c-6.84,5.6-16.92,4.59-22.52-2.25-5.6-6.84-4.59-16.92,2.25-22.52l45.08-36.89c8.43-6.89,20.67-6.9,29.11-.03l78.05,63.86c9.29,7.61,14.61,18.85,14.61,30.85v88.11c0,21.97-17.88,39.85-39.85,39.85Z"/><path d="M199.01,205.98c-3.57,0-7.15-1.19-10.13-3.62-6.84-5.6-7.84-15.68-2.24-22.52,7.57-9.25,11.26-16.69,11.26-22.74,0-3.86-1.17-10.42-11.26-22.74-13.95-16.99-20.45-32.33-20.45-48.25,0-15.92,6.5-31.26,20.46-48.26,5.61-6.83,15.69-7.82,22.52-2.21,6.83,5.61,7.82,15.69,2.21,22.52-9,10.97-13.2,19.85-13.19,27.96,0,8.11,4.19,17,13.2,27.96,12.63,15.42,18.51,29.09,18.51,43.03,0,13.94-5.88,27.61-18.5,43.02-3.16,3.86-7.76,5.86-12.39,5.86Z"/><path d="M256.96,205.98c-3.57,0-7.15-1.19-10.13-3.62-6.84-5.6-7.84-15.68-2.24-22.52,7.57-9.25,11.26-16.69,11.26-22.74,0-3.86-1.17-10.42-11.26-22.74-13.95-16.99-20.45-32.33-20.45-48.25,0-15.92,6.5-31.26,20.46-48.26,5.61-6.83,15.69-7.82,22.52-2.21,6.83,5.61,7.82,15.69,2.21,22.52-9,10.97-13.19,19.85-13.19,27.96,0,8.11,4.19,17,13.19,27.96,12.63,15.42,18.51,29.09,18.51,43.03,0,13.94-5.88,27.61-18.5,43.02-3.16,3.86-7.76,5.86-12.39,5.86Z"/><path d="M316.08,205.98c-3.57,0-7.15-1.19-10.13-3.62-6.84-5.6-7.84-15.68-2.24-22.52,7.57-9.25,11.26-16.69,11.26-22.74,0-3.86-1.17-10.42-11.26-22.74-13.95-16.99-20.45-32.33-20.45-48.25,0-15.92,6.5-31.26,20.46-48.26,5.61-6.83,15.69-7.82,22.52-2.21,6.83,5.61,7.82,15.69,2.21,22.52-9,10.97-13.19,19.85-13.19,27.96,0,8.11,4.19,17,13.19,27.96,12.63,15.42,18.51,29.09,18.51,43.03,0,13.94-5.88,27.61-18.5,43.02-3.16,3.86-7.76,5.86-12.39,5.86Z"/></svg>