<?xml version="1.0" encoding="UTF-8"?><svg id="Icon" xmlns="http://www.w3.org/2000/svg" viewBox="0 0 512 512"><path d="M206.46,422.59c-5.04,0-10-2.38-13.12-6.82-5.07-7.24-3.32-17.21,3.92-22.29l134-93.93c7.24-5.07,17.21-3.32,22.29,3.92,5.07,7.24,3.32,17.21-3.92,22.29l-134,93.93c-2.79,1.96-6,2.9-9.17,2.9Z"/><path d="M370.03,296h0c-4.87,0-9.48-2.22-12.52-6.03-1.89-2.37-46.24-58.38-60.1-103.47-2.55-7.26-3.99-14.88-4.28-22.66-.05-1.03-.07-1.97-.07-2.87,0-42.44,34.53-76.96,76.97-76.96s76.97,34.53,76.97,76.96c0,.99-.02,1.96-.07,2.91-.29,7.76-1.72,15.36-4.28,22.62-13.86,45.1-58.22,101.11-60.11,103.47-3.04,3.81-7.64,6.03-12.52,6.03ZM370.03,116c-24.79,0-44.97,20.17-44.97,44.96,0,.47.02.95.04,1.44,0,.07,0,.13,0,.2.17,4.66,1.03,9.2,2.57,13.5.09.24.17.48.24.73,7.81,25.67,28.55,57.35,42.11,76.39,13.56-19.03,34.31-50.72,42.11-76.39.07-.25.16-.49.24-.73,1.54-4.31,2.4-8.84,2.56-13.48,0-.1,0-.21.01-.31.02-.45.03-.9.03-1.34,0-24.79-20.17-44.96-44.97-44.96Z"/><path d="M370.03,181.54c-11.36,0-20.57-9.21-20.57-20.57s9.21-20.57,20.57-20.57,20.57,9.21,20.57,20.57-9.21,20.57-20.57,20.57Z"/><path d="M139.18,452h0c-4.87,0-9.48-2.22-12.52-6.03-1.89-2.37-46.24-58.38-60.1-103.47-2.55-7.26-3.99-14.88-4.28-22.66-.05-1.02-.07-1.96-.07-2.87,0-42.44,34.53-76.96,76.97-76.96s76.97,34.53,76.97,76.96c0,.98-.02,1.96-.07,2.91-.29,7.76-1.72,15.36-4.28,22.62-13.86,45.1-58.22,101.1-60.1,103.47-3.04,3.81-7.64,6.03-12.52,6.03ZM139.18,272c-24.79,0-44.97,20.17-44.97,44.96,0,.47.02.95.04,1.43,0,.07,0,.14,0,.2.17,4.65,1.03,9.2,2.57,13.5.09.24.17.48.24.73,7.81,25.67,28.55,57.35,42.11,76.39,13.56-19.03,34.31-50.72,42.11-76.39.07-.25.16-.49.24-.73,1.54-4.31,2.4-8.84,2.56-13.48,0-.1,0-.2.01-.3.02-.45.03-.9.03-1.34,0-24.79-20.17-44.96-44.97-44.96Z"/><path d="M139.18,337.54c-11.36,0-20.57-9.21-20.57-20.57s9.21-20.57,20.57-20.57,20.57,9.21,20.57,20.57-9.21,20.57-20.57,20.57Z"/></svg>