<?xml version="1.0" encoding="UTF-8"?><svg id="Icon" xmlns="http://www.w3.org/2000/svg" viewBox="0 0 512 512"><path d="M332.58,155.86l-2.25-1.3c2.57-3.12,3.52-7.45,2.11-11.55-2.16-6.27-8.98-9.6-15.25-7.44-3.45,1.19-6.73,3.33-9.6,5.86l-27.6-15.93,27.6-15.93c2.86,2.53,6.15,4.68,9.59,5.86,1.29.44,2.61.66,3.91.66,4.98,0,9.63-3.13,11.35-8.1,1.41-4.1.46-8.43-2.11-11.55l2.25-1.3c5.74-3.31,7.71-10.65,4.39-16.39-3.31-5.74-10.65-7.71-16.39-4.39l-2.25,1.3c-1.41-3.79-4.69-6.77-8.94-7.6-6.51-1.27-12.8,2.98-14.07,9.49-.7,3.58-.48,7.5.28,11.24l-27.6,15.93v-31.87c3.62-1.22,7.12-2.98,9.88-5.38,5-4.35,5.53-11.93,1.18-16.93-2.84-3.27-7.07-4.61-11.05-3.94v-2.59c0-6.63-5.37-12-12-12s-12,5.37-12,12v2.59c-3.98-.67-8.21.67-11.05,3.94-4.35,5-3.82,12.58,1.18,16.93,2.75,2.39,6.25,4.16,9.88,5.38v31.87l-27.6-15.93c.76-3.75.98-7.66.28-11.24-1.27-6.5-7.56-10.75-14.07-9.49-4.26.83-7.53,3.82-8.94,7.6l-2.25-1.3c-5.74-3.31-13.08-1.35-16.39,4.39-3.31,5.74-1.35,13.08,4.39,16.39l2.25,1.3c-2.57,3.12-3.52,7.45-2.11,11.55,1.71,4.97,6.37,8.1,11.35,8.1,1.29,0,2.61-.21,3.91-.66,3.45-1.19,6.73-3.33,9.59-5.86l27.6,15.93-27.6,15.93c-2.86-2.53-6.15-4.68-9.6-5.86-6.27-2.16-13.1,1.18-15.25,7.44-1.41,4.1-.46,8.43,2.11,11.55l-2.25,1.3c-5.74,3.31-7.71,10.65-4.39,16.39,2.22,3.85,6.26,6,10.4,6,2.04,0,4.1-.52,5.99-1.61l2.25-1.3c1.41,3.79,4.69,6.77,8.94,7.6.77.15,1.54.22,2.31.22,5.63,0,10.65-3.98,11.77-9.71.7-3.58.48-7.5-.28-11.24l27.6-15.93v31.87c-3.62,1.22-7.12,2.98-9.88,5.38-5,4.35-5.53,11.93-1.18,16.93,2.37,2.73,5.71,4.12,9.06,4.12.67,0,1.33-.06,2-.17v2.58c0,6.63,5.37,12,12,12s12-5.37,12-12v-2.58c.66.11,1.33.17,2,.17,3.35,0,6.69-1.4,9.06-4.12,4.35-5,3.82-12.58-1.18-16.93-2.75-2.39-6.25-4.16-9.88-5.38v-31.87l27.6,15.93c-.76,3.75-.98,7.66-.28,11.24,1.12,5.73,6.14,9.71,11.77,9.71.76,0,1.53-.07,2.31-.22,4.26-.83,7.53-3.82,8.94-7.6l2.25,1.3c1.89,1.09,3.95,1.61,5.99,1.61,4.15,0,8.18-2.15,10.4-6,3.31-5.74,1.35-13.08-4.39-16.39Z"/><path d="M326.89,480h-38.89c-8.84,0-16-7.16-16-16v-48h-32v48c0,8.84-7.16,16-16,16h-38.89c-22.67,0-41.11-18.44-41.11-41.11v-92.75c0-12.38,5.49-23.97,15.07-31.81l82.13-67.19c8.61-7,21.05-7,29.61,0l82.12,67.2c9.58,7.84,15.07,19.44,15.07,31.82v92.75c0,22.67-18.44,41.11-41.11,41.11ZM304,448h22.89c5.02,0,9.11-4.09,9.11-9.11v-92.75c0-2.74-1.22-5.32-3.34-7.05l-76.65-62.72-76.67,62.73c-2.12,1.73-3.34,4.31-3.34,7.05v92.75c0,5.02,4.09,9.11,9.11,9.11h22.89v-48c0-8.84,7.16-16,16-16h64c8.84,0,16,7.16,16,16v48Z"/><path d="M112,416h-40.15c-21.97,0-39.85-17.88-39.85-39.85v-88.11c0-12,5.32-23.24,14.61-30.84l78.02-63.83c8.48-6.89,20.71-6.89,29.14,0l45.09,36.9c6.84,5.6,7.85,15.68,2.25,22.52-5.59,6.84-15.67,7.85-22.52,2.25l-39.39-32.23-72.33,59.17c-1.85,1.52-2.88,3.68-2.88,6.08v88.11c0,4.33,3.52,7.85,7.85,7.85h40.15c8.84,0,16,7.16,16,16s-7.16,16-16,16Z"/><path d="M440.15,416h-40.15c-8.84,0-16-7.16-16-16s7.16-16,16-16h40.15c4.33,0,7.85-3.52,7.85-7.85v-88.11c0-2.4-1.02-4.56-2.88-6.08l-72.32-59.17-39.39,32.23c-6.84,5.6-16.92,4.59-22.52-2.25-5.6-6.84-4.59-16.92,2.25-22.52l45.08-36.89c8.43-6.89,20.67-6.9,29.11-.03l78.05,63.86c9.29,7.61,14.61,18.85,14.61,30.85v88.11c0,21.97-17.88,39.85-39.85,39.85Z"/></svg>