<?xml version="1.0" encoding="UTF-8"?><svg id="Icon" xmlns="http://www.w3.org/2000/svg" viewBox="0 0 512 512"><path d="M326.89,480h-38.89c-8.84,0-16-7.16-16-16v-48h-32v48c0,8.84-7.16,16-16,16h-38.89c-22.67,0-41.11-18.44-41.11-41.11v-92.75c0-12.38,5.49-23.97,15.07-31.81l82.13-67.19c8.61-7,21.05-7,29.61,0l82.12,67.2c9.58,7.84,15.07,19.44,15.07,31.82v92.75c0,22.67-18.44,41.11-41.11,41.11ZM304,448h22.89c5.02,0,9.11-4.09,9.11-9.11v-92.75c0-2.74-1.22-5.32-3.34-7.05l-76.65-62.72-76.67,62.73c-2.12,1.73-3.34,4.31-3.34,7.05v92.75c0,5.02,4.09,9.11,9.11,9.11h22.89v-48c0-8.84,7.16-16,16-16h64c8.84,0,16,7.16,16,16v48Z"/><path d="M112,416h-40.15c-21.97,0-39.85-17.88-39.85-39.85v-88.11c0-12,5.32-23.24,14.61-30.84l78.02-63.83c8.48-6.89,20.71-6.89,29.14,0l45.09,36.9c6.84,5.6,7.85,15.68,2.25,22.52-5.6,6.84-15.68,7.85-22.52,2.25l-39.39-32.23-72.33,59.17c-1.85,1.52-2.88,3.68-2.88,6.08v88.11c0,4.33,3.52,7.85,7.85,7.85h40.15c8.84,0,16,7.16,16,16s-7.16,16-16,16Z"/><path d="M440.15,416h-40.15c-8.84,0-16-7.16-16-16s7.16-16,16-16h40.15c4.33,0,7.85-3.52,7.85-7.85v-88.11c0-2.4-1.02-4.56-2.88-6.08l-72.32-59.17-39.39,32.23c-6.84,5.6-16.92,4.59-22.52-2.25-5.6-6.84-4.59-16.92,2.25-22.52l45.08-36.89c8.43-6.89,20.67-6.9,29.11-.03l78.05,63.86c9.29,7.61,14.61,18.85,14.61,30.85v88.11c0,21.97-17.88,39.85-39.85,39.85Z"/><path d="M378.39,135.19c-3.01,0-6.04-.85-8.75-2.61-7.39-4.84-9.46-14.76-4.63-22.15,1.95-2.99,2.99-5.6,2.99-7.57,0-9.03-10.85-16.66-23.7-16.66-4.72,0-9.88,1.29-13.95,3.47-4.93,3.19-11.48,4.24-17.26,2.66-4.89-1.34-9.25-4.14-12.27-7.87l-.38-.49c-9.21-12.31-26.14-19.96-44.19-19.96s-35.03,7.4-44.07,19.81l-.5.65c-3.03,3.73-7.38,6.53-12.27,7.87-3.75,1.03-9.62,1.48-16.36-2.16-5.07-2.67-10.09-3.97-15.35-3.97-12.85,0-23.7,7.63-23.7,16.66,0,2.25.87,4.56,2.65,7.08,5.11,7.21,3.41,17.2-3.8,22.31-7.21,5.11-17.2,3.41-22.31-3.8-5.67-8-8.55-16.61-8.55-25.58,0-26.83,24.99-48.66,55.7-48.66,8.08,0,16.01,1.55,23.67,4.6,15.47-16.9,39.14-26.8,64.89-26.8s49.08,9.88,64.77,26.75c7.33-2.97,15.37-4.56,23.28-4.56,30.71,0,55.7,21.83,55.7,48.66,0,8.32-2.76,16.77-8.21,25.09-3.07,4.69-8.19,7.24-13.4,7.24Z"/><path d="M255.78,192c-8.84,0-16-7.16-16-16v-48c0-8.84,7.16-16,16-16s16,7.16,16,16v48c0,8.84-7.16,16-16,16Z"/><path d="M303.77,188.79c-2.71,0-5.47-.69-7.99-2.15-7.65-4.42-10.27-14.2-5.86-21.86l24-41.57c4.42-7.65,14.2-10.27,21.86-5.86,7.65,4.42,10.27,14.2,5.86,21.86l-24,41.57c-2.96,5.13-8.34,8-13.87,8Z"/><path d="M208.79,188.79c-5.53,0-10.91-2.87-13.87-8l-24-41.57c-4.42-7.65-1.8-17.44,5.86-21.86,7.65-4.42,17.44-1.8,21.86,5.86l24,41.57c4.42,7.65,1.8,17.44-5.86,21.86-2.52,1.45-5.27,2.15-7.99,2.15Z"/></svg>