<?xml version="1.0" encoding="UTF-8"?><svg id="Icon" xmlns="http://www.w3.org/2000/svg" viewBox="0 0 512 512"><path d="M256,32c-49.69,0-94.76,27.56-117.63,71.92-7.59,14.73-8.4,30.05-2.27,43.13,5.96,12.71,17.98,22.18,32.17,25.32,22.26,4.93,44.78-8.55,54.77-32.79,4.38-10.62,14.49-28.43,32.96-28.43s32.91,14.76,32.91,32.91-14.76,32.91-32.91,32.91h-107.43c-13.64,0-24.73,11.1-24.73,24.73v228.84c0,5.5,2.82,10.61,7.48,13.54,37.31,23.49,80.43,35.91,124.68,35.91s87.37-12.42,124.68-35.91c4.65-2.93,7.48-8.04,7.48-13.54V164.16c0-72.87-59.29-132.16-132.16-132.16ZM356.16,421.5c-30.42,17.36-64.87,26.5-100.16,26.5s-69.74-9.14-100.16-26.5v-212.52h100.16c35.79,0,64.91-29.12,64.91-64.91s-29.12-64.91-64.91-64.91c-27.1,0-49.89,17.58-62.54,48.23-2.71,6.55-9.8,15.63-18.27,13.75-4.43-.98-8.4-3.99-10.12-7.66-1.88-4.01-1.29-9.02,1.73-14.89,17.36-33.67,51.53-54.59,89.19-54.59,55.23,0,100.16,44.93,100.16,100.16v257.34Z"/><path d="M256,251.56c-41.96,0-76.09,34.13-76.09,76.09s34.13,76.09,76.09,76.09,76.09-34.13,76.09-76.09-34.13-76.09-76.09-76.09ZM256,283.56c18.67,0,34.65,11.67,41.07,28.09h-82.14c6.42-16.42,22.4-28.09,41.07-28.09ZM256,371.73c-18.67,0-34.65-11.67-41.07-28.09h82.14c-6.42,16.42-22.4,28.09-41.07,28.09Z"/></svg>