<?xml version="1.0" encoding="UTF-8"?><svg id="Icon" xmlns="http://www.w3.org/2000/svg" viewBox="0 0 512 512"><path d="M275.33,64h-147.14c-17.75,0-32.19,14.35-32.19,32v320c0,17.65,14.44,32,32.19,32h255.62c17.75,0,32.19-14.35,32.19-32v-212.8c0-4.28-1.71-8.38-4.75-11.38l-124.67-123.2c-3-2.96-7.04-4.62-11.25-4.62ZM288,115.02l77.9,76.98h-77.9v-76.98ZM383.81,416h-255.62c-.07,0-.13-.01-.16-.01-.02,0-.03,0-.03.01l-.03-319.92c.04-.06.11-.08.22-.08h127.81v112c0,8.84,7.16,16,16,16h112l.02,191.92c-.04.06-.11.08-.22.08Z"/></svg>