<?xml version="1.0" encoding="UTF-8"?><svg id="Icon" xmlns="http://www.w3.org/2000/svg" viewBox="0 0 512 512"><polygon points="95.65 445.84 202.27 445.84 202.27 421.91 133.84 421.91 199.97 331.76 199.97 310.23 98.05 310.23 98.05 334.15 161.88 334.15 95.65 424.3 95.65 445.84"/><rect x="241.74" y="310.23" width="30.53" height="135.61"/><path d="M390.6,312.81c-6.83-1.72-16.75-2.58-29.76-2.58h-38.19v135.61h30.53v-51.68h12.82c9.31,0,16.92-.72,22.83-2.15,5.9-1.44,10.92-3.81,15.07-7.13,9.57-7.66,14.36-18.66,14.36-33.02,0-8.8-2.01-16.49-6.03-23.06-4.98-8.23-12.19-13.56-21.63-15.98ZM379.5,368.51c-3.7,1.79-9.79,2.68-18.28,2.68h-8.8v-37.99h8.8c8.48,0,14.67,1.18,18.57,3.54,5.29,3.19,7.94,8.58,7.94,16.17s-2.74,12.92-8.23,15.6Z"/><path d="M286.57,68.62c-3-2.96-7.04-4.62-11.25-4.62h-147.14c-17.75,0-32.19,14.35-32.19,32v176c0,8.84,7.16,16,16,16s16-7.16,16-16l-.03-175.92c.04-.06.11-.08.22-.08h127.81v112c0,8.84,7.16,16,16,16h112v48c0,8.84,7.16,16,16,16s16-7.16,16-16v-68.8c0-4.28-1.71-8.38-4.75-11.38l-124.67-123.2ZM288,115.02l77.9,76.98h-77.9v-76.98Z"/></svg>