<?xml version="1.0" encoding="UTF-8"?><svg id="Icon" xmlns="http://www.w3.org/2000/svg" viewBox="0 0 512 512"><path d="M443.1,132.61l-99.88-96.14c-2.98-2.87-6.96-4.47-11.1-4.47h-95.49c-24.61,0-44.62,20.05-44.62,44.7v19.3h-19.34c-24.62,0-44.66,20.03-44.66,44.66v19.34h-19.34c-24.62,0-44.66,20.03-44.66,44.66v230.26c0,24.62,20.03,44.66,44.66,44.66h166.95c24.62,0,44.66-20.03,44.66-44.66v-19.34h24.34c24.62,0,44.66-20.03,44.66-44.66v-18.92h14.11c24.61,0,44.62-20.05,44.62-44.7v-163.16c0-4.35-1.77-8.51-4.9-11.53ZM392.16,128h-56.16v-54.05l56.16,54.05ZM288.26,434.92c0,6.98-5.68,12.66-12.66,12.66H108.66c-6.98,0-12.66-5.68-12.66-12.66v-230.26c0-6.98,5.68-12.66,12.66-12.66h19.34v178.92c0,24.62,20.03,44.66,44.66,44.66h115.6v19.34ZM357.26,370.92c0,6.98-5.68,12.66-12.66,12.66h-171.95c-6.98,0-12.66-5.68-12.66-12.66v-230.26c0-6.98,5.68-12.66,12.66-12.66h19.34v179.3c0,24.65,20.02,44.7,44.62,44.7h120.64v18.92ZM403.38,320h-166.75c-6.96,0-12.62-5.7-12.62-12.7V76.7c0-7,5.66-12.7,12.62-12.7h67.38v80c0,8.84,7.16,16,16,16h96v147.3c0,7-5.66,12.7-12.62,12.7Z"/></svg>