<?xml version="1.0" encoding="UTF-8"?><svg id="Icon" xmlns="http://www.w3.org/2000/svg" viewBox="0 0 512 512"><path d="M112,288c8.84,0,16-7.16,16-16l-.03-175.92c.04-.06.11-.08.22-.08h127.81v112c0,8.84,7.16,16,16,16h112v48c0,8.84,7.16,16,16,16s16-7.16,16-16v-68.8c0-4.28-1.71-8.37-4.75-11.38l-124.67-123.2c-3-2.96-7.04-4.62-11.25-4.62h-147.14c-17.75,0-32.19,14.36-32.19,32v176c0,8.84,7.16,16,16,16ZM288,115.02l77.9,76.98h-77.9v-76.98Z"/><path d="M166.66,423.24c-4.47,1.44-9.36,2.16-14.69,2.16-11.75,0-20.96-3.93-27.63-11.8-6.67-7.86-10.01-18.77-10.01-32.73s3.18-24.29,9.55-32.5c6.06-7.83,14.81-11.75,26.25-11.75,9.49,0,19.4,2.82,29.74,8.45l9.82-22.03c-7.77-3.49-14.72-5.92-20.84-7.3-6.12-1.38-12.91-2.07-20.38-2.07-17.5,0-31.61,4.53-42.32,13.59-14.75,12.42-22.12,30.72-22.12,54.89,0,14.32,2.66,26.44,7.99,36.35,5.94,11.08,14.72,19.19,26.35,24.33,8.32,3.67,18.85,5.51,31.58,5.51,8.45,0,15.54-.66,21.3-1.97,5.75-1.32,12.48-3.84,20.2-7.57l-8.54-23.41c-6.37,3.8-11.78,6.41-16.25,7.85Z"/><path d="M280.71,381.24c-2.75-2.08-5.69-3.9-8.81-5.46s-9.49-4.33-19.09-8.31c-9.67-3.98-15.77-6.96-18.31-8.95-2.54-1.99-3.81-4.73-3.81-8.22,0-4.04,1.5-7.37,4.5-10.01,2.88-2.45,7.07-3.67,12.58-3.67,4.83,0,9.47.52,13.91,1.56,4.44,1.04,11.06,3.18,19.87,6.43l5.88-23.87c-14.93-4.71-28.76-7.07-41.49-7.07-17.62,0-30.29,5.42-38,16.25-5.02,6.98-7.53,15.09-7.53,24.33,0,10.71,3.82,18.91,11.47,24.6,2.69,2.02,5.65,3.83,8.86,5.42,3.21,1.59,8.74,4.01,16.57,7.25,10.59,4.35,17.23,7.56,19.92,9.64,2.69,2.08,4.04,4.99,4.04,8.72,0,4.16-1.38,7.68-4.13,10.56-3.18,3.3-8.14,4.96-14.87,4.96-10.34,0-22.95-3.12-37.82-9.36l-4.22,24.97c13.89,4.9,28.43,7.34,43.6,7.34s25.89-3.03,33.96-9.09c9.49-7.16,14.23-17.72,14.23-31.67,0-11.81-3.76-20.59-11.29-26.35Z"/><path d="M395.95,315.97l-22.31,59.58c-3.79,10.22-7.8,22.06-12.03,35.53-2.75-9.61-6.88-21.85-12.39-36.72l-21.66-58.38h-30.48l49.29,130.08h29.28l49.29-130.08h-29.01Z"/></svg>