<?xml version="1.0" encoding="UTF-8"?><svg id="Icon" xmlns="http://www.w3.org/2000/svg" viewBox="0 0 512 512"><path d="M126.57,394.16h12.82c9.31,0,16.92-.72,22.83-2.15,5.9-1.44,10.92-3.81,15.07-7.13,9.57-7.66,14.36-18.66,14.36-33.02,0-8.8-2.01-16.49-6.03-23.06-4.98-8.23-12.19-13.56-21.63-15.98-6.83-1.72-16.75-2.58-29.76-2.58h-38.19v135.61h30.53v-51.68ZM125.8,333.19h8.8c8.48,0,14.67,1.18,18.57,3.54,5.29,3.19,7.94,8.58,7.94,16.17s-2.74,12.92-8.23,15.6c-3.7,1.79-9.79,2.68-18.28,2.68h-8.8v-37.99Z"/><path d="M276.88,314.82c-9.57-3.06-22.33-4.59-38.28-4.59h-37.52v135.61h35.41c12.44,0,22.65-.67,30.62-2.01,17.35-2.87,30.18-11.04,38.47-24.5,6.63-10.65,9.95-24.4,9.95-41.25s-3.32-30.03-9.95-40.91c-6.64-10.88-16.21-18.33-28.71-22.35ZM281.09,397.03c-2.62,8.17-6.86,14.2-12.73,18.09-6.7,4.53-17,6.79-30.91,6.79h-5.84v-87.76h5.84c9.51,0,16.62.59,21.34,1.77,4.72,1.18,8.93,3.43,12.63,6.75,3.89,3.51,6.95,8.39,9.19,14.64,2.23,6.25,3.35,13.05,3.35,20.38,0,6.83-.96,13.27-2.87,19.33Z"/><polygon points="417.04 334.15 417.04 310.23 330.82 310.23 330.82 445.84 361.35 445.84 361.35 388.99 414.27 388.99 414.27 365.06 361.35 365.06 361.35 334.15 417.04 334.15"/><path d="M400,288c8.84,0,16-7.16,16-16v-68.8c0-4.28-1.71-8.38-4.75-11.38l-124.67-123.2c-3-2.96-7.04-4.62-11.25-4.62h-147.14c-17.75,0-32.19,14.35-32.19,32v176c0,8.84,7.16,16,16,16s16-7.16,16-16l-.03-175.92c.04-.06.11-.08.22-.08h127.81v112c0,8.84,7.16,16,16,16h112v48c0,8.84,7.16,16,16,16ZM288,115.02l77.9,76.98h-77.9v-76.98Z"/></svg>