<?xml version="1.0" encoding="UTF-8"?><svg id="Icon" xmlns="http://www.w3.org/2000/svg" viewBox="0 0 512 512"><path d="M48,288h416c8.84,0,16-7.16,16-16s-7.16-16-16-16h-12.74c-.57-.48-1.16-.94-1.8-1.35-57.83-36.54-124.73-55.85-193.45-55.85s-136.28,19.5-194.32,56.4c-.39.25-.77.52-1.13.8h-12.55c-8.84,0-16,7.16-16,16s7.16,16,16,16ZM256,230.8c43.84,0,86.84,8.62,126.78,25.2h-253.57c39.93-16.58,82.94-25.2,126.79-25.2Z"/><path d="M465.5,315.56c-1.98-6.85-8.25-11.56-15.37-11.56H61.87c-7.13,0-13.39,4.71-15.37,11.56l-13.87,48c-1.4,4.83-.44,10.04,2.58,14.06,3.02,4.02,7.76,6.38,12.79,6.38h416c5.03,0,9.77-2.36,12.79-6.38,3.02-4.02,3.98-9.23,2.58-14.06l-13.87-48ZM69.28,352l4.62-16h364.2l4.62,16H69.28Z"/></svg>