<?xml version="1.0" encoding="UTF-8"?><svg id="Icon" xmlns="http://www.w3.org/2000/svg" viewBox="0 0 512 512"><path d="M479.37,363.56l-13.87-48c-1.98-6.85-8.25-11.56-15.37-11.56h-8.07c-.05-.29-.1-.58-.17-.86l-27.76-112.5c-.02-.09-.06-.18-.08-.27l39.45-10.57c8.54-2.29,13.6-11.06,11.31-19.6-2.29-8.53-11.06-13.6-19.6-11.31l-12.31,3.3c-.67-.32-1.36-.61-2.09-.83-65.32-20.33-134.94-21.67-201.32-3.88-66.73,17.88-126.59,54.11-173.1,104.77-.32.34-.6.7-.89,1.07l-12.12,3.25c-8.54,2.29-13.6,11.06-11.31,19.6,1.92,7.15,8.38,11.86,15.45,11.86,1.37,0,2.76-.18,4.15-.55l331.47-88.82,26,105.36H61.87c-7.13,0-13.39,4.71-15.37,11.56l-13.87,48c-1.4,4.83-.44,10.04,2.58,14.06,3.02,4.02,7.76,6.38,12.79,6.38h416c5.03,0,9.77-2.36,12.79-6.38,3.02-4.02,3.98-9.23,2.58-14.06ZM237.79,178.37c42.34-11.35,86.12-14.15,128.98-8.47l-244.92,65.63c34.28-26.35,73.59-45.81,115.94-57.16ZM69.28,352l4.62-16h364.2l4.62,16H69.28Z"/></svg>