<?xml version="1.0" encoding="UTF-8"?><svg id="Icon" xmlns="http://www.w3.org/2000/svg" viewBox="0 0 512 512"><path d="M414.3,225.61v-20.16c0-25.53-20.77-46.3-46.3-46.3s-46.3,20.77-46.3,46.3v20.16c-10.3,3.83-17.7,14.05-17.7,26.02v40.73c0,15.24,11.96,27.64,26.67,27.64h74.67c14.7,0,26.67-12.4,26.67-27.64v-40.73c0-11.98-7.39-22.2-17.7-26.02ZM368,191.15c7.89,0,14.3,6.42,14.3,14.3v18.55h-28.61v-18.55c0-7.89,6.42-14.3,14.3-14.3ZM400,288h-64v-32h64v32Z"/><path d="M368,336c-8.84,0-16,7.16-16,16v32h-64V121.92c0-7.11-4.69-13.37-11.52-15.36l-36.22-10.56h111.74v33.01c0,8.84,7.16,16,16,16s16-7.16,16-16v-49.01c0-8.84-7.16-16-16-16h-224c-8.84,0-16,7.16-16,16v318.84c-.01.37-.01.73,0,1.1v.07c0,8.63,6.84,15.65,15.4,15.97l123.82,38.75c1.57.49,3.18.73,4.78.73,3.37,0,6.7-1.06,9.48-3.11,4.1-3.02,6.53-7.8,6.53-12.89v-23.45h80c8.84,0,16-7.16,16-16v-48c0-8.84-7.16-16-16-16ZM256,417.68l-96-30.05V105.93l96,28v283.76Z"/><path d="M228.92,292.82c8.84,0,16-7.16,16-16v-32c0-8.84-7.16-16-16-16s-16,7.16-16,16v32c0,8.84,7.16,16,16,16Z"/></svg>