<?xml version="1.0" encoding="UTF-8"?><svg id="Icon" xmlns="http://www.w3.org/2000/svg" viewBox="0 0 512 512"><path d="M368,64h-224c-8.84,0-16,7.16-16,16v318.84c-.01.37-.01.73,0,1.1v.07c0,8.63,6.84,15.65,15.4,15.97l123.82,38.75c1.57.49,3.18.73,4.78.73,3.37,0,6.7-1.06,9.48-3.11,4.1-3.02,6.53-7.8,6.53-12.89v-23.45h80c8.84,0,16-7.16,16-16V80c0-8.84-7.16-16-16-16ZM244.92,276.82c0,8.84-7.16,16-16,16s-16-7.16-16-16v-32c0-8.84,7.16-16,16-16s16,7.16,16,16v32ZM352,384h-64V121.92c0-7.11-4.69-13.37-11.52-15.36l-36.22-10.56h111.74v288Z"/></svg>