<?xml version="1.0" encoding="UTF-8"?><svg id="Icon" xmlns="http://www.w3.org/2000/svg" viewBox="0 0 512 512"><path d="M254.86,151.59c6.25-6.25,6.25-16.38,0-22.63-6.25-6.25-16.38-6.25-22.63,0l-115.73,115.73c-3,3-4.69,7.07-4.69,11.31s1.69,8.31,4.69,11.31l115.73,115.73c3.12,3.12,7.22,4.69,11.31,4.69s8.19-1.56,11.31-4.69c6.25-6.25,6.25-16.38,0-22.63l-104.41-104.41,104.41-104.41Z"/><path d="M384.19,416c4.09,0,8.19-1.56,11.31-4.69,6.25-6.25,6.25-16.38,0-22.63l-132.69-132.69,132.69-132.69c6.25-6.25,6.25-16.38,0-22.63-6.25-6.25-16.38-6.25-22.63,0l-144,144c-6.25,6.25-6.25,16.38,0,22.63l144,144c3.12,3.12,7.22,4.69,11.31,4.69Z"/></svg>