<?xml version="1.0" encoding="UTF-8"?><svg id="Icon" xmlns="http://www.w3.org/2000/svg" viewBox="0 0 512 512"><path d="M151.59,254.85l104.41-104.41,104.41,104.41c3.12,3.12,7.22,4.69,11.31,4.69s8.19-1.56,11.31-4.69c6.25-6.25,6.25-16.38,0-22.63l-115.73-115.73c-6.25-6.25-16.38-6.25-22.63,0l-115.73,115.73c-6.25,6.25-6.25,16.38,0,22.63,6.25,6.25,16.38,6.25,22.63,0Z"/><path d="M123.31,395.5l132.69-132.69,132.69,132.69c3.12,3.12,7.22,4.69,11.31,4.69s8.19-1.56,11.31-4.69c6.25-6.25,6.25-16.38,0-22.63l-144-144c-6.25-6.25-16.38-6.25-22.63,0l-144,144c-6.25,6.25-6.25,16.38,0,22.63,6.25,6.25,16.38,6.25,22.63,0Z"/></svg>