<?xml version="1.0" encoding="UTF-8"?><svg id="Icon" xmlns="http://www.w3.org/2000/svg" viewBox="0 0 512 512"><path d="M268.46,387.73c4.09,0,8.19-1.56,11.31-4.69l115.73-115.73c3-3,4.69-7.07,4.69-11.31s-1.69-8.31-4.69-11.31l-115.73-115.73c-6.25-6.25-16.38-6.25-22.63,0-6.25,6.25-6.25,16.38,0,22.63l104.41,104.41-104.41,104.41c-6.25,6.25-6.25,16.38,0,22.63,3.12,3.12,7.22,4.69,11.31,4.69Z"/><path d="M116.5,411.31c3.12,3.12,7.22,4.69,11.31,4.69s8.19-1.56,11.31-4.69l144-144c6.25-6.25,6.25-16.38,0-22.63L139.13,100.69c-6.25-6.25-16.38-6.25-22.63,0-6.25,6.25-6.25,16.38,0,22.63l132.69,132.69-132.69,132.69c-6.25,6.25-6.25,16.38,0,22.63Z"/></svg>