<?xml version="1.0" encoding="UTF-8"?><svg id="Icon" xmlns="http://www.w3.org/2000/svg" viewBox="0 0 512 512"><path d="M460.02,273.96c-2.87-3.26-70.55-80.24-95.66-105.2-11.79-11.72-37.73-31.08-55.79-36.97-8.14-2.65-22.36-3.71-35.96-4.06.08-.66.17-1.1.25-1.36.54-.47,1.08-.94,1.62-1.4,3.65-3.16,7.43-6.42,11.07-10.26,11.2-11.83,15.95-27.28,13.04-42.37-2.91-15.12-13.09-27.72-27.91-34.56-13.58-6.27-28.29-7.44-43.73-3.47-11.03,2.84-22.85,9.42-30.84,17.17-6.34,6.15-6.5,16.28-.34,22.62,6.15,6.34,16.28,6.5,22.62.34,4.04-3.92,10.84-7.68,16.53-9.15,8.23-2.11,15.54-1.61,22.36,1.53,5.43,2.51,8.95,6.61,9.9,11.56.95,4.92-.78,10.01-4.86,14.32-2.53,2.67-5.55,5.28-8.75,8.04-.78.67-1.56,1.35-2.34,2.03-6.55,5.72-10.14,14.1-10.69,24.93-13.94.31-28.75,1.36-37.12,4.09-18.06,5.89-44,25.26-55.79,36.97-25.12,24.96-92.79,101.94-95.66,105.2-5.57,6.34-5.26,15.91.71,21.88l44.3,44.3c5.72,5.72,14.82,6.27,21.18,1.28l26.23-20.55v143.14c0,8.84,7.16,16,16,16h191.22c8.84,0,16-7.16,16-16v-143.14l26.23,20.55c6.37,4.99,15.46,4.44,21.18-1.28l44.3-44.3c5.97-5.97,6.27-15.54.71-21.88ZM256,192c-17.46,0-31.69-14.06-31.99-31.45,3.86-.33,8.38-.58,13.27-.73.96.14,1.95.21,2.96.16,5.02-.2,10.39-.32,15.76-.37,5.37.04,10.72.17,15.74.37,1,.04,1.99-.02,2.95-.16,4.89.16,9.42.4,13.29.73-.3,17.39-14.53,31.45-31.99,31.45ZM167.4,273.61c-5.5-2.68-12.05-1.98-16.87,1.79l-40.94,32.08-23.64-23.64c20.15-22.77,65.5-73.73,84.26-92.38,5.5-5.47,14.39-12.48,23.15-18.35,4.95,23.68,23.02,42.6,46.24,48.76v226.14h-63.21v-160c0-6.12-3.49-11.71-9-14.39ZM402.41,307.48l-40.94-32.08c-4.82-3.78-11.37-4.47-16.87-1.79-5.5,2.68-9,8.26-9,14.39v160h-64.01v-225.93c23.61-5.93,42.05-25.01,47.05-48.97,8.75,5.87,17.65,12.88,23.15,18.35,18.76,18.65,64.11,69.61,84.26,92.38l-23.64,23.64Z"/></svg>