<?xml version="1.0" encoding="UTF-8"?><svg id="Icon" xmlns="http://www.w3.org/2000/svg" viewBox="0 0 512 512"><path d="M426.74,108.97c-.19-.02-.39-.02-.59-.04-.23-.01-.46-.03-.69-.03-.14,0-.28-.02-.43-.02H64.23c-8.84,0-16,7.16-16,16s7.16,16,16,16h322.43c-2.36,5.07-4.62,10.89-6.73,17.59-8.28,26.28-12.84,60.91-12.84,97.52s4.56,71.25,12.84,97.52c2.11,6.7,4.37,12.52,6.73,17.59H64.44c-8.84,0-16,7.16-16,16s7.16,16,16,16h360.59c.14,0,.28-.02.43-.02.23,0,.46-.02.69-.03.2-.01.39-.02.59-.04,12.94-1.01,29.98-10.87,42.16-49.5,8.28-26.28,12.84-60.91,12.84-97.52s-4.56-71.25-12.84-97.52c-12.18-38.63-29.22-48.49-42.16-49.5ZM439.94,338.63c-6.06,21.69-12.76,30.14-15.52,32.16-2.76-2.02-9.46-10.47-15.52-32.16-6.32-22.62-9.8-51.97-9.8-82.63s3.48-60.01,9.8-82.63c6.06-21.69,12.76-30.14,15.52-32.16,2.76,2.02,9.46,10.47,15.52,32.16,6.32,22.62,9.8,51.97,9.8,82.63s-3.48,60.01-9.8,82.63Z"/><ellipse cx="177.79" cy="202.69" rx="43.5" ry="37.38"/><ellipse cx="124.77" cy="323.4" rx="32.8" ry="28.18"/><ellipse cx="292.98" cy="244.36" rx="43.5" ry="37.38"/><ellipse cx="256.38" cy="325.31" rx="32.8" ry="28.18"/><ellipse cx="77.56" cy="238.93" rx="27.82" ry="23.9"/><ellipse cx="196.1" cy="279.63" rx="19.57" ry="16.81"/></svg>