<?xml version="1.0" encoding="UTF-8"?><svg id="Icon" xmlns="http://www.w3.org/2000/svg" viewBox="0 0 512 512"><polygon points="84.83 373.89 84.83 234.41 169.78 234.41 169.78 261.03 115.82 261.03 115.82 289.89 167.12 289.89 167.12 316.51 115.82 316.51 115.82 347.27 172.63 347.27 172.63 373.89 84.83 373.89"/><path d="M252.61,375.98c-20.79,0-38.09-6.57-50.03-18.99-11.9-12.39-18.19-30.33-18.19-51.89s6.24-40.02,18.06-52.91c11.91-13,28.86-19.87,49.02-19.87,14.21,0,25.92,2.63,40.39,9.09l3.58,1.6-10.8,25.65-3.84-1.99c-10.62-5.49-18.78-7.72-28.18-7.72-22.38,0-36.28,17.47-36.28,45.59s13.99,44.83,37.42,44.83c10.27,0,17.17-1.94,29.52-8.3l4.1-2.11,9.17,26.42-3.32,1.51c-14.97,6.8-25.21,9.1-40.61,9.1Z"/><path d="M361.67,375.98c-21.2,0-37.13-7.01-48.72-21.45-10.79-13.39-16.27-30.6-16.27-51.14s7.04-40,19.32-53.09c11.28-12.1,26.22-17.98,45.67-17.98,21.2,0,37.13,7.01,48.72,21.45,10.64,13.26,16.27,30.68,16.27,50.38,0,21.78-6.68,40.41-19.33,53.85-11.27,12.09-26.21,17.98-45.66,17.98ZM361.67,258.94c-20.39,0-33.05,17.11-33.05,44.64s12.36,45.78,33.05,45.78,33.05-17.32,33.05-45.21-12.66-45.21-33.05-45.21Z"/><path d="M415.99,208c-3.18,0-6.38-.94-9.18-2.91l-150.81-105.88-150.81,105.88c-7.23,5.08-17.21,3.33-22.29-3.9-5.08-7.23-3.33-17.21,3.9-22.29l160-112.33c5.52-3.87,12.87-3.87,18.39,0l160,112.33c7.23,5.08,8.98,15.06,3.9,22.29-3.11,4.44-8.07,6.81-13.11,6.81Z"/><path d="M416,432H96c-8.84,0-16-7.16-16-16s7.16-16,16-16h320c8.84,0,16,7.16,16,16s-7.16,16-16,16Z"/></svg>