<?xml version="1.0" encoding="UTF-8"?><svg id="Icon" xmlns="http://www.w3.org/2000/svg" viewBox="0 0 512 512"><path d="M268.39,480.02c-6.97,0-13.98-.32-21.01-.97-59.58-5.51-113.45-33.88-151.68-79.9-38.23-46.02-56.26-104.18-50.75-163.75s33.88-113.45,79.9-151.68c82.94-68.91,203.34-68.91,286.29,0,4.85,4.03,6.88,10.53,5.19,16.61-1.7,6.07-6.8,10.59-13.04,11.52-38.51,5.78-72.46,26.2-95.61,57.51-23.15,31.31-32.71,69.76-26.94,108.27,4.66,31.07,18.87,59.24,41.08,81.46,22.22,22.22,50.39,36.42,81.46,41.08,6.24.94,11.34,5.45,13.04,11.52,1.7,6.07-.34,12.58-5.19,16.61-40.59,33.72-90.62,51.73-142.75,51.73ZM267.99,64.02c-43.57,0-87.15,14.77-122.69,44.3-39.45,32.77-63.77,78.95-68.49,130.01-4.72,51.07,10.73,100.91,43.5,140.36,32.77,39.45,78.95,63.77,130.01,68.49,39.82,3.68,78.9-4.9,112.89-24.4-23.91-8.8-45.63-22.69-64.01-41.07-27.09-27.09-44.42-61.45-50.1-99.34-7.04-46.96,4.62-93.85,32.85-132.04,20.88-28.25,48.98-49.24,81.21-61.1-29.43-16.81-62.29-25.21-95.17-25.21Z"/></svg>