<?xml version="1.0" encoding="UTF-8"?><svg id="Icon" xmlns="http://www.w3.org/2000/svg" viewBox="0 0 512 512"><path d="M256,160c8.84,0,16-7.16,16-16s-7.16-16-16-16h-96.19c-17.54,0-31.81,14.27-31.81,31.81v32.19h-32.19c-17.54,0-31.81,14.27-31.81,31.81v192.38c0,17.54,14.27,31.81,31.81,31.81h192.38c17.54,0,31.81-14.27,31.81-31.81v-32.19h32.19c17.54,0,31.81-14.27,31.81-31.81v-95.66c0-8.84-7.16-16-16-16s-16,7.16-16,16v95.47h-192v-192h96ZM288,384v32H96v-192h32v128.19c0,17.54,14.27,31.81,31.81,31.81h128.19Z"/><path d="M435.41,78.85c-9.05-9.05-21.07-14.03-33.87-14.03s-24.82,4.98-33.87,14.03l-152.23,152.23c-1.97,1.97-3.39,4.42-4.12,7.1l-16.91,62.02c-1.51,5.54.06,11.46,4.12,15.52,3.04,3.04,7.13,4.69,11.31,4.69,1.4,0,2.82-.19,4.21-.56l62.02-16.91c2.69-.73,5.13-2.15,7.1-4.12l152.23-152.23c18.67-18.67,18.67-49.06,0-67.73ZM412.78,123.95l-148.76,148.76c-2.38-4.32-5.8-9.44-10.49-14.08-3.79-3.75-7.78-6.73-11.36-9.02l148.13-148.13c3-3,6.99-4.66,11.24-4.66s8.24,1.65,11.24,4.66,4.65,6.99,4.65,11.24-1.65,8.24-4.65,11.24Z"/></svg>