<?xml version="1.0" encoding="UTF-8"?><svg id="Icon" xmlns="http://www.w3.org/2000/svg" viewBox="0 0 512 512"><path d="M428.61,83.39c-25.81-25.82-67.82-25.81-93.64,0l-239.66,239.66c-1.97,1.97-3.39,4.42-4.12,7.1l-26.63,97.64c-1.51,5.54.06,11.46,4.12,15.52,3.04,3.04,7.13,4.69,11.31,4.69,1.4,0,2.82-.19,4.21-.56l97.64-26.63c2.69-.73,5.13-2.15,7.1-4.12l239.66-239.66c25.82-25.82,25.82-67.82,0-93.64ZM117.27,356.15c16.68,8.24,30.34,21.94,38.57,38.58l-53.04,14.47,14.47-53.04ZM405.98,154.4l-223.05,223.05c-10.92-20.46-27.87-37.45-48.38-48.39l223.05-223.05c13.34-13.34,35.04-13.34,48.38,0,13.34,13.34,13.34,35.04,0,48.38Z"/></svg>