<?xml version="1.0" encoding="UTF-8"?><svg id="Icon" xmlns="http://www.w3.org/2000/svg" viewBox="0 0 512 512"><path d="M432,448H80c-8.84,0-16-7.16-16-16v-64c0-8.84,7.16-16,16-16h352c8.84,0,16,7.16,16,16v64c0,8.84-7.16,16-16,16ZM96,416h320v-32H96v32Z"/><path d="M432,320H80c-6.12,0-11.71-3.5-14.39-9.01-2.68-5.51-1.98-12.06,1.81-16.88L243.42,70.12c3.03-3.86,7.67-6.12,12.58-6.12s9.55,2.25,12.58,6.12l176,224c3.78,4.82,4.49,11.37,1.81,16.88-2.68,5.51-8.27,9.01-14.39,9.01ZM112.92,288h286.16l-143.08-182.1-143.08,182.1Z"/></svg>