<?xml version="1.0" encoding="UTF-8"?><svg id="Icon" xmlns="http://www.w3.org/2000/svg" viewBox="0 0 512 512"><path d="M439.14,190.58l-74.22-69.97c-11.36-10.71-26.22-16.61-41.83-16.61h-143.09c-8.84,0-16,7.16-16,16s7.16,16,16,16h107.25v48c0,8.84,7.16,16,16,16,.49,0,.98-.02,1.46-.07h97.7l14.78,13.93c1.79,1.69,2.81,4.06,2.81,6.52v43.61h-8.75c-6.6-18.62-24.39-32-45.25-32-26.47,0-48,21.53-48,48,0,6.96,1.5,13.58,4.18,19.55L91.31,68.69c-6.25-6.25-16.38-6.25-22.63,0-6.25,6.25-6.25,16.38,0,22.63l12.69,12.69h-5.37c-8.84,0-16,7.16-16,16v160c0,8.84,7.16,16,16,16h23.75c6.6,18.62,24.39,32,45.25,32s38.64-13.38,45.25-32h19.5v39.54c0,2.31-1.88,4.18-4.18,4.18h-58.62c-19.95,0-36.18,16.23-36.18,36.18s16.23,36.18,36.18,36.18h75.22c7.07,22.32,27.33,38.4,50.95,39.79,2.89.17,5.69.21,8.44.21,1.5,0,2.97-.01,4.43-.03,1.25-.01,2.49-.02,3.73-.02,8-.01,13.07-3.44,15.91-6.32,3.52-3.56,5.61-8.36,6.01-13.67h16.88c8.84,0,16-7.16,16-16s-7.16-16-16-16h-16.8v-8.43h16.15c8.84,0,16-7.16,16-16s-7.16-16-16-16h-16.32c-1.24-11.82-9.67-19.38-22.15-19.5-6.61-.07-11.71,0-16.52.19-12.34.51-23.51,4.89-33.21,13.04-8.43,7.08-14.21,15.89-17.56,26.75h-75.17c-2.31,0-4.18-1.88-4.18-4.18s1.88-4.18,4.18-4.18h58.62c19.95,0,36.18-16.23,36.18-36.18v-39.54s31.63,0,31.63,0l111.4,111.4c3.12,3.12,7.22,4.69,11.31,4.69s8.19-1.56,11.31-4.69c6.25-6.25,6.25-16.38,0-22.63l-60.95-60.95c5.98,2.68,12.59,4.18,19.55,4.18,20.86,0,38.64-13.38,45.25-32h24.75c8.84,0,16-7.16,16-16v-59.61c0-11.24-4.69-22.1-12.86-29.81ZM251.75,393.19c1.39-6.83,4.04-11.6,8.5-15.35,4.26-3.58,8.69-5.35,13.94-5.57,1.76-.07,3.57-.12,5.53-.15v47.96c-1.61-.02-3.18-.06-4.72-.15-11.12-.65-20.55-8.78-22.93-19.75-.11-.49-.22-.97-.38-1.58l.07-5.41ZM145,296c-8.82,0-16-7.18-16-16s7.18-16,16-16,16,7.18,16,16-7.18,16-16,16ZM190.25,264c-6.6-18.62-24.39-32-45.25-32s-38.64,13.38-45.25,32h-7.75v-128h21.37l128,128h-51.12ZM366,296c-8.82,0-16-7.18-16-16s7.18-16,16-16,16,7.18,16,16-7.18,16-16,16ZM319.25,167.93v-31.93h3.84c7.42,0,14.48,2.8,19.88,7.89l25.5,24.04h-49.22Z"/></svg>