<?xml version="1.0" encoding="UTF-8"?><svg id="Icon" xmlns="http://www.w3.org/2000/svg" viewBox="0 0 512 512"><path d="M445.37,260.43c-3.07-33.2-9.78-43.97-14.55-49.18-8.62-9.41-24.26-15.3-49-23.88-11.81-4.1-25.2-8.75-30.67-12.39-4.02-2.68-8.05-6-12.31-9.52-16.19-13.36-36.34-29.99-76.88-30.27-63.38-.43-68.67-.23-89.4,9.92-11.47,5.61-22.51,13.37-32.25,20.22-7.02,4.93-13.64,9.59-17.79,11.51-3.44,1.59-9.9,2.52-15.6,3.33-11.73,1.68-23.86,3.41-32.34,11.88-7.48,7.48-11.79,20.39-13.55,40.62-1.16,13.3-.87,26.16-.7,31.07.07,1.86.28,3.76.67,5.98,1.98,11.28,8.92,19.68,19.56,23.64,7.08,2.64,14.17,2.64,17.98,2.64h1.2c6.6,18.62,24.39,32,45.25,32s38.64-13.38,45.25-32h19.5v39.54c0,2.31-1.88,4.18-4.18,4.18h-58.62c-19.95,0-36.18,16.23-36.18,36.18s16.23,36.18,36.18,36.18h75.22c7.08,22.32,27.33,38.4,50.95,39.79,2.89.17,5.69.21,8.44.21,1.5,0,2.98-.01,4.43-.03,1.25-.01,2.49-.02,3.73-.02,8-.01,13.07-3.44,15.91-6.32,3.52-3.56,5.61-8.36,6.01-13.67h16.88c8.84,0,16-7.16,16-16s-7.16-16-16-16h-16.8v-8.43h16.15c8.84,0,16-7.16,16-16s-7.16-16-16-16h-16.32c-1.24-11.82-9.67-19.38-22.15-19.5-6.61-.07-11.71,0-16.52.19-12.34.51-23.52,4.89-33.21,13.04-8.43,7.08-14.21,15.89-17.56,26.75h-75.17c-2.31,0-4.18-1.88-4.18-4.18s1.88-4.18,4.18-4.18h58.62c19.95,0,36.18-16.23,36.18-36.18v-39.54h65.01c6.6,18.62,24.39,32,45.25,32s38.64-13.38,45.25-32h15.68c9.15,0,17.92-3.88,24.08-10.63,6.16-6.75,9.2-15.84,8.36-24.94ZM251.75,393.19c1.39-6.83,4.04-11.6,8.5-15.35,4.26-3.58,8.69-5.35,13.94-5.57,1.76-.07,3.57-.12,5.53-.15v47.96c-1.61-.02-3.18-.06-4.72-.15-11.12-.65-20.55-8.78-22.93-19.74-.11-.49-.22-.98-.38-1.59l.07-5.41ZM145,296c-8.82,0-16-7.18-16-16s7.18-16,16-16,16,7.18,16,16-7.18,16-16,16ZM352,296c-8.82,0-16-7.18-16-16s7.18-16,16-16,16,7.18,16,16-7.18,16-16,16ZM413.36,263.81c-.18.19-.35.19-.44.19h-15.68c-6.6-18.62-24.39-32-45.25-32s-38.64,13.38-45.25,32h-116.5c-6.6-18.62-24.39-32-45.25-32s-38.64,13.38-45.25,32h-1.2c-1.29,0-4.37,0-6.12-.4-.06-.42-.1-.75-.11-1-.85-23.69,1.83-42.91,4.87-47.8,2.47-1.27,9.8-2.31,14.26-2.95,7.88-1.13,16.81-2.4,24.51-5.97,6.75-3.13,14.17-8.34,22.75-14.37,8.77-6.17,18.72-13.16,27.91-17.66,14.19-6.94,14.45-7.08,75.11-6.66,29.16.2,42.55,11.25,56.73,22.95,4.69,3.87,9.55,7.88,14.93,11.47,8.86,5.9,22.98,10.8,37.92,15.99,11.06,3.84,31.57,10.96,35.79,15.17.47.74,4.22,7.27,6.38,30.62,0,.09.02.25-.15.43Z"/></svg>