<?xml version="1.0" encoding="UTF-8"?><svg id="Icon" xmlns="http://www.w3.org/2000/svg" viewBox="0 0 512 512"><path d="M432,126.34c-8.84,0-16,7.16-16,16v77.99c-5.91,2.41-15.27,5.11-27.09,4.75v-57.04c0-15.27-11.73-27.84-26.65-29.19v-31.78c0-8.84-7.16-16-16-16h-16.29c-8.84,0-16,7.16-16,16s7.16,16,16,16h.29v15.78c-14.92,1.35-26.65,13.92-26.65,29.19v34.86c-29.4-.45-48.71,9.51-52.96,11.94l-4.06,2.03c-.43.22-.64.32-1.03.56-1.02.57-15.9,8.59-37.16,7.4v-56.78c0-15.27-11.73-27.84-26.65-29.19v-15.78h.29c8.84,0,16-7.16,16-16s-7.16-16-16-16h-16.29c-8.84,0-16,7.16-16,16v31.78c-14.92,1.35-26.65,13.92-26.65,29.19v33.84c-10.2.28-19.39,2.03-27.09,4.23v-63.78c0-8.84-7.16-16-16-16s-16,7.16-16,16v289.66c0,8.84,7.16,16,16,16h352c8.84,0,16-7.16,16-16V142.34c0-8.84-7.16-16-16-16ZM335.6,170.73h21.31v100.6h-21.31v-100.6ZM155.09,170.73h21.31v100.6h-21.31v-100.6ZM96,416v-176.06c6.17-2.56,15.73-5.6,27.09-6.05v40.12c0,16.17,13.15,29.32,29.32,29.32h26.67c16.17,0,29.32-13.15,29.32-29.32v-17.14c1.52.06,3.01.1,4.48.1,26.31,0,44.41-9.38,48.47-11.7l4.07-2.03c.46-.23.67-.33,1.08-.59,1.05-.59,15.04-8.16,36.8-7.75.09,0,.19,0,.28,0,.01,0,.02,0,.04,0v39.11c0,16.17,13.15,29.32,29.32,29.32h26.67c16.17,0,29.32-13.15,29.32-29.32v-16.93c.64.01,1.29.02,1.92.02,9.54,0,18.01-1.36,25.17-3.22v162.12H96Z"/><path d="M191.24,337.03h-50.98c-8.84,0-16,7.16-16,16s7.16,16,16,16h50.98c8.84,0,16-7.16,16-16s-7.16-16-16-16Z"/><path d="M371.75,337.03h-9.49v-9.49c0-8.84-7.16-16-16-16s-16,7.16-16,16v9.49h-9.49c-8.84,0-16,7.16-16,16s7.16,16,16,16h9.49v9.49c0,8.84,7.16,16,16,16s16-7.16,16-16v-9.49h9.49c8.84,0,16-7.16,16-16s-7.16-16-16-16Z"/><path d="M230.21,121.5h21.37l-19.59,28.86c-4.96,7.31-3.06,17.26,4.25,22.22,2.75,1.87,5.88,2.76,8.97,2.76,5.12,0,10.16-2.46,13.25-7.01l36.56-53.85c3.33-4.9,3.67-11.24.9-16.48-2.77-5.24-8.21-8.51-14.14-8.51h-22.6l17.53-27.85c4.71-7.48,2.46-17.36-5.02-22.06-7.48-4.71-17.36-2.46-22.06,5.02l-32.96,52.38c-3.1,4.93-3.28,11.16-.46,16.26,2.82,5.1,8.18,8.27,14.01,8.27Z"/></svg>