<?xml version="1.0" encoding="UTF-8"?><svg id="Icon" xmlns="http://www.w3.org/2000/svg" viewBox="0 0 512 512"><polygon points="261.64 46.82 289.85 95.67 318.05 46.82 261.64 46.82"/><polygon points="193.95 95.45 222.15 46.6 250.36 95.45 193.95 95.45"/><path d="M398.07,432H113.93c-27.53,0-49.93-22.4-49.93-49.93v-220.14c0-27.53,22.4-49.93,49.93-49.93h284.14c27.53,0,49.93,22.4,49.93,49.93v220.14c0,27.53-22.4,49.93-49.93,49.93ZM113.93,144c-9.89,0-17.93,8.04-17.93,17.93v220.14c0,9.89,8.04,17.93,17.93,17.93h284.14c9.89,0,17.93-8.04,17.93-17.93v-220.14c0-9.89-8.04-17.93-17.93-17.93H113.93Z"/><path d="M328.01,168.06c10.15,0,18.38,8.23,18.38,18.39s-8.23,18.38-18.38,18.38-18.4-8.19-18.4-18.38,8.23-18.39,18.4-18.39Z"/><path d="M356.39,303.57h-.1c-3.85,0-6.97,3.13-6.97,6.98v56.99c0,3.85-3.12,6.98-6.98,6.98h-28.78c-3.85,0-6.98-3.12-6.98-6.98v-56.99c0-3.85-3.12-6.97-6.97-6.98h0c-3.85,0-6.97-3.13-6.97-6.98v-74.18c0-5.04,4.19-9.11,9.41-9.11h51.85c5.21,0,9.45,4.07,9.45,9.11v74.18c0,3.85-3.12,6.97-6.97,6.98Z"/><path d="M212.39,303.57h-.1c-3.85,0-6.97,3.13-6.97,6.98v56.99c0,3.85-3.12,6.98-6.98,6.98h-28.78c-3.85,0-6.98-3.12-6.98-6.98v-56.99c0-3.85-3.12-6.97-6.97-6.98h0c-3.85,0-6.97-3.13-6.97-6.98v-74.18c0-5.04,4.19-9.11,9.41-9.11h51.85c5.21,0,9.45,4.07,9.45,9.11v74.18c0,3.85-3.12,6.97-6.97,6.98Z"/><path d="M184.01,168.06c10.15,0,18.38,8.23,18.38,18.39s-8.23,18.38-18.38,18.38-18.4-8.19-18.4-18.38,8.23-18.39,18.4-18.39Z"/></svg>