<?xml version="1.0" encoding="UTF-8"?><svg id="Icon" xmlns="http://www.w3.org/2000/svg" viewBox="0 0 512 512"><path d="M234.64,372.96c9.43-1.65,38.37-13.54,37.64-15.46-.23-.59-3.76-4.96-7.84-9.72-4.1-4.76-14.15-16.5-22.35-26.1l-14.91-17.44-6.73,6.4c-7.9,7.51-7.49,7.83-15.39-11.98-8.48-21.28-29.52-84.37-29.52-88.53,0-.73,4.43-1.32,9.84-1.32h9.84l-1.04-5.26c-1.31-6.62-5.24-24.93-8.08-37.64-1.19-5.34-2.66-12.81-3.27-16.58-.6-3.78-1.58-7.17-2.18-7.54-2.15-1.33-18.14,2.48-26.5,6.33-16.15,7.41-15.04,4.03-15.02,45.8.01,29.82.57,39.2,2.98,49.71,10.53,45.95,31.96,86.73,59.6,113.47,15.07,14.58,20.63,18.72,23.86,17.78,1.42-.41,5.49-1.26,9.05-1.9ZM284.59,350.53c2.37-2.17,4.29-4.66,4.29-5.51,0-1.62-35.62-44.39-40.83-49.03-1.77-1.58-4.41-2.31-6.46-1.76-3.86,1-9.37,5.26-9.37,7.22,0,.7,6.74,9.15,14.97,18.75,8.24,9.62,18.17,21.26,22.05,25.89,3.9,4.64,7.98,8.42,9.08,8.42s3.91-1.79,6.26-3.97ZM207.35,204.77c5.43-2.27,5.74-2.79,5.02-8.5-1.96-15.62-10.91-54.46-12.82-55.67-1.18-.75-4.95-1.37-8.39-1.38-5.64-.02-6.17.33-5.46,3.62.43,2,3.6,17.3,7.05,34,3.45,16.7,6.84,30.36,7.54,30.36s3.87-1.09,7.06-2.42Z"/><path d="M326.8,185.2v25.62h25.1v-25.62h25.12v-25.11h-25.12v-25.11h-25.1v25.11h-25.62v25.11h25.62"/><path d="M400,112v288H112V112h288M424,88H88v336h336V88h0Z"/></svg>