<?xml version="1.0" encoding="UTF-8"?><svg id="Icon" xmlns="http://www.w3.org/2000/svg" viewBox="0 0 512 512"><defs><style>.cls-1{fill-rule:evenodd;}</style></defs><path class="cls-1" d="M451.76,290.06l-28.08-21.96.08-1.06c.18-2.48.3-4.73.37-6.87l.07-4.17c0-3.38-.14-6.99-.44-11.04l-.08-1.06,28.08-21.96c14.53-11.35,18.52-31.96,9.28-47.92l-31.62-54.66c-6.61-11.45-19-18.56-32.34-18.56-4.72,0-9.33.89-13.7,2.64l-32.2,12.9h-.39c-.47,0-1.27-.14-2.35-.78l-.09-.06c-5.49-3.67-11.2-6.99-16.97-9.88-.31-.15-1.85-.97-2.15-2.23l-.02-.09-4.87-33.93c-2.59-18.2-18.41-31.92-36.81-31.92h-63.05c-18.41,0-34.24,13.72-36.83,31.92l-4.88,34.04-.06.18c-.38,1.1-1.69,1.85-2.1,2.07-5.78,2.93-11.51,6.28-17.05,9.96-.73.48-1.6.77-2.37.77h-.39l-32.18-12.95c-4.36-1.75-8.96-2.63-13.69-2.63-13.37,0-25.78,7.11-32.38,18.55l-31.59,54.66c-9.24,15.99-5.25,36.59,9.28,47.92l28.08,21.99-.08,1.07c-.29,3.92-.44,7.53-.44,11.02s.14,7.11.44,11.01l.08,1.07-28.08,21.99c-14.52,11.37-18.51,31.96-9.28,47.89l31.59,54.7c6.59,11.45,18.96,18.56,32.31,18.56,4.74,0,9.37-.89,13.76-2.66l31.84-12.8c.26-.1.54-.15.83-.15,1.02,0,1.98.59,2.25.77,5.59,3.7,11.3,7.04,17,9.93.41.21,1.77.99,2.15,2.07l.07.19,4.88,34.08c2.59,18.19,18.42,31.9,36.83,31.9h63.05c18.39,0,34.22-13.71,36.81-31.9l4.87-33.97.03-.11c.32-1.22,1.79-2.01,2.2-2.21,5.9-2.97,11.61-6.3,16.98-9.89.36-.25,1.31-.82,2.44-.82h.39l32.14,12.92c4.38,1.76,8.99,2.65,13.72,2.65,13.34,0,25.72-7.12,32.32-18.57l31.62-54.68c9.23-15.95,5.24-36.55-9.28-47.92ZM351.26,209.6l-115.43,115.43c-3.12,3.12-7.22,4.69-11.31,4.69s-8.19-1.56-11.31-4.69l-52.47-52.47c-6.25-6.25-6.25-16.38,0-22.63,6.25-6.25,16.38-6.25,22.63,0l41.15,41.15,104.12-104.11c6.25-6.25,16.38-6.25,22.63,0s6.25,16.38,0,22.63Z"/></svg>