<?xml version="1.0" encoding="UTF-8"?><svg id="Icon" xmlns="http://www.w3.org/2000/svg" viewBox="0 0 512 512"><path id="path3495" d="M130,343.81l8.41-22.27c3.76-9.25,12.17-15.52,22.68-15.52h3.76V114.06h182.29v106.26h-23.93l-27.32-34c-5.46-6.31-13.83-10.51-23.08-10.51h-58.37c-9.25,0-17.22,5.02-21.42,13.02l-17.22,32.74c-.81,1.25-1.22,2.95-1.22,5.05,0,5.86,5.02,10.91,10.91,10.91,4.61,0,7.97-2.1,10.07-5.9l15.52-29.79h25.22l-19.32,48.3-5.9,61.72h-49.96c-7.97,0-14.27,5.02-17.22,11.76l-5.46,14.27h85.69c6.31,0,11.76-4.61,12.17-10.91l5.9-54.16,46.16,95.75c2.54,5.46,8.41,9.22,15.15,9.22h22.24l-56.67-117.17,17.63-44.1,16.78,20.57c4.2,5.46,11.36,9.25,18.88,9.25h24.78v138.6l-39.45,39.05h116.33V88H88v336h37.79l39.05-39.05v-41.15h-34.84"/><path d="M262.74,155.25c0,12.52,10.15,22.67,22.67,22.67s22.67-10.15,22.67-22.67-10.15-22.67-22.67-22.67-22.67,10.15-22.67,22.67Z"/></svg>