<?xml version="1.0" encoding="UTF-8"?><svg id="Icon" xmlns="http://www.w3.org/2000/svg" viewBox="0 0 512 512"><path id="path3495" d="M382,343.81l-8.41-22.27c-3.76-9.25-12.17-15.52-22.68-15.52h-3.76V114.06h-182.29v106.26h23.93l27.32-34c5.46-6.31,13.83-10.51,23.08-10.51h58.37c9.25,0,17.22,5.02,21.42,13.02l17.22,32.74c.81,1.25,1.22,2.95,1.22,5.05,0,5.86-5.02,10.91-10.91,10.91-4.61,0-7.97-2.1-10.07-5.9l-15.52-29.79h-25.22l19.32,48.3,5.9,61.72h49.96c7.97,0,14.27,5.02,17.22,11.76l5.46,14.27h-85.69c-6.31,0-11.76-4.61-12.17-10.91l-5.9-54.16-46.16,95.75c-2.54,5.46-8.41,9.22-15.15,9.22h-22.24l56.67-117.17-17.63-44.1-16.78,20.57c-4.2,5.46-11.36,9.25-18.88,9.25h-24.78v138.6l39.45,39.05h-116.33V88h336v336h-37.79l-39.05-39.05v-41.15h34.84"/><path d="M248.92,150.21c0,13.15-10.66,23.8-23.8,23.8s-23.8-10.66-23.8-23.8,10.66-23.8,23.8-23.8,23.8,10.66,23.8,23.8Z"/></svg>