<?xml version="1.0" encoding="UTF-8"?><svg id="Icon" xmlns="http://www.w3.org/2000/svg" viewBox="0 0 512 512"><path d="M448,190.62c-.12-18.29-16.37-43.87-42.63-43.98h-54.94c-5.91.03-12.22.2-18.67,1.88-7.55,1.97-14.01,5.7-19.81,11.44l-60.09,60.09v-13.09c-.09-18.52-14.66-33.43-33.17-33.96-.04,0-.09,0-.13,0-.24,0-.48,0-.72,0-18.77,0-34.04,15.28-34.04,34.05v81.07l-32.36,32.36c-1.81,1.82-3.19,2.94-8.74,2.94h-35.94c-11.51.04-22.65,4.63-30.56,12.61-7.91,7.98-12.24,18.89-12.19,30.74-.05,12.46,4.71,24.13,13.4,32.87,8.53,8.58,19.78,13.31,31.67,13.31h52.72c16.12,0,28.72-4.87,38.51-14.88l157.79-157.61c3.39-3.41,4.1-4.11,13.88-4.11h33.22c26.24-.02,42.65-23.64,42.8-45.51v-.11s0-.11,0-.11ZM215.79,207.05c0-1.11.89-2.02,2.06-2.05,1.12.07,2,.99,2,2.05v45.01l-4.06,4.06v-49.08ZM405.18,204.35h-33.21c-15.3,0-25.15,2.09-36.52,13.5l-157.84,157.66-.16.16c-2.55,2.62-6.4,5.29-15.67,5.29h-52.72c-3.36,0-6.46-1.34-8.98-3.87-2.7-2.72-4.11-6.25-4.09-10.22v-.09s0-.09,0-.09c-.02-3.41.96-6.14,2.92-8.12,1.94-1.95,4.9-3.13,7.88-3.13h35.89c13.09,0,23.09-3.95,31.43-12.38l160.41-160.41c3.31-3.28,6.01-3.95,15.98-4h54.79c5.85.02,10.58,8.6,10.69,12.09-.09,3.63-2.83,13.59-10.81,13.61Z"/><path d="M217.82,160.31c17.65,0,32-14.36,32-32s-14.35-32-32-32-32,14.36-32,32,14.35,32,32,32Z"/></svg>