<?xml version="1.0" encoding="UTF-8"?><svg id="Icon" xmlns="http://www.w3.org/2000/svg" viewBox="0 0 512 512"><circle cx="310.16" cy="121.73" r="18.09"/><path d="M355.38,480c-7.19,0-13.04-5.85-13.04-13.04v-115.07c-22.73,29.85-53.66,46.71-86.45,46.71s-63.72-16.86-86.45-46.7v115.06c0,7.19-5.85,13.04-13.04,13.04s-13.04-5.85-13.04-13.04v-115.45c-15.3,20.13-34.52,34.79-55.08,41.85l-.1.03c-1.38.43-2.77.65-4.13.65-5.58,0-10.54-3.54-12.34-8.82-2.32-6.79,1.32-14.22,8.11-16.56,23.7-8.11,44.67-29.11,57.89-57.85-7.75-5.86-12.43-15.04-12.43-24.74,0-17.17,13.97-31.13,31.13-31.13s31.13,13.97,31.13,31.13c0,9.78-4.53,18.76-12.28,24.64,17.49,38.2,48.15,61.79,80.62,61.79s63.11-23.59,80.62-61.81c-7.73-5.88-12.25-14.85-12.25-24.62,0-17.17,13.97-31.13,31.13-31.13s31.13,13.97,31.13,31.13c0,9.69-4.67,18.87-12.4,24.72,13.24,28.8,34.26,49.82,58.04,57.92,3.3,1.12,5.96,3.46,7.5,6.59,1.54,3.13,1.77,6.66.64,9.96-1.8,5.3-6.76,8.86-12.34,8.86-1.49,0-2.92-.24-4.26-.72-20.62-7.02-39.91-21.72-55.27-41.92v115.48c0,7.19-5.85,13.04-13.04,13.04Z"/><path d="M155.62,202.13l-.16-.06c-1.22-.11-2.43-.39-3.64-.85-1.57-.58-2.97-1.41-4.16-2.46l-1.69-.86-.02-1.19c-.08-.14-.3-.54-.35-.62-.05-.07-.1-.14-.15-.21-.31-.42-.73-.98-1.07-1.77-.58-1.35-.91-2.82-.98-4.38-.03-.21-.05-.42-.05-.64v-108.54c0-7.19,5.85-13.04,13.04-13.04h65.84l23.22-30.96c2.34-3.14,6.24-5.02,10.43-5.02s8.08,1.88,10.44,5.02l23.22,30.96h65.84c7.19,0,13.04,5.85,13.04,13.04v108.54c0,7.19-5.85,13.04-13.04,13.04h-199.76ZM342.34,176.04v-82.45h-172.89v64.41l33.21-32.54c2.42-2.39,5.6-3.72,8.96-3.72.32,0,.65.01.98.04,3.57.2,6.99,1.95,9.31,4.79l5.35,6.58,18.2-24.27c2.32-3.12,5.89-5.01,9.81-5.21.35-.03.7-.05,1.04-.05,3.46,0,6.89,1.63,9.4,4.46l59.46,67.95h17.18ZM290.49,176.04l-33.8-38.62-12.46,16.6,17.89,22.02h28.37ZM228.49,176.04l-17.8-21.89-22.34,21.89h40.13Z"/></svg>