<?xml version="1.0" encoding="UTF-8"?><svg id="Icon" xmlns="http://www.w3.org/2000/svg" viewBox="0 0 512 512"><path d="M464,96H48c-8.84,0-16,7.16-16,16s7.16,16,16,16h416c8.84,0,16-7.16,16-16s-7.16-16-16-16Z"/><path d="M203.08,286.2l-43.08,43.08v-153.29c0-8.84-7.16-16-16-16s-16,7.16-16,16v153.29l-43.08-43.08c-6.25-6.25-16.38-6.25-22.63,0-6.25,6.25-6.25,16.38,0,22.63l69.53,69.53c2.93,3.45,7.3,5.64,12.18,5.64s9.24-2.19,12.18-5.64l69.53-69.53c6.25-6.25,6.25-16.38,0-22.63-6.25-6.25-16.38-6.25-22.63,0Z"/><path d="M432,256h-144c-8.84,0-16,7.16-16,16s7.16,16,16,16h144c8.84,0,16-7.16,16-16s-7.16-16-16-16Z"/><path d="M432,176h-144c-8.84,0-16,7.16-16,16s7.16,16,16,16h144c8.84,0,16-7.16,16-16s-7.16-16-16-16Z"/><path d="M432,336h-144c-8.84,0-16,7.16-16,16s7.16,16,16,16h144c8.84,0,16-7.16,16-16s-7.16-16-16-16Z"/></svg>