<?xml version="1.0" encoding="UTF-8"?><svg id="Icon" xmlns="http://www.w3.org/2000/svg" viewBox="0 0 512 512"><path d="M64,256c0,8.84,7.16,16,16,16h249.22l-84.37,84.37c-6.25,6.25-6.25,16.38,0,22.63,3.12,3.12,7.22,4.69,11.31,4.69s8.19-1.56,11.31-4.69l111.69-111.69c6.25-6.25,6.25-16.38,0-22.63l-111.69-111.69c-6.25-6.25-16.38-6.25-22.63,0-6.25,6.25-6.25,16.38,0,22.63l84.37,84.37H80c-8.84,0-16,7.16-16,16Z"/><path d="M448,80c0-8.84-7.16-16-16-16s-16,7.16-16,16v352c0,8.84,7.16,16,16,16s16-7.16,16-16V80Z"/></svg>