<?xml version="1.0" encoding="UTF-8"?><svg id="Icon" xmlns="http://www.w3.org/2000/svg" viewBox="0 0 512 512"><path d="M445.96,401.52L269.16,95.28c-2.71-4.7-7.73-7.6-13.16-7.6s-10.44,2.9-13.16,7.6L66.03,401.52c-2.71,4.7-2.71,10.49,0,15.19,2.72,4.7,7.73,7.6,13.16,7.6h353.61c5.43,0,10.44-2.9,13.16-7.6,2.72-4.7,2.72-10.49,0-15.19ZM89.06,403.42L256,114.27l166.94,289.15H89.06Z"/><polygon points="200.35 297.62 242.34 297.62 242.34 274.49 177.21 274.49 177.21 392.06 242.34 392.06 242.34 368.92 200.35 368.92 200.35 344.84 243.45 344.84 243.45 321.7 200.35 321.7 200.35 297.62"/><polygon points="278.87 333.27 250.2 392.06 277.27 392.06 292.43 361.01 307.55 392.06 334.62 392.06 305.94 333.27 334.62 274.49 307.55 274.49 292.43 305.53 277.27 274.49 250.2 274.49 278.87 333.27"/></svg>