<?xml version="1.0" encoding="UTF-8"?><svg id="Icon" xmlns="http://www.w3.org/2000/svg" viewBox="0 0 512 512"><path d="M176,416h136c44.11,0,80-35.89,80-80v-76.8c0-8.84-7.16-16-16-16s-16,7.16-16,16v76.8c0,26.47-21.53,48-48,48h-136c-26.47,0-48-21.53-48-48v-136c0-26.47,21.53-48,48-48h76.8c8.84,0,16-7.16,16-16s-7.16-16-16-16h-76.8c-44.11,0-80,35.89-80,80v136c0,44.11,35.89,80,80,80Z"/><path d="M320,80c0,8.84,7.16,16,16,16h57.37l-148.69,148.69c-6.25,6.25-6.25,16.38,0,22.63,3.12,3.12,7.22,4.69,11.31,4.69s8.19-1.56,11.31-4.69l148.69-148.69v57.37c0,8.84,7.16,16,16,16s16-7.16,16-16v-96c0-8.84-7.16-16-16-16h-96c-8.84,0-16,7.16-16,16Z"/></svg>