<?xml version="1.0" encoding="UTF-8"?><svg id="Icon" xmlns="http://www.w3.org/2000/svg" viewBox="0 0 512 512"><path d="M464,109.92H48c-8.84,0-16,7.16-16,16v216.09c0,8.84,7.16,16,16,16h39.47v28.07c0,8.84,7.16,16,16,16h181.42c8.84,0,16-7.16,16-16v-28.07h36.18v28.07c0,8.84,7.16,16,16,16h56.17c8.84,0,16-7.16,16-16v-28.07h38.76c8.84,0,16-7.16,16-16V125.92c0-8.84-7.16-16-16-16ZM268.89,370.08H119.47v-12.07h149.42v12.07ZM393.24,370.08h-24.17v-12.07h24.17v12.07ZM448,326.01H64v-184.09h384v184.09Z"/><path d="M118.78,235.88c-8.84,0-16,7.16-16,16s7.16,16,16,16h4.22v4.8c0,8.84,7.16,16,16,16h4.8v4.22c0,8.84,7.16,16,16,16s16-7.16,16-16v-4.22h9.6v4.22c0,8.84,7.16,16,16,16s16-7.16,16-16v-4.22h4.8c8.84,0,16-7.16,16-16v-4.8h4.22c8.84,0,16-7.16,16-16s-7.16-16-16-16h-4.22v-9.6h4.22c8.84,0,16-7.16,16-16s-7.16-16-16-16h-4.22v-4.8c0-8.84-7.16-16-16-16h-4.8v-4.22c0-8.84-7.16-16-16-16s-16,7.16-16,16v4.22h-9.6v-4.22c0-8.84-7.16-16-16-16s-16,7.16-16,16v4.22h-4.8c-8.84,0-16,7.16-16,16v4.8h-4.22c-8.84,0-16,7.16-16,16s7.16,16,16,16h4.22v9.6h-4.22ZM206.2,205.48v51.2h-51.2v-51.2h51.2Z"/><path d="M292.78,249.97h115.56c8.84,0,16-7.16,16-16s-7.16-16-16-16h-115.56c-8.84,0-16,7.16-16,16s7.16,16,16,16Z"/><path d="M292.78,199.12h115.56c8.84,0,16-7.16,16-16s-7.16-16-16-16h-115.56c-8.84,0-16,7.16-16,16s7.16,16,16,16Z"/><path d="M292.78,300.81h115.56c8.84,0,16-7.16,16-16s-7.16-16-16-16h-115.56c-8.84,0-16,7.16-16,16s7.16,16,16,16Z"/></svg>