<?xml version="1.0" encoding="UTF-8"?><svg id="Icon" xmlns="http://www.w3.org/2000/svg" viewBox="0 0 512 512"><path d="M358.62,222.19h0c33.82,55.12,63.99,51.19,90.03,48.53-23.85-16.8-31.35-21.36-46.09-45.79-28.93-47.86-28.45-88.83-81.84-83.12,23.93,14.65,21.92,45.48,37.91,80.38Z"/><path d="M362.57,372.9c24.73,18.44,61.34,21.16,85.51-.29h0c-17.14-6.82-31.85-5.81-52.26-22.21-15.6-13.42-43.82-65.66-101.47-30.24,36.57,6.04,46.48,30.74,68.22,52.75Z"/><path d="M334.48,219.87c.78,59.66,33.66,112.66,114.36,129.18v-53.97c-63.18-11.05-69.48-26.85-114.36-75.21Z"/><path d="M446.66,398.71c-40.99,5.39-57.36,13.54-111.47-24.14,12.51,59.55,45.51,75.55,113.31,73.32h0c0-16.27-.08-32.99-1.84-49.18Z"/><path d="M448.21,243.73l-1.81-51.71h0c-32.04-17.25-32.33-33.22-49.11-72.67-16.68,47.62,1.51,98.05,50.92,124.38Z"/><path d="M80.04,166.89v-18.5l31.75-31.75h28.77v16.46c-28.45,6.49-49.68,31.93-49.68,62.34v238.72c0,7.57,6.14,13.71,13.71,13.71h103.94c7.57,0,13.71-6.14,13.71-13.71v-238.72c0-30.41-21.23-55.85-49.68-62.34v-16.46h10.94c1.53,5.13,5.58,9.28,10.92,10.81l63.96,18.28c1.45.41,2.92.62,4.39.62,3.44,0,6.83-1.11,9.64-3.23,4.01-3.02,6.36-7.75,6.36-12.77v-66.25c0-5.02-2.36-9.75-6.36-12.77-4.01-3.02-9.2-3.99-14.03-2.61l-63.96,18.28c-6.87,1.96-11.6,8.24-11.6,15.38v2.28h-10.26v-20.55c0-8.84-7.16-16-16-16s-16,7.16-16,16v20.55h-35.4c-4.24,0-8.31,1.69-11.31,4.69l-41.12,41.12c-3,3-4.69,7.07-4.69,11.31v25.13c0,8.84,7.16,16,16,16s16-7.16,16-16ZM122.89,275.41h67.36v82.22h-67.36v-82.22ZM122.89,415.88v-26.24h67.36v26.24h-67.36ZM190.24,195.45v47.96h-67.36v-47.96c0-17.63,14.34-31.96,31.96-31.96h3.43c17.63,0,31.96,14.34,31.96,31.96ZM214.83,94.44l31.96-9.13v23.83l-31.96-9.13v-5.56Z"/></svg>