<?xml version="1.0" encoding="UTF-8"?><svg id="Icon" xmlns="http://www.w3.org/2000/svg" viewBox="0 0 512 512"><path d="M256,64c-105.87,0-192,86.13-192,192s86.13,192,192,192,192-86.13,192-192-86.13-192-192-192ZM256,429.23c-95.52,0-173.23-77.71-173.23-173.23s77.71-173.23,173.23-173.23,173.23,77.71,173.23,173.23-77.71,173.23-173.23,173.23Z"/><path d="M344.51,243.51c-2.85.57-9.51.96-9.51.96l13.28-45.26-47.97-56.64c-11.38-5.42-53.38-11.38-53.38-11.38-2.98,0-16.26,13.82-16.26,13.82l-39.02,15.45-13.01,16.53c-21.41,13.82-7.18,41.33-1.63,68.02,0,0-6.67-.39-9.51-.96,0,0-5.97.28-6.83,2.28-.85,1.99-2.28,4.83-1.42,7.96.85,3.13,13.37,54.33,13.65,55.75.28,1.42,1.99,2.85,3.7,3.41,1.71.57,9.39,1.99,9.39,1.99,0,0,8.53,40.96,9.1,43.8.57,2.85,4.27,8.25,6.54,10.24,2.27,1.99,26.17,21.62,28.73,23.33,2.56,1.71,11.71,4.85,25.64,4.85s23.08-3.68,25.64-5.39c2.56-1.71,26.45-21.33,28.73-23.32,2.28-1.99,5.97-7.4,6.54-10.24.57-2.84,9.1-43.8,9.1-43.8,0,0,7.68-1.42,9.39-1.99,1.71-.57,3.41-1.99,3.7-3.41.28-1.42,12.8-52.62,13.65-55.75.85-3.13-.57-5.97-1.42-7.96-.85-1.99-6.83-2.28-6.83-2.28ZM331.37,305.14c-1.73.38-4.54.94-6.9,1.38l-5.63,1.04-1.17,5.61c-.35,1.65-8.29,39.78-9.09,43.71-.46,1.32-2.74,4.7-3.83,5.65-2.63,2.3-25.38,20.94-27.82,22.63-.91.57-4.92,2.26-11.73,3.15l-9.2.82-9.2-.28c-6.81-.89-10.82-2.58-11.73-3.15-2.44-1.7-25.19-20.33-27.82-22.64-1.08-.95-3.37-4.33-3.83-5.65-.8-3.94-8.74-42.06-9.09-43.71l-1.17-5.61-5.63-1.04c-2.36-.44-5.18-1-6.9-1.38-2.51-10.47-12.92-53.09-12.87-53.09-.27-3.13,5.99-3.41,7.41-1.14,1.42,2.28,8.82,25.31,8.82,25.31l5.12,5.69s-6.54-25.6-6.96-29.58c-3.89-10.89-3.25-56.37-3.25-56.37.65-6.22,11.11-19.78,11.11-19.78,8.3-4.28,24.12-3.79,24.12-3.79,0-2.85,17.07-20.32,17.07-20.32,12.32,9.34,40.38,16.1,52.57,16.53-.39-2.08-12.19-12.47-12.19-12.47,5.19.13,17.07,7.1,20.05,8.4l-3.25-7.05c16.47.39,50.78,38.65,50.78,38.65.78,5.85-9.59,56.07-9.59,56.07-.42,3.98-6.69,29.18-6.69,29.18l5.12-5.69s7.4-23.04,8.82-25.32c1.42-2.27,7.68-1.99,7.41,1.14.05,0-10.36,42.62-12.87,53.09Z"/><path d="M278.29,254.36c-.33,7.86.99,15.72,3.61,23.25v.65c.65,1.96,2.29,3.61,4.26,4.26h.32c6.23,1.96,12.79,1.96,19.01,0,.32,0,.98-.33,1.31-.65.33-.33.66-.66.66-1,.65-1.31,1.31-2.94,1.64-4.25v-.32c1.96-8.85,3.27-17.69,4.26-26.53l.32-.34c-11.48-2.94-23.59-3.27-35.4-.98v5.9Z"/><path d="M198.64,249.12s.02,0,.04,0c-.01-.1-.02-.21-.04-.31v.32Z"/><path d="M233.72,248.14v.26c.1.02.21.04.32.07l-.32-.32Z"/><path d="M198.68,249.11c.97,9.06,2.28,17.8,4.23,26.54v.67c.33,1.31.98,2.94,1.63,4.25.33.32.65.66.98,1.32.32,0,.65.32.99.32,6.22,1.97,12.78,1.97,19.01,0h.32c1.97-.65,3.61-1.97,4.26-4.26v-.32l.32-.33h-.32c2.95-7.21,3.93-15.06,3.61-22.92v-5.97c-11.68-2.54-23.68-2.2-35.04.71Z"/><path d="M245.51,254.03v-14.73l-1.3-.65c-18.04-5.25-37.37-4.92-55.4.98v.33h-.33c-.65,0-.98.32-1.3.65-.66.33-.98.98-.66,1.64l-.32-.34c.98,12.12,2.62,24.24,5.24,36.03v.33c.33,2.95,1.31,5.56,2.95,8.19l.98,1.64c1.65,2.29,3.61,4.25,6.23,4.91,8.85,2.95,18.03,3.26,27.2.65,6.23-1.63,11.15-6.55,12.79-12.45h-.33c3.28-8.52,4.59-18.01,4.26-27.19ZM236.01,279.25h-.32v.32c-.99,3.93-4.26,7.21-8.52,8.19h.33l-.33.34c-7.87,1.96-16.06,1.96-23.6-.66-1.31-.33-2.29-1.31-3.28-2.29l-.99-1.64c-.98-1.96-1.64-3.93-1.96-6.22l-.32-.32v-.34c-2.28-10.37-3.9-21.07-4.56-31.77,15.39-4.9,31.78-5.56,47.5-1.31h-.33v10.81c.33,8.19-.98,16.7-3.61,24.88Z"/><path d="M325.81,242.58c0-.67-.32-1.32-.65-1.64-.65-.33-.98-.66-1.31-.66l-.33-.32v.32c-17.71-6.55-37.36-6.88-55.39-1.3h-.34l-1.31.33v14.73c-.32,9.18.98,18.67,4.26,27.19,1.64,6.22,6.23,11.13,12.45,12.77,8.85,2.29,18.35,2.29,27.21-.65,2.62-.99,4.91-2.62,6.23-4.91l.98-1.64c1.64-2.29,2.62-5.23,2.95-8.18v.32c2.62-12.12,4.58-23.9,5.23-36.34ZM319.58,245.84c-.65,10.81-2.29,21.62-4.91,32.1l.33-.65v.33c-.33,2.29-1.31,4.26-2.3,6.21l-.98,1.64c-.66.98-1.97,1.96-2.95,2.29h-.33c-7.53,2.62-15.73,2.62-23.6.34-4.26-.99-7.53-4.27-8.52-8.19v-.65c-2.95-7.86-4.26-16.38-3.93-24.88v-10.48c15.73-4.26,32.12-3.61,47.51,1.3l-.33.65Z"/><path d="M251.23,238.86l.9,5.42c3.92-2.11,6.62-1.2,9.94,0l.9-4.52c-3.31-2.41-8.73-2.11-11.74-.9Z"/><path d="M251.23,249.1v5.12c3.91-2.11,7.53-.9,10.84.3l.9-4.52c-3.31-2.41-8.73-2.11-11.74-.9Z"/></svg>