<?xml version="1.0" encoding="UTF-8"?><svg id="Icon" xmlns="http://www.w3.org/2000/svg" viewBox="0 0 512 512"><path d="M256,480c-59.83,0-116.08-23.3-158.39-65.61-42.31-42.31-65.61-98.56-65.61-158.39s23.3-116.08,65.61-158.39c42.31-42.31,98.56-65.61,158.39-65.61s116.08,23.3,158.39,65.61c42.31,42.31,65.61,98.56,65.61,158.39s-23.3,116.08-65.61,158.39c-42.31,42.31-98.56,65.61-158.39,65.61ZM256,64c-105.87,0-192,86.13-192,192s86.13,192,192,192,192-86.13,192-192-86.13-192-192-192Z"/><circle cx="177.42" cy="214.4" r="23.11"/><circle cx="334.58" cy="214.4" r="23.11"/><path d="M177.43,387.56c-4.42,0-8.81-1.82-11.97-5.38-5.87-6.61-5.26-16.72,1.35-22.59,21.89-19.43,60.24-34.08,89.2-34.08,33.55,0,67.06,12.89,89.64,34.48,6.39,6.11,6.61,16.24.5,22.62-6.11,6.38-16.23,6.61-22.62.5-19.74-18.88-47.82-25.61-67.52-25.61-18.59,0-49.85,9.94-67.96,26.01-3.05,2.7-6.84,4.03-10.61,4.03Z"/></svg>