<?xml version="1.0" encoding="UTF-8"?><svg id="Icon" xmlns="http://www.w3.org/2000/svg" viewBox="0 0 512 512"><path d="M414.39,97.61c-42.31-42.31-98.56-65.61-158.39-65.61s-116.08,23.3-158.39,65.61C55.3,139.92,32,196.17,32,256s23.3,116.08,65.61,158.39c42.31,42.31,98.56,65.61,158.39,65.61s116.08-23.3,158.39-65.61c42.31-42.31,65.61-98.56,65.61-158.39s-23.3-116.08-65.61-158.39ZM154.31,214.4c0-12.76,10.35-23.11,23.11-23.11s23.11,10.35,23.11,23.11-10.35,23.11-23.11,23.11-23.11-10.35-23.11-23.11ZM346.14,382.61c-6.11,6.38-16.23,6.61-22.62.5-19.74-18.88-47.82-25.61-67.52-25.61-18.59,0-49.85,9.94-67.96,26.01-3.05,2.7-6.84,4.03-10.61,4.03-4.42,0-8.81-1.82-11.97-5.38-5.87-6.61-5.26-16.72,1.35-22.59,21.89-19.43,60.24-34.08,89.2-34.08,33.55,0,67.06,12.89,89.64,34.48,6.39,6.11,6.61,16.24.5,22.62ZM334.58,237.51c-12.76,0-23.11-10.35-23.11-23.11s10.35-23.11,23.11-23.11,23.11,10.35,23.11,23.11-10.35,23.11-23.11,23.11Z"/></svg>