<?xml version="1.0" encoding="UTF-8"?><svg id="Icon" xmlns="http://www.w3.org/2000/svg" viewBox="0 0 512 512"><path d="M414.39,97.61c-42.31-42.31-98.56-65.61-158.39-65.61s-116.08,23.3-158.39,65.61C55.3,139.92,32,196.17,32,256s23.3,116.08,65.61,158.39c42.31,42.31,98.56,65.61,158.39,65.61s116.08-23.3,158.39-65.61c42.31-42.31,65.61-98.56,65.61-158.39s-23.3-116.08-65.61-158.39ZM154.31,214.4c0-12.76,10.35-23.11,23.11-23.11s23.11,10.35,23.11,23.11-10.35,23.11-23.11,23.11-23.11-10.35-23.11-23.11ZM329.96,359.82h-147.91c-8.84,0-16-7.16-16-16s7.16-16,16-16h147.91c8.84,0,16,7.16,16,16s-7.16,16-16,16ZM334.58,237.51c-12.76,0-23.11-10.35-23.11-23.11s10.35-23.11,23.11-23.11,23.11,10.35,23.11,23.11-10.35,23.11-23.11,23.11Z"/></svg>