<?xml version="1.0" encoding="UTF-8"?><svg id="Icon" xmlns="http://www.w3.org/2000/svg" viewBox="0 0 512 512"><path d="M256,480c-59.83,0-116.08-23.3-158.39-65.61-42.31-42.31-65.61-98.56-65.61-158.39s23.3-116.08,65.61-158.39,98.56-65.61,158.39-65.61,116.08,23.3,158.39,65.61c42.31,42.31,65.61,98.56,65.61,158.39s-23.3,116.08-65.61,158.39c-42.31,42.31-98.56,65.61-158.39,65.61ZM256,64c-105.87,0-192,86.13-192,192s86.13,192,192,192,192-86.13,192-192-86.13-192-192-192Z"/><circle cx="177.42" cy="214.4" r="23.11"/><circle cx="334.58" cy="214.4" r="23.11"/><path d="M334.58,387.56c-3,0-6.01-.84-8.65-2.54-.34-.22-36.24-22.91-69.92-22.91s-69.57,22.69-69.93,22.92c-6.22,3.98-14.37,3.19-19.7-1.92-5.33-5.11-6.49-13.2-2.78-19.58,23.55-40.56,54.64-61.12,92.41-61.12,47.59,0,81.84,32.89,93.52,63.44,2.47,6.46.51,13.77-4.86,18.13-2.92,2.38-6.5,3.58-10.09,3.58Z"/></svg>