<?xml version="1.0" encoding="UTF-8"?><svg id="Icon" xmlns="http://www.w3.org/2000/svg" viewBox="0 0 512 512"><path d="M256,480c-59.83,0-116.08-23.3-158.39-65.61-42.31-42.31-65.61-98.56-65.61-158.39s23.3-116.08,65.61-158.39,98.56-65.61,158.39-65.61,116.08,23.3,158.39,65.61c42.31,42.31,65.61,98.56,65.61,158.39s-23.3,116.08-65.61,158.39c-42.31,42.31-98.56,65.61-158.39,65.61ZM256,64c-105.87,0-192,86.13-192,192s86.13,192,192,192,192-86.13,192-192-86.13-192-192-192Z"/><circle cx="177.42" cy="214.4" r="23.11"/><circle cx="334.58" cy="214.4" r="23.11"/><path d="M256,387.56c-37.77,0-68.87-20.56-92.41-61.12-3.71-6.39-2.56-14.5,2.79-19.61,5.34-5.1,13.48-5.88,19.69-1.89.43.27,36.23,22.92,69.93,22.92s69.58-22.69,69.94-22.92c5.82-3.72,13.38-3.29,18.73,1.07,5.35,4.36,7.31,11.66,4.85,18.11-11.68,30.55-45.93,63.44-93.52,63.44ZM177.42,318.4h0,0Z"/></svg>