<?xml version="1.0" encoding="UTF-8"?><svg id="Icon" xmlns="http://www.w3.org/2000/svg" viewBox="0 0 512 512"><path d="M414.39,97.61c-42.31-42.31-98.56-65.61-158.39-65.61s-116.08,23.3-158.39,65.61-65.61,98.56-65.61,158.39,23.3,116.08,65.61,158.39c42.31,42.31,98.56,65.61,158.39,65.61s116.08-23.3,158.39-65.61c42.31-42.31,65.61-98.56,65.61-158.39s-23.3-116.08-65.61-158.39ZM154.31,214.4c0-12.76,10.35-23.11,23.11-23.11s23.11,10.35,23.11,23.11-10.35,23.11-23.11,23.11-23.11-10.35-23.11-23.11ZM349.52,324.11c-11.68,30.55-45.93,63.44-93.52,63.44-37.77,0-68.87-20.56-92.41-61.12-3.71-6.39-2.56-14.5,2.79-19.61,5.34-5.1,13.48-5.88,19.69-1.89.43.27,36.23,22.92,69.93,22.92s69.58-22.69,69.94-22.92c5.82-3.72,13.38-3.29,18.73,1.07,5.35,4.36,7.31,11.66,4.85,18.11ZM334.58,237.51c-12.76,0-23.11-10.35-23.11-23.11s10.35-23.11,23.11-23.11,23.11,10.35,23.11,23.11-10.35,23.11-23.11,23.11Z"/></svg>