<?xml version="1.0" encoding="UTF-8"?><svg id="Icon" xmlns="http://www.w3.org/2000/svg" viewBox="0 0 512 512"><path d="M256,480c-59.83,0-116.08-23.3-158.39-65.61-42.31-42.31-65.61-98.56-65.61-158.39s23.3-116.08,65.61-158.39c42.31-42.31,98.56-65.61,158.39-65.61s116.08,23.3,158.39,65.61c42.31,42.31,65.61,98.56,65.61,158.39s-23.3,116.08-65.61,158.39c-42.31,42.31-98.56,65.61-158.39,65.61ZM256,64c-105.87,0-192,86.13-192,192s86.13,192,192,192,192-86.13,192-192-86.13-192-192-192Z"/><circle cx="177.42" cy="214.4" r="23.11"/><circle cx="334.58" cy="214.4" r="23.11"/><path d="M183.97,369.74c-7.26,0-13.84-4.98-15.57-12.36-2.01-8.6,3.33-17.21,11.94-19.22l144.02-33.69c8.61-2.02,17.21,3.33,19.22,11.94,2.01,8.6-3.33,17.21-11.94,19.22l-144.02,33.69c-1.23.29-2.45.42-3.66.42Z"/></svg>