<?xml version="1.0" encoding="UTF-8"?><svg id="Icon" xmlns="http://www.w3.org/2000/svg" viewBox="0 0 512 512"><path d="M256,480c-59.83,0-116.08-23.3-158.39-65.61-42.31-42.31-65.61-98.56-65.61-158.39s23.3-116.08,65.61-158.39,98.56-65.61,158.39-65.61,116.08,23.3,158.39,65.61c42.31,42.31,65.61,98.56,65.61,158.39s-23.3,116.08-65.61,158.39c-42.31,42.31-98.56,65.61-158.39,65.61ZM256,64c-105.87,0-192,86.13-192,192s86.13,192,192,192,192-86.13,192-192-86.13-192-192-192Z"/><circle cx="177.42" cy="214.4" r="23.11"/><circle cx="334.58" cy="214.4" r="23.11"/><path d="M256,387.56c-28.96,0-67.31-14.65-89.2-34.08-6.61-5.87-7.21-15.98-1.35-22.59,5.87-6.61,15.98-7.21,22.59-1.35,18.1,16.07,49.37,26.01,67.96,26.01,19.7,0,47.78-6.73,67.52-25.61,6.39-6.11,16.51-5.88,22.62.5,6.11,6.39,5.88,16.51-.5,22.62-22.58,21.59-56.08,34.48-89.64,34.48Z"/></svg>