<?xml version="1.0" encoding="UTF-8"?><svg id="Icon" xmlns="http://www.w3.org/2000/svg" viewBox="0 0 512 512"><path d="M256,480c-59.83,0-116.08-23.3-158.39-65.61-42.31-42.31-65.61-98.56-65.61-158.39s23.3-116.08,65.61-158.39c42.31-42.31,98.56-65.61,158.39-65.61s116.08,23.3,158.39,65.61c42.31,42.31,65.61,98.56,65.61,158.39s-23.3,116.08-65.61,158.39c-42.31,42.31-98.56,65.61-158.39,65.61ZM256,64c-105.87,0-192,86.13-192,192s86.13,192,192,192,192-86.13,192-192-86.13-192-192-192Z"/><circle cx="177.42" cy="214.4" r="23.11"/><circle cx="334.58" cy="214.4" r="23.11"/><path d="M329.96,359.82h-147.91c-8.84,0-16-7.16-16-16s7.16-16,16-16h147.91c8.84,0,16,7.16,16,16s-7.16,16-16,16Z"/></svg>