<?xml version="1.0" encoding="UTF-8"?><svg id="Icon" xmlns="http://www.w3.org/2000/svg" viewBox="0 0 512 512"><path d="M432,448H80c-8.84,0-16-7.16-16-16V80c0-8.84,7.16-16,16-16h65.44c8.84,0,16,7.16,16,16v136.48l120.08-60.51c4.96-2.5,10.86-2.25,15.59.66,4.73,2.91,7.61,8.07,7.61,13.62v46.23l120.08-60.51c4.96-2.5,10.86-2.25,15.59.66,4.73,2.91,7.61,8.07,7.61,13.62v261.74c0,8.84-7.16,16-16,16ZM96,416h320v-219.76l-120.08,60.51c-4.96,2.5-10.86,2.25-15.59-.66-4.73-2.91-7.61-8.07-7.61-13.62v-46.23l-120.08,60.51c-4.96,2.5-10.86,2.25-15.59-.66-4.73-2.91-7.61-8.07-7.61-13.62V96h-33.44v320Z"/><rect x="128" y="320" width="64" height="48" rx="16" ry="16"/><rect x="320" y="320" width="64" height="48" rx="16" ry="16"/><rect x="224" y="320" width="64" height="48" rx="16" ry="16"/></svg>