<?xml version="1.0" encoding="UTF-8"?><svg id="Icon" xmlns="http://www.w3.org/2000/svg" viewBox="0 0 512 512"><path d="M255.95,272c8.84,0,16-7.16,16-16v-86c0-8.84-7.16-16-16-16s-16,7.16-16,16v86c0,8.84,7.16,16,16,16Z"/><path d="M255.95,353.23h.2c8.84,0,16-7.16,16-16s-7.16-16-16-16h-.2c-8.84,0-16,7.16-16,16s7.16,16,16,16Z"/><path d="M255.95,64c-37.43,0-73.71,10.78-104.91,31.17-21.97,14.36-40.61,32.93-54.99,54.54v-42.41c0-8.84-7.16-16-16-16s-16,7.16-16,16v81.23c0,8.84,7.16,16,16,16h81.23c8.84,0,16-7.16,16-16s-7.16-16-16-16h-41.85c12.37-20.2,29.08-37.49,49.11-50.58,25.99-16.98,56.21-25.96,87.41-25.96,88.22,0,160,71.78,160,160s-71.78,160-160,160c-38.48,0-75.66-13.85-104.7-39.01-28.76-24.91-47.74-59.22-53.45-96.6-1.33-8.73-9.5-14.74-18.23-13.4-8.74,1.33-14.73,9.5-13.4,18.23,6.86,44.89,29.64,86.07,64.13,115.96,34.86,30.2,79.48,46.82,125.66,46.82,105.87,0,192-86.13,192-192s-86.13-192-192-192Z"/></svg>