<?xml version="1.0" encoding="UTF-8"?><svg id="Icon" xmlns="http://www.w3.org/2000/svg" viewBox="0 0 512 512"><path d="M453.22,290.35c-.03-5.14-.51-10.59-1.53-17.22-.82-5.13-2.19-10.66-4.18-16.88-1.74-5.45-3.92-10.76-6.67-16.25-1.81-3.61-3.85-7.5-6.53-11.45-3.11-4.85-6.67-9.51-10.53-13.79-4.1-4.61-8.09-8.43-12.19-11.66-4.16-3.29-8.41-6.24-12.64-8.79-4.53-2.86-9.48-5.37-15.55-7.9l-.09-.04c-4.46-1.82-9.22-3.37-14.98-4.88l-1-.24c-2.5-.54-5.81-1.22-9.29-1.71l-.32-.04c-5.73-.72-10.85-1.06-15.64-1.06h-11.64c-6.74,0-12.96,3.94-15.83,10.04-2.87,6.1-1.95,13.4,2.34,18.6l8.05,9.75.38.44c3.61,4.06,6.62,10.51,8.97,19.18,2.22,8.21,3.23,20.16,2.79,26.17-.55,7.42-3.32,23.15-5.12,30.34l-.05.2c-2.15,8.58-4.38,17.46-4.82,27.32l-.03,1.08c0,4.68.62,9.39,1.85,13.99,1.16,4.35,2.64,8.3,4.51,12.05,2.07,4.14,4.68,8.15,7.58,11.63l.75.86c3.35,3.63,6.88,6.79,10.5,9.37,3.98,2.84,8.49,5.22,13.41,7.07,3.55,1.36,7.28,2.33,11.38,2.96,3.67.7,6.86.7,9,.7,4.38,0,8.89-.62,14.17-1.94,2.29-.57,4.7-1.39,7.17-2.42,2.89-1.14,5.09-2.39,6.73-3.33,3.8-2.17,7.54-4.93,11.12-8.21l.73-.7c2.7-2.7,4.94-5.39,6.91-7.76l.57-.72c2.67-3.48,5.09-7.19,6.98-10.73,4.07-7.48,7.31-15.79,9.38-24.04,1.24-4.96,2.06-9.43,2.5-13.65.75-6.07,1.02-11.28.85-16.35Z"/><path d="M131.51,179.6c.65,4.77,1.69,9.67,3.25,15.36l.31,1.04c.79,2.44,1.86,5.65,3.16,8.9l.12.29c2.25,5.32,4.5,9.93,6.9,14.07l5.82,10.08c3.13,5.42,8.97,8.75,15.17,8.75.48,0,.96-.02,1.44-.06,6.72-.56,12.58-5.01,14.94-11.33l4.42-11.85.19-.55c1.71-5.15,5.79-10.99,12.13-17.36,6-6.03,15.84-12.88,21.26-15.5,6.71-3.24,21.71-8.7,28.84-10.73l.21-.06c8.5-2.43,17.29-4.94,26.12-9.51l.88-.48c4.05-2.34,7.82-5.23,11.19-8.6,3.19-3.18,5.86-6.43,8.18-9.93,2.55-3.86,4.71-8.12,6.29-12.4l.36-1.06c1.47-4.72,2.43-9.35,2.87-13.78.47-4.87.28-9.96-.58-15.15-.6-3.76-1.62-7.47-3.12-11.34-1.23-3.53-2.83-6.29-3.89-8.13-2.22-3.85-4.92-7.34-8.77-11.31-1.65-1.7-3.56-3.38-5.68-5-2.44-1.94-4.63-3.22-6.24-4.16-3.79-2.21-8.04-4.06-12.64-5.51l-1-.29c-3.69-.99-7.13-1.58-10.17-2.11l-.91-.14c-4.34-.58-8.76-.81-12.79-.68-8.51.21-17.33,1.56-25.51,3.9-4.92,1.41-9.2,2.93-13.07,4.66-5.63,2.39-10.28,4.76-14.58,7.43-4.43,2.59-8.91,5.73-14.15,9.94-4.03,3.28-8.13,7.22-12.53,12.06-3.85,4.23-7.36,8.78-10.74,13.89-2.22,3.37-4.57,7.08-6.65,11.38-2.64,5.12-4.9,10.53-6.68,16.01-1.94,5.86-3.25,11.22-4.01,16.38-.76,5.24-1.2,10.4-1.3,15.34-.21,5.35.09,10.89.93,17.42v.1Z"/><path d="M264.06,334.27l-12.47,2.1-.57.11c-5.31,1.1-12.41.48-21.1-1.83-8.22-2.18-19.07-7.28-24.05-10.67h0c-6.16-4.19-18.39-14.45-23.71-19.6l-.15-.15c-6.36-6.15-12.93-12.51-21.28-17.86l-.88-.54c-4.05-2.34-8.44-4.15-13.04-5.39-4.35-1.17-8.5-1.87-12.69-2.12-4.62-.28-9.4-.02-13.84.75l-1.15.23c-4.83,1.09-9.32,2.57-13.36,4.41-4.45,2.02-8.77,4.74-12.83,8.08-2.95,2.39-5.66,5.14-8.26,8.37-2.44,2.83-4.04,5.59-5.1,7.44-2.22,3.85-3.89,7.93-5.41,13.25-.65,2.27-1.15,4.76-1.49,7.42-.46,3.09-.48,5.73-.48,7.49-.02,4.38.5,9,1.55,13.74l.24.98c.99,3.69,2.2,6.97,3.26,9.86l.33.85c1.67,4.05,3.68,8,5.81,11.42,4.44,7.26,10.01,14.22,16.13,20.14,3.68,3.55,7.14,6.5,10.57,8.99,4.89,3.69,9.26,6.53,13.73,8.91,4.46,2.54,9.42,4.85,15.68,7.28,4.86,1.86,10.32,3.43,16.7,4.82,5.59,1.21,11.28,1.98,17.4,2.35,2.41.14,4.94.26,7.6.26,1.8,0,3.66-.05,5.58-.19,5.75-.27,11.57-1.02,17.21-2.22,6.04-1.24,11.34-2.79,16.19-4.72,4.93-1.96,9.62-4.16,13.94-6.55,4.74-2.49,9.39-5.52,14.61-9.52l.08-.06c3.81-2.95,7.53-6.29,11.73-10.55l.69-.73c1.72-1.9,3.96-4.43,6.08-7.12l.25-.32c3.48-4.6,6.34-8.86,8.74-13.01l5.82-10.08c3.37-5.84,3.06-13.19-.78-18.73-3.85-5.54-10.63-8.39-17.28-7.27Z"/><path d="M256,192c-35.29,0-64,28.71-64,64s28.71,64,64,64,64-28.71,64-64-28.71-64-64-64ZM256,288c-17.64,0-32-14.35-32-32s14.36-32,32-32,32,14.35,32,32-14.36,32-32,32Z"/></svg>