<?xml version="1.0" encoding="UTF-8"?><svg id="Icon" xmlns="http://www.w3.org/2000/svg" viewBox="0 0 512 512"><path d="M355.19,190.3c-21.24,0-41.87,6.73-59.13,14.91-1.07-.81-2.17-1.58-3.29-2.32-8.53-5.97-18.54-9.96-29.36-11.33,6.6-28.26,46.19-51.92,46.19-51.92,33.07-12.65,27.01-36.31,27.01-36.31-12.58-30.07-34.02-38.31-53.77-38.31-24.01,0-45.5,12.19-45.5,12.19-62,43.82-51.12,96.55-29.96,134.14-3.54,3.7-6.66,7.8-9.28,12.24-.38.64-.75,1.28-1.11,1.94-.01.02-.03.05-.04.07-2.94,5.36-5.12,11.17-6.42,17.31-.64,2.95-1.08,5.97-1.31,9.06-26.63-10.7-46.24-47-46.24-47-8.46-26.29-25.98-28.94-32.7-28.94-1.69,0-2.7.17-2.7.17-70.62,22.07-34.16,94.02-34.16,94.02,24.66,38.34,54.61,50.91,83.34,50.91,19.87,0,39.15-6.02,55.7-13.69,10.93,9.24,24.91,14.98,40.22,15.51-7.08,28.05-46.96,51.1-46.96,51.1-33.27,12.26-27.49,35.99-27.49,35.99,12.36,30.66,34.16,38.97,54.15,38.97,23.64,0,44.75-11.61,44.75-11.61,65.3-44.99,51.32-100.43,28.9-138.51,3.57-4.35,6.59-9.17,8.97-14.34,4.09-7.98,6.53-16.88,6.86-26.34,27.16,10.47,46.6,48.57,46.6,48.57,8.07,27.24,26.33,29.67,32.58,29.67,1.35,0,2.14-.11,2.14-.11,71.09-20.47,36.37-93.25,36.37-93.25-24.35-39.85-54.92-52.76-84.33-52.76ZM255,291c-18.75,0-34-15.25-34-34s15.25-34,34-34,34,15.25,34,34-15.25,34-34,34Z"/><path d="M357,104h66c6.63,0,12-5.37,12-12s-5.37-12-12-12h-66c-6.63,0-12,5.37-12,12s5.37,12,12,12Z"/><path d="M480,151h-66c-6.63,0-12,5.37-12,12s5.37,12,12,12h66c6.63,0,12-5.37,12-12s-5.37-12-12-12Z"/><path d="M370,127.5c0,6.63,5.37,12,12,12h66c6.63,0,12-5.37,12-12s-5.37-12-12-12h-66c-6.63,0-12,5.37-12,12Z"/></svg>