<?xml version="1.0" encoding="UTF-8"?><svg id="Icon" xmlns="http://www.w3.org/2000/svg" viewBox="0 0 512 512"><path d="M352.33,369.46c3.98,2.84,8.49,5.22,13.4,7.07,3.55,1.36,7.28,2.33,11.38,2.96,3.67.7,6.86.7,9,.7,4.39,0,8.89-.62,14.17-1.94,2.29-.57,4.7-1.39,7.17-2.42,2.89-1.13,5.09-2.39,6.73-3.33,3.8-2.17,7.54-4.93,11.06-8.16l.78-.75c2.71-2.7,4.94-5.39,6.91-7.76l.57-.71c2.67-3.48,5.09-7.19,6.98-10.74,4.07-7.48,7.31-15.79,9.38-24.04,1.24-4.96,2.06-9.42,2.5-13.65.75-6.08,1.02-11.28.85-16.35-.03-5.13-.51-10.58-1.53-17.22-.82-5.13-2.19-10.65-4.18-16.87-1.74-5.45-3.92-10.76-6.67-16.25-1.81-3.62-3.85-7.5-6.53-11.45-3.1-4.83-6.65-9.48-10.56-13.82-4.08-4.59-8.06-8.4-12.16-11.63-4.17-3.29-8.42-6.25-12.64-8.8-4.52-2.85-9.47-5.37-15.54-7.9l-.1-.04c-4.46-1.82-9.22-3.37-15.02-4.89l-.95-.22c-2.5-.54-5.81-1.22-9.31-1.71l-.3-.04c-5.73-.72-10.84-1.07-15.64-1.07h-11.64c-6.74,0-12.95,3.94-15.83,10.04-2.87,6.1-1.96,13.4,2.34,18.61l8.05,9.75.38.44c3.6,4.05,6.62,10.51,8.96,19.18,2.22,8.21,3.23,20.16,2.79,26.17h0c-.55,7.43-3.32,23.15-5.12,30.34l-.05.21c-2.15,8.58-4.37,17.45-4.83,27.41l-.02.98c0,4.68.62,9.39,1.85,13.99,1.16,4.35,2.64,8.29,4.51,12.04,2.07,4.13,4.68,8.15,7.59,11.64l.75.85c3.35,3.63,6.88,6.79,10.5,9.37ZM365.25,228.11c-1.57-5.82-3.41-11.05-5.55-15.76.26.06.52.11.76.16,4.24,1.11,7.65,2.22,10.71,3.46,4.4,1.84,7.84,3.57,10.82,5.46l.32.2c3.12,1.88,6.3,4.09,9.46,6.59,2.62,2.06,5.26,4.62,8.1,7.81l.07.08c2.8,3.12,5.34,6.44,7.54,9.88l.28.42c1.67,2.44,3.14,5.25,4.47,7.92,2,4,3.57,7.82,4.81,11.69,1.49,4.67,2.49,8.65,3.04,12.08.77,5.03,1.14,9.04,1.15,12.6v.55c.13,3.45-.07,7.16-.63,11.68l-.04.35c-.28,2.74-.84,5.79-1.72,9.32-1.42,5.68-3.65,11.4-6.46,16.54l-.07.13c-1.04,1.96-2.48,4.16-4.04,6.21-1.59,1.91-3.11,3.72-4.73,5.37-1.76,1.6-3.52,2.91-5.23,3.88-1.03.59-1.84,1.05-2.59,1.34l-.51.21c-1.27.54-2.16.81-2.68.94-3.48.87-5.25.98-6.41.98s-2.36,0-3.06-.14l-.86-.15c-1.98-.29-3.53-.68-5.03-1.26l-.13-.05c-2.33-.87-4.38-1.94-6.1-3.17-1.78-1.27-3.6-2.9-5.44-4.88-1.25-1.53-2.44-3.38-3.37-5.25-.89-1.79-1.62-3.75-2.21-5.98-.5-1.86-.76-3.74-.77-5.58.33-6.6,2.06-13.49,3.88-20.79l.05-.21c2.2-8.78,5.3-26.31,5.99-35.76.75-10.19-.89-26.04-3.81-36.86Z"/><path d="M301.86,88.42c-1.23-3.53-2.83-6.29-3.89-8.14-2.19-3.8-4.98-7.39-8.77-11.31-1.64-1.7-3.55-3.38-5.68-5-2.43-1.94-4.62-3.21-6.25-4.16-3.78-2.21-8.04-4.06-12.73-5.54l-.91-.26c-3.7-.99-7.14-1.58-10.17-2.11l-.91-.14c-4.34-.58-8.76-.81-12.79-.68-8.51.21-17.33,1.56-25.51,3.9-4.91,1.41-9.19,2.93-13.07,4.66-5.64,2.39-10.29,4.76-14.58,7.43-4.43,2.59-8.92,5.74-14.15,9.94-4.04,3.28-8.13,7.22-12.53,12.06-3.85,4.24-7.36,8.78-10.74,13.89-2.22,3.37-4.57,7.08-6.65,11.38-2.64,5.11-4.9,10.53-6.68,16.01-1.94,5.86-3.25,11.22-4.01,16.38-.77,5.25-1.2,10.41-1.3,15.34-.21,5.35.09,10.89.93,17.41v.1c.66,4.77,1.7,9.67,3.29,15.45l.29.95c.79,2.44,1.86,5.65,3.13,8.82l.15.37c2.24,5.32,4.5,9.92,6.9,14.08l5.82,10.08c3.13,5.42,8.97,8.75,15.17,8.75.48,0,.96-.02,1.44-.06,6.72-.56,12.58-5.01,14.94-11.33l4.42-11.85.19-.55c1.71-5.15,5.79-10.99,12.13-17.35,6-6.03,15.84-12.88,21.26-15.5h0c6.7-3.24,21.71-8.7,28.84-10.74l.21-.06c8.5-2.43,17.3-4.94,26.08-9.49l.92-.5c4.05-2.34,7.82-5.24,11.19-8.6,3.19-3.18,5.86-6.43,8.18-9.93,2.55-3.86,4.71-8.13,6.28-12.39l.36-1.08c1.47-4.72,2.43-9.36,2.86-13.78.47-4.87.28-9.97-.58-15.16-.6-3.75-1.62-7.46-3.12-11.33ZM273.71,111.81c-.21,2.18-.71,4.57-1.5,7.15-.7,1.85-1.71,3.81-2.86,5.55-1.1,1.67-2.44,3.28-4.08,4.91-1.37,1.36-2.87,2.53-4.42,3.44-5.88,3.02-12.73,4.97-19.96,7.04l-.21.06c-8.7,2.48-25.43,8.57-33.97,12.69-9.2,4.44-22.11,13.79-30.02,21.73-4.25,4.27-7.86,8.48-10.87,12.69-.08-.25-.16-.5-.24-.75-1.16-4.23-1.91-7.73-2.35-11-.61-4.73-.83-8.58-.68-12.11v-.38c.08-3.64.4-7.5.98-11.49.48-3.29,1.37-6.86,2.74-11.01,1.3-3.99,2.91-7.85,4.79-11.47l.23-.45c1.29-2.68,2.98-5.35,4.62-7.83,2.46-3.73,4.99-7,7.72-10.01,3.3-3.63,6.25-6.49,8.94-8.68,3.97-3.18,7.25-5.5,10.34-7.29l.47-.28c2.92-1.83,6.24-3.51,10.44-5.29l.32-.14c2.51-1.13,5.44-2.16,8.93-3.16,5.62-1.61,11.69-2.53,17.56-2.68h.15c2.22-.08,4.85.06,7.41.39,2.47.43,4.8.83,7.01,1.41,2.27.73,4.27,1.59,5.97,2.58,1.02.59,1.83,1.07,2.45,1.57l.43.34c1.11.83,1.78,1.47,2.15,1.85,1.95,2.01,3.2,3.57,4.06,5.06.55.96,1.18,2.04,1.41,2.72l.3.82c.74,1.86,1.18,3.4,1.43,4.99l.02.13c.41,2.45.51,4.76.31,6.87Z"/><path d="M264.06,334.27l-12.47,2.1-.57.11c-5.31,1.1-12.41.48-21.1-1.83-8.22-2.18-19.07-7.28-24.05-10.67-6.16-4.19-18.39-14.45-23.72-19.61l-.15-.15c-6.36-6.15-12.93-12.51-21.28-17.86l-.89-.54c-4.05-2.34-8.45-4.16-13.04-5.39-4.35-1.17-8.5-1.87-12.69-2.12-4.62-.28-9.4-.02-13.84.75l-1.14.23c-4.82,1.08-9.32,2.57-13.37,4.41-4.45,2.03-8.77,4.74-12.83,8.08-2.95,2.39-5.66,5.14-8.25,8.37-2.44,2.83-4.03,5.58-5.1,7.44-2.22,3.85-3.89,7.93-5.41,13.25-.65,2.28-1.15,4.77-1.49,7.42-.46,3.07-.48,5.6-.49,7.49-.02,4.38.5,8.99,1.56,13.74l.24.96c.99,3.68,2.19,6.95,3.26,9.86l.33.85c1.67,4.05,3.68,8,5.8,11.42,4.44,7.27,10.02,14.23,16.13,20.14,3.68,3.56,7.14,6.5,10.57,8.99,4.89,3.69,9.26,6.53,13.73,8.91,4.46,2.55,9.43,4.85,15.68,7.28,4.86,1.86,10.32,3.43,16.7,4.82,5.59,1.22,11.29,1.99,17.41,2.35,2.41.14,4.94.26,7.61.26,1.8,0,3.66-.06,5.57-.19,5.75-.27,11.57-1.02,17.21-2.22,6.04-1.24,11.34-2.79,16.2-4.72,4.93-1.96,9.62-4.17,13.94-6.55,4.73-2.49,9.38-5.52,14.61-9.51l.08-.06c3.81-2.95,7.53-6.3,11.69-10.51l.73-.78c1.71-1.9,3.95-4.42,6.08-7.12l.25-.32c3.49-4.61,6.35-8.87,8.74-13.01l5.82-10.08c3.37-5.84,3.07-13.19-.78-18.73-3.85-5.54-10.63-8.39-17.28-7.28ZM237.62,369.22c-3.08,3.12-5.74,5.52-8.35,7.54-3.8,2.9-7.02,5.01-10.15,6.65l-.34.18c-3.18,1.76-6.69,3.41-10.43,4.9-3.09,1.23-6.63,2.25-10.91,3.13-4.1.87-8.25,1.41-12.33,1.59l-.5.03c-2.96.23-6.12.09-9.09-.09-4.46-.27-8.55-.82-12.53-1.68-4.79-1.04-8.74-2.17-11.99-3.41-4.74-1.84-8.39-3.53-11.48-5.31l-.48-.26c-3.05-1.61-6.16-3.65-9.79-6.4l-.29-.21c-2.23-1.61-4.58-3.62-7.2-6.15-4.2-4.07-8.04-8.86-11.1-13.87l-.08-.13c-1.18-1.89-2.37-4.24-3.36-6.62-.87-2.36-1.68-4.59-2.28-6.76-.51-2.33-.76-4.51-.75-6.47,0-1.18.01-2.12.14-2.91l.08-.55c.17-1.37.38-2.27.53-2.78.77-2.69,1.5-4.56,2.36-6.04.55-.96,1.18-2.04,1.65-2.58l.56-.67c1.24-1.57,2.35-2.72,3.6-3.73l.11-.09c1.92-1.58,3.87-2.82,5.8-3.7,1.99-.9,4.31-1.66,6.94-2.27,1.95-.32,4.15-.43,6.24-.3,2,.12,4.05.47,6.29,1.07,1.86.5,3.62,1.22,5.2,2.11,5.56,3.59,10.67,8.53,16.07,13.77l.16.15c6.5,6.29,20.14,17.74,27.97,23.07,8.45,5.75,23,12.25,33.83,15.13,5.82,1.55,11.28,2.57,16.43,3.07-.18.2-.35.39-.52.57Z"/><path d="M320,256c0-35.29-28.71-64-64-64s-64,28.71-64,64,28.71,64,64,64,64-28.71,64-64ZM256,288c-17.64,0-32-14.36-32-32s14.36-32,32-32,32,14.36,32,32-14.36,32-32,32Z"/></svg>