<?xml version="1.0" encoding="UTF-8"?><svg id="Icon" xmlns="http://www.w3.org/2000/svg" viewBox="0 0 512 512"><path d="M321.84,258.19c27.16,10.47,46.6,48.57,46.6,48.57,8.07,27.24,26.33,29.67,32.58,29.67,1.35,0,2.14-.11,2.14-.11,71.09-20.47,36.37-93.25,36.37-93.25-24.35-39.85-54.92-52.76-84.33-52.76-21.24,0-41.87,6.73-59.13,14.91-1.07-.81-2.17-1.58-3.29-2.32-8.53-5.97-18.54-9.96-29.36-11.33,6.6-28.26,46.19-51.92,46.19-51.92,33.07-12.65,27.01-36.31,27.01-36.31-12.58-30.07-34.02-38.31-53.77-38.31-24.01,0-45.5,12.19-45.5,12.19-62,43.82-51.12,96.55-29.96,134.14-3.54,3.7-6.66,7.8-9.28,12.24-.38.64-.75,1.28-1.11,1.93-.01.03-.03.05-.04.08-2.94,5.36-5.12,11.17-6.41,17.3-.64,2.95-1.08,5.98-1.32,9.06-26.63-10.7-46.24-47-46.24-47-8.46-26.29-25.98-28.94-32.7-28.94-1.69,0-2.7.17-2.7.17-70.62,22.07-34.16,94.02-34.16,94.02,24.66,38.34,54.61,50.91,83.34,50.91,19.87,0,39.15-6.02,55.7-13.69,10.94,9.24,24.91,14.98,40.22,15.51-7.08,28.05-46.96,51.1-46.96,51.1-33.27,12.26-27.49,35.99-27.49,35.99,12.36,30.66,34.16,38.97,54.15,38.97,23.64,0,44.75-11.61,44.75-11.61,65.3-44.99,51.32-100.43,28.9-138.51,3.57-4.35,6.59-9.17,8.97-14.35,4.09-7.98,6.53-16.87,6.86-26.34ZM355.19,222.3c10.47,0,19.69,2.36,28.19,7.22,10.14,5.79,19.47,15.37,27.76,28.49,3.21,7.81,7.42,24.33,2.82,34.35-.82,1.78-3.01,6.56-12.65,10.72-.63-1.1-1.42-2.82-2.2-5.42l-.84-2.83-1.34-2.63c-.63-1.24-6.45-12.46-16.17-25.21-14.6-19.16-30.55-32.17-47.43-38.67l-4.47-1.72c9.33-2.86,18.13-4.31,26.32-4.31ZM255,291c-18.75,0-34-15.25-34-34s15.25-34,34-34,34,15.25,34,34-15.25,34-34,34ZM222.99,149.9c1.67-16.5,11.88-31.37,31.21-45.43,5.16-2.57,17.33-7.47,28.63-7.47h0c7.82,0,14.41,2,20.04,10.54-1.15.67-2.7,1.43-4.71,2.2l-2.59.99-2.38,1.42c-1.29.77-13,7.87-25.69,19.11-19.28,17.07-31.17,35.04-35.35,53.41-.7.23-1.39.47-2.07.72-5.78-12.9-8.16-24.8-7.07-35.5ZM156.74,289.12c-10.14,0-19.15-2.29-27.55-7-10.01-5.61-19.35-14.87-27.77-27.54-3.39-7.73-8.01-24.14-3.64-34.26.77-1.79,2.85-6.61,12.38-10.98.66,1.08,1.5,2.79,2.34,5.4l.9,2.81,1.4,2.6c.64,1.18,6.52,11.9,16.21,24.15,14.45,18.27,30.04,30.85,46.35,37.37l6.65,2.66c-9.69,3.17-18.82,4.77-27.28,4.77ZM292.57,362.81c-1.24,17.28-11.71,32.7-31.99,47.08-5.1,2.46-17.06,7.1-28.23,7.1-8.04,0-14.76-2.04-20.36-10.78,1.17-.66,2.73-1.4,4.77-2.15l2.58-.95,2.38-1.37c1.36-.78,13.62-7.98,26.79-19.44,19.97-17.37,32.04-35.74,35.89-54.64.17-.07.35-.14.52-.21,5.85,12.82,8.42,24.67,7.66,35.35Z"/><path d="M423,104c6.63,0,12-5.37,12-12s-5.37-12-12-12h-66c-6.63,0-12,5.37-12,12s5.37,12,12,12h66Z"/><path d="M480,151h-66c-6.63,0-12,5.37-12,12s5.37,12,12,12h66c6.63,0,12-5.37,12-12s-5.37-12-12-12Z"/><path d="M460,127.5c0-6.63-5.37-12-12-12h-66c-6.63,0-12,5.37-12,12s5.37,12,12,12h66c6.63,0,12-5.37,12-12Z"/></svg>