<?xml version="1.0" encoding="UTF-8"?><svg id="Icon" xmlns="http://www.w3.org/2000/svg" viewBox="0 0 512 512"><path d="M432,352c0,8.84-7.16,16-16,16s-16-7.16-16-16,7.16-16,16-16,16,7.16,16,16Z"/><path d="M384,352c0,8.84-7.16,16-16,16s-16-7.16-16-16,7.16-16,16-16,16,7.16,16,16Z"/><path d="M429.33,424.69H82.67c-27.94,0-50.67-22.73-50.67-50.67v-235.73c0-27.94,22.73-50.67,50.67-50.67h346.67c27.94,0,50.67,22.73,50.67,50.67v235.73c0,27.94-22.73,50.67-50.67,50.67ZM82.67,119.62c-10.29,0-18.67,8.37-18.67,18.67v235.73c0,10.29,8.37,18.67,18.67,18.67h346.67c10.29,0,18.67-8.37,18.67-18.67v-235.73c0-10.29-8.37-18.67-18.67-18.67H82.67Z"/><path d="M429.33,424.69H82.67c-27.94,0-50.67-22.73-50.67-50.67v-235.73c0-27.94,22.73-50.67,50.67-50.67h346.67c27.94,0,50.67,22.73,50.67,50.67v235.73c0,27.94-22.73,50.67-50.67,50.67ZM82.67,119.62c-10.29,0-18.67,8.37-18.67,18.67v235.73c0,10.29,8.37,18.67,18.67,18.67h346.67c10.29,0,18.67-8.37,18.67-18.67v-235.73c0-10.29-8.37-18.67-18.67-18.67H82.67Z"/><path d="M417.78,175.09H94.22c-8.84,0-16-7.16-16-16s7.16-16,16-16h323.56c8.84,0,16,7.16,16,16s-7.16,16-16,16Z"/><path d="M417.78,230.56H94.22c-8.84,0-16-7.16-16-16s7.16-16,16-16h323.56c8.84,0,16,7.16,16,16s-7.16,16-16,16Z"/></svg>