<?xml version="1.0" encoding="UTF-8"?><svg id="Icon" xmlns="http://www.w3.org/2000/svg" viewBox="0 0 512 512"><path d="M288,396.44c-2.39,0-4.8-.54-7.03-1.63-5.49-2.68-8.97-8.26-8.97-14.37v-248.89c0-6.11,3.48-11.69,8.97-14.37,5.49-2.68,12.03-2.01,16.85,1.74l160,124.44c3.9,3.03,6.18,7.69,6.18,12.63s-2.28,9.6-6.18,12.63l-160,124.44c-2.86,2.23-6.33,3.37-9.83,3.37Z"/><path d="M80,396.44c-2.39,0-4.8-.54-7.03-1.63-5.49-2.68-8.97-8.26-8.97-14.37v-248.89c0-6.11,3.48-11.69,8.97-14.37,5.49-2.68,12.03-2.01,16.85,1.74l160,124.44c3.9,3.03,6.18,7.69,6.18,12.63s-2.28,9.6-6.18,12.63l-160,124.44c-2.86,2.23-6.33,3.37-9.83,3.37Z"/></svg>