<?xml version="1.0" encoding="UTF-8"?><svg id="Icon" xmlns="http://www.w3.org/2000/svg" viewBox="0 0 512 512"><path d="M224,396.44c-3.49,0-6.96-1.14-9.83-3.37l-160-124.44c-3.9-3.03-6.18-7.69-6.18-12.63s2.28-9.6,6.18-12.63l160-124.44c4.82-3.75,11.37-4.43,16.85-1.74,5.49,2.69,8.97,8.26,8.97,14.37v248.89c0,6.11-3.48,11.69-8.97,14.37-2.23,1.09-4.63,1.63-7.03,1.63Z"/><path d="M432,396.44c-3.49,0-6.96-1.14-9.83-3.37l-160-124.44c-3.9-3.03-6.18-7.69-6.18-12.63s2.28-9.6,6.18-12.63l160-124.44c4.82-3.75,11.37-4.43,16.85-1.74,5.49,2.69,8.97,8.26,8.97,14.37v248.89c0,6.11-3.48,11.69-8.97,14.37-2.23,1.09-4.63,1.63-7.03,1.63Z"/></svg>