<?xml version="1.0" encoding="UTF-8"?><svg id="Icon" xmlns="http://www.w3.org/2000/svg" viewBox="0 0 512 512"><path d="M334.35,268.39c-5.96-6.53-16.08-6.99-22.6-1.04-6.53,5.96-6.99,16.08-1.04,22.6,23.12,25.34,21.32,64.77-4.03,87.9-6.53,5.96-6.99,16.08-1.04,22.6,3.16,3.46,7.48,5.22,11.82,5.22,3.85,0,7.71-1.38,10.78-4.18,38.38-35.02,41.11-94.73,6.1-133.1Z"/><path d="M356.69,226.35c-6.53,5.96-6.99,16.08-1.04,22.6,22.15,24.28,33.52,55.74,32.02,88.57-1.5,32.83-15.71,63.12-39.99,85.27-6.53,5.96-6.99,16.08-1.04,22.6,3.16,3.46,7.48,5.22,11.82,5.22,3.85,0,7.71-1.38,10.78-4.18,30.6-27.91,48.49-66.07,50.39-107.45,1.9-41.37-12.43-81.01-40.35-111.6-5.96-6.53-16.08-6.99-22.6-1.04Z"/><path d="M464,124.92c-49.87,0-77.3-10.83-91.52-19.91-10.79-6.89-15.52-13.61-17.28-16.73v-14.41c0-8.84-7.16-16-16-16s-16,7.16-16,16v11.73h-51.2v-11.73c0-8.84-7.16-16-16-16s-16,7.16-16,16v11.73h-51.2v-11.73c0-8.84-7.16-16-16-16s-16,7.16-16,16v14.41c-1.76,3.12-6.49,9.84-17.28,16.73-14.22,9.08-41.64,19.91-91.52,19.91-8.84,0-16,7.16-16,16s7.16,16,16,16c48.65,0,86.51-9.25,112.54-27.48,5.69-3.99,10.25-8.02,13.89-11.84h65.57v38.49h-51.2v-11.73c0-8.84-7.16-16-16-16s-16,7.16-16,16v27.73c0,8.84,7.16,16,16,16h67.2v100.71h-.02c-12.85,0-23.27,10.42-23.27,23.27v32.04c0,12.85,10.42,23.27,23.27,23.27h.02v78.76h-39.47c-8.84,0-16,7.16-16,16s7.16,16,16,16h110.93c8.84,0,16-7.16,16-16s-7.16-16-16-16h-39.47v-78.76h.02c12.85,0,23.27-10.42,23.27-23.27v-32.04c0-12.85-10.42-23.27-23.27-23.27h-.02v-100.71h67.2c8.84,0,16-7.16,16-16v-27.73c0-8.84-7.16-16-16-16s-16,7.16-16,16v11.73h-51.2v-38.49h65.57c3.65,3.82,8.2,7.85,13.89,11.84,26.03,18.24,63.89,27.48,112.54,27.48,8.84,0,16-7.16,16-16s-7.16-16-16-16Z"/></svg>