<?xml version="1.0" encoding="UTF-8"?><svg id="Icon" xmlns="http://www.w3.org/2000/svg" viewBox="0 0 512 512"><path d="M432.11,325.42h-45.92l32.43-51.54c4.71-7.48,2.46-17.36-5.02-22.06-7.48-4.71-17.36-2.46-22.06,5.02l-47.87,76.06c-3.1,4.93-3.28,11.16-.46,16.26,2.82,5.1,8.18,8.27,14.01,8.27h44.69l-36.13,53.21c-4.96,7.31-3.06,17.26,4.25,22.22,2.75,1.87,5.88,2.76,8.97,2.76,5.12,0,10.16-2.46,13.25-7.01l53.09-78.2c3.33-4.9,3.67-11.24.9-16.48-2.77-5.24-8.21-8.51-14.14-8.51Z"/><path d="M464,124.92c-49.87,0-77.3-10.83-91.52-19.91-10.79-6.89-15.52-13.61-17.28-16.73v-14.41c0-8.84-7.16-16-16-16s-16,7.16-16,16v11.73h-51.2v-11.73c0-8.84-7.16-16-16-16s-16,7.16-16,16v11.73h-51.2v-11.73c0-8.84-7.16-16-16-16s-16,7.16-16,16v14.41c-1.76,3.12-6.49,9.84-17.28,16.73-14.22,9.08-41.64,19.91-91.52,19.91-8.84,0-16,7.16-16,16s7.16,16,16,16c48.65,0,86.51-9.25,112.54-27.48,5.69-3.99,10.25-8.02,13.89-11.84h65.57v38.49h-51.2v-11.73c0-8.84-7.16-16-16-16s-16,7.16-16,16v27.73c0,8.84,7.16,16,16,16h67.2v258.04h-39.47c-8.84,0-16,7.16-16,16s7.16,16,16,16h110.93c8.84,0,16-7.16,16-16s-7.16-16-16-16h-39.47V188.09h67.2c8.84,0,16-7.16,16-16v-27.73c0-8.84-7.16-16-16-16s-16,7.16-16,16v11.73h-51.2v-38.49h65.57c3.65,3.82,8.2,7.85,13.89,11.84,17.62,12.34,40.67,20.56,68.81,24.59v14.34c-6.1,3.11-10.29,9.44-10.29,16.76v23.68c0,10.39,8.42,18.81,18.81,18.81h13.43c10.39,0,18.81-8.42,18.81-18.81v-23.68c0-6.69-3.5-12.55-8.77-15.89v-12.51c3.84.12,7.75.19,11.73.19,8.84,0,16-7.16,16-16s-7.16-16-16-16Z"/></svg>