<?xml version="1.0" encoding="UTF-8"?><svg id="Icon" xmlns="http://www.w3.org/2000/svg" viewBox="0 0 512 512"><path d="M369.09,446.03c-2.55,0-5.1-.61-7.45-1.84l-105.65-55.56-105.65,55.56c-5.39,2.84-11.92,2.36-16.85-1.22-4.93-3.58-7.4-9.65-6.37-15.65l20.17-117.61-85.47-83.25c-4.36-4.25-5.93-10.6-4.06-16.4,1.88-5.79,6.88-10.02,12.91-10.9l118.14-17.27,52.83-107.02c2.7-5.46,8.26-8.92,14.35-8.92s11.65,3.46,14.35,8.92l52.83,107.02,118.14,17.27c6.02.88,11.03,5.1,12.91,10.9,1.88,5.79.31,12.15-4.06,16.4l-85.47,83.25,20.17,117.61c1.03,6-1.44,12.07-6.37,15.65-2.79,2.02-6.09,3.06-9.41,3.06Z"/></svg>