<?xml version="1.0" encoding="UTF-8"?><svg id="Icon" xmlns="http://www.w3.org/2000/svg" viewBox="0 0 512 512"><path d="M369.09,446.03c-2.55,0-5.1-.61-7.45-1.84l-105.65-55.56-105.65,55.56c-5.39,2.84-11.92,2.36-16.85-1.22-4.93-3.58-7.4-9.65-6.37-15.65l20.17-117.61-85.47-83.25c-4.36-4.25-5.93-10.6-4.06-16.4,1.88-5.79,6.88-10.02,12.91-10.9l118.14-17.27,52.83-107.02c2.7-5.46,8.26-8.92,14.35-8.92s11.65,3.46,14.35,8.92l52.83,107.02,118.14,17.27c6.02.88,11.03,5.1,12.91,10.9,1.88,5.79.31,12.15-4.06,16.4l-85.47,83.25,20.17,117.61c1.03,6-1.44,12.07-6.37,15.65-2.79,2.02-6.09,3.06-9.41,3.06ZM107.37,226.15l68.29,66.51c3.77,3.68,5.5,8.97,4.61,14.17l-16.11,93.95,84.4-44.38c4.66-2.45,10.23-2.45,14.89,0l84.4,44.38-16.11-93.95c-.89-5.19.83-10.49,4.61-14.17l68.29-66.51-94.39-13.8c-5.21-.76-9.7-4.03-12.03-8.75l-42.2-85.49-42.2,85.49c-2.33,4.72-6.83,7.99-12.03,8.75l-94.39,13.8Z"/></svg>