<?xml version="1.0" encoding="UTF-8"?><svg id="Icon" xmlns="http://www.w3.org/2000/svg" viewBox="0 0 512 512"><path d="M413,354h-54.08l15.11-15.11c6.25-6.25,6.25-16.38,0-22.63-6.25-6.25-16.38-6.25-22.63,0l-42.43,42.43c-3,3-4.69,7.07-4.69,11.31s1.69,8.31,4.69,11.31l42.43,42.43c3.12,3.12,7.22,4.69,11.31,4.69s8.19-1.56,11.31-4.69c6.25-6.25,6.25-16.38,0-22.63l-15.11-15.11h54.08c8.84,0,16-7.16,16-16s-7.16-16-16-16Z"/><path d="M475.31,244.69l-42.43-42.43c-6.25-6.25-16.38-6.25-22.63,0-6.25,6.25-6.25,16.38,0,22.63l15.11,15.11h-54.08c-8.84,0-16,7.16-16,16s7.16,16,16,16h54.08l-15.11,15.11c-6.25,6.25-6.25,16.38,0,22.63,3.12,3.12,7.22,4.69,11.31,4.69s8.19-1.56,11.31-4.69l42.43-42.43c6.25-6.25,6.25-16.38,0-22.63Z"/><path d="M256,64H112c-8.84,0-16,7.16-16,16v352c0,8.84,7.16,16,16,16h144c8.84,0,16-7.16,16-16V80c0-8.84-7.16-16-16-16ZM240,96v96h-112v-96h112ZM128,416v-192h112v192h-112Z"/><rect x="168" y="128" width="32" height="32"/><path d="M208.93,306.52h-21.4l17.07-28.06c4.59-7.55,2.2-17.39-5.35-21.99-7.55-4.59-17.39-2.2-21.99,5.35l-31.87,52.38c-3.01,4.94-3.11,11.12-.28,16.16,2.83,5.04,8.17,8.16,13.95,8.16h20.23l-19.08,29.07c-4.85,7.39-2.79,17.31,4.6,22.16,2.71,1.78,5.75,2.63,8.77,2.63,5.21,0,10.32-2.54,13.39-7.22l35.35-53.85c3.23-4.92,3.5-11.21.7-16.38-2.79-5.17-8.2-8.4-14.08-8.4Z"/></svg>