<?xml version="1.0" encoding="UTF-8"?><svg id="Icon" xmlns="http://www.w3.org/2000/svg" viewBox="0 0 512 512"><path d="M70.99,248.36c1.65,4.44,3.17,8.59,4.6,12.48,11.46,31.23,17.78,48.44,34.76,65.4.83.83,1.74,1.56,2.73,2.19,37.57,23.86,87.13,37,139.54,37s102.88-13.06,142.52-36.78c2.01-1.2,3.74-2.84,5.05-4.78,1.74-2.58,3.77-5.43,5.92-8.44,11.5-16.1,27.26-38.16,34.31-69.09,6.04-26.49,7.45-53.38,7.57-71.28.12-17.89-11.48-33.32-31.04-41.28-44.98-18.3-102.6-28.38-162.25-28.4h-.16c-59.62,0-116.42,10.06-159.96,28.33-19.26,8.08-30.7,23.44-30.6,41.09.1,17.52,1.27,44.03,6.26,70.89.17.9.41,1.79.73,2.65ZM106.98,163.24c82.08-34.45,212.95-34.36,297.92.2,3.35,1.36,11.14,5.2,11.09,11.42-.11,16.3-1.38,40.71-6.77,64.38-1.69,7.43-4.07,14.26-6.83,20.6-4.2-1.77-8.5-3.47-12.88-5.07-8.29-3.03-17.49,1.23-20.52,9.53-3.04,8.3,1.23,17.49,9.53,20.52,2.66.97,5.29,1.99,7.88,3.04-2.16,3.14-4.29,6.13-6.33,8.99-1.5,2.1-2.94,4.11-4.31,6.09-71.31,40.93-177.33,40.78-244-.55-3.98-4.16-7.11-8.42-9.98-13.49,3.44-1.45,6.95-2.86,10.53-4.18,8.29-3.07,12.52-12.27,9.45-20.56-3.07-8.29-12.28-12.52-20.56-9.45-4.08,1.51-8.09,3.11-12.01,4.77-1.11-3-2.29-6.21-3.55-9.65-1.3-3.54-2.68-7.3-4.16-11.29-4.35-24.09-5.38-47.98-5.47-63.9-.03-5.89,6.87-9.67,10.98-11.4Z"/><path d="M180.88,271.06c.96,0,1.93-.09,2.91-.27,14.36-2.64,29.35-4.47,44.55-5.45,8.82-.57,15.51-8.18,14.94-16.99-.57-8.82-8.17-15.5-16.99-14.94-16.45,1.06-32.7,3.05-48.28,5.91-8.69,1.6-14.44,9.94-12.84,18.63,1.42,7.71,8.15,13.11,15.72,13.11Z"/><path d="M282.36,265.43c15.18,1.02,30.18,2.88,44.58,5.54.98.18,1.96.27,2.92.27,7.57,0,14.29-5.39,15.72-13.1,1.6-8.69-4.14-17.03-12.83-18.64-15.61-2.88-31.84-4.9-48.24-6-8.83-.61-16.44,6.07-17.04,14.89-.59,8.82,6.07,16.44,14.89,17.04Z"/><path d="M256.41,430.22h.05c23.24-.01,45.19-7.81,61.82-21.95,6.73-5.73,7.55-15.82,1.82-22.55-5.72-6.73-15.82-7.55-22.55-1.82-10.85,9.23-25.45,14.32-41.1,14.33h-.03c-15.64,0-30.23-5.07-41.06-14.26-.07-.06-.18-.16-.26-.22-6.82-5.62-16.9-4.66-22.52,2.16-5.59,6.78-4.67,16.79,2.05,22.43,16.64,14.12,38.58,21.89,61.8,21.89Z"/><path d="M158.81,421.28c-5.91,6.57-5.39,16.68,1.18,22.6,25.86,23.29,60.12,36.12,96.49,36.12s70.63-12.83,96.49-36.12c6.57-5.91,7.09-16.03,1.18-22.6-5.91-6.57-16.03-7.09-22.6-1.18-41.39,37.29-108.75,37.29-150.14,0-6.56-5.91-16.68-5.39-22.6,1.18Z"/></svg>