<?xml version="1.0" encoding="UTF-8"?><svg id="Icon" xmlns="http://www.w3.org/2000/svg" viewBox="0 0 512 512"><path d="M256,448h0c89.39,0,162.12-70.83,162.12-157.89,0-43.16-12.94-80.91-39.56-115.4-4.08-5.28-10.21-8.3-16.83-8.3-13.41,0-21.43,10.73-21.43,21.09,0,2.45-.11,4.77-.33,6.98-4.03-18.64-9.92-35.14-17.8-49.92-20.55-38.59-53.14-66.1-94.24-79.55-.7-.23-1.42-.41-2.15-.54-7.97-1.43-15.41.59-20.25,5.46-2.7,2.71-5.93,7.57-6,15.38,0,.05,0,.1,0,.15,0,.48.02.96.06,1.43.08.94.19,2.61.29,4.51.75,14.18.28,29.21-1.35,43.46-1.4,12.21-3.76,23.67-6.97,33.92-5.94-9.35-14.18-18.83-26.22-30.52-4.02-3.91-9.3-6.07-14.88-6.07-10.73,0-19.84,7.91-21.19,18.4-3.58,27.73-9.16,45.82-19.57,73.58-4.22,11.23-5.1,13.64-6.83,18.72-6.13,17.98-8.81,32.03-8.97,46.98,0,.06,0,.12,0,.17,0,88.55,71.21,157.93,162.12,157.95Z"/></svg>