<?xml version="1.0" encoding="UTF-8"?><svg id="Icon" xmlns="http://www.w3.org/2000/svg" viewBox="0 0 512 512"><path d="M432,76.03H80c-8.84,0-16,7.16-16,16v327.93c0,8.84,7.16,16,16,16h352c8.84,0,16-7.16,16-16V92.03c0-8.84-7.16-16-16-16ZM96,178.74h320v127.45H96v-127.45ZM416,108.03v38.7H96v-38.7h320ZM96,403.97v-65.78h320v65.78H96Z"/><path d="M224.41,185.85h-103.79c-8.84,0-16,7.16-16,16v58.67c0,8.84,7.16,16,16,16h103.79c8.84,0,16-7.16,16-16v-58.67c0-8.84-7.16-16-16-16ZM208.41,244.51h-71.79v-26.67h71.79v26.67Z"/><circle cx="278.56" cy="231.18" r="22.56" transform="translate(-67.26 124.2) rotate(-22.5)"/></svg>