<?xml version="1.0" encoding="UTF-8"?><svg id="Icon" xmlns="http://www.w3.org/2000/svg" viewBox="0 0 512 512"><path d="M307.33,280.85c-14.2-15.37-31.7-24.86-48.41-33.25-4.54-2.28-9.47-3.41-14.36-3.41-6.95,0-13.85,2.26-19.56,6.67-9.74,7.52-14.3,19.96-11.74,31.99,1.18,5.54.97,7.34-11.93,20.15-5.38,5.35-11.49,11.41-16.62,18.9-7.48,10.92-11.28,22.66-11.28,34.89,0,42.24,23.75,69.1,65.15,73.69,1.19.13,2.37.2,3.54.2,8.71,0,16.93-3.56,22.87-9.63,4.57,2.36,9.63,3.58,14.72,3.58,5.5,0,11.03-1.41,16.03-4.31,24.07-13.95,37.88-39.14,37.88-69.13,0-.22,0-.43,0-.65-.57-27.97-9.41-51.42-26.28-69.7ZM279.7,392.63c1.95-3.41,3.08-7.59,3.08-12.5-.43-21.55-13.33-29.13-27.62-36.3,4.34,20.38-18.93,24.73-18.93,39.02,0,7.64,2.13,12.66,5.88,15.84-22.57-2.5-36.68-13.53-36.68-41.88s48.09-38.49,39.12-80.61c29.52,14.83,56.16,30.48,57.06,75,0,19.74-8.73,33.8-21.92,41.44Z"/><path d="M477.32,103.13c-2.97-4.46-7.96-7.13-13.32-7.13H48c-5.35,0-10.35,2.68-13.32,7.13s-3.51,10.1-1.44,15.04l26.67,63.78c2.49,5.95,8.31,9.83,14.76,9.83h21.33v240.22c0,8.84,7.16,16,16,16s16-7.16,16-16v-240.22h256v240.22c0,8.84,7.16,16,16,16s16-7.16,16-16v-240.22h21.33c6.45,0,12.27-3.88,14.76-9.83l26.67-63.78c2.06-4.94,1.52-10.58-1.44-15.04ZM426.68,159.78H85.32l-13.29-31.78h367.94l-13.29,31.78Z"/></svg>