<?xml version="1.0" encoding="UTF-8"?><svg id="Icon" xmlns="http://www.w3.org/2000/svg" viewBox="0 0 512 512"><path d="M144,144c26.47,0,48-21.53,48-48s-21.53-48-48-48-48,21.53-48,48,21.53,48,48,48ZM144,80c8.82,0,16,7.18,16,16s-7.18,16-16,16-16-7.18-16-16,7.18-16,16-16Z"/><path d="M180.08,160h-72.16c-24.22,0-43.92,19.72-43.92,43.95v81.75c0,16.76,9.7,32.01,24.58,39.34v88.51c0,19,15.45,34.46,34.44,34.46h42.19c18.99,0,34.44-15.46,34.44-34.46v-88.53c14.74-7.36,24.36-22.61,24.36-39.31v-81.75c0-24.23-19.7-43.95-43.92-43.95ZM192,285.7c0,4.89-3.21,9.49-7.91,11.22-9.84,3.69-16.45,13.22-16.45,23.71v92.91c0,1.33-1.12,2.46-2.44,2.46h-42.19c-1.32,0-2.44-1.12-2.44-2.46v-92.91c0-10.49-6.61-20.02-16.45-23.71l-.19-.07c-4.75-1.72-7.95-6.2-7.95-11.15v-81.75c0-6.59,5.35-11.95,11.92-11.95h72.16c6.57,0,11.92,5.36,11.92,11.95v81.75Z"/><path d="M448,272h-32v-18.91c0-16.04-13.91-29.09-31-29.09h-50c-17.09,0-31,13.05-31,29.09v18.91h-32c-17.67,0-32,14.33-32,32v112c0,17.67,14.33,32,32,32h176c17.67,0,32-14.33,32-32v-112c0-17.67-14.33-32-32-32ZM336,256h48v16h-48v-16ZM448,416h-176v-112h176v112Z"/><path d="M384,341.97h-8v-5.97c0-8.84-7.16-16-16-16s-16,7.16-16,16v5.97h-8c-8.84,0-16,7.16-16,16s7.16,16,16,16h8v10.03c0,8.84,7.16,16,16,16s16-7.16,16-16v-10.03h8c8.84,0,16-7.16,16-16s-7.16-16-16-16Z"/></svg>