<?xml version="1.0" encoding="UTF-8"?><svg id="Icon" xmlns="http://www.w3.org/2000/svg" viewBox="0 0 512 512"><path d="M396.8,144h-54.4v-28.8c0-28.23-22.97-51.2-51.2-51.2h-70.4c-28.23,0-51.2,22.97-51.2,51.2v28.8h-54.4c-28.23,0-51.2,23.07-51.2,51.43v185.14c0,28.36,22.97,51.43,51.2,51.43h281.6c28.23,0,51.2-23.07,51.2-51.43v-185.14c0-28.36-22.97-51.43-51.2-51.43ZM201.6,115.2c0-10.59,8.61-19.2,19.2-19.2h70.4c10.59,0,19.2,8.61,19.2,19.2v28.8h-108.8v-28.8ZM416,380.57c0,10.71-8.61,19.43-19.2,19.43H115.2c-10.59,0-19.2-8.72-19.2-19.43v-185.14c0-10.71,8.61-19.43,19.2-19.43h281.6c10.59,0,19.2,8.72,19.2,19.43v185.14Z"/><path d="M332,256h-44v-44c0-2.21-1.79-4-4-4h-56c-2.21,0-4,1.79-4,4v44h-44c-2.21,0-4,1.79-4,4v56c0,2.21,1.79,4,4,4h44v44c0,2.21,1.79,4,4,4h56c2.21,0,4-1.79,4-4v-44h44c2.21,0,4-1.79,4-4v-56c0-2.21-1.79-4-4-4Z"/></svg>