<?xml version="1.0" encoding="UTF-8"?><svg id="Icon" xmlns="http://www.w3.org/2000/svg" viewBox="0 0 512 512"><path d="M410.07,274.18c-4.04,0-7.8,1.25-10.88,3.38-1.61-4.24-3.44-8.28-5.5-12.14-12.53-23.53-32.42-40.31-57.5-48.51-.7-.23-1.42-.41-2.15-.54-6.78-1.22-13.27.66-17.61,5.02-3.45,3.46-5.38,8.28-5.43,13.56,0,.05,0,.1,0,.15,0,.48.02.96.06,1.43.05.51.09,1.33.14,2.31.41,7.67.15,15.81-.73,23.54-.17,1.51-.37,3.01-.6,4.47-2.05-2.23-4.25-4.44-6.58-6.71-3.58-3.48-8.29-5.4-13.27-5.4-9.56,0-17.68,7.08-18.89,16.48-1.96,15.17-4.89,24.69-10.74,40.26-2.43,6.48-2.94,7.87-3.95,10.83-3.68,10.8-5.37,19.7-5.47,28.84,0,.06,0,.12,0,.18,0,54.19,43.5,96.64,99.02,96.65h0c54.6,0,99.02-43.34,99.02-96.62,0-26.11-7.82-48.94-23.92-69.8-3.64-4.7-9.11-7.4-15.03-7.4ZM350,416c-37.55-.01-66.97-28.36-67.03-64.56.07-5.72,1.16-11.18,3.76-18.8.87-2.55,1.3-3.73,3.62-9.9,2.35-6.26,4.33-11.83,6.02-17.26l1.91,5.25c2.2,6.04,7.79,10.18,14.2,10.51,6.43.32,12.41-3.2,15.22-8.98l4.39-9.02c5.06-10.39,8.58-23.26,10.17-37.22.4-3.45.69-6.97.88-10.51,9.23,6.19,16.8,14.62,22.3,24.96,5.19,9.73,8.45,21.57,9.97,36.19l1.11,10.71c.68,6.53,5.28,11.99,11.61,13.75,6.33,1.77,13.09-.51,17.06-5.75l6.5-8.58c.41-.55.82-1.1,1.21-1.65,2.77,8.19,4.11,16.84,4.11,26.23,0,35.63-30.07,64.62-67.02,64.62Z"/><path d="M185.67,213.13c-14.45,19-23.27,40.4-26.73,64.01-.75,5.16,1.95,9.77,6.52,11.62,4.61,1.87,9.88.49,12.68-3.85,1.27-1.96,1.88-4.5,2.28-6.86,4.16-24.32,14.67-45.45,31.86-63.11,18.39-18.88,40.77-30.22,66.81-34.38,6.96-1.11,11.02-6.37,9.92-12.57-1.09-6.18-6.41-9.63-13.27-8.56-30.01,4.69-55.74,17.84-79.52,41.03-2.3,2.75-6.66,7.53-10.57,12.66Z"/><path d="M281.85,201.85c-20.67,3.29-38.38,12.42-53.43,27.1-14.48,14.86-23.63,32.57-26.91,53.24-1.08,6.8,2.47,12.22,8.58,13.25,6.14,1.03,11.31-2.95,12.52-9.64,6.12-33.85,29.01-56.74,62.84-62.85,6.66-1.2,10.66-6.4,9.64-12.51-1.03-6.12-6.45-9.67-13.24-8.59Z"/><path d="M68.89,168.97c4,3.24,39.59,31.87,58.64,40.51,3.77,1.71,7.62,2.55,11.34,2.55,6.07,0,11.77-2.24,16.12-6.59l49.95-49.95c6.92-6.92,8.49-17.38,4.1-27.31-8.28-18.74-36.16-55.34-39.31-59.45l-.21-.27c-4.01-5-10-8.08-16.45-8.43-6.62-.37-13.15,2.15-17.9,6.89l-67.75,67.75c-4.75,4.75-7.26,11.27-6.89,17.9.36,6.45,3.43,12.44,8.36,16.39ZM150.68,96.67c8.72,11.82,21.31,29.59,27.2,40.62l-41.05,41.05c-11.04-6.12-28.41-19.05-39.86-27.96l53.71-53.71Z"/></svg>