<?xml version="1.0" encoding="UTF-8"?><svg id="Icon" xmlns="http://www.w3.org/2000/svg" viewBox="0 0 512 512"><path d="M432,448H114.75c-27.98,0-50.75-22.77-50.75-50.75s22.77-50.75,50.75-50.75h282.5c10.34,0,18.75-8.41,18.75-18.75s-8.41-18.75-18.75-18.75H80c-8.84,0-16-7.16-16-16s7.16-16,16-16h317.25c27.98,0,50.75,22.77,50.75,50.75s-22.77,50.75-50.75,50.75H114.75c-10.34,0-18.75,8.41-18.75,18.75s8.41,18.75,18.75,18.75h317.25c8.84,0,16,7.16,16,16s-7.16,16-16,16Z"/><path d="M170.88,266.08c-3.06,0-6.16-.88-8.9-2.71-7.34-4.92-9.3-14.86-4.37-22.2,8.13-12.11,11.91-21.82,11.91-30.55,0-8.72-3.79-18.43-11.91-30.54-13.14-19.53-19.26-36.91-19.26-54.66,0-17.75,6.12-35.12,19.27-54.67,4.93-7.33,14.87-9.28,22.21-4.35,7.33,4.93,9.28,14.87,4.35,22.21-9.43,14.02-13.82,25.72-13.82,36.81,0,11.09,4.39,22.79,13.82,36.81,11.84,17.64,17.35,33.01,17.35,48.38,0,15.37-5.51,30.74-17.34,48.37-3.09,4.6-8.15,7.09-13.3,7.09Z"/><path d="M256.94,266.08c-3.06,0-6.16-.88-8.9-2.71-7.34-4.92-9.3-14.86-4.37-22.2,8.13-12.12,11.91-21.82,11.91-30.55,0-8.72-3.79-18.43-11.91-30.54-13.14-19.53-19.26-36.91-19.26-54.66,0-17.75,6.12-35.12,19.27-54.67,4.93-7.33,14.87-9.28,22.21-4.35s9.28,14.87,4.35,22.21c-9.43,14.02-13.82,25.72-13.82,36.81,0,11.09,4.39,22.79,13.82,36.81,11.84,17.64,17.35,33.01,17.35,48.38,0,15.37-5.51,30.74-17.34,48.37-3.09,4.6-8.15,7.09-13.3,7.09Z"/><path d="M341.88,266.08c-3.06,0-6.16-.88-8.9-2.71-7.34-4.92-9.3-14.86-4.37-22.2,8.13-12.11,11.91-21.82,11.91-30.55,0-8.72-3.79-18.43-11.91-30.54-13.14-19.53-19.26-36.91-19.26-54.66,0-17.75,6.12-35.12,19.27-54.67,4.93-7.33,14.87-9.28,22.21-4.35,7.33,4.93,9.28,14.87,4.35,22.21-9.43,14.02-13.82,25.72-13.82,36.81,0,11.09,4.39,22.79,13.82,36.81,11.84,17.64,17.35,33.01,17.35,48.38,0,15.37-5.51,30.74-17.34,48.37-3.09,4.6-8.15,7.09-13.3,7.09Z"/></svg>