<?xml version="1.0" encoding="UTF-8"?><svg id="Icon" xmlns="http://www.w3.org/2000/svg" viewBox="0 0 512 512"><path d="M432,208c8.84,0,16-7.16,16-16v-107.49c0-11.31-9.2-20.51-20.51-20.51H84.51c-11.31,0-20.51,9.2-20.51,20.51v342.97c0,11.31,9.2,20.51,20.51,20.51h327.85c20.65,0,35.64-10.69,35.64-25.42v-118.58c0-8.84-7.16-16-16-16s-16,7.16-16,16v111.73c-1.01.16-2.23.27-3.64.27h-108.36v-112c0-8.84-7.16-16-16-16s-16,7.16-16,16v112h-80v-32c0-8.84-7.16-16-16-16s-16,7.16-16,16v32h-64v-144h64v32c0,8.84,7.16,16,16,16s16-7.16,16-16v-96c0-8.84-7.16-16-16-16s-16,7.16-16,16v32h-64V96h64v32c0,8.84,7.16,16,16,16s16-7.16,16-16v-32h80v96c0,8.84,7.16,16,16,16h80c8.84,0,16-7.16,16-16s-7.16-16-16-16h-64v-80h112v96c0,8.84,7.16,16,16,16Z"/></svg>