<?xml version="1.0" encoding="UTF-8"?><svg id="Icon" xmlns="http://www.w3.org/2000/svg" viewBox="0 0 512 512"><path d="M360.25,448c-27.98,0-50.75-22.77-50.75-50.75V114.75c0-10.34-8.41-18.75-18.75-18.75s-18.75,8.41-18.75,18.75v282.5c0,27.98-22.77,50.75-50.75,50.75s-50.75-22.77-50.75-50.75V114.75c0-10.34-8.41-18.75-18.75-18.75s-18.75,8.41-18.75,18.75v282.5c0,8.84-7.16,16-16,16s-16-7.16-16-16V114.75c0-27.98,22.77-50.75,50.75-50.75s50.75,22.77,50.75,50.75v282.5c0,10.34,8.41,18.75,18.75,18.75s18.75-8.41,18.75-18.75V114.75c0-27.98,22.77-50.75,50.75-50.75s50.75,22.77,50.75,50.75v282.5c0,10.34,8.41,18.75,18.75,18.75s18.75-8.41,18.75-18.75V114.75c0-8.84,7.16-16,16-16s16,7.16,16,16v282.5c0,27.98-22.77,50.75-50.75,50.75Z"/></svg>