<?xml version="1.0" encoding="UTF-8"?><svg id="Icon" xmlns="http://www.w3.org/2000/svg" viewBox="0 0 512 512"><path d="M184.2,294.33c-2.38,0-4.74-.53-6.92-1.57l-104.2-49.96c-7.97-3.82-11.33-13.38-7.51-21.34,3.82-7.97,13.38-11.33,21.34-7.51l98.73,47.34,241.97-68.94c8.5-2.42,17.35,2.51,19.77,11,2.42,8.5-2.51,17.35-11,19.77l-247.8,70.6c-1.44.41-2.91.61-4.38.61Z"/><path d="M184.2,371c-2.38,0-4.74-.53-6.92-1.57l-104.2-49.96c-7.97-3.82-11.33-13.38-7.51-21.34,3.82-7.97,13.38-11.33,21.34-7.51l98.73,47.34,241.97-68.94c8.5-2.42,17.35,2.51,19.77,11,2.42,8.5-2.51,17.35-11,19.77l-247.8,70.6c-1.44.41-2.91.61-4.38.61Z"/><path d="M184.2,447.67c-2.38,0-4.74-.53-6.92-1.57l-104.2-49.96c-7.97-3.82-11.33-13.38-7.51-21.34,3.82-7.97,13.38-11.33,21.34-7.51l98.73,47.34,241.97-68.94c8.5-2.42,17.35,2.51,19.77,11,2.42,8.5-2.51,17.35-11,19.77l-247.8,70.6c-1.44.41-2.91.61-4.38.61Z"/><path d="M447.99,130.91c.23-6.18-3.14-12.2-9.07-15.04l-104.2-49.96c-3.52-1.69-7.54-2.03-11.3-.96l-247.8,70.6c-7.08,2.02-11.67,8.5-11.6,15.53-.24,6.18,3.14,12.21,9.07,15.05l104.2,49.96c2.18,1.04,4.54,1.57,6.92,1.57,1.47,0,2.95-.2,4.38-.61l247.8-70.6c7.08-2.02,11.67-8.51,11.6-15.53Z"/></svg>