<?xml version="1.0" encoding="UTF-8"?><svg id="Icon" xmlns="http://www.w3.org/2000/svg" viewBox="0 0 512 512"><path d="M400,144h-146.49c-4.25,0-8.26-1.65-11.28-4.65l-29.59-29.4c-9.05-9-21.07-13.95-33.83-13.95h-66.81c-26.47,0-48,21.53-48,48v224c0,2.88.27,5.7.76,8.45-.14,3.5.87,6.92,2.83,9.75,7.19,17.47,24.38,29.8,44.41,29.8h287.41c.08,0,.15-.01.23-.01.12,0,.24.02.37.02,6.54,0,12.67-4.04,15.04-10.54l48.39-133.06c5.35-14.7,3.18-31.13-5.79-43.94-2.72-3.89-5.98-7.3-9.63-10.16v-26.3c0-26.47-21.53-48-48-48ZM112,128h66.81c4.25,0,8.26,1.65,11.28,4.65l29.59,29.4c9.05,9,21.07,13.95,33.83,13.95h146.49c8.82,0,16,7.18,16,16v16h-250.09c-19.58,0-37.51,12.22-44.67,30.44l-25.24,60.5v-154.94c0-8.82,7.18-16,16-16Z"/></svg>