<?xml version="1.0" encoding="UTF-8"?><svg id="Icon" xmlns="http://www.w3.org/2000/svg" viewBox="0 0 512 512"><path d="M112,416h288c26.47,0,48-21.53,48-48v-176c0-26.47-21.53-48-48-48h-146.49c-4.25,0-8.26-1.65-11.28-4.65l-29.59-29.4c-9.05-9-21.07-13.95-33.83-13.95h-66.81c-26.47,0-48,21.53-48,48v224c0,26.47,21.53,48,48,48ZM96,144c0-8.82,7.18-16,16-16h66.81c4.25,0,8.26,1.65,11.28,4.65l29.59,29.4c9.05,9,21.07,13.95,33.83,13.95h146.49c8.82,0,16,7.18,16,16v176c0,8.82-7.18,16-16,16H112c-8.82,0-16-7.18-16-16v-224Z"/></svg>