<?xml version="1.0" encoding="UTF-8"?><svg id="Icon" xmlns="http://www.w3.org/2000/svg" viewBox="0 0 512 512"><path d="M465.92,227.37l-85.76-80.86c-12.66-11.94-29.22-18.52-46.63-18.52H48c-8.84,0-16,7.16-16,16v191.89c0,8.84,7.16,16,16,16h26.04c6.87,23.16,28.33,40.11,53.69,40.11s46.76-16.89,53.66-40h148.95c6.9,23.11,28.34,40,53.66,40s46.82-16.95,53.69-40.11h26.31c8.84,0,16-7.16,16-16v-75.89c0-12.3-5.13-24.19-14.08-32.63ZM398.64,207.92h-46.64v-42.81c2.21,1.33,4.29,2.89,6.2,4.69l40.43,38.12ZM235.94,160h30.16c-.05.53-.08,1.06-.08,1.6,0,8.27-6.73,15-15,15s-15-6.73-15-15c0-.54-.03-1.08-.08-1.6ZM204.03,161.6c0,8.27-6.73,15-15,15s-15-6.73-15-15c0-.54-.03-1.08-.08-1.6h30.16c-.05.53-.08,1.06-.08,1.6ZM142.03,161.6c0,8.27-6.73,15-15,15s-15-6.73-15-15c0-.17-.02-.33-.03-.5v-1.1h30.11c-.05.53-.08,1.06-.08,1.6ZM112,206.13c4.72,1.6,9.77,2.48,15.03,2.48,11.87,0,22.72-4.43,31-11.72,8.28,7.28,19.13,11.72,31,11.72s22.72-4.43,31-11.72c8.28,7.28,19.13,11.72,31,11.72,7.54,0,14.66-1.79,20.97-4.96v36.35H112v-33.87ZM127.73,360c-13.23,0-24-10.77-24-24s10.77-24,24-24,24,10.77,24,24-10.77,24-24,24ZM384,360c-13.23,0-24-10.77-24-24s10.77-24,24-24,24,10.77,24,24-10.77,24-24,24ZM448,319.89h-10.37c-6.94-23.05-28.35-39.89-53.63-39.89s-46.76,16.89-53.66,40h-148.95c-6.9-23.11-28.34-40-53.66-40s-46.69,16.84-53.63,39.89h-10.11v-159.89h16v96c0,8.84,7.16,16,16,16h192c8.84,0,16-7.16,16-16v-96h16v64c0,8.84,7.16,16,16,16,.55,0,1.1-.03,1.64-.08h94.94l11.39,10.74c2.56,2.42,4.03,5.82,4.03,9.35v59.89Z"/></svg>