<?xml version="1.0" encoding="UTF-8"?><svg id="Icon" xmlns="http://www.w3.org/2000/svg" viewBox="0 0 512 512"><path d="M43.7,415.41c1.43.4,2.87.59,4.3.59,5.79,0,11.28-3.16,14.11-8.47,44.32-83.05,179.97-93.06,225.88-94.02v54.49c0,6.15,3.53,11.76,9.07,14.42,5.54,2.66,12.12,1.92,16.93-1.93l160-128c3.8-3.04,6.01-7.64,6-12.51,0-4.86-2.22-9.46-6.02-12.5l-160-127.63c-4.8-3.83-11.38-4.57-16.92-1.91-5.54,2.67-9.06,8.27-9.06,14.42v53.71c-51.85,2.04-97.22,14.1-135.04,35.93-33.7,19.45-61.35,46.53-82.19,80.51-35.18,57.35-38.61,114.23-38.74,116.62-.4,7.49,4.45,14.26,11.68,16.27Z"/></svg>