<?xml version="1.0" encoding="UTF-8"?><svg id="Icon" xmlns="http://www.w3.org/2000/svg" viewBox="0 0 512 512"><path d="M448,272h-182v-44.84c0-51.65,31.06-75.21,59.19-75.21,15.03,0,29.84,6.3,40.32,17.84,11.49,12.66,17.94,29.66,18.78,52.12.05,1.4,1.19,2.52,2.59,2.51l17.95-.04c1.46,0,2.65-1.21,2.6-2.68-.96-27.63-9.52-50.6-24.82-67.46-14.91-16.43-35.09-25.41-56.72-25.41s-41.92,9.05-56.83,25.48c-.18.2-.37.41-.57.61-1.61,1.71-4.49.55-4.49-1.8v-46.5c0-33.38,20.25-48.58,38.26-48.58,9.58,0,19.35,4.22,26.04,11.57,7.13,7.85,11.29,18.75,12.09,32.41.08,1.37,1.24,2.44,2.62,2.43l14.23-.13c1.49-.01,2.66-1.28,2.58-2.76-2.22-40.56-29.31-62.76-56.37-62.76-17.42,0-34.85,8.82-45.65,26.1-1.01,1.61-3.38,1.61-4.38-.01-10.66-17.27-27.9-26.04-45.32-26.04-27.06,0-53.71,22.17-55.9,62.72-.08,1.49,1.09,2.75,2.58,2.76l14.24.13c1.38.01,2.54-1.06,2.62-2.44,1.81-30.48,20.31-43.8,37.42-43.8,9.57,0,18.22,3.96,24.9,11.3,7.98,8.77,12.06,21.54,12.06,37.09v45.92c0,2.38-2.93,3.51-4.53,1.75h0c-14.91-16.43-34.04-25.5-55.68-25.5s-41.65,9-56.56,25.43c-15.3,16.86-23.72,39.83-24.66,67.46-.05,1.46,1.14,2.67,2.6,2.67l17.94.04c1.41,0,2.55-1.12,2.61-2.52,1.94-47.51,31.03-70,58.21-70,15.03,0,28.95,6.42,39.42,17.96,12.34,13.6,18.65,33.42,18.65,57.3v44.84H64c-8.84,0-16,7.16-16,16,0,20.69,15.65,45.22,42.93,67.32,18.53,15.01,40.76,27.6,64.68,36.84-14.81,12.09-23.24,26.09-23.24,39.84,0,8.84,7.16,16,16,16h215.29c8.84,0,16-7.16,16-16,0-13.75-8.43-27.75-23.24-39.84,23.92-9.23,46.15-21.83,64.68-36.84,27.28-22.1,42.93-46.63,42.93-67.32,0-8.84-7.16-16-16-16ZM400.93,330.45c-23.84,19.31-54.97,34.05-87.64,41.5-6.79,1.55-11.8,7.31-12.39,14.26-.58,6.94,3.39,13.47,9.83,16.13,10.44,4.32,18.43,9.12,24.27,13.66h-158c5.83-4.54,13.83-9.34,24.27-13.66,6.44-2.66,10.41-9.19,9.83-16.13-.58-6.94-5.59-12.71-12.39-14.26-32.67-7.45-63.8-22.19-87.64-41.5-12.37-10.02-20.16-19.09-24.85-26.45h339.56c-4.69,7.36-12.48,16.44-24.85,26.45Z"/></svg>