<?xml version="1.0" encoding="UTF-8"?><svg id="Icon" xmlns="http://www.w3.org/2000/svg" viewBox="0 0 512 512"><path d="M363.64,448h-215.29c-8.84,0-16-7.16-16-16,0-13.75,8.43-27.75,23.24-39.84-23.92-9.23-46.15-21.83-64.68-36.84-27.28-22.1-42.93-46.63-42.93-67.32,0-8.84,7.16-16,16-16h384c8.84,0,16,7.16,16,16,0,20.69-15.65,45.22-42.93,67.32-18.53,15.01-40.76,27.6-64.68,36.84,14.81,12.09,23.24,26.09,23.24,39.84,0,8.84-7.16,16-16,16ZM177,416h158c-5.83-4.54-13.83-9.34-24.27-13.66-6.44-2.66-10.41-9.19-9.83-16.13.58-6.94,5.59-12.71,12.39-14.26,32.67-7.45,63.8-22.19,87.64-41.5,12.37-10.02,20.16-19.09,24.85-26.45H86.22c4.69,7.36,12.48,16.44,24.85,26.45,23.84,19.31,54.97,34.05,87.64,41.5,6.79,1.55,11.8,7.31,12.39,14.26.58,6.94-3.39,13.47-9.83,16.13-10.44,4.32-18.43,9.12-24.27,13.66Z"/></svg>