<?xml version="1.0" encoding="UTF-8"?><svg id="Icon" xmlns="http://www.w3.org/2000/svg" viewBox="0 0 512 512"><path d="M278.84,446.76v-14.53l46.4-63.28h-43.97v-16.43h70.51v15.26l-45.95,62.56h47.4v16.43h-74.39Z"/><path d="M168.79,446.76v-127.92h22.39v53.54h53.62v-53.54h22.39v127.92h-22.39v-56.33h-53.62v56.33h-22.39Z"/><path d="M414.39,97.61c-42.31-42.31-98.56-65.61-158.39-65.61s-116.08,23.3-158.39,65.61c-42.31,42.31-65.61,98.56-65.61,158.39,0,54.92,20.07,107.75,56.53,148.76,3.16,3.56,7.55,5.37,11.96,5.37,3.78,0,7.58-1.33,10.62-4.04,6.6-5.87,7.2-15.98,1.33-22.59-31.24-35.15-48.44-80.43-48.44-127.5,0-105.87,86.13-192,192-192s192,86.13,192,192c0,46.62-16.91,91.58-47.63,126.58-5.83,6.64-5.17,16.75,1.47,22.58,6.64,5.83,16.75,5.17,22.58-1.47,35.84-40.84,55.58-93.29,55.58-147.68,0-59.83-23.3-116.08-65.61-158.39Z"/><path d="M324.69,164.69l-60.4,60.4c-2.64-.71-5.42-1.09-8.28-1.09-17.67,0-32,14.33-32,32s14.33,32,32,32,32-14.33,32-32c0-2.87-.38-5.64-1.09-8.28l60.4-60.4c6.25-6.25,6.25-16.38,0-22.63-6.25-6.25-16.38-6.25-22.63,0Z"/></svg>