<?xml version="1.0" encoding="UTF-8"?><svg id="Icon" xmlns="http://www.w3.org/2000/svg" viewBox="0 0 512 512"><polygon points="306.5 173.5 303.64 161.62 282.19 166.78 268.8 159.07 282.18 151.36 303.64 156.52 306.5 144.64 297.59 142.5 314.75 132.62 308.66 122.03 290.67 132.38 293.65 122.29 281.93 118.82 275.74 141.22 262.95 148.82 262.95 130.71 278.22 114.12 269.56 105.72 262.95 112.93 262.95 96 250.43 96 250.43 112.94 243.33 105.72 234.59 114.12 250.43 130.71 250.43 148.18 236.27 140.19 229.81 118.83 218.03 122.29 220.68 131.36 203.34 121.39 197.24 131.98 215.07 142.25 205.12 144.64 207.97 156.52 230.47 151.11 244.3 159.07 230.46 167.03 207.97 161.62 205.12 173.5 215.06 175.89 197.23 186.15 203.33 196.74 220.64 186.77 217.96 195.85 229.68 199.31 236.28 177.93 250.43 169.95 250.43 185.06 234.45 201.64 243.46 210.05 250.43 202.83 250.43 224 262.95 224 262.95 202.84 269.35 210.04 278.43 201.65 262.95 185.06 262.95 169.31 275.74 176.91 282.14 199.31 293.76 195.85 290.72 185.75 308.69 196.1 314.77 185.51 297.61 175.64 306.5 173.5"/><path d="M368,480h-224c-26.47,0-48-21.53-48-48V80c0-26.47,21.53-48,48-48h224c26.47,0,48,21.53,48,48v352c0,26.47-21.53,48-48,48ZM144,64c-8.82,0-16,7.18-16,16v352c0,8.82,7.18,16,16,16h224c8.82,0,16-7.18,16-16V80c0-8.82-7.18-16-16-16h-224Z"/><path d="M160,272c-8.84,0-16-7.16-16-16v-48c0-8.84,7.16-16,16-16s16,7.16,16,16v48c0,8.84-7.16,16-16,16Z"/></svg>