<?xml version="1.0" encoding="UTF-8"?><svg id="Icon" xmlns="http://www.w3.org/2000/svg" viewBox="0 0 512 512"><path d="M448,288H64c-8.84,0-16-7.16-16-16v-32c0-6.06,3.42-11.6,8.84-14.31l119.16-59.58v-86.11c0-8.84,7.16-16,16-16h128c8.84,0,16,7.16,16,16v86.11l119.16,59.58c5.42,2.71,8.84,8.25,8.84,14.31v32c0,8.84-7.16,16-16,16ZM80,256h352v-6.11l-119.16-59.58c-5.42-2.71-8.84-8.25-8.84-14.31v-80h-96v80c0,6.06-3.42,11.6-8.84,14.31l-119.16,59.58v6.11Z"/><path d="M198.11,451.16c-1.83,0-3.6-.37-5.28-1.11-6.62-2.94-9.63-10.69-6.71-17.3,4.9-11.11,7.25-16.66,7.25-21.41s-2.35-10.3-7.25-21.41c-5.96-13.52-9.9-22.45-10.11-32.58,0-.29,0-.57,0-.83,0-9.8,3.65-18.96,10.39-32.43,2.24-4.47,6.73-7.25,11.73-7.25,2.02,0,4.04.48,5.86,1.38,6.47,3.24,9.1,11.13,5.87,17.59-5.7,11.39-7.7,16.24-7.63,20.82.08,4.99,2.86,11.29,7.9,22.73,5.88,13.35,9.46,22.17,9.46,31.99s-3.57,18.64-9.46,31.99c-2.1,4.76-6.81,7.83-12.01,7.83Z"/><path d="M256.32,451.16c-1.83,0-3.6-.37-5.28-1.11-6.62-2.94-9.63-10.69-6.71-17.3,4.9-11.11,7.25-16.66,7.25-21.41s-2.35-10.3-7.25-21.41c-5.96-13.52-9.9-22.45-10.11-32.58,0-.29,0-.57,0-.83,0-9.8,3.65-18.96,10.39-32.43,2.24-4.47,6.73-7.25,11.73-7.25,2.02,0,4.04.48,5.86,1.38,6.47,3.24,9.1,11.13,5.87,17.59-5.7,11.39-7.7,16.24-7.63,20.82.08,4.99,2.86,11.29,7.9,22.73,5.88,13.35,9.46,22.17,9.46,31.99s-3.57,18.64-9.46,31.99c-2.1,4.76-6.81,7.83-12.01,7.83Z"/><path d="M314.54,451.16c-1.83,0-3.6-.37-5.28-1.11-6.62-2.94-9.63-10.69-6.71-17.3,4.9-11.11,7.25-16.66,7.25-21.41s-2.35-10.3-7.25-21.41c-5.96-13.52-9.9-22.45-10.11-32.58,0-.29,0-.57,0-.83,0-9.8,3.65-18.96,10.39-32.43,2.24-4.47,6.73-7.25,11.73-7.25,2.02,0,4.04.48,5.86,1.38,6.47,3.24,9.1,11.13,5.87,17.59-5.7,11.39-7.7,16.24-7.63,20.82.08,4.99,2.86,11.29,7.9,22.73,5.88,13.35,9.46,22.17,9.46,31.99s-3.57,18.64-9.46,31.99c-2.1,4.76-6.81,7.83-12.01,7.83Z"/></svg>