<?xml version="1.0" encoding="UTF-8"?><svg id="Icon" xmlns="http://www.w3.org/2000/svg" viewBox="0 0 512 512"><path d="M377.85,64h-243.69c-38.68,0-70.15,31.47-70.15,70.15v193.23c0,8.84,7.16,16,16,16s16-7.16,16-16v-193.23c0-21.04,17.12-38.15,38.15-38.15h243.69c21.04,0,38.15,17.12,38.15,38.15v243.69c0,21.04-17.12,38.15-38.15,38.15h-109.64c-8.84,0-16,7.16-16,16s7.16,16,16,16h109.64c38.68,0,70.15-31.47,70.15-70.15v-243.69c0-38.68-31.47-70.15-70.15-70.15Z"/><path d="M254.69,347.69c-6.25,6.25-6.25,16.38,0,22.63,3.12,3.12,7.22,4.69,11.31,4.69s8.19-1.56,11.31-4.69l30.9-30.9,30.9,30.9c3.12,3.12,7.22,4.69,11.31,4.69s8.19-1.56,11.31-4.69c6.25-6.25,6.25-16.38,0-22.63l-30.9-30.9,30.9-30.9c6.25-6.25,6.25-16.38,0-22.63-6.25-6.25-16.38-6.25-22.63,0l-30.9,30.9-30.9-30.9s-.03-.03-.05-.04c-.36-.36-.73-.69-1.12-1.01-.19-.16-.39-.29-.58-.44-.22-.17-.44-.34-.67-.49-.23-.15-.47-.29-.71-.43-.21-.13-.42-.26-.63-.37-.24-.13-.49-.24-.74-.35-.23-.11-.45-.22-.68-.32-.24-.1-.48-.18-.73-.27-.25-.09-.5-.19-.75-.26-.24-.07-.49-.13-.74-.19-.26-.07-.52-.14-.78-.19-.28-.06-.57-.09-.86-.13-.23-.03-.46-.08-.69-.1-.53-.05-1.05-.08-1.58-.08h-36.8l16.83-65.42c1.32-5.03,5.23-6.97,6.86-7.58,1.62-.6,5.86-1.69,10.14,1.26l5.63,3.87c7.28,5.01,17.24,3.17,22.25-4.11,5.01-7.28,3.17-17.24-4.11-22.25l-5.63-3.87c-11.55-7.95-26.29-9.78-39.44-4.9-13.14,4.89-23.11,15.9-26.68,29.53l-18.9,73.46h-43.92c-8.84,0-16,7.16-16,16s7.16,16,16,16h35.69l-35.25,137.03c-2.2,8.56,2.95,17.28,11.51,19.48,1.34.34,2.68.51,4,.51,7.13,0,13.63-4.8,15.48-12.02l37.3-145h38.41l26.21,26.21-30.9,30.9Z"/></svg>