<?xml version="1.0" encoding="UTF-8"?><svg id="Icon" xmlns="http://www.w3.org/2000/svg" viewBox="0 0 512 512"><path d="M311.33,106.26h-39.4v-58.26c0-8.84-7.16-16-16-16s-16,7.16-16,16v58.26h-39.25c-8.84,0-16,7.16-16,16v267.41c0,8.84,7.16,16,16,16h39.25v58.33c0,8.84,7.16,16,16,16s16-7.16,16-16v-58.33h39.4c8.84,0,16-7.16,16-16V122.26c0-8.84-7.16-16-16-16ZM216.67,184.36h23.25v143.2h-23.25v-143.2ZM271.93,184.36h23.4v143.2h-23.4v-143.2ZM295.33,138.26v14.11h-23.4v-14.11h23.4ZM239.93,138.26v14.11h-23.25v-14.11h23.25ZM216.67,359.56h23.25v14.11h-23.25v-14.11ZM271.93,373.67v-14.11h23.4v14.11h-23.4Z"/></svg>