<?xml version="1.0" encoding="UTF-8"?><svg id="Icon" xmlns="http://www.w3.org/2000/svg" viewBox="0 0 512 512"><circle cx="384" cy="208" r="16"/><circle cx="352" cy="176" r="16"/><circle cx="320.22" cy="208.09" r="16"/><circle cx="352" cy="239.35" r="16"/><path d="M192,192h-16v-16c0-8.84-7.16-16-16-16s-16,7.16-16,16v16h-16c-8.84,0-16,7.16-16,16s7.16,16,16,16h16v16c0,8.84,7.16,16,16,16s16-7.16,16-16v-16h16c8.84,0,16-7.16,16-16s-7.16-16-16-16Z"/><path d="M416.46,400.42c-28.26,0-53.05-20.17-63.25-52.47-.03-.08-.05-.16-.07-.24l-13.05-43.7h-168.16l-13.05,43.7c-.14.47-.3.93-.49,1.39-6.12,15.23-14.89,27.97-25.34,36.85-13.44,11.41-29.32,16.21-45.95,13.88-16.88-2.37-31.85-11.21-42.16-24.9-10.31-13.68-14.68-30.51-12.31-47.39l22.26-160.42c4.4-31.29,31.52-54.97,63.09-55.12h275.96c31.65.15,58.77,23.83,63.17,55.09l22.27,160.47c2.37,16.85-2,33.68-12.31,47.36-10.31,13.68-25.28,22.52-42.16,24.9-2.84.4-5.66.59-8.44.59ZM393.87,144H118.06c-15.71.07-29.28,11.92-31.48,27.55l-22.26,160.42c-1.19,8.44,1.01,16.85,6.17,23.7,5.17,6.86,12.64,11.28,21.06,12.47,21.13,2.97,33.28-21.64,36.88-30.33l16.25-54.38c2.02-6.78,8.26-11.42,15.33-11.42h192c7.07,0,13.31,4.64,15.33,11.42l16.43,55c7.83,24.64,24.65,31.41,36.69,29.72,8.41-1.18,15.89-5.61,21.06-12.47,5.17-6.86,7.36-15.26,6.18-23.68l-22.27-160.47c-2.19-15.6-15.76-27.44-31.55-27.52Z"/></svg>