<?xml version="1.0" encoding="UTF-8"?><svg id="Icon" xmlns="http://www.w3.org/2000/svg" viewBox="0 0 512 512"><path d="M381.19,301.16h-24.71l-27.45-49.94c-4.97-9.39-11.34-13.22-21.96-13.22h-102.15c-10.63,0-16.99,3.83-21.96,13.22l-27.44,49.94h-24.71c-2.21,0-4,1.79-4,4v5.16c0,1.44.77,2.76,2.02,3.48l18.14,10.33c-2.75,10.09-2.94,13.77-2.94,28.71l3.62,51.68c.6,6.95,5.06,11.49,11.41,11.49h13.68c6.83,0,11.49-5.26,11.49-13.12v-15.59s143.54,0,143.54,0v15.59c0,7.87,4.64,13.12,11.48,13.12h13.68c6.35,0,10.8-4.54,11.41-11.49l3.62-51.68c0-14.94-.19-18.62-2.94-28.71l18.15-10.33c1.25-.71,2.02-2.04,2.02-3.48v-5.16c0-2.21-1.79-4-4-4ZM202.83,365.87h-41.53l-1.59-23.04,28.97,2.02c8.45.32,14.16,7.04,14.16,16.73v4.29ZM256,306.9l-80.93-5.74,22.97-41.75c2.03-3.83,2.41-4.06,6.74-4.06h102.45c4.33,0,4.71.23,6.74,4.06l22.97,41.8h0l-80.93,5.69ZM350.7,365.87h-41.53v-4.29c0-9.69,5.71-16.41,14.15-16.73l28.97-2.02-1.59,23.04Z"/><path d="M432,416c-8.84,0-16-7.16-16-16V112c0-8.82-7.18-16-16-16H112c-8.82,0-16,7.18-16,16v288c0,8.84-7.16,16-16,16s-16-7.16-16-16V112c0-26.47,21.53-48,48-48h288c26.47,0,48,21.53,48,48v288c0,8.84-7.16,16-16,16Z"/><path d="M376,112h-240c-13.2,0-24,10.8-24,24h0c0,13.2,10.8,24,24,24h240c13.2,0,24-10.8,24-24h0c0-13.2-10.8-24-24-24ZM288,144h-64c-4.42,0-8-3.58-8-8s3.58-8,8-8h64c4.42,0,8,3.58,8,8s-3.58,8-8,8Z"/></svg>