<?xml version="1.0" encoding="UTF-8"?><svg id="Icon" xmlns="http://www.w3.org/2000/svg" viewBox="0 0 512 512"><path d="M432,416c-8.84,0-16-7.16-16-16V112c0-8.82-7.18-16-16-16H112c-8.82,0-16,7.18-16,16v288c0,8.84-7.16,16-16,16s-16-7.16-16-16V112c0-26.47,21.53-48,48-48h288c26.47,0,48,21.53,48,48v288c0,8.84-7.16,16-16,16Z"/><path d="M376,368h-240c-13.2,0-24,10.8-24,24h0c0,13.2,10.8,24,24,24h240c13.2,0,24-10.8,24-24h0c0-13.2-10.8-24-24-24ZM288,400h-64c-4.42,0-8-3.58-8-8s3.58-8,8-8h64c4.42,0,8,3.58,8,8s-3.58,8-8,8Z"/><path d="M384,352H128c-8.84,0-16-7.16-16-16s7.16-16,16-16h256c8.84,0,16,7.16,16,16s-7.16,16-16,16Z"/><path d="M384,288H128c-8.84,0-16-7.16-16-16s7.16-16,16-16h256c8.84,0,16,7.16,16,16s-7.16,16-16,16Z"/><path d="M384,224H128c-8.84,0-16-7.16-16-16s7.16-16,16-16h256c8.84,0,16,7.16,16,16s-7.16,16-16,16Z"/><path d="M384,160H128c-8.84,0-16-7.16-16-16s7.16-16,16-16h256c8.84,0,16,7.16,16,16s-7.16,16-16,16Z"/></svg>