<?xml version="1.0" encoding="UTF-8"?><svg id="Icon" xmlns="http://www.w3.org/2000/svg" viewBox="0 0 512 512"><path d="M155.79,185.2c18.41,1.64,36.99,1.23,55.83,1.72,1.08-14,8.64-26.18,19.68-33.55-.09-.2-.17-.38-.27-.55-9.63-15.35-18.72-31.08-29.04-45.96-9.09-13.11-24.17-20.22-39.58-20.22-6.17,0-12.4,1.14-18.31,3.49-21.18,8.43-33.87,29.96-31,52.6,2.8,22.06,20.37,40.49,42.68,42.46ZM155.95,119.87c2.04-.81,4.22-1.22,6.47-1.23h0c5.51,0,10.47,2.41,13.27,6.45,5.39,7.77,10.45,15.86,15.65,24.31-1.07,1.68-2.07,3.4-3,5.16-10.29-.14-20.14-.39-29.73-1.24-6.74-.6-12.78-7.02-13.75-14.62-1.04-8.22,3.41-15.79,11.08-18.84Z"/><path d="M143.27,290.32c6.18,2.59,12.75,3.86,19.26,3.86,15.08,0,29.87-6.78,38.85-19.59,10.61-15.13,19.55-31.41,29.38-47.49-10.91-7.53-18.29-19.79-19.18-33.81-.23-.04-.43-.05-.62-.05-18.12.67-36.28.67-54.32,2.16-22.27,1.84-40.22,19.75-43.42,41.76-3.29,22.57,9.01,44.32,30.06,53.15ZM144.88,241.79c1.12-7.67,7.3-13.9,14.4-14.48,9.42-.78,18.95-1.12,28.87-1.39.92,1.76,1.91,3.49,2.97,5.17-5.27,8.85-10.4,17.26-15.92,25.13-2.63,3.74-7.36,5.97-12.66,5.97-2.37,0-4.75-.47-6.87-1.36-7.64-3.21-11.97-10.85-10.78-19.03Z"/><path d="M235.93,230.85c-8.49,16.01-17.56,31.74-25.29,48.13-9.54,20.21-3,44.71,14.45,58.49,9.08,7.16,19.97,10.75,30.88,10.75s21.22-3.4,30.18-10.2c17.7-13.45,24.88-37.89,15.45-58.19-7.8-16.76-17.43-32.65-26.44-49.19-5.79,2.77-12.29,4.32-19.15,4.32s-13.78-1.66-19.73-4.61c-.14.18-.25.33-.34.51ZM239.58,292.63c4.04-8.57,8.51-17.01,13.25-25.75,1.05.04,2.11.06,3.17.06.92,0,1.83-.02,2.74-.05,5.04,9,9.76,17.67,13.83,26.41,2.86,6.14.31,14.59-5.79,19.23-3.17,2.41-6.9,3.68-10.81,3.68-2.8,0-7-.67-11.04-3.86-6.09-4.81-8.38-13.28-5.34-19.72Z"/><path d="M235.93,149.37c.1.18.2.33.34.51,5.95-2.94,12.64-4.61,19.73-4.61s13.36,1.55,19.15,4.32c9.01-16.55,18.64-32.43,26.44-49.19,9.44-20.3,2.26-44.74-15.45-58.19-8.95-6.81-19.57-10.2-30.18-10.2s-21.8,3.59-30.88,10.75c-17.45,13.78-23.99,38.28-14.45,58.49,7.73,16.38,16.8,32.11,25.29,48.13ZM244.91,67.87c4.05-3.2,8.25-3.87,11.05-3.87,3.91,0,7.65,1.27,10.82,3.68,6.1,4.64,8.64,13.08,5.79,19.21-4.07,8.75-8.8,17.42-13.83,26.42-.91-.03-1.82-.05-2.74-.05-1.06,0-2.12.02-3.17.06-4.73-8.74-9.21-17.18-13.25-25.76-3.04-6.43-.74-14.9,5.34-19.7Z"/><path d="M349.58,294.21c6.17,0,12.4-1.14,18.31-3.49,21.18-8.43,33.87-29.96,31-52.6-2.8-22.06-20.37-40.49-42.68-42.46-18.41-1.64-36.99-1.23-55.83-1.72-1.08,14-8.64,26.18-19.68,33.55.09.2.17.38.27.55,9.63,15.35,18.72,31.08,29.04,45.96,9.09,13.11,24.17,20.22,39.57,20.22ZM323.66,226.29c10.29.14,20.14.39,29.73,1.24,6.74.6,12.78,7.02,13.75,14.62,1.04,8.22-3.41,15.79-11.08,18.84-2.04.81-4.22,1.23-6.47,1.23-5.51,0-10.47-2.41-13.27-6.45-5.39-7.77-10.45-15.85-15.65-24.31,1.07-1.68,2.07-3.4,3-5.16Z"/><path d="M300.42,187.55c.23.04.43.05.62.05,18.12-.67,36.28-.67,54.32-2.16,22.27-1.84,40.22-19.75,43.42-41.76,3.29-22.57-9.01-44.32-30.05-53.15-6.18-2.59-12.75-3.86-19.27-3.86-15.08,0-29.87,6.78-38.86,19.59-10.61,15.12-19.55,31.41-29.38,47.49,10.91,7.53,18.29,19.79,19.18,33.81ZM336.81,124.65c2.63-3.74,7.36-5.97,12.67-5.97,2.37,0,4.76.47,6.88,1.36,7.63,3.2,11.96,10.85,10.77,19.03-1.12,7.67-7.3,13.9-14.4,14.48-9.42.78-18.95,1.12-28.87,1.39-.92-1.76-1.91-3.49-2.97-5.17,5.27-8.85,10.4-17.26,15.92-25.13Z"/><path d="M413.2,342.68c-38.73-9.9-79.79-.76-109.82,24.44-13.37,11.22-23.99,25.01-31.38,40.46v-23.58c0-8.84-7.16-16-16-16s-16,7.16-16,16v23.58c-7.4-15.45-18.01-29.24-31.38-40.46h0c-30.03-25.2-71.08-34.33-109.82-24.44l-12.04,3.08v12.43c.01,24.08,6.2,47.48,17.91,67.67,15.88,27.38,39.97,45.85,67.83,52,6.51,1.44,13.05,2.14,19.55,2.14,16.8,0,33.3-4.75,48.09-13.93,1.02,7.86,7.72,13.93,15.85,13.93s14.83-6.07,15.85-13.93c14.79,9.18,31.29,13.93,48.09,13.93,6.5,0,13.05-.71,19.55-2.14,27.86-6.15,51.95-24.62,67.84-52,11.71-20.19,17.9-43.59,17.91-67.67v-12.43s-12.04-3.08-12.04-3.08ZM179.4,446.61c-19.01-4.19-35.72-17.26-47.05-36.8-6.76-11.66-11.1-24.77-12.79-38.5,24.9-2.9,49.3,4.23,68.48,20.33,15.39,12.91,25.83,30.46,30.02,50.16-12.11,5.99-25.54,7.71-38.67,4.81ZM379.65,409.81c-11.33,19.54-28.04,32.61-47.05,36.8-13.13,2.9-26.56,1.18-38.67-4.81,4.19-19.7,14.63-37.25,30.02-50.16,19.19-16.1,43.59-23.23,68.48-20.33-1.69,13.73-6.03,26.85-12.79,38.5Z"/><circle cx="256" cy="190.03" r="17.91" transform="translate(-27.13 43.46) rotate(-9.22)"/></svg>