<?xml version="1.0" encoding="UTF-8"?><svg id="Icon" xmlns="http://www.w3.org/2000/svg" viewBox="0 0 512 512"><path d="M445.96,401.52L269.16,95.28c-2.71-4.7-7.73-7.6-13.16-7.6s-10.44,2.9-13.16,7.6L66.03,401.52c-2.71,4.7-2.71,10.49,0,15.19,2.72,4.7,7.73,7.6,13.16,7.6h353.61c5.43,0,10.44-2.9,13.16-7.6,2.72-4.7,2.72-10.49,0-15.19ZM89.06,403.42L256,114.27l166.94,289.15H89.06Z"/><rect x="246.96" y="257.01" width="9.5" height="82.97"/><rect x="231.41" y="268.38" width="9.5" height="71.6"/><path d="M227.42,194.8l-1.27,2.2v25.39c-11.88,7.13-19.79,20.16-19.79,35.04v133.3h99.29v-133.3c0-14.88-7.91-27.9-19.79-35.04v-25.39l-1.27-2.2c-3.07-5.31-6.95-9.92-11.74-13.34-4.77-3.42-10.61-5.6-16.82-5.59-6.21-.01-12.06,2.16-16.83,5.58-4.81,3.43-8.69,8.03-11.76,13.35ZM274.61,232.68c10.2,4.05,16.79,13.77,16.79,24.75v119.05h-70.79v-119.05c0-10.98,6.59-20.7,16.78-24.75l6.02-2.38h25.2l6.01,2.37ZM240.4,202.27v-1.47l.83-1.21c1.86-2.71,4.01-4.97,6.22-6.53,2.8-1.96,5.59-2.92,8.53-2.94,3,.02,5.78.98,8.56,2.92,2.23,1.58,4.38,3.84,6.23,6.54l.83,1.21v18.75h-31.21v-17.28Z"/></svg>