<?xml version="1.0" encoding="UTF-8"?><svg id="Icon" xmlns="http://www.w3.org/2000/svg" viewBox="0 0 512 512"><path d="M169.66,356.53c23.09,20.04,46.21,29.48,47.18,29.87l5.98-14.84,6.29-14.71.15.06c-.83-.37-20.26-9.42-25.46-33.52-4.69-21.71,1.12-60.21,52.21-122.65,51.08,62.45,56.9,100.95,52.21,122.65-5.2,24.1-24.63,33.15-25.46,33.52l.15-.06,6.29,14.71,5.98,14.84c.97-.39,24.08-9.82,47.18-29.87,31.52-27.36,48.18-61.51,48.18-98.75s-20.9-84.65-62.13-143.81c-29.45-42.25-58.44-74.4-60.46-76.62-.01-.01-.02-.02-.03-.03-.02-.02-.05-.05-.06-.07-.17-.19-.35-.35-.53-.53-.18-.18-.35-.37-.55-.55-.01-.01-.02-.02-.04-.03-.3-.27-.62-.52-.94-.77-.11-.08-.21-.18-.31-.25-.33-.24-.67-.46-1.01-.67-.11-.07-.21-.15-.32-.21-.29-.17-.59-.32-.9-.47-.17-.09-.34-.19-.51-.27-.2-.09-.4-.16-.61-.25-.28-.12-.56-.24-.85-.34-.04-.01-.08-.02-.12-.04-1.92-.65-3.93-.94-5.93-.84-.36.02-.72.06-1.07.1-.15.02-.3.02-.45.04-.39.06-.78.14-1.16.23-.12.03-.23.04-.35.07-.27.07-.54.16-.81.24-.23.07-.46.12-.68.2-.16.05-.31.13-.46.19-.33.13-.67.25-.99.4-.07.03-.14.08-.21.11-.4.19-.8.4-1.19.63-.03.02-.06.04-.08.06-.43.26-.85.53-1.25.83-.04.03-.08.06-.11.09-.39.29-.77.6-1.13.93,0,0-.02.01-.02.02-.13.12-.25.25-.37.38-.24.23-.48.45-.7.7-1.24,1.36-30.67,33.85-60.55,76.73-41.23,59.16-62.13,107.55-62.13,143.81s16.66,71.39,48.18,98.75ZM256,72.29c36.75,43.32,102.52,131.93,102.52,185.49,0,18.95-5.7,36.55-16.98,52.56-.06-40.66-24.7-89.28-73.51-144.9-.04-.05-.1-.09-.14-.14-.18-.2-.38-.4-.58-.6s-.4-.4-.61-.59c-.05-.04-.09-.09-.14-.14-.12-.11-.25-.2-.38-.3-.25-.21-.5-.41-.75-.6-.18-.13-.36-.25-.54-.37-.26-.17-.52-.35-.79-.5-.2-.12-.41-.23-.62-.34-.25-.13-.5-.27-.76-.38-.23-.11-.47-.2-.71-.3-.24-.1-.47-.19-.72-.28-.26-.09-.52-.17-.78-.25-.23-.07-.46-.14-.69-.19-.27-.07-.54-.12-.81-.17-.23-.04-.47-.09-.7-.12-.27-.04-.54-.07-.81-.09-.24-.02-.48-.05-.73-.06-.26-.01-.52-.01-.78-.01s-.51,0-.77.01c-.25.01-.49.03-.74.06-.27.03-.54.05-.8.09-.24.03-.47.08-.71.12-.27.05-.54.1-.81.17-.23.06-.47.13-.7.19-.26.08-.52.15-.77.24-.24.09-.48.18-.72.28-.24.1-.47.19-.7.3-.26.12-.51.25-.76.38-.21.11-.41.22-.62.34-.27.16-.52.33-.78.5-.18.12-.36.24-.54.37-.26.19-.5.39-.75.59-.13.1-.26.19-.38.3-.05.04-.09.09-.14.14-.21.19-.41.39-.61.59-.2.2-.4.39-.58.6-.05.05-.1.09-.14.14-48.81,55.61-73.45,104.23-73.51,144.9-11.28-16.02-16.98-33.61-16.98-52.56,0-53.55,65.77-142.17,102.52-185.49Z"/><path d="M402,448h-53.73v-.74c0-26.06-21.2-47.26-47.26-47.26h-90.02c-26.06,0-47.26,21.2-47.26,47.26v.74h-53.73c-8.84,0-16,7.16-16,16s7.16,16,16,16h292c8.84,0,16-7.16,16-16s-7.16-16-16-16ZM195.73,447.26c0-8.41,6.84-15.26,15.26-15.26h90.02c8.41,0,15.26,6.84,15.26,15.26v.74h-120.53v-.74Z"/></svg>