<?xml version="1.0" encoding="UTF-8"?><svg id="Icon" xmlns="http://www.w3.org/2000/svg" viewBox="0 0 512 512"><path d="M402.39,191.52c6.98-1.72,12.16-8.01,12.16-15.52,0-8.84-7.16-16-16-16h-40.69c-8.84,0-16,7.16-16,16,0,7.31,4.91,13.46,11.61,15.38h-37.63c6.7-1.91,11.61-8.06,11.61-15.38,0-8.84-7.16-16-16-16h-40.69c-8.84,0-16,7.16-16,16,0,7.31,4.91,13.46,11.61,15.38h-38.4c6.7-1.91,11.61-8.06,11.61-15.38,0-8.84-7.16-16-16-16h-40.69c-8.84,0-16,7.16-16,16,0,7.51,5.18,13.79,12.16,15.52-21.57,1.69-38.61,19.77-38.61,41.76v4.75h-26.73c-8.84,0-16,7.16-16,16v28.91h-24.69c-8.84,0-16,7.16-16,16s7.16,16,16,16h24.69v28.91c0,8.84,7.16,16,16,16h26.73v4.75c0,23.11,18.8,41.91,41.91,41.91h216.77c23.11,0,41.91-18.8,41.91-41.91v-131.31c0-22-17.04-40.08-38.61-41.76ZM129.69,327.85v-57.82h10.73v57.82h-10.73ZM172.42,364.59v-131.31c0-5.37,4.54-9.91,9.91-9.91h169.7v151.12h-169.7c-5.37,0-9.91-4.54-9.91-9.91ZM409,364.59c0,5.37-4.54,9.91-9.91,9.91h-15.06v-151.12h15.06c5.37,0,9.91,4.54,9.91,9.91v131.31Z"/><path d="M270.75,144h40.69c8.84,0,16-7.16,16-16s-7.16-16-16-16h-4.73v-32c0-8.84-7.16-16-16-16s-16,7.16-16,16v32h-3.96c-8.84,0-16,7.16-16,16s7.16,16,16,16Z"/><path d="M357.86,144h40.69c8.84,0,16-7.16,16-16s-7.16-16-16-16h-4.35v-16h30.8c8.84,0,16-7.16,16-16s-7.16-16-16-16h-46.8c-8.84,0-16,7.16-16,16v32h-4.35c-8.84,0-16,7.16-16,16s7.16,16,16,16Z"/><path d="M156.48,96h30.74v16h-4.35c-8.84,0-16,7.16-16,16s7.16,16,16,16h40.69c8.84,0,16-7.16,16-16s-7.16-16-16-16h-4.35v-32c0-8.84-7.16-16-16-16h-46.74c-8.84,0-16,7.16-16,16s7.16,16,16,16Z"/><path d="M299.62,290.78c-2.77-5.24-8.21-8.51-14.14-8.51h-17.53l14.29-22.71c4.71-7.48,2.46-17.36-5.02-22.06-7.48-4.7-17.36-2.46-22.06,5.02l-29.72,47.23c-3.1,4.93-3.28,11.16-.46,16.26s8.18,8.27,14.01,8.27h16.3l-16,23.57c-4.96,7.31-3.06,17.26,4.25,22.22,2.75,1.87,5.88,2.76,8.97,2.76,5.12,0,10.16-2.46,13.25-7.01l32.97-48.56c3.33-4.9,3.67-11.24.9-16.48Z"/></svg>