<?xml version="1.0" encoding="UTF-8"?><svg id="Icon" xmlns="http://www.w3.org/2000/svg" viewBox="0 0 512 512"><path d="M412.48,231.89c-8.84,0-16,7.16-16,16v132.55c0,10.51-8.55,19.06-19.06,19.06h-245.41c-10.51,0-19.06-8.55-19.06-19.06v-245.41c0-10.51,8.55-19.06,19.06-19.06h137.21c8.84,0,16-7.16,16-16s-7.16-16-16-16h-137.21c-28.15,0-51.06,22.91-51.06,51.06v245.41c0,28.15,22.9,51.06,51.06,51.06h245.41c28.15,0,51.06-22.9,51.06-51.06v-132.55c0-8.84-7.16-16-16-16Z"/><path d="M249.71,287.9c-11.51-2.38-20.51-11.38-22.89-22.89l-5.14-24.9c-1.73-8.38-13.7-8.38-15.43,0l-5.14,24.9c-2.38,11.51-11.38,20.51-22.89,22.89l-24.9,5.14c-8.38,1.73-8.38,13.7,0,15.43l24.9,5.14c11.51,2.38,20.51,11.38,22.89,22.89l5.14,24.9c1.73,8.38,13.7,8.38,15.43,0l5.14-24.9c2.38-11.51,11.38-20.51,22.89-22.89l24.9-5.14c8.38-1.73,8.38-13.7,0-15.43l-24.9-5.14Z"/><path d="M432.77,149.92l-34.81-10.04c-9.91-2.86-17.66-10.61-20.52-20.52l-10.04-34.81c-2.23-7.74-13.19-7.74-15.42,0l-10.04,34.81c-2.86,9.91-10.61,17.66-20.52,20.52l-34.81,10.04c-7.74,2.23-7.74,13.19,0,15.42l34.81,10.04c9.91,2.86,17.66,10.61,20.52,20.52l10.04,34.81c2.23,7.74,13.19,7.74,15.42,0l10.04-34.81c2.86-9.91,10.61-17.66,20.52-20.52l34.81-10.04c7.74-2.23,7.74-13.19,0-15.42Z"/></svg>