<?xml version="1.0" encoding="UTF-8"?><svg id="Icon" xmlns="http://www.w3.org/2000/svg" viewBox="0 0 512 512"><path d="M243.48,401.48c3.04,3.81,7.64,6.03,12.52,6.03h0c4.87,0,9.48-2.22,12.52-6.03,3.53-4.44,86.71-109.47,112.27-192.97,4.46-12.58,6.96-25.79,7.45-39.26.08-1.58.12-3.23.12-4.91,0-72.98-59.37-132.35-132.36-132.35S123.65,91.37,123.65,164.35c0,1.52.04,3.11.12,4.87.49,13.5,3,26.72,7.45,39.3,25.55,83.49,108.73,188.53,112.26,192.97ZM256,64c55.34,0,100.36,45.02,100.36,100.35,0,1.17-.03,2.26-.09,3.33,0,.1,0,.21-.01.31-.36,10.35-2.29,20.49-5.73,30.12-.09.24-.17.48-.24.73-18.02,59.22-70.15,133.73-94.28,166.26-24.12-32.53-76.25-107.04-94.27-166.26-.07-.24-.15-.49-.24-.73-3.44-9.62-5.37-19.76-5.74-30.13v-.2c-.07-1.28-.1-2.4-.1-3.43,0-55.33,45.02-100.35,100.35-100.35Z"/><path d="M256,206.54c23.31,0,42.19-18.89,42.19-42.19s-18.89-42.18-42.19-42.18-42.18,18.89-42.18,42.18,18.89,42.19,42.18,42.19Z"/><path d="M106.37,430.9c0,23.78,31.51,33.25,41.86,36.36,20.58,6.18,48.95,10.46,79.87,12.03,9.14.47,18.52.7,27.9.7s18.77-.24,27.9-.7c30.92-1.58,59.29-5.85,79.87-12.03,10.35-3.11,41.86-12.58,41.86-36.36s-29.46-38.19-87.57-45.44c-8.76-1.1-16.76,5.13-17.86,13.89-1.09,8.77,5.13,16.76,13.89,17.86,30.85,3.85,47.65,9.73,55.37,13.72-11.1,5.71-39.09,13.95-87.19,16.4-17.19.88-35.35.88-52.54,0-48.1-2.45-76.09-10.69-87.19-16.4,7.72-3.99,24.52-9.87,55.37-13.72,8.77-1.09,14.99-9.09,13.89-17.86s-9.09-14.99-17.86-13.89c-58.11,7.26-87.57,22.54-87.57,45.44Z"/></svg>