<?xml version="1.0" encoding="UTF-8"?><svg id="Icon" xmlns="http://www.w3.org/2000/svg" viewBox="0 0 512 512"><path d="M414.39,97.61c-42.31-42.31-98.56-65.61-158.39-65.61s-116.08,23.3-158.39,65.61-65.61,98.56-65.61,158.39,23.3,116.08,65.61,158.39c42.31,42.31,98.56,65.61,158.39,65.61s116.08-23.3,158.39-65.61c42.31-42.31,65.61-98.56,65.61-158.39s-23.3-116.08-65.61-158.39ZM447.33,240h-99.71c-3.9-62.5-23.87-122.4-57.46-172.95,84.5,15.24,149.95,85.96,157.16,172.95ZM196.46,272h119.08c-4.15,60.7-24.9,118.53-59.54,166.03-34.64-47.5-55.39-105.34-59.54-166.03ZM196.46,240c4.15-60.7,24.9-118.53,59.54-166.04,34.64,47.5,55.39,105.34,59.54,166.04h-119.08ZM221.84,67.05c-33.58,50.56-53.56,110.45-57.46,172.95h-99.71c7.21-86.99,72.66-157.72,157.16-172.95ZM64.67,272h99.71c3.9,62.5,23.87,122.4,57.46,172.95-84.5-15.24-149.95-85.96-157.17-172.95ZM290.16,444.95c33.58-50.56,53.56-110.45,57.46-172.95h99.71c-7.21,86.99-72.66,157.72-157.17,172.95Z"/></svg>