<?xml version="1.0" encoding="UTF-8"?><svg id="Icon" xmlns="http://www.w3.org/2000/svg" viewBox="0 0 512 512"><path d="M190.56,272c4.31,66.66,27.15,130.18,65.44,182.12,38.29-51.94,61.12-115.46,65.44-182.12h-130.88Z"/><path d="M353.51,240h125.92c-3.77-53.81-26.53-103.88-65.04-142.39-37.25-37.25-85.3-59.75-137.09-64.61,45,58.45,71.68,130.95,76.2,207Z"/><path d="M190.56,240h130.88c-4.31-66.66-27.15-130.18-65.44-182.12-38.29,51.94-61.12,115.46-65.44,182.12Z"/><path d="M353.51,272c-4.52,76.05-31.21,148.54-76.2,207,51.79-4.85,99.84-27.36,137.09-64.61,38.51-38.51,61.27-88.58,65.04-142.39h-125.92Z"/><path d="M158.49,272H32.57c3.77,53.81,26.53,103.88,65.04,142.39,37.25,37.25,85.3,59.75,137.09,64.61-45-58.45-71.68-130.95-76.2-207Z"/><path d="M158.49,240c4.52-76.05,31.21-148.54,76.2-207-51.79,4.85-99.84,27.36-137.09,64.61-38.51,38.51-61.27,88.58-65.04,142.39h125.92Z"/></svg>