<?xml version="1.0" encoding="UTF-8"?><svg id="Icon" xmlns="http://www.w3.org/2000/svg" viewBox="0 0 512 512"><path d="M321.95,269.01c17.17,26.01,31.99,44.68,32.61,45.46,3.04,3.81,7.64,6.03,12.52,6.03h0c4.87,0,9.48-2.22,12.52-6.03.62-.78,15.45-19.45,32.62-45.46,23.26-35.24,38.95-65.81,46.63-90.85,3.25-9.21,5.08-18.87,5.44-28.73.06-1.18.09-2.41.09-3.65,0-53.64-43.65-97.29-97.29-97.29s-97.29,43.64-97.29,97.29c0,1.13.03,2.31.09,3.61.36,9.88,2.19,19.55,5.44,28.76,7.68,25.04,23.37,55.61,46.63,90.85ZM367.08,80.5c36,0,65.29,29.29,65.29,65.29,0,.72-.02,1.41-.05,2.07,0,.1-.01.21-.01.31-.23,6.74-1.49,13.33-3.73,19.59-.09.24-.17.48-.24.73-11.5,37.78-43.4,84.88-61.26,109.42-17.86-24.55-49.76-71.64-61.25-109.42-.07-.24-.15-.49-.24-.73-2.23-6.25-3.49-12.85-3.73-19.6,0-.07,0-.13,0-.2-.04-.82-.06-1.53-.06-2.17,0-36,29.29-65.29,65.29-65.29Z"/><path d="M367.08,169.79c13.26,0,24-10.74,24-24s-10.74-24-24-24-24,10.75-24,24,10.74,24,24,24Z"/><path d="M240,288h-88.3c-22.06,0-40,17.94-40,40v32.13c0,22.06,17.94,40,40,40h178.42l-33.62,34.74c-6.15,6.35-5.98,16.48.37,22.62,3.11,3.01,7.12,4.5,11.13,4.5s8.36-1.63,11.5-4.87l60-62c6.07-6.28,5.99-16.26-.18-22.44l-62-62c-6.25-6.25-16.38-6.25-22.63,0-6.25,6.25-6.25,16.38,0,22.63l34.82,34.82h-177.8c-4.41,0-8-3.59-8-8v-32.13c0-4.41,3.59-8,8-8h88.3c21.31,0,40-18.69,40-40s-17.94-40-40-40h-64c-8.84,0-16,7.16-16,16s7.16,16,16,16h64c4.41,0,8,3.59,8,8,0,3.44-4.56,8-8,8Z"/><path d="M48.11,272c8.78,0,15.89-7.16,15.89-16s-7.12-16-15.89-16h-.21c-8.78,0-15.89,7.16-15.89,16s7.12,16,15.89,16h.21Z"/><path d="M112.11,240h-.21c-8.78,0-15.89,7.16-15.89,16s7.12,16,15.89,16h.21c8.78,0,15.89-7.16,15.89-16s-7.12-16-15.89-16Z"/></svg>