<?xml version="1.0" encoding="UTF-8"?><svg id="Icon" xmlns="http://www.w3.org/2000/svg" viewBox="0 0 512 512"><path d="M414.39,97.61c-42.31-42.31-98.56-65.61-158.39-65.61s-116.08,23.3-158.39,65.61c-42.31,42.31-65.61,98.56-65.61,158.39s23.3,116.08,65.61,158.39,98.56,65.61,158.39,65.61,116.08-23.3,158.39-65.61c42.31-42.31,65.61-98.56,65.61-158.39s-23.3-116.08-65.61-158.39ZM256,448c-105.87,0-192-86.13-192-192S150.13,64,256,64s192,86.13,192,192-86.13,192-192,192Z"/><path d="M360,284.2h-88V115.4c0-8.84-7.16-16-16-16s-16,7.16-16,16v168.8h-88c-8.84,0-16,7.16-16,16s7.16,16,16,16h208c8.84,0,16-7.16,16-16s-7.16-16-16-16Z"/><path d="M321,332.3h-130c-8.84,0-16,7.16-16,16s7.16,16,16,16h130c8.84,0,16-7.16,16-16s-7.16-16-16-16Z"/><path d="M282,377.8h-52c-8.84,0-16,7.16-16,16s7.16,16,16,16h52c8.84,0,16-7.16,16-16s-7.16-16-16-16Z"/></svg>