<?xml version="1.0" encoding="UTF-8"?><svg id="Icon" xmlns="http://www.w3.org/2000/svg" viewBox="0 0 512 512"><path d="M275,304H93c-15.99,0-29-13.01-29-29V93c0-15.99,13.01-29,29-29h182c15.99,0,29,13.01,29,29v182c0,15.99-13.01,29-29,29Z"/><path d="M418.67,304h-53.33c-16.17,0-29.33-13.16-29.33-29.33v-53.33c0-16.17,13.16-29.33,29.33-29.33h53.33c16.17,0,29.33,13.16,29.33,29.33v53.33c0,16.17-13.16,29.33-29.33,29.33ZM368,272h48v-48h-48v48Z"/><path d="M274.67,448h-53.33c-16.17,0-29.33-13.16-29.33-29.33v-53.33c0-16.17,13.16-29.33,29.33-29.33h53.33c16.17,0,29.33,13.16,29.33,29.33v53.33c0,16.17-13.16,29.33-29.33,29.33ZM224,416h48v-48h-48v48Z"/><path d="M418.67,448h-53.33c-16.17,0-29.33-13.16-29.33-29.33v-53.33c0-16.17,13.16-29.33,29.33-29.33h53.33c16.17,0,29.33,13.16,29.33,29.33v53.33c0,16.17-13.16,29.33-29.33,29.33Z"/></svg>