<?xml version="1.0" encoding="UTF-8"?><svg id="Icon" xmlns="http://www.w3.org/2000/svg" viewBox="0 0 512 512"><path d="M166.43,302.61c-24.75,0-44.88,20.13-44.88,44.88s20.13,44.88,44.88,44.88,44.88-20.13,44.88-44.88-20.13-44.88-44.88-44.88ZM166.43,360.37c-7.1,0-12.88-5.78-12.88-12.88s5.78-12.88,12.88-12.88,12.88,5.78,12.88,12.88-5.78,12.88-12.88,12.88Z"/><path d="M388.04,291.76l-5.45-1.03-42.97-158.64,60.67-28.06c7.52-3.48,11.14-12.11,8.35-19.91l-9.03-25.25c-2.98-8.32-12.13-12.65-20.45-9.68-8.32,2.98-12.65,12.13-9.68,20.45l4.11,11.48-59.66,27.59c-7.08,3.27-10.77,11.18-8.73,18.7l42.44,156.72-120.41-22.73-27.51-53.4h8.28c8.84,0,16-7.16,16-16s-7.16-16-16-16h-64c-8.84,0-16,7.16-16,16s7.16,16,16,16h19.72l23.63,45.87-1.39-.26c-6.39-1.32-12.96-1.99-19.53-1.99-52.86,0-95.87,43.01-95.87,95.87,0,32.41,16.17,61.11,40.86,78.47l-10.73,10.73c-6.25,6.25-6.25,16.38,0,22.63,3.12,3.12,7.22,4.69,11.31,4.69s8.19-1.56,11.31-4.69l19.02-19.02c7.7,2,15.77,3.07,24.09,3.07,6.58,0,13.16-.67,19.55-2l155.41-29.34,47.29,47.29c3.12,3.12,7.22,4.69,11.31,4.69s8.19-1.56,11.31-4.69c6.25-6.25,6.25-16.38,0-22.63l-31.85-31.85,8.57-1.62c12.85-2.21,24.61-8.86,33.18-18.78,8.86-10.26,13.74-23.38,13.74-36.95,0-27.39-20.07-51.1-46.91-55.73ZM383.11,371.59h0s-1.22.21-1.22.21h0s-201.93,38.13-201.93,38.13h0c-.08.01-.15.03-.23.04l-1.46.28h0c-3.88.74-7.86,1.11-11.85,1.11-35.22,0-63.87-28.65-63.87-63.87s28.65-63.87,63.87-63.87c3.96,0,7.92.36,11.78,1.08h0s2,.4,2,.4h0s201.42,38.02,201.42,38.02v.02s1.58.27,1.58.27h0c11.33,2.25,19.74,12.39,19.74,24.08s-8.46,21.89-19.83,24.1Z"/></svg>