<?xml version="1.0" encoding="UTF-8"?><svg id="Icon" xmlns="http://www.w3.org/2000/svg" viewBox="0 0 512 512"><path d="M256,480c-11.24,0-21.79-4.36-29.7-12.27L44.27,285.7c-16.38-16.38-16.38-43.02,0-59.39L226.3,44.27c7.91-7.91,18.46-12.27,29.7-12.27s21.79,4.36,29.7,12.27l182.03,182.03c16.38,16.38,16.38,43.02,0,59.39l-182.03,182.03c-7.91,7.91-18.46,12.27-29.7,12.27ZM256,64c-2.69,0-5.2,1.03-7.07,2.9L66.9,248.93c-3.83,3.83-3.83,10.31,0,14.14l182.03,182.03c1.87,1.87,4.38,2.9,7.07,2.9s5.2-1.03,7.07-2.9l182.04-182.03c3.83-3.83,3.83-10.31,0-14.14l-182.03-182.03c-1.87-1.87-4.38-2.9-7.07-2.9Z"/><path d="M256,208c-26.47,0-48-21.53-48-48s21.53-48,48-48,48,21.53,48,48-21.53,48-48,48ZM256,144c-8.82,0-16,7.18-16,16s7.18,16,16,16,16-7.18,16-16-7.18-16-16-16Z"/><path d="M292.08,224h-72.16c-24.22,0-43.92,19.7-43.92,43.92v52.08c0,4.24,1.69,8.31,4.69,11.31l64,64c3.12,3.12,7.22,4.69,11.31,4.69s8.19-1.56,11.31-4.69l64-64c3-3,4.69-7.07,4.69-11.31v-52.08c0-24.22-19.7-43.92-43.92-43.92ZM305.57,314.14c7.65,4.42,10.27,14.2,5.86,21.86-2.96,5.13-8.34,8-13.87,8-2.71,0-5.47-.69-7.99-2.15l-17.57-10.14v20.29c0,8.84-7.16,16-16,16s-16-7.16-16-16v-20.29l-17.57,10.14c-2.52,1.45-5.27,2.15-7.99,2.15-5.53,0-10.91-2.87-13.87-8-4.42-7.65-1.8-17.44,5.86-21.86l17.57-10.14-17.57-10.14c-7.65-4.42-10.27-14.2-5.86-21.86,4.42-7.65,14.21-10.27,21.86-5.86l17.57,10.14v-20.29c0-8.84,7.16-16,16-16s16,7.16,16,16v20.29l17.57-10.14c7.65-4.42,17.44-1.8,21.86,5.86,4.42,7.65,1.8,17.44-5.86,21.86l-17.57,10.14,17.57,10.14Z"/></svg>