<?xml version="1.0" encoding="UTF-8"?><svg id="Icon" xmlns="http://www.w3.org/2000/svg" viewBox="0 0 512 512"><path d="M360.54,240h-77.8c-6.14,0-11.74,3.51-14.41,9.04l-4.87,10.07-21.92-113.58c-1.38-7.15-7.42-12.47-14.68-12.94-7.27-.46-13.93,4.03-16.22,10.95l-31.86,96.46h-40.13c-8.84,0-16,7.16-16,16s7.16,16,16,16h51.69c6.9,0,13.03-4.43,15.19-10.98l16.22-49.11,19.42,100.62c1.31,6.77,6.8,11.94,13.64,12.83.7.09,1.39.13,2.08.13,6.07,0,11.71-3.46,14.4-9.04l21.48-44.45h67.76c8.84,0,16-7.16,16-16s-7.16-16-16-16Z"/><path d="M379.3,125.01c-10.22-3.29-19.54-1.2-27.61,5.97-2.47,2.2-4.24,2.28-6.69.02-8.45-7.79-21.03-9.67-31.24-4.68-17.35,8.49-20.94,31.11-7.13,44.92,13.54,13.55,27.1,27.09,40.64,40.65.31.31.57.68.92,1.12.41-.37.62-.55.82-.75,13.72-13.72,27.47-27.4,41.14-41.17,6.9-6.95,9.51-15.42,7.68-25-2.02-10.56-8.29-17.79-18.53-21.09Z"/><path d="M416,64H96c-26.47,0-48,21.53-48,48v208c0,26.47,21.53,48,48,48h144v48h-64c-8.84,0-16,7.16-16,16s7.16,16,16,16h160c8.84,0,16-7.16,16-16s-7.16-16-16-16h-64v-48h144c26.47,0,48-21.53,48-48V112c0-26.47-21.53-48-48-48ZM432,320c0,8.82-7.18,16-16,16H96c-8.82,0-16-7.18-16-16V112c0-8.82,7.18-16,16-16h320c8.82,0,16,7.18,16,16v208Z"/></svg>