<?xml version="1.0" encoding="UTF-8"?><svg id="Icon" xmlns="http://www.w3.org/2000/svg" viewBox="0 0 512 512"><path d="M432,416H96V80c0-8.84-7.16-16-16-16s-16,7.16-16,16v352c0,8.84,7.16,16,16,16h352c8.84,0,16-7.16,16-16s-7.16-16-16-16Z"/><path d="M164.71,271.76c15.01.14,27.25-12.09,27.22-27.19-.03-15.22-12.02-27.01-27.35-26.89-14.8.11-26.86,12.27-26.8,27.03.06,14.71,12.22,26.92,26.94,27.06Z"/><path d="M165.21,157.32c12.57-.12,22.36-10.14,22.2-22.74-.15-12.48-10.39-22.5-22.78-22.3-12.35.2-22.52,10.61-22.35,22.88.18,12.42,10.37,22.28,22.92,22.16Z"/><circle cx="284.54" cy="134.8" r="36.1" transform="translate(-19.07 51.41) rotate(-9.99)"/><circle cx="401.76" cy="134.8" r="18.05" transform="translate(-17.29 71.75) rotate(-9.99)"/><path d="M401.76,271.79c14.95,0,27.08-12.12,27.08-27.08s-12.12-27.08-27.08-27.08-27.08,12.12-27.08,27.08,12.12,27.08,27.08,27.08Z"/><path d="M388.22,341.74c0,7.48,6.06,13.54,13.54,13.54s13.54-6.06,13.54-13.54-6.06-13.54-13.54-13.54-13.54,6.06-13.54,13.54Z"/><path d="M271,244.72c0,7.48,6.06,13.54,13.54,13.54s13.54-6.06,13.54-13.54-6.06-13.54-13.54-13.54-13.54,6.06-13.54,13.54Z"/><circle cx="284.54" cy="341.74" r="40.62" transform="translate(-109.12 134.9) rotate(-22.5)"/><circle cx="164.85" cy="341.74" r="22.56"/></svg>