<?xml version="1.0" encoding="UTF-8"?><svg id="Icon" xmlns="http://www.w3.org/2000/svg" viewBox="0 0 512 512"><path d="M86.96,183.96c0-23,8.73-46.7,27.48-74.58,4.93-7.33,2.98-17.27-4.35-22.21-7.33-4.93-17.27-2.98-22.21,4.35-22.47,33.41-32.93,62.78-32.92,92.44,0,29.66,10.46,59.03,32.92,92.42,16.36,24.39,23.99,44.45,23.99,63.12,0,18.67-7.62,38.73-23.99,63.13-4.92,7.34-2.96,17.28,4.37,22.2,2.74,1.84,5.83,2.71,8.9,2.71,5.15,0,10.21-2.49,13.3-7.09,20.07-29.91,29.41-55.64,29.41-80.95,0-25.32-9.35-51.04-29.42-80.96-18.75-27.88-27.48-51.58-27.48-74.58Z"/><path d="M165.75,183.96c0-23,8.73-46.7,27.48-74.58,4.93-7.33,2.98-17.27-4.35-22.21-7.33-4.93-17.28-2.98-22.21,4.35-22.47,33.41-32.93,62.78-32.92,92.44,0,29.66,10.46,59.03,32.91,92.42,16.36,24.39,23.99,44.45,23.99,63.12,0,18.67-7.62,38.73-23.99,63.13-4.92,7.34-2.96,17.28,4.37,22.2,2.74,1.84,5.83,2.71,8.9,2.71,5.15,0,10.21-2.49,13.3-7.09,20.07-29.91,29.41-55.64,29.41-80.95,0-25.32-9.35-51.04-29.42-80.96-18.75-27.88-27.48-51.58-27.48-74.58Z"/><path d="M450.35,144c-4.42-7.65-14.2-10.27-21.86-5.86l-33.98,19.62c-2.21-8.56-2.52-17.57-.81-26.37,1.69-8.67-3.97-17.07-12.65-18.76-8.67-1.69-17.07,3.97-18.76,12.65-3.2,16.43-1.81,33.32,3.84,48.87l-93.78,54.14v-108.28c16.3-2.88,31.62-10.13,44.24-21.11,6.67-5.8,7.37-15.91,1.57-22.57-5.8-6.67-15.9-7.37-22.57-1.57-6.77,5.89-14.72,10.12-23.24,12.49v-39.24c0-8.84-7.16-16-16-16s-16,7.16-16,16v416c0,8.84,7.16,16,16,16s16-7.16,16-16v-39.24c8.52,2.36,16.48,6.6,23.24,12.49,3.03,2.64,6.77,3.93,10.49,3.93,4.47,0,8.92-1.86,12.08-5.5,5.8-6.67,5.1-16.77-1.57-22.57-12.63-10.98-27.95-18.23-44.24-21.11v-108.28l93.78,54.14c-5.65,15.55-7.04,32.44-3.84,48.87,1.49,7.64,8.18,12.95,15.69,12.95,1.01,0,2.04-.1,3.07-.3,8.67-1.69,14.34-10.09,12.65-18.76-1.71-8.8-1.41-17.81.81-26.37l33.98,19.62c2.52,1.46,5.27,2.15,7.98,2.15,5.53,0,10.91-2.87,13.87-8,4.42-7.65,1.8-17.44-5.86-21.86l-33.98-19.62c6.31-6.2,13.95-10.97,22.44-13.89,8.36-2.88,12.8-11.98,9.92-20.33s-11.98-12.8-20.33-9.92c-15.83,5.44-29.76,15.09-40.4,27.76l-93.78-54.14,93.78-54.14c10.64,12.67,24.58,22.32,40.4,27.76,1.72.59,3.48.87,5.21.87,6.64,0,12.85-4.17,15.13-10.8,2.87-8.36-1.57-17.46-9.92-20.33-8.48-2.92-16.13-7.69-22.44-13.89l33.98-19.62c7.65-4.42,10.27-14.2,5.86-21.86Z"/></svg>