<?xml version="1.0" encoding="UTF-8"?><svg id="Icon" xmlns="http://www.w3.org/2000/svg" viewBox="0 0 512 512"><path d="M464,85.6H48c-8.84,0-16,7.16-16,16v279.64c0,8.84,7.16,16,16,16h11.73v37.16c0,8.84,7.16,16,16,16h73.96c8.84,0,16-7.16,16-16v-37.16h180.62v37.16c0,8.84,7.16,16,16,16h73.96c8.84,0,16-7.16,16-16v-37.16h11.73c8.84,0,16-7.16,16-16V101.6c0-8.84-7.16-16-16-16ZM64,117.6h384v247.64H64V117.6ZM133.69,418.4h-41.96v-21.16h41.96v21.16ZM420.27,418.4h-41.96v-21.16h41.96v21.16Z"/><path d="M210.15,129.52c-6.57-1.24-13.32-1.86-20.06-1.86-59.56,0-108.02,48.46-108.02,108.02s48.46,108.02,108.02,108.02,108.02-48.46,108.02-108.02c0-51.93-36.99-96.57-87.96-106.16ZM190.08,311.69c-41.92,0-76.02-34.1-76.02-76.02s34.1-76.02,76.02-76.02c4.76,0,9.52.44,14.15,1.31,35.85,6.74,61.87,38.16,61.87,74.71,0,41.92-34.1,76.02-76.02,76.02Z"/><path d="M408.07,141.07h-69.33c-8.84,0-16,7.16-16,16s7.16,16,16,16h69.33c8.84,0,16-7.16,16-16s-7.16-16-16-16Z"/><path d="M408.07,197.3h-69.33c-8.84,0-16,7.16-16,16s7.16,16,16,16h69.33c8.84,0,16-7.16,16-16s-7.16-16-16-16Z"/><path d="M408.07,309.78h-69.33c-8.84,0-16,7.16-16,16s7.16,16,16,16h69.33c8.84,0,16-7.16,16-16s-7.16-16-16-16Z"/><path d="M408.07,253.54h-69.33c-8.84,0-16,7.16-16,16s7.16,16,16,16h69.33c8.84,0,16-7.16,16-16s-7.16-16-16-16Z"/><path d="M241.71,220.44c-1.39-1.1-2.81-2.08-4.2-2.92-1.43-.91-3.02-1.71-5.02-2.55-1.43-.58-2.98-1.09-4.89-1.59l-.06-.02h-.06c-.85-.2-1.97-.43-3.06-.58h-.05c-1.91-.25-3.6-.36-5.16-.36h-4.4c-.48,0-.74.56-.44.93l3.04,3.68c2.14,2.4,3.64,5.74,4.7,9.68.99,3.67,1.47,8.91,1.25,11.9-.23,3.16-1.33,9.41-2.1,12.48-.76,3.02-1.52,6.05-1.67,9.2v.06s0,.06,0,.06c0,1.24.17,2.5.5,3.73.33,1.24.75,2.36,1.27,3.4.58,1.15,1.3,2.26,2.09,3.21l.05.05.05.05c.99,1.07,2.01,1.98,3.04,2.72,1.08.77,2.33,1.43,3.7,1.94.98.38,2,.64,3.19.81.86.18,1.69.18,2.36.18,1.16,0,2.36-.17,3.89-.55.59-.15,1.23-.37,1.91-.65.72-.28,1.3-.61,1.81-.9,1.05-.6,2.09-1.37,3.11-2.31l.05-.04.04-.04c.83-.83,1.55-1.69,2.24-2.52l.07-.09c.81-1.06,1.55-2.19,2.11-3.24,1.3-2.39,2.34-5.04,3-7.68.4-1.62.67-3.05.8-4.37.25-2.04.34-3.75.28-5.38,0-1.66-.16-3.45-.5-5.66-.26-1.63-.71-3.43-1.37-5.49-.56-1.76-1.27-3.49-2.17-5.27-.6-1.2-1.27-2.48-2.11-3.7-1.01-1.58-2.17-3.1-3.45-4.52-1.31-1.47-2.56-2.68-3.83-3.68Z"/><path d="M152.02,214.44l.02.06.02.06c.27.83.63,1.91,1.04,2.94l.02.05c.75,1.78,1.49,3.3,2.27,4.64l2.2,3.81c.24.41.85.36,1.02-.09l1.67-4.48c1.01-3.05,3.15-6.02,6.04-8.92,2.68-2.69,6.98-5.73,9.69-7.03,2.85-1.38,8.81-3.55,11.86-4.42,2.99-.85,6-1.71,8.8-3.16l.06-.03.06-.03c1.08-.62,2.08-1.39,2.98-2.29.91-.91,1.67-1.83,2.31-2.8.71-1.07,1.31-2.26,1.74-3.42l.02-.07.02-.07c.43-1.39.71-2.73.84-3.99.13-1.32.07-2.73-.17-4.17-.16-1.04-.45-2.05-.89-3.17-.28-.83-.69-1.55-1.03-2.14-.58-1.01-1.33-1.96-2.42-3.09-.42-.44-.93-.88-1.52-1.32-.6-.48-1.17-.82-1.69-1.12-1.04-.61-2.24-1.13-3.55-1.54l-.06-.02-.06-.02c-1.13-.3-2.24-.49-3.31-.68l-.11-.02c-1.32-.18-2.67-.25-3.86-.21-2.72.07-5.53.5-8.15,1.24-1.6.46-2.97.95-4.19,1.49-1.89.8-3.42,1.58-4.8,2.44-1.43.83-2.91,1.87-4.65,3.27-1.28,1.04-2.62,2.33-4.07,3.93-1.24,1.37-2.38,2.84-3.49,4.51-.74,1.12-1.51,2.34-2.15,3.67-.86,1.66-1.6,3.43-2.19,5.25-.62,1.87-1.04,3.56-1.27,5.16-.26,1.76-.4,3.47-.43,5.1-.07,1.69.03,3.47.3,5.62.21,1.53.55,3.13,1.07,5.03Z"/><path d="M197.53,267.79l-4.71.79c-3.15.65-6.79.28-10.74-.77-3.67-.98-8.45-3.18-10.93-4.87-2.62-1.78-7.48-5.85-9.76-8.06-2.24-2.16-4.48-4.35-7.14-6.05l-.05-.03-.06-.03c-1.08-.62-2.25-1.1-3.48-1.44-1.24-.34-2.42-.53-3.58-.6-1.29-.08-2.61,0-3.83.2h-.07s-.07.03-.07.03c-1.42.32-2.72.75-3.87,1.27-1.21.55-2.4,1.31-3.53,2.23-.82.66-1.55,1.41-2.3,2.35-.58.66-1,1.38-1.33,1.96-.58,1.01-1.03,2.13-1.47,3.64-.17.58-.3,1.25-.39,1.98-.12.76-.12,1.43-.13,2.02,0,1.21.14,2.5.44,3.85v.06s.03.06.03.06c.3,1.13.69,2.18,1.07,3.2l.04.1c.51,1.23,1.12,2.43,1.75,3.45,1.42,2.32,3.2,4.55,5.15,6.43,1.2,1.16,2.31,2.1,3.39,2.88,1.64,1.24,3.07,2.17,4.51,2.93,1.44.83,3.07,1.59,5.16,2.4,1.55.59,3.32,1.1,5.44,1.56,1.81.39,3.65.64,5.65.76,1.34.08,2.78.14,4.26.03,1.87-.08,3.77-.33,5.64-.73,1.93-.4,3.6-.88,5.1-1.48,1.65-.66,3.21-1.39,4.63-2.18,1.5-.78,2.99-1.76,4.72-3.07,1.22-.94,2.43-2.04,3.82-3.45l.04-.04.04-.05c.58-.65,1.34-1.5,2.02-2.37l.03-.04c1.16-1.54,2.11-2.94,2.89-4.29l2.2-3.81c.24-.41-.11-.92-.58-.84Z"/><circle cx="190.08" cy="235.67" r="16.62" transform="translate(-35.3 33.49) rotate(-9.22)"/></svg>