<?xml version="1.0" encoding="UTF-8"?><svg id="Icon" xmlns="http://www.w3.org/2000/svg" viewBox="0 0 512 512"><path d="M328,201.9c-22.06,0-40,17.94-40,40v31.25c0,4.41-3.59,8-8,8s-8-3.59-8-8v-31.25c0-22.06-17.94-40-40-40s-40,17.94-40,40v31.25c0,4.41-3.59,8-8,8s-8-3.59-8-8v-55.25c0-8.84-7.16-16-16-16s-16,7.16-16,16v55.25c0,22.06,17.94,40,40,40s40-17.94,40-40v-31.25c0-4.41,3.59-8,8-8s8,3.59,8,8v31.25c0,22.06,17.94,40,40,40s40-17.94,40-40v-31.25c0-4.41,3.59-8,8-8s8,3.59,8,8v55.25c0,8.84,7.16,16,16,16s16-7.16,16-16v-55.25c0-22.06-17.94-40-40-40Z"/><path d="M428,144h-220v-16c8.84,0,16-7.16,16-16s-7.16-16-16-16h-96c-8.84,0-16,7.16-16,16s7.16,16,16,16v16h-28c-28.67,0-52,23.33-52,52v120c0,28.67,23.33,52,52,52h220v16c-8.84,0-16,7.16-16,16s7.16,16,16,16h96c8.84,0,16-7.16,16-16s-7.16-16-16-16v-16h28c28.67,0,52-23.33,52-52v-120c0-28.67-23.33-52-52-52ZM64,316v-120c0-9.66,6.88-17.74,16-19.6v159.19c-9.12-1.86-16-9.94-16-19.6ZM384,336c-8.84,0-16,7.16-16,16v32h-32v-32c0-8.84-7.16-16-16-16H112v-160h16c8.84,0,16-7.16,16-16v-32h32v32c0,8.84,7.16,16,16,16h208v160h-16ZM448,316c0,9.66-6.88,17.74-16,19.6v-159.19c9.12,1.86,16,9.94,16,19.6v120Z"/></svg>