<?xml version="1.0" encoding="UTF-8"?><svg id="Icon" xmlns="http://www.w3.org/2000/svg" viewBox="0 0 512 512"><path d="M400,480H112c-8.84,0-16-7.16-16-16s7.16-16,16-16h288c8.84,0,16,7.16,16,16s-7.16,16-16,16Z"/><path d="M208.55,416c-3.06,0-6.16-.88-8.9-2.71-7.34-4.92-9.3-14.86-4.37-22.2,16.89-25.17,24.75-45.89,24.75-65.19,0-19.3-7.87-40.01-24.75-65.18-23.05-34.27-33.78-64.4-33.78-94.82,0-30.41,10.73-60.54,33.79-94.83,4.93-7.33,14.87-9.28,22.21-4.35,7.33,4.93,9.28,14.87,4.35,22.21-19.34,28.76-28.35,53.22-28.34,76.97,0,23.76,9,48.21,28.34,76.97,20.6,30.7,30.19,57.08,30.19,83.03,0,25.95-9.59,52.33-30.18,83.02-3.09,4.6-8.15,7.09-13.3,7.09Z"/><path d="M307.02,416c-3.07,0-6.16-.88-8.9-2.71-7.34-4.92-9.3-14.86-4.37-22.2,16.89-25.17,24.75-45.89,24.75-65.19,0-19.3-7.87-40.02-24.75-65.18-23.05-34.27-33.78-64.4-33.78-94.82,0-30.41,10.73-60.54,33.79-94.83,4.93-7.33,14.87-9.28,22.21-4.35,7.33,4.93,9.28,14.87,4.35,22.21-19.34,28.76-28.35,53.22-28.34,76.97,0,23.76,9,48.21,28.34,76.97,20.6,30.7,30.19,57.08,30.19,83.03,0,25.95-9.59,52.32-30.18,83.02-3.09,4.6-8.15,7.09-13.3,7.09Z"/></svg>