<?xml version="1.0" encoding="UTF-8"?><svg id="Icon" xmlns="http://www.w3.org/2000/svg" viewBox="0 0 512 512"><polygon points="170.77 448 170.78 448 170.77 448 170.77 448"/><path d="M149.66,448c-3.06,0-6.16-.88-8.9-2.71-7.34-4.92-9.3-14.86-4.37-22.2,18.76-27.97,27.5-51.04,27.5-72.6,0-21.56-8.74-44.63-27.5-72.59-25.17-37.42-36.89-70.29-36.89-103.41,0-33.12,11.72-65.98,36.9-103.42,4.93-7.33,14.87-9.28,22.21-4.35,7.33,4.93,9.28,14.87,4.35,22.21-21.46,31.91-31.45,59.1-31.45,85.56,0,26.46,9.99,53.65,31.45,85.56,22.47,33.49,32.93,62.23,32.94,90.44,0,28.21-10.46,56.94-32.93,90.43-3.09,4.6-8.15,7.09-13.3,7.09Z"/><path d="M257.97,448c-3.06,0-6.16-.88-8.9-2.71-7.34-4.92-9.3-14.86-4.37-22.2,18.76-27.97,27.5-51.04,27.5-72.6,0-21.56-8.74-44.63-27.5-72.59-25.17-37.42-36.89-70.29-36.89-103.41,0-33.12,11.72-65.98,36.9-103.42,4.93-7.33,14.87-9.28,22.21-4.35,7.33,4.93,9.28,14.87,4.35,22.21-21.46,31.91-31.45,59.1-31.45,85.56,0,26.46,9.99,53.65,31.45,85.56,22.47,33.49,32.93,62.22,32.94,90.44,0,28.21-10.46,56.94-32.93,90.43-3.09,4.6-8.15,7.09-13.3,7.09Z"/><path d="M366.27,448c-3.06,0-6.16-.88-8.9-2.71-7.34-4.92-9.3-14.86-4.37-22.2,18.76-27.97,27.5-51.04,27.5-72.6,0-21.56-8.74-44.63-27.5-72.59-25.17-37.42-36.89-70.29-36.89-103.41,0-33.12,11.72-65.98,36.9-103.42,4.93-7.33,14.87-9.28,22.21-4.35,7.33,4.93,9.28,14.87,4.35,22.21-21.46,31.91-31.45,59.1-31.45,85.56,0,26.46,9.99,53.65,31.45,85.56,22.47,33.49,32.93,62.22,32.94,90.44,0,28.21-10.46,56.94-32.93,90.43-3.09,4.6-8.15,7.09-13.3,7.09Z"/></svg>