<?xml version="1.0" encoding="UTF-8"?><svg id="Icon" xmlns="http://www.w3.org/2000/svg" viewBox="0 0 512 512"><path d="M414.39,97.61c-42.31-42.31-98.56-65.61-158.39-65.61s-116.08,23.3-158.39,65.61c-42.31,42.31-65.61,98.56-65.61,158.39s23.3,116.08,65.61,158.39c42.31,42.31,98.56,65.61,158.39,65.61s116.08-23.3,158.39-65.61,65.61-98.56,65.61-158.39-23.3-116.08-65.61-158.39ZM256.13,392h-.27c-10.97,0-19.87-8.96-19.87-20s8.89-20,19.87-20h.27c10.97,0,19.87,8.96,19.87,20s-8.89,20-19.87,20ZM272,275.68v28.32c0,8.84-7.16,16-16,16s-16-7.16-16-16v-38.84c-.01-1.35.14-2.71.48-4.05,1.38-5.51,5.49-9.69,10.59-11.34,11.33-3.94,42.92-19.48,42.92-39.98.02-16.77-10.57-31.76-26.37-37.31-20.53-7.22-43.11,3.6-50.33,24.13-2.93,8.33-12.07,12.71-20.4,9.78-8.34-2.93-12.72-12.07-9.78-20.4,13.08-37.17,53.96-56.78,91.13-43.7,28.61,10.06,47.8,37.2,47.75,67.52,0,36.16-35.47,57.31-53.99,65.88Z"/></svg>