<?xml version="1.0" encoding="UTF-8"?><svg id="Icon" xmlns="http://www.w3.org/2000/svg" viewBox="0 0 512 512"><path d="M256,480c59.83,0,116.08-23.3,158.39-65.61s65.61-98.56,65.61-158.39-23.3-116.08-65.61-158.39c-42.31-42.31-98.56-65.61-158.39-65.61s-116.08,23.3-158.39,65.61c-42.31,42.31-65.61,98.56-65.61,158.39s23.3,116.08,65.61,158.39c42.31,42.31,98.56,65.61,158.39,65.61ZM132.09,402.54l66.03-66.03c16.3,11.75,36.3,18.69,57.88,18.69s41.58-6.94,57.88-18.69l66.03,66.03c-33.47,28.34-76.72,45.46-123.91,45.46s-90.44-17.12-123.91-45.46ZM323.2,256c0,37.05-30.15,67.2-67.2,67.2s-67.2-30.15-67.2-67.2,30.15-67.2,67.2-67.2,67.2,30.15,67.2,67.2ZM402.54,379.91l-66.03-66.03c11.75-16.3,18.69-36.3,18.69-57.88s-6.94-41.58-18.69-57.88l63.09-63.09s0,0,0,0l2.93-2.93c28.34,33.47,45.46,76.72,45.46,123.91s-17.12,90.44-45.46,123.91ZM379.91,109.46l-66.03,66.03c-16.3-11.75-36.3-18.69-57.88-18.69s-41.58,6.94-57.88,18.69l-66.03-66.03c33.47-28.34,76.72-45.46,123.91-45.46s90.44,17.12,123.91,45.46ZM109.46,132.09l66.03,66.03c-11.75,16.3-18.69,36.3-18.69,57.88s6.94,41.58,18.69,57.88l-66.03,66.03c-28.34-33.47-45.46-76.72-45.46-123.91s17.12-90.44,45.46-123.91Z"/></svg>