<?xml version="1.0" encoding="UTF-8"?><svg id="Icon" xmlns="http://www.w3.org/2000/svg" viewBox="0 0 512 512"><path d="M256,32c-59.83,0-116.08,23.3-158.39,65.61-42.31,42.31-65.61,98.56-65.61,158.39s23.3,116.08,65.61,158.39c42.31,42.31,98.56,65.61,158.39,65.61s116.08-23.3,158.39-65.61,65.61-98.56,65.61-158.39-23.3-116.08-65.61-158.39c-42.31-42.31-98.56-65.61-158.39-65.61ZM256,448c-105.87,0-192-86.13-192-192S150.13,64,256,64s192,86.13,192,192-86.13,192-192,192Z"/><path d="M256.13,352h-.27c-10.97,0-19.87,8.96-19.87,20s8.89,20,19.87,20h.27c10.97,0,19.87-8.96,19.87-20s-8.89-20-19.87-20Z"/><path d="M278.24,142.28c-37.17-13.08-78.06,6.53-91.13,43.7-2.93,8.34,1.45,17.47,9.78,20.4,8.34,2.93,17.47-1.45,20.4-9.78,7.22-20.53,29.8-31.35,50.33-24.13,15.8,5.56,26.39,20.54,26.37,37.31,0,20.51-31.59,36.05-42.92,39.98-5.1,1.66-9.22,5.84-10.59,11.34-.34,1.34-.49,2.71-.48,4.05v38.84c0,8.84,7.16,16,16,16s16-7.16,16-16v-28.32c18.52-8.58,53.99-29.73,53.99-65.88.05-30.32-19.14-57.46-47.75-67.52Z"/></svg>