<?xml version="1.0" encoding="UTF-8"?><svg id="Icon" xmlns="http://www.w3.org/2000/svg" viewBox="0 0 512 512"><path d="M439,140.53l-176-101.61c-4.95-2.86-11.05-2.86-16,0l-176,101.61c-4.95,2.86-8,8.14-8,13.86v203.23c0,5.72,3.05,11,8,13.86l176,101.61c2.48,1.43,5.24,2.14,8,2.14s5.52-.71,8-2.14l176-101.61c4.95-2.86,8-8.14,8-13.86v-203.23c0-5.72-3.05-11-8-13.86ZM191,320c0,8.84-7.16,16-16,16s-16-7.16-16-16v-128c0-8.84,7.16-16,16-16s16,7.16,16,16v128ZM271,352c0,8.84-7.16,16-16,16s-16-7.16-16-16v-192c0-8.84,7.16-16,16-16s16,7.16,16,16v192ZM351,320c0,8.84-7.16,16-16,16s-16-7.16-16-16v-128c0-8.84,7.16-16,16-16s16,7.16,16,16v128Z"/></svg>