<?xml version="1.0" encoding="UTF-8"?><svg id="Icon" xmlns="http://www.w3.org/2000/svg" viewBox="0 0 512 512"><path d="M256,475.23c-2.76,0-5.52-.71-8-2.14l-176-101.61c-4.95-2.86-8-8.14-8-13.86v-203.23c0-5.72,3.05-11,8-13.86L248,38.92c4.95-2.86,11.05-2.86,16,0l176,101.61c4.95,2.86,8,8.14,8,13.86v203.23c0,5.72-3.05,11-8,13.86l-176,101.61c-2.48,1.43-5.24,2.14-8,2.14ZM96,348.38l160,92.38,160-92.38v-184.75l-160-92.38-160,92.38v184.75Z"/><path d="M256,368c-8.84,0-16-7.16-16-16v-192c0-8.84,7.16-16,16-16s16,7.16,16,16v192c0,8.84-7.16,16-16,16Z"/><path d="M336,336c-8.84,0-16-7.16-16-16v-128c0-8.84,7.16-16,16-16s16,7.16,16,16v128c0,8.84-7.16,16-16,16Z"/><path d="M176,336c-8.84,0-16-7.16-16-16v-128c0-8.84,7.16-16,16-16s16,7.16,16,16v128c0,8.84-7.16,16-16,16Z"/></svg>