<?xml version="1.0" encoding="UTF-8"?><svg id="Icon" xmlns="http://www.w3.org/2000/svg" viewBox="0 0 512 512"><path d="M448,279.47v-125.09c0-5.72-3.05-11-8-13.86l-176-101.61c-4.95-2.86-11.05-2.86-16,0l-176,101.61c-4.95,2.86-8,8.14-8,13.86v203.23c0,5.72,3.05,11,8,13.86l176,101.61c2.48,1.43,5.24,2.14,8,2.14s5.52-.71,8-2.14l30.85-17.81c5.09,5.83,13.55,11.53,27.24,16.1,16.68,5.57,38.62,8.63,61.8,8.63s45.13-3.07,61.8-8.63c28.35-9.46,34.3-23.75,34.3-34.07v-124.6c0-10.01-5.63-23.76-32-33.23ZM192,320c0,8.84-7.16,16-16,16s-16-7.16-16-16v-128c0-8.84,7.16-16,16-16s16,7.16,16,16v128ZM272,352c0,8.84-7.16,16-16,16s-16-7.16-16-16v-192c0-8.84,7.16-16,16-16s16,7.16,16,16v192ZM444.57,312.7c-8.89,4.75-30.04,10.7-60.67,10.7s-51.78-5.95-60.67-10.7c8.89-4.75,30.04-10.7,60.67-10.7s51.78,5.95,60.67,10.7ZM320,192c0-8.84,7.16-16,16-16s16,7.16,16,16v48c0,8.84-7.16,16-16,16s-16-7.16-16-16v-48ZM448,435.08c-5.44,4.82-28.26,12.92-64.1,12.92s-58.66-8.1-64.1-12.92v-26.81c.75.27,1.51.54,2.3.8,16.68,5.57,38.62,8.63,61.8,8.63s45.13-3.07,61.8-8.63c.78-.26,1.55-.53,2.3-.8v26.81ZM448,372.78c-5.42,4.82-28.23,12.92-64.1,12.92s-58.68-8.11-64.1-12.92v-26.85c.78.28,1.58.56,2.4.83,16.72,5.57,38.63,8.64,61.7,8.64s44.98-3.07,61.7-8.64c.82-.27,1.62-.55,2.4-.83v26.85Z"/></svg>