<?xml version="1.0" encoding="UTF-8"?><svg id="Icon" xmlns="http://www.w3.org/2000/svg" viewBox="0 0 512 512"><path d="M35.41,246c-4.68,5.84-4.68,14.15,0,20,10.84,13.54,28.99,33.93,53.92,54.19,52.09,42.34,107.69,63.81,165.24,63.81,28.83,0,57.65-5.48,85.66-16.29,1.15-.44,2.21-1.01,3.18-1.67l77.27,77.27c3.12,3.12,7.22,4.69,11.31,4.69s8.19-1.56,11.31-4.69c6.25-6.25,6.25-16.38,0-22.63l-210.07-210.07s0,0,0,0L91.31,68.69c-6.25-6.25-16.38-6.25-22.63,0-6.25,6.25-6.25,16.38,0,22.63l68.19,68.19c-16.12,8.9-32.09,19.74-47.55,32.3-24.93,20.26-43.08,40.66-53.92,54.2ZM225.09,247.71l39.2,39.2c-2.67.71-5.45,1.09-8.29,1.09-17.65,0-32-14.36-32-32,0-2.84.38-5.62,1.09-8.29ZM157.24,184.88c1.09-.57,2.08-1.26,2.98-2.03l40.63,40.63c-5.77,9.75-8.85,20.9-8.85,32.52,0,35.29,28.71,64,64,64,11.62,0,22.77-3.08,32.52-8.85l30.27,30.27c-21.16,7.02-42.71,10.59-64.21,10.59-50.01,0-98.82-19.06-145.05-56.64-17.53-14.25-31.4-28.69-40.74-39.36,9.34-10.67,23.21-25.12,40.74-39.36,15.56-12.65,31.62-23.33,47.72-31.76Z"/><path d="M401.31,295.17c-2.64,2.11-5.33,4.19-7.99,6.19-7.07,5.3-8.5,15.33-3.2,22.4,3.14,4.19,7.95,6.4,12.81,6.4,3.34,0,6.71-1.04,9.59-3.2,2.92-2.19,5.86-4.47,8.75-6.77,25.28-20.18,43.85-40.5,54.98-54,4.87-5.91,4.87-14.45,0-20.36-11.12-13.49-29.69-33.81-54.98-54-53.06-42.35-109.14-63.82-166.7-63.82-8.19,0-16.47.45-24.6,1.32-8.79.95-15.14,8.84-14.19,17.63.95,8.79,8.83,15.14,17.63,14.19,7-.76,14.12-1.14,21.17-1.14,50.12,0,99.49,19.12,146.74,56.83,17.73,14.16,31.88,28.51,41.47,39.17-9.59,10.65-23.73,25.01-41.47,39.17Z"/></svg>