<?xml version="1.0" encoding="UTF-8"?><svg id="Icon" xmlns="http://www.w3.org/2000/svg" viewBox="0 0 512 512"><path d="M319.88,252.25l82.22,82.22c6.43-4.47,12.83-9.23,19.17-14.3,25.29-20.19,43.85-40.5,54.98-54,4.87-5.91,4.87-14.44,0-20.36-11.12-13.49-29.69-33.81-54.98-54-53.05-42.35-109.14-63.82-166.7-63.82-17.8,0-35.41,2.06-52.8,6.15l57.97,57.97c32.31,1.88,58.26,27.82,60.14,60.14Z"/><path d="M443.31,420.69L91.31,68.69c-6.25-6.25-16.38-6.25-22.62,0-6.25,6.24-6.25,16.38,0,22.62l68.19,68.19c-16.13,8.89-32,19.67-47.55,32.31-24.93,20.26-43.08,40.65-53.92,54.19-4.68,5.85-4.68,14.15,0,20,10.84,13.54,28.99,33.93,53.92,54.19,52.09,42.34,107.69,63.81,165.24,63.81,30.2,0,59.99-5.92,89.15-17.66l76.97,76.97c3.12,3.13,7.21,4.69,11.31,4.69s8.19-1.56,11.31-4.69c6.25-6.24,6.25-16.38,0-22.62ZM256,320c-35.29,0-64-28.71-64-64,0-11.85,3.24-22.96,8.89-32.49l24.2,24.2c-.71,2.64-1.09,5.42-1.09,8.29,0,17.64,14.36,32,32,32,2.87,0,5.64-.38,8.29-1.09l24.2,24.2c-9.53,5.65-20.64,8.89-32.49,8.89Z"/></svg>