<?xml version="1.0" encoding="UTF-8"?><svg id="Icon" xmlns="http://www.w3.org/2000/svg" viewBox="0 0 512 512"><path d="M399.82,176h-63.82v-16c0-26.47-21.53-48-48-48h-64c-26.47,0-48,21.53-48,48v16h-63.82c-26.57,0-48.18,21.53-48.18,48v176c0,26.47,21.61,48,48.18,48h287.63c26.57,0,48.18-21.53,48.18-48v-176c0-26.47-21.61-48-48.18-48ZM208,160c0-8.82,7.18-16,16-16h64c8.82,0,16,7.18,16,16v16h-96v-16ZM112.18,416c-8.92,0-16.18-7.18-16.18-16v-176c0-8.82,7.26-16,16.18-16h63.82v208h-63.82ZM208,416v-208h96v208h-96ZM416,400c0,8.82-7.26,16-16.18,16h-63.82v-208h63.82c8.92,0,16.18,7.18,16.18,16v176Z"/></svg>