<svg id="Icon" xmlns="http://www.w3.org/2000/svg" viewBox="0 0 512 512">
  <path d="M404.64,179.6,271.21,70.41a24.13,24.13,0,0,0-30.39,0L107.35,179.6A52.64,52.64,0,0,0,88,220.47V371.2A52.86,52.86,0,0,0,140.8,424H371.2A52.86,52.86,0,0,0,424,371.2V220.47A52.62,52.62,0,0,0,404.64,179.6ZM296,400H216V287.93h80Zm104-28.8A28.83,28.83,0,0,1,371.2,400H320V275.93a12,12,0,0,0-12-12H204a12,12,0,0,0-12,12V400H140.8A28.83,28.83,0,0,1,112,371.2V220.47a28.72,28.72,0,0,1,10.55-22.29L256,89,389.44,198.17A28.74,28.74,0,0,1,400,220.47Z"/>
</svg>
