<?xml version="1.0" encoding="UTF-8"?><svg id="Icon" xmlns="http://www.w3.org/2000/svg" viewBox="0 0 512 512"><path d="M425.25,167.91l-150.54-123.19c-10.81-8.83-26.53-8.84-37.4.01l-150.57,123.18c-14.46,11.83-22.74,29.33-22.74,48.01v184.08c0,26.46,21.53,48,48,48h96v-160h96v160h96c26.46,0,48-21.54,48-48v-184.08c0-18.68-8.29-36.18-22.75-48.01ZM416,400c0,8.82-7.18,16-16,16h-64v-144c0-8.84-7.17-16-16-16h-128c-8.84,0-16,7.16-16,16v144h-64c-8.83,0-16-7.18-16-16v-184.08c0-9.05,4.01-17.52,11.01-23.25l149-121.9,148.97,121.9c7,5.73,11.02,14.2,11.02,23.25v184.08Z"/></svg>