<?xml version="1.0" encoding="UTF-8"?><svg id="Icon" xmlns="http://www.w3.org/2000/svg" viewBox="0 0 512 512"><path d="M215.79,176.16c-2.27-3-4.95-5.68-7.95-7.95l-99.53-99.53c-6.25-6.25-16.38-6.25-22.63,0-6.25,6.25-6.25,16.38,0,22.63l68.69,68.69h-81.76c-22.4,0-40.62,18.22-40.62,40.62v110.77c0,22.4,18.22,40.62,40.62,40.62h110.77c22.4,0,40.62-18.22,40.62-40.62v-7.85l98.93,25.03,114.75,114.75c3.12,3.12,7.22,4.69,11.31,4.69s8.19-1.56,11.31-4.69c6.25-6.25,6.25-16.38,0-22.63l-244.53-244.53ZM192,311.38c0,4.75-3.86,8.62-8.62,8.62h-110.77c-4.75,0-8.62-3.87-8.62-8.62v-110.77c0-4.75,3.86-8.62,8.62-8.62h110.77c1.43,0,2.77.35,3.96.97l3.68,3.68c.62,1.19.97,2.53.97,3.96v110.77ZM224,270.52v-36.02l4-.88,50.74,50.74-54.74-13.85Z"/><path d="M475.15,154.03c-3.85-3.65-9.25-5.16-14.43-4.03l-169.08,36.96c-8.63,1.89-14.1,10.42-12.21,19.05s10.42,14.1,19.05,12.21l146.04-31.93-22.16,134.4-20.49-5.18c-8.57-2.17-17.27,3.02-19.44,11.59-2.17,8.57,3.02,17.27,11.59,19.44l37.37,9.45c1.29.33,2.61.49,3.92.49,3.09,0,6.14-.89,8.77-2.61,3.75-2.45,6.29-6.36,7.02-10.78l28.83-174.85c.86-5.23-.92-10.55-4.77-14.21Z"/></svg>