<?xml version="1.0" encoding="UTF-8"?><svg id="Icon" xmlns="http://www.w3.org/2000/svg" viewBox="0 0 512 512"><path d="M475.15,154.03c-3.85-3.65-9.25-5.16-14.43-4.03l-236.71,51.75v-1.13c0-22.4-18.22-40.62-40.62-40.62h-110.77c-22.4,0-40.62,18.22-40.62,40.62v110.77c0,22.4,18.22,40.62,40.62,40.62h110.77c22.4,0,40.62-18.22,40.62-40.62v-7.85l207.38,52.46c1.29.33,2.61.49,3.92.49,3.09,0,6.14-.89,8.77-2.61,3.75-2.45,6.29-6.36,7.02-10.78l28.83-174.85c.86-5.23-.92-10.55-4.77-14.21ZM192,311.38c0,4.75-3.86,8.62-8.62,8.62h-110.77c-4.75,0-8.62-3.87-8.62-8.62v-110.77c0-4.75,3.86-8.62,8.62-8.62h110.77c4.75,0,8.62,3.86,8.62,8.62v110.77ZM422.35,320.7l-198.35-50.18v-36.02l220.51-48.2-22.16,134.4Z"/></svg>