<?xml version="1.0" encoding="UTF-8"?><svg id="Icon" xmlns="http://www.w3.org/2000/svg" viewBox="0 0 512 512"><path d="M215.79,176.16c-2.27-3-4.95-5.68-7.95-7.95l-99.53-99.53c-6.25-6.25-16.38-6.25-22.63,0-6.25,6.25-6.25,16.38,0,22.63l68.69,68.69h-81.76c-22.4,0-40.62,18.22-40.62,40.62v110.77c0,22.4,18.22,40.62,40.62,40.62h110.77c22.4,0,40.62-18.22,40.62-40.62v-7.85l98.93,25.03,114.75,114.75c3.12,3.12,7.22,4.69,11.31,4.69s8.19-1.56,11.31-4.69c6.25-6.25,6.25-16.38,0-22.63l-244.53-244.53Z"/><path d="M444.07,353.87c3.75-2.45,6.29-6.36,7.02-10.78l28.83-174.85c.86-5.23-.92-10.55-4.77-14.21-3.85-3.65-9.25-5.16-14.43-4.03l-185.53,40.56,165.11,165.11c1.32-.43,2.59-1.03,3.77-1.8Z"/><path d="M206.91,167.54l9.54,9.54c-2.63-3.69-5.86-6.91-9.54-9.54Z"/></svg>