<?xml version="1.0" encoding="UTF-8"?><svg id="Icon" xmlns="http://www.w3.org/2000/svg" viewBox="0 0 512 512"><circle cx="384" cy="416" r="32"/><circle cx="128" cy="416" r="32"/><path d="M88.25,206l86.71,48c2.37,1.31,5.04,2,7.75,2h233.29c8.84,0,16-7.16,16-16s-7.16-16-16-16h-229.15l-83.1-46c-7.73-4.28-17.47-1.48-21.75,6.25-4.28,7.73-1.48,17.47,6.25,21.75Z"/><path d="M464,208c-8.84,0-16,7.16-16,16v48H64v-128c0-8.84-7.16-16-16-16s-16,7.16-16,16v144c0,8.84,7.16,16,16,16h122.2l52.15,28.19-54.36,29.38c-7.77,4.2-10.67,13.91-6.47,21.68,2.89,5.36,8.4,8.4,14.09,8.4,2.57,0,5.18-.62,7.59-1.93l72.79-39.35,72.79,39.35c2.42,1.31,5.03,1.93,7.59,1.93,5.69,0,11.19-3.04,14.09-8.4,4.2-7.77,1.31-17.48-6.47-21.68l-54.36-29.38,52.15-28.19h122.2c8.84,0,16-7.16,16-16v-64c0-8.84-7.16-16-16-16ZM256,314l-18.5-10h37l-18.5,10Z"/><path d="M336,112h32v32c0,8.84,7.16,16,16,16s16-7.16,16-16v-32h32c8.84,0,16-7.16,16-16s-7.16-16-16-16h-32v-32c0-8.84-7.16-16-16-16s-16,7.16-16,16v32h-32c-8.84,0-16,7.16-16,16s7.16,16,16,16Z"/></svg>