<?xml version="1.0" encoding="UTF-8"?><svg id="Icon" xmlns="http://www.w3.org/2000/svg" viewBox="0 0 512 512"><path d="M311.4,190.78c-8.29-9.91-17.5-19.67-27.36-29.01-3.19-3.02-6.25-5.81-9.08-8.28-1.98-1.74-3.18-2.75-3.72-3.19l-.82-.64c-.3-.23-.61-.45-.93-.67l-.68-.44c-.09-.06-.19-.12-.28-.18h0s-.71-.42-.71-.42c-.71-.41-1.46-.79-2.21-1.11l-1.15-.46-1.62-.55c-.45-.13-.9-.25-1.42-.38l-.76-.17c-.4-.08-.79-.14-1.21-.2-.67-.1-1.35-.17-2.03-.21-.46-.03-.93-.05-1.41-.05l-1.3.04c-.71.04-1.41.11-2.1.21-.4.05-.8.12-1.2.19l-.91.2c-.43.1-.85.21-1.27.34l-.36.11c-.25.08-.5.16-.75.24l-.26.09c-.42.16-.84.32-1.26.5l-.37.16c-.54.24-1.07.5-1.62.8l-.51.29c-.27.16-.54.32-.81.49-.58.36-1.14.75-1.67,1.16-.04.03-.07.05-.11.08l-.71.55c-.54.45-1.74,1.45-3.69,3.16-2.86,2.49-5.93,5.29-9.1,8.3-9.88,9.34-19.09,19.11-27.38,29.02-22.44,26.85-36.17,52.56-40.81,76.4-1.18,6.09-1.79,12.13-1.79,17.95v.02c0,54.04,43.96,98,98,98,25.63,0,49.88-9.83,68.27-27.69,18.35-17.82,28.89-41.68,29.69-67.21l.05-3.1c0-5.83-.6-11.88-1.79-17.98-4.64-23.84-18.37-49.55-40.82-76.4ZM321.96,287.38c-.56,17.13-7.66,33.16-19.99,45.13-12.38,12.02-28.71,18.65-45.97,18.65-36.36,0-65.95-29.55-66-65.9v-.13s0,0,0,0c0-3.77.41-7.75,1.2-11.83,3.6-18.48,15.02-39.34,33.96-61.99,7.49-8.96,15.84-17.81,24.83-26.31,2.08-1.97,4.09-3.83,6.02-5.55,1.92,1.72,3.94,3.58,6.03,5.56,8.98,8.49,17.33,17.34,24.81,26.29,18.93,22.66,30.36,43.52,33.96,62,.79,4.04,1.19,8,1.2,11.74l-.04,2.34Z"/><path d="M259.59,308.13c-14.96-6.65-22.46-15.99-24.32-30.3-.85-6.57-6.87-11.22-13.44-10.36-6.57.85-11.21,6.87-10.36,13.44,2.93,22.59,15.84,39.13,38.37,49.14,1.59.7,3.24,1.04,4.87,1.04,4.6,0,8.99-2.66,10.97-7.13,2.69-6.06-.04-13.15-6.09-15.84Z"/><path d="M425.25,167.91l-150.54-123.19c-10.81-8.83-26.53-8.84-37.4,0l-150.57,123.18c-14.45,11.83-22.74,29.33-22.74,48.01v184.08c0,26.47,21.53,48,48,48h288c26.47,0,48-21.53,48-48v-184.08c0-18.68-8.29-36.18-22.75-48.01ZM416,400c0,8.82-7.18,16-16,16H112c-8.82,0-16-7.18-16-16v-184.08c0-9.04,4.01-17.52,11.01-23.25l149.01-121.9,148.97,121.9c7,5.73,11.01,14.21,11.01,23.25v184.08Z"/></svg>