<?xml version="1.0" encoding="UTF-8"?><svg id="Icon" xmlns="http://www.w3.org/2000/svg" viewBox="0 0 512 512"><path d="M328.63,227.32c16.73-16.24,26.34-38.01,27.07-61.28l.04-2.83c0-5.32-.55-10.84-1.63-16.4-4.21-21.61-16.61-44.86-36.87-69.11-7.46-8.92-15.74-17.7-24.61-26.09-2.86-2.71-5.62-5.22-8.17-7.45-1.58-1.39-2.73-2.36-3.37-2.89l-.75-.59c-.28-.21-.57-.42-.86-.62l-.44-.32-.38-.22c-.06-.04-.12-.08-.18-.11h0s-.67-.39-.67-.39c-.7-.4-1.42-.76-2.15-1.08l-2.68-.98c-.44-.13-.88-.24-1.36-.36l-.69-.15c-.4-.08-.81-.14-1.22-.2-.64-.09-1.29-.16-1.94-.2-.45-.03-.9-.04-1.37-.04l-1.26.04c-.68.03-1.36.1-2.02.2-.4.05-.8.12-1.2.2l-.82.18c-.42.1-.83.21-1.25.33l-.35.11c-.24.07-.48.15-.72.23l-.26.09c-.39.14-.78.3-1.17.46l-.39.17c-.52.23-1.03.49-1.52.75l-.57.32c-.26.15-.52.3-.78.47-.55.34-1.08.71-1.59,1.1-.03.02-.06.05-.09.07l-.7.55c-.64.53-1.79,1.5-3.34,2.86-2.57,2.24-5.33,4.76-8.19,7.47-8.88,8.41-17.17,17.19-24.62,26.1-20.26,24.24-32.66,47.49-36.87,69.11-1.08,5.55-1.63,11.07-1.63,16.38v.02c0,49.27,40.08,89.35,89.35,89.35,23.37,0,45.48-8.97,62.24-25.25ZM209.03,163.47l-1.52-.04h1.52s0,.04,0,.04ZM209.03,163.32v-.09s0,0,0,0l-.8-.02h.8c0-3.27.35-6.74,1.04-10.29,3.16-16.25,13.26-34.65,30.01-54.7,6.66-7.96,14.08-15.83,22.07-23.39,1.45-1.37,2.86-2.68,4.23-3.92,1.37,1.24,2.78,2.55,4.24,3.93,7.98,7.55,15.4,15.42,22.06,23.38,16.75,20.05,26.85,38.45,30.02,54.7.68,3.51,1.03,6.93,1.04,10.18l-.03,2.06c-.5,14.88-6.66,28.8-17.37,39.2-10.76,10.45-24.95,16.2-39.95,16.2-31.59,0-57.29-25.67-57.35-57.25Z"/><path d="M149.48,427.93c23.37,0,45.48-8.97,62.24-25.25,16.73-16.24,26.34-38.01,27.07-61.28l.04-2.83c0-5.32-.55-10.84-1.63-16.4-4.21-21.61-16.61-44.86-36.87-69.11-7.45-8.92-15.74-17.7-24.61-26.09-2.86-2.71-5.62-5.22-8.17-7.45-1.58-1.39-2.73-2.36-3.37-2.89l-.75-.59c-.28-.21-.57-.42-.86-.62l-.44-.32-.38-.22c-.06-.04-.12-.08-.18-.11h0s-.67-.39-.67-.39c-.7-.4-1.42-.76-2.15-1.08l-2.65-.97c-.45-.13-.89-.25-1.4-.37l-.69-.15c-.4-.08-.8-.14-1.21-.2-.64-.1-1.29-.16-1.94-.2-.45-.03-.91-.04-1.38-.04l-1.26.04c-.69.03-1.37.1-2.03.2-.4.05-.79.12-1.19.19l-.83.18c-.43.1-.85.21-1.28.34l-.32.1c-.24.07-.48.15-.72.23l-.26.09c-.4.15-.8.31-1.21.48l-.35.15c-.53.24-1.06.5-1.55.77l-.5.28c-.27.16-.54.32-.81.49-.55.34-1.08.71-1.59,1.1-.03.02-.06.05-.09.07l-.7.55c-.64.53-1.79,1.5-3.34,2.86-2.58,2.25-5.34,4.77-8.19,7.47-8.88,8.4-17.17,17.19-24.62,26.11-20.26,24.24-32.66,47.49-36.87,69.11-1.08,5.55-1.63,11.07-1.63,16.38v.02c0,49.27,40.08,89.35,89.35,89.35ZM92.13,338.58c0-3.27.35-6.74,1.04-10.29,3.16-16.25,13.26-34.65,30.01-54.7,6.66-7.96,14.08-15.83,22.07-23.39,1.45-1.37,2.86-2.68,4.23-3.92,1.37,1.24,2.78,2.55,4.24,3.93,7.98,7.55,15.41,15.42,22.06,23.38,16.75,20.05,26.85,38.45,30.02,54.7.68,3.51,1.03,6.94,1.04,10.18l-.03,2.06c-.49,14.88-6.66,28.8-17.37,39.21-10.76,10.45-24.95,16.2-39.95,16.2-31.59,0-57.3-25.67-57.35-57.25v-.09s0,0,0,0l-.8-.02h.8ZM92.12,338.8v.03s-1.52-.04-1.52-.04h1.52Z"/><path d="M450.87,362.65c0-5.32-.55-10.84-1.63-16.4-4.21-21.61-16.61-44.86-36.87-69.11-7.45-8.91-15.74-17.7-24.61-26.09-2.86-2.71-5.62-5.22-8.17-7.45-1.58-1.39-2.73-2.36-3.37-2.89l-.79-.62c-.28-.21-.56-.41-.84-.61l-.43-.31-.37-.21c-.06-.04-.12-.08-.18-.11h0s-.7-.41-.7-.41c-.69-.39-1.4-.75-2.11-1.06l-2.63-.96c-.44-.13-.89-.25-1.4-.37l-.72-.16c-.4-.08-.8-.14-1.2-.2-.63-.09-1.28-.16-1.93-.2-.45-.03-.91-.04-1.38-.04l-1.26.04c-.68.03-1.36.1-2.02.2-.4.06-.8.12-1.2.2l-.83.18c-.42.1-.84.21-1.26.34l-.34.11c-.24.07-.48.15-.71.23l-.24.08c-.41.15-.82.31-1.24.49l-.35.15c-.53.24-1.06.5-1.55.77l-.53.3c-.25.15-.51.3-.76.46-.55.35-1.09.71-1.6,1.1-.03.02-.06.05-.09.07l-.71.56c-.64.53-1.79,1.5-3.34,2.86-2.58,2.25-5.34,4.77-8.19,7.47-8.89,8.41-17.17,17.19-24.62,26.1-20.26,24.24-32.66,47.49-36.87,69.11-1.08,5.56-1.63,11.08-1.63,16.4,0,49.27,40.08,89.35,89.35,89.35,23.37,0,45.48-8.97,62.24-25.25,16.73-16.24,26.34-38.01,27.07-61.28l.04-2.83ZM418.84,364.59c-.49,14.88-6.66,28.8-17.37,39.21-10.76,10.45-24.95,16.2-39.95,16.2-31.59,0-57.29-25.67-57.35-57.25v-.09s0,0,0,0l-1.17-.02h1.17c0-3.27.35-6.74,1.04-10.29,3.16-16.25,13.26-34.65,30.01-54.7,6.66-7.96,14.08-15.83,22.07-23.39,1.45-1.37,2.86-2.68,4.23-3.92,1.37,1.24,2.78,2.55,4.24,3.93,7.98,7.55,15.41,15.42,22.06,23.38,16.75,20.05,26.85,38.45,30.01,54.7.68,3.51,1.03,6.94,1.04,10.18l-.03,2.06Z"/></svg>