<?xml version="1.0" encoding="UTF-8"?><svg id="Icon" xmlns="http://www.w3.org/2000/svg" viewBox="0 0 512 512"><path d="M208,240h-48v-48c0-8.84-7.16-16-16-16s-16,7.16-16,16v48h-48c-8.84,0-16,7.16-16,16s7.16,16,16,16h48v48c0,8.84,7.16,16,16,16s16-7.16,16-16v-48h48c8.84,0,16-7.16,16-16s-7.16-16-16-16Z"/><path d="M446.83,258.68c-4.31-22.12-17.01-45.92-37.76-70.75-7.64-9.14-16.14-18.15-25.23-26.75-2.93-2.78-5.76-5.36-8.38-7.64-1.83-1.6-2.95-2.54-3.46-2.96l-.76-.6c-.29-.22-.59-.44-.9-.65l-.44-.32-.37-.21c-.06-.03-.11-.07-.17-.1h0s-.7-.41-.7-.41c-.7-.4-1.42-.77-2.15-1.08l-2.7-.98c-.42-.12-.85-.24-1.34-.36l-.72-.16c-.41-.08-.81-.15-1.22-.2-.66-.1-1.34-.17-1.95-.2-.46-.03-.92-.04-1.39-.04l-1.28.04c-.69.04-1.37.1-2.03.2-.41.06-.82.12-1.22.2l-.81.18c-.42.1-.83.21-1.24.33l-.36.11c-.25.08-.49.16-.73.24l-.28.1c-.4.15-.8.31-1.21.48l-.34.15c-.53.24-1.05.5-1.54.76l-.59.33c-.26.15-.52.3-.78.47-.56.35-1.1.72-1.61,1.11-.03.02-.06.05-.1.07l-.7.55c-.51.42-1.63,1.36-3.42,2.93-2.65,2.31-5.47,4.89-8.4,7.66-9.11,8.61-17.6,17.62-25.25,26.76-20.75,24.83-33.46,48.64-37.76,70.75-1.1,5.67-1.66,11.3-1.67,16.73v.02c0,50.35,40.96,91.31,91.31,91.31,23.88,0,46.47-9.16,63.6-25.8,17.09-16.6,26.92-38.84,27.66-62.62l.04-2.89c0-5.44-.56-11.07-1.67-16.76ZM297.88,275.68l-1.1-.03h1.1s0,.03,0,.03ZM416.47,277.45c-.51,15.39-6.89,29.78-17.96,40.54-11.13,10.81-25.8,16.76-41.31,16.76-32.67,0-59.25-26.55-59.31-59.21v-.1s0,0,0,0h-.3s.3,0,.3,0c0-3.39.36-6.97,1.08-10.64,3.26-16.75,13.66-35.71,30.9-56.34,6.85-8.19,14.48-16.28,22.7-24.05,1.59-1.51,3.13-2.94,4.63-4.29,1.49,1.35,3.04,2.79,4.64,4.3,8.2,7.76,15.84,15.85,22.68,24.04,17.25,20.64,27.64,39.6,30.91,56.34.71,3.63,1.07,7.17,1.08,10.53l-.03,2.13Z"/></svg>