<?xml version="1.0" encoding="UTF-8"?><svg id="Icon" xmlns="http://www.w3.org/2000/svg" viewBox="0 0 512 512"><path d="M414.08,308.18c-6.54-7.85-13.8-15.58-21.59-22.98-2.52-2.4-4.94-4.62-7.17-6.57-1.4-1.23-2.41-2.09-2.98-2.56l-.69-.55c-.57-.44-1.18-.86-1.81-1.25h0s-.66-.39-.66-.39c-.69-.4-1.4-.75-2.11-1.06l-2.51-.92c-.44-.13-.88-.25-1.34-.36l-.68-.15c-.37-.07-.75-.13-1.12-.19-.62-.09-1.25-.16-1.88-.19-.41-.03-.81-.04-1.23-.04h-.37s-.91.03-.91.03c-.66.03-1.31.1-1.95.19-.4.05-.79.12-1.19.19l-.79.17c-.41.1-.81.2-1.22.33l-.27.08c-.24.07-.48.15-.71.23l-.28.1c-.37.14-.74.28-1.11.44l-.36.15c-.5.22-1,.47-1.47.72l-.57.32c-.23.13-.46.27-.7.42-.53.33-1.04.68-1.53,1.05-.02.01-.04.03-.06.04l-.72.56c-.57.47-1.58,1.33-2.96,2.52-2.28,1.98-4.72,4.19-7.22,6.56-7.82,7.37-15.12,15.08-21.69,22.91-17.94,21.38-28.95,41.95-32.73,61.15-.98,4.98-1.48,9.92-1.49,14.69h0c-.09,44.11,35.73,80.07,79.84,80.16h.16c20.87,0,40.61-7.99,55.61-22.49,15.01-14.51,23.65-33.98,24.34-54.82l.04-2.53c0-4.78-.47-9.72-1.43-14.7-3.7-19.21-14.63-39.82-32.49-61.28ZM415.97,385.75c-.92,25.96-21.96,46.25-47.97,46.25h-.1c-26.45-.05-47.94-21.6-47.91-47.97v-.08s-2.47-.05-2.47-.05h2.48c0-2.72.3-5.61.89-8.58,2.72-13.83,11.42-29.56,25.84-46.75,5.77-6.88,12.21-13.67,19.14-20.2.77-.73,1.54-1.44,2.29-2.13.75.69,1.51,1.41,2.29,2.15,6.9,6.55,13.3,13.37,19.04,20.26,14.36,17.25,22.99,33.02,25.66,46.86.56,2.93.85,5.78.85,8.48l-.03,1.76Z"/><path d="M371.27,399.52c-10.73-4.8-16.1-11.46-17.39-21.61-.84-6.57-6.85-11.22-13.42-10.38-6.57.84-11.22,6.85-10.38,13.42,2.38,18.61,12.94,32.23,31.41,40.48,1.59.71,3.25,1.05,4.89,1.05,4.59,0,8.97-2.65,10.96-7.11,2.7-6.05-.01-13.15-6.06-15.85Z"/><path d="M107.09,303.71l153.6.3h.09c23.78,0,43.15-19.36,43.2-43.2l.2-100.78c.03-13.02-5.72-25.24-15.76-33.52l-88.82-73.19c-8.78-7.22-21.56-7.26-30.42-.05l-89.12,72.84c-10.07,8.24-15.86,20.43-15.89,33.45l-.2,100.79c-.05,23.87,19.29,43.32,43.11,43.37ZM96.18,159.62c0-3.41,1.52-6.59,4.14-8.74l84.02-68.67,83.73,69c2.62,2.16,4.12,5.35,4.11,8.76l-.2,100.79c-.01,6.21-5.03,11.26-11.2,11.26h-.02l-153.6-.3c-6.18-.01-11.19-5.08-11.18-11.31l.2-100.78Z"/></svg>