<?xml version="1.0" encoding="UTF-8"?><svg id="Icon" xmlns="http://www.w3.org/2000/svg" viewBox="0 0 512 512"><path d="M355.7,166.04l.04-2.83c0-5.32-.55-10.84-1.63-16.4-4.21-21.61-16.61-44.86-36.87-69.11-7.46-8.92-15.74-17.7-24.61-26.09-2.87-2.72-5.63-5.24-8.17-7.45-1.58-1.39-2.73-2.36-3.37-2.89l-.79-.62c-.27-.2-.54-.4-.82-.59l-.49-.35-.41-.23s-.08-.05-.12-.07h0s-.7-.41-.7-.41c-.69-.39-1.4-.75-2.11-1.06l-2.63-.96c-.43-.13-.86-.24-1.37-.37l-.81-.18c-.38-.07-.75-.13-1.13-.18-.65-.1-1.3-.16-1.96-.2-.45-.03-.89-.04-1.36-.04l-1.21.04c-.7.03-1.39.1-2.07.2-.38.05-.76.11-1.14.18l-.92.2c-.41.1-.81.2-1.22.33l-.31.1c-.25.08-.5.16-.74.24l-.24.08c-.42.16-.84.32-1.26.5l-.29.13c-.53.23-1.04.49-1.59.78l-.53.3c-.25.15-.5.3-.76.46-.56.35-1.09.72-1.6,1.11-.03.02-.06.05-.09.07l-.71.56c-.64.53-1.79,1.5-3.34,2.86-2.58,2.25-5.34,4.77-8.19,7.47-8.88,8.4-17.16,17.18-24.62,26.1-20.26,24.24-32.66,47.49-36.87,69.11-1.08,5.56-1.63,11.08-1.63,16.4,0,49.27,40.08,89.35,89.35,89.35,23.37,0,45.48-8.97,62.24-25.25,16.73-16.24,26.34-38.01,27.07-61.28Z"/><path d="M200.33,253.07c-7.46-8.92-15.74-17.7-24.61-26.09-2.87-2.72-5.63-5.24-8.17-7.45-1.58-1.38-2.72-2.35-3.36-2.88l-.83-.65c-.27-.2-.54-.4-.81-.58l-.48-.34-.39-.22s-.08-.05-.12-.07h0s-.71-.42-.71-.42c-.67-.39-1.37-.74-2.08-1.05l-2.66-.98c-.43-.13-.86-.24-1.37-.37l-.81-.18c-.39-.07-.77-.14-1.15-.19-.63-.09-1.28-.16-1.92-.2-.45-.03-.91-.04-1.38-.04l-1.26.04c-.68.03-1.35.1-2.01.2-.39.05-.77.11-1.16.19l-.92.2c-.41.1-.81.2-1.22.33l-.31.09c-.23.07-.46.14-.68.22l-.33.12c-.4.15-.79.31-1.19.47l-.36.16c-.53.24-1.06.5-1.55.77l-.53.3c-.26.15-.51.3-.77.46-.56.35-1.11.73-1.62,1.12-.01,0-.02.02-.03.03l-.74.58c-.64.53-1.79,1.5-3.34,2.86-2.58,2.25-5.34,4.77-8.19,7.47-8.88,8.4-17.16,17.18-24.62,26.1-20.26,24.24-32.66,47.49-36.87,69.11-1.08,5.55-1.63,11.06-1.63,16.38v.02c0,49.27,40.08,89.35,89.35,89.35,23.37,0,45.48-8.97,62.24-25.25,16.73-16.24,26.34-38.01,27.07-61.28l.04-2.83c0-5.32-.55-10.84-1.63-16.4-4.21-21.61-16.61-44.86-36.87-69.11ZM92.12,338.84l-1.52-.04h1.52s0,.04,0,.04Z"/><path d="M412.37,277.14c-7.46-8.92-15.74-17.7-24.61-26.09-2.85-2.71-5.61-5.22-8.17-7.45-1.58-1.38-2.72-2.35-3.36-2.88l-.79-.62c-.28-.21-.57-.42-.86-.62l-.42-.31-.37-.21c-.07-.05-.15-.09-.22-.14h0s-.67-.39-.67-.39c-.7-.4-1.42-.76-2.14-1.07l-2.62-.96c-.42-.13-.85-.24-1.35-.36l-.76-.17c-.4-.08-.81-.14-1.21-.2-.64-.09-1.29-.16-1.94-.2-.45-.03-.9-.04-1.37-.04l-1.25.04c-.68.03-1.35.1-2.01.2-.4.05-.79.12-1.19.19l-.91.2c-.41.1-.81.21-1.22.33l-.26.08c-.24.07-.48.15-.71.23l-.36.13c-.39.15-.78.3-1.17.47l-.32.14c-.53.24-1.06.5-1.55.76l-.57.32c-.25.14-.5.29-.75.45-.57.35-1.12.73-1.64,1.13-.01,0-.02.02-.04.03l-.75.58c-.64.53-1.78,1.5-3.33,2.86-2.59,2.26-5.35,4.77-8.19,7.47-8.88,8.4-17.17,17.19-24.62,26.1-20.26,24.24-32.66,47.49-36.87,69.11-1.08,5.55-1.63,11.06-1.63,16.38v.02c0,49.27,40.08,89.35,89.35,89.35,23.37,0,45.48-8.97,62.24-25.25,16.73-16.24,26.34-38.01,27.07-61.28l.04-2.83c0-5.33-.55-10.85-1.63-16.4-4.21-21.61-16.61-44.86-36.87-69.11ZM304.16,362.9l-1.52-.04h1.52s0,.04,0,.04Z"/></svg>