<?xml version="1.0" encoding="UTF-8"?><svg id="Icon" xmlns="http://www.w3.org/2000/svg" viewBox="0 0 512 512"><path d="M392.89,64H119.11c-30.39,0-55.11,24.72-55.11,55.11v273.78c0,30.39,24.72,55.11,55.11,55.11h273.78c30.39,0,55.11-24.72,55.11-55.11V119.11c0-30.39-24.72-55.11-55.11-55.11ZM416,392.89c0,12.74-10.37,23.11-23.11,23.11H119.11c-12.74,0-23.11-10.37-23.11-23.11V119.11c0-12.74,10.37-23.11,23.11-23.11h273.78c12.74,0,23.11,10.37,23.11,23.11v273.78Z"/><path d="M144,160h96c8.84,0,16-7.16,16-16s-7.16-16-16-16h-96c-8.84,0-16,7.16-16,16s7.16,16,16,16Z"/><path d="M144,208h24c8.84,0,16-7.16,16-16s-7.16-16-16-16h-24c-8.84,0-16,7.16-16,16s7.16,16,16,16Z"/><path d="M240,176h-24c-8.84,0-16,7.16-16,16s7.16,16,16,16h24c8.84,0,16-7.16,16-16s-7.16-16-16-16Z"/><path d="M208,320h-41.37l8.69-8.69c6.25-6.25,6.25-16.38,0-22.63-6.25-6.25-16.38-6.25-22.63,0l-36,36c-6.25,6.25-6.25,16.38,0,22.63l36,36c3.12,3.12,7.22,4.69,11.31,4.69s8.19-1.56,11.31-4.69c6.25-6.25,6.25-16.38,0-22.63l-8.69-8.69h41.37c8.84,0,16-7.16,16-16s-7.16-16-16-16Z"/><path d="M304,192h41.37l-8.69,8.69c-6.25,6.25-6.25,16.38,0,22.63,3.12,3.12,7.22,4.69,11.31,4.69s8.19-1.56,11.31-4.69l36-36c6.25-6.25,6.25-16.38,0-22.63l-36-36c-6.25-6.25-16.38-6.25-22.63,0-6.25,6.25-6.25,16.38,0,22.63l8.69,8.69h-41.37c-8.84,0-16,7.16-16,16s7.16,16,16,16Z"/><path d="M346,384c-15.02,0-27.83-7.79-37.03-22.53-4.31-6.9-6.74-13.7-7.82-17.22h-.17l-.55-2.57c-.05-.2-.09-.41-.13-.63-.11-.49-1.27-5.56-4.18-10.26-3.7-5.99-7.19-6.79-10.12-6.79-10.92,0-14.24,16.76-14.27,16.93-1.36,7.58-7.97,13.1-15.71,13.1h0c-.95,0-1.91-.08-2.85-.25-4.21-.75-7.87-3.11-10.31-6.63-2.44-3.52-3.36-7.77-2.61-11.97,2.68-14.93,15.69-43.18,45.75-43.18s42.54,27.58,45.58,42.32c1.82,6.2,7.11,17.68,14.42,17.68,10.17,0,14.32-17.18,14.35-17.35,1.51-7.33,8.09-12.68,15.63-12.68,1.09,0,2.19.11,3.26.33,8.64,1.79,14.21,10.28,12.42,18.94-.22,1.05-2.28,10.48-8.04,20.03-8.85,14.66-22.21,22.73-37.62,22.73Z"/></svg>