<?xml version="1.0" encoding="UTF-8"?><svg id="Icon" xmlns="http://www.w3.org/2000/svg" viewBox="0 0 512 512"><path d="M392.89,64H119.11c-30.39,0-55.11,24.72-55.11,55.11v273.78c0,30.39,24.72,55.11,55.11,55.11h273.78c30.39,0,55.11-24.72,55.11-55.11V119.11c0-30.39-24.72-55.11-55.11-55.11ZM96,392.89V119.11c0-12.74,10.37-23.11,23.11-23.11h273.78c12.74,0,23.11,10.37,23.11,23.11v156.93l-70.46-70.46c-6.25-6.25-16.38-6.25-22.63,0l-209.67,209.67c-9.91-2.6-17.24-11.64-17.24-22.35Z"/><path d="M187.56,232.89c25,0,45.33-20.34,45.33-45.33s-20.34-45.33-45.33-45.33-45.33,20.34-45.33,45.33,20.34,45.33,45.33,45.33ZM187.56,174.22c7.35,0,13.33,5.98,13.33,13.33s-5.98,13.33-13.33,13.33-13.33-5.98-13.33-13.33,5.98-13.33,13.33-13.33Z"/></svg>