<?xml version="1.0" encoding="UTF-8"?><svg id="Icon" xmlns="http://www.w3.org/2000/svg" viewBox="0 0 512 512"><path d="M144,448h192c44.11,0,80-35.89,80-80v-112c0-8.84-7.16-16-16-16s-16,7.16-16,16v112c0,26.47-21.53,48-48,48h-192c-26.47,0-48-21.53-48-48v-192c0-26.47,21.53-48,48-48h112c8.84,0,16-7.16,16-16s-7.16-16-16-16h-112c-44.11,0-80,35.89-80,80v192c0,44.11,35.89,80,80,80Z"/><path d="M192,208c0-8.84-7.16-16-16-16s-16,7.16-16,16v128c0,8.84,7.16,16,16,16h128c8.84,0,16-7.16,16-16s-7.16-16-16-16h-89.37l212.69-212.69c6.25-6.25,6.25-16.38,0-22.63-6.25-6.25-16.38-6.25-22.63,0l-212.69,212.69v-89.37Z"/></svg>