<?xml version="1.0" encoding="UTF-8"?><svg id="Icon" xmlns="http://www.w3.org/2000/svg" viewBox="0 0 512 512"><path d="M447.65,401.6l-63.18-297.85c-1.57-7.39-8.09-12.68-15.65-12.68H109.33s-.01,0-.02,0c-.59,0-1.18.03-1.76.1-.04,0-.09.01-.13.02-.53.06-1.05.15-1.56.26-.12.03-.23.06-.35.09-.43.11-.86.23-1.28.37-.15.05-.29.11-.44.16-.38.14-.75.29-1.12.46-.16.07-.32.15-.48.23-.34.17-.67.35-1,.55-.16.1-.33.19-.49.29-.32.21-.64.43-.94.66-.14.11-.29.21-.43.32-.37.3-.73.62-1.08.95-.06.05-.12.1-.17.15-.41.4-.79.83-1.16,1.28-.01.01-.02.02-.03.04-.05.06-.09.13-.14.19-.29.37-.57.75-.83,1.15-.08.13-.16.26-.24.4-.21.35-.42.71-.61,1.08-.08.15-.15.31-.23.47-.17.35-.32.71-.46,1.08-.07.18-.13.35-.19.53-.12.35-.22.7-.32,1.06-.05.2-.11.4-.16.61-.07.33-.13.67-.19,1.02-.04.23-.08.46-.1.69,0,.08-.03.15-.03.23l-29.33,297.85c-.44,4.49,1.03,8.97,4.07,12.31s7.34,5.25,11.86,5.25h45.13c8.84,0,16-7.16,16-16s-7.16-16-16-16h-27.48l17.47-177.43,41.73,196.75c1.57,7.39,8.09,12.68,15.65,12.68h259.49c4.83,0,9.39-2.18,12.43-5.93,3.04-3.75,4.22-8.67,3.22-13.39ZM185.47,388.92l-56.39-265.85h226.78l56.39,265.85h-226.78Z"/><path d="M341.74,240h-126.28c-8.84,0-16,7.16-16,16s7.16,16,16,16h126.28c8.84,0,16-7.16,16-16s-7.16-16-16-16Z"/></svg>