<?xml version="1.0" encoding="UTF-8"?><svg id="Icon" xmlns="http://www.w3.org/2000/svg" viewBox="0 0 512 512"><path d="M382.63,351.68c-4.69-4.69-12.29-4.69-16.97,0l-30.88,30.88c-1.98-.53-4.06-.82-6.21-.82-13.25,0-24,10.75-24,24s10.75,24,24,24,24-10.75,24-24c0-2.15-.29-4.23-.82-6.21l30.88-30.88c4.69-4.69,4.69-12.28,0-16.97Z"/><path d="M420.29,410.76c0,8.84,7.16,16,16,16s16-7.16,16-16c0-68.53-55.75-124.29-124.29-124.29s-124.29,55.75-124.29,124.29c0,8.84,7.16,16,16,16s16-7.16,16-16c0-50.89,41.4-92.29,92.29-92.29s92.29,41.4,92.29,92.29Z"/><path d="M142.56,224.51c21.71,9.57,35.99,15.38,51.18,15.38s29.47-5.81,51.18-15.38c21.11-9.31,31.71-13.98,41.76-13.98s19.47,4.38,38.06,13.68c2.09,1.04,4.33,1.57,6.66,1.57,5.7,0,10.82-3.16,13.37-8.25,3.67-7.36.68-16.35-6.68-20.03-22.29-11.15-36.4-16.81-51.61-16.81-.41,0-.83,0-1.26.01-15.69.33-30.26,6.76-52.33,16.49-19.74,8.7-29.65,12.88-39.14,12.88s-19.4-4.18-39.14-12.88c-1.91-.84-3.94-1.27-6.01-1.27-5.91,0-11.28,3.49-13.68,8.91-3.31,7.53.11,16.36,7.64,19.68Z"/><path d="M142.56,269.31c21.71,9.57,35.99,15.38,51.18,15.38s29.47-5.81,51.18-15.38c21.11-9.31,31.71-13.98,41.76-13.98s19.47,4.38,38.06,13.68c2.09,1.04,4.33,1.57,6.66,1.57,5.7,0,10.82-3.16,13.37-8.25,3.67-7.36.68-16.35-6.68-20.03-22.29-11.15-36.4-16.81-51.61-16.81-.41,0-.83,0-1.26.01-15.69.33-30.26,6.76-52.33,16.49-19.74,8.7-29.65,12.88-39.14,12.88s-19.4-4.18-39.14-12.88c-1.91-.84-3.94-1.27-6.01-1.27-5.91,0-11.28,3.49-13.68,8.91-3.31,7.53.11,16.36,7.64,19.68Z"/><path d="M109.09,432h50.91c8.84,0,16-7.16,16-16s-7.16-16-16-16h-50.91c-7.22,0-13.09-5.87-13.09-13.09v-167.35c0-7.78,3.46-15.08,9.47-20.01l134.54-110.07,134.5,110.06c6.02,4.93,9.48,12.23,9.48,20.01v36.44c0,8.84,7.16,16,16,16s16-7.16,16-16v-36.44c0-17.42-7.73-33.74-21.21-44.77l-136.86-111.99c-10.36-8.46-25.42-8.47-35.84,0l-136.88,111.98c-13.48,11.04-21.21,27.35-21.21,44.77v167.35c0,24.86,20.23,45.09,45.09,45.09Z"/></svg>