<?xml version="1.0" encoding="UTF-8"?><svg id="Icon" xmlns="http://www.w3.org/2000/svg" viewBox="0 0 512 512"><path d="M426.41,82.89c-19.21-18.18-46.54-23.73-71.32-14.49l-175.05,65.31c-4.66,1.52-8.64,4.19-11.72,7.61l-48.99-26.4c-3.73-2.01-8.12-2.46-12.18-1.24-4.06,1.22-7.48,4-9.49,7.74l-31.74,58.9c-4.19,7.78-1.28,17.48,6.5,21.67,2.41,1.3,5.01,1.92,7.58,1.92,5.69,0,11.21-3.05,14.1-8.41l24.15-44.81,46.77,25.2,9.37,31.28-25.2,46.77-44.81-24.15c-7.78-4.19-17.48-1.29-21.68,6.5-4.19,7.78-1.28,17.48,6.49,21.67l58.9,31.74c2.35,1.27,4.96,1.92,7.59,1.92,1.54,0,3.09-.22,4.59-.67,4.06-1.22,7.48-4,9.49-7.74l26.4-48.98c4.76,1.24,9.77,1.17,14.6-.27.17-.05.34-.11.51-.16l102.02-34.37-70.75,227.87c-1.51,4.86-.62,10.14,2.4,14.23s7.8,6.51,12.88,6.51h91.81c7.17,0,13.46-4.76,15.4-11.66l79.85-283.29c7.76-25.19.7-52.07-18.45-70.19ZM414.25,143.78c-.04.14-.08.28-.12.42l-76.62,271.83h-57.98l73.6-237.03c1.78-5.74.2-11.99-4.1-16.19-4.3-4.2-10.59-5.64-16.29-3.71l-126.58,42.64-11.75-39.23,171.88-64.13c13.45-5.02,27.71-2.12,38.14,7.75,10.43,9.87,14.1,23.95,9.83,37.65Z"/><circle cx="376" cy="136" r="16"/></svg>