<?xml version="1.0" encoding="UTF-8"?><svg id="Icon" xmlns="http://www.w3.org/2000/svg" viewBox="0 0 512 512"><path d="M210.87,158.77h-20.1v-78.77c0-8.84-7.16-16-16-16h-94.77c-8.84,0-16,7.16-16,16s7.16,16,16,16h78.77v62.77h-20.1c-8.84,0-16,7.16-16,16v162.46c0,8.84,7.16,16,16,16h20.1v62.77h-78.77c-8.84,0-16,7.16-16,16s7.16,16,16,16h94.77c8.84,0,16-7.16,16-16v-78.77h20.1c8.84,0,16-7.16,16-16v-162.46c0-8.84-7.16-16-16-16Z"/><path d="M256,158.77c-8.84,0-16,7.16-16,16v162.46c0,8.84,7.16,16,16,16s16-7.16,16-16v-162.46c0-8.84-7.16-16-16-16Z"/><path d="M432,416h-78.77v-62.77h20.1c8.84,0,16-7.16,16-16v-162.46c0-8.84-7.16-16-16-16h-20.1v-62.77h78.77c8.84,0,16-7.16,16-16s-7.16-16-16-16h-94.77c-8.84,0-16,7.16-16,16v78.77h-20.1c-8.84,0-16,7.16-16,16v162.46c0,8.84,7.16,16,16,16h20.1v78.77c0,8.84,7.16,16,16,16h94.77c8.84,0,16-7.16,16-16s-7.16-16-16-16ZM317.13,190.77h40.21v130.46h-40.21v-130.46Z"/></svg>