<?xml version="1.0" encoding="UTF-8"?><svg id="Icon" xmlns="http://www.w3.org/2000/svg" viewBox="0 0 512 512"><path d="M349.38,299.63c0-19.25-7.63-34.36-14.32-43.91,6.58-9.92,14.26-25.3,14.26-43.09,0-19.05-7.44-34.05-14.09-43.66,5.04-7.67,9.98-18.27,9.98-30.41,0-24.59-16.81-40.07-20.76-43.37-14.86-13.63-38.61-18.88-54.37-20.9v-26.29c0-8.84-7.16-16-16-16s-16,7.16-16,16v41.03c0,8.69,6.96,15.79,15.65,16,13.66.32,39.12,4.38,49.25,13.9.41.38.57.54.98.85.84.73,9.26,8.29,9.26,18.79,0,.9-.11,1.82-.28,2.74-2.88-2.15-5.72-3.96-8.14-5.38-15.1-8.88-32.77-13.77-49.76-13.77-18.13,0-35.43,3.6-48.71,10.13-22.78,11.21-26.19,26.64-26.19,34.85s3.4,23.64,26.19,34.85c10.31,5.07,23.04,8.36,36.71,9.59-13.66,1.22-26.4,4.52-36.71,9.59-22.79,11.21-26.19,26.64-26.19,34.85s3.4,23.64,26.19,34.85c9.75,4.8,21.68,8.01,34.51,9.38-12.83,1.37-24.75,4.58-34.51,9.38-22.78,11.21-26.19,26.64-26.19,34.85s3.4,23.64,26.19,34.85c13.28,6.53,30.58,10.13,48.71,10.13,17,0,34.66-4.88,49.75-13.74,2.4-1.41,5.22-3.21,8.08-5.34.22,1.04.35,2.08.35,3.11,0,10.5-8.41,18.06-9.26,18.79-.42.32-.57.47-.98.85-10.13,9.52-35.59,13.58-49.23,13.9-8.71.18-15.67,7.29-15.67,16v41.03c0,8.84,7.16,16,16,16s16-7.16,16-16v-26.29c15.77-2.02,39.51-7.27,54.37-20.9,3.95-3.3,20.76-18.77,20.76-43.37,0-12.28-5.05-22.99-10.15-30.68,6.58-9.88,14.33-25.29,14.33-43.13ZM304.78,198.36c2.31-1.36,5.01-3.08,7.77-5.11,2.6,5.18,4.77,11.77,4.77,19.38,0,6.05-1.95,12.15-4.48,17.47-2.85-2.12-5.66-3.91-8.05-5.32-12.19-7.17-26.05-11.73-39.88-13.23,13.83-1.49,27.69-6.05,39.87-13.2ZM304.78,287.23c2.51-1.47,5.47-3.37,8.46-5.62,2.31,4.95,4.14,11.06,4.14,18.03,0,6.47-2.24,12.99-5.03,18.55-2.68-1.96-5.3-3.63-7.56-4.96-11.67-6.87-24.89-11.34-38.13-13.01,13.25-1.68,26.46-6.13,38.12-12.99ZM212.24,167.12c1.96-3.88,16.91-12.98,42.8-12.98,17.07,0,31.6,7.44,39.01,12.99-7.4,5.54-21.92,12.96-39.01,12.96-25.89,0-40.83-9.09-42.8-12.98ZM212.24,255.99c1.96-3.88,16.91-12.98,42.8-12.98,17.07,0,31.6,7.44,39.01,12.99-7.4,5.54-21.92,12.96-39.01,12.96-25.89,0-40.83-9.09-42.8-12.98ZM255.03,357.41c-25.89,0-40.83-9.09-42.8-12.98,1.97-3.88,16.91-12.98,42.8-12.98,17.07,0,31.6,7.44,39.01,12.99-7.4,5.54-21.92,12.96-39.01,12.96Z"/></svg>