<?xml version="1.0" encoding="UTF-8"?><svg id="Icon" xmlns="http://www.w3.org/2000/svg" viewBox="0 0 512 512"><path d="M468.92,242.69l-60.04-40c-4.91-3.27-11.22-3.57-16.42-.79-5.2,2.79-8.45,8.21-8.45,14.11v80c0,5.9,3.25,11.32,8.45,14.11,2.37,1.27,4.96,1.89,7.55,1.89,3.1,0,6.2-.9,8.87-2.68l60.04-40c4.45-2.97,7.13-7.96,7.13-13.32s-2.68-10.35-7.13-13.32Z"/><path d="M218.38,124c0-33.08-26.92-60-60-60h-40.55c-8.84,0-16,7.16-16,16s7.16,16,16,16h40.55c15.44,0,28,12.56,28,28s-12.56,28-28,28c-8.84,0-16,7.16-16,16s7.16,16,16,16c15.44,0,28,12.56,28,28s-12.56,28-28,28c-8.84,0-16,7.16-16,16s7.16,16,16,16c15.44,0,28,12.56,28,28s-12.56,28-28,28c-8.84,0-16,7.16-16,16s7.16,16,16,16c15.44,0,28,12.56,28,28s-12.56,28-28,28h-40.55c-8.84,0-16,7.16-16,16s7.16,16,16,16h40.55c33.08,0,60-26.92,60-60,0-17.37-7.42-33.03-19.25-44,11.83-10.97,19.25-26.63,19.25-44s-7.42-33.03-19.25-44c11.83-10.97,19.25-26.63,19.25-44s-7.42-33.03-19.25-44c11.83-10.97,19.25-26.63,19.25-44Z"/><path d="M394.17,416h-40.55c-15.44,0-28-12.56-28-28s12.56-28,28-28c8.84,0,16-7.16,16-16s-7.16-16-16-16c-15.44,0-28-12.56-28-28s12.56-28,28-28c8.84,0,16-7.16,16-16s-7.16-16-16-16c-15.44,0-28-12.56-28-28s12.56-28,28-28c8.84,0,16-7.16,16-16s-7.16-16-16-16c-15.44,0-28-12.56-28-28s12.56-28,28-28h40.55c8.84,0,16-7.16,16-16s-7.16-16-16-16h-40.55c-33.08,0-60,26.92-60,60,0,17.37,7.42,33.03,19.25,44-11.83,10.97-19.25,26.63-19.25,44s7.42,33.03,19.25,44c-11.83,10.97-19.25,26.63-19.25,44s7.42,33.03,19.25,44c-11.83,10.97-19.25,26.63-19.25,44,0,33.08,26.92,60,60,60h40.55c8.84,0,16-7.16,16-16s-7.16-16-16-16Z"/><path d="M256,64c-8.84,0-16,7.16-16,16v352c0,8.84,7.16,16,16,16s16-7.16,16-16V80c0-8.84-7.16-16-16-16Z"/></svg>