<?xml version="1.0" encoding="UTF-8"?><svg id="Icon" xmlns="http://www.w3.org/2000/svg" viewBox="0 0 512 512"><path d="M336,112h16c8.84,0,16-7.16,16-16s-7.16-16-16-16h-64c-8.84,0-16,7.16-16,16s7.16,16,16,16h16v285.12c0,.99.1,1.95.27,2.88h-16.27c-8.84,0-16,7.16-16,16s7.16,16,16,16h64c8.84,0,16-7.16,16-16s-7.16-16-16-16h-16.27c.17-.94.27-1.9.27-2.88V112Z"/><path d="M256,384c8.84,0,16-7.16,16-16s-7.16-16-16-16H80c-8.82,0-16-7.18-16-16v-160c0-8.82,7.18-16,16-16h176c8.84,0,16-7.16,16-16s-7.16-16-16-16H80c-26.47,0-48,21.53-48,48v160c0,26.47,21.53,48,48,48h176Z"/><path d="M432,128h-48c-8.84,0-16,7.16-16,16s7.16,16,16,16h48c8.82,0,16,7.18,16,16v160c0,8.82-7.18,16-16,16h-48c-8.84,0-16,7.16-16,16s7.16,16,16,16h48c26.47,0,48-21.53,48-48v-160c0-26.47-21.53-48-48-48Z"/></svg>