<?xml version="1.0" encoding="UTF-8"?><svg id="Icon" xmlns="http://www.w3.org/2000/svg" viewBox="0 0 512 512"><path d="M325.38,176c-8.84,0-16,7.16-16,16,0,31.22-25.4,56.62-56.62,56.62s-56.62-25.4-56.62-56.62c0-8.84-7.16-16-16-16s-16,7.16-16,16c0,48.86,39.75,88.62,88.62,88.62s88.62-39.75,88.62-88.62c0-8.84-7.16-16-16-16Z"/><path d="M156.33,160h192.88c8.84,0,16-7.16,16-16s-7.16-16-16-16h-8.87c-5.71-36.84-34.19-66.25-70.55-73.35-.93-7.95-7.68-14.13-15.88-14.13s-14.7,5.96-15.82,13.7c-37.48,6.28-67.06,36.15-72.89,73.77h-8.87c-8.84,0-16,7.16-16,16s7.16,16,16,16ZM237.9,87v3.56c0,8.84,7.16,16,16,16s16-7.16,16-16v-2.9c18.62,5.92,33.08,21.23,37.82,40.34h-109.9c4.93-19.88,20.38-35.64,40.08-41Z"/><path d="M88.02,396.33c3.08,0,6.18-.88,8.93-2.73.78-.52,78.44-52.17,160.15-52.17,8.84,0,16-7.16,16-16s-7.16-16-16-16c-91.69,0-174.57,55.29-178.06,57.64-7.32,4.94-9.24,14.88-4.3,22.2,3.09,4.58,8.14,7.05,13.28,7.05Z"/><path d="M308.15,366.84l-51.91,51.91c-3,3-4.69,7.07-4.69,11.31s1.69,8.31,4.69,11.31l33.94,33.94c3.12,3.12,7.22,4.69,11.31,4.69s8.19-1.56,11.31-4.69l51.94-51.94c31.02,10.16,65.77,2.11,89.48-21.6,25.82-25.82,32.99-65.28,17.98-98.49-1.78-5.22-6.12-9.17-11.49-10.43-5.39-1.26-11.05.35-14.97,4.26l-40.31,40.3-11.31-11.31,40.3-40.31c3.63-3.63,5.3-8.78,4.48-13.85-.82-5.07-4.01-9.44-8.6-11.75l-1-.5c-.15-.08-.3-.15-.46-.22-33.38-15.52-73.3-8.45-99.33,17.59-23.7,23.69-31.66,58.56-21.38,89.76ZM352.15,299.7c10.67-10.67,25-16.33,39.51-16.38l-23,23c-10.92,10.92-10.92,28.68,0,39.6l16.97,16.97c10.92,10.92,28.68,10.92,39.6,0l22.74-22.74c-.18,14.35-5.84,28.46-16.38,39.01-16.89,16.89-42.51,21.33-63.74,11.06-6.13-2.97-13.47-1.73-18.29,3.09l-48.08,48.08-11.31-11.31,48.08-48.08c5.11-5.11,6.04-12.82,2.77-18.88-10-21.31-5.57-46.7,11.12-63.39Z"/></svg>