<?xml version="1.0" encoding="UTF-8"?><svg id="Icon" xmlns="http://www.w3.org/2000/svg" viewBox="0 0 512 512"><path d="M472.99,112.1c-7.49-4.68-17.36-2.4-22.04,5.1-.27.43-27.52,43.93-61.48,85.9-59.62,73.68-86.05,76.96-92.72,76.23-.03,0-2.93-.49-9.24-7.9-5.5-6.46-11.35-15.54-17.01-24.32-14.8-22.98-30.1-46.73-52.87-46.85h-.23c-30.22,0-69.19,29.52-119.13,90.24-34.97,42.52-62.06,84.36-63.19,86.12-4.79,7.42-2.66,17.33,4.77,22.12,2.68,1.73,5.69,2.56,8.66,2.56,5.25,0,10.4-2.58,13.46-7.32.27-.42,27.36-42.24,61.19-83.35,58.17-70.67,85.25-78.37,94.18-78.37h.07s2.93.5,9.23,7.91c5.48,6.45,11.32,15.51,16.96,24.27,14.69,22.81,28.57,44.35,49.6,46.7,18.35,2.05,39.16-6.88,63.65-27.3,17.33-14.46,36.74-34.92,57.69-60.82,35.15-43.48,62.42-87.02,63.57-88.86,4.68-7.5,2.39-17.36-5.1-22.04Z"/></svg>