<?xml version="1.0" encoding="UTF-8"?><svg id="Icon" xmlns="http://www.w3.org/2000/svg" viewBox="0 0 512 512"><path d="M112,448h288c26.47,0,48-21.53,48-48V112c0-26.47-21.53-48-48-48H112c-26.47,0-48,21.53-48,48v288c0,26.47,21.53,48,48,48ZM209.13,213.48l-34.44-52.21,55.08-29.81c6.44-3.49,9.69-10.9,7.9-18-1.8-7.1-8.19-12.07-15.51-12.07h-45.76l2.66-2.69c.83-.84,1.54-1.75,2.15-2.7h58.8v207.18H96v-46.5l9.79,16.17c2.95,4.87,8.19,7.72,13.69,7.72,1.42,0,2.85-.19,4.27-.58,6.91-1.91,11.7-8.18,11.73-15.35l.25-53.25,53.16,25.34c6.49,3.09,14.24,1.48,18.95-3.94,4.72-5.42,5.24-13.32,1.29-19.32ZM96,400v-64.82h144v80.82H112c-8.82,0-16-7.18-16-16ZM400,416h-128v-80.82h144v64.82c0,8.82-7.18,16-16,16ZM416,112v191.18h-144V96h128c8.82,0,16,7.18,16,16ZM112,96h24.7l-10.04,10.13c-4.54,4.59-5.89,11.46-3.4,17.42,2.49,5.96,8.31,9.84,14.77,9.84h20.94l-14.86,8.04c-3.94,2.13-6.81,5.83-7.9,10.18-1.09,4.35-.31,8.96,2.16,12.7l12.39,18.79-19.1-9.1c-6.12-2.92-13.41-1.66-18.2,3.13l-4.96,4.96c-2.98,2.98-4.66,7.02-4.68,11.24l-.07,14.35-4.8-7.93c-.82-1.36-1.82-2.55-2.94-3.56v-84.19c0-8.82,7.18-16,16-16Z"/></svg>