<?xml version="1.0" encoding="UTF-8"?><svg id="Icon" xmlns="http://www.w3.org/2000/svg" viewBox="0 0 512 512"><path d="M256,32c-59.83,0-116.08,23.3-158.39,65.61S32,196.17,32,256s23.3,116.08,65.61,158.39c42.31,42.31,98.56,65.61,158.39,65.61s116.08-23.3,158.39-65.61c42.31-42.31,65.61-98.56,65.61-158.39s-23.3-116.08-65.61-158.39c-42.31-42.31-98.56-65.61-158.39-65.61ZM256,448c-105.87,0-192-86.13-192-192S150.13,64,256,64s192,86.13,192,192-86.13,192-192,192Z"/><path d="M256,288c8.84,0,16-7.16,16-16v-128c0-8.84-7.16-16-16-16s-16,7.16-16,16v128c0,8.84,7.16,16,16,16Z"/><path d="M256.15,336h-.3c-10.96,0-19.85,8.96-19.85,20s8.89,20,19.85,20h.3c10.96,0,19.85-8.96,19.85-20s-8.89-20-19.85-20Z"/></svg>