<?xml version="1.0" encoding="UTF-8"?><svg id="Icon" xmlns="http://www.w3.org/2000/svg" viewBox="0 0 512 512"><path d="M414.39,97.61c-42.31-42.31-98.56-65.61-158.39-65.61s-116.08,23.3-158.39,65.61S32,196.17,32,256s23.3,116.08,65.61,158.39c42.31,42.31,98.56,65.61,158.39,65.61s116.08-23.3,158.39-65.61c42.31-42.31,65.61-98.56,65.61-158.39s-23.3-116.08-65.61-158.39ZM236.8,122.4c0-10.6,8.6-19.2,19.2-19.2s19.2,8.6,19.2,19.2v153.6c0,10.6-8.6,19.2-19.2,19.2s-19.2-8.6-19.2-19.2V122.4ZM256.18,400.8h-.36c-13.16,0-23.82-10.75-23.82-24s10.66-24,23.82-24h.36c13.16,0,23.82,10.75,23.82,24s-10.67,24-23.82,24Z"/></svg>