<?xml version="1.0" encoding="UTF-8"?><svg id="Icon" xmlns="http://www.w3.org/2000/svg" viewBox="0 0 512 512"><path d="M448,304h-64c-8.84,0-16-7.16-16-16v-64c0-8.84,7.16-16,16-16h64c8.84,0,16,7.16,16,16v64c0,8.84-7.16,16-16,16ZM400,272h32v-32h-32v32Z"/><circle cx="98.01" cy="98.01" r="33.51"/><circle cx="413.99" cy="98.01" r="33.51"/><circle cx="256" cy="98.01" r="33.51"/><circle cx="98.01" cy="413.99" r="33.51"/><circle cx="413.99" cy="413.99" r="33.51"/><circle cx="256" cy="413.99" r="33.51"/><circle cx="98.29" cy="256" r="33.51"/><circle cx="256" cy="256" r="33.51"/></svg>