<?xml version="1.0" encoding="UTF-8"?><svg id="Icon" xmlns="http://www.w3.org/2000/svg" viewBox="0 0 512 512"><path d="M272,144H80c-8.84,0-16-7.16-16-16s7.16-16,16-16h192c8.84,0,16,7.16,16,16s-7.16,16-16,16Z"/><path d="M272,224.33H80c-8.84,0-16-7.16-16-16s7.16-16,16-16h192c8.84,0,16,7.16,16,16s-7.16,16-16,16Z"/><path d="M272,303.67H80c-8.84,0-16-7.16-16-16s7.16-16,16-16h192c8.84,0,16,7.16,16,16s-7.16,16-16,16Z"/><path d="M272,384H80c-8.84,0-16-7.16-16-16s7.16-16,16-16h192c8.84,0,16,7.16,16,16s-7.16,16-16,16Z"/><path d="M409.2,263.64c17.84-50.42-8.66-105.96-59.08-123.8-8.33-2.95-17.47,1.42-20.42,9.75-2.95,8.33,1.42,17.47,9.75,20.42,16.37,5.79,29.5,17.61,36.98,33.28,7.48,15.67,8.41,33.31,2.61,49.68-3.21,9.08-8.51,17.48-15.33,24.29-.12.12-.23.24-.35.36l-11.58,12.32v-13.61c0-8.84-7.16-16-16-16s-16,7.16-16,16v54c0,.08.01.16.01.24,0,.29.02.58.04.87.02.25.03.49.06.74.03.26.08.52.12.77.04.26.08.53.14.79.05.24.12.47.18.7.07.27.14.54.22.8.08.24.17.47.26.7.09.25.18.5.29.74.11.25.23.49.35.73.11.22.21.44.33.66.13.24.29.48.44.72.13.2.25.41.38.61.15.22.32.43.48.65.16.21.31.41.48.61.16.19.33.37.5.55.2.21.39.42.6.62.06.06.11.12.17.17.12.12.26.22.39.33.2.18.4.35.61.52.21.17.42.32.63.47.2.14.4.29.61.42.23.15.47.29.71.43.2.12.4.24.61.34.25.13.5.25.75.36.21.1.42.2.64.28.26.1.52.19.78.28.22.08.45.16.67.23.27.08.54.14.82.21.22.05.45.11.67.16.31.06.62.1.94.14.2.03.39.06.58.08.52.05,1.03.08,1.55.08h54c8.84,0,16-7.16,16-16s-7.16-16-16-16h-17.01l13.75-14.63c10.08-10.13,17.92-22.59,22.69-36.06Z"/></svg>