<?xml version="1.0" encoding="UTF-8"?><svg id="Icon" xmlns="http://www.w3.org/2000/svg" viewBox="0 0 512 512"><path d="M401.94,110.04c-9.07-9.06-21.12-14.05-33.93-14.05h-28.88c-1.1-2.55-1.78-4.02-1.94-4.35-1.24-2.64-3.18-4.88-5.6-6.5-1.76-1.18-18.29-11.65-55.05-17.39-47.49-7.41-106.26-3.96-174.68,10.27-5.01,1.04-9.23,4.42-11.33,9.09-2.1,4.67-1.84,10.06.7,14.51,18.86,33.01,31.72,58.25,36.85,68.56-3.77,15.7-14.25,61.13-21.69,110.95-5.36,35.86-7.98,66.49-7.8,91.03.25,34,5.9,56.98,17.28,70.26,3.04,3.55,7.48,5.59,12.15,5.59h225c6.57,0,12.47-4.02,14.88-10.13,1.29-3.28,31.5-81.61,13.48-186.47-9.49-55.21-21.24-96.59-30.25-123.4h16.88s0,0,0,0c4.27,0,8.29,1.66,11.31,4.68,3.02,3.02,4.69,7.04,4.69,11.32v48.01c0,8.84,7.16,16,16,16s16-7.16,16-16v-48.01c0-12.82-5-24.88-14.06-33.95ZM268.3,98.87c22.6,3.21,36.06,8.36,42.03,11.12,4.38,10.28,10.61,27.32,17.28,50.01h-168.88c-2.64-5.41-12.61-25.57-28.79-54.81,41.08-7.28,92.94-12.76,138.36-6.32ZM341.45,416h-204.57c-2.88-6.67-6.12-19.57-6.3-43.98-.17-22.85,2.32-51.77,7.42-85.94,5.57-37.38,13.08-72.94,17.87-94.08h180.41c4.77,19.19,9.45,40.91,13.56,64.82,12.87,74.9-1.44,135.92-8.38,159.18Z"/><path d="M288,256c-8.84,0-16,7.16-16,16v80c0,8.84,7.16,16,16,16s16-7.16,16-16v-80c0-8.84-7.16-16-16-16Z"/></svg>