<?xml version="1.0" encoding="UTF-8"?><svg id="Icon" xmlns="http://www.w3.org/2000/svg" viewBox="0 0 512 512"><path d="M352.21,183.9c0,13.26-10.75,24.02-24,24.02s-24-10.76-24-24.02,10.75-24.02,24-24.02,24,10.76,24,24.02Z"/><path d="M155.93,448h-67.86c-13.27,0-24.07-10.8-24.07-24.08v-66.08c0-6.43,2.5-12.47,7.05-17.02l137.79-137.9c-.94-6.11-1.42-12.32-1.42-18.53,0-66.38,53.96-120.38,120.29-120.38s120.29,54,120.29,120.38-53.96,120.38-120.29,120.38c-6.38,0-12.74-.5-19-1.5l-14.34,14.35s0,0,0,0c-4.55,4.55-10.59,7.06-17.03,7.06h-15.18v17.03c0,13.28-10.8,24.08-24.07,24.08h-17v17.02c0,13.28-10.8,24.08-24.07,24.08h-17v17.03c0,13.28-10.8,24.08-24.07,24.08ZM96,416h52.01v-17.03c0-13.28,10.8-24.08,24.07-24.08h17v-17.02c0-13.28,10.8-24.08,24.07-24.08h17v-17.03c0-13.28,10.8-24.08,24.07-24.08h19.82l18.06-18.07c3.93-3.93,9.62-5.55,15.03-4.25,6.69,1.6,13.61,2.41,20.57,2.41,48.68,0,88.29-39.65,88.29-88.38s-39.61-88.38-88.29-88.38-88.29,39.65-88.29,88.38c0,6.83.78,13.63,2.31,20.2,1.26,5.38-.35,11.04-4.26,14.95l-141.47,141.58v54.89ZM283.04,306.3h.01-.01Z"/></svg>