<?xml version="1.0" encoding="UTF-8"?><svg id="Icon" xmlns="http://www.w3.org/2000/svg" viewBox="0 0 512 512"><path d="M327.71,64c-66.33,0-120.29,54-120.29,120.38,0,6.22.48,12.42,1.42,18.53l-137.79,137.9c-4.54,4.55-7.05,10.59-7.05,17.02v66.08c0,13.28,10.8,24.08,24.07,24.08h67.86c13.27,0,24.07-10.8,24.07-24.08v-17.03h17c13.27,0,24.07-10.8,24.07-24.08v-17.02h17c13.27,0,24.07-10.8,24.07-24.08v-17.03h15.18c6.43,0,12.48-2.51,17.03-7.06,0,0,0,0,0,0l14.34-14.35c6.27,1,12.63,1.5,19,1.5,66.33,0,120.29-54,120.29-120.38s-53.96-120.38-120.29-120.38ZM328.21,207.92c-13.25,0-24-10.76-24-24.02s10.75-24.02,24-24.02,24,10.76,24,24.02-10.75,24.02-24,24.02Z"/></svg>