<?xml version="1.0" encoding="UTF-8"?><svg id="Icon" xmlns="http://www.w3.org/2000/svg" viewBox="0 0 512 512"><path d="M464,238.88h-215.35c-3.64-22.44-14.18-43.15-30.51-59.49-20.09-20.09-46.8-31.43-75.21-31.92-60.11-1.06-109.88,47.02-110.92,107.13,0,.06,0,.12,0,.18,0,.48,0,.96,0,1.45.4,59.88,49.24,108.31,109.03,108.31.25,0,.5,0,.74,0,54.66-.37,99.77-41.09,107.23-93.67h99.41v55.77c0,8.84,7.16,16,16,16h51.74c8.84,0,16-7.16,16-16v-55.77h31.85c8.84,0,16-7.16,16-16s-7.16-16-16-16ZM141.56,332.55c-.18,0-.35,0-.52,0-42.24,0-76.75-34.22-77.04-76.51,0-.32,0-.65,0-.97.79-42.43,35.92-76.33,78.37-75.6,20.07.35,38.94,8.36,53.14,22.55s22.21,33.07,22.55,53.14c0,.21.01.42.02.63-.15,42.12-34.31,76.48-76.53,76.76ZM380.42,310.65v-39.77h19.74v39.77h-19.74Z"/></svg>