<?xml version="1.0" encoding="UTF-8"?><svg id="Icon" xmlns="http://www.w3.org/2000/svg" viewBox="0 0 512 512"><path d="M432,384c26.47,0,48-21.53,48-48v-160c0-26.47-21.53-48-48-48H80c-26.47,0-48,21.53-48,48v160c0,26.47,21.53,48,48,48h352ZM64,336v-160c0-8.82,7.18-16,16-16h352c8.82,0,16,7.18,16,16v160c0,8.82-7.18,16-16,16H80c-8.82,0-16-7.18-16-16Z"/><circle cx="112" cy="320" r="16"/><circle cx="400" cy="320" r="16"/><path d="M160,336h192c8.84,0,16-7.16,16-16s-7.16-16-16-16h-192c-8.84,0-16,7.16-16,16s7.16,16,16,16Z"/><circle cx="400" cy="256" r="16"/><circle cx="352" cy="256" r="16"/><circle cx="304" cy="256" r="16"/><circle cx="256" cy="256" r="16"/><circle cx="208" cy="256" r="16"/><circle cx="160" cy="256" r="16"/><circle cx="112" cy="256" r="16"/><circle cx="400" cy="192" r="16"/><circle cx="352" cy="192" r="16"/><circle cx="304" cy="192" r="16"/><circle cx="256" cy="192" r="16"/><circle cx="208" cy="192" r="16"/><circle cx="160" cy="192" r="16"/><circle cx="112" cy="192" r="16"/></svg>