<?xml version="1.0" encoding="UTF-8"?><svg id="Icon" xmlns="http://www.w3.org/2000/svg" viewBox="0 0 512 512"><path d="M432,128H80c-26.47,0-48,21.53-48,48v160c0,26.47,21.53,48,48,48h352c26.47,0,48-21.53,48-48v-160c0-26.47-21.53-48-48-48ZM304,176c8.84,0,16,7.16,16,16s-7.16,16-16,16-16-7.16-16-16,7.16-16,16-16ZM304,240c8.84,0,16,7.16,16,16s-7.16,16-16,16-16-7.16-16-16,7.16-16,16-16ZM256,176c8.84,0,16,7.16,16,16s-7.16,16-16,16-16-7.16-16-16,7.16-16,16-16ZM256,240c8.84,0,16,7.16,16,16s-7.16,16-16,16-16-7.16-16-16,7.16-16,16-16ZM208,176c8.84,0,16,7.16,16,16s-7.16,16-16,16-16-7.16-16-16,7.16-16,16-16ZM208,240c8.84,0,16,7.16,16,16s-7.16,16-16,16-16-7.16-16-16,7.16-16,16-16ZM160,176c8.84,0,16,7.16,16,16s-7.16,16-16,16-16-7.16-16-16,7.16-16,16-16ZM160,240c8.84,0,16,7.16,16,16s-7.16,16-16,16-16-7.16-16-16,7.16-16,16-16ZM112,336c-8.84,0-16-7.16-16-16s7.16-16,16-16,16,7.16,16,16-7.16,16-16,16ZM112,272c-8.84,0-16-7.16-16-16s7.16-16,16-16,16,7.16,16,16-7.16,16-16,16ZM112,208c-8.84,0-16-7.16-16-16s7.16-16,16-16,16,7.16,16,16-7.16,16-16,16ZM352,336h-192c-8.84,0-16-7.16-16-16s7.16-16,16-16h192c8.84,0,16,7.16,16,16s-7.16,16-16,16ZM352,272c-8.84,0-16-7.16-16-16s7.16-16,16-16,16,7.16,16,16-7.16,16-16,16ZM352,208c-8.84,0-16-7.16-16-16s7.16-16,16-16,16,7.16,16,16-7.16,16-16,16ZM400,336c-8.84,0-16-7.16-16-16s7.16-16,16-16,16,7.16,16,16-7.16,16-16,16ZM400,272c-8.84,0-16-7.16-16-16s7.16-16,16-16,16,7.16,16,16-7.16,16-16,16ZM400,208c-8.84,0-16-7.16-16-16s7.16-16,16-16,16,7.16,16,16-7.16,16-16,16Z"/></svg>