<?xml version="1.0" encoding="UTF-8"?><svg id="Icon" xmlns="http://www.w3.org/2000/svg" viewBox="0 0 512 512"><path d="M432,208h-16v-16c8.84,0,16-7.16,16-16,0-3.46-1.12-6.83-3.2-9.6-1.92-2.56-41.12-53.6-128-67.04,2.39-6.16,3.48-12.76,3.2-19.36,0-26.51-21.49-48-48-48s-48,21.49-48,48c-.02,6.66,1.34,13.25,4,19.36-87.68,13.44-126.88,64-128,67.04-3.32,4.69-3.87,10.79-1.44,16,2.35,5.44,7.53,9.14,13.44,9.6v16h-16c-26.51,0-48,21.49-48,48s21.49,48,48,48h16v96c0,26.51,21.49,48,48,48h224c26.51,0,48-21.49,48-48v-96h16c26.51,0,48-21.49,48-48s-21.49-48-48-48ZM240,80c0-8.84,7.16-16,16-16s16,7.16,16,16-7.16,16-16,16-16-7.16-16-16ZM256,128c41.49-1.13,82.4,10,117.6,32h-235.04c35.16-21.95,76-33.08,117.44-32ZM80,272c-8.84,0-16-7.16-16-16s7.16-16,16-16h16v32h-16ZM384,400c0,8.84-7.16,16-16,16h-224c-8.84,0-16-7.16-16-16v-208h256v208ZM432,272h-16v-32h16c8.84,0,16,7.16,16,16s-7.16,16-16,16Z"/></svg>