<?xml version="1.0" encoding="UTF-8"?><svg id="Icon" xmlns="http://www.w3.org/2000/svg" viewBox="0 0 512 512"><path d="M80,215.27c8.84,0,16-7.16,16-16v-65.72c0-11.89,9.67-21.55,21.55-21.55h74.04l-19.63,19.63c-6.25,6.25-6.25,16.38,0,22.63,3.12,3.12,7.22,4.69,11.31,4.69s8.19-1.56,11.31-4.69l46.94-46.94s.01-.01.02-.02c.37-.37.71-.75,1.04-1.15.15-.19.29-.38.43-.58.17-.23.34-.45.5-.68.15-.23.29-.47.42-.7.13-.21.26-.42.38-.64.13-.24.24-.48.35-.73.11-.23.22-.46.32-.69.1-.24.18-.48.26-.72.09-.25.19-.5.27-.76.07-.24.12-.48.19-.72.07-.27.14-.53.2-.8.05-.27.09-.55.13-.83.03-.24.08-.48.1-.72.05-.51.08-1.02.08-1.53,0-.02,0-.03,0-.04s0-.03,0-.04c0-.51-.03-1.02-.08-1.53-.02-.24-.07-.48-.1-.72-.04-.28-.07-.55-.13-.83-.05-.27-.13-.53-.2-.8-.06-.24-.11-.48-.19-.72-.08-.26-.18-.51-.27-.76-.09-.24-.16-.48-.26-.72-.1-.24-.21-.46-.32-.69-.11-.24-.22-.49-.35-.73-.12-.22-.25-.43-.38-.64-.14-.23-.27-.47-.42-.7-.16-.23-.33-.46-.5-.68-.14-.19-.28-.39-.43-.58-.33-.4-.68-.79-1.04-1.15,0,0-.01-.01-.02-.02l-46.94-46.94c-6.25-6.25-16.38-6.25-22.63,0-6.25,6.25-6.25,16.38,0,22.63l19.63,19.63h-74.04c-29.53,0-53.55,24.02-53.55,53.55v65.72c0,8.84,7.16,16,16,16Z"/><path d="M432,64c-8.84,0-16,7.16-16,16v112c0,8.84,7.16,16,16,16s16-7.16,16-16v-112c0-8.84-7.16-16-16-16Z"/><path d="M376.07,327.99h-.24c-9.84,0-17.82,8.03-17.82,17.94s7.98,17.94,17.82,17.94h.24c9.84,0,17.82-8.03,17.82-17.94s-7.98-17.94-17.82-17.94Z"/><path d="M416,224H96c-17.65,0-32,14.35-32,32v176c0,17.65,14.35,32,32,32h320c17.65,0,32-14.35,32-32v-176c0-17.65-14.35-32-32-32ZM96,432v-16.58c7.29-.16,13.15-6.11,13.15-13.44v-112.1c0-7.33-5.86-13.27-13.15-13.44v-20.44h320v176s-320,0-320,0Z"/></svg>