<?xml version="1.0" encoding="UTF-8"?><svg id="Icon" xmlns="http://www.w3.org/2000/svg" viewBox="0 0 512 512"><path d="M400,64H112c-26.47,0-48,21.53-48,48v320c0,6.51,3.94,12.37,9.97,14.82,1.95.79,4,1.18,6.03,1.18,4.23,0,8.39-1.68,11.46-4.83l73.29-75.17h235.25c26.47,0,48-21.53,48-48V112c0-26.47-21.53-48-48-48ZM168,240c-13.23,0-24-10.77-24-24s10.77-24,24-24,24,10.77,24,24-10.77,24-24,24ZM256,240.5c-13.51,0-24.5-10.99-24.5-24.5s10.99-24.5,24.5-24.5,24.5,10.99,24.5,24.5-10.99,24.5-24.5,24.5ZM344,240c-13.23,0-24-10.77-24-24s10.77-24,24-24,24,10.77,24,24-10.77,24-24,24Z"/></svg>