<?xml version="1.0" encoding="UTF-8"?><svg id="Icon" xmlns="http://www.w3.org/2000/svg" viewBox="0 0 512 512"><path d="M465.97,238.44c-9.05-9.05-21.07-14.03-33.87-14.03s-24.82,4.98-33.87,14.03l-152.23,152.23c-1.97,1.97-3.39,4.42-4.12,7.1l-16.91,62.02c-1.51,5.54.06,11.46,4.12,15.52,3.04,3.04,7.13,4.69,11.31,4.69,1.4,0,2.82-.19,4.21-.56l62.02-16.91c2.69-.73,5.13-2.15,7.1-4.12l152.23-152.23c18.67-18.67,18.67-49.06,0-67.73ZM443.35,283.55l-148.76,148.76c-2.38-4.32-5.8-9.44-10.49-14.08-3.79-3.75-7.78-6.73-11.36-9.02l148.13-148.13h0c3-3,6.99-4.66,11.24-4.66s8.24,1.65,11.24,4.66c3,3,4.65,6.99,4.65,11.24s-1.65,8.24-4.65,11.24Z"/><path d="M240,159.72v95.42l-63.36,31.68c-7.9,3.95-11.11,13.56-7.16,21.47,2.8,5.61,8.45,8.85,14.32,8.85,2.4,0,4.85-.54,7.14-1.69l72.21-36.1c5.42-2.71,8.84-8.25,8.84-14.31v-105.31c0-8.84-7.16-16-16-16s-16,7.16-16,16Z"/><path d="M184.13,398.99c-26.08-13.14-48.1-33.17-63.68-57.94-15.99-25.43-24.45-54.84-24.45-85.05,0-88.22,71.78-160,160-160,31.2,0,61.42,8.98,87.41,25.96,25.34,16.56,45.41,39.81,58.03,67.24,3.7,8.03,13.2,11.54,21.22,7.85,8.03-3.69,11.54-13.2,7.85-21.22-15.14-32.9-39.21-60.79-69.59-80.65-31.21-20.39-67.48-31.17-104.91-31.17-105.87,0-192,86.13-192,192,0,36.24,10.15,71.54,29.36,102.08,18.68,29.7,45.08,53.73,76.37,69.48,2.31,1.16,4.77,1.71,7.19,1.71,5.85,0,11.49-3.22,14.3-8.81,3.98-7.89.8-17.51-7.09-21.49Z"/></svg>