<?xml version="1.0" encoding="UTF-8"?><svg id="Icon" xmlns="http://www.w3.org/2000/svg" viewBox="0 0 512 512"><path d="M416,272H96c-8.84,0-16,7.16-16,16v64c0,8.84,7.16,16,16,16h320c8.84,0,16-7.16,16-16v-64c0-8.84-7.16-16-16-16ZM400,336H112v-32h288v32Z"/><path d="M416,144H96c-8.84,0-16,7.16-16,16v64c0,8.84,7.16,16,16,16h320c8.84,0,16-7.16,16-16v-64c0-8.84-7.16-16-16-16ZM400,208H112v-32h288v32Z"/><path d="M432,96H80c-26.47,0-48,21.53-48,48v224c0,26.47,21.53,48,48,48h352c26.47,0,48-21.53,48-48v-224c0-26.47-21.53-48-48-48ZM448,368c0,8.82-7.18,16-16,16H80c-8.82,0-16-7.18-16-16v-224c0-8.82,7.18-16,16-16h352c8.82,0,16,7.18,16,16v224Z"/></svg>