<?xml version="1.0" encoding="UTF-8"?><svg id="Icon" xmlns="http://www.w3.org/2000/svg" viewBox="0 0 512 512"><path d="M266.33,280.33c-3.92,11.51-6.54,19.88-9.68,31.65-3.4-11.51-6.02-20.14-9.68-31.65l-40.54-114.83h-46.04v181h29.56v-148.3c6.8,22.76,6.8,23.02,13.34,41.85l37.4,106.46h30.08l37.66-108.81c6.02-18.05,7.85-23.54,12.29-39.5v148.3h30.86v-181h-45.25l-40.02,114.83Z"/><path d="M432,96H80c-26.47,0-48,21.53-48,48v224c0,26.47,21.53,48,48,48h352c26.47,0,48-21.53,48-48v-224c0-26.47-21.53-48-48-48ZM448,368c0,8.82-7.18,16-16,16H80c-8.82,0-16-7.18-16-16v-224c0-8.82,7.18-16,16-16h352c8.82,0,16,7.18,16,16v224Z"/></svg>