<?xml version="1.0" encoding="UTF-8"?><svg id="Icon" xmlns="http://www.w3.org/2000/svg" viewBox="0 0 512 512"><path d="M463.13,240h-137.25l52.19-52.19c6.25-6.25,6.25-16.38,0-22.63-6.25-6.25-16.38-6.25-22.63,0l-79.5,79.5c-6.25,6.25-6.25,16.38,0,22.63l79.5,79.5c3.12,3.12,7.22,4.69,11.31,4.69s8.19-1.56,11.31-4.69c6.25-6.25,6.25-16.38,0-22.63l-52.19-52.19h137.25c8.84,0,16-7.16,16-16s-7.16-16-16-16Z"/><path d="M400,416c26.47,0,48-21.53,48-48v-48c0-8.84-7.16-16-16-16s-16,7.16-16,16v48c0,8.97-7.03,16-16,16H80c-8.97,0-16-7.03-16-16v-224c0-8.97,7.03-16,16-16h320c8.97,0,16,7.03,16,16v48c0,8.84,7.16,16,16,16s16-7.16,16-16v-48c0-26.47-21.53-48-48-48H80c-26.47,0-48,21.53-48,48v224c0,26.47,21.53,48,48,48h320Z"/><path d="M96,144c-8.84,0-16,7.16-16,16v192c0,8.84,7.16,16,16,16h128c8.84,0,16-7.16,16-16v-192c0-8.84-7.16-16-16-16H96Z"/></svg>