<?xml version="1.0" encoding="UTF-8"?><svg id="Icon" xmlns="http://www.w3.org/2000/svg" viewBox="0 0 512 512"><path d="M80,416h352c26.47,0,48-21.53,48-48v-224c0-26.47-21.53-48-48-48H80c-26.47,0-48,21.53-48,48v224c0,26.47,21.53,48,48,48ZM64,144c0-8.82,7.18-16,16-16h352c8.82,0,16,7.18,16,16v224c0,8.82-7.18,16-16,16H80c-8.82,0-16-7.18-16-16v-224Z"/><path d="M96,368h320c8.84,0,16-7.16,16-16v-192c0-8.84-7.16-16-16-16H96c-8.84,0-16,7.16-16,16v192c0,8.84,7.16,16,16,16ZM112,176h288v160H112v-160Z"/></svg>