<?xml version="1.0" encoding="UTF-8"?><svg id="Icon" xmlns="http://www.w3.org/2000/svg" viewBox="0 0 512 512"><path d="M251.81,371.56c-18.67,0-36.31-3.75-52.43-11.14l7.78-23.95c14.74,6.91,28.95,10.42,42.25,10.42,8.72,0,15.56-1.68,20.34-4.99,4.9-3.39,7.38-8.3,7.38-14.59s-2.52-10.88-7.5-14.45c-4.2-3.01-13.18-7.25-27.46-12.94-14.51-5.8-24.51-11.13-29.74-15.84-7.31-6.53-11.01-15.17-11.01-25.68,0-13.83,7.68-26.4,22.82-37.37l1.17-.85-1.19-.82c-5.24-3.58-9.21-6.98-11.81-10.09-5.07-6.19-7.64-14.28-7.64-24.05,0-15.07,5.52-26.7,16.4-34.56,9.39-6.78,22.35-10.22,38.53-10.22s32.97,3.57,47.77,10.6l-7.65,23.95c-13.83-6.56-26.69-9.88-38.24-9.88-7.49,0-13.47,1.66-17.78,4.95-4.39,3.35-6.61,8-6.61,13.83s2.67,10.86,7.93,14.33c3.83,2.56,12.89,6.65,27.69,12.52,14.33,5.72,24.25,11,29.47,15.7,6.87,6.18,10.35,14.64,10.35,25.15,0,14.28-7.32,27.09-21.76,38.05l-1.15.87,1.21.79c12.36,8.04,18.63,19.39,18.63,33.73s-5.44,26.46-16.17,34.85c-9.83,7.74-23.82,11.67-41.57,11.67ZM242.62,229.31c-8.58,7.03-12.92,14.43-12.92,22.02s5.63,13.84,16.72,19.34c2.96,1.44,11.42,5.08,25.16,10.84l.64.27.48-.49c7.72-7.91,11.64-15.42,11.64-22.34s-4.72-13.15-14.02-18.12c-1.2-.64-9.91-4.45-26.65-11.65l-.57-.24-.48.39Z"/><path d="M256,480c-59.83,0-116.08-23.3-158.39-65.61-42.31-42.31-65.61-98.56-65.61-158.39s23.3-116.08,65.61-158.39,98.56-65.61,158.39-65.61,116.08,23.3,158.39,65.61c42.31,42.31,65.61,98.56,65.61,158.39s-23.3,116.08-65.61,158.39c-42.31,42.31-98.56,65.61-158.39,65.61ZM256,64c-105.87,0-192,86.13-192,192s86.13,192,192,192,192-86.13,192-192-86.13-192-192-192Z"/></svg>