<?xml version="1.0" encoding="UTF-8"?><svg id="Icon" xmlns="http://www.w3.org/2000/svg" viewBox="0 0 512 512"><path d="M128,96H48c-8.84,0-16,7.16-16,16v288c0,8.84,7.16,16,16,16h80c8.84,0,16-7.16,16-16V112c0-8.84-7.16-16-16-16ZM112,384h-48V128h48v256Z"/><path d="M256,96h-80c-8.84,0-16,7.16-16,16v288c0,8.84,7.16,16,16,16h80c8.84,0,16-7.16,16-16V112c0-8.84-7.16-16-16-16ZM240,384h-48V128h48v256Z"/><rect x="80" y="144" width="16" height="32" rx="4" ry="4"/><rect x="208" y="144" width="16" height="32" rx="4" ry="4"/><path d="M471.27,375.15l-74.54-278.19c-1.1-4.1-3.78-7.59-7.46-9.72-3.68-2.12-8.05-2.7-12.14-1.6l-77.27,20.71c-4.1,1.1-7.59,3.78-9.72,7.46s-2.7,8.04-1.6,12.14l74.54,278.19c1.92,7.15,8.38,11.86,15.45,11.86,1.37,0,2.76-.18,4.15-.55l77.27-20.71c4.1-1.1,7.59-3.78,9.72-7.46s2.7-8.04,1.6-12.14ZM389.85,380.4l-66.26-247.28,46.37-12.42,66.26,247.28-46.36,12.42Z"/><rect x="347.06" y="141.83" width="16" height="32" rx="4" ry="4" transform="translate(-28.75 97.28) rotate(-15)"/></svg>