<?xml version="1.0" encoding="UTF-8"?><svg id="Icon" xmlns="http://www.w3.org/2000/svg" viewBox="0 0 512 512"><path d="M257.03,412.21c-5.82,0-10.54-4.72-10.54-10.54v-50.57c0-5.82,4.72-10.54,10.54-10.54s10.54,4.72,10.54,10.54v50.57c0,5.82-4.72,10.54-10.54,10.54Z"/><path d="M342.16,401.01c-4.66,0-8.91-3.1-10.17-7.81l-13.09-48.84c-1.5-5.62,1.83-11.4,7.45-12.9,5.63-1.51,11.4,1.83,12.9,7.45l13.09,48.84c1.51,5.62-1.83,11.4-7.45,12.9-.91.25-1.83.36-2.73.36Z"/><path d="M422.47,367.75c-3.64,0-7.19-1.89-9.14-5.27l-25.28-43.79c-2.91-5.04-1.18-11.48,3.86-14.39,5.04-2.91,11.49-1.18,14.39,3.86l25.28,43.79c2.91,5.04,1.18,11.48-3.86,14.39-1.66.96-3.47,1.42-5.26,1.42Z"/><path d="M169.84,401.01c-.9,0-1.82-.12-2.73-.36-5.62-1.51-8.96-7.29-7.45-12.9l13.09-48.84c1.51-5.62,7.28-8.96,12.91-7.45,5.62,1.51,8.96,7.28,7.45,12.9l-13.09,48.84c-1.26,4.71-5.52,7.81-10.17,7.81Z"/><path d="M89.53,367.75c-1.79,0-3.6-.46-5.26-1.42-5.04-2.91-6.77-9.35-3.86-14.39l25.29-43.79c2.91-5.04,9.36-6.77,14.39-3.86,5.04,2.91,6.77,9.35,3.86,14.39l-25.29,43.79c-1.95,3.38-5.49,5.27-9.14,5.27Z"/><path d="M256,314.26c-50.15,0-97.57-12.85-133.52-36.18-38.09-24.72-59.07-58.25-59.07-94.41v-7.67c0-8.84,7.16-16,16-16h353.19c8.84,0,16,7.16,16,16v7.67c0,36.16-20.98,69.69-59.07,94.41-35.95,23.33-83.37,36.18-133.52,36.18ZM95.99,192c3.11,21.92,18.42,42.7,43.9,59.24,30.83,20.01,72.06,31.02,116.1,31.02s85.27-11.02,116.1-31.02c25.48-16.53,40.79-37.31,43.9-59.24H95.99Z"/></svg>