<?xml version="1.0" encoding="UTF-8"?><svg id="Icon" xmlns="http://www.w3.org/2000/svg" viewBox="0 0 512 512"><path d="M417.07,297.55c-1.49,2.58-4.79,3.46-7.37,1.97l-31.3-18.07c-2.58-1.49-3.46-4.79-1.97-7.37l3.14-5.44c1.49-2.58,4.79-3.46,7.37-1.97l31.3,18.07c2.58,1.49,3.46,4.79,1.97,7.37l-3.14,5.44Z"/><path d="M91.79,290.4c-1.49-2.58-.61-5.88,1.97-7.37l31.3-18.07c2.58-1.49,5.88-.6,7.37,1.97l3.14,5.44c1.49,2.58.6,5.88-1.98,7.37l-31.3,18.07c-2.58,1.49-5.88.6-7.37-1.97l-3.14-5.44Z"/><path d="M67.69,189.44h36.15c2.98,0,5.39,2.42,5.39,5.39v6.28c0,2.98-2.42,5.39-5.39,5.39h-36.15c-2.98,0-5.39-2.42-5.39-5.39v-6.28c0-2.98,2.42-5.39,5.39-5.39Z"/><path d="M89.81,98.4c1.49-2.58,4.79-3.46,7.37-1.97l31.3,18.07c2.58,1.49,3.46,4.79,1.97,7.37l-3.14,5.44c-1.49,2.58-4.79,3.46-7.37,1.97l-31.3-18.07c-2.58-1.49-3.46-4.79-1.97-7.37l3.14-5.44Z"/><path d="M161.87,28.65c2.58-1.49,5.88-.6,7.37,1.97l18.07,31.3c1.49,2.58.61,5.88-1.97,7.37l-5.44,3.14c-2.58,1.49-5.88.6-7.37-1.98l-18.07-31.3c-1.49-2.58-.61-5.88,1.97-7.37l5.44-3.14Z"/><path d="M252.86,4.27h6.28c2.98,0,5.39,2.42,5.39,5.39v36.15c0,2.98-2.42,5.39-5.39,5.39h-6.28c-2.98,0-5.39-2.42-5.39-5.39V9.66c0-2.98,2.42-5.39,5.39-5.39Z"/><path d="M323.05,42.01h36.15c2.98,0,5.39,2.42,5.39,5.39v6.28c0,2.98-2.42,5.39-5.39,5.39h-36.15c-2.98,0-5.39-2.42-5.39-5.39v-6.28c0-2.98,2.42-5.39,5.39-5.39Z" transform="translate(126.79 320.69) rotate(-60)"/><path d="M385.36,104.32h36.15c2.98,0,5.39,2.42,5.39,5.39v6.28c0,2.98-2.42,5.39-5.39,5.39h-36.15c-2.98,0-5.39-2.42-5.39-5.39v-6.28c0-2.98,2.42-5.39,5.39-5.39Z" transform="translate(-2.38 216.84) rotate(-30)"/><path d="M408.17,189.44h36.15c2.98,0,5.39,2.42,5.39,5.39v6.28c0,2.98-2.42,5.39-5.39,5.39h-36.15c-2.98,0-5.39-2.42-5.39-5.39v-6.28c0-2.98,2.42-5.39,5.39-5.39Z"/><path d="M262.27,447.59c22.31-2.75,39.76-13.62,51.73-31.59h-116c11.98,17.97,38.75,34.86,64.27,31.59Z"/><path d="M303.5,396h-95c-6.63,0-12-5.37-12-12s5.37-12,12-12h95c6.63,0,12,5.37,12,12s-5.37,12-12,12Z"/><path d="M376.95,147.38c-17.13-47.08-66.23-77.38-120.02-77.38-5.13,0-9.79.42-14.98.82-34.16,3.27-62.68,17.22-84.91,40.11-36.71,38.48-36.71,95.39-10.72,135.93,8.18,13.09,17.95,24.96,27.32,37.24,11.59,15.97,18.39,33.57,18.39,52.38,0,8.21,8.14,15.52,18.38,15.52h89.67c11.97,0,19.6-6.91,19.6-17.14,0-2.46.45-4.91.45-7.37,1.71-17.63,9.83-33.57,20.9-47.9,7.29-9.42,14.96-18.43,21.33-28.65,22.23-32.76,27.76-67.56,14.58-103.56ZM319.46,210.86c-10.7,3.83-22.6-3.33-24.3-14.54-3.71-23.04-25.34-39.61-48.89-38.49-19.23.56-37.31,13.01-45.52,30.53-2.9,6.08-4.72,12.78-5.32,19.71-.55,5.24-8.14,5.19-8.61-.07-2.83-34.35,22.63-66.2,56.42-72.67,37.53-7.78,75.05,15.05,87.37,51.17,3.87,9.78-1.15,20.93-11.13,24.36Z"/></svg>