<?xml version="1.0" encoding="UTF-8"?><svg id="Icon" xmlns="http://www.w3.org/2000/svg" viewBox="0 0 512 512"><path d="M335.86,220.62c6.04,3.41,12.99,5.38,20.41,5.38,22.96,0,41.58-18.61,41.58-41.58,0-4.84-.87-9.47-2.4-13.8l-59.59,49.99Z"/><path d="M412.24,108.4c-30.02-28.18-75.48-33.47-112.06-13.81l-19.62-23.39c-8.13-9.7-22.6-10.96-32.29-2.83l-.33.28c-8.61,7.22-10.58,19.43-5.21,28.86l-116.98,107.15c-2.54-.79-5.25-1.22-8.05-1.22-14.93,0-27.05,12.09-27.05,27.04,0,12.88,9,23.63,21.04,26.36l99.26,144.63c-17.43,5.71-30.95,16.09-37,29.82-3.47,7.88,2.43,16.71,11.04,16.71h112.99c8.62,0,14.47-8.84,11.03-16.75-8.96-20.59-34.42-33.64-64.78-34.42l-103.95-151.43c2.82-4.27,4.47-9.4,4.47-14.91,0-.8-.04-1.59-.11-2.37l117.15-107.31,3.82,4.55c-22.42,32.12-24.16,75.17-4.17,109.02,3.75,6.35,12.35,7.74,17.99,3l132.33-111.03c5.52-4.63,5.74-13.03.49-17.96ZM301.63,129.83h.02c12.02-10.16,27.33-15.74,43.11-15.74,8.49,0,16.86,1.61,24.71,4.7l-90.52,75.93c-4.84-23.87,3.59-48.86,22.69-64.89Z"/></svg>