<?xml version="1.0" encoding="UTF-8"?><svg id="Icon" xmlns="http://www.w3.org/2000/svg" viewBox="0 0 512 512"><path d="M346,443c-40.25,0-73-32.75-73-73s32.75-73,73-73,73,32.75,73,73-32.75,73-73,73ZM346,315c-30.33,0-55,24.67-55,55s24.67,55,55,55,55-24.67,55-55-24.67-55-55-55Z"/><path d="M371.59,391.8c-1.35,0-2.73-.31-4.02-.95l-25.6-12.8c-3.05-1.52-4.97-4.64-4.97-8.05v-38.4c0-4.97,4.03-9,9-9s9,4.03,9,9v32.84l20.62,10.31c4.45,2.22,6.25,7.63,4.02,12.08-1.58,3.15-4.76,4.98-8.06,4.98Z"/><path d="M362.37,250.95c.38-.56.75-1.13,1.12-1.69,21.28-32.26,26.42-66.49,13.47-101.88-17.13-47.08-66.23-77.38-120.02-77.38-5.13,0-9.79.42-14.98.82-34.16,3.27-62.68,17.22-84.91,40.11-36.71,38.48-36.71,95.39-10.72,135.93,8.18,13.09,17.95,24.96,27.32,37.24,11.59,15.97,18.39,33.57,18.39,52.38,0,8.21,8.14,15.52,18.38,15.52h47.4c2.37-11.64,7-22.46,13.39-32,6.38-9.52,14.53-17.75,23.97-24.23,11.36-7.8,24.6-13.07,38.88-14.97,4.29-.57,8.19-2.83,10.77-6.3l17.54-23.55Z"/><path d="M268.67,416h-70.67c10.4,15.61,31.96,30.39,54.16,31.87,3.37.23,6.75.15,10.11-.28,9.78-1.2,18.62-3.97,26.48-8.21-7.95-6.57-14.75-14.49-20.07-23.39Z"/><path d="M256.03,372h-47.53c-6.63,0-12,5.37-12,12s5.37,12,12,12h51.33c-2.31-7.63-3.63-15.67-3.81-24Z"/></svg>