<?xml version="1.0" encoding="UTF-8"?><svg id="Icon" xmlns="http://www.w3.org/2000/svg" viewBox="0 0 512 512"><path d="M257.03,386.47c-5.88,0-10.64-4.76-10.64-10.64v-51.05c0-5.88,4.76-10.64,10.64-10.64s10.64,4.76,10.64,10.64v51.05c0,5.88-4.76,10.64-10.64,10.64Z"/><path d="M342.99,378.58c-4.7,0-9-3.13-10.27-7.89l-13.21-49.31c-1.52-5.68,1.85-11.51,7.53-13.03,5.68-1.53,11.51,1.84,13.03,7.52l13.21,49.31c1.52,5.67-1.84,11.51-7.52,13.03-.92.25-1.85.37-2.76.37Z"/><path d="M424.07,362.15c-3.68,0-7.25-1.91-9.23-5.32l-25.53-44.21c-2.94-5.09-1.19-11.59,3.89-14.53,5.09-2.94,11.6-1.2,14.53,3.89l25.53,44.21c2.94,5.09,1.2,11.59-3.89,14.53-1.67.97-3.5,1.43-5.31,1.43Z"/><path d="M169.02,378.58c-.91,0-1.84-.12-2.76-.37-5.68-1.52-9.04-7.35-7.52-13.03l13.21-49.31c1.52-5.68,7.35-9.05,13.03-7.52,5.68,1.52,9.04,7.35,7.52,13.03l-13.21,49.31c-1.27,4.75-5.57,7.89-10.27,7.89Z"/><path d="M87.93,362.15c-1.81,0-3.63-.46-5.31-1.43-5.09-2.94-6.83-9.44-3.89-14.53l25.53-44.21c2.94-5.09,9.45-6.83,14.53-3.89,5.09,2.94,6.83,9.44,3.89,14.53l-25.53,44.21c-1.97,3.41-5.55,5.32-9.22,5.32Z"/><path d="M255.71,203.79c-37.26,0-72.33,1.85-98.73,5.2-39.31,4.99-44.73,11.16-44.73,17.09s5.42,12.1,44.73,17.09c26.4,3.35,61.47,5.2,98.73,5.2s72.33-1.85,98.73-5.2c39.31-4.99,44.73-11.16,44.73-17.09s-5.42-12.1-44.73-17.09c-26.4-3.35-61.47-5.2-98.73-5.2h0Z"/><path d="M388.26,156.04c-35.41-8.06-82.38-12.51-132.26-12.51s-96.85,4.44-132.26,12.51c-39.64,9.03-59.74,21.41-59.74,36.8v30.8c0,15.39,20.1,27.77,59.74,36.8,35.41,8.06,82.38,12.51,132.26,12.51s96.85-4.44,132.26-12.51c39.64-9.03,59.74-21.41,59.74-36.8v-30.8c0-15.39-20.1-27.77-59.74-36.8ZM78.44,192.83c0-2.06,2.82-5.77,10.73-10.03,8.61-4.64,21.67-9.03,37.78-12.7,34.39-7.83,80.22-12.15,129.06-12.15s94.67,4.31,129.06,12.15c16.11,3.67,29.17,8.06,37.78,12.7,7.91,4.26,10.73,7.97,10.73,10.03v10.38c-9.98-6.3-25.09-11.77-45.3-16.38-35.41-8.06-82.38-12.51-132.26-12.51s-96.85,4.44-132.26,12.51c-20.21,4.6-35.32,10.08-45.3,16.38v-10.38ZM422.84,233.66c-8.61,4.64-21.67,9.03-37.78,12.7-34.39,7.83-80.22,12.15-129.06,12.15s-94.67-4.31-129.06-12.15c-16.11-3.67-29.17-8.06-37.78-12.7-7.91-4.26-10.73-7.97-10.73-10.03s2.82-5.77,10.73-10.03c8.61-4.64,21.67-9.03,37.78-12.7,34.39-7.83,80.22-12.15,129.06-12.15s94.67,4.31,129.06,12.15c16.11,3.67,29.17,8.06,37.78,12.7,7.91,4.26,10.73,7.97,10.73,10.03s-2.82,5.77-10.73,10.03Z"/></svg>