<?xml version="1.0" encoding="UTF-8"?><svg id="Icon" xmlns="http://www.w3.org/2000/svg" viewBox="0 0 512 512"><path d="M259.91,148c-20.01,0-33.45,14.8-33.45,36.82s13.33,35.18,33.18,35.18c6.3,0,14.51-1.56,20.42-3.89l2.3-.91v-35.84h-26.91v13.27h12.36v13.09c-2.46.7-4.76,1-7.46,1-11.84,0-18.91-8.22-18.91-22,0-6.4,1.78-12.71,4.77-16.88,3.11-4.36,7.62-6.57,13.41-6.57,5.18,0,9.76,1.19,14.86,3.86l3.7,1.94,4.63-12.88-3.03-1.39c-7.48-3.44-13.06-4.79-19.89-4.79Z"/><path d="M216.92,195c-1.84-4.49-3.14-7.35-4.83-9.38,5.77-3.49,8.92-9.27,8.92-16.53s-3.33-13.39-9.14-16.85c-4.07-2.31-9.2-3.33-16.68-3.33h-17v70.18h14.54v-27.91c6.17.04,6.97.68,10.83,9.94l7.58,17.97h15.53l-9.75-24.09ZM202.23,176.41c-2.22,1.07-4.8,1.48-9.5,1.49l-.09-15.73c4.5,0,8.48.44,10.28,1.34,1.94,1.05,3.08,3.36,3.08,6.29,0,3.24-1.27,5.46-3.77,6.6Z"/><path d="M330.13,183.02c4-3.08,5.96-7.76,5.96-14.2,0-8.35-3.99-14.91-10.66-17.56-4.45-1.82-8.56-2.35-18.34-2.35h-13.45v70.18h16.09c10.59,0,13.46-.44,18.08-2.75,6.36-3.12,10.01-9.55,10.01-17.62,0-7.12-2.64-12.48-7.68-15.71ZM308.18,162.09c6.05.01,8.42.35,10.43,1.46,1.56.85,2.48,3.13,2.48,6.09s-.92,4.97-2.88,6.16c-.66.35-3.09,1.26-10.03,1.29v-15ZM319.97,204.49c-1.99,1.1-4.55,1.41-11.79,1.42v-15.91c5.58.02,8.66.38,10.92,1.28,2.52,1.09,3.72,3.2,3.72,6.62,0,2.34-.49,5.38-2.84,6.58Z"/><path d="M256.93,102c20.25,0,40.33,5.69,56.57,16.03,15.94,10.15,27.48,24.08,33.38,40.3v.03s.02.03.02.03c4.72,12.9,6.15,25.14,4.37,37.4-1.78,12.27-6.96,24.79-15.38,37.2l-.35.51-.33.53c-3.89,6.24-8.79,12.43-13.98,18.99-1.79,2.27-3.65,4.61-5.52,7.03-15,19.41-24.04,39.56-26.91,59.97h-66c-2.85-18.97-10.64-37.31-23.27-54.7l-.23-.31-.23-.31c-2.14-2.8-4.29-5.57-6.37-8.25-7.06-9.1-13.73-17.69-19.25-26.52l-.1-.16-.1-.16c-9.44-14.72-14.1-32.37-13.14-49.7.69-12.49,4.73-30.74,19.98-46.79,17.2-17.66,38.94-27.9,64.62-30.41l1.76-.14c4.05-.32,7.24-.56,10.45-.56M256.93,70c-5.13,0-9.79.42-14.98.82-34.16,3.27-62.68,17.22-84.91,40.11-36.71,38.48-36.71,95.39-10.72,135.93,8.18,13.09,17.95,24.96,27.32,37.24,11.59,15.97,18.39,33.57,18.39,52.38,0,8.21,8.14,15.52,18.38,15.52h89.67c11.97,0,19.6-6.91,19.6-17.14,0-2.46.45-4.91.45-7.37,1.71-17.63,9.83-33.57,20.9-47.9,7.29-9.42,14.97-18.43,21.33-28.65,22.23-32.76,27.76-67.56,14.58-103.56-17.13-47.08-66.23-77.38-120.02-77.38h0Z"/><path d="M262.27,447.59c22.31-2.75,39.76-13.62,51.73-31.59h-116c11.98,17.97,38.75,34.86,64.27,31.59Z"/><path d="M303.5,396h-95c-6.63,0-12-5.37-12-12s5.37-12,12-12h95c6.63,0,12,5.37,12,12s-5.37,12-12,12Z"/></svg>