<?xml version="1.0" encoding="UTF-8"?><svg id="Icon" xmlns="http://www.w3.org/2000/svg" viewBox="0 0 512 512"><path d="M446.69,359.52l-94.97-229.81-.09-.21c-4.57-10.63-15-17.5-26.58-17.5h-53.04V48c0-8.84-7.16-16-16-16s-16,7.16-16,16v64h-53.04c-11.57,0-22.01,6.87-26.58,17.5l-95.06,230.02c-3.8,8.94-2.88,19.1,2.46,27.22,5.37,8.15,14.4,13.02,24.16,13.02h328.11c9.76,0,18.79-4.87,24.16-13.02,5.34-8.11,6.26-18.28,2.47-27.21ZM96.54,367.76l92.47-223.76h133.98l92.47,223.76H96.54Z"/><path d="M224.31,436.01c20.87,17.51,51.98,14.79,69.49-6.08,3.69-4.4,8.29-8.83,10.2-13.93h-96c2.89,7.7,9.56,14.35,16.31,20.01Z"/></svg>