<svg id="Icon" xmlns="http://www.w3.org/2000/svg" viewBox="0 0 512 512">
  <g>
    <path d="M347,442.4a73,73,0,1,1,73-73A73.09,73.09,0,0,1,347,442.4Zm0-128a55,55,0,1,0,55,55A55.06,55.06,0,0,0,347,314.4Z"/>
    <path d="M372.59,391.2a9,9,0,0,1-4-.95L343,377.45a9,9,0,0,1-5-8.05V331a9,9,0,0,1,18,0v32.84l20.62,10.31a9,9,0,0,1-4,17.05Z"/>
  </g>
  <g>
    <path d="M266.87,424H212.44c9,13.48,29.11,26.15,48.27,23.69A55.43,55.43,0,0,0,281.59,441,97.61,97.61,0,0,1,266.87,424Z"/>
    <path d="M250.67,358A97.14,97.14,0,0,1,347,272.4l1.66,0a222.48,222.48,0,0,0,13.71-19.77c22.23-34.15,27.76-70.44,14.59-108C359.82,95.59,310.72,64,256.93,64c-5.13,0-9.78.44-15,.85-34.16,3.41-62.68,18-84.91,41.82-36.71,40.12-36.71,99.45-10.72,141.72,8.17,13.65,18,26,27.32,38.82,11.59,16.65,18.39,35,18.39,54.61,0,8.56,8.14,16.18,18.38,16.18Z"/>
    <path d="M250.23,376H209.74c-6.85,0-13,5.28-13,11.79,0,6.92,6.11,12.21,13,12.21H255A96.36,96.36,0,0,1,250.23,376Z"/>
  </g>
</svg>
