<?xml version="1.0" encoding="UTF-8"?><svg id="Icon" xmlns="http://www.w3.org/2000/svg" viewBox="0 0 512 512"><path d="M477.11,183.4c-4.19-8.5-12.3-14.32-21.7-15.61l-229.69-33.48-.22-.03c-11.23-1.48-22.09,3.82-27.67,13.49l-62.41,108.1c-5.59,9.67-4.74,21.73,2.15,30.71l143.97,182.35c5.43,7.01,13.72,11.06,22.5,11.06.62,0,1.24-.02,1.87-.06,9.26-.61,17.54-5.72,22.13-13.67l148.3-256.86c4.59-7.96,4.88-17.68.78-26ZM303.37,444.97l-138.73-175.71,59.38-102.85,221.54,32.29-142.18,246.27Z"/><path d="M174.91,123.48c-7.65-4.42-17.44-1.8-21.86,5.86l-56,96.99c-4.42,7.65-1.8,17.44,5.86,21.86,2.52,1.45,5.27,2.15,7.99,2.15,5.53,0,10.91-2.87,13.87-8l56-96.99c4.42-7.65,1.8-17.44-5.86-21.86Z"/><path d="M112,160c8.84,0,16-7.16,16-16V48c0-8.84-7.16-16-16-16s-16,7.16-16,16v96c0,8.84,7.16,16,16,16Z"/></svg>