<?xml version="1.0" encoding="UTF-8"?><svg id="Icon" xmlns="http://www.w3.org/2000/svg" viewBox="0 0 512 512"><path d="M309.83,133.47h-25.63c-3.43-12.36-14.77-21.47-28.21-21.47-16.14,0-29.27,13.13-29.27,29.27v72.01c-15.28,14.13-18.48,37.72-6.56,55.56,8.3,12.42,21.97,19.14,35.89,19.14,8.23,0,16.54-2.35,23.87-7.25,19.75-13.2,25.09-40.01,11.89-59.76-1.89-2.83-4.08-5.4-6.56-7.69v-4.75h24.56c2.98,0,5.39-2.42,5.39-5.39v-6.28c0-2.98-2.42-5.39-5.39-5.39h-24.56v-11.93h24.56c2.98,0,5.39-2.42,5.39-5.39v-6.28c0-2.98-2.42-5.39-5.39-5.39h-24.56v-11.93h24.56c2.98,0,5.39-2.42,5.39-5.39v-6.28c0-2.98-2.42-5.39-5.39-5.39ZM266.6,260.78c-8.75,5.85-20.63,3.48-26.48-5.27-5.85-8.75-3.48-20.63,5.27-26.48,3.33-2.23,5.33-5.97,5.33-9.98v-77.79c0-2.91,2.36-5.27,5.27-5.27s5.27,2.37,5.27,5.27v77.79c0,4.01,2,7.75,5.33,9.98,2.1,1.4,3.87,3.17,5.27,5.27,5.85,8.75,3.48,20.63-5.27,26.48Z"/><path d="M376.95,147.38c-17.13-47.08-66.23-77.38-120.02-77.38-5.13,0-9.79.42-14.98.82-34.16,3.27-62.68,17.22-84.91,40.11-36.71,38.48-36.71,95.39-10.72,135.93,8.18,13.09,17.95,24.96,27.32,37.24,11.59,15.97,18.39,33.57,18.39,52.38,0,8.21,8.14,15.52,18.38,15.52h89.67c11.97,0,19.6-6.91,19.6-17.14,0-2.46.45-4.91.45-7.37,1.71-17.63,9.83-33.57,20.9-47.9,7.29-9.42,14.97-18.43,21.34-28.65,22.23-32.76,27.76-67.56,14.58-103.56ZM351.27,195.78c-1.78,12.27-6.96,24.79-15.38,37.2l-.35.51-.33.53c-3.89,6.24-8.79,12.43-13.98,18.99-1.79,2.27-3.65,4.61-5.52,7.02-15,19.41-24.04,39.56-26.91,59.97h-66c-2.85-18.97-10.64-37.31-23.27-54.7l-.23-.31-.23-.31c-2.14-2.8-4.29-5.57-6.37-8.25-7.06-9.1-13.73-17.69-19.25-26.52l-.1-.16-.1-.16c-9.44-14.72-14.1-32.37-13.14-49.7.69-12.49,4.73-30.74,19.98-46.79,17.2-17.67,38.94-27.9,64.62-30.42l1.75-.14c4.05-.32,7.25-.56,10.46-.56,20.25,0,40.33,5.69,56.57,16.03,15.94,10.15,27.48,24.08,33.38,40.3v.03s.02.03.02.03c4.72,12.9,6.15,25.14,4.37,37.4Z"/><path d="M262.27,447.59c22.31-2.75,39.76-13.62,51.73-31.59h-116c11.98,17.97,38.75,34.86,64.27,31.59Z"/><path d="M303.5,372h-95c-6.63,0-12,5.37-12,12s5.37,12,12,12h95c6.63,0,12-5.37,12-12s-5.37-12-12-12Z"/></svg>