<?xml version="1.0" encoding="UTF-8"?><svg id="Icon" xmlns="http://www.w3.org/2000/svg" viewBox="0 0 512 512"><path d="M319.1,191.29c-2.26-.91-5.34-1.27-10.92-1.28v15.91c7.25,0,9.8-.32,11.79-1.42,2.35-1.21,2.84-4.25,2.84-6.58,0-3.42-1.19-5.53-3.71-6.62Z"/><path d="M321.09,169.64c0-2.96-.93-5.24-2.48-6.09-2.01-1.11-4.38-1.44-10.43-1.46v15c6.94-.03,9.37-.94,10.03-1.29,1.97-1.19,2.88-3.15,2.88-6.16Z"/><path d="M202.92,163.52c-1.81-.9-5.78-1.34-10.28-1.34l.09,15.73c4.7-.01,7.28-.42,9.5-1.49,2.5-1.13,3.77-3.35,3.77-6.6,0-2.93-1.14-5.24-3.08-6.29Z"/><path d="M376.95,147.38c-17.13-47.08-66.23-77.38-120.02-77.38-5.13,0-9.79.42-14.98.82-34.16,3.27-62.68,17.22-84.91,40.11-36.71,38.48-36.71,95.39-10.72,135.93,8.18,13.09,17.95,24.96,27.32,37.24,11.59,15.97,18.39,33.57,18.39,52.38,0,8.21,8.14,15.52,18.38,15.52h89.67c11.97,0,19.6-6.91,19.6-17.14,0-2.46.45-4.91.45-7.37,1.71-17.63,9.83-33.57,20.9-47.9,7.29-9.42,14.97-18.43,21.33-28.65,22.23-32.76,27.76-67.56,14.58-103.56ZM211.14,219.09l-7.58-17.97c-3.86-9.26-4.66-9.9-10.83-9.94v27.91h-14.54v-70.18h17c7.48,0,12.61,1.02,16.68,3.33,5.81,3.46,9.14,9.6,9.14,16.85s-3.14,13.04-8.92,16.53c1.7,2.03,2.99,4.89,4.83,9.38l9.75,24.09h-15.53ZM260.36,206.73c2.7,0,4.99-.3,7.46-1v-13.09h-12.36v-13.27h26.91v35.84l-2.3.91c-5.91,2.33-14.12,3.89-20.42,3.89-19.85,0-33.18-14.14-33.18-35.18s13.44-36.82,33.45-36.82c6.83,0,12.4,1.34,19.89,4.79l3.03,1.39-4.63,12.88-3.7-1.94c-5.09-2.67-9.68-3.86-14.86-3.86-5.79,0-10.3,2.21-13.41,6.57-2.99,4.17-4.77,10.48-4.77,16.88,0,13.78,7.07,22,18.91,22ZM327.8,216.34c-4.62,2.31-7.5,2.75-18.08,2.75h-16.09v-70.18h13.45c9.78,0,13.89.53,18.34,2.35,6.67,2.65,10.66,9.21,10.66,17.56,0,6.44-1.95,11.12-5.96,14.2,5.04,3.23,7.68,8.59,7.68,15.71,0,8.07-3.65,14.49-10.01,17.62Z"/><path d="M262.27,447.59c22.31-2.75,39.76-13.62,51.73-31.59h-116c11.98,17.97,38.75,34.86,64.27,31.59Z"/><path d="M303.5,396h-95c-6.63,0-12-5.37-12-12s5.37-12,12-12h95c6.63,0,12,5.37,12,12s-5.37,12-12,12Z"/></svg>