<?xml version="1.0" encoding="UTF-8"?><svg id="Icon" xmlns="http://www.w3.org/2000/svg" viewBox="0 0 512 512"><path d="M243.01,336c-3.09,0-6.22-.9-8.97-2.76-7.31-4.96-9.21-14.91-4.25-22.22l27.09-39.9h-31.94c-5.83,0-11.19-3.17-14.01-8.27-2.82-5.1-2.64-11.33.46-16.26l39.72-63.11c4.71-7.48,14.58-9.73,22.06-5.02,7.48,4.71,9.73,14.58,5.02,22.06l-24.29,38.59h33.17c5.92,0,11.37,3.27,14.14,8.51s2.43,11.58-.9,16.48l-44.05,64.89c-3.09,4.56-8.13,7.01-13.25,7.01Z"/><path d="M256,404c-81.61,0-148-66.39-148-148s66.39-148,148-148,148,66.39,148,148-66.39,148-148,148ZM256,140c-63.96,0-116,52.04-116,116s52.04,116,116,116,116-52.04,116-116-52.04-116-116-116Z"/><path d="M256,88c-8.84,0-16-7.16-16-16v-24c0-8.84,7.16-16,16-16s16,7.16,16,16v24c0,8.84-7.16,16-16,16Z"/><path d="M347.99,112.65c-2.71,0-5.47-.69-7.99-2.15-7.65-4.42-10.27-14.2-5.86-21.86l12-20.78c4.42-7.65,14.21-10.28,21.86-5.86,7.65,4.42,10.27,14.2,5.86,21.86l-12,20.78c-2.96,5.13-8.34,8-13.87,8Z"/><path d="M415.36,180c-5.53,0-10.91-2.87-13.87-8-4.42-7.65-1.8-17.44,5.86-21.86l20.78-12c7.65-4.42,17.44-1.8,21.86,5.86,4.42,7.65,1.8,17.44-5.86,21.86l-20.78,12c-2.52,1.45-5.27,2.15-7.99,2.15Z"/><path d="M464,272h-24c-8.84,0-16-7.16-16-16s7.16-16,16-16h24c8.84,0,16,7.16,16,16s-7.16,16-16,16Z"/><path d="M436.12,376c-2.71,0-5.47-.69-7.99-2.15l-20.78-12c-7.65-4.42-10.27-14.2-5.86-21.86,4.42-7.65,14.2-10.28,21.86-5.86l20.78,12c7.65,4.42,10.27,14.2,5.86,21.86-2.96,5.13-8.34,8-13.87,8Z"/><path d="M360.01,452.14c-5.53,0-10.91-2.87-13.87-8l-12-20.79c-4.42-7.65-1.8-17.44,5.86-21.86,7.65-4.42,17.44-1.8,21.86,5.86l12,20.79c4.42,7.65,1.8,17.44-5.86,21.86-2.52,1.46-5.27,2.15-7.99,2.15Z"/><path d="M256,480c-8.84,0-16-7.16-16-16v-24c0-8.84,7.16-16,16-16s16,7.16,16,16v24c0,8.84-7.16,16-16,16Z"/><path d="M151.99,452.14c-2.71,0-5.46-.69-7.99-2.15-7.65-4.42-10.27-14.2-5.86-21.86l12-20.79c4.42-7.65,14.2-10.28,21.86-5.86,7.65,4.42,10.27,14.2,5.86,21.86l-12,20.79c-2.96,5.13-8.34,8-13.87,8Z"/><path d="M75.88,376c-5.53,0-10.91-2.87-13.87-8-4.42-7.65-1.8-17.44,5.86-21.86l20.79-12c7.65-4.42,17.44-1.8,21.86,5.86,4.42,7.65,1.8,17.44-5.86,21.86l-20.79,12c-2.52,1.46-5.27,2.15-7.99,2.15Z"/><path d="M72,272h-24c-8.84,0-16-7.16-16-16s7.16-16,16-16h24c8.84,0,16,7.16,16,16s-7.16,16-16,16Z"/><path d="M96.64,180c-2.71,0-5.46-.69-7.99-2.15l-20.79-12c-7.65-4.42-10.27-14.2-5.86-21.86,4.42-7.65,14.2-10.28,21.86-5.86l20.79,12c7.65,4.42,10.27,14.2,5.86,21.86-2.96,5.13-8.34,8-13.87,8Z"/><path d="M164.01,112.65c-5.53,0-10.91-2.87-13.87-8l-12-20.78c-4.42-7.65-1.8-17.44,5.86-21.86,7.65-4.42,17.44-1.8,21.86,5.86l12,20.78c4.42,7.65,1.8,17.44-5.86,21.86-2.52,1.45-5.27,2.15-7.99,2.15Z"/><path d="M256,88c-8.84,0-16-7.16-16-16v-24c0-8.84,7.16-16,16-16s16,7.16,16,16v24c0,8.84-7.16,16-16,16Z"/></svg>