<?xml version="1.0" encoding="UTF-8"?><svg id="Icon" xmlns="http://www.w3.org/2000/svg" viewBox="0 0 512 512"><path d="M283.99,301.1c-9.04,1.9-18.4,2.9-27.99,2.9s-18.95-1-27.99-2.9c0,.3-.01.6-.01.9,0,27.38,10.64,52.32,28,70.91,17.36-18.59,28-43.53,28-70.91,0-.3,0-.6-.01-.9Z"/><path d="M203.42,257.69c5.98-17.32,15.37-33.06,27.37-46.42-15.03-8.44-32.35-13.27-50.78-13.27-7.83,0-15.45.87-22.79,2.52,7.98,24.18,24.61,44.46,46.2,57.17Z"/><path d="M256,272c7.83,0,15.45-.87,22.79-2.52-4.77-14.45-12.63-27.51-22.79-38.39-10.16,10.88-18.02,23.94-22.79,38.39,7.34,1.65,14.96,2.52,22.79,2.52Z"/><path d="M281.22,211.27c11.99,13.36,21.38,29.11,27.37,46.42,21.6-12.71,38.22-32.99,46.2-57.17-7.34-1.65-14.96-2.52-22.79-2.52-18.43,0-35.75,4.83-50.78,13.27Z"/><path d="M256.54,98.08c-1.99-.99-6.36-1.48-11.31-1.48l.1,17.3c5.17-.02,8.01-.46,10.45-1.64,2.75-1.25,4.15-3.69,4.15-7.26,0-3.23-1.26-5.76-3.39-6.92Z"/><path d="M256,64c-57.35,0-104,46.65-104,104,0,.3,0,.6.01.9,9.04-1.9,18.4-2.9,27.99-2.9,28.13,0,54.29,8.58,76,23.27,21.71-14.68,47.87-23.27,76-23.27,9.59,0,18.95,1,27.99,2.9,0-.3.01-.6.01-.9,0-57.35-46.65-104-104-104ZM265.58,159.2l-8.34-19.76c-4.25-10.19-5.12-10.89-11.91-10.94v30.7h-16v-77.2h18.7c8.23,0,13.87,1.12,18.35,3.66,6.39,3.81,10.05,10.56,10.05,18.54s-3.46,14.35-9.81,18.18c1.87,2.23,3.29,5.38,5.32,10.32l10.73,26.5h-17.09Z"/><path d="M379.9,311.2c0-3.26-1.02-5.76-2.73-6.7-2.21-1.22-4.81-1.59-11.47-1.6v16.5c7.63-.03,10.31-1.03,11.03-1.42,2.17-1.31,3.17-3.47,3.17-6.78Z"/><path d="M377.71,335.01c-2.49-1-5.88-1.4-12.01-1.41v17.5c7.97-.01,10.78-.35,12.97-1.56,2.59-1.33,3.13-4.67,3.13-7.24,0-3.77-1.31-6.09-4.09-7.29Z"/><path d="M384.58,212.31c-11.82,34.2-36.91,62.25-69.09,77.97.33,3.86.51,7.77.51,11.72,0,34.83-13.17,66.64-34.78,90.73,15.03,8.44,32.35,13.27,50.78,13.27,57.35,0,104-46.65,104-104,0-38.17-20.68-71.6-51.42-89.69ZM387.29,362.58c-5.08,2.54-8.25,3.02-19.89,3.02h-17.7v-77.2h14.8c10.76,0,15.29.58,20.18,2.58,7.34,2.91,11.73,10.13,11.73,19.32,0,7.09-2.15,12.24-6.55,15.62,5.55,3.55,8.45,9.45,8.45,17.28,0,8.88-4.02,15.94-11.01,19.38Z"/><path d="M196,302c0-3.95.18-7.86.51-11.72-32.18-15.72-57.28-43.78-69.09-77.97-30.74,18.09-51.42,51.52-51.42,89.69,0,57.35,46.65,104,104,104,18.43,0,35.75-4.83,50.78-13.27-21.61-24.09-34.78-55.9-34.78-90.73ZM144.3,352c2.97,0,5.49-.33,8.2-1.1v-14.4h-13.6v-14.6h29.6v39.43l-2.54,1c-6.5,2.56-15.53,4.28-22.47,4.28-21.83,0-36.5-15.55-36.5-38.7s14.79-40.5,36.8-40.5c7.51,0,13.64,1.48,21.88,5.27l3.33,1.53-5.09,14.17-4.07-2.13c-5.6-2.94-10.65-4.24-16.35-4.24-6.37,0-11.33,2.43-14.75,7.23-3.29,4.59-5.25,11.53-5.25,18.57,0,15.15,7.78,24.2,20.8,24.2Z"/></svg>