<?xml version="1.0" encoding="UTF-8"?><svg id="Icon" xmlns="http://www.w3.org/2000/svg" viewBox="0 0 512 512"><path d="M266.6,229.04c-3.33-2.23-5.33-5.97-5.33-9.98v-77.79c0-2.91-2.36-5.27-5.27-5.27s-5.27,2.37-5.27,5.27v77.79c0,4.01-2,7.75-5.33,9.98-8.75,5.85-11.11,17.72-5.27,26.48,5.85,8.75,17.72,11.11,26.48,5.27,8.75-5.85,11.11-17.72,5.27-26.48-1.4-2.1-3.17-3.87-5.27-5.27Z"/><path d="M376.95,147.38c-17.13-47.08-66.23-77.38-120.02-77.38-5.13,0-9.79.42-14.98.82-34.16,3.27-62.68,17.22-84.91,40.11-36.71,38.48-36.71,95.39-10.72,135.93,8.18,13.09,17.95,24.96,27.32,37.24,11.59,15.97,18.39,33.57,18.39,52.38,0,8.21,8.14,15.52,18.38,15.52h89.67c11.97,0,19.6-6.91,19.6-17.14,0-2.46.45-4.91.45-7.37,1.71-17.63,9.83-33.57,20.9-47.9,7.29-9.42,14.97-18.43,21.34-28.65,22.23-32.76,27.76-67.56,14.58-103.56ZM315.23,145.14c0,2.98-2.42,5.39-5.39,5.39h-24.56v11.93h24.56c2.98,0,5.39,2.42,5.39,5.39v6.28c0,2.98-2.42,5.39-5.39,5.39h-24.56v11.93h24.56c2.98,0,5.39,2.42,5.39,5.39v6.28c0,2.98-2.42,5.39-5.39,5.39h-24.56v4.75c2.47,2.29,4.66,4.86,6.56,7.69,13.2,19.75,7.87,46.57-11.89,59.76-7.34,4.9-15.65,7.25-23.87,7.25-13.92,0-27.6-6.72-35.89-19.14-11.92-17.84-8.72-41.43,6.56-55.56v-72.01c0-16.14,13.13-29.27,29.27-29.27,13.44,0,24.78,9.1,28.21,21.47h25.63c2.98,0,5.39,2.42,5.39,5.39v6.28Z"/><path d="M262.27,447.59c22.31-2.75,39.76-13.62,51.73-31.59h-116c11.98,17.97,38.75,34.86,64.27,31.59Z"/><path d="M303.5,372h-95c-6.63,0-12,5.37-12,12s5.37,12,12,12h95c6.63,0,12-5.37,12-12s-5.37-12-12-12Z"/></svg>