<?xml version="1.0" encoding="UTF-8"?><svg id="Icon" xmlns="http://www.w3.org/2000/svg" viewBox="0 0 512 512"><path d="M271.94,132.7c-2.03-4.94-3.45-8.09-5.32-10.32,6.35-3.83,9.81-10.19,9.81-18.18s-3.66-14.73-10.05-18.54c-4.48-2.54-10.12-3.66-18.35-3.66h-18.7v77.2h16v-30.7c6.79.05,7.66.75,11.91,10.94l8.34,19.76h17.09l-10.73-26.5ZM255.78,112.26c-2.45,1.18-5.28,1.63-10.45,1.64l-.1-17.3c4.95,0,9.32.48,11.31,1.48,2.13,1.16,3.39,3.69,3.39,6.92,0,3.57-1.4,6.01-4.15,7.26Z"/><path d="M389.85,325.92c4.4-3.39,6.55-8.53,6.55-15.62,0-9.18-4.38-16.41-11.73-19.32-4.89-2-9.42-2.58-20.18-2.58h-14.8v77.2h17.7c11.65,0,14.81-.48,19.89-3.02,6.99-3.44,11.01-10.5,11.01-19.38,0-7.83-2.91-13.73-8.45-17.28ZM365.7,302.9c6.66.01,9.26.38,11.47,1.6,1.71.94,2.73,3.44,2.73,6.7s-1.01,5.47-3.17,6.78c-.72.39-3.4,1.39-11.03,1.42v-16.5ZM378.67,349.54c-2.19,1.21-5,1.55-12.97,1.56v-17.5c6.14.02,9.53.42,12.01,1.41,2.77,1.2,4.09,3.52,4.09,7.29,0,2.57-.54,5.91-3.13,7.24Z"/><path d="M391.49,179.72c.33-3.86.51-7.77.51-11.72,0-74.99-61.01-136-136-136S120,93.01,120,168c0,3.95.18,7.86.51,11.72-45.26,22.11-76.51,68.61-76.51,122.28,0,74.99,61.01,136,136,136,28.13,0,54.29-8.58,76-23.27,21.71,14.68,47.87,23.27,76,23.27,74.99,0,136-61.01,136-136,0-53.67-31.25-100.17-76.51-122.28ZM152,168c0-57.35,46.65-104,104-104s104,46.65,104,104c0,.3,0,.6-.01.9-9.04-1.9-18.4-2.9-27.99-2.9-28.13,0-54.29,8.58-76,23.27-21.71-14.68-47.87-23.27-76-23.27-9.59,0-18.95,1-27.99,2.9,0-.3-.01-.6-.01-.9ZM284,302c0,27.38-10.64,52.32-28,70.91-17.36-18.59-28-43.53-28-70.91,0-.3,0-.6.01-.9,9.04,1.9,18.4,2.9,27.99,2.9s18.95-1,27.99-2.9c0,.3.01.6.01.9ZM256,272c-7.83,0-15.45-.87-22.79-2.52,4.77-14.45,12.63-27.51,22.79-38.39,10.16,10.88,18.02,23.94,22.79,38.39-7.34,1.65-14.96,2.52-22.79,2.52ZM203.42,257.69c-21.6-12.71-38.22-32.99-46.2-57.17,7.34-1.65,14.96-2.52,22.79-2.52,18.43,0,35.75,4.83,50.78,13.27-11.99,13.36-21.38,29.11-27.37,46.42ZM281.22,211.27c15.03-8.44,32.35-13.27,50.78-13.27,7.83,0,15.45.87,22.79,2.52-7.98,24.18-24.61,44.46-46.2,57.17-5.98-17.32-15.37-33.06-27.37-46.42ZM76,302c0-38.17,20.68-71.6,51.42-89.69,11.82,34.2,36.91,62.25,69.09,77.97-.33,3.86-.51,7.77-.51,11.72,0,34.83,13.17,66.64,34.78,90.73-15.03,8.44-32.35,13.27-50.78,13.27-57.35,0-104-46.65-104-104ZM332,406c-18.43,0-35.75-4.83-50.78-13.27,21.61-24.09,34.78-55.9,34.78-90.73,0-3.95-.18-7.86-.51-11.72,32.18-15.72,57.28-43.78,69.09-77.97,30.74,18.09,51.42,51.52,51.42,89.69,0,57.35-46.65,104-104,104Z"/><path d="M143.8,287.4c-22.01,0-36.8,16.28-36.8,40.5s14.67,38.7,36.5,38.7c6.93,0,15.96-1.72,22.47-4.28l2.54-1v-39.43h-29.6v14.6h13.6v14.4c-2.71.77-5.23,1.1-8.2,1.1-13.03,0-20.8-9.05-20.8-24.2,0-7.04,1.96-13.98,5.25-18.57,3.42-4.8,8.38-7.23,14.75-7.23,5.7,0,10.74,1.31,16.35,4.24l4.07,2.13,5.09-14.17-3.33-1.53c-8.23-3.79-14.36-5.27-21.88-5.27Z"/></svg>