<?xml version="1.0" encoding="UTF-8"?><svg id="Icon" xmlns="http://www.w3.org/2000/svg" viewBox="0 0 512 512"><path d="M256.93,70c-5.13,0-9.79.42-14.98.82-34.16,3.27-62.68,17.22-84.91,40.11-36.71,38.48-36.71,95.39-10.72,135.93,8.18,13.09,17.95,24.96,27.32,37.24,11.59,15.97,18.39,33.57,18.39,52.38,0,8.21,8.14,15.52,18.38,15.52h89.67c11.97,0,19.6-6.91,19.6-17.14,0-2.46.45-4.91.45-7.37,1.71-17.63,9.83-33.57,20.9-47.9,7.29-9.42,14.97-18.43,21.34-28.65,22.23-32.76,27.76-67.56,14.58-103.56-17.13-47.08-66.23-77.38-120.02-77.38h0Z"/><path d="M262.27,447.59c22.31-2.75,39.76-13.62,51.73-31.59h-116c11.98,17.97,38.75,34.86,64.27,31.59Z"/><path d="M303.5,396h-95c-6.63,0-12-5.37-12-12s5.37-12,12-12h95c6.63,0,12,5.37,12,12s-5.37,12-12,12Z"/></svg>