<?xml version="1.0" encoding="UTF-8"?><svg id="Icon" xmlns="http://www.w3.org/2000/svg" viewBox="0 0 512 512"><path d="M346,443c-40.25,0-73-32.75-73-73s32.75-73,73-73,73,32.75,73,73-32.75,73-73,73ZM346,315c-30.33,0-55,24.67-55,55s24.67,55,55,55,55-24.67,55-55-24.67-55-55-55Z"/><path d="M371.59,391.8c-1.35,0-2.73-.31-4.02-.95l-25.6-12.8c-3.05-1.52-4.97-4.64-4.97-8.05v-38.4c0-4.97,4.03-9,9-9s9,4.03,9,9v32.84l20.62,10.31c4.45,2.22,6.25,7.63,4.02,12.08-1.58,3.15-4.76,4.98-8.06,4.98Z"/><path d="M362.37,250.95c.38-.56.75-1.13,1.12-1.69,21.28-32.26,26.42-66.49,13.47-101.88-17.13-47.08-66.23-77.38-120.02-77.38-5.13,0-9.79.42-14.98.82-34.16,3.27-62.68,17.22-84.91,40.11-36.71,38.48-36.71,95.39-10.72,135.93,8.18,13.09,17.95,24.96,27.32,37.24,11.59,15.97,18.39,33.57,18.39,52.38,0,8.21,8.14,15.52,18.38,15.52h47.4c2.37-11.64,7-22.46,13.39-32,6.38-9.52,14.53-17.75,23.97-24.23,11.36-7.8,24.6-13.07,38.88-14.97,4.29-.57,8.19-2.83,10.77-6.3l17.54-23.55ZM351.27,195.78c-1.78,12.27-6.96,24.79-15.38,37.2l-.35.51-.33.53c-3.31,5.31-7.34,10.57-11.67,16.06-39.68,7.41-72.66,34.09-88.82,69.92h-11.92c-2.85-18.97-10.64-37.31-23.27-54.7l-.23-.31-.23-.31c-2.14-2.8-4.28-5.57-6.36-8.24-7.06-9.1-13.73-17.69-19.25-26.53l-.1-.16-.1-.16c-9.44-14.72-14.1-32.37-13.14-49.7.69-12.49,4.73-30.73,19.98-46.78,17.2-17.67,38.94-27.9,64.63-30.42l1.75-.14c4.05-.32,7.25-.56,10.46-.56,20.25,0,40.33,5.69,56.57,16.03,15.94,10.15,27.48,24.08,33.38,40.3v.03s.02.03.02.03c4.72,12.9,6.15,25.14,4.37,37.4Z"/><path d="M268.67,416h-70.67c10.4,15.61,31.96,30.39,54.16,31.87,3.37.23,6.75.15,10.11-.28,9.78-1.2,18.62-3.97,26.48-8.21-7.95-6.57-14.75-14.49-20.07-23.39Z"/><path d="M256.03,372h-47.53c-6.63,0-12,5.37-12,12s5.37,12,12,12h51.33c-2.31-7.63-3.63-15.67-3.81-24Z"/></svg>