<?xml version="1.0" encoding="UTF-8"?><svg id="Icon" xmlns="http://www.w3.org/2000/svg" viewBox="0 0 512 512"><path d="M291.69,325.21c-5.02,0-10.07-.36-15.13-1.09-27.63-3.98-52.05-18.49-68.77-40.84-5.29-7.08-3.85-17.1,3.23-22.4,7.08-5.29,17.1-3.85,22.4,3.23,11.6,15.51,28.54,25.57,47.71,28.33,19.17,2.76,38.26-2.1,53.77-13.7,2.77-2.07,5.41-4.36,7.85-6.8l53-53c27.68-28.76,26.85-74.68-1.87-102.42-13.59-13.12-31.48-20.35-50.37-20.35s-36.71,7.2-50.29,20.27l-30.36,30.18c-6.27,6.23-16.4,6.2-22.63-.07-6.23-6.27-6.2-16.4.07-22.63l30.44-30.27c.05-.05.11-.11.17-.16,19.59-18.92,45.37-29.33,72.6-29.33s53.01,10.42,72.6,29.33c41.45,40.03,42.6,106.32,2.57,147.76-.06.07-.13.13-.2.2l-53.1,53.1c-3.52,3.52-7.33,6.82-11.31,9.8-18.26,13.66-39.97,20.84-62.37,20.84Z"/><path d="M168.5,447.82c-27.23,0-53.01-10.42-72.6-29.33-41.45-40.03-42.6-106.32-2.57-147.76.06-.07.13-.13.2-.2l53.1-53.1c3.52-3.52,7.32-6.82,11.31-9.8,22.35-16.72,49.88-23.73,77.5-19.75,27.63,3.98,52.05,18.49,68.77,40.84,5.29,7.08,3.85,17.1-3.23,22.4-7.08,5.29-17.1,3.85-22.4-3.23-11.6-15.51-28.54-25.57-47.71-28.33-19.17-2.76-38.26,2.1-53.77,13.7-2.77,2.07-5.41,4.36-7.85,6.8l-53,53c-27.68,28.76-26.85,74.68,1.87,102.42,13.59,13.12,31.48,20.35,50.37,20.35s36.69-7.19,50.27-20.26l30.16-30.16c6.25-6.25,16.38-6.25,22.63,0,6.25,6.25,6.25,16.38,0,22.63l-30.27,30.27c-.07.07-.13.13-.2.19-19.59,18.92-45.37,29.33-72.6,29.33Z"/></svg>