<?xml version="1.0" encoding="UTF-8"?><svg id="Icon" xmlns="http://www.w3.org/2000/svg" viewBox="0 0 512 512"><path d="M440.58,130.01c-.31-.79-.63-1.57-.97-2.35-2.99-7.03-6.78-13.79-11.36-20.14-3.57-4.94-7.62-9.63-12.15-14.01-19.59-18.92-45.37-29.33-72.6-29.33s-53.01,10.42-72.6,29.33c-.06.05-.11.11-.17.16l-30.44,30.27c-6.27,6.23-6.3,16.36-.07,22.63,6.23,6.27,16.36,6.3,22.63.07l30.36-30.18c1.7-1.63,3.46-3.18,5.29-4.63.02-.01.03-.03.05-.04.9-.71,1.81-1.4,2.73-2.06.04-.03.08-.06.12-.08.9-.65,1.82-1.27,2.74-1.87.03-.02.07-.04.11-.06,5.79-3.74,12.05-6.61,18.63-8.56.17-.05.34-.09.52-.14,4.16-1.2,8.44-2.02,12.8-2.46.72-.07,1.45-.12,2.18-.17,1.7-.12,3.4-.2,5.12-.2,18.89,0,36.78,7.23,50.37,20.35,2.69,2.6,5.14,5.36,7.34,8.25,21.29,27.95,19.61,68.1-5.47,94.17l-53,53c-2.44,2.44-5.08,4.73-7.85,6.8-20.81,15.57-48.56,18.79-72.42,8.41-8.1-3.52-17.53.19-21.05,8.29-3.52,8.1.19,17.53,8.29,21.05,13.35,5.81,27.55,8.66,41.68,8.66,22.25,0,44.33-7.07,62.67-20.79,3.99-2.98,7.79-6.28,11.31-9.8l30.61-30.61s0,0,0,0l22.48-22.48c.07-.07.13-.13.2-.2,19.39-20.08,29.12-45.98,29.28-71.9.09-13.38-2.38-26.77-7.37-39.36Z"/><path d="M269.05,363.35c-2.66-1.76-5.73-2.64-8.8-2.64-2.05,0-4.09.39-6.02,1.17-1.93.78-3.73,1.95-5.29,3.52l-30.16,30.16c-13.58,13.07-31.42,20.26-50.27,20.26s-36.78-7.23-50.37-20.35c-.9-.87-1.77-1.75-2.61-2.65-26.14-27.94-26.07-71.91.74-99.77l53-53c2.44-2.44,5.08-4.73,7.85-6.8,20.86-15.6,48.66-18.8,72.55-8.35,8.1,3.54,17.53-.15,21.07-8.25,3.54-8.1-.15-17.53-8.25-21.07-34.42-15.05-74.48-10.44-104.54,12.05-3.99,2.98-7.79,6.28-11.31,9.8l-53.1,53.1h0c-.07.07-.13.13-.19.2-40.03,41.45-38.88,107.73,2.57,147.76,19.59,18.92,45.37,29.33,72.6,29.33,6.81,0,13.52-.65,20.08-1.92,19.66-3.82,37.83-13.22,52.52-27.41.07-.06.13-.13.2-.19l30.27-30.27c6.25-6.25,6.25-16.38,0-22.63-.78-.78-1.62-1.46-2.51-2.05Z"/><path d="M421.65,322.59h-37.3c-8.84,0-16,7.16-16,16s7.16,16,16,16h37.3c8.84,0,16-7.16,16-16s-7.16-16-16-16Z"/><path d="M336.5,371.24c-8.84,0-16,7.16-16,16v37.3c0,8.84,7.16,16,16,16s16-7.16,16-16v-37.3c0-8.84-7.16-16-16-16Z"/><path d="M372.96,352.42c-6.25-6.25-16.38-6.25-22.63,0s-6.25,16.38,0,22.63l36.49,36.49c3.12,3.12,7.22,4.69,11.31,4.69s8.19-1.56,11.31-4.69c6.25-6.25,6.25-16.38,0-22.63l-36.49-36.49Z"/><path d="M89.99,188.62h37.3c8.84,0,16-7.16,16-16s-7.16-16-16-16h-37.3c-8.84,0-16,7.16-16,16s7.16,16,16,16Z"/><path d="M175.14,139.97c8.84,0,16-7.16,16-16v-37.3c0-8.84-7.16-16-16-16s-16,7.16-16,16v37.3c0,8.84,7.16,16,16,16Z"/><path d="M138.69,158.79c3.12,3.12,7.22,4.69,11.31,4.69s8.19-1.56,11.31-4.69c6.25-6.25,6.25-16.38,0-22.63l-36.49-36.49c-6.25-6.25-16.38-6.25-22.63,0-6.25,6.25-6.25,16.38,0,22.63l36.49,36.49Z"/></svg>