<?xml version="1.0" encoding="UTF-8"?><svg id="Icon" xmlns="http://www.w3.org/2000/svg" viewBox="0 0 512 512"><path d="M432,272H159c-8.84,0-16-7.16-16-16s7.16-16,16-16h273c8.84,0,16,7.16,16,16s-7.16,16-16,16Z"/><path d="M432,160H159c-8.84,0-16-7.16-16-16s7.16-16,16-16h273c8.84,0,16,7.16,16,16s-7.16,16-16,16Z"/><path d="M432,384H159c-8.84,0-16-7.16-16-16s7.16-16,16-16h273c8.84,0,16,7.16,16,16s-7.16,16-16,16Z"/><circle cx="80" cy="144" r="16"/><circle cx="80" cy="256" r="16"/><circle cx="80" cy="368" r="16"/></svg>