<?xml version="1.0" encoding="UTF-8"?><svg id="Icon" xmlns="http://www.w3.org/2000/svg" viewBox="0 0 512 512"><path d="M409.28,447.96h-194.56c-.06,0-.12,0-.18,0-6.68-.07-13.27-1.88-19.06-5.22-18.61-10.75-25.01-34.63-14.26-53.24.04-.07.09-.15.13-.22l97.28-162.4s.03-.05.05-.08c3.24-5.34,7.77-9.87,13.11-13.11,18.37-11.14,42.38-5.26,53.53,13.11l97.33,162.48c.04.07.09.15.13.22,3.34,5.79,5.15,12.38,5.22,19.06.11,10.41-3.83,20.24-11.11,27.68-7.28,7.44-17.02,11.6-27.43,11.72-.06,0-.12,0-.18,0ZM214.84,415.96h194.33c2.48-.05,4.1-1.33,4.84-2.09.75-.77,2.01-2.44,1.99-4.95-.01-1.17-.32-2.31-.89-3.33l-97.19-162.26c-1.95-3.21-6.24-4.26-9.53-2.27-.95.57-1.75,1.38-2.33,2.32l-97.16,162.21c-1.86,3.32-.71,7.54,2.6,9.44,1.02.59,2.17.91,3.35.93Z"/><path d="M312,352c-8.84,0-16-7.16-16-16v-48c0-8.84,7.16-16,16-16s16,7.16,16,16v48c0,8.84-7.16,16-16,16Z"/><path d="M312.11,400h-.23c-8.77,0-15.89-7.16-15.89-16s7.11-16,15.89-16h.23c8.77,0,15.89,7.16,15.89,16s-7.11,16-15.89,16Z"/><path d="M208,256H80c-8.84,0-16-7.16-16-16s7.16-16,16-16h128c8.84,0,16,7.16,16,16s-7.16,16-16,16Z"/><path d="M160,336h-80c-8.84,0-16-7.16-16-16s7.16-16,16-16h80c8.84,0,16,7.16,16,16s-7.16,16-16,16Z"/><path d="M368,176H80c-8.84,0-16-7.16-16-16s7.16-16,16-16h288c8.84,0,16,7.16,16,16s-7.16,16-16,16Z"/><path d="M368,96H80c-8.84,0-16-7.16-16-16s7.16-16,16-16h288c8.84,0,16,7.16,16,16s-7.16,16-16,16Z"/></svg>