<?xml version="1.0" encoding="UTF-8"?><svg id="Icon" xmlns="http://www.w3.org/2000/svg" viewBox="0 0 512 512"><path d="M470.75,321.82c-3.69-4.43-9.87-11.84-111.51-57.08-35.16-15.65-69.88-30.52-86.64-37.65v-19.3c0-6.97,1.35-8.53,1.39-8.57.96-.84,1.93-1.68,2.9-2.51,4.66-4.02,9.48-8.19,14.05-13.01,13.48-14.25,19.21-32.79,15.73-50.88-3.49-18.12-15.73-33.24-33.59-41.48-16.63-7.67-34.68-9.09-53.65-4.22-13.58,3.49-28.12,11.58-37.95,21.12-6.34,6.15-6.5,16.28-.34,22.62,6.15,6.34,16.28,6.5,22.62.34,5.89-5.71,15.38-10.97,23.63-13.09,11.81-3.04,22.37-2.29,32.27,2.28,8.5,3.93,14.04,10.49,15.57,18.48,1.53,7.96-1.15,16.06-7.55,22.82-3.46,3.65-7.47,7.12-11.72,10.79-1.01.87-2.02,1.74-3.02,2.62-12.35,10.78-12.35,27.26-12.35,32.68v18.79c-16.36,6.95-52.24,22.29-88.52,38.46-102.53,45.69-108.15,53.08-111.87,57.96-9.09,11.95-10.76,27.4-4.35,40.32,6.33,12.76,19.52,20.69,34.44,20.69h371.41c15.24,0,28.57-8.25,34.79-21.54,6.24-13.32,4.04-28.9-5.75-40.64ZM447.52,348.88c-.55,1.16-2.03,3.12-5.82,3.12H70.29c-2.83,0-4.83-1-5.77-2.9-.44-.89-1.19-3.16.69-6.07,12.71-10.21,105.15-52.07,190.78-88.24,85.79,36.28,178.4,78.16,190.54,87.99,2.04,2.75,1.51,4.99.98,6.11Z"/></svg>