<?xml version="1.0" encoding="UTF-8"?><svg id="Icon" xmlns="http://www.w3.org/2000/svg" viewBox="0 0 512 512"><path d="M256,32c-86.51,0-156.9,70.38-156.9,156.9,0,1.79.05,3.67.15,5.76.58,16.04,3.56,31.74,8.85,46.67,30.73,100.51,131.12,227.29,135.38,232.64,3.04,3.81,7.64,6.03,12.52,6.03h0c4.87,0,9.48-2.22,12.52-6.03,4.26-5.35,104.66-132.12,135.39-232.64,5.3-14.94,8.28-30.63,8.85-46.63.1-1.87.15-3.82.15-5.8,0-86.51-70.39-156.9-156.91-156.9ZM255.99,240c-26.5,0-47.99-21.49-47.99-48s21.49-48,47.99-48,48.01,21.5,48.01,48-21.49,48-48.01,48Z"/></svg>