<?xml version="1.0" encoding="UTF-8"?><svg id="Icon" xmlns="http://www.w3.org/2000/svg" viewBox="0 0 512 512"><path d="M256,480c59.83,0,116.08-23.3,158.39-65.61,42.31-42.31,65.61-98.56,65.61-158.39s-23.3-116.08-65.61-158.39c-42.31-42.31-98.56-65.61-158.39-65.61s-116.08,23.3-158.39,65.61c-42.31,42.31-65.61,98.56-65.61,158.39s23.3,116.08,65.61,158.39,98.56,65.61,158.39,65.61ZM240,64.67v66.53c0,8.84,7.16,16,16,16s16-7.16,16-16v-66.53c93.13,7.72,167.61,82.19,175.33,175.33h-66.53c-8.84,0-16,7.16-16,16s7.16,16,16,16h66.53c-7.72,93.13-82.19,167.61-175.33,175.33v-66.53c0-8.84-7.16-16-16-16s-16,7.16-16,16v66.53c-93.13-7.72-167.61-82.19-175.33-175.33h66.53c8.84,0,16-7.16,16-16s-7.16-16-16-16h-66.53c7.72-93.13,82.19-167.61,175.33-175.33Z"/></svg>