<?xml version="1.0" encoding="UTF-8"?><svg id="Icon" xmlns="http://www.w3.org/2000/svg" viewBox="0 0 512 512"><path d="M99.1,188.9c0,1.79.05,3.67.15,5.76.58,16.04,3.56,31.74,8.85,46.67,30.73,100.51,131.12,227.29,135.38,232.64,3.04,3.81,7.64,6.03,12.52,6.03h0c4.87,0,9.48-2.22,12.52-6.03,4.26-5.35,104.66-132.12,135.39-232.64,5.3-14.94,8.28-30.63,8.85-46.63.1-1.87.15-3.82.15-5.8,0-86.51-70.39-156.9-156.91-156.9S99.1,102.38,99.1,188.9ZM380.9,188.9c0,1.46-.04,2.88-.11,4.22,0,.1,0,.2-.01.31-.45,12.89-2.85,25.5-7.14,37.49-.09.24-.17.48-.24.73-22.67,74.5-89.45,168.63-117.4,206.01-27.95-37.39-94.73-131.52-117.4-206.01-.07-.24-.15-.49-.24-.73-4.28-11.97-6.68-24.59-7.14-37.51,0-.07,0-.13,0-.19-.08-1.61-.11-3.03-.11-4.33,0-68.87,56.03-124.9,124.9-124.9s124.91,56.03,124.91,124.9Z"/><path d="M208,192c0,26.51,21.49,48,47.99,48s48.01-21.49,48.01-48-21.49-48-48.01-48-47.99,21.5-47.99,48Z"/></svg>