<?xml version="1.0" encoding="UTF-8"?><svg id="Icon" xmlns="http://www.w3.org/2000/svg" viewBox="0 0 512 512"><path d="M368,223.8h-16v-63.61c0-52.93-43.07-96-96-96s-96,43.07-96,96v63.61h-16c-26.47,0-48,22.84-48,50.91v122.18c0,28.07,21.53,50.91,48,50.91h224c26.47,0,48-22.84,48-50.91v-122.18c0-28.07-21.53-50.91-48-50.91ZM272,330.08v38.12c0,8.84-7.16,16-16,16s-16-7.16-16-16v-38.12c-4.91-4.39-8-10.78-8-17.88,0-13.25,10.75-24,24-24s24,10.75,24,24c0,7.11-3.09,13.49-8,17.88ZM320,223.8h-128v-63.61c0-35.29,28.71-64,64-64s64,28.71,64,64v63.61Z"/></svg>