<?xml version="1.0" encoding="UTF-8"?><svg id="Icon" xmlns="http://www.w3.org/2000/svg" viewBox="0 0 512 512"><path d="M416,32H96c-8.84,0-16,7.16-16,16v416c0,8.84,7.16,16,16,16h320c8.84,0,16-7.16,16-16V48c0-8.84-7.16-16-16-16ZM112,64h128v384H112V64ZM400,448h-128V64h128v384Z"/><path d="M208,80h-64c-8.84,0-16,7.16-16,16s7.16,16,16,16h64c8.84,0,16-7.16,16-16s-7.16-16-16-16Z"/><path d="M208,128h-64c-8.84,0-16,7.16-16,16s7.16,16,16,16h64c8.84,0,16-7.16,16-16s-7.16-16-16-16Z"/><path d="M304,112h64c8.84,0,16-7.16,16-16s-7.16-16-16-16h-64c-8.84,0-16,7.16-16,16s7.16,16,16,16Z"/><path d="M304,160h64c8.84,0,16-7.16,16-16s-7.16-16-16-16h-64c-8.84,0-16,7.16-16,16s7.16,16,16,16Z"/><path d="M208,223.5c-8.84,0-16,7.16-16,16v33c0,8.84,7.16,16,16,16s16-7.16,16-16v-33c0-8.84-7.16-16-16-16Z"/><path d="M368,223.5c-8.84,0-16,7.16-16,16v33c0,8.84,7.16,16,16,16s16-7.16,16-16v-33c0-8.84-7.16-16-16-16Z"/></svg>