<?xml version="1.0" encoding="UTF-8"?><svg id="Icon" xmlns="http://www.w3.org/2000/svg" viewBox="0 0 512 512"><path d="M398.13,316.26c-45.14,0-81.87,36.73-81.87,81.87s36.73,81.87,81.87,81.87,81.87-36.73,81.87-81.87-36.73-81.87-81.87-81.87ZM398.13,459.81c-34.01,0-61.68-27.67-61.68-61.68s27.67-61.68,61.68-61.68,61.68,27.67,61.68,61.68-27.67,61.68-61.68,61.68Z"/><path d="M431.36,403.46l-23.13-11.57v-36.83c0-5.57-4.52-10.09-10.09-10.09s-10.09,4.52-10.09,10.09v43.07c0,3.82,2.16,7.32,5.58,9.03l28.71,14.35c1.45.73,2.99,1.07,4.51,1.07,3.7,0,7.27-2.04,9.04-5.58,2.49-4.99.47-11.05-4.51-13.54Z"/><path d="M320,256h-128c-8.84,0-16,7.16-16,16s7.16,16,16,16h128c8.84,0,16-7.16,16-16s-7.16-16-16-16Z"/><path d="M192,304c-8.84,0-16,7.16-16,16s7.16,16,16,16h81c8.84,0,16-7.16,16-16s-7.16-16-16-16h-81Z"/><path d="M411.25,191.82l-124.67-123.2c-2.99-2.96-7.04-4.62-11.25-4.62h-147.14c-17.75,0-32.19,14.35-32.19,32v320c0,17.65,14.44,32,32.19,32h159.81c8.84,0,16-7.16,16-16s-7.16-16-16-16h-159.81c-.11,0-.18-.03-.19,0l-.03-319.92c.04-.06.11-.08.22-.08h127.81v112c0,8.84,7.16,16,16,16h112v64c0,8.84,7.16,16,16,16s16-7.16,16-16v-84.8c0-4.28-1.71-8.38-4.75-11.38ZM288,115.02l77.9,76.98h-77.9v-76.98Z"/></svg>