<?xml version="1.0" encoding="UTF-8"?><svg id="Icon" xmlns="http://www.w3.org/2000/svg" viewBox="0 0 512 512"><path d="M80,272h196.04l-70.46,70.46c-6.25,6.25-6.25,16.38,0,22.63,3.12,3.12,7.22,4.69,11.31,4.69s8.19-1.56,11.31-4.69l97.77-97.77c.38-.37.73-.77,1.07-1.18.15-.18.27-.37.41-.55.18-.23.36-.46.52-.71.15-.23.28-.46.42-.69.13-.22.26-.43.38-.65.13-.24.24-.48.35-.73.11-.23.22-.45.32-.69.1-.24.18-.48.27-.73.09-.25.19-.5.26-.75.07-.25.13-.49.19-.74.06-.26.14-.51.19-.78.06-.29.09-.58.13-.87.03-.23.07-.45.1-.68.1-1.05.1-2.11,0-3.16-.02-.23-.07-.45-.1-.68-.04-.29-.08-.58-.13-.87-.05-.26-.12-.52-.19-.77-.06-.25-.12-.5-.19-.74-.08-.26-.17-.5-.26-.75-.09-.24-.17-.49-.27-.73-.1-.23-.21-.46-.32-.69-.11-.24-.22-.49-.35-.73-.12-.22-.25-.43-.38-.65-.14-.23-.27-.47-.42-.69-.16-.24-.34-.47-.52-.71-.14-.18-.26-.37-.41-.55-.34-.41-.69-.81-1.07-1.18l-97.77-97.77c-6.25-6.25-16.38-6.25-22.63,0-6.25,6.25-6.25,16.38,0,22.63l70.46,70.46H80c-8.84,0-16,7.16-16,16s7.16,16,16,16Z"/><path d="M320,64c-8.84,0-16,7.16-16,16s7.16,16,16,16h80c8.82,0,16,7.18,16,16v288c0,8.82-7.18,16-16,16h-80c-8.84,0-16,7.16-16,16s7.16,16,16,16h80c26.47,0,48-21.53,48-48V112c0-26.47-21.53-48-48-48h-80Z"/></svg>