<?xml version="1.0" encoding="UTF-8"?><svg id="Icon" xmlns="http://www.w3.org/2000/svg" viewBox="0 0 512 512"><path d="M66.7,247.1c-.06.09-.11.19-.17.29-.22.35-.44.7-.63,1.06-.04.07-.06.14-.1.21-.2.4-.4.8-.57,1.21-.02.05-.03.1-.05.14-.18.43-.34.88-.48,1.33-.02.05-.03.11-.04.16-.13.45-.25.9-.34,1.35-.03.13-.04.27-.06.4-.07.38-.13.76-.17,1.15-.05.53-.08,1.06-.08,1.6s.03,1.07.08,1.6c.04.39.11.77.17,1.15.02.13.03.27.06.4.09.46.21.91.34,1.35.02.05.02.11.04.16.14.45.3.89.48,1.33.02.05.03.1.05.14.17.41.37.81.57,1.21.04.07.06.14.1.21.2.36.41.71.63,1.06.06.09.11.19.17.29.22.33.46.64.7.95.08.1.15.21.23.31.33.4.68.79,1.05,1.16l97.78,97.78c3.12,3.12,7.22,4.69,11.31,4.69s8.19-1.56,11.31-4.69c6.25-6.25,6.25-16.38,0-22.63l-70.46-70.46h201.37c8.84,0,16-7.16,16-16s-7.16-16-16-16H118.63l70.46-70.46c6.25-6.25,6.25-16.38,0-22.63-6.25-6.25-16.38-6.25-22.63,0l-97.78,97.78c-.37.37-.72.76-1.05,1.16-.08.1-.15.21-.23.31-.24.31-.48.62-.7.95Z"/><path d="M320,64c-8.84,0-16,7.16-16,16s7.16,16,16,16h80c8.82,0,16,7.18,16,16v288c0,8.82-7.18,16-16,16h-80c-8.84,0-16,7.16-16,16s7.16,16,16,16h80c26.47,0,48-21.53,48-48V112c0-26.47-21.53-48-48-48h-80Z"/></svg>