<?xml version="1.0" encoding="UTF-8"?><svg id="Icon" xmlns="http://www.w3.org/2000/svg" viewBox="0 0 512 512"><path d="M119.29,448c-14.77,0-28.65-5.75-39.09-16.19-21.56-21.56-21.56-56.63,0-78.19l120.52-120.53c-21.53-61.44,7.19-130.44,67.6-157.78,33.31-15.07,71.51-15.07,104.82,0,4.79,2.17,8.2,6.54,9.14,11.71s-.71,10.47-4.43,14.18l-69.74,69.74c-.91.97-.91,2.5,0,3.47l29.47,29.47c.96.91,2.5.91,3.46,0l69.74-69.74c3.71-3.71,9.01-5.37,14.18-4.43,5.17.94,9.54,4.36,11.71,9.15,28.9,63.86.45,139.33-63.41,168.23-29.87,13.52-63.68,14.91-94.36,4.19l-120.52,120.53c-10.44,10.44-24.33,16.19-39.09,16.19ZM320.72,96c-13.38,0-26.75,2.82-39.21,8.46-47.79,21.63-69.07,78.1-47.44,125.89,2.75,6.07,1.45,13.2-3.26,17.91l-127.97,127.98c-9.08,9.08-9.08,23.86,0,32.94,4.4,4.4,10.25,6.82,16.47,6.82s12.07-2.42,16.47-6.82l127.97-127.98c4.71-4.71,11.84-6.01,17.91-3.26,24.92,11.28,53.51,11.28,78.43,0,40.13-18.16,61.57-60.9,54.6-102.43l-51.09,51.09s-.08.08-.11.11c-13.32,13.06-35.01,13.06-48.33,0-.04-.04-.08-.08-.11-.11l-29.63-29.63s-.08-.08-.11-.11c-13.06-13.32-13.06-35,0-48.33.04-.04.08-.08.11-.11l51.08-51.08c-5.22-.88-10.48-1.31-15.76-1.31Z"/></svg>