<?xml version="1.0" encoding="UTF-8"?><svg id="Icon" xmlns="http://www.w3.org/2000/svg" viewBox="0 0 512 512"><path d="M119.29,448c-14.77,0-28.65-5.75-39.09-16.19-21.56-21.56-21.56-56.63,0-78.19l120.52-120.53c-21.53-61.44,7.19-130.44,67.6-157.78,33.31-15.07,71.51-15.07,104.82,0,4.79,2.17,8.2,6.54,9.14,11.71s-.71,10.47-4.43,14.18l-69.74,69.74c-.91.97-.91,2.5,0,3.47l29.47,29.47c.96.91,2.5.91,3.46,0l69.74-69.74c3.71-3.71,9.01-5.37,14.18-4.43,5.17.94,9.54,4.36,11.71,9.15,28.9,63.86.45,139.33-63.41,168.23-29.87,13.52-63.68,14.91-94.36,4.19l-120.52,120.53c-10.44,10.44-24.33,16.19-39.09,16.19Z"/></svg>