<?xml version="1.0" encoding="UTF-8"?><svg id="Icon" xmlns="http://www.w3.org/2000/svg" viewBox="0 0 512 512"><path d="M253.05,32c-49.69,0-94.76,27.56-117.63,71.92-7.59,14.73-8.4,30.05-2.27,43.13,5.96,12.71,17.98,22.18,32.17,25.32,22.25,4.93,44.77-8.55,54.77-32.79,4.38-10.62,14.49-28.43,32.96-28.43s32.91,14.76,32.91,32.91-14.76,32.91-32.91,32.91h-107.43c-13.64,0-24.73,11.1-24.73,24.73v228.84c0,5.5,2.82,10.61,7.48,13.54,37.31,23.49,80.43,35.91,124.68,35.91s87.37-12.42,124.68-35.91c4.65-2.93,7.48-8.04,7.48-13.54V164.16c0-72.87-59.29-132.16-132.16-132.16ZM253.05,448c-35.29,0-69.73-9.14-100.16-26.5v-212.52h100.16c35.79,0,64.91-29.12,64.91-64.91s-29.12-64.91-64.91-64.91c-27.1,0-49.89,17.58-62.54,48.23-2.7,6.55-9.8,15.62-18.27,13.75-4.43-.98-8.4-3.99-10.12-7.66-1.88-4.01-1.3-9.02,1.73-14.89,17.36-33.67,51.54-54.59,89.19-54.59,55.23,0,100.16,44.93,100.16,100.16v11.89l-52.83,90.08-16.35-9.59c-1.21-.69-2.52-1.13-3.9-1.3-.24-.04-.49-.07-.73-.09-4.13-.37-8.14,1.72-10.22,5.28-18.3,31.04-46.66,55.85-79.86,69.85l-13.66,5.77c-3.17,1.28-5.54,4.03-6.33,7.28-.87,3.25-.16,6.79,1.91,9.45,33.37,43.09,81.43,71.28,135.32,79.37.22.03.44.06.66.08h0c3.15.28,6.25-.82,8.46-2.97,2.5-2.33,3.74-5.74,3.32-9.08l-1.64-14.79c-3.99-35.81,3.82-72.67,21.97-103.78,2.25-3.79,1.92-8.65-.8-12.11-.82-1.12-1.85-2.05-3.08-2.79l-16.31-9.57,34.07-58.09v202.44c-30.42,17.36-64.87,26.5-100.16,26.5ZM295.74,407.81l.02.18c-27.66-6.33-53.71-18.89-75.89-36.58,10.44-5.42,20.4-11.8,29.69-19,4.74-3.68,5.6-10.53,1.92-15.26-1.85-2.38-4.63-3.9-7.63-4.16-2.74-.24-5.45.55-7.63,2.24-9.68,7.5-20.19,14-31.31,19.36-.73.38-1.5.78-2.28,1.19-1.76-1.8-3.43-3.58-5.04-5.36l.15-.06c24.85-10.45,47.57-26.39,65.88-46.19l40.28,23.63c-8.34,25.64-11.16,53.25-8.16,80.02ZM277.64,287.17c1.49-2.05,2.99-4.21,4.52-6.5l33.19,19.46c-1.25,2.45-2.4,4.81-3.46,7.11l-34.24-20.08Z"/></svg>