<?xml version="1.0" encoding="UTF-8"?><svg id="Icon" xmlns="http://www.w3.org/2000/svg" viewBox="0 0 512 512"><path d="M256,144c-22.06,0-40-17.94-40-40s17.94-40,40-40,40,17.94,40,40-17.94,40-40,40ZM256,96c-4.41,0-8,3.59-8,8s3.59,8,8,8,8-3.59,8-8-3.59-8-8-8Z"/><path d="M277.21,448h-42.19c-18.99,0-34.44-15.45-34.44-34.44v-88.41c-14.88-7.32-24.58-22.56-24.58-39.32v-81.67c0-24.22,19.7-43.92,43.92-43.92h72.16c24.22,0,43.92,19.7,43.92,43.92v81.67c0,16.7-9.61,31.94-24.36,39.29v88.43c0,18.99-15.45,34.44-34.44,34.44ZM219.92,192.25c-6.57,0-11.92,5.35-11.92,11.92v81.67c0,4.94,3.19,9.41,7.94,11.12l.19.07c9.84,3.69,16.45,13.22,16.45,23.71v92.82c0,1.32,1.12,2.44,2.44,2.44h42.19c1.32,0,2.44-1.12,2.44-2.44v-92.82c0-10.49,6.61-20.02,16.45-23.71,4.69-1.73,7.9-6.32,7.9-11.2v-81.67c0-6.57-5.35-11.92-11.92-11.92h-72.16Z"/></svg>