<?xml version="1.0" encoding="UTF-8"?><svg id="Icon" xmlns="http://www.w3.org/2000/svg" viewBox="0 0 512 512"><path d="M280.69,342.98c4.55-4.54,4.55-11.92,0-16.47l-16.46-16.46c-4.54-4.55-11.92-4.55-16.46,0l-16.46,16.46c-4.55,4.54-4.55,11.92,0,16.46l9.49,9.49c3.59,3.59,5.07,8.79,3.9,13.73l-14.03,59.48c-.98,4.15-.1,8.51,2.4,11.96l10.35,14.28c5.75,7.94,17.52,8.1,23.49.33l11.61-15.1c2.69-3.49,3.66-8.01,2.65-12.3l-13.84-58.66c-1.17-4.94.31-10.14,3.9-13.73l9.49-9.49Z"/><path d="M256,251.93c51.83,0,94-42.17,94-94s-42.17-94-94-94-94,42.17-94,94,42.17,94,94,94ZM256,95.93c34.19,0,62,27.81,62,62s-27.81,62-62,62-62-27.81-62-62,27.81-62,62-62Z"/><path d="M305.43,329.07c-1.98,8.61,3.4,17.2,12.02,19.17,59.86,13.73,95.78,43.94,96.1,44.21,3.02,2.61,6.74,3.88,10.44,3.88,4.49,0,8.96-1.88,12.12-5.55,5.77-6.69,5.02-16.8-1.67-22.57-1.68-1.45-41.83-35.56-109.84-51.17-8.61-1.98-17.2,3.4-19.17,12.02Z"/><path d="M88.02,396.33c3.08,0,6.18-.88,8.93-2.73.43-.29,43.46-28.99,98.95-43.65,8.54-2.26,13.64-11.01,11.38-19.56-2.26-8.54-11.01-13.64-19.56-11.38-60.95,16.1-106.76,46.77-108.69,48.06-7.32,4.94-9.24,14.88-4.3,22.2,3.09,4.58,8.14,7.05,13.28,7.05Z"/></svg>