<?xml version="1.0" encoding="UTF-8"?><svg id="Icon" xmlns="http://www.w3.org/2000/svg" viewBox="0 0 512 512"><path d="M380.62,329.84c-3.67,0-7.75-1.3-12.47-3.98-1.23-.69-2.46-1.4-3.69-2.1-10.04-5.73-20.43-11.66-31.25-14.76-12.6-3.62-25.43-5.46-38.14-5.46-14.41,0-28.95,2.36-43.19,7.02-2.09.69-4.18,1.03-6.2,1.03-8.32,0-14.38-5.9-15.42-15.02-.04-.38-.06-.76-.06-1.13,0-1.32.25-2.61.74-3.85,2.27-5.68,5.26-6.8,8.72-8.09l.79-.3c10.24-3.89,20.03-6.39,29.11-7.44,8.69-1.01,17.25-1.52,25.45-1.52,13.66,0,27.07,1.43,39.84,4.24,19.3,4.23,35.98,11.67,50.98,22.72,5.85,4.31,8.83,9.07,8.83,14.15,0,2.98-1.05,5.93-3.13,8.76-2.79,3.8-6.46,5.72-10.91,5.72h0Z"/><path d="M285.96,480c-47.85,0-86.48-12-114.81-35.68-26.62-22.24-93.7-99.98-106.88-115.34l-.88-1.07c-17.06-21.74-15.46-48.55,3.97-66.74,8.75-8.2,20.01-12.71,31.7-12.71,14.01,0,27.47,6.34,37.96,17.86l28.27,28.13V117.26c0-26.25,21.48-47.61,47.89-47.61,5.8,0,11.36,1.03,16.51,2.9,3.45-22.92,23.43-40.55,47.48-40.55,21.56,0,39.85,14.18,45.88,33.63,5.59-2.27,11.71-3.52,18.11-3.52,26.46,0,47.99,21.35,47.99,47.6l-.03,11.84c5.02-1.77,10.42-2.73,16.04-2.73,26.24,0,47.59,21.36,47.59,47.61v160.61c0,45.12-17.46,84.01-50.49,112.46-30.33,26.12-71.63,40.5-116.3,40.5ZM88.54,308.14h0c28.67,33.42,82.64,94.53,103.11,111.63,22.42,18.73,54.14,28.23,94.29,28.23,37.01,0,70.9-11.63,95.42-32.75,25.76-22.18,39.37-52.69,39.37-88.21v-160.61c0-8.61-6.99-15.61-15.59-15.61s-16,7.15-16,15.61l.39,84.22c0,9.12-7.35,16.48-16.39,16.48s-16.41-7.36-16.41-16.41l.41-141.06c0-8.41-7.32-15.55-15.99-15.55s-16,7.14-16,15.6v120.14c.38,3.76-.56,7.56-2.74,10.72l-4.77,6.93-8.49.03c-5.34,0-10.31-2.62-13.31-7.02-2.15-3.16-3.08-6.95-2.69-10.69V79.6c0-8.46-7.32-15.6-15.99-15.6s-16.01,7.14-16.01,15.6v144.44c.39,3.73-.53,7.52-2.67,10.68l-4.76,7.02-8.56.03c-5.3,0-10.25-2.59-13.25-6.94-2.18-3.16-3.12-6.96-2.75-10.73v-106.84c0-8.46-7.32-15.61-15.99-15.61s-15.89,7-15.89,15.61v199.89c0,8.3-4.93,15.93-12.87,19.9h0c-8.93,4.46-19.26,1.33-25.08-3.46l-.58-.48-45.25-45.05c-4.38-4.89-9.52-7.58-14.46-7.58-3.53,0-7.02,1.45-9.83,4.07-9.63,9.01-4.57,18.65-.69,23.6Z"/></svg>