<?xml version="1.0" encoding="UTF-8"?><svg id="Icon" xmlns="http://www.w3.org/2000/svg" viewBox="0 0 512 512"><path d="M282.19,480c-51.62,0-99.51-28.59-125.02-74.63l-.93-1.6c-.29-.51-.56-1.04-.8-1.58l-66.05-150.67c-2.44-5.58-3.68-11.82-3.68-18.55,0-25.25,20.05-45.79,44.69-45.79,15.74,0,30.51,8.64,38.54,22.54l1,1.73c.3.52.57,1.05.81,1.6l18.04,41.32V74.67c0-23.53,18.85-42.67,42.02-42.67s42.02,19.14,42.02,42.67v121.35c59.05,1.42,99.87,10.97,124.5,29.07,25.96,19.08,28.96,43.87,28.96,60.87v45.03c0,82.16-64.64,149.01-144.1,149.01ZM184.4,388.53l.56.97c.05.09.1.17.15.26,19.86,35.93,57.06,58.24,97.08,58.24,61.81,0,112.1-52.49,112.1-117.01v-45.03c0-14.44-2.66-25.34-15.91-35.08-20.81-15.29-61.7-23.04-121.54-23.04-8.84,0-16-7.16-16-16V74.67c0-5.78-4.59-10.67-10.02-10.67s-10.02,4.89-10.02,10.67v191.2c0,16.84-13.46,30.55-30.01,30.55-12.49,0-23.4-7.96-27.08-19.53l-21.92-50.2-.55-.95c-2.3-3.98-6.55-6.55-10.83-6.55-7,0-12.69,6.19-12.69,13.79,0,2.28.33,4.2.99,5.71l65.69,149.86Z"/></svg>