<?xml version="1.0" encoding="UTF-8"?><svg id="Icon" xmlns="http://www.w3.org/2000/svg" viewBox="0 0 512 512"><path d="M284.78,480s0,0,0,0h0c-56.59-.01-108.62-33.15-132.56-84.43l-66.98-143.77c-2.78-5.95-4.25-12.56-4.25-19.1-.02-17.49,10.24-33.6,26.12-41.02,5.95-2.78,12.55-4.25,19.1-4.25,17.52,0,33.62,10.26,41.04,26.13l23.08,49.01V74.65c0-23.51,19.14-42.65,42.65-42.65,23.52,0,42.65,19.14,42.65,42.65v60.42c2.93-.67,6-1.08,9.15-1.08,16.21,0,31.5,9.29,38.8,23.11,3.95-1.23,8.29-1.99,12.99-1.99,19.31,0,36.35,12.81,41.7,30.56,3.14-.82,6.5-1.31,10.09-1.31,23.51,0,42.64,19.13,42.65,42.65v106.74c0,80.62-65.61,146.22-146.23,146.24h0ZM126.21,219.43c-1.86,0-3.83.44-5.55,1.24-4.67,2.18-7.67,6.89-7.67,12.02,0,1.89.44,3.86,1.25,5.58l66.98,143.77c18.69,40.05,59.35,65.94,103.56,65.95,62.98,0,114.23-51.26,114.24-114.24v-106.73c0-5.88-4.78-10.66-10.65-10.66-2.99,0-6.25,2.11-8.67,4.26v28.42c0,8.84-7.16,16-16,16s-16-7.16-16-16v-53.96c-1.24-4.54-5.93-7.98-11.12-7.98-3.84,0-7.42,2.14-9.92,4.13v58.56c0,8.84-7.16,16-16,16s-16-7.16-16-16v-78.8c-2.07-2.92-6.02-5.01-9.87-5.01-2.6,0-6.07,1.5-9.15,3.32v79.99c0,8.84-7.16,16-16,16s-16-7.16-16-16V74.66c0-5.87-4.78-10.66-10.65-10.66-5.87,0-10.65,4.78-10.65,10.66v259.43c0,7.49-5.2,13.98-12.51,15.61-7.31,1.64-14.78-2.02-17.97-8.8l-53.58-113.76c-2.2-4.71-6.93-7.72-12.07-7.72Z"/></svg>