<?xml version="1.0" encoding="UTF-8"?><svg id="Icon" xmlns="http://www.w3.org/2000/svg" viewBox="0 0 512 512"><path d="M438.63,397.65c-3.86,0-7.72-1.38-10.79-4.19-12.42-11.36-21.17-19.27-25.29-22.87-6.53-5.71-16.08-8.78-30.06-9.65-8.09-.45-150.69-.9-244.56-1.1-.24,0-.48,0-.72-.02-1-.05-10.08-.55-19.5-3.61-7.95-2.58-26.42-10.76-26.29-30.89.15-24.39,21.79-36.59,34.56-39.95.08-.02.16-.04.24-.06l78.07-19.23c.8-.2,1.06-.28,1.82-.34,1.41-.26,11.09-2.4,20.72-12.99,1.82-2,.72-10.61-2.09-17.39-13.19-17.93-31.45-38.88-38.48-42.39-1.43-.71-1.81-.91-6.11,1.67-.15.09-.31.18-.46.27l-71.28,39.6c-.08.04-.16.09-.24.13-25.29,13.49-44.87,10.2-58.18-9.77-13.28-19.92-9.8-39.42,9.56-53.5,2.51-1.82,84.18-54.19,107.83-67.71,22.5-12.86,39.77-13.81,56.68-2.34,11.7-8.03,23.82-11.36,36.17-9.92,12.28,1.43,21.98,7.38,28.82,13.31,9.04-5.74,18.54-8.57,28.34-8.46,8.62.1,15.93,2.53,21.6,5.4,7.7-5.77,15.98-8.96,24.73-9.53,17.29-1.11,29.12,8.93,30.42,10.08.28.25.56.51.82.79l90.52,92.78c6.17,6.33,6.05,16.46-.28,22.63-6.33,6.17-16.46,6.04-22.63-.28l-89.81-92.06c-2.03-1.49-4.7-2.52-7.98-1.92l22.29,23.01c3.01,3.11,4.51,7.12,4.51,11.12,0,4.18-1.63,8.36-4.87,11.5-6.35,6.15-16.48,5.99-22.62-.36l-35-36.13c-.34-.32-3.96-3.64-9.07-4.71-2.71-.57-5.52-.38-8.41.57l36.06,38.57c2.88,3.08,4.31,7,4.31,10.91,0,4.28-1.7,8.55-5.07,11.7-6.46,6.03-16.58,5.69-22.61-.76l-48.65-52.05c-.7-.75-1.19-1.35-1.72-2.2-.03-.04-.05-.08-.08-.12-2.15-3.17-9.21-11.16-17.46-12.04-2.45-.26-5.02.1-7.72,1.09,21.17,21.46,50.88,51.89,51.25,52.27,6.16,6.32,6.05,16.43-.25,22.61-6.31,6.18-16.42,6.08-22.61-.22l-64.44-65.57c-8.4-8.4-11.92-11.87-29.35-1.9-22.32,12.76-99,61.92-105.09,65.96-3.59,2.65-4.14,4.14-4.15,4.18h0s.02,1.65,2.61,5.53c1.08,1.62,2.63,3.58,3.87,3.69,1.11.1,4.55-.12,12.51-4.35l70.92-39.4c5.46-3.27,19.38-11.35,36.66-2.72,17.68,8.84,43.54,43.23,51.05,53.56.58.79,1.08,1.64,1.5,2.53,1.63,3.42,15.41,34.03-2.61,53.85-16.34,17.97-34.07,22.17-39.24,23.04l-77.07,18.99c-.89.29-9.12,3.12-10.56,7.83,2.78,1.67,9.36,3.36,14.82,3.71,26.19.06,235.75.52,246.04,1.16,21.11,1.32,37.19,7.05,49.14,17.51,4.35,3.81,13.04,11.66,25.81,23.34,6.52,5.96,6.97,16.08,1.01,22.6-3.16,3.45-7.48,5.2-11.81,5.2ZM68.34,197.25s-.02.01-.02.02c0,0,.02-.01.02-.02ZM318.94,133.14s.05.05,0,0h0Z"/></svg>