<?xml version="1.0" encoding="UTF-8"?><svg id="Icon" xmlns="http://www.w3.org/2000/svg" viewBox="0 0 512 512"><defs><style>.cls-1{fill-rule:evenodd;}</style></defs><path class="cls-1" d="M420.64,118.03c-17.46,0-31.75,14.29-31.75,31.75v91.65c0,2.92-2.37,5.29-5.29,5.29h-.44c-2.92,0-5.29-2.37-5.29-5.29V94.22c0-17.46-14.29-31.75-31.75-31.75h0c-17.46,0-31.75,14.29-31.75,31.75v132.66c0,2.92-2.37,5.29-5.29,5.29h-.44c-2.92,0-5.29-2.37-5.29-5.29V63.8c0-17.46-14.29-31.75-31.75-31.75h0c-17.46,0-31.75,14.29-31.75,31.75v160.53c0,2.87-2.33,5.19-5.19,5.19s-5.18-2.31-5.19-5.17l-.63-122.2c0-17.46-14.29-31.75-31.75-31.75s-31.75,14.29-31.75,31.75v192.66l-28.48-28.4c-10.47-11.5-23.91-17.83-37.89-17.83-11.66,0-22.9,4.51-31.63,12.69-19.39,18.15-20.99,44.91-3.96,66.61l.88,1.06c13.19,15.37,80.32,93.16,106.96,115.43,28.33,23.67,66.96,35.68,114.83,35.68,44.68,0,85.99-14.39,116.32-40.51,33.03-28.45,50.01-67.33,50.01-112.46v-177.31c0-17.46-14.29-31.75-31.75-31.75ZM391.74,324.17c-2.79,3.8-6.47,5.73-10.92,5.73h0c-3.67,0-7.75-1.3-12.48-3.99-1.23-.69-2.46-1.4-3.7-2.1-10.05-5.74-20.45-11.67-31.28-14.77-12.62-3.62-25.46-5.46-38.17-5.46-14.43,0-28.97,2.36-43.23,7.03-2.1.69-4.19,1.04-6.2,1.04-8.33,0-14.39-5.9-15.44-15.04-.04-.38-.06-.76-.06-1.13,0-1.32.25-2.61.74-3.85,2.27-5.69,5.27-6.8,8.73-8.09l.79-.3c10.25-3.89,20.05-6.4,29.14-7.45,8.7-1.01,17.27-1.52,25.48-1.52,13.67,0,27.09,1.43,39.88,4.25,19.32,4.24,36.01,11.68,51.03,22.75,5.86,4.31,8.84,9.08,8.84,14.16,0,2.99-1.05,5.93-3.13,8.76Z"/></svg>