<?xml version="1.0" encoding="UTF-8"?><svg id="Icon" xmlns="http://www.w3.org/2000/svg" viewBox="0 0 512 512"><path d="M128,104c0,9.27,5.26,17.32,12.96,21.31,3.3,1.72,7.06,2.69,11.04,2.69,4.29,0,8.31-1.13,11.8-3.1,7.28-4.12,12.2-11.94,12.2-20.9,0-13.25-10.75-24-24-24s-24,10.75-24,24Z"/><path d="M80,160h21.24c8.84,0,16-7.16,16-16s-7.16-16-16-16h-5.25V64h112v64h-4.62c-8.84,0-16,7.16-16,16s7.16,16,16,16h20.62c8.84,0,16-7.16,16-16V48c0-8.84-7.16-16-16-16H80c-8.84,0-16,7.16-16,16v96c0,8.84,7.16,16,16,16Z"/><path d="M298.21,366.49v-32.91c0-13.35-2.38-32.85-22.92-47.95-18.11-13.31-47.39-20.53-89.22-21.96v-84.5c0-19.57-15.71-35.49-35.01-35.49s-35.02,15.92-35.02,35.49v110.69l-4.93-11.29c-.24-.55-.51-1.09-.81-1.61l-.73-1.26c-6.64-11.49-18.86-18.63-31.89-18.63-20.38,0-36.97,16.94-36.97,37.77,0,5.51,1.03,10.65,3.05,15.28l48.27,110.11c.24.54.5,1.07.8,1.58l.66,1.14c19.4,34.99,55.83,56.73,95.11,56.73,60.44,0,109.61-50.78,109.61-113.2ZM121.42,407.35c-.05-.09-.1-.17-.15-.26l-.29-.5-47.91-109.29c-.11-.25-.36-.99-.36-2.44,0-3.18,2.23-5.77,4.97-5.77,1.59,0,3.27,1.06,4.19,2.64l.28.48,15.83,36.27c3.32,10.12,12.89,17.05,23.82,17.05,14.47,0,26.24-11.95,26.24-26.63v-139.72c0-2,1.59-3.49,3.02-3.49s3.01,1.49,3.01,3.49v100.24c0,8.84,7.16,16,16,16,53.31,0,76.34,8.7,86.27,16,8.25,6.07,9.87,12.72,9.87,22.16v32.91c0,44.77-34.82,81.2-77.61,81.2-27.68,0-53.42-15.46-67.18-40.34Z"/><path d="M374.62,222.19h0c33.82,55.12,63.99,51.19,90.03,48.53-23.85-16.8-31.35-21.36-46.09-45.79-28.93-47.86-28.45-88.83-81.84-83.12,23.93,14.65,21.92,45.48,37.91,80.38Z"/><path d="M378.57,372.9c24.73,18.44,61.34,21.16,85.51-.29h0c-17.14-6.82-31.85-5.81-52.26-22.21-15.6-13.42-43.82-65.66-101.47-30.24,36.57,6.04,46.48,30.74,68.22,52.75Z"/><path d="M350.48,219.87c.78,59.66,33.66,112.66,114.36,129.18v-53.97c-63.18-11.05-69.48-26.85-114.36-75.21Z"/><path d="M462.66,398.71c-40.99,5.39-57.36,13.54-111.47-24.14,12.51,59.55,45.51,75.55,113.31,73.32h0c0-16.27-.08-32.99-1.84-49.18Z"/><path d="M464.21,243.73l-1.81-51.71h0c-32.04-17.25-32.33-33.22-49.11-72.67-16.68,47.62,1.51,98.05,50.92,124.38Z"/></svg>