<?xml version="1.0" encoding="UTF-8"?><svg id="Icon" xmlns="http://www.w3.org/2000/svg" viewBox="0 0 512 512"><path d="M64.08,248.31c.67,6.73,5.49,12.31,12.04,13.95l138.9,34.72,34.72,138.9c1.64,6.56,7.22,11.38,13.95,12.04.53.05,1.06.08,1.58.08,6.13,0,11.79-3.53,14.45-9.15L446.46,86.85c2.89-6.11,1.64-13.38-3.15-18.16-4.78-4.78-12.05-6.04-18.16-3.15L73.15,232.28c-6.11,2.89-9.74,9.31-9.07,16.04ZM398.36,113.64l-128.42,271.11-26.21-104.84c-1.43-5.73-5.91-10.21-11.64-11.64l-104.84-26.21L398.36,113.64Z"/></svg>