<?xml version="1.0" encoding="UTF-8"?><svg id="Icon" xmlns="http://www.w3.org/2000/svg" viewBox="0 0 512 512"><path d="M256,36c-61.12,0-110.84,49.72-110.84,110.83,0,1.28.03,2.62.1,4.09.41,11.28,2.5,22.33,6.22,32.83,21.01,68.57,89.11,154.57,92,158.21,3.04,3.81,7.64,6.03,12.52,6.03h0c4.87,0,9.48-2.22,12.52-6.03,2.89-3.63,70.99-89.62,92-158.2,3.72-10.51,5.81-21.54,6.21-32.79.07-1.34.11-2.7.11-4.14,0-61.11-49.72-110.83-110.84-110.83ZM256,178.84c-17.67,0-32-14.33-32-32s14.33-32,32-32,32,14.33,32,32-14.33,32-32,32Z"/><path d="M477.11,441.17c2.99-4.28,3.71-9.75,1.92-14.66l-52.53-144c-2.3-6.32-8.31-10.52-15.03-10.52h-66.93c-8.84,0-16,7.16-16,16s7.16,16,16,16h55.74l15.01,41.14h-110.48c-5.11,0-9.91,2.44-12.92,6.56l-46.99,64.3h-30.42l-81.59-112h29.62c8.84,0,16-7.16,16-16s-7.16-16-16-16h-59.13c-6.62,0-12.56,4.08-14.93,10.26l-55.37,144c-1.89,4.92-1.24,10.46,1.75,14.8s7.92,6.94,13.19,6.94h416c5.22,0,10.12-2.55,13.11-6.83ZM107.08,322.93l67.8,93.07h-103.59l35.79-93.07ZM284.53,416l28.4-38.86h113.62c.14,0,.27-.02.41-.02l14.18,38.88h-156.6Z"/></svg>