<?xml version="1.0" encoding="UTF-8"?><svg id="Icon" xmlns="http://www.w3.org/2000/svg" viewBox="0 0 512 512"><path d="M76.12,262.26l138.9,34.72,34.72,138.9c1.64,6.56,7.22,11.38,13.95,12.04.53.05,1.06.08,1.58.08,6.13,0,11.79-3.53,14.45-9.15l56.82-119.95c3.78-7.99.38-17.53-7.61-21.31-7.98-3.78-17.53-.38-21.31,7.61l-37.68,79.55-26.21-104.84c-1.43-5.73-5.91-10.21-11.64-11.64l-104.84-26.21L398.36,113.64l-31.21,65.88c-3.78,7.99-.38,17.53,7.61,21.31,7.98,3.78,17.53.38,21.31-7.61l50.39-106.37c2.89-6.11,1.64-13.38-3.15-18.16-4.78-4.78-12.05-6.04-18.16-3.15L73.15,232.28c-6.11,2.89-9.74,9.31-9.07,16.04.67,6.73,5.49,12.31,12.04,13.95Z"/><path d="M400.13,408h-.27c-10.97,0-19.87,8.96-19.87,20s8.89,20,19.87,20h.27c10.97,0,19.87-8.96,19.87-20s-8.89-20-19.87-20Z"/><path d="M466.11,285.49c.04-28.67-18.1-54.33-45.15-63.84-35.15-12.36-73.8,6.17-86.16,41.32-2.93,8.34,1.45,17.47,9.78,20.4,8.34,2.93,17.47-1.45,20.4-9.78,6.51-18.5,26.86-28.26,45.36-21.75,14.24,5.01,23.79,18.51,23.77,33.63,0,18.38-28.74,32.48-39.1,36.1-5.37,1.73-9.62,6.25-10.79,12.1-.22,1.11-.32,2.24-.31,3.35l.09,31.04c.02,8.82,7.18,15.96,16,15.96h.04c8.84-.02,15.98-7.21,15.96-16.04l-.06-20.51c17.6-8.28,50.16-28.16,50.16-61.95Z"/></svg>