<?xml version="1.0" encoding="UTF-8"?><svg id="Icon" xmlns="http://www.w3.org/2000/svg" viewBox="0 0 512 512"><path d="M112,448c8.84,0,16-7.16,16-16v-114.58c7.78-3.96,24.99-10.22,56-10.22,23.98,0,44.48,8.02,66.17,16.5,23.5,9.19,47.81,18.7,77.83,18.7,58.82,0,80.87-19.89,83.19-22.16,3.08-3.01,4.81-7.13,4.81-11.44V97.6c0-6.62-3.73-12.92-9.91-15.3-6.1-2.34-12.67-1.09-17.1,3.67-1.92,1.48-18.52,13.23-60.99,13.23-23.98,0-44.48-8.02-66.17-16.5-23.5-9.19-47.81-18.7-77.83-18.7-58.82,0-80.87,19.89-83.19,22.16-3.08,3.01-4.81,7.13-4.81,11.44v334.4c0,8.84,7.16,16,16,16ZM128,106.22c7.79-3.96,25-10.22,56-10.22,23.98,0,44.48,8.02,66.17,16.5,23.5,9.19,47.81,18.7,77.83,18.7,24.76,0,43-3.52,56-7.77v176.76c-7.79,3.96-25,10.22-56,10.22-23.98,0-44.48-8.02-66.17-16.5-23.5-9.19-47.81-18.7-77.83-18.7-24.76,0-43,3.52-56,7.77V106.22Z"/></svg>