<?xml version="1.0" encoding="UTF-8"?><svg id="Icon" xmlns="http://www.w3.org/2000/svg" viewBox="0 0 512 512"><path d="M304,144c22.06,0,40-17.94,40-40s-17.94-40-40-40-40,17.94-40,40,17.94,40,40,40ZM304,96c4.41,0,8,3.59,8,8s-3.59,8-8,8-8-3.59-8-8,3.59-8,8-8Z"/><path d="M136,368c22.06,0,40-17.94,40-40s-17.94-40-40-40-40,17.94-40,40,17.94,40,40,40ZM136,320c4.41,0,8,3.59,8,8s-3.59,8-8,8-8-3.59-8-8,3.59-8,8-8Z"/><path d="M443.37,324.75c-3-3.04-7.1-4.75-11.37-4.75h-64v-78.11l16,19.77v26.34c0,8.84,7.16,16,16,16s16-7.16,16-16v-32c0-3.66-1.26-7.22-3.56-10.06l-52.13-64.42c-8.46-12.94-23.06-21.51-39.64-21.51h-33.34c-16.58,0-31.18,8.57-39.64,21.51l-52.13,64.42c-2.3,2.85-3.56,6.4-3.56,10.06v33c0,8.84,7.16,16,16,16s16-7.16,16-16v-27.34l16-19.77v78.11h-.77c-11.94,0-22.86,4.46-31.19,11.8-.94.59-1.82,1.28-2.65,2.09l-83.92,82.11H48c-8.84,0-16,7.16-16,16s7.16,16,16,16h80c4.18,0,8.2-1.64,11.19-4.56l52.71-51.57v8.91c0,26.04,21.23,47.23,47.33,47.23h191.77c8.77,0,15.91-7.06,16-15.83l1-96c.04-4.27-1.62-8.38-4.63-11.42ZM272,207.33c0-8.45,6.88-15.33,15.33-15.33h33.34c8.45,0,15.33,6.88,15.33,15.33v112.67h-64v-112.67ZM415.17,416h-175.94c-8.45,0-15.33-6.83-15.33-15.23v-33.34c0-8.37,7.02-15.43,15.33-15.43h176.6l-.67,64Z"/></svg>