<?xml version="1.0" encoding="UTF-8"?><svg id="Icon" xmlns="http://www.w3.org/2000/svg" viewBox="0 0 512 512"><path d="M155.4,351.09c-4.09,0-8.18-1.56-11.31-4.68-49.9-49.85-49.95-131-.1-180.9l.09-.09c6.25-6.25,16.38-6.25,22.63,0,6.25,6.25,6.25,16.38,0,22.63l-.09.09c-37.37,37.41-37.34,98.26.08,135.64,6.25,6.25,6.26,16.38.01,22.63-3.12,3.13-7.22,4.69-11.32,4.69Z"/><path d="M356.6,160.73c4.09,0,8.18,1.56,11.31,4.68,49.9,49.85,49.95,131,.1,180.9l-.09.09c-6.25,6.25-16.38,6.25-22.63,0-6.25-6.25-6.25-16.38,0-22.63l.09-.09c37.37-37.41,37.34-98.26-.08-135.64-6.25-6.25-6.26-16.38-.01-22.63,3.12-3.13,7.22-4.69,11.32-4.69Z"/><path d="M409.39,403.87c-4.09,0-8.19-1.56-11.31-4.68-6.25-6.25-6.25-16.38,0-22.63,66.46-66.48,66.46-174.64,0-241.12-6.25-6.25-6.25-16.38,0-22.63,6.25-6.25,16.38-6.25,22.63,0,38.24,38.25,59.3,89.1,59.3,143.18s-21.06,104.93-59.3,143.18c-3.12,3.12-7.22,4.69-11.32,4.69Z"/><path d="M102.61,403.87c-4.1,0-8.19-1.56-11.32-4.69-38.24-38.25-59.3-89.1-59.3-143.18s21.06-104.93,59.3-143.18c6.25-6.25,16.38-6.25,22.63,0,6.25,6.25,6.25,16.38,0,22.63-66.46,66.48-66.46,174.64,0,241.12,6.25,6.25,6.25,16.38,0,22.63-3.12,3.12-7.22,4.68-11.31,4.68Z"/><path d="M256,293.52c-8.84,0-16-7.16-16-16v-91.12c0-8.84,7.16-16,16-16s16,7.16,16,16v91.12c0,8.84-7.16,16-16,16Z"/><path d="M256.22,379.59h-.22c-8.84,0-16-7.16-16-16s7.16-16,16-16h.22c8.84,0,16,7.16,16,16s-7.16,16-16,16Z"/></svg>