<?xml version="1.0" encoding="UTF-8"?><svg id="Icon" xmlns="http://www.w3.org/2000/svg" viewBox="0 0 512 512"><path d="M256,480c-59.83,0-116.08-23.3-158.39-65.61-42.31-42.31-65.61-98.56-65.61-158.39s23.3-116.08,65.61-158.39c42.31-42.31,98.56-65.61,158.39-65.61s116.08,23.3,158.39,65.61c42.31,42.31,65.61,98.56,65.61,158.39s-23.3,116.08-65.61,158.39c-42.31,42.31-98.56,65.61-158.39,65.61ZM256,64c-105.87,0-192,86.13-192,192s86.13,192,192,192,192-86.13,192-192-86.13-192-192-192Z"/><path d="M209.78,361.14c-2.63,0-5.27-.65-7.67-1.96-5.14-2.8-8.33-8.19-8.33-14.04v-178.29c0-5.85,3.2-11.24,8.33-14.04,5.14-2.8,11.4-2.58,16.32.58l138.67,89.14c4.58,2.94,7.35,8.01,7.35,13.46s-2.77,10.51-7.35,13.46l-138.67,89.14c-2.63,1.69-5.64,2.54-8.65,2.54ZM225.78,196.16v119.67l93.08-59.84-93.08-59.84Z"/></svg>