<?xml version="1.0" encoding="UTF-8"?><svg id="Icon" xmlns="http://www.w3.org/2000/svg" viewBox="0 0 512 512"><path d="M443.41,193.39c0-26.02-21.17-47.2-47.2-47.2s-47.2,21.17-47.2,47.2c0,20.41,13.02,37.83,31.2,44.4v77.03c0,17.66-14.37,32.02-32.02,32.02s-32.02-14.37-32.02-32.02v-171.8c0-23.57-19.17-42.74-42.74-42.74h-66.69v-6.19h19.92c8.84,0,16-7.16,16-16s-7.16-16-16-16h-71.31c-8.84,0-16,7.16-16,16s7.16,16,16,16h19.39v43.75c-36.53,7.43-64.11,39.81-64.11,78.5v190.18c0,21.82,17.75,39.57,39.57,39.57h81.08c21.82,0,39.57-17.75,39.57-39.57v-190.18c0-38.69-27.58-71.07-64.11-78.5v-5.57h66.69c5.92,0,10.74,4.82,10.74,10.74v171.8c0,35.3,28.72,64.02,64.02,64.02s64.02-28.72,64.02-64.02v-77.03c18.17-6.57,31.2-23.99,31.2-44.4ZM238.84,240.58v120.13h-96.22v-120.13h96.22ZM231.27,414.08h-81.08c-4.1,0-7.57-3.47-7.57-7.57v-13.8h96.22v13.8c0,4.1-3.47,7.57-7.57,7.57ZM238.21,208.58h-94.95c3.72-22.85,23.59-40.36,47.47-40.36s43.76,17.5,47.48,40.36ZM396.21,178.19c8.38,0,15.2,6.82,15.2,15.2s-6.82,15.2-15.2,15.2-15.2-6.82-15.2-15.2,6.82-15.2,15.2-15.2Z"/><path d="M159.43,314.11h15.31v15.31c0,8.84,7.16,16,16,16s16-7.16,16-16v-15.31h15.31c8.84,0,16-7.16,16-16s-7.16-16-16-16h-15.31v-15.31c0-8.84-7.16-16-16-16s-16,7.16-16,16v15.31h-15.31c-8.84,0-16,7.16-16,16s7.16,16,16,16Z"/></svg>