<?xml version="1.0" encoding="UTF-8"?><svg id="Icon" xmlns="http://www.w3.org/2000/svg" viewBox="0 0 512 512"><path d="M392.89,448H119.11c-30.39,0-55.11-24.72-55.11-55.11V119.11c0-30.39,24.72-55.11,55.11-55.11h273.78c30.39,0,55.11,24.72,55.11,55.11v273.78c0,30.39-24.72,55.11-55.11,55.11ZM119.11,96c-12.74,0-23.11,10.37-23.11,23.11v273.78c0,12.74,10.37,23.11,23.11,23.11h273.78c12.74,0,23.11-10.37,23.11-23.11V119.11c0-12.74-10.37-23.11-23.11-23.11H119.11Z"/><path d="M288,368h-64c-8.84,0-16-7.16-16-16v-48h-48c-8.84,0-16-7.16-16-16v-64c0-8.84,7.16-16,16-16h48v-48c0-8.84,7.16-16,16-16h64c8.84,0,16,7.16,16,16v48h48c8.84,0,16,7.16,16,16v64c0,8.84-7.16,16-16,16h-48v48c0,8.84-7.16,16-16,16ZM240,336h32v-48c0-8.84,7.16-16,16-16h48v-32h-48c-8.84,0-16-7.16-16-16v-48h-32v48c0,8.84-7.16,16-16,16h-48v32h48c8.84,0,16,7.16,16,16v48Z"/></svg>