<?xml version="1.0" encoding="UTF-8"?><svg id="Icon" xmlns="http://www.w3.org/2000/svg" viewBox="0 0 512 512"><path d="M169.54,294.38h-18.62v-30.87c0-.05,0-.11,0-.16-.07-13.45-5.28-26.16-14.68-35.79-9.4-9.62-21.98-15.14-35.43-15.52-.08,0-.15,0-.23,0-.37,0-.74-.01-1.1-.01h0c-28.39,0-51.47,23.11-51.47,51.49v62.83c0,27.81,22.62,50.43,50.43,50.43h30.21v43.19c0,17.67,14.33,32,32,32h17.14c17.67,0,32-14.33,32-32v-85.35c0-22.19-18.05-40.24-40.24-40.24ZM177.78,419.97h-17.14v-66.46c0-4.82-3.91-8.73-8.73-8.73h-53.48c-10.18,0-18.43-8.25-18.43-18.43v-62.83c0-10.76,8.72-19.48,19.47-19.48.14,0,.28,0,.42,0,10.56.3,18.97,8.92,19.02,19.48v54.14c0,4.82,3.91,8.73,8.73,8.73h41.89c4.55,0,8.24,3.69,8.24,8.24v85.35Z"/><path d="M412.53,212.03h0c-.37,0-.74,0-1.1.01-.08,0-.15,0-.23,0-13.45.38-26.03,5.9-35.43,15.52-9.4,9.62-14.61,22.33-14.68,35.79,0,.05,0,.11,0,.16v30.87h-18.62c-22.19,0-40.24,18.05-40.24,40.24v85.35c0,17.67,14.33,32,32,32h17.14c17.67,0,32-14.33,32-32v-43.19h30.21c27.81,0,50.43-22.62,50.43-50.43v-62.83c0-28.38-23.08-51.48-51.47-51.48ZM432,326.35c0,10.18-8.25,18.43-18.43,18.43h-53.48c-4.82,0-8.73,3.91-8.73,8.73v66.46h-17.14v-85.35c0-4.55,3.69-8.24,8.24-8.24h41.89c4.82,0,8.73-3.91,8.73-8.73v-54.14c.05-10.56,8.47-19.18,19.02-19.48.14,0,.28,0,.42,0,10.76,0,19.48,8.73,19.47,19.48v62.83Z"/><path d="M416,208c26.47,0,48-21.53,48-48s-21.53-48-48-48-48,21.53-48,48,21.53,48,48,48ZM416,144c8.82,0,16,7.18,16,16s-7.18,16-16,16-16-7.18-16-16,7.18-16,16-16Z"/><path d="M96,208c26.47,0,48-21.53,48-48s-21.53-48-48-48-48,21.53-48,48,21.53,48,48,48ZM96,144c8.82,0,16,7.18,16,16s-7.18,16-16,16-16-7.18-16-16,7.18-16,16-16Z"/><path d="M320,272c8.84,0,16-7.16,16-16s-7.16-16-16-16h-128c-8.84,0-16,7.16-16,16s7.16,16,16,16h47.96v157.87c0,8.84,7.16,16,16,16s16-7.16,16-16v-157.87h48.04Z"/><path d="M191.58,224c8.84,0,16-7.16,16-16s7.18-16,16-16h64.47c8.82,0,16,7.18,16,16s7.16,16,16,16,16-7.16,16-16c0-26.47-21.53-48-48-48h-64.47c-26.47,0-48,21.53-48,48,0,8.84,7.16,16,16,16Z"/><path d="M256,144c26.47,0,48-21.53,48-48s-21.53-48-48-48-48,21.53-48,48,21.53,48,48,48ZM256,80c8.82,0,16,7.18,16,16s-7.18,16-16,16-16-7.18-16-16,7.18-16,16-16Z"/></svg>