<?xml version="1.0" encoding="UTF-8"?><svg id="Icon" xmlns="http://www.w3.org/2000/svg" viewBox="0 0 512 512"><path d="M303.89,226.69v-93.92c0-6.29-3.68-11.99-9.42-14.58-5.73-2.59-12.45-1.58-17.17,2.58-27.47,24.21-59.62,41.5-98.29,52.86-27.96,8.21-58.07,12.53-89.5,12.85-38,.39-57.34,19.75-57.48,57.56v2.03c-.04,8.72-.08,17.75.02,26.68.26,23.89,12.59,40.28,34.71,46.14,7.06,1.87,14.12,2.84,21.24,3.43v59.86c0,8.84,7.16,16,16,16s16-7.16,16-16v-57.74c30.64,3.04,59.86,10.14,87.09,21.22,26.69,10.86,49.67,24.88,70.26,42.87,2.97,2.6,6.73,3.95,10.53,3.95,2.24,0,4.49-.47,6.61-1.43,5.71-2.6,9.38-8.29,9.38-14.57v-94.21c12.56-4.03,20.28-15.8,19.53-29.96-.64-12.22-8.94-22.8-19.53-25.63ZM271.89,343.98c-16.17-10.94-33.62-20.18-52.73-27.96-34.54-14.05-71.88-22.31-111.05-24.6-1.31-.35-2.68-.55-4.1-.55-.83,0-1.65.08-2.45.21-9.46-.42-18.6-1-26.59-3.12-9.16-2.43-10.82-6.95-10.91-15.57-.1-8.69-.06-17.59-.03-26.2v-2.03c.05-10.11,1.78-16.95,5.16-20.35,3.42-3.44,10.37-5.23,20.65-5.34,34.37-.35,67.4-5.11,98.19-14.15,31.46-9.24,59.15-22.06,83.86-38.9v178.55Z"/><path d="M371.48,168.22c-6.25-6.25-16.38-6.24-22.63.01-6.25,6.25-6.24,16.38.01,22.63,17.42,17.4,27.03,40.55,27.04,65.18.01,24.63-9.56,47.79-26.97,65.21-.01.01-.06.06-.08.08-6.25,6.25-6.25,16.38,0,22.63,3.12,3.12,7.22,4.69,11.31,4.69s8.19-1.56,11.31-4.69l.09-.09c23.45-23.47,36.35-54.67,36.33-87.84s-12.95-64.36-36.43-87.8Z"/><path d="M422.52,117.19c-6.25-6.25-16.38-6.25-22.63,0-6.25,6.25-6.25,16.38,0,22.63,64.04,64.06,64.04,168.3,0,232.36-6.25,6.25-6.25,16.38,0,22.63,3.12,3.12,7.22,4.68,11.31,4.68s8.19-1.56,11.32-4.69c76.51-76.54,76.51-201.07,0-277.61Z"/></svg>