<?xml version="1.0" encoding="UTF-8"?><svg id="Icon" xmlns="http://www.w3.org/2000/svg" viewBox="0 0 512 512"><path d="M377.64,312.07v-1.92c0-38.68-31.47-70.15-70.15-70.15h-82.04c-10.19,0-19.77-3.97-26.98-11.17l-29.46-29.46c28.84-8.28,50.01-34.88,50.01-66.34,0-38.06-30.96-69.03-69.03-69.03s-69.03,30.96-69.03,69.03c0,32.55,22.66,59.9,53.03,67.13v111.68c-30.37,7.24-53.03,34.58-53.03,67.13,0,38.06,30.96,69.03,69.03,69.03s69.03-30.96,69.03-69.03c0-32.55-22.66-59.89-53.03-67.13v-70.24l9.85,9.85c13.25,13.25,30.87,20.55,49.61,20.55h82.04c21.04,0,38.15,17.12,38.15,38.15v1.92c-30.24,7.23-52.8,34.47-52.8,66.9,0,37.94,30.86,68.8,68.8,68.8s68.8-30.86,68.8-68.8c0-32.43-22.56-59.67-52.8-66.9ZM112.96,133.03c0-20.42,16.61-37.03,37.03-37.03s37.03,16.61,37.03,37.03-16.61,37.03-37.03,37.03-37.03-16.61-37.03-37.03ZM187.01,378.97c0,20.42-16.61,37.03-37.03,37.03s-37.03-16.61-37.03-37.03,15.13-35.49,34.25-36.91c.9.16,1.82.26,2.77.26s1.87-.1,2.77-.26c19.12,1.42,34.25,17.43,34.25,36.91ZM361.64,415.77c-20.29,0-36.8-16.51-36.8-36.8s16.51-36.8,36.8-36.8,36.8,16.51,36.8,36.8-16.51,36.8-36.8,36.8Z"/></svg>