<?xml version="1.0" encoding="UTF-8"?><svg id="Icon" xmlns="http://www.w3.org/2000/svg" viewBox="0 0 512 512"><path d="M64.79,455.47h-.01c-7.54,0-14.06-5.27-15.64-12.64-.82-3.81-.2-7.66,1.54-10.91l37.04-75.86c-25.68-31.34-39.71-69.27-39.71-107.93,0-101.53,93.31-184.14,208-184.14s208,82.6,208,184.14-93.31,184.14-208,184.14c-32.29,0-64.25-6.72-92.93-19.48l-91.35,41.1c-2.12,1.02-4.49,1.58-6.93,1.58ZM256,96c-97.05,0-176,68.25-176,152.14,0,34.59,13.31,67.29,38.49,94.58,4.47,4.85,5.51,11.94,2.62,17.87l-22.52,46.13,58.03-26.11c4.34-1.95,9.32-1.87,13.59.21,26.05,12.73,55.72,19.46,85.79,19.46,97.05,0,176-68.25,176-152.14s-78.95-152.14-176-152.14Z"/></svg>