<?xml version="1.0" encoding="UTF-8"?><svg id="Icon" xmlns="http://www.w3.org/2000/svg" viewBox="0 0 512 512"><path d="M432,96H80c-26.47,0-48,21.53-48,48v224c0,26.47,21.53,48,48,48h352c26.47,0,48-21.53,48-48v-224c0-26.47-21.53-48-48-48ZM64,368v-224c0-8.82,7.18-16,16-16h240v256H80c-8.82,0-16-7.18-16-16ZM448,368c0,8.82-7.18,16-16,16h-80V128h80c8.82,0,16,7.18,16,16v224Z"/><circle cx="400" cy="224" r="16"/><circle cx="400" cy="336" r="16"/><circle cx="400" cy="176" r="16"/><path d="M138.22,228.63c-.07-4.57,1.94-9.43,7.63-20.82,3.22-6.46.59-14.35-5.87-17.59-1.81-.9-3.84-1.38-5.86-1.38-5,0-9.5,2.78-11.73,7.25-6.74,13.47-10.39,22.63-10.39,32.43,0,.27,0,.54,0,.83.21,10.13,4.15,19.06,10.11,32.58,4.9,11.11,7.25,16.66,7.25,21.41s-2.35,10.3-7.25,21.41c-2.92,6.61.09,14.36,6.71,17.3,1.68.74,3.45,1.11,5.28,1.11,5.19,0,9.91-3.07,12.01-7.83,5.88-13.35,9.46-22.17,9.46-31.99s-3.57-18.64-9.46-31.99c-5.04-11.44-7.82-17.74-7.9-22.73Z"/><path d="M196.43,228.63c-.07-4.57,1.94-9.43,7.63-20.82,3.22-6.46.59-14.35-5.87-17.59-1.81-.9-3.84-1.38-5.86-1.38-5,0-9.5,2.78-11.73,7.25-6.74,13.47-10.39,22.63-10.39,32.43,0,.27,0,.54,0,.83.21,10.13,4.15,19.06,10.11,32.58,4.9,11.11,7.25,16.66,7.25,21.41s-2.35,10.3-7.25,21.41c-2.92,6.61.09,14.36,6.71,17.3,1.68.74,3.45,1.11,5.28,1.11,5.19,0,9.91-3.07,12.01-7.83,5.88-13.35,9.46-22.17,9.46-31.99s-3.57-18.64-9.46-31.99c-5.04-11.44-7.82-17.74-7.9-22.73Z"/><path d="M262.54,251.36c-5.04-11.44-7.82-17.74-7.9-22.73-.07-4.57,1.94-9.43,7.63-20.82,3.22-6.46.59-14.35-5.87-17.59-1.81-.9-3.84-1.38-5.86-1.38-5,0-9.5,2.78-11.73,7.25-6.74,13.47-10.39,22.63-10.39,32.43,0,.27,0,.54,0,.83.21,10.13,4.15,19.06,10.11,32.58,4.9,11.11,7.25,16.66,7.25,21.41s-2.35,10.3-7.25,21.41c-2.92,6.61.09,14.36,6.71,17.3,1.68.74,3.45,1.11,5.28,1.11,5.19,0,9.91-3.07,12.01-7.83,5.88-13.35,9.46-22.17,9.46-31.99s-3.57-18.64-9.46-31.99Z"/></svg>