<?xml version="1.0" encoding="UTF-8"?><svg id="Icon" xmlns="http://www.w3.org/2000/svg" viewBox="0 0 512 512"><path d="M250.62,76.39c2.54-3.37,3.61-7.52,3.01-11.7l-.83-5.82c-2.18-15.32-15.5-26.87-30.98-26.87h-48.91c-15.49,0-28.82,11.55-31,26.86l-3.73,26.03c-.09.08-.23.19-.41.28-4.57,2.31-9.1,4.96-13.47,7.87-.11.08-.26.14-.35.18l-24.49-9.85c-3.67-1.47-7.55-2.22-11.53-2.22-11.24,0-21.68,5.99-27.24,15.62l-24.51,42.4c-7.78,13.46-4.42,30.79,7.81,40.33l20.76,16.25c-.21,2.92-.31,5.63-.31,8.25s.1,5.35.31,8.25l-20.76,16.25c-12.22,9.57-15.58,26.9-7.81,40.31l24.5,42.43c5.54,9.64,15.96,15.63,27.19,15.63,3.99,0,7.89-.75,11.59-2.24l24.49-9.85c.09.03.22.09.33.16,4.41,2.92,8.94,5.57,13.42,7.83.21.11.39.24.49.33l3.73,26.04c2.18,15.31,15.51,26.85,31,26.85h16.19c4.27,0,8.27-1.69,11.25-4.75,2.98-3.06,4.57-7.1,4.46-11.37-.22-8.59-7.12-15.32-15.71-15.32h-16.09l-3.77-26.17c-1.42-10-7.87-18.83-17.29-23.65-3.42-1.71-6.79-3.68-10.31-6.02-5.34-3.53-11.48-5.39-17.77-5.39-3.96,0-7.82.74-11.48,2.2l-24.56,9.87-24.39-42.22,27.48-21.5c4.31-3.38,6.58-8.86,5.91-14.28-.45-3.7-.97-8.57-.97-13.41s.52-9.71.97-13.41c.67-5.43-1.6-10.9-5.92-14.29l-27.47-21.48,24.39-42.22,24.58,9.87c3.64,1.46,7.49,2.2,11.45,2.2,6.3,0,12.45-1.87,17.8-5.41,3.44-2.28,6.81-4.26,10.33-6.05,9.38-4.79,15.82-13.62,17.24-23.61l3.77-26.17h48.7l.82,5.72c1.1,7.69,7.78,13.48,15.54,13.48.71,0,1.42-.05,2.12-.14,4.18-.57,7.88-2.73,10.43-6.1Z"/><path d="M216.35,188.23c6.1-6.39,5.87-16.52-.53-22.62-6.39-6.1-16.52-5.87-22.62.53-.02.02-.06.07-.08.08-21.33,22.54-20.35,58.24,2.2,79.57,3.09,2.93,7.05,4.38,10.99,4.38,4.24,0,8.48-1.68,11.62-5,6.07-6.42,5.79-16.55-.63-22.62-9.73-9.21-10.15-24.61-.97-34.32Z"/><path d="M173.15,169c6.08-6.42,5.8-16.54-.62-22.62-6.42-6.08-16.54-5.8-22.62.62-31.52,33.28-30.09,86,3.18,117.53,3.09,2.93,7.05,4.39,11,4.39,4.24,0,8.47-1.67,11.62-5,6.08-6.41,5.81-16.54-.61-22.62-20.47-19.39-21.34-51.83-1.96-72.3Z"/><path d="M358.07,390.01c-9.91,0-17.94,7.98-17.94,17.82v.24c0,9.84,8.03,17.82,17.94,17.82s17.94-7.98,17.94-17.82v-.24c0-9.84-8.03-17.82-17.94-17.82Z"/><path d="M448,96h-176c-17.65,0-32,14.36-32,32v320c0,17.64,14.35,32,32,32h176c17.65,0,32-14.36,32-32V128c0-17.64-14.35-32-32-32ZM448,448h-176s0-320,0-320h16.58c.16,7.29,6.11,13.15,13.44,13.15h112.1c7.33,0,13.27-5.86,13.44-13.15h20.44v320Z"/></svg>