<?xml version="1.0" encoding="UTF-8"?><svg id="Icon" xmlns="http://www.w3.org/2000/svg" viewBox="0 0 512 512"><path d="M284.21,116.46c-40.6,0-73.62,33.03-73.62,73.62s33.03,73.62,73.62,73.62,73.62-33.03,73.62-73.62-33.03-73.62-73.62-73.62ZM284.21,231.7c-22.95,0-41.62-18.67-41.62-41.62s18.67-41.62,41.62-41.62,41.62,18.67,41.62,41.62-18.67,41.62-41.62,41.62Z"/><path d="M463.52,64H104.51c-8.84,0-16,7.16-16,16v139.29c-10.35,2-19.92,5.11-28.12,9.25-18.61,9.38-28.87,23.12-28.87,38.69v102.78c0,15.57,10.25,29.32,28.87,38.69,15.13,7.62,34.89,11.82,55.64,11.82s40.51-4.2,55.64-11.82c1.26-.64,2.49-1.3,3.67-1.97,6.31,8.59,15.71,14.24,22.35,17.42,15.05,7.2,34.7,11.16,55.34,11.16s40.29-3.96,55.34-11.16c10.89-5.21,29.16-17.02,29.16-37.6v-52.74c0-6.83-2.02-12.68-5.1-17.66h131.08c8.84,0,16-7.16,16-16V80c0-8.84-7.16-16-16-16ZM422.94,284.16h-222.41v-16.93c0-15.57-10.25-29.32-28.87-38.69-14.03-7.07-32.06-11.19-51.15-11.75v-95.86c11.6-4.32,20.88-13.44,25.42-24.93h276.79c4.46,11.28,13.49,20.27,24.8,24.68v139.36c-11.12,4.34-20.04,13.1-24.58,24.12ZM63.52,307.42c14.67,6.67,33.16,10.32,52.5,10.32s37.83-3.65,52.5-10.32v15.76c-2.42,4.3-20.7,14.35-52.5,14.35s-50.08-10.05-52.5-14.35v-15.76ZM211.79,325.45c10.59-5.34,25.62-8.4,41.24-8.4s30.65,3.06,41.24,8.4c8.21,4.13,11.26,8.4,11.26,10.12s-3.06,5.98-11.26,10.12c-10.59,5.34-25.62,8.4-41.24,8.4s-30.65-3.06-41.24-8.4c-8.21-4.13-11.26-8.4-11.26-10.12s3.06-5.98,11.26-10.12ZM63.56,266.86c.18-.92,1.03-2.33,2.71-3.97,3.57-3.39,10.61-7.53,20.97-10.46,7.8-2.16,16.67-3.45,25.83-3.67.97-.02,1.95-.04,2.95-.04s1.98.01,2.95.04c9.11.22,17.93,1.49,25.69,3.63,10.44,2.93,17.53,7.1,21.12,10.5,1.68,1.64,2.53,3.05,2.71,3.97.02.13.04.25.04.37,0,1.72-3.06,5.98-11.26,10.12-10.59,5.34-25.62,8.4-41.24,8.4s-30.65-3.06-41.24-8.4c-8.21-4.13-11.26-8.4-11.26-10.12,0-.12.02-.24.04-.37ZM116.02,388.53c-34.45,0-52.5-13.76-52.5-18.51v-9.57c14.58,5.87,33.1,9.09,52.5,9.09s37.92-3.22,52.5-9.09v9.57c0,4.76-18.05,18.51-52.5,18.51ZM293.9,395.6c-10.62,4.9-25.52,7.72-40.87,7.72s-30.25-2.81-40.87-7.72c-9.37-4.33-11.58-8.42-11.63-9.04v-10.8c14.67,6.67,33.16,10.32,52.5,10.32s37.83-3.65,52.5-10.32v10.8c-.05.63-2.27,4.72-11.63,9.04Z"/><circle cx="401.19" cy="190.08" r="18.44" transform="translate(-32.94 97.26) rotate(-13.28)"/><circle cx="167.24" cy="190.08" r="18.44" transform="translate(-39.2 43.51) rotate(-13.28)"/></svg>