<?xml version="1.0" encoding="UTF-8"?><svg id="Icon" xmlns="http://www.w3.org/2000/svg" viewBox="0 0 512 512"><path d="M195.37,201.86c-.06,10.69,5.59,20.8,15.93,28.48,10.97,8.15,26.96,12.24,42.93,12.24s31.17-3.9,42.04-11.73c11.06-7.97,17-18.55,16.72-29.79-.28-11.19-6.68-21.41-18.04-28.78-11.08-7.18-24.27-10.72-40.32-10.81-.19,0-.38,0-.57,0-16.21,0-31.98,4.44-42.28,11.91-10.52,7.63-16.34,17.75-16.4,28.48ZM230.56,199.28c4.05-2.94,13-5.87,23.85-5.81h.01c9.89.06,17.23,1.86,23.11,5.66,1.77,1.14,2.74,2.13,3.21,2.73-.41.6-1.31,1.67-3.19,3.02-10.67,7.69-36.68,7.56-47.17-.23-1.5-1.12-2.35-2.05-2.76-2.62.44-.6,1.33-1.58,2.95-2.75Z"/><path d="M71.82,187.2l221.29,131.55c2.52,1.5,5.35,2.25,8.18,2.25s5.62-.74,8.13-2.22l130.71-77.16c4.92-2.9,7.92-8.21,7.87-13.92-.05-5.71-3.14-10.96-8.1-13.78l-224.29-127.25c-4.91-2.79-10.92-2.78-15.82.02l-127.71,72.86c-4.95,2.82-8.02,8.06-8.07,13.75-.05,5.69,2.93,10.99,7.82,13.9ZM119.87,169.12l77.35-44.13c2.46,1.87,6.62,3.1,11.34,3.1,4.29,0,8.11-1.02,10.62-2.6l171.96,97.56c-1.22,1.06-1.94,2.29-1.94,3.61,0,2.07,1.74,3.92,4.49,5.21l-81.99,48.4c-2.5-1.67-6.42-2.75-10.83-2.75-4.14,0-7.85.95-10.36,2.45l-171.37-101.87c2.19-1.25,3.53-2.9,3.53-4.72,0-1.6-1.05-3.08-2.8-4.26Z"/><path d="M423.87,267.27l-122.55,72.34-213.14-126.71c-7.6-4.51-17.41-2.02-21.93,5.58s-2.02,17.41,5.58,21.93l221.29,131.55c2.52,1.5,5.35,2.25,8.18,2.25s5.62-.74,8.13-2.22l130.71-77.16c7.61-4.49,10.14-14.3,5.65-21.91-4.49-7.61-14.3-10.14-21.91-5.65Z"/><path d="M423.87,320.48l-122.55,72.34-213.14-126.7c-7.6-4.52-17.41-2.02-21.93,5.58-4.52,7.6-2.02,17.41,5.58,21.93l221.29,131.55c2.52,1.5,5.35,2.25,8.18,2.25s5.62-.74,8.13-2.22l130.71-77.16c7.61-4.49,10.14-14.3,5.65-21.91-4.49-7.61-14.3-10.14-21.91-5.65Z"/><ellipse cx="321.5" cy="240.88" rx="18.87" ry="9.72"/><path d="M187.6,172.01c10.97,0,19.86-4.58,19.86-10.23s-8.89-10.23-19.86-10.23-19.86,4.58-19.86,10.23,8.89,10.23,19.86,10.23Z"/></svg>