<?xml version="1.0" encoding="UTF-8"?><svg id="Icon" xmlns="http://www.w3.org/2000/svg" viewBox="0 0 512 512"><path d="M309.31,136h26.69c8.84,0,16-7.16,16-16s-7.16-16-16-16h-26.69c-6.9-23.1-28.34-40-53.66-40s-46.76,16.9-53.66,40h-25.99c-8.84,0-16,7.16-16,16s7.16,16,16,16h25.99c6.9,23.1,28.34,40,53.66,40s46.76-16.9,53.66-40ZM255.65,144c-13,0-23.62-10.4-23.98-23.32,0-.23.03-.45.03-.68s-.02-.45-.03-.68c.36-12.92,10.98-23.32,23.98-23.32s24,10.77,24,24-10.77,24-24,24Z"/><path d="M272,176h-32c-44.11,0-80,35.89-80,80v80c0,18.89,6.77,37.26,19.06,51.71,9.83,11.56,22.69,20.06,36.94,24.58v11.7c0,22.06,17.94,40,40,40s40-17.94,40-40v-11.7c14.28-4.53,27.15-13.05,36.98-24.64,12.26-14.45,19.02-32.79,19.02-51.66v-80c0-44.11-35.89-80-80-80ZM264,424c0,4.34-3.66,8-8,8s-8-3.66-8-8v-64c0-4.34,3.66-8,8-8s8,3.66,8,8v64ZM320,336c0,17.58-9.48,33.2-24,41.57v-17.57c0-22.06-17.94-40-40-40s-40,17.94-40,40v17.47c-14.38-8.47-24-24.22-24-41.47v-80c0-26.47,21.53-48,48-48h32c26.47,0,48,21.53,48,48v80Z"/><path d="M256.02,240h0c-8.84,0-16,7.16-16,16s7.17,16,16,16,16-7.16,16-16-7.16-16-16-16Z"/></svg>