<?xml version="1.0" encoding="UTF-8"?><svg id="Icon" xmlns="http://www.w3.org/2000/svg" viewBox="0 0 512 512"><path d="M398.91,88.39c-6.32-1.59-15.51-2.39-27.56-2.39h-27.01c-4.61,0-8.34,3.73-8.34,8.34v95.32c0,4.61,3.73,8.34,8.34,8.34h11.59c4.61,0,8.34-3.73,8.34-8.34v-25.96h11.87c8.62,0,15.67-.66,21.13-1.99,5.46-1.33,10.11-3.53,13.96-6.6,8.86-7.09,13.29-17.28,13.29-30.57,0-8.15-1.86-15.27-5.58-21.35-4.61-7.62-11.28-12.55-20.02-14.8ZM388.63,139.96c-3.43,1.65-9.07,2.48-16.92,2.48h-8.15v-35.18h8.15c7.85,0,13.59,1.09,17.19,3.28,4.9,2.95,7.35,7.95,7.35,14.97s-2.54,11.96-7.62,14.44Z"/><path d="M213.31,152h26.69c8.84,0,16-7.16,16-16s-7.16-16-16-16h-26.69c-6.9-23.11-28.34-40-53.66-40s-46.76,16.89-53.66,40h-25.99c-8.84,0-16,7.16-16,16s7.16,16,16,16h25.99c6.9,23.11,28.34,40,53.66,40s46.76-16.89,53.66-40ZM159.65,160c-13.01,0-23.62-10.4-23.98-23.32,0-.23.03-.45.03-.68s-.02-.45-.03-.68c.36-12.92,10.98-23.32,23.98-23.32s24,10.77,24,24-10.77,24-24,24Z"/><path d="M64,272v80c0,18.89,6.77,37.26,19.06,51.71,9.83,11.56,22.69,20.06,36.94,24.58v11.7c0,22.06,17.94,40,40,40s40-17.94,40-40v-11.7c14.28-4.53,27.15-13.05,36.98-24.64,12.26-14.45,19.02-32.79,19.02-51.66v-80c0-44.11-35.89-80-80-80h-32c-44.11,0-80,35.89-80,80ZM168,440c0,4.34-3.66,8-8,8s-8-3.66-8-8v-64c0-4.34,3.66-8,8-8s8,3.66,8,8v64ZM176,224c26.47,0,48,21.53,48,48v80c0,17.58-9.48,33.2-24,41.57v-17.57c0-22.06-17.94-40-40-40s-40,17.94-40,40v17.47c-14.38-8.47-24-24.22-24-41.47v-80c0-26.47,21.53-48,48-48h32Z"/><path d="M160.02,288c8.84,0,16-7.16,16-16s-7.16-16-16-16h-.01c-8.84,0-15.99,7.16-15.99,16s7.17,16,16,16Z"/><path d="M424,32h-96c-1.09,0-2.16.04-3.24.1-.29.02-.57.04-.86.07-.81.06-1.62.13-2.43.23-.28.03-.56.07-.84.11-.86.11-1.72.25-2.58.4-.19.03-.37.06-.56.1-4.44.84-8.69,2.21-12.69,4.04-.02,0-.03.01-.05.02-4.12,1.88-7.96,4.25-11.47,7.03-.02.02-.04.03-.07.05-12.93,10.27-21.24,26.1-21.24,43.86v96c0,30.88,25.12,56,56,56h32v192c0,8.84,7.16,16,16,16s16-7.16,16-16v-192h32c30.88,0,56-25.12,56-56v-96c0-30.88-25.12-56-56-56ZM448,184c0,2.48-.38,4.88-1.08,7.13-3.04,9.76-12.17,16.87-22.92,16.87h-96c-13.23,0-24-10.77-24-24v-96c0-4.8,1.42-9.28,3.86-13.03.08-.11.17-.21.24-.32,3.67-5.42,9.26-9.06,15.5-10.24,0,0,0,0,0,0,.44-.08.87-.15,1.31-.21.08-.01.17-.02.25-.03.37-.04.75-.08,1.12-.11.11,0,.21-.02.32-.02.46-.03.93-.04,1.39-.04h96c10.75,0,19.88,7.11,22.92,16.87.7,2.25,1.08,4.65,1.08,7.13v96Z"/></svg>