<?xml version="1.0" encoding="UTF-8"?><svg id="Icon" xmlns="http://www.w3.org/2000/svg" viewBox="0 0 512 512"><path d="M396.59,150h-72.45v-26.06c0-8.84-7.16-16-16-16h-88.29c-8.84,0-16,7.16-16,16v26.06h-20.34c-22.86,0-41.46,18.6-41.46,41.46v4.39h-26.06c-8.84,0-16,7.16-16,16v28.14h-24c-8.84,0-16,7.16-16,16s7.16,16,16,16h24v28.14c0,8.84,7.16,16,16,16h26.06v4.39c0,22.86,18.6,41.46,41.46,41.46h19.22v22h-41.86c-8.84,0-16,7.16-16,16s7.16,16,16,16h204c8.84,0,16-7.16,16-16s-7.16-16-16-16h-41.86v-22h73.56c22.86,0,41.46-18.6,41.46-41.46v-129.07c0-22.86-18.6-41.46-41.46-41.46ZM234.74,384v-21.97h56.29v21.97h-56.29ZM235.86,139.94h56.29v10.06h-56.29v-10.06ZM132,284.14v-56.29h10.06v56.29h-10.06ZM174.06,320.54v-129.07c0-5.13,4.33-9.46,9.46-9.46h166.48v148h-166.48c-5.13,0-9.46-4.33-9.46-9.46ZM406.06,320.54c0,5.13-4.33,9.46-9.46,9.46h-14.59v-148h14.59c5.13,0,9.46,4.33,9.46,9.46v129.07Z"/><path d="M314,288h-100c-8.84,0-16,7.16-16,16s7.16,16,16,16h100c8.84,0,16-7.16,16-16s-7.16-16-16-16Z"/><path d="M314,240h-100c-8.84,0-16,7.16-16,16s7.16,16,16,16h100c8.84,0,16-7.16,16-16s-7.16-16-16-16Z"/><path d="M214,224h100c8.84,0,16-7.16,16-16s-7.16-16-16-16h-100c-8.84,0-16,7.16-16,16s7.16,16,16,16Z"/></svg>