<?xml version="1.0" encoding="UTF-8"?><svg id="Icon" xmlns="http://www.w3.org/2000/svg" viewBox="0 0 512 512"><path d="M479.92,254.42c-.02-.24-.07-.48-.1-.72-.04-.28-.07-.55-.13-.82-.05-.27-.13-.54-.2-.8-.06-.24-.11-.48-.18-.72-.08-.26-.18-.51-.27-.77-.09-.24-.16-.48-.26-.71-.1-.24-.21-.47-.32-.7-.11-.24-.22-.48-.35-.72-.12-.22-.26-.44-.39-.65-.14-.23-.27-.46-.42-.69-.16-.24-.34-.47-.52-.7-.14-.18-.27-.37-.41-.55-.34-.41-.69-.8-1.06-1.18l-44.57-44.57c-6.25-6.25-16.38-6.25-22.63,0-6.25,6.25-6.25,16.38,0,22.63l17.26,17.26h-65.37c-8.84,0-16,7.16-16,16s7.16,16,16,16h65.37l-17.26,17.26c-6.25,6.25-6.25,16.38,0,22.63,3.12,3.12,7.22,4.69,11.31,4.69s8.19-1.56,11.31-4.69l44.57-44.57c.37-.37.73-.77,1.06-1.18.15-.18.27-.37.41-.55.18-.23.36-.46.52-.7.15-.22.28-.46.42-.69.13-.22.27-.43.39-.66.13-.24.23-.48.35-.72.11-.23.23-.46.32-.7.1-.23.17-.47.26-.71.09-.25.19-.51.27-.77.07-.24.12-.48.18-.72.07-.27.14-.53.2-.8.05-.27.09-.55.13-.82.03-.24.08-.48.1-.72.05-.51.08-1.02.08-1.53,0-.02,0-.03,0-.04s0-.03,0-.04c0-.51-.03-1.02-.08-1.53Z"/><path d="M34.69,247.12c-.15.22-.28.46-.42.69-.13.22-.27.43-.39.65-.13.24-.23.48-.35.72-.11.23-.23.46-.33.7-.1.23-.17.47-.26.71-.09.26-.19.51-.27.77-.07.24-.12.48-.18.72-.07.27-.14.53-.2.8-.05.27-.09.55-.13.82-.03.24-.08.48-.1.72-.05.51-.08,1.02-.08,1.53,0,.02,0,.03,0,.04s0,.03,0,.04c0,.51.03,1.02.08,1.53.02.24.07.48.1.72.04.28.07.55.13.82.05.27.13.54.2.8.06.24.11.48.18.72.08.26.18.51.27.77.08.24.16.47.26.71.1.24.22.47.33.7.11.24.22.48.35.72.12.22.26.44.39.66.14.23.27.46.42.69.16.24.34.47.52.7.14.18.27.37.41.55.34.41.69.8,1.06,1.18l44.57,44.57c3.12,3.12,7.22,4.69,11.31,4.69s8.19-1.56,11.31-4.69c6.25-6.25,6.25-16.38,0-22.63l-17.26-17.26h65.37c8.84,0,16-7.16,16-16s-7.16-16-16-16h-65.37l17.26-17.26c6.25-6.25,6.25-16.38,0-22.63-6.25-6.25-16.38-6.25-22.63,0l-44.57,44.57c-.37.37-.73.77-1.06,1.18-.15.18-.28.37-.41.55-.17.23-.35.46-.52.7Z"/><path d="M256,168c8.84,0,16-7.16,16-16v-65.37l13.83,13.83c3.12,3.12,7.22,4.69,11.31,4.69s8.19-1.56,11.31-4.69c6.25-6.25,6.25-16.38,0-22.63l-41.14-41.14c-.37-.37-.77-.73-1.18-1.06-.18-.15-.38-.28-.56-.42-.23-.17-.45-.35-.69-.51-.23-.15-.47-.29-.7-.43-.21-.13-.42-.26-.64-.38-.24-.13-.49-.24-.73-.35-.23-.11-.45-.22-.68-.32-.24-.1-.49-.18-.73-.27-.25-.09-.49-.18-.75-.26-.25-.07-.5-.13-.75-.19-.26-.06-.51-.14-.77-.19-.29-.06-.58-.09-.87-.13-.23-.03-.45-.08-.68-.1-1.05-.1-2.11-.1-3.16,0-.23.02-.45.07-.68.1-.29.04-.58.08-.87.13-.26.05-.52.12-.77.19-.25.06-.5.12-.74.19-.25.08-.5.17-.75.26-.24.09-.49.17-.73.27-.23.1-.46.21-.68.32-.25.12-.49.22-.73.35-.22.12-.43.25-.64.38-.23.14-.47.27-.7.43-.24.16-.46.34-.69.51-.19.14-.38.27-.56.42-.41.34-.8.69-1.18,1.06l-41.14,41.14c-6.25,6.25-6.25,16.38,0,22.63,6.25,6.25,16.38,6.25,22.63,0l13.83-13.83v65.37c0,8.84,7.16,16,16,16Z"/><path d="M289.26,408.12l-17.26,17.26v-65.37c0-8.84-7.16-16-16-16s-16,7.16-16,16v65.37l-17.26-17.26c-6.25-6.25-16.38-6.25-22.63,0-6.25,6.25-6.25,16.38,0,22.63l44.57,44.57c.37.37.77.73,1.18,1.06.18.15.37.28.56.42.23.17.46.35.7.51.23.15.46.28.69.42.22.13.43.26.65.38.24.13.48.24.73.35.23.11.46.22.69.32.24.1.48.18.72.26.25.09.5.19.76.27.24.07.48.13.73.19.26.07.52.14.79.19.28.06.56.09.84.13.24.03.47.08.71.1.52.05,1.05.08,1.58.08s1.05-.03,1.58-.08c.24-.02.47-.07.71-.1.28-.04.56-.07.84-.13.27-.05.53-.13.79-.19.24-.06.49-.11.73-.19.26-.08.51-.17.76-.27.24-.09.48-.17.72-.26.24-.1.46-.21.69-.32.24-.11.49-.22.73-.35.22-.12.43-.25.65-.38.23-.14.47-.27.7-.42.24-.16.47-.34.7-.51.19-.14.38-.27.56-.42.41-.34.8-.69,1.18-1.06l44.57-44.57c6.25-6.25,6.25-16.38,0-22.63-6.25-6.25-16.38-6.25-22.63,0Z"/></svg>