<?xml version="1.0" encoding="UTF-8"?><svg id="Icon" xmlns="http://www.w3.org/2000/svg" viewBox="0 0 512 512"><path d="M176,464c-10.47,0-19.76-5.03-25.6-12.8-4.02-5.35-6.4-12-6.4-19.2,0-6.73,2.08-12.98,5.64-18.13,5.77-8.37,15.42-13.87,26.36-13.87s20.59,5.49,26.36,13.87c3.55,5.15,5.64,11.4,5.64,18.13,0,7.2-2.38,13.85-6.4,19.2-5.84,7.77-15.13,12.8-25.6,12.8Z"/><path d="M432,448h-192c-8.84,0-16-7.16-16-16s7.16-16,16-16h192c8.84,0,16,7.16,16,16s-7.16,16-16,16Z"/><path d="M112,448h-32c-8.84,0-16-7.16-16-16s7.16-16,16-16h32c8.84,0,16,7.16,16,16s-7.16,16-16,16Z"/><path d="M207.12,288c-2.78,0-5.56-.72-8.04-2.17-4.93-2.86-7.96-8.13-7.96-13.83v-128c0-5.7,3.03-10.97,7.96-13.83,4.92-2.87,11-2.89,15.95-.08l112.54,64c5,2.84,8.09,8.15,8.09,13.91s-3.09,11.06-8.09,13.91l-112.54,64c-2.45,1.4-5.18,2.09-7.91,2.09ZM223.12,171.51v72.99l64.17-36.49-64.17-36.49Z"/><path d="M400,352H112c-26.47,0-48-21.53-48-48V112c0-26.47,21.53-48,48-48h288c26.47,0,48,21.53,48,48v192c0,26.47-21.53,48-48,48ZM112,96c-8.82,0-16,7.18-16,16v192c0,8.82,7.18,16,16,16h288c8.82,0,16-7.18,16-16V112c0-8.82-7.18-16-16-16H112Z"/></svg>