<?xml version="1.0" encoding="UTF-8"?><svg id="Icon" xmlns="http://www.w3.org/2000/svg" viewBox="0 0 512 512"><path d="M98.92,234.15c-12.09,0-21.85,9.76-21.85,21.85s9.76,21.85,21.85,21.85,21.85-9.76,21.85-21.85-9.76-21.85-21.85-21.85Z"/><path d="M133.26,133.26c-8.53,8.58-8.53,22.35,0,30.95,8.58,8.53,22.36,8.53,30.95,0,8.53-8.59,8.53-22.37,0-30.95-8.59-8.53-22.37-8.53-30.95,0Z"/><path d="M256,120.77c12.09,0,21.85-9.76,21.85-21.85s-9.76-21.85-21.85-21.85-21.85,9.76-21.85,21.85,9.76,21.85,21.85,21.85Z"/><path d="M347.79,132.31c-8.53,8.59-8.53,22.36,0,30.95,8.59,8.53,22.37,8.53,30.95,0,8.53-8.59,8.53-22.36,0-30.95-8.58-8.53-22.36-8.53-30.95,0Z"/><path d="M413.08,234.15c-12.09,0-21.85,9.76-21.85,21.85s9.76,21.85,21.85,21.85,21.85-9.76,21.85-21.85-9.76-21.85-21.85-21.85Z"/><path d="M414.39,97.61c-42.31-42.31-98.56-65.61-158.39-65.61s-116.08,23.3-158.39,65.61-65.61,98.56-65.61,158.39,23.3,116.08,65.61,158.39c42.31,42.31,98.56,65.61,158.39,65.61s116.08-23.3,158.39-65.61c42.31-42.31,65.61-98.56,65.61-158.39s-23.3-116.08-65.61-158.39ZM256,448c-105.87,0-192-86.13-192-192s86.13-192,192-192,192,86.13,192,192-86.13,192-192,192Z"/><path d="M256,219.02c-4.3,0-8.42.74-12.26,2.09l-45.76-45.76c-6.25-6.25-16.38-6.25-22.63,0-6.25,6.25-6.25,16.38,0,22.63l45.76,45.76c-1.35,3.84-2.09,7.96-2.09,12.26,0,20.42,16.56,36.98,36.98,36.98s36.98-16.56,36.98-36.98-16.56-36.98-36.98-36.98Z"/></svg>