<?xml version="1.0" encoding="UTF-8"?><svg id="Icon" xmlns="http://www.w3.org/2000/svg" viewBox="0 0 512 512"><path d="M307.54,76.62c-8.81-.71-16.52,5.85-17.24,14.66-.71,8.81,5.85,16.52,14.66,17.24,26.86,2.17,51.4,26.69,53.6,53.53,0,.03,0,.09,0,.11.7,8.35,7.69,14.64,15.92,14.64.44,0,.89-.02,1.34-.06,8.8-.73,15.35-8.48,14.63-17.29-1.69-20.63-11.2-40.56-26.77-56.12-15.57-15.56-35.51-25.05-56.15-26.71Z"/><path d="M304.47,63.98c51.65,2.7,95.86,46.91,98.55,98.55.45,8.54,7.51,15.17,15.96,15.17.28,0,.56,0,.85-.02,8.82-.46,15.6-7.99,15.14-16.81-1.71-32.82-16.02-64.27-40.3-88.54s-55.72-38.59-88.54-40.3c-8.82-.46-16.35,6.32-16.81,15.14-.46,8.82,6.32,16.35,15.14,16.81Z"/><path d="M464,288h-94.45c-.51-.05-1.03-.08-1.55-.08s-1.04.03-1.55.08h-94.45v-64h48c8.84,0,16-7.16,16-16v-64c0-8.84-7.16-16-16-16h-128c-8.84,0-16,7.16-16,16v64c0,8.84,7.16,16,16,16h48v64H48c-8.84,0-16,7.16-16,16s7.16,16,16,16h80.14v64h-48.14c-8.84,0-16,7.16-16,16v64c0,8.84,7.16,16,16,16h128c8.84,0,16-7.16,16-16v-64c0-8.84-7.16-16-16-16h-47.86v-64h191.86v64h-48c-8.84,0-16,7.16-16,16v64c0,8.84,7.16,16,16,16h128c8.84,0,16-7.16,16-16v-64c0-8.84-7.16-16-16-16h-48v-64h80c8.84,0,16-7.16,16-16s-7.16-16-16-16ZM208,160h96v32h-96v-32ZM192,448h-96v-32h96v32ZM416,448h-96v-32h96v32Z"/></svg>