<?xml version="1.0" encoding="UTF-8"?><svg id="Icon" xmlns="http://www.w3.org/2000/svg" viewBox="0 0 512 512"><path d="M392.89,64H119.11c-30.39,0-55.11,24.72-55.11,55.11v273.78c0,30.39,24.72,55.11,55.11,55.11h273.78c30.39,0,55.11-24.72,55.11-55.11V119.11c0-30.39-24.72-55.11-55.11-55.11ZM416,392.89c0,12.74-10.37,23.11-23.11,23.11H119.11c-12.74,0-23.11-10.37-23.11-23.11V119.11c0-12.74,10.37-23.11,23.11-23.11h273.78c12.74,0,23.11,10.37,23.11,23.11v273.78Z"/><path d="M377.85,132.05h-243.69c-8.84,0-16,7.16-16,16v141.08c0,8.84,7.16,16,16,16h20.34v19.66c0,8.84,7.16,16,16,16h22.48v23.16c0,8.84,7.16,16,16,16h94.06c8.84,0,16-7.16,16-16v-22.06h22.48c8.84,0,16-7.16,16-16v-20.76h20.34c8.84,0,16-7.16,16-16v-141.08c0-8.84-7.16-16-16-16ZM361.85,273.13h-20.34c-8.84,0-16,7.16-16,16v20.76h-22.48c-8.84,0-16,7.16-16,16v22.06h-62.06v-23.16c0-8.84-7.16-16-16-16h-22.48v-19.66c0-8.84-7.16-16-16-16h-20.34v-109.08h17.64v18.66c0,8.84,7.16,16,16,16s16-7.16,16-16v-18.66h16.14v18.66c0,8.84,7.16,16,16,16s16-7.16,16-16v-18.66h16.14v18.66c0,8.84,7.16,16,16,16s16-7.16,16-16v-18.66h16.14v18.66c0,8.84,7.16,16,16,16s16-7.16,16-16v-18.66h17.64v109.08Z"/></svg>