<?xml version="1.0" encoding="UTF-8"?><svg id="Icon" xmlns="http://www.w3.org/2000/svg" viewBox="0 0 512 512"><path d="M464,240h-94.45c-.51-.05-1.03-.08-1.55-.08s-1.04.03-1.55.08h-94.45v-64h48c8.84,0,16-7.16,16-16v-64c0-8.84-7.16-16-16-16h-128c-8.84,0-16,7.16-16,16v64c0,8.84,7.16,16,16,16h48v64H48c-8.84,0-16,7.16-16,16s7.16,16,16,16h80.14v64h-48.14c-8.84,0-16,7.16-16,16v64c0,8.84,7.16,16,16,16h128c8.84,0,16-7.16,16-16v-64c0-8.84-7.16-16-16-16h-47.86v-64h191.86v64h-48c-8.84,0-16,7.16-16,16v64c0,8.84,7.16,16,16,16h128c8.84,0,16-7.16,16-16v-64c0-8.84-7.16-16-16-16h-48v-64h80c8.84,0,16-7.16,16-16s-7.16-16-16-16ZM208,112h96v32h-96v-32ZM192,400h-96v-32h96v32ZM416,400h-96v-32h96v32Z"/></svg>