<?xml version="1.0" encoding="UTF-8"?><svg id="Icon" xmlns="http://www.w3.org/2000/svg" viewBox="0 0 512 512"><path d="M165.19,309.34h.02c3.48,0,6.51-1.9,8.55-4.65,2.06-2.76,3.26-6.41,3.26-10.41v-.06c-.01-4-1.21-7.66-3.27-10.41-2.04-2.74-5.08-4.63-8.56-4.63-.03,0-.05,0-.08,0-3.45.03-6.46,1.92-8.49,4.65-2.06,2.76-3.26,6.41-3.26,10.41v.06c0,4,1.21,7.65,3.27,10.41,2.04,2.74,5.08,4.63,8.56,4.63ZM161.4,287.42c.78-1.02,2.07-2.25,3.79-2.26h.12c1.63.03,2.9,1.24,3.66,2.25,1.32,1.74,2.07,4.23,2.07,6.82,0,2.64-.75,5.13-2.07,6.88-.77,1.03-2.06,2.25-3.79,2.26h0c-1.72,0-3.01-1.23-3.79-2.25-1.32-1.75-2.07-4.23-2.07-6.82v-.13c0-2.56.76-5.03,2.06-6.76Z"/><path d="M97.88,303.87h33.18l-.15-1.84-1.77-22.04-.12-1.54-1.55-.03-1.93-.04c-1.27-.03-1.9-.37-2.35-.7-.81-.59-1.48-1.78-1.91-3.34-.5-1.82-.57-3.78-.57-4.78,0-.59.02-1.08.05-1.42.02-.26.03-.41.04-.44l.03-.24.02-.19-.02-.19-.03-.24c-.01-.18-.02-.35-.02-.56,0-.67.07-2.43.77-4.25.78-2.01,2.03-3.55,3.82-4.69l.92-.57.73-.46.06-.86,1.46-20.73c3.21-7.25,8.95-12.48,17.06-15.56,3.32-1.25,6.37-1.86,8.35-2.15,1.1-.16,1.98-.24,2.54-.28.41-.03.66-.04.77-.04h.26s.19,0,.19,0l.18-.04.23-.05.15-.03c.45-.08,1.7-.28,3.49-.28,3.54,0,8.83.77,13.94,4.41,6.25,4.47,10.76,12.13,13.41,22.79.04,1.64.51,3.31,1.39,5h-52.8v7.68h47.32c0,.43.01.85.01,1.29,0,13.35-1.25,27.97-3.26,38.22-3.25,7.62-6.7,12.58-10.82,15.57-4,2.9-8.86,4.2-15.78,4.21-.46,0-.93,0-1.4-.02l-1.71-.04-.04,1.7-.1,4.27-.04,1.7,1.7.04c.53.01,1.06.02,1.58.02,8.57,0,14.99-1.8,20.3-5.68,4.62-3.37,8.38-8.26,11.8-15.35h36.37c4.6,9.33,11.45,22.14,15.99,28.56,2.07,2.94,2.06,5.85,3.44,9.65-10.16-1.83-22.21-3.73-30.67-4.21-1.31-.07-2.4-.15-3.34-.21-1.42-.1-2.54-.18-3.55-.18h-.24c-1.9,0-3.74.53-5.3,1.55-.7.44-1.44.96-2.37,1.62-.88.63-1.98,1.4-3.41,2.36-14.02,9.38-36.65,29.47-46.85,38.74,1.51,1.32,3.04,2.62,4.6,3.89.34-.31-.23.29.15-.04,10.26-9.29,32.56-29.04,45.43-37.62,3-2.01,4.63-3.28,5.63-3.88,1.02-.58,1.08-.6,2.37-.64,1.17,0,3.17.19,6.55.38,7.87.44,19.56,2.28,29.22,4,1.94.35,3.8.69,5.53,1.01,2.08,2.77,5.12,5.95,9.75,9.73,11.64,9.48,44.2,16.3,59.7,9.66,14.34-6.14,33.61-29.55,37.5-39.63,3.73-12.3,5.83-32.73,13.29-49.5,3.3-7.43,24.43-61.42,24.43-61.42,4.6-13.16-12.44-20.06-18.27-10.47l-17.5,44.21c-1.73,5.39-8.53,5.65-5.83-2.33l10.88-82.22c1.94-11.64-21.1-18.93-25.66-3.49l-8.56,75.24c-1.27,5.11-9.48,5.83-7.38-3.88l8.94-85.71c.81-13.08-21.02-19.79-26.05-3.1l-8.17,82.22c-.5,7.2-7.82,7.16-7-1.55l3.5-62.44c.43-15.57-22.76-19.95-24.89-.39l-8.55,116.35c.31,11.05-5.38,12.52-8.55,5.43l-16.33-22.11c-5.73-7.37-11.2-11.78-22.55-10.86-6.21.54-15.09,6.71-8.94,16.68,2.96,4.91,14,18.43,19.05,25.99.31.75.71,1.64,1.17,2.65h-33.04c1.97-10.39,3.24-24.91,3.24-38.68,0-1.01-.02-1.99-.04-2.99h8.76v-5.91l-1.58-.42c-.57-.12-1.46-.85-2.09-1.92-.65-1.02-1.01-2.34-.98-2.84,0-.04,0-.07,0-.11l.03-.35-.08-.34c-3.34-13.95-9.42-22.15-15.87-26.73-6.44-4.59-13.09-5.52-17.41-5.52-2.44,0-4.16.29-4.76.41-1.2.04-6.86.35-13.5,2.85-7.38,2.77-16.1,8.39-20.7,19.41l-.14.32-1.38,19.62c-2.77,2.02-4.41,4.62-5.3,6.99-1,2.63-1.16,5.01-1.16,6.38,0,.43.02.76.03.97-.04.38-.1,1.21-.1,2.31.01,2.24.23,5.61,1.62,8.72.7,1.55,1.74,3.06,3.26,4.2,1.07.81,2.38,1.39,3.86,1.68l1.1,13.74h-28.48l1.78,5.97Z"/><path d="M256,64c-105.87,0-192,86.13-192,192s86.13,192,192,192,192-86.13,192-192-86.13-192-192-192ZM382.99,363.15l-17.93-17.93-19.84,19.83,17.93,17.94c-28.93,24.44-66.31,39.17-107.14,39.17-91.76,0-166.15-74.39-166.15-166.15,0-41.27,15.06-79.03,39.97-108.08l110.54,110.54v-37.15l-91.92-91.92c28.99-24.65,66.54-39.53,107.57-39.53,91.76,0,166.15,74.39,166.15,166.15,0,40.83-14.74,78.21-39.17,107.15Z"/></svg>