<?xml version="1.0" encoding="UTF-8"?><svg id="Icon" xmlns="http://www.w3.org/2000/svg" viewBox="0 0 512 512"><path d="M112,448h48c8.84,0,16-7.16,16-16s-7.16-16-16-16h-48c-8.82,0-16-7.18-16-16V112c0-8.82,7.18-16,16-16h48v16c0,8.84,7.16,16,16,16s16-7.16,16-16v-16h48v16c0,8.84,7.16,16,16,16s16-7.16,16-16v-16h48v16c0,8.84,7.16,16,16,16s16-7.16,16-16v-16h48c8.82,0,16,7.18,16,16v47.85c0,8.84,7.16,16,16,16s16-7.16,16-16v-47.85c0-26.47-21.53-48-48-48h-48v-16c0-8.84-7.16-16-16-16s-16,7.16-16,16v16h-48v-16c0-8.84-7.16-16-16-16s-16,7.16-16,16v16h-48v-16c0-8.84-7.16-16-16-16s-16,7.16-16,16v16h-48c-26.47,0-48,21.53-48,48v288c0,26.47,21.53,48,48,48Z"/><path d="M398.24,238.44l-152.23,152.23c-1.97,1.97-3.39,4.42-4.12,7.1l-16.91,62.02c-1.51,5.54.06,11.46,4.12,15.52,3.04,3.04,7.13,4.69,11.31,4.69,1.4,0,2.82-.19,4.21-.56l62.02-16.91c2.69-.73,5.13-2.15,7.1-4.12l152.23-152.23c18.67-18.67,18.67-49.06,0-67.73-18.67-18.67-49.06-18.67-67.73,0ZM443.35,283.55l-148.76,148.76c-2.38-4.32-5.8-9.44-10.49-14.08-3.79-3.75-7.78-6.73-11.36-9.02l148.13-148.13c3-3,6.99-4.65,11.24-4.65s8.24,1.65,11.24,4.65c6.2,6.2,6.2,16.28,0,22.48Z"/></svg>