<?xml version="1.0" encoding="UTF-8"?><svg id="Icon" xmlns="http://www.w3.org/2000/svg" viewBox="0 0 512 512"><path d="M368,160c8.84,0,16-7.16,16-16s-7.16-16-16-16h-160c-8.84,0-16,7.16-16,16s7.16,16,16,16h160Z"/><path d="M59.31,36.69c-6.25-6.25-16.38-6.25-22.63,0-6.25,6.25-6.25,16.38,0,22.63l32.01,32.01c-3,6.27-4.69,13.28-4.69,20.68v320c0,6.51,3.94,12.37,9.97,14.82,1.95.79,4,1.18,6.03,1.18,4.23,0,8.39-1.68,11.46-4.83l73.29-75.17h180.63l43.31,43.31c3.12,3.12,7.22,4.69,11.31,4.69s8.19-1.56,11.31-4.69c6.25-6.25,6.25-16.38,0-22.63L59.31,36.69ZM158,336c-4.31,0-8.44,1.74-11.46,4.83l-50.54,51.84V118.63l217.37,217.37h-155.37Z"/><path d="M400,64H131.63l32,32h236.37c8.82,0,16,7.18,16,16v208c0,7.7-5.46,14.14-12.72,15.66l23.88,23.88c12.57-8.66,20.83-23.15,20.83-39.54V112c0-26.47-21.53-48-48-48Z"/></svg>