<?xml version="1.0" encoding="UTF-8"?><svg id="Icon" xmlns="http://www.w3.org/2000/svg" viewBox="0 0 512 512"><path d="M80,448c-2.03,0-4.07-.39-6.03-1.18-6.03-2.45-9.97-8.31-9.97-14.82V112c0-26.47,21.53-48,48-48h288c26.47,0,48,21.53,48,48v208c0,26.47-21.53,48-48,48h-235.25l-73.29,75.17c-3.07,3.15-7.23,4.83-11.46,4.83ZM112,96c-8.82,0-16,7.18-16,16v280.67l50.54-51.84c3.01-3.09,7.14-4.83,11.46-4.83h242c8.82,0,16-7.18,16-16V112c0-8.82-7.18-16-16-16H112Z"/><path d="M368,160h-224c-8.84,0-16-7.16-16-16s7.16-16,16-16h224c8.84,0,16,7.16,16,16s-7.16,16-16,16Z"/><path d="M272,223.88h-128c-8.84,0-16-7.16-16-16s7.16-16,16-16h128c8.84,0,16,7.16,16,16s-7.16,16-16,16Z"/></svg>