<?xml version="1.0" encoding="UTF-8"?><svg id="Icon" xmlns="http://www.w3.org/2000/svg" viewBox="0 0 512 512"><path d="M400,64H112c-26.47,0-48,21.53-48,48v320c0,6.51,3.94,12.37,9.97,14.82,1.95.79,4,1.18,6.03,1.18,4.23,0,8.39-1.68,11.46-4.83l73.29-75.17h235.25c26.47,0,48-21.53,48-48V112c0-26.47-21.53-48-48-48ZM272,223.88h-128c-8.84,0-16-7.16-16-16s7.16-16,16-16h128c8.84,0,16,7.16,16,16s-7.16,16-16,16ZM368,160h-224c-8.84,0-16-7.16-16-16s7.16-16,16-16h224c8.84,0,16,7.16,16,16s-7.16,16-16,16Z"/></svg>