<?xml version="1.0" encoding="UTF-8"?><svg id="Icon" xmlns="http://www.w3.org/2000/svg" viewBox="0 0 512 512"><path d="M448,144h-96c-17.65,0-32,14.36-32,32h-128c0-17.64-14.35-32-32-32h-96c-17.65,0-32,14.36-32,32v32c0,17.64,14.35,32,32,32h96c17.65,0,32-14.36,32-32h21.96c12.79,0,23.19,11.08,23.19,24.7v55.27c0,26.47,21.53,48,48,48h34.85v.03c0,17.64,14.35,32,32,32h96c17.65,0,32-14.36,32-32v-32c0-17.64-14.35-32-32-32h-96c-17.63,0-31.98,14.34-32,31.97h-34.85c-8.82,0-16-7.18-16-16v-55.27c0-8.85-1.99-17.23-5.52-24.7h56.37c0,17.64,14.35,32,32,32h96c17.65,0,32-14.36,32-32v-32c0-17.64-14.35-32-32-32Z"/></svg>