<?xml version="1.0" encoding="UTF-8"?><svg id="Icon" xmlns="http://www.w3.org/2000/svg" viewBox="0 0 512 512"><path d="M256,126c-22.73,0-41.22,18.49-41.22,41.22s18.49,41.22,41.22,41.22,41.22-18.49,41.22-41.22-18.49-41.22-41.22-41.22ZM256,176.44c-5.08,0-9.22-4.14-9.22-9.22s4.14-9.22,9.22-9.22,9.22,4.14,9.22,9.22-4.14,9.22-9.22,9.22Z"/><path d="M425.25,167.91l-150.54-123.19c-10.81-8.83-26.53-8.84-37.4,0l-150.57,123.18c-14.45,11.83-22.74,29.33-22.74,48.01v184.08c0,26.47,21.53,48,48,48h288c26.47,0,48-21.53,48-48v-184.08c0-18.68-8.29-36.17-22.75-48.01ZM239.82,416v-71.69c0-9.78-6.16-18.66-15.34-22.11l-.19-.07c-2.72-.98-4.54-3.52-4.54-6.32v-62.75c0-3.75,3.05-6.8,6.8-6.8h58.92c3.75,0,6.8,3.05,6.8,6.8v62.75c0,2.78-1.83,5.39-4.55,6.39-9.17,3.44-15.34,12.32-15.34,22.11v71.69h-32.55ZM416,400c0,8.82-7.18,16-16,16h-95.63v-66.34c12.1-6.78,19.89-19.72,19.89-33.85v-62.75c0-21.39-17.41-38.8-38.8-38.8h-58.92c-21.39,0-38.8,17.41-38.8,38.8v62.75c0,14.18,7.86,27.13,20.07,33.88v66.31h-95.82c-8.82,0-16-7.18-16-16v-184.08c0-9.04,4.02-17.52,11.01-23.25l149.01-121.9,148.97,121.9c7,5.73,11.01,14.21,11.01,23.25v184.08Z"/></svg>