<?xml version="1.0" encoding="UTF-8"?><svg id="Icon" xmlns="http://www.w3.org/2000/svg" viewBox="0 0 512 512"><path d="M216,194c0,22.06,17.94,40,40,40s40-17.94,40-40-17.94-40-40-40-40,17.94-40,40ZM264,194c0,4.41-3.59,8-8,8s-8-3.59-8-8,3.59-8,8-8,8,3.59,8,8Z"/><path d="M243.03,59.87h25.93c13.26,0,24.01-10.75,24.01-24.01v-3.72h-73.96v3.72c0,13.26,10.75,24.01,24.01,24.01Z"/><path d="M256,136.45c30.29,0,58.76-11.79,80.18-33.21,6.25-6.25,6.25-16.38,0-22.63-6.25-6.25-16.38-6.25-22.63,0-15.37,15.37-35.81,23.84-57.55,23.84s-42.18-8.47-57.55-23.84c-6.25-6.25-16.38-6.25-22.63,0-6.25,6.25-6.25,16.38,0,22.63,21.42,21.42,49.89,33.21,80.18,33.21Z"/><path d="M319.48,213.96c2.63,6,8.5,9.58,14.66,9.58,2.14,0,4.33-.43,6.42-1.35,24.1-10.57,45.8-25.4,64.48-44.08,6.25-6.25,6.25-16.38,0-22.63-6.25-6.25-16.38-6.25-22.63,0-15.86,15.86-34.26,28.44-54.7,37.4-8.09,3.55-11.78,12.99-8.23,21.08Z"/><path d="M473.91,228.34c-6.25-6.25-16.38-6.25-22.63,0-27.24,27.24-59.15,48.12-94.84,62.06-8.23,3.21-12.3,12.49-9.08,20.72,2.47,6.32,8.51,10.18,14.91,10.18,1.94,0,3.91-.35,5.82-1.1,39.84-15.56,75.44-38.86,105.83-69.24,6.25-6.25,6.25-16.38,0-22.63Z"/><path d="M91.31,90.69c-6.25-6.25-16.38-6.25-22.63,0-6.25,6.25-6.25,16.38,0,22.63l137.86,137.86c-10.44,6.82-17.35,18.6-17.35,31.97v64.83c0,13.86,7.63,26.52,19.51,33.2v68.19c0,16.89,13.74,30.64,30.64,30.64h33.49c16.89,0,30.64-13.74,30.64-30.64v-68.22c6.99-3.98,12.48-10.07,15.8-17.24l81.42,81.42c3.12,3.12,7.22,4.69,11.31,4.69s8.19-1.56,11.31-4.69c6.25-6.25,6.25-16.38,0-22.63L91.31,90.69ZM290.8,347.97c0,2.52-1.66,4.89-4.04,5.76l-.09.04c-9.09,3.41-15.2,12.21-15.2,21.91v72.32h-30.76v-72.32c0-9.69-6.11-18.5-15.2-21.91l-.19-.07c-2.47-.89-4.12-3.19-4.12-5.73v-64.83c0-3.4,2.77-6.17,6.17-6.17h4.99l58.46,58.46v12.54Z"/></svg>