<?xml version="1.0" encoding="UTF-8"?><svg id="Icon" xmlns="http://www.w3.org/2000/svg" viewBox="0 0 512 512"><path d="M256,234c-22.06,0-40-17.94-40-40s17.94-40,40-40,40,17.94,40,40-17.94,40-40,40ZM256,186c-4.41,0-8,3.59-8,8s3.59,8,8,8,8-3.59,8-8-3.59-8-8-8Z"/><path d="M272.83,480h-33.49c-16.89,0-30.64-13.74-30.64-30.64v-68.19c-11.88-6.68-19.51-19.34-19.51-33.2v-64.83c0-21.04,17.12-38.17,38.17-38.17h57.28c21.04,0,38.17,17.12,38.17,38.17v64.83c0,13.81-7.56,26.47-19.33,33.17v68.22c0,16.89-13.74,30.64-30.64,30.64ZM240.71,448h30.76v-72.32c0-9.69,6.11-18.5,15.2-21.91l.09-.04c2.38-.88,4.04-3.25,4.04-5.76v-64.83c0-3.4-2.77-6.17-6.17-6.17h-57.28c-3.4,0-6.17,2.77-6.17,6.17v64.83c0,2.54,1.66,4.84,4.12,5.73l.19.07c9.09,3.41,15.2,12.21,15.2,21.91v72.32Z"/><path d="M219.02,32.13h73.96v3.72c0,13.25-10.76,24.01-24.01,24.01h-25.93c-13.25,0-24.01-10.76-24.01-24.01v-3.72h0Z"/><path d="M256,136.45c-30.29,0-58.76-11.79-80.18-33.21-6.25-6.25-6.25-16.38,0-22.63,6.25-6.25,16.38-6.25,22.63,0,15.37,15.37,35.81,23.84,57.55,23.84s42.18-8.47,57.55-23.84c6.25-6.25,16.38-6.25,22.63,0,6.25,6.25,6.25,16.38,0,22.63-21.42,21.42-49.89,33.21-80.18,33.21Z"/><path d="M178.5,223.82c-2.13,0-4.29-.43-6.36-1.33-24.38-10.58-46.31-25.52-65.18-44.39-6.25-6.25-6.25-16.38,0-22.63,6.25-6.25,16.38-6.25,22.63,0,16.01,16.01,34.62,28.69,55.29,37.66,8.11,3.52,11.82,12.94,8.31,21.05-2.62,6.03-8.5,9.63-14.68,9.63Z"/><path d="M334.14,223.54c-6.16,0-12.03-3.58-14.66-9.58-3.55-8.09.14-17.53,8.23-21.08,20.44-8.96,38.85-21.55,54.7-37.4,6.25-6.25,16.38-6.25,22.63,0,6.25,6.25,6.25,16.38,0,22.63-18.68,18.68-40.38,33.52-64.48,44.08-2.09.92-4.27,1.35-6.42,1.35Z"/><path d="M149.2,321.1c-1.95,0-3.92-.36-5.85-1.11-39.61-15.56-75.03-38.78-105.26-69.02-6.25-6.25-6.25-16.38,0-22.63,6.25-6.25,16.38-6.25,22.63,0,27.1,27.1,58.84,47.92,94.34,61.86,8.22,3.23,12.27,12.52,9.04,20.74-2.48,6.3-8.51,10.15-14.9,10.15Z"/><path d="M362.26,321.31c-6.4,0-12.44-3.86-14.91-10.18-3.21-8.23.85-17.51,9.08-20.72,35.69-13.94,67.6-34.82,94.84-62.06,6.25-6.25,16.38-6.25,22.63,0,6.25,6.25,6.25,16.38,0,22.63-30.38,30.38-65.99,53.68-105.83,69.24-1.91.75-3.88,1.1-5.82,1.1Z"/></svg>