<?xml version="1.0" encoding="UTF-8"?><svg id="Icon" xmlns="http://www.w3.org/2000/svg" viewBox="0 0 512 512"><path d="M256.96,153.62c27,0,46.1,11.89,57.3,35.66,7.21,15.54,10.82,37.46,10.82,65.76,0,31.35-4.49,54.99-13.46,70.89-11.56,20.44-30.1,30.66-55.63,30.66-27.66,0-47.08-11.88-58.27-35.65-7.21-15.54-10.82-37.55-10.82-66.04,0-31.26,4.48-54.85,13.46-70.75,11.56-20.35,30.43-30.52,56.6-30.52ZM255.58,181.37c-12.67,0-21.87,7.54-27.61,22.61-4.26,11.29-6.38,28.35-6.38,51.19,0,24.88,2.64,43.06,7.91,54.52,5.92,12.76,14.75,19.15,26.5,19.15,12.85,0,22.15-7.58,27.89-22.75,4.35-11.28,6.52-28.35,6.52-51.19,0-24.79-2.64-42.91-7.91-54.38-5.83-12.76-14.8-19.15-26.91-19.15Z"/><path d="M256,480c-59.83,0-116.08-23.3-158.39-65.61-42.31-42.31-65.61-98.56-65.61-158.39s23.3-116.08,65.61-158.39S196.17,32,256,32s116.08,23.3,158.39,65.61c42.31,42.31,65.61,98.56,65.61,158.39s-23.3,116.08-65.61,158.39-98.56,65.61-158.39,65.61ZM256,64c-105.87,0-192,86.13-192,192s86.13,192,192,192,192-86.13,192-192-86.13-192-192-192Z"/><path d="M256,480c-59.83,0-116.08-23.3-158.39-65.61-42.31-42.31-65.61-98.56-65.61-158.39s23.3-116.08,65.61-158.39S196.17,32,256,32s116.08,23.3,158.39,65.61c42.31,42.31,65.61,98.56,65.61,158.39s-23.3,116.08-65.61,158.39-98.56,65.61-158.39,65.61ZM256,64c-105.87,0-192,86.13-192,192s86.13,192,192,192,192-86.13,192-192-86.13-192-192-192Z"/></svg>