<?xml version="1.0" encoding="UTF-8"?><svg id="Icon" xmlns="http://www.w3.org/2000/svg" viewBox="0 0 512 512"><path d="M448,176h-32c-26.51,0-48,21.49-48,48v32c-4.94-3.81-10.31-7.04-16-9.6V80c0-26.51-21.49-48-48-48h-96c-26.51,0-48,21.49-48,48v166.72c-5.67,2.46-11.04,5.58-16,9.28v-32c0-26.51-21.49-48-48-48h-32c-8.84,0-16,7.16-16,16s7.16,16,16,16h32c8.84,0,16,7.16,16,16v112c0,8.84,7.16,16,16,16h112v64h-32c-26.51,0-48,21.49-48,48,0,8.84,7.16,16,16,16s16-7.16,16-16,7.16-16,16-16h32v16c0,8.84,7.16,16,16,16s16-7.16,16-16v-16h32c8.84,0,16,7.16,16,16s7.16,16,16,16,16-7.16,16-16c0-26.51-21.49-48-48-48h-32v-64h112c8.84,0,16-7.16,16-16v-112c0-8.84,7.16-16,16-16h32c8.84,0,16-7.16,16-16s-7.16-16-16-16ZM192,80c0-8.84,7.16-16,16-16h96c8.84,0,16,7.16,16,16v160h-128V80ZM144,320c0-26.51,21.49-48,48-48h128c26.51,0,48,21.49,48,48h-224Z"/></svg>