<?xml version="1.0" encoding="UTF-8"?><svg id="Icon" xmlns="http://www.w3.org/2000/svg" viewBox="0 0 512 512"><path d="M446.48,373.53c-4.24-21.77-16.74-45.19-37.15-69.61-7.51-8.98-15.86-17.83-24.8-26.3-.18-.17-.35-.33-.53-.49V120.61c0-.06,0-.11,0-.17,0-.14,0-.29,0-.44,0-12.82-8-30.77-46.09-43.46-24.25-8.08-56.18-12.54-89.91-12.54s-65.66,4.45-89.91,12.54c-38.09,12.7-46.09,30.64-46.09,43.46,0,.17,0,.33,0,.5,0,.07,0,.13,0,.2v271.03c0,12.84,7.97,30.8,45.93,43.48,24.19,8.08,56.18,12.52,90.07,12.52,13.53,0,26.79-.71,39.48-2.1,16.49,20.92,42.04,34.37,70.68,34.37,23.53,0,45.78-9.03,62.66-25.42,16.84-16.35,26.52-38.26,27.25-61.69l.04-2.85c0-5.36-.55-10.92-1.64-16.51ZM306.99,303.92c-5.41,6.47-10.25,12.88-14.54,19.2-13.92,1.94-29.11,2.97-44.46,2.97-28.07,0-54.8-3.34-75.28-9.41-20.63-6.11-27.67-12.82-28.72-14.97v-52.34c4.13,1.9,8.74,3.74,13.93,5.47,24.19,8.08,56.18,12.52,90.07,12.52s65.88-4.45,90.07-12.52c5.19-1.73,9.81-3.57,13.93-5.47v13.39c-.14.04-.27.07-.41.11l-.35.11c-.25.08-.5.16-.74.24l-.25.09c-.4.15-.8.31-1.21.48l-.34.15c-.53.24-1.06.5-1.56.77l-.55.31c-.26.15-.51.3-.77.47-.56.35-1.1.72-1.61,1.11-.03.02-.06.05-.09.07l-.7.54c-.65.53-1.8,1.51-3.36,2.88-2.6,2.27-5.38,4.81-8.26,7.53-8.95,8.47-17.3,17.32-24.82,26.31ZM352,210.98c-1.05,2.15-8.09,8.85-28.72,14.97-20.48,6.07-47.21,9.41-75.28,9.41s-54.8-3.34-75.28-9.41c-20.63-6.11-27.67-12.82-28.72-14.97v-53.05c4.17,1.92,8.83,3.78,14.09,5.53,24.25,8.08,56.18,12.54,89.91,12.54s65.66-4.45,89.91-12.54c5.26-1.75,9.92-3.61,14.09-5.53v53.05ZM172.96,105.4c20.52-6.06,47.17-9.4,75.04-9.4s54.53,3.34,75.04,9.4c19.53,5.77,27,12.08,28.71,14.6-1.71,2.52-9.17,8.82-28.71,14.6-20.52,6.06-47.17,9.4-75.04,9.4s-54.53-3.34-75.04-9.4c-19.53-5.77-27-12.08-28.71-14.6,1.71-2.52,9.17-8.82,28.71-14.6ZM248,415.73c-28.07,0-54.8-3.34-75.28-9.41-20.62-6.11-27.67-12.82-28.72-14.97v-51.25c4.13,1.91,8.74,3.74,13.93,5.47,24.19,8.08,56.18,12.52,90.07,12.52,9.03,0,17.87-.33,26.48-.94-2.04,5.55-3.59,11.02-4.64,16.38-1.09,5.6-1.64,11.15-1.64,16.51,0,8.62,1.22,16.97,3.5,24.87-7.74.54-15.66.81-23.71.81ZM416.09,392.01c-.5,15.04-6.73,29.1-17.55,39.61-10.87,10.56-25.21,16.37-40.37,16.37-31.92,0-57.9-25.94-57.96-57.85v-.09s0,0,0,0h-.96s.96-.01.96-.01c0-3.31.35-6.81,1.05-10.4,1.78-9.14,5.74-18.96,11.82-29.36,2.93-2.28,5-5.52,5.82-9.17,3.69-5.42,7.89-10.98,12.65-16.67,6.72-8.04,14.21-15.97,22.27-23.6,1.49-1.41,2.94-2.76,4.35-4.03,1.4,1.27,2.86,2.62,4.36,4.04,8.05,7.62,15.54,15.55,22.25,23.58,16.91,20.23,27.1,38.81,30.29,55.21.69,3.54,1.04,7,1.05,10.28l-.03,2.08Z"/><path d="M363.51,406.03c-11.82-5.25-17.47-12.21-18.9-23.26-1.14-8.76-9.16-14.95-17.92-13.81-8.76,1.14-14.95,9.16-13.81,17.92,2.89,22.29,15.55,38.57,37.64,48.39,2.11.94,4.32,1.38,6.49,1.38,6.13,0,11.98-3.54,14.63-9.51,3.59-8.07-.05-17.53-8.12-21.12Z"/></svg>