<?xml version="1.0" encoding="UTF-8"?><svg id="Icon" xmlns="http://www.w3.org/2000/svg" viewBox="0 0 512 512"><path d="M176,240c8.84,0,16-7.16,16-16v-112c0-8.84-7.16-16-16-16s-16,7.16-16,16v112c0,8.84,7.16,16,16,16Z"/><path d="M256,175.5c8.84,0,16-7.16,16-16v-47.5c0-8.84-7.16-16-16-16s-16,7.16-16,16v47.5c0,8.84,7.16,16,16,16Z"/><path d="M336,240c8.84,0,16-7.16,16-16v-112c0-8.84-7.16-16-16-16s-16,7.16-16,16v112c0,8.84,7.16,16,16,16Z"/><path d="M159.5,304h.5v64c0,8.84,7.16,16,16,16s16-7.16,16-16v-64h.5c8.84,0,16-7.16,16-16s-7.16-16-16-16h-33c-8.84,0-16,7.16-16,16s7.16,16,16,16Z"/><path d="M224,240h16v128c0,8.84,7.16,16,16,16s16-7.16,16-16v-128h16c8.84,0,16-7.16,16-16s-7.16-16-16-16h-64c-8.84,0-16,7.16-16,16s7.16,16,16,16Z"/><path d="M319.5,304h.5v64c0,8.84,7.16,16,16,16s16-7.16,16-16v-64h.5c8.84,0,16-7.16,16-16s-7.16-16-16-16h-33c-8.84,0-16,7.16-16,16s7.16,16,16,16Z"/><path d="M96,431c0,26.47,21.53,48,48,48h224c26.47,0,48-21.53,48-48V81c0-26.47-21.53-48-48-48h-224c-26.47,0-48,21.53-48,48v350ZM128,81c0-8.82,7.18-16,16-16h224c8.82,0,16,7.18,16,16v350c0,8.82-7.18,16-16,16h-224c-8.82,0-16-7.18-16-16V81Z"/><circle cx="256" cy="416" r="16"/></svg>