<?xml version="1.0" encoding="UTF-8"?><svg id="Icon" xmlns="http://www.w3.org/2000/svg" viewBox="0 0 512 512"><path d="M254.79,174.36c-7.41,4.82-9.5,14.73-4.68,22.14l18.94,29.11c3.07,4.71,8.19,7.27,13.43,7.27,2.99,0,6.02-.84,8.71-2.59,3.75-2.44,6.13-6.19,6.95-10.25,2.83,2.39,6.46,3.79,10.31,3.79.95,0,1.91-.08,2.88-.26,4.18-.76,7.68-3.09,10.01-6.26,1.72,4.26,5.26,7.75,9.98,9.25,1.61.51,3.25.76,4.85.76,6.78,0,13.08-4.35,15.24-11.15l10.53-33.09c2.68-8.42-1.98-17.42-10.4-20.1-8.42-2.68-17.42,1.98-20.1,10.4l-8.26,25.97-5.18-28.54c-1.58-8.69-9.91-14.46-18.6-12.88-8.69,1.58-14.46,9.91-12.88,18.6l4.35,23.95-13.94-21.42c-4.82-7.41-14.73-9.5-22.14-4.68Z"/><path d="M360.84,318.68c3.13,0,6.3-.92,9.08-2.83,7.27-5.02,9.1-14.98,4.08-22.26l-19.73-28.58c-5.02-7.27-14.99-9.1-22.26-4.08-3.68,2.54-5.96,6.35-6.67,10.43-3.6-2.88-8.42-4.19-13.28-3.16-4.12.87-7.52,3.25-9.77,6.45-1.82-4.27-5.47-7.72-10.28-9.11-8.49-2.45-17.36,2.45-19.81,10.94l-9.62,33.37c-2.45,8.49,2.45,17.36,10.94,19.81,1.48.43,2.97.63,4.44.63,6.95,0,13.34-4.56,15.37-11.57l7.52-26.08,5.98,28.5c1.58,7.54,8.23,12.72,15.64,12.72,1.09,0,2.2-.11,3.3-.34,8.65-1.82,14.19-10.3,12.37-18.95l-5-23.83,14.52,21.04c3.1,4.5,8.1,6.91,13.18,6.91Z"/><path d="M412.17,388.87h-30.29v-11.16c0-8.84-7.16-16-16-16h-72.27c-8.84,0-16,7.16-16,16v11.16h-89.37c-32.89,0-59.66-26.76-59.66-59.66s26.76-59.66,59.66-59.66h54.29c8.84,0,16-7.16,16-16s-7.16-16-16-16h-54.29c-50.54,0-91.66,41.12-91.66,91.66s41.12,91.66,91.66,91.66h89.37v11.16c0,8.84,7.16,16,16,16h72.27c8.84,0,16-7.16,16-16v-11.16h30.29c8.84,0,16-7.16,16-16s-7.16-16-16-16ZM349.89,416.03h-40.27v-22.32h40.27v22.32Z"/><path d="M161.25,96.03h145.52c42.19,0,76.52,34.33,76.52,76.52,0,17.92-6.32,35.34-17.79,49.05-5.67,6.78-4.77,16.87,2.01,22.54,2.99,2.5,6.64,3.73,10.26,3.73,4.57,0,9.12-1.95,12.28-5.74,16.28-19.46,25.25-44.18,25.25-69.59,0-59.84-48.68-108.52-108.52-108.52h-145.52c-8.84,0-16,7.16-16,16s7.16,16,16,16Z"/></svg>