<?xml version="1.0" encoding="UTF-8"?><svg id="Icon" xmlns="http://www.w3.org/2000/svg" viewBox="0 0 512 512"><path d="M191.75,223.77c6.62,22.14,6.62,22.39,12.98,40.71l36.39,103.56h29.26l36.64-105.85c5.85-17.56,7.63-22.9,11.96-38.42v144.27h30.02v-176.08h-44.02l-38.93,111.7c-3.82,11.2-6.36,19.34-9.41,30.79-3.31-11.2-5.85-19.59-9.42-30.79l-39.44-111.7h-44.78v176.08h28.75v-144.27Z"/><path d="M112,448h288c26.47,0,48-21.53,48-48v-184.08c0-18.68-8.29-36.18-22.75-48.01l-150.54-123.19c-10.81-8.83-26.52-8.84-37.4,0l-150.57,123.18c-14.45,11.83-22.74,29.33-22.74,48.01v184.08c0,26.47,21.53,48,48,48ZM96,215.92c0-9.04,4.01-17.52,11.01-23.25l149.01-121.9,148.97,121.9c7,5.73,11.01,14.21,11.01,23.25v184.08c0,8.82-7.18,16-16,16H112c-8.82,0-16-7.18-16-16v-184.08Z"/></svg>