<?xml version="1.0" encoding="UTF-8"?><svg id="Icon" xmlns="http://www.w3.org/2000/svg" viewBox="0 0 512 512"><circle cx="256" cy="48" r="16"/><circle cx="109" cy="109" r="16"/><circle cx="403" cy="109" r="16"/><circle cx="48" cy="256" r="16"/><circle cx="464" cy="256" r="16"/><path d="M256,112c-79.4,0-144,64.6-144,144s64.6,144,144,144,144-64.6,144-144-64.6-144-144-144ZM256,368c-61.76,0-112-50.24-112-112,0-25.71,8.71-49.41,23.33-68.34l53.26,53.26c3.12,3.12,7.22,4.69,11.31,4.69s8.19-1.56,11.31-4.69c6.25-6.25,6.25-16.38,0-22.63l-52.93-52.93c18.47-13.43,41.18-21.36,65.71-21.36,61.76,0,112,50.24,112,112s-50.24,112-112,112Z"/></svg>