<?xml version="1.0" encoding="UTF-8"?><svg id="Icon" xmlns="http://www.w3.org/2000/svg" viewBox="0 0 512 512"><path d="M219.76,183.94c-5.14,2.8-8.33,8.19-8.33,14.04v117.55c0,5.85,3.2,11.24,8.33,14.04,2.39,1.31,5.03,1.96,7.67,1.96,3.02,0,6.02-.85,8.65-2.54l91.43-58.78c4.58-2.94,7.35-8.01,7.35-13.46s-2.77-10.51-7.35-13.46l-91.43-58.78c-4.92-3.16-11.18-3.39-16.32-.58ZM243.43,227.29l45.84,29.47-45.84,29.47v-58.94Z"/><path d="M399.6,363.32c-5.71-4.97-14.38-4.36-19.35,1.35-22.51,25.9-51.92,43.87-85.05,51.96-7.36,1.8-11.86,9.22-10.07,16.58,1.53,6.26,7.14,10.46,13.31,10.46,1.08,0,2.17-.13,3.27-.4,38.67-9.44,72.98-30.4,99.24-60.61,4.97-5.72,4.36-14.38-1.35-19.35Z"/><path d="M439.26,199.33c-2.26-7.23-9.96-11.25-17.19-8.99-7.23,2.26-11.25,9.96-8.99,17.19,4.97,15.87,7.49,32.43,7.49,49.23s-2.65,34.22-7.88,50.46c-2.32,7.21,1.64,14.94,8.85,17.26,1.4.45,2.81.66,4.2.66,5.8,0,11.18-3.7,13.05-9.52,6.1-18.96,9.2-38.77,9.2-58.86s-2.94-38.9-8.74-57.43Z"/><path d="M339.93,83.99c-7.01-3.4-15.44-.23-18.54,6.92-2.94,6.78.05,14.62,6.7,17.85,20.13,9.79,38.11,23.67,53,41.05,2.71,3.17,6.56,4.8,10.43,4.8,3.16,0,6.33-1.08,8.91-3.29,5.75-4.93,6.43-13.58,1.5-19.34-17.4-20.33-38.44-36.55-62-47.98Z"/><path d="M243.61,420.87c-41.3-3.07-79.65-21.5-108-51.91-28.49-30.55-44.18-70.4-44.18-112.21s15.79-81.92,44.47-112.51c27.55-29.4,64.44-47.51,104.28-51.3l-6.01,6.04c-6.23,6.26-6.21,16.39.05,22.63,3.12,3.11,7.2,4.66,11.29,4.66s8.21-1.57,11.34-4.71l28.47-28.6c6.23-6.26,6.21-16.39-.05-22.63l-28.6-28.47c-6.26-6.23-16.39-6.21-22.63.05-6.23,6.26-6.21,16.39.05,22.63l1.34,1.33c-45.68,4.87-87.91,25.86-119.55,59.63-33.46,35.7-51.88,82.32-51.88,131.27s18.31,95.26,51.55,130.91c33.07,35.47,77.83,56.97,126.03,60.55.35.03.69.04,1.03.04,7.11,0,13.13-5.49,13.66-12.7.56-7.55-5.11-14.13-12.66-14.69Z"/></svg>