<?xml version="1.0" encoding="UTF-8"?><svg id="Icon" xmlns="http://www.w3.org/2000/svg" viewBox="0 0 512 512"><path d="M294.86,302.47v-91.43c0-8.84-7.16-16-16-16s-16,7.16-16,16v91.43c0,8.84,7.16,16,16,16s16-7.16,16-16Z"/><path d="M233.14,195.04c-8.84,0-16,7.16-16,16v91.43c0,8.84,7.16,16,16,16s16-7.16,16-16v-91.43c0-8.84-7.16-16-16-16Z"/><path d="M216.8,416.63c-33.12-8.09-62.53-26.06-85.05-51.96-4.97-5.72-13.63-6.32-19.35-1.35-5.72,4.97-6.32,13.63-1.35,19.35,26.26,30.2,60.57,51.16,99.24,60.61,1.09.27,2.19.4,3.27.4,6.17,0,11.78-4.2,13.31-10.46,1.8-7.36-2.71-14.78-10.07-16.58Z"/><path d="M91.43,256.75c0-16.8,2.52-33.36,7.49-49.23,2.26-7.23-1.76-14.92-8.99-17.19-7.22-2.26-14.92,1.76-17.19,8.99-5.8,18.52-8.74,37.85-8.74,57.43s3.09,39.9,9.2,58.86c1.87,5.81,7.26,9.52,13.05,9.52,1.39,0,2.81-.21,4.2-.66,7.21-2.32,11.17-10.05,8.85-17.26-5.23-16.24-7.88-33.22-7.88-50.46Z"/><path d="M111.57,151.31c2.58,2.21,5.76,3.29,8.91,3.29,3.87,0,7.71-1.63,10.43-4.8,14.88-17.39,32.86-31.26,53-41.05,6.65-3.23,9.64-11.07,6.7-17.85-3.1-7.14-11.53-10.31-18.54-6.92-23.56,11.43-44.6,27.66-62,47.98-4.92,5.75-4.25,14.41,1.5,19.34Z"/><path d="M396.12,125.48c-31.64-33.76-73.87-54.76-119.55-59.63l1.34-1.33c6.26-6.23,6.29-16.36.05-22.63-6.23-6.26-16.36-6.29-22.63-.05l-28.6,28.47c-6.26,6.23-6.29,16.36-.05,22.63l28.47,28.6c3.13,3.14,7.23,4.71,11.34,4.71s8.17-1.55,11.29-4.66c6.26-6.23,6.29-16.36.05-22.63l-6.01-6.04c39.84,3.8,76.73,21.91,104.28,51.3,28.68,30.6,44.47,70.55,44.47,112.51s-15.69,81.65-44.18,112.21c-28.35,30.4-66.71,48.84-108,51.91-7.55.56-13.22,7.14-12.66,14.69.54,7.21,6.55,12.7,13.66,12.7.34,0,.69-.01,1.03-.04,48.2-3.58,92.96-25.09,126.03-60.55,33.24-35.65,51.55-82.14,51.55-130.91s-18.43-95.57-51.88-131.27Z"/></svg>