<?xml version="1.0" encoding="UTF-8"?><svg id="Icon" xmlns="http://www.w3.org/2000/svg" viewBox="0 0 512 512"><path d="M414.39,97.61c-42.31-42.31-98.56-65.61-158.39-65.61s-116.08,23.3-158.39,65.61-65.61,98.56-65.61,158.39,23.3,116.08,65.61,158.39,98.56,65.61,158.39,65.61,116.08-23.3,158.39-65.61,65.61-98.56,65.61-158.39-23.3-116.08-65.61-158.39ZM448,256c0,47.19-17.12,90.44-45.46,123.91L132.09,109.46c33.47-28.34,76.72-45.46,123.91-45.46,105.87,0,192,86.13,192,192ZM64,256c0-47.19,17.12-90.44,45.46-123.91l270.45,270.45c-33.47,28.34-76.72,45.46-123.91,45.46-105.87,0-192-86.13-192-192Z"/></svg>