<?xml version="1.0" encoding="UTF-8"?><svg id="Icon" xmlns="http://www.w3.org/2000/svg" viewBox="0 0 512 512"><path d="M243.2,298.96c4.09,0,8.19-1.56,11.31-4.69l15.55-15.55c6.25-6.25,6.25-16.38,0-22.63-6.25-6.25-16.38-6.25-22.63,0l-15.55,15.55c-6.25,6.25-6.25,16.38,0,22.63,3.12,3.12,7.22,4.69,11.31,4.69Z"/><path d="M294.69,286.1c0,8.84,7.16,16,16,16s16-7.16,16-16c0-46.23-37.61-83.84-83.84-83.84s-83.84,37.61-83.84,83.84c0,8.84,7.16,16,16,16s16-7.16,16-16c0-28.59,23.26-51.84,51.84-51.84s51.84,23.26,51.84,51.84Z"/><path d="M107.2,304h20.8c8.84,0,16-7.16,16-16s-7.16-16-16-16h-20.8c-6.18,0-11.2-5.06-11.2-11.28v-100.78c0-3.41,1.5-6.6,4.12-8.75l83.89-68.84,83.86,68.83c2.62,2.15,4.13,5.37,4.13,8.82v16c0,8.84,7.16,16,16,16s16-7.16,16-16v-16c0-13.07-5.77-25.29-15.82-33.55l-88.96-73.02c-8.79-7.2-21.57-7.21-30.42,0l-88.98,73.01c-10.05,8.26-15.82,20.46-15.82,33.48v100.78c0,23.87,19.38,43.28,43.2,43.28Z"/><path d="M440.09,329.5c-22.29-11.15-36.4-16.81-51.61-16.81-.41,0-.83,0-1.26.01-15.69.33-30.26,6.76-52.33,16.49-19.74,8.7-29.65,12.88-39.14,12.88s-19.4-4.18-39.14-12.88c-1.91-.84-3.94-1.27-6.01-1.27-5.91,0-11.28,3.49-13.68,8.91-3.31,7.53.11,16.36,7.64,19.68,21.71,9.57,35.99,15.38,51.18,15.38s29.47-5.81,51.18-15.38c21.11-9.31,31.71-13.98,41.76-13.98s19.47,4.38,38.06,13.68c2.09,1.04,4.33,1.57,6.66,1.57,5.7,0,10.82-3.16,13.37-8.25,3.67-7.36.68-16.35-6.68-20.03Z"/><path d="M440.09,374.3c-22.29-11.15-36.4-16.81-51.61-16.81-.41,0-.83,0-1.26.01-15.69.33-30.26,6.76-52.33,16.49-19.74,8.7-29.65,12.88-39.14,12.88s-19.4-4.18-39.14-12.88c-1.91-.84-3.94-1.27-6.01-1.27-5.91,0-11.28,3.49-13.68,8.91-3.31,7.53.11,16.36,7.64,19.68,21.71,9.57,35.99,15.38,51.18,15.38s29.47-5.81,51.18-15.38c21.11-9.31,31.71-13.98,41.76-13.98s19.47,4.38,38.06,13.68c2.09,1.04,4.33,1.57,6.66,1.57,5.7,0,10.82-3.16,13.37-8.25,3.67-7.36.68-16.35-6.68-20.03Z"/></svg>