<?xml version="1.0" encoding="UTF-8"?><svg id="Icon" xmlns="http://www.w3.org/2000/svg" viewBox="0 0 512 512"><path d="M107.2,304h153.6c23.82,0,43.2-19.42,43.2-43.28v-100.78c0-13.02-5.77-25.23-15.82-33.49l-88.96-73.02c-8.79-7.2-21.57-7.21-30.42,0l-88.98,73.01c-10.05,8.26-15.82,20.46-15.82,33.48v100.78c0,23.87,19.38,43.28,43.2,43.28ZM96,159.93c0-3.41,1.5-6.6,4.12-8.75l83.89-68.84,83.86,68.83c2.62,2.15,4.13,5.35,4.13,8.75v100.78c0,6.22-5.02,11.28-11.2,11.28H107.2c-6.18,0-11.2-5.06-11.2-11.28v-100.78Z"/><path d="M381.9,445.9c3.74.74,7.49,1.11,11.22,1.11,11.14,0,22.03-3.28,31.5-9.61,26.09-17.43,33.13-52.84,15.7-78.93-2.48-3.71-5.35-7.09-8.59-10.09v-94.66c0-21.35-17.37-38.73-38.73-38.73s-38.73,17.37-38.73,38.73v94.65c-8.75,8.09-14.72,18.7-17.09,30.61-2.97,14.91.05,30.08,8.5,42.72,8.44,12.64,21.31,21.23,36.21,24.2ZM368.57,385.23c1.3-6.52,5.06-12.15,10.59-15.85,4.44-2.97,7.11-7.96,7.11-13.3v-102.35c0-3.71,3.02-6.73,6.73-6.73s6.73,3.02,6.73,6.73v102.35c0,5.34,2.67,10.33,7.11,13.3,2.73,1.83,5.05,4.14,6.87,6.87,7.63,11.42,4.55,26.91-6.87,34.54-11.42,7.63-26.91,4.55-34.54-6.87-3.7-5.53-5.02-12.17-3.72-18.69Z"/></svg>