<?xml version="1.0" encoding="UTF-8"?><svg id="Icon" xmlns="http://www.w3.org/2000/svg" viewBox="0 0 512 512"><path d="M480.73,285.39v-94.66c0-21.35-17.37-38.73-38.73-38.73s-38.73,17.37-38.73,38.73v94.65c-8.75,8.09-14.72,18.7-17.09,30.61-2.97,14.91.05,30.08,8.5,42.72,8.44,12.64,21.3,21.23,36.21,24.2,3.74.74,7.49,1.11,11.22,1.11,11.14,0,22.03-3.28,31.5-9.61,26.09-17.43,33.13-52.84,15.7-78.93-2.48-3.71-5.35-7.09-8.59-10.09ZM455.84,347.8c-5.53,3.7-12.17,5.02-18.7,3.72-6.52-1.3-12.15-5.06-15.85-10.59-3.7-5.53-5.02-12.17-3.72-18.69,1.3-6.52,5.06-12.15,10.59-15.85,4.44-2.97,7.11-7.96,7.11-13.3v-102.35c0-3.71,3.02-6.73,6.73-6.73s6.73,3.02,6.73,6.73v102.35c0,5.34,2.67,10.33,7.11,13.3,2.73,1.83,5.05,4.14,6.87,6.87,7.63,11.42,4.55,26.91-6.87,34.54Z"/><path d="M298.34,416c29.59,0,53.66-24.07,53.66-53.66v-139.13c0-16.16-7.17-31.29-19.68-41.53l-123.17-100.79c-9.91-8.09-24.31-8.1-34.28,0l-123.2,100.79c-12.5,10.24-19.67,25.38-19.67,41.53v139.13c0,29.59,24.07,53.66,53.66,53.66h212.68Z"/></svg>