<?xml version="1.0" encoding="UTF-8"?><svg id="Icon" xmlns="http://www.w3.org/2000/svg" viewBox="0 0 512 512"><path d="M384,191.71H128c-8.84,0-16,7.16-16,16v160c0,8.84,7.16,16,16,16h256c8.84,0,16-7.16,16-16v-160c0-8.84-7.16-16-16-16ZM368,351.71h-224v-128h224v128Z"/><circle cx="136" cy="120" r="14"/><circle cx="216" cy="120" r="14"/><circle cx="296" cy="120" r="14"/><circle cx="376" cy="120" r="14"/><path d="M400,64c0-8.84-7.16-16-16-16h-80c-8.84,0-16,7.16-16,16h-64c0-8.84-7.16-16-16-16h-80c-8.84,0-16,7.16-16,16-26.47,0-48,21.53-48,48v288c0,26.47,21.53,48,48,48h288c26.47,0,48-21.53,48-48V112c0-26.47-21.53-48-48-48ZM112,96h288c8.82,0,16,7.18,16,16v32H96v-32c0-8.82,7.18-16,16-16ZM400,416H112c-8.82,0-16-7.18-16-16v-224h320v224c0,8.82-7.18,16-16,16Z"/></svg>