<?xml version="1.0" encoding="UTF-8"?><svg id="Icon" xmlns="http://www.w3.org/2000/svg" viewBox="0 0 512 512"><path d="M384,191.71H128c-8.84,0-16,7.16-16,16v160c0,8.84,7.16,16,16,16h256c8.84,0,16-7.16,16-16v-160c0-8.84-7.16-16-16-16ZM368,351.71h-224v-128h224v128Z"/><path d="M210.9,323.86c-1.88,3.17-.88,6.98,2.51,9.16l2.16,1.39c4.6,2.96,11.33,1.67,13.92-2.62,3.65-6.03,6.58-13.83,6.57-22.39,0-9.06-3.29-18.96-12.48-28.51-11.69-12.14-8.24-22.6-4.46-28.37,1.95-2.98,1.28-6.64-1.75-8.94l-2-1.52h0c-4.33-3.34-11.4-2.5-14.27,1.76-7.53,11.17-11.72,29.17,6.06,47.63,12.26,12.73,7.83,25.53,3.74,32.42Z"/><path d="M251.56,323.86c-1.88,3.17-.88,6.98,2.51,9.16l2.16,1.39c4.6,2.96,11.33,1.67,13.92-2.62,3.65-6.03,6.57-13.83,6.57-22.39,0-9.06-3.28-18.96-12.48-28.51-11.69-12.14-8.24-22.6-4.47-28.37,1.95-2.98,1.28-6.64-1.75-8.94l-2-1.52h0c-4.33-3.34-11.4-2.5-14.27,1.76-7.53,11.17-11.72,29.17,6.06,47.63,12.26,12.73,7.83,25.53,3.74,32.42Z"/><path d="M292.21,323.86c-1.88,3.17-.88,6.98,2.51,9.16l2.16,1.39c4.6,2.96,11.33,1.67,13.92-2.62,3.65-6.03,6.58-13.83,6.58-22.39,0-9.06-3.28-18.96-12.48-28.51-11.69-12.14-8.24-22.6-4.46-28.37,1.95-2.98,1.28-6.64-1.75-8.94l-2-1.52c-4.33-3.34-11.4-2.5-14.27,1.76-7.53,11.17-11.71,29.17,6.06,47.63,12.26,12.73,7.83,25.53,3.74,32.42Z"/><circle cx="136" cy="120" r="14"/><circle cx="216" cy="120" r="14"/><circle cx="296" cy="120" r="14"/><circle cx="376" cy="120" r="14"/><path d="M400,64c0-8.84-7.16-16-16-16h-80c-8.84,0-16,7.16-16,16h-64c0-8.84-7.16-16-16-16h-80c-8.84,0-16,7.16-16,16-26.47,0-48,21.53-48,48v288c0,26.47,21.53,48,48,48h288c26.47,0,48-21.53,48-48V112c0-26.47-21.53-48-48-48ZM112,96h288c8.82,0,16,7.18,16,16v32H96v-32c0-8.82,7.18-16,16-16ZM400,416H112c-8.82,0-16-7.18-16-16v-224h320v224c0,8.82-7.18,16-16,16Z"/></svg>