<?xml version="1.0" encoding="UTF-8"?><svg id="Icon" xmlns="http://www.w3.org/2000/svg" viewBox="0 0 512 512"><path d="M464,124.92c-49.87,0-77.3-10.83-91.52-19.91-10.79-6.89-15.52-13.61-17.28-16.73v-14.41c0-8.84-7.16-16-16-16s-16,7.16-16,16v11.73h-51.2v-11.73c0-8.84-7.16-16-16-16s-16,7.16-16,16v11.73h-51.2v-11.73c0-8.84-7.16-16-16-16s-16,7.16-16,16v14.41c-1.76,3.12-6.49,9.84-17.28,16.73-14.22,9.08-41.64,19.91-91.52,19.91-8.84,0-16,7.16-16,16s7.16,16,16,16c48.65,0,86.51-9.25,112.54-27.48,5.69-3.99,10.25-8.02,13.89-11.84h65.57v38.49h-51.2v-11.73c0-8.84-7.16-16-16-16s-16,7.16-16,16v27.73c0,8.84,7.16,16,16,16h67.2v258.04h-39.47c-8.84,0-16,7.16-16,16s7.16,16,16,16h110.93c8.84,0,16-7.16,16-16s-7.16-16-16-16h-39.47V188.09h67.2c8.84,0,16-7.16,16-16v-27.73c0-8.84-7.16-16-16-16s-16,7.16-16,16v11.73h-51.2v-38.49h65.57c3.65,3.82,8.2,7.85,13.89,11.84,26.03,18.24,63.89,27.48,112.54,27.48,8.84,0,16-7.16,16-16s-7.16-16-16-16Z"/></svg>