<?xml version="1.0" encoding="UTF-8"?><svg id="Icon" xmlns="http://www.w3.org/2000/svg" viewBox="0 0 512 512"><path d="M413.7,90.18c-42.21-37.52-98.22-58.18-157.7-58.18s-116.08,23.3-158.39,65.61c-42.31,42.31-65.61,98.56-65.61,158.39s23.3,116.08,65.61,158.39c42.31,42.31,98.56,65.61,158.39,65.61,27.94,0,50.67-22.73,50.67-50.67,0-12.51-4.61-24.45-12.99-33.67-3.1-3.72-4.8-8.17-4.8-12.55,0-10.29,8.37-18.67,18.67-18.67h40.91c72.54,0,131.56-59.02,131.56-131.56,0-54.03-23.54-104.72-66.3-142.71ZM128,256c-17.67,0-32-14.33-32-32s14.33-32,32-32,32,14.33,32,32-14.33,32-32,32ZM199.99,170.12c-17.67,0-32-14.33-32-32s14.33-32,32-32,32,14.33,32,32-14.33,32-32,32ZM312.49,166.02c-17.67,0-32-14.33-32-32s14.33-32,32-32,32,14.33,32,32-14.33,32-32,32ZM384,256c-17.67,0-32-14.33-32-32s14.33-32,32-32,32,14.33,32,32-14.33,32-32,32Z"/></svg>