<?xml version="1.0" encoding="UTF-8"?><svg id="Icon" xmlns="http://www.w3.org/2000/svg" viewBox="0 0 512 512"><circle cx="384" cy="224" r="32"/><circle cx="312.49" cy="134.02" r="32"/><circle cx="199.99" cy="138.12" r="32"/><circle cx="128" cy="224" r="32"/><path d="M256,480c27.94,0,50.67-22.73,50.67-50.67,0-12.51-4.61-24.45-12.99-33.67-3.1-3.72-4.8-8.17-4.8-12.55,0-10.29,8.37-18.67,18.67-18.67h40.91c72.54,0,131.56-59.02,131.56-131.56,0-54.03-23.54-104.72-66.3-142.71-42.21-37.52-98.22-58.18-157.7-58.18s-116.08,23.3-158.39,65.61c-42.31,42.31-65.61,98.56-65.61,158.39s23.3,116.08,65.61,158.39c42.31,42.31,98.56,65.61,158.39,65.61ZM256,64c105.87,0,192,75.76,192,168.89,0,54.9-44.66,99.56-99.56,99.56h-40.91c-27.94,0-50.67,22.73-50.67,50.67,0,12.05,4.48,23.95,12.6,33.49l.42.48c3.08,3.33,4.77,7.69,4.77,12.26,0,10.29-8.37,18.67-18.67,18.67-105.87,0-192-86.13-192-192s86.13-192,192-192Z"/></svg>