<?xml version="1.0" encoding="UTF-8"?><svg id="Icon" xmlns="http://www.w3.org/2000/svg" viewBox="0 0 512 512"><path d="M464,240h-242.75c-6.6-18.62-24.39-32-45.25-32s-38.64,13.38-45.25,32H48c-8.84,0-16,7.16-16,16s7.16,16,16,16h82.75c6.6,18.62,24.39,32,45.25,32s38.64-13.38,45.25-32h242.75c8.84,0,16-7.16,16-16s-7.16-16-16-16ZM160,256c0-8.82,7.18-16,16-16s16,7.18,16,16-7.18,16-16,16-16-7.18-16-16Z"/><path d="M48,160h242.75c6.6,18.62,24.39,32,45.25,32s38.64-13.38,45.25-32h82.75c8.84,0,16-7.16,16-16s-7.16-16-16-16h-82.75c-6.6-18.62-24.39-32-45.25-32s-38.64,13.38-45.25,32H48c-8.84,0-16,7.16-16,16s7.16,16,16,16ZM352,144c0,8.82-7.18,16-16,16s-16-7.18-16-16,7.18-16,16-16,16,7.18,16,16Z"/><path d="M464,352h-82.75c-6.6-18.62-24.39-32-45.25-32s-38.64,13.38-45.25,32H48c-8.84,0-16,7.16-16,16s7.16,16,16,16h242.75c6.6,18.62,24.39,32,45.25,32s38.64-13.38,45.25-32h82.75c8.84,0,16-7.16,16-16s-7.16-16-16-16ZM320,368c0-8.82,7.18-16,16-16s16,7.18,16,16-7.18,16-16,16-16-7.18-16-16Z"/></svg>