<?xml version="1.0" encoding="UTF-8"?><svg id="Icon" xmlns="http://www.w3.org/2000/svg" viewBox="0 0 512 512"><path d="M371.32,256.02c6.66.39,12.09,6.69,12.63,14.67.57,8.45,7.6,14.92,15.95,14.92.36,0,.73-.01,1.09-.04,8.82-.6,15.48-8.23,14.89-17.04-1.62-24.03-19.99-43.15-42.71-44.46-8.82-.52-16.39,6.23-16.9,15.05-.51,8.82,6.23,16.39,15.05,16.9Z"/><path d="M400.98,386.37c-8.84-.58-16.44,6.09-17.02,14.91-.53,7.98-5.95,14.3-12.62,14.7-8.82.53-15.54,8.11-15.02,16.93.51,8.5,7.56,15.05,15.96,15.05.32,0,.64,0,.97-.03,22.72-1.36,41.05-20.5,42.63-44.53.58-8.82-6.09-16.44-14.91-17.02Z"/><path d="M400,297.85c-8.84,0-16,7.16-16,16v44.24c0,8.84,7.16,16,16,16s16-7.16,16-16v-44.24c0-8.84-7.16-16-16-16Z"/><path d="M328,416h-24c-8.84,0-16,7.16-16,16s7.16,16,16,16h24c8.84,0,16-7.16,16-16s-7.16-16-16-16Z"/><path d="M254.89,415.61h-110.89c-8.82,0-16-8.48-16-18.91v-122.18c0-10.43,7.18-18.91,16-18.91h28.51c1.13.25,2.29.39,3.49.39s2.37-.14,3.49-.39h76.45c8.84,0,16-7.16,16-16s-7.16-16-16-16h-63.94v-63.61c0-35.29,28.71-64,64-64,6.43,0,12.79.96,18.88,2.86,1.58.49,3.19.73,4.77.73,6.82,0,13.13-4.39,15.27-11.24,2.63-8.44-2.08-17.41-10.51-20.04-9.18-2.86-18.74-4.31-28.4-4.31-52.93,0-96,43.07-96,96v63.61h-16c-26.47,0-48,22.84-48,50.91v122.18c0,28.07,21.53,50.91,48,50.91h110.89c8.84,0,16-7.16,16-16s-7.16-16-16-16Z"/><path d="M256,288c-13.25,0-24,10.75-24,24,0,7.11,3.09,13.49,8,17.88v38.12c0,8.84,7.16,16,16,16s16-7.16,16-16v-38.12c4.91-4.39,8-10.78,8-17.88,0-13.25-10.75-24-24-24Z"/><path d="M312.11,100.94c-7.21,5.1-8.93,15.09-3.82,22.3,7.66,10.83,11.71,23.54,11.71,36.76v3.48c0,8.84,7.16,16,16,16s16-7.16,16-16v-3.48c0-19.87-6.08-38.98-17.58-55.24-5.1-7.21-15.09-8.93-22.3-3.82Z"/><path d="M336,200c-8.84,0-16,7.16-16,16v8h-16c-8.84,0-16,7.16-16,16s7.16,16,16,16h24c1.38,0,2.72-.19,4-.52,1.28.33,2.62.52,4,.52,8.84,0,16-7.16,16-16v-24c0-8.84-7.16-16-16-16Z"/></svg>