<?xml version="1.0" encoding="UTF-8"?><svg id="Icon" xmlns="http://www.w3.org/2000/svg" viewBox="0 0 512 512"><path d="M288,448h-64v-126.13l109.77-185.73c2.92-4.95,2.97-11.08.12-16.07-2.85-4.99-8.15-8.07-13.9-8.07H96c-5.75,0-11.05,3.08-13.9,8.07-2.85,4.99-2.8,11.12.12,16.07l109.77,185.73v126.13h-64c-8.84,0-16,7.16-16,16s7.16,16,16,16h160c8.84,0,16-7.16,16-16s-7.16-16-16-16ZM291.96,144l-83.96,142.05-83.96-142.05h167.92Z"/><path d="M354.83,31.5c-31.03,0-60.44,15.02-78.67,40.17-5.19,7.15-3.59,17.16,3.56,22.35,7.15,5.19,17.16,3.59,22.34-3.56,12.23-16.87,31.96-26.95,52.76-26.95,35.9,0,65.11,29.21,65.11,65.11s-29.21,65.11-65.11,65.11c-5.51,0-10.98-.69-16.25-2.04-8.55-2.2-17.28,2.96-19.48,11.52s2.96,17.28,11.52,19.48c7.87,2.02,16.01,3.04,24.21,3.04,53.55,0,97.11-43.57,97.11-97.11s-43.57-97.11-97.11-97.11Z"/></svg>