<?xml version="1.0" encoding="UTF-8"?><svg id="Icon" xmlns="http://www.w3.org/2000/svg" viewBox="0 0 512 512"><path d="M324.73,276.64l-52.73,52.73v-137.37c0-8.84-7.16-16-16-16s-16,7.16-16,16v137.37l-52.73-52.73c-6.25-6.25-16.38-6.25-22.63,0s-6.25,16.38,0,22.63l80.04,80.04c3.12,3.12,7.22,4.69,11.31,4.69s8.19-1.56,11.31-4.69l80.04-80.04c6.25-6.25,6.25-16.38,0-22.63s-16.38-6.25-22.63,0Z"/><path d="M416,112c0-26.47-21.53-48-48-48h-32c0-17.65-14.35-32-32-32h-96c-17.65,0-32,14.35-32,32h-32c-26.47,0-48,21.53-48,48v320c0,26.47,21.53,48,48,48h224c26.47,0,48-21.53,48-48V112ZM208,64h96v32h-96l-.02-32s0,0,.02,0ZM384,432c0,8.82-7.18,16-16,16h-224c-8.82,0-16-7.18-16-16V112c0-8.82,7.18-16,16-16h32c0,17.65,14.35,32,32,32h96c17.65,0,32-14.35,32-32h32c8.82,0,16,7.18,16,16v320Z"/></svg>