<?xml version="1.0" encoding="UTF-8"?><svg id="Icon" xmlns="http://www.w3.org/2000/svg" viewBox="0 0 512 512"><path d="M432,416H139.71l232.84-134.43-8.18,30.53c-2.29,8.54,2.78,17.31,11.31,19.6,1.39.37,2.78.55,4.15.55,7.06,0,13.53-4.71,15.44-11.86l18.17-67.81c1.44-5.39-.05-10.88-3.5-14.76-.04-.05-.09-.09-.14-.14-.3-.33-.61-.65-.94-.96-.11-.1-.23-.19-.34-.29-.27-.24-.55-.48-.84-.7-.16-.12-.32-.23-.48-.34-.26-.18-.52-.37-.79-.54-.22-.14-.44-.25-.67-.38-.23-.12-.44-.26-.68-.37-.36-.18-.72-.33-1.09-.48-.11-.04-.21-.1-.33-.14-.55-.21-1.11-.39-1.67-.53l-67.67-18.13c-8.54-2.28-17.31,2.78-19.6,11.31-2.29,8.54,2.78,17.31,11.31,19.6l30.47,8.16-51.9,29.97c.09-3.35-.86-6.76-2.95-9.7-2.45-3.44-5.02-6.87-7.64-10.2-5.46-6.95-15.52-8.15-22.47-2.69-6.95,5.46-8.15,15.52-2.69,22.47,2.31,2.94,4.58,5.97,6.75,9,1.46,2.05,3.32,3.62,5.39,4.75l-157.28,90.81,89.94-155.78c.16.11.33.22.5.33,2.74,1.85,5.86,2.74,8.93,2.74,5.14,0,10.19-2.47,13.28-7.05,4.94-7.33,3.01-17.27-4.31-22.21-.78-.53-1.58-1.04-2.37-1.56l28.47-49.3,8.18,30.53c1.92,7.15,8.38,11.86,15.44,11.86,1.37,0,2.76-.18,4.15-.55,8.54-2.29,13.6-11.06,11.31-19.6l-18.17-67.81c-1.1-4.1-3.78-7.59-7.45-9.71-.95-.55-1.94-.99-2.97-1.33-.07-.02-.13-.04-.2-.06-.42-.13-.85-.26-1.28-.36-.29-.07-.58-.11-.87-.16-.21-.04-.43-.08-.64-.11-.4-.05-.81-.08-1.21-.1-.11,0-.22-.02-.33-.02-.49-.02-.98,0-1.46.02-.03,0-.05,0-.08,0-1.1.07-2.19.26-3.25.55l-67.66,18.13c-8.54,2.29-13.6,11.06-11.31,19.6,2.29,8.54,11.06,13.59,19.6,11.31l30.47-8.17-134.41,232.81V80c0-8.84-7.16-16-16-16s-16,7.16-16,16v352c0,.06,0,.11,0,.17,0,.21.01.42.02.64.01.2.02.39.04.58.01.13.02.25.03.38.02.2.05.4.08.6.03.18.06.35.09.53.03.15.05.3.08.45.04.18.09.36.13.53.04.17.09.33.13.5.05.17.1.35.15.52.05.15.1.29.16.44.06.17.12.34.19.51.07.19.14.37.22.55.05.11.11.23.16.34.09.18.17.36.27.54.09.18.19.37.29.55.03.05.05.1.08.15.04.06.08.12.11.18.09.15.18.29.27.44.06.1.12.2.18.29.02.03.05.07.07.1.09.13.19.26.28.39.08.12.17.24.25.35.08.11.17.22.26.33.06.07.12.14.18.22.13.16.27.32.4.47.08.09.16.17.24.26.27.29.55.56.84.83.06.06.12.12.19.17.11.1.23.2.35.29.04.03.08.06.12.1.22.18.44.35.67.52.05.04.11.07.16.11.08.06.16.11.24.17.04.03.08.06.13.09.28.19.57.37.86.54.02,0,.03.02.04.03,0,0,.01,0,.02.01.08.05.17.09.25.14.1.05.2.1.29.15.06.03.12.06.18.1.08.04.15.08.23.12.16.08.33.15.49.22.02,0,.04.02.06.03.1.05.21.1.31.14.42.18.84.33,1.27.47.1.03.2.06.3.09.42.13.85.24,1.28.33.04,0,.07.02.1.02.49.1.99.17,1.49.23.05,0,.11.01.16.02.51.05,1.02.08,1.53.08.02,0,.04,0,.06,0,.02,0,.04,0,.06,0h351.89c8.84,0,16-7.16,16-16s-7.16-16-16-16Z"/><path d="M260.56,228.43c-6.61-5.87-16.72-5.26-22.59,1.34-5.87,6.61-5.27,16.72,1.34,22.59,2.8,2.48,5.57,5.06,8.24,7.66,3.11,3.03,7.14,4.54,11.17,4.54s8.32-1.62,11.46-4.83c6.17-6.33,6.04-16.46-.29-22.62-3.02-2.95-6.16-5.87-9.33-8.68Z"/></svg>