<?xml version="1.0" encoding="UTF-8"?><svg id="Icon" xmlns="http://www.w3.org/2000/svg" viewBox="0 0 512 512"><path d="M396.6,448.35c-1.54,0-3.09-.07-4.63-.21-.1,0-.2-.02-.29-.03-56.64-6.15-111.85-25.79-159.65-56.78-44.4-28.23-82.79-66.61-111.01-111.01-31.1-48.03-50.74-103.5-56.78-160.4,0-.08-.02-.17-.02-.25-1.24-13.67,2.93-27.01,11.72-37.55,8.79-10.54,21.17-17.03,34.84-18.26,1.52-.14,3.06-.21,4.58-.21h53.04c.14,0,.28,0,.41,0,25.49,0,47.32,18.92,50.89,44.2,0,.05.01.1.02.15,2.08,15.77,5.95,31.32,11.52,46.23,7.02,18.68,2.48,39.97-11.58,54.19l-13.72,13.72c21.26,33.73,49.83,62.3,83.56,83.56l13.65-13.65c14.28-14.12,35.57-18.66,54.29-11.63,14.87,5.55,30.42,9.42,46.19,11.5.05,0,.1.01.14.02,25.77,3.64,44.74,25.95,44.21,51.95v52.91c.06,13.66-5.24,26.59-14.91,36.34-9.67,9.75-22.55,15.15-36.28,15.2-.07,0-.13,0-.2,0ZM394.97,416.28c.57.05,1.14.06,1.71.07,5.18-.02,10.04-2.06,13.69-5.74,3.65-3.68,5.65-8.56,5.62-13.74v-53.16c0-.13,0-.26,0-.4.24-9.83-6.9-18.28-16.62-19.68-18.13-2.4-36.02-6.86-53.15-13.25-7.1-2.67-15.13-.96-20.5,4.35l-22.41,22.41c-5.09,5.09-12.96,6.16-19.22,2.6-46.79-26.61-85.58-65.4-112.19-112.19-3.56-6.26-2.5-14.13,2.59-19.22l22.48-22.48c5.24-5.3,6.96-13.34,4.3-20.4-6.41-17.17-10.87-35.05-13.26-53.19-1.38-9.51-9.6-16.62-19.2-16.62-.12,0-.23,0-.35,0h-53.09c-.56,0-1.14.03-1.71.08-5.16.47-9.83,2.91-13.15,6.89-3.3,3.95-4.87,8.94-4.43,14.06,5.53,51.9,23.46,102.49,51.84,146.29.03.04.05.08.08.12,25.74,40.51,60.76,75.53,101.27,101.27.04.03.08.05.12.08,43.59,28.27,93.94,46.19,145.59,51.83Z"/></svg>