<?xml version="1.0" encoding="UTF-8"?><svg id="Icon" xmlns="http://www.w3.org/2000/svg" viewBox="0 0 512 512"><path d="M396.6,448.35c-1.54,0-3.09-.07-4.63-.21-.1,0-.2-.02-.29-.03-56.64-6.15-111.85-25.79-159.65-56.78-44.4-28.23-82.79-66.61-111.01-111.01-31.1-48.03-50.74-103.5-56.78-160.4,0-.08-.02-.17-.02-.25-1.24-13.67,2.93-27.01,11.72-37.55,8.79-10.54,21.17-17.03,34.84-18.26,1.52-.14,3.06-.21,4.58-.21h53.04c.14,0,.28,0,.41,0,25.49,0,47.32,18.92,50.89,44.2,0,.05.01.1.02.15,2.08,15.77,5.95,31.32,11.52,46.23,7.02,18.68,2.48,39.97-11.58,54.19l-13.72,13.72c21.26,33.73,49.83,62.3,83.56,83.56l13.65-13.65c14.28-14.12,35.57-18.66,54.29-11.63,14.87,5.55,30.42,9.42,46.19,11.5.05,0,.1.01.14.02,25.77,3.64,44.74,25.95,44.21,51.95v52.91c.06,13.66-5.24,26.59-14.91,36.34-9.67,9.75-22.55,15.15-36.28,15.2-.07,0-.13,0-.2,0Z"/></svg>