<?xml version="1.0" encoding="UTF-8"?><svg id="Icon" xmlns="http://www.w3.org/2000/svg" viewBox="0 0 512 512"><path d="M466.31,244.69l-48.4-48.4c-6.25-6.25-16.38-6.25-22.63,0-6.25,6.25-6.25,16.38,0,22.63l21.09,21.09h-192.37c-8.84,0-16,7.16-16,16s7.16,16,16,16h192.37l-21.09,21.09c-6.25,6.25-6.25,16.38,0,22.63,3.12,3.12,7.22,4.69,11.31,4.69s8.19-1.56,11.31-4.69l48.4-48.4c6.25-6.25,6.25-16.38,0-22.63Z"/><path d="M375.55,360.65c-6.62-5.86-16.73-5.24-22.59,1.37-30.38,34.3-74.05,53.98-119.82,53.98-88.22,0-160-71.78-160-160S144.92,96,233.14,96c45.77,0,89.44,19.67,119.82,53.98,5.86,6.62,15.97,7.23,22.59,1.37,6.62-5.86,7.23-15.97,1.37-22.59-36.45-41.16-88.85-64.76-143.78-64.76-105.87,0-192,86.13-192,192s86.13,192,192,192c54.93,0,107.33-23.61,143.78-64.76,5.86-6.62,5.24-16.73-1.37-22.59Z"/></svg>