<?xml version="1.0" encoding="UTF-8"?><svg id="Icon" xmlns="http://www.w3.org/2000/svg" viewBox="0 0 512 512"><path d="M475.12,168.18c3-3,4.69-7.07,4.69-11.31s-1.69-8.31-4.69-11.31l-108.68-108.68c-6.25-6.25-16.38-6.25-22.63,0-14.9,14.9-19.17,37.51-12.18,62.05l-103.24,82.16c-21.41-8.66-43.35-12.4-64.02-10.85-25.32,1.9-47.45,11.64-63.98,28.17-6.25,6.25-6.25,16.38,0,22.63l83.97,83.97-115.69,115.69c-6.25,6.25-6.25,16.38,0,22.63,3.12,3.12,7.22,4.69,11.31,4.69s8.19-1.56,11.31-4.69l115.69-115.69,83.97,83.97c3,3,7.07,4.69,11.31,4.69s8.31-1.69,11.31-4.69c16.54-16.54,26.28-38.67,28.17-64,1.55-20.67-2.2-42.62-10.86-64.03l82.17-103.21c24.54,6.99,47.15,2.73,62.05-12.17ZM395.12,151.53l-95.26,119.66c-3.81,4.78-4.56,11.31-1.93,16.83,15.28,32.15,15.99,64.93,2.81,88.08l-164.84-164.84c23.14-13.17,55.92-12.47,88.06,2.8,5.52,2.62,12.05,1.87,16.83-1.93l119.69-95.25c5.61-4.47,7.57-12.12,4.78-18.73-3.33-7.91-4.93-15.48-4.83-22.04l75.47,75.47c-6.58.12-14.13-1.49-22.04-4.83-6.61-2.79-14.26-.83-18.73,4.78Z"/></svg>