<?xml version="1.0" encoding="UTF-8"?><svg id="Icon" xmlns="http://www.w3.org/2000/svg" viewBox="0 0 512 512"><path d="M288,112c-8.84,0-16,7.16-16,16v96s0,.03,0,.04c0,.51.03,1.02.08,1.53.02.24.07.48.1.72.04.28.07.55.13.82.05.27.13.54.2.8.06.24.11.48.18.72.08.26.18.51.27.77.08.24.16.47.26.71.1.24.22.47.33.7.11.24.22.48.35.72.12.22.26.44.39.66.14.23.27.46.42.69.16.24.34.47.52.7.14.18.27.37.41.55.67.82,1.42,1.56,2.23,2.23.18.15.37.28.56.42.23.17.46.35.7.51.23.15.46.28.69.42.22.13.43.26.65.38.24.13.48.24.73.35.23.11.46.22.69.32.24.1.48.18.72.26.25.09.5.19.76.27.24.07.48.13.73.19.26.07.52.14.79.19.28.06.56.09.84.13.24.03.47.08.71.1.52.05,1.05.08,1.58.08h96c8.84,0,16-7.16,16-16s-7.16-16-16-16h-57.37l87.69-87.69c6.25-6.25,6.25-16.38,0-22.63-6.25-6.25-16.38-6.25-22.63,0l-87.69,87.69v-57.37c0-8.84-7.16-16-16-16Z"/><path d="M97.69,414.31c3.12,3.12,7.22,4.69,11.31,4.69s8.19-1.56,11.31-4.69l87.69-87.69v57.37c0,8.84,7.16,16,16,16s16-7.16,16-16v-96c0-8.84-7.16-16-16-16h-96c-8.84,0-16,7.16-16,16s7.16,16,16,16h57.37l-87.69,87.69c-6.25,6.25-6.25,16.38,0,22.63Z"/></svg>