<?xml version="1.0" encoding="UTF-8"?><svg id="Icon" xmlns="http://www.w3.org/2000/svg" viewBox="0 0 512 512"><path d="M361.69,71.68c-4.65-4.88-11.31-7.68-18.25-7.68h-174.41c-11.56,0-21.83,7.84-24.41,18.64l-.22.92-.4,3.42v299.31c0,16.38,13.64,29.71,30.41,29.71h66.16v-64.01c.08-.04.2-.09.36-.12l1.16-.08h29.35c.49,0,.79.1.96.18l.02.27-.55,63.76h65.71c16.77,0,30.41-13.33,30.41-29.71V87.67c.16-5.91-2.07-11.57-6.29-16ZM295.25,301.43h-76.44c-7.58,0-13.78-6.2-13.78-13.78s6.2-13.78,13.78-13.78h76.44c7.58,0,13.78,6.2,13.78,13.78s-6.2,13.78-13.78,13.78ZM295.25,249.28h-76.44c-7.58,0-13.78-6.2-13.78-13.78s6.2-13.78,13.78-13.78h76.44c7.58,0,13.78,6.2,13.78,13.78s-6.2,13.78-13.78,13.78ZM295.25,197.12h-76.44c-7.58,0-13.78-6.2-13.78-13.78s6.2-13.78,13.78-13.78h76.44c7.58,0,13.78,6.2,13.78,13.78s-6.2,13.78-13.78,13.78ZM295.25,144.97h-76.44c-7.58,0-13.78-6.2-13.78-13.78s6.2-13.78,13.78-13.78h76.44c7.58,0,13.78,6.2,13.78,13.78s-6.2,13.78-13.78,13.78Z"/><path d="M439.44,112.22l-39.35-.22s-.06,0-.09,0c-8.79,0-15.95,7.1-16,15.91v272.09c0,8.84,7.16,16,16,16h39.35c22.42,0,40.65-20.43,40.65-45.53v-212.72c0-25.11-18.24-45.53-40.56-45.53ZM444,363.39c0,2.67-1.7,4.69-4.22,5.21l-1.33.13h-16.65c-2.75,0-4.86-1.64-5.4-4.07l-.13-1.27v-24.1c0-3.12,2.3-5.33,5.53-5.33h16.65c2.78,0,4.88,1.63,5.42,4.07l.13,1.27v24.1ZM444,304.95c0,2.69-1.7,4.69-4.22,5.23l-1.33.13h-16.65c-2.75,0-4.86-1.63-5.4-4.07l-.13-1.29v-23.62c0-3.12,2.3-5.36,5.53-5.36h16.65c2.78,0,4.88,1.63,5.42,4.07l.13,1.29v23.62ZM444,246.76c0,2.67-1.7,4.69-4.22,5.21l-1.33.15h-16.65c-2.75,0-4.86-1.66-5.4-4.09l-.13-1.27v-23.65c0-3.12,2.3-5.34,5.53-5.34h16.65c2.78,0,4.88,1.64,5.42,4.07l.13,1.27v23.65ZM444,188.56c0,2.69-1.7,4.69-4.22,5.23l-1.33.13h-16.65c-2.75,0-4.86-1.63-5.4-4.07l-.13-1.29v-23.62c0-3.12,2.3-5.36,5.53-5.36h16.65c2.78,0,4.88,1.63,5.42,4.07l.13,1.29v23.62Z"/><path d="M128,127.91c-.05-8.81-7.2-15.91-16-15.91-.03,0-.06,0-.09,0l-39.26.22c-22.42,0-40.65,20.42-40.65,45.53v212.72c0,25.11,18.24,45.53,40.65,45.53h39.35c8.84,0,16-7.16,16-16V127.91ZM95.73,363.39l-.13,1.27c-.54,2.43-2.65,4.07-5.4,4.07h-16.65l-1.33-.13c-2.52-.51-4.22-2.54-4.22-5.21v-24.1l.13-1.27c.54-2.43,2.64-4.07,5.42-4.07h16.65c3.23,0,5.53,2.21,5.53,5.33v24.1ZM95.73,304.95l-.13,1.29c-.54,2.43-2.65,4.07-5.4,4.07h-16.65l-1.33-.13c-2.52-.54-4.22-2.54-4.22-5.23v-23.62l.13-1.29c.54-2.43,2.64-4.07,5.42-4.07h16.65c3.23,0,5.53,2.24,5.53,5.36v23.62ZM95.73,246.76l-.13,1.27c-.54,2.43-2.65,4.09-5.4,4.09h-16.65l-1.33-.15c-2.52-.51-4.22-2.54-4.22-5.21v-23.65l.13-1.27c.54-2.43,2.64-4.07,5.42-4.07h16.65c3.23,0,5.53,2.22,5.53,5.34v23.65ZM95.73,187.99l-.13,1.29c-.54,2.43-2.65,4.07-5.4,4.07h-16.65l-1.33-.13c-2.52-.54-4.22-2.54-4.22-5.23v-23.62l.13-1.29c.54-2.43,2.64-4.07,5.42-4.07h16.65c3.23,0,5.53,2.24,5.53,5.36v23.62Z"/></svg>