<?xml version="1.0" encoding="UTF-8"?><svg id="Icon" xmlns="http://www.w3.org/2000/svg" viewBox="0 0 512 512"><path d="M337.57,416h-65.71l.55-63.76-.02-.27c-.17-.08-.48-.18-.96-.18h-29.35l-1.16.08c-.16.04-.28.08-.36.12v64.01h-66.16c-16.77,0-30.41-13.33-30.41-29.71V86.97l.4-3.42.22-.92c2.58-10.8,12.84-18.64,24.41-18.64h174.41c6.95,0,13.6,2.8,18.25,7.68,4.22,4.43,6.45,10.09,6.31,16v298.61c-.01,16.38-13.65,29.71-30.42,29.71ZM304.14,384h31.84V96s-159.98,0-159.98,0v288h32.56v-32.24c0-16.34,12.08-29.68,28.73-31.7l.88-.08,3.38-.19h29.88c16.7,0,30.45,11.58,32.68,27.52l.12,1.12.2,2.84-.28,32.72Z"/><rect x="205.03" y="117.41" width="104" height="27.56" rx="13.78" ry="13.78"/><rect x="205.03" y="169.57" width="104" height="27.56" rx="13.78" ry="13.78"/><rect x="205.03" y="273.87" width="104" height="27.56" rx="13.78" ry="13.78"/><rect x="205.03" y="221.72" width="104" height="27.56" rx="13.78" ry="13.78"/><path d="M112,416h-39.35c-22.42,0-40.65-20.43-40.65-45.53v-212.72c0-25.11,18.24-45.53,40.65-45.53l39.26-.22s.06,0,.09,0c8.79,0,15.95,7.1,16,15.91.05,8.84-7.07,16.04-15.91,16.09l-39.35.22c-4.17,0-8.74,5.79-8.74,13.53v212.72c0,7.74,4.57,13.53,8.65,13.53h39.35c8.84,0,16,7.16,16,16s-7.16,16-16,16Z"/><path d="M107.73,187.99l-.13,1.29c-.54,2.43-2.65,4.07-5.4,4.07h-16.65l-1.33-.13c-2.52-.54-4.22-2.54-4.22-5.23v-23.62l.13-1.29c.54-2.43,2.64-4.07,5.42-4.07h16.65c3.23,0,5.53,2.24,5.53,5.36v23.62Z"/><path d="M107.73,363.39l-.13,1.27c-.54,2.43-2.65,4.07-5.4,4.07h-16.65l-1.33-.13c-2.52-.51-4.22-2.54-4.22-5.21v-24.1l.13-1.27c.54-2.43,2.64-4.07,5.42-4.07h16.65c3.23,0,5.53,2.21,5.53,5.33v24.1Z"/><path d="M107.73,304.95l-.13,1.29c-.54,2.43-2.65,4.07-5.4,4.07h-16.65l-1.33-.13c-2.52-.54-4.22-2.54-4.22-5.23v-23.62l.13-1.29c.54-2.43,2.64-4.07,5.42-4.07h16.65c3.23,0,5.53,2.24,5.53,5.36v23.62Z"/><path d="M107.73,246.76l-.13,1.27c-.54,2.43-2.65,4.09-5.4,4.09h-16.65l-1.33-.15c-2.52-.51-4.22-2.54-4.22-5.21v-23.65l.13-1.27c.54-2.43,2.64-4.07,5.42-4.07h16.65c3.23,0,5.53,2.22,5.53,5.34v23.65Z"/><path d="M439.35,416h-39.35c-8.84,0-16-7.16-16-16s7.16-16,16-16h39.35c4.08,0,8.65-5.79,8.65-13.53v-212.72c0-7.74-4.57-13.53-8.65-13.53l-39.44-.22c-8.84-.05-15.96-7.25-15.91-16.09.05-8.81,7.2-15.91,16-15.91.03,0,.06,0,.09,0l39.35.22c22.33,0,40.56,20.42,40.56,45.53v212.72c0,25.11-18.24,45.53-40.65,45.53Z"/><path d="M404.27,363.39l.13,1.27c.54,2.43,2.65,4.07,5.4,4.07h16.65s1.33-.13,1.33-.13c2.52-.51,4.22-2.54,4.22-5.21v-24.1s-.13-1.27-.13-1.27c-.54-2.43-2.64-4.07-5.42-4.07h-16.65c-3.23,0-5.53,2.21-5.53,5.33v24.1Z"/><path d="M404.27,304.95l.13,1.29c.54,2.43,2.65,4.07,5.4,4.07h16.65s1.33-.13,1.33-.13c2.52-.54,4.22-2.54,4.22-5.23v-23.62s-.13-1.29-.13-1.29c-.54-2.43-2.64-4.07-5.42-4.07h-16.65c-3.23,0-5.53,2.24-5.53,5.36v23.62Z"/><path d="M404.27,246.76l.13,1.27c.54,2.43,2.65,4.09,5.4,4.09h16.65s1.33-.15,1.33-.15c2.52-.51,4.22-2.54,4.22-5.21v-23.65s-.13-1.27-.13-1.27c-.54-2.43-2.64-4.07-5.42-4.07h-16.65c-3.23,0-5.53,2.22-5.53,5.34v23.65Z"/><path d="M404.27,188.56l.13,1.29c.54,2.43,2.65,4.07,5.4,4.07h16.65s1.33-.13,1.33-.13c2.52-.54,4.22-2.54,4.22-5.23v-23.62s-.13-1.29-.13-1.29c-.54-2.43-2.64-4.07-5.42-4.07h-16.65c-3.23,0-5.53,2.24-5.53,5.36v23.62Z"/></svg>