<?xml version="1.0" encoding="UTF-8"?><svg id="Icon" xmlns="http://www.w3.org/2000/svg" viewBox="0 0 512 512"><path d="M125.03,241.28c0,25.48,20.73,46.2,46.2,46.2s46.2-20.73,46.2-46.2-20.73-46.2-46.2-46.2-46.2,20.73-46.2,46.2ZM185.43,241.28c0,7.83-6.37,14.2-14.2,14.2s-14.2-6.37-14.2-14.2,6.37-14.2,14.2-14.2,14.2,6.37,14.2,14.2Z"/><path d="M317.27,185.92c0,25.48,20.73,46.2,46.2,46.2s46.2-20.73,46.2-46.2-20.73-46.2-46.2-46.2-46.2,20.73-46.2,46.2ZM377.68,185.92c0,7.83-6.37,14.2-14.2,14.2s-14.2-6.37-14.2-14.2,6.37-14.2,14.2-14.2,14.2,6.37,14.2,14.2Z"/><path d="M392.37,335.85c-20.11,0-36.48,16.36-36.48,36.48s16.36,36.48,36.48,36.48,36.48-16.36,36.48-36.48-16.36-36.48-36.48-36.48ZM392.37,376.8c-2.47,0-4.48-2.01-4.48-4.48s2.01-4.48,4.48-4.48,4.48,2.01,4.48,4.48-2.01,4.48-4.48,4.48Z"/><path d="M119.56,291.09c0-20.11-16.36-36.48-36.48-36.48s-36.48,16.36-36.48,36.48,16.36,36.48,36.48,36.48,36.48-16.36,36.48-36.48ZM83.09,295.56c-2.47,0-4.48-2.01-4.48-4.48s2.01-4.48,4.48-4.48,4.48,2.01,4.48,4.48-2.01,4.48-4.48,4.48Z"/><path d="M429.24,227.57c-1.07-8.77-9.04-15.01-17.81-13.94-8.77,1.06-15.02,9.03-13.96,17.8,1.79,14.82,1.61,34.87-1.5,41.09-11.52,23.03-26.86,26.27-39.19,28.88-7.81,1.65-17.54,3.71-22.23,13.1-2.68,5.37-3.47,10.7-4.11,14.99-.34,2.3-.81,5.46-1.43,6.32-.01.02-1.27,1.65-7.75,2.9-10.12,1.95-12.55.74-16.23-1.08-4.58-2.27-11.48-5.69-22.79-4.19-13.79,1.84-21.91,10.76-27.83,17.28-4.38,4.81-6.57,6.98-8.77,7.18-1.69-.67-5.55-4.93-7.87-7.49-7.39-8.15-17.51-19.3-34.52-20.15-12.23-.61-22.47,2.73-30.69,5.41-14.56,4.75-21.21,6.91-37.14-10.48-5.97-6.51-16.09-6.95-22.61-.98-6.51,5.97-6.95,16.09-.98,22.61,29.86,32.57,53.43,24.89,70.65,19.28,6.9-2.25,12.85-4.18,19.18-3.87,3.54.18,7.05,3.78,12.41,9.69,6.94,7.65,16.33,18,31.38,18,.65,0,1.3-.02,1.97-.06,15.49-.91,24.62-10.95,30.66-17.59,3.85-4.23,6.33-6.82,8.39-7.09q1.62-.21,4.35,1.14c7.98,3.96,17.37,7.51,36.48,3.83,30.33-5.83,33.34-26.18,34.79-35.96.06-.38.12-.79.18-1.22.38-.08.76-.16,1.12-.24,13.89-2.93,42.78-9.04,61.2-45.88,9.08-18.15,5.46-52.55,4.64-59.26Z"/><circle cx="140.04" cy="97.15" r="13.2" transform="translate(-3.31 189.35) rotate(-67.5)"/><circle cx="214.84" cy="169.75" r="13.2"/><path d="M410.64,116.95c0-7.29-5.91-13.2-13.2-13.2s-13.2,5.91-13.2,13.2,5.91,13.2,13.2,13.2,13.2-5.91,13.2-13.2Z"/><circle cx="275.34" cy="188.45" r="13.2"/><circle cx="324.84" cy="277.55" r="13.2"/><circle cx="257.74" cy="256.65" r="13.2" transform="translate(-78.01 396.55) rotate(-67.5)"/><path d="M213.74,306.15c0,7.29,5.91,13.2,13.2,13.2s13.2-5.91,13.2-13.2-5.91-13.2-13.2-13.2-13.2,5.91-13.2,13.2Z"/><path d="M153.24,401.85c0,7.29,5.91,13.2,13.2,13.2s13.2-5.91,13.2-13.2-5.91-13.2-13.2-13.2-13.2,5.91-13.2,13.2Z"/><circle cx="291.84" cy="401.85" r="13.2" transform="translate(-60.6 51.94) rotate(-9.22)"/><path d="M93.13,229.94l.03.15c-.25-1.14-5.75-28.29,16.37-56.15,18.28-23.02,32.18-22.79,46.91-22.55,3.29.05,6.69.11,10.1-.09,13.04-.77,17.07-12.87,19.01-18.69,3.03-9.1,5.88-17.69,22.54-20.39,20.28-3.29,34.57,13.75,36.13,15.7,3.13,3.92,7.76,6.32,12.7,6.58,8.53.45,13.95-5.02,18.3-9.42,6.45-6.52,14.46-14.62,29.67-13.7,16.27.99,28.71,6.18,36.98,15.45.57.64,1.03,1.13,1.35,1.45,6.25,6.25,16.38,6.25,22.63,0,6.19-6.18,6.25-16.17.19-22.44l-.29-.32c-17.55-19.68-41.73-25.05-58.92-26.09-23.79-1.45-39.22,9.1-48.53,17.51-13.6-11.2-33.25-19.89-55.33-16.31-32.67,5.3-42.52,26.83-46.72,38.76-17.68-.28-44.06-.23-71.77,34.66-32.09,40.41-22.9,81.5-22.5,83.23l31.15-7.33Z"/></svg>