<?xml version="1.0" encoding="UTF-8"?><svg id="Icon" xmlns="http://www.w3.org/2000/svg" viewBox="0 0 512 512"><path d="M58.01,394.46c1.52.36,3.1.54,4.57.54,2.91,0,5.42-.72,7.26-2.1,3.84-2.88,7.94-5.31,12.09-7.19,3.88-1.48,8.01-2.61,12.2-3.33,2.24-.23,4.51-.35,6.75-.35s4.55.12,6.72.34c4.26.73,8.37,1.85,12.16,3.3,3.08,1.39,6.12,3.07,9.02,4.99,1.19.79,2.34,1.62,3.49,2.45,1.84,1.33,3.75,2.7,5.77,3.88,7.68,4.58,16.17,7.84,24.56,9.42,5.22,1,10.53,1.51,15.78,1.51,13.27,0,26.42-3.3,38.02-9.54,3.35-1.82,6.44-4.03,9.42-6.15l.88-.63c3.28-2.31,6.8-4.32,10.38-5.93,3.88-1.49,8.02-2.61,12.2-3.33,2.24-.23,4.51-.35,6.75-.35s4.55.12,6.72.34c4.26.73,8.37,1.85,12.16,3.29,3.09,1.4,6.12,3.08,9.02,5,1.19.79,2.34,1.62,3.49,2.45,1.84,1.33,3.75,2.71,5.77,3.88,7.68,4.58,16.17,7.84,24.56,9.42,5.22,1,10.53,1.51,15.78,1.51,13.27,0,26.42-3.3,38.02-9.54,3.35-1.82,6.43-4.02,9.41-6.15l.89-.63c3.28-2.31,6.79-4.31,10.37-5.93,3.89-1.49,8.03-2.61,12.22-3.34,2.24-.23,4.51-.35,6.75-.35s4.55.12,6.72.34c4.23.73,8.32,1.83,12.09,3.27,4.39,2.01,8.52,4.45,12.27,7.26,1.77,1.34,4.54,2.12,7.58,2.12,1.48,0,2.91-.18,4.11-.53,3.73-1.01,7.35-3.81,8.99-6.96,2.08-3.94,2.6-8.05,1.46-11.57-1.16-3.52-3.18-6.16-6.76-8.82-12.99-9.71-29.49-15.06-46.46-15.06-14.6,0-28.72,3.86-40.82,11.16-1.82,1.1-3.53,2.33-5.19,3.52-1.22.88-2.48,1.79-3.75,2.62-2.84,1.88-5.9,3.57-9,4.98-3.86,1.47-7.97,2.58-12.12,3.3-2.23.23-4.5.34-6.74.34s-4.54-.12-6.71-.34c-4.26-.73-8.39-1.85-12.19-3.3-3.08-1.39-6.11-3.07-9.01-4.99-1.19-.78-2.34-1.62-3.49-2.45-1.85-1.33-3.75-2.71-5.78-3.88-7.68-4.58-16.17-7.84-24.56-9.42-5.22-1-10.53-1.51-15.78-1.51-13.27,0-26.42,3.3-38.02,9.54-3.35,1.82-6.43,4.02-9.41,6.15l-.9.64c-3.28,2.31-6.8,4.32-10.38,5.93-3.88,1.49-8.02,2.61-12.22,3.33-2.23.23-4.5.35-6.74.35s-4.54-.12-6.7-.34c-4.21-.72-8.29-1.82-12.04-3.24-4.56-2.11-8.5-4.8-12.68-7.65-.97-.66-1.95-1.33-2.95-2-6.18-4.09-13.48-7.44-21.11-9.7-7.06-2.08-14.49-3.13-22.07-3.13-7.98,0-15.76,1.16-23.13,3.45-8.79,2.74-16.68,6.69-23.44,11.75-3.25,2.45-5.65,4.9-6.78,8.87-1.07,3.85-.45,8.51,1.53,11.61,2.31,3.61,5.5,6.05,8.98,6.87Z"/><path d="M110.57,132.43v183.08c0,8.01,6.78,15.03,14.52,15.03.19,0,.37,0,.56-.01,8.39-.36,14.96-6.95,14.96-15.01v-30.18h155.38v30.18c0,8.01,6.78,15.03,14.52,15.03.19,0,.37,0,.56-.01,8.39-.36,14.96-6.95,14.96-15.01v-164.15c0-5.34-.01-10.68-.02-16.01-.02-10.49-.04-21.34.02-32.02,0-1.87.1-3.84.29-5.76.61-3.44,1.56-6.9,2.79-10.19,1.17-2.55,2.59-5.08,4.2-7.52.18-.26.37-.52.55-.79.3-.42.6-.84.89-1.28,1.04-1.24,2.19-2.49,3.51-3.81.98-.98,2.13-2.03,3.63-3.33.3-.21.6-.42.9-.64.36-.26.71-.51,1.06-.75,2.54-1.69,5.21-3.18,7.87-4.4,3.23-1.22,6.62-2.14,9.99-2.74,1.91-.19,3.87-.29,5.81-.29s3.87.09,5.69.27c3.42.6,6.81,1.53,9.99,2.73,2.94,1.35,5.5,2.77,7.86,4.35.45.29.91.62,1.35.94.29.21.57.41.84.6,1.06.91,2.3,1.99,3.47,3.21,1.12,1.12,2.25,2.34,3.18,3.43l.49.69c.37.52.73,1.02,1.09,1.57,1.58,2.35,3,4.92,4.32,7.78,1.21,3.24,2.15,6.73,2.77,10.27.16,1.69.26,3.5.3,5.53.05,8,6.83,15.02,14.51,15.02.19,0,.37,0,.54-.01,8.47-.26,15.07-6.82,15.02-14.93-.19-27.77-16.84-53.79-41.43-64.75-9.74-4.33-19.94-6.53-30.31-6.53-3.87,0-7.82.31-11.76.91-10.6,1.61-21.23,6.11-29.93,12.66-10.2,7.7-17.7,16.62-22.3,26.5-4.76,10.14-7.2,20.67-7.24,31.3-.03,6.48-.02,12.98-.01,19.48,0,3.24.01,6.48.01,9.72v19.43h-155.38v-.78c0-5.32-.01-10.64-.02-15.96-.02-10.44-.04-21.24.02-31.89,0-1.87.1-3.84.29-5.75.61-3.44,1.56-6.9,2.8-10.2,1.18-2.55,2.59-5.08,4.2-7.52.18-.26.37-.53.56-.8.3-.42.59-.84.88-1.27,1.03-1.23,2.18-2.48,3.51-3.81.98-.98,2.13-2.03,3.63-3.32.3-.21.6-.42.9-.64.36-.26.71-.51,1.06-.75,2.54-1.69,5.21-3.18,7.86-4.4,3.23-1.22,6.62-2.14,9.99-2.74,1.92-.19,3.87-.29,5.81-.29s3.87.09,5.69.27c3.42.6,6.81,1.53,9.99,2.73,2.94,1.35,5.5,2.77,7.85,4.35.45.29.91.62,1.35.94.29.21.57.41.84.6,1.07.91,2.31,2,3.47,3.21,1.12,1.12,2.25,2.34,3.18,3.43l.49.69c.37.51.73,1.02,1.09,1.57,1.58,2.35,3,4.92,4.32,7.78,1.21,3.24,2.15,6.73,2.78,10.27.16,1.69.26,3.5.3,5.52.05,8,6.84,15.02,14.52,15.02.18,0,.37,0,.55-.01,8.47-.31,15.06-6.89,15.01-14.98-.19-27.77-16.84-53.79-41.43-64.75-9.74-4.33-19.94-6.53-30.31-6.53-3.87,0-7.82.31-11.76.91-10.6,1.61-21.23,6.11-29.93,12.66-10.2,7.7-17.7,16.62-22.3,26.5-4.76,10.14-7.2,20.67-7.24,31.3-.03,6.45-.02,12.92-.01,19.39,0,3.23.01,6.45.01,9.67ZM295.98,184v69.33h-155.38v-69.33h155.38Z"/><path d="M457.66,439.12c-12.99-9.71-29.49-15.06-46.46-15.06-14.6,0-28.71,3.86-40.82,11.16-1.81,1.09-3.52,2.33-5.18,3.52-1.22.88-2.48,1.79-3.76,2.62-2.84,1.88-5.89,3.57-9,4.98-3.86,1.47-7.97,2.59-12.13,3.3-2.23.23-4.5.34-6.74.34s-4.54-.12-6.7-.33c-4.27-.73-8.4-1.85-12.2-3.31-3.08-1.39-6.11-3.07-9-4.99-1.19-.79-2.34-1.62-3.49-2.45-1.84-1.33-3.75-2.71-5.77-3.88-7.68-4.58-16.17-7.84-24.56-9.42-5.22-1-10.53-1.51-15.78-1.51-13.27,0-26.42,3.3-38.02,9.54-3.36,1.83-6.45,4.04-9.44,6.17l-.87.62c-3.28,2.31-6.79,4.31-10.37,5.92-3.89,1.49-8.04,2.62-12.23,3.34-2.23.23-4.5.34-6.74.34s-4.54-.12-6.7-.33c-4.22-.72-8.3-1.83-12.05-3.25-4.56-2.11-8.5-4.8-12.68-7.66-.97-.66-1.95-1.33-2.94-1.99-6.18-4.09-13.48-7.44-21.11-9.7-7.06-2.08-14.49-3.13-22.07-3.13-7.98,0-15.76,1.16-23.13,3.45-8.79,2.74-16.68,6.69-23.44,11.75-3.25,2.45-5.65,4.9-6.78,8.87-1.07,3.85-.45,8.51,1.53,11.61,2.31,3.61,5.5,6.05,8.98,6.87,1.52.36,3.1.54,4.56.54h0c2.91,0,5.42-.72,7.26-2.1,3.84-2.88,7.93-5.31,12.08-7.18,3.88-1.49,8.02-2.61,12.21-3.33,2.23-.23,4.5-.35,6.75-.35s4.54.12,6.71.34c4.26.73,8.39,1.85,12.18,3.3,3.08,1.39,6.11,3.07,9.01,4.99,1.19.79,2.34,1.62,3.49,2.45,1.84,1.33,3.75,2.71,5.77,3.88,7.68,4.58,16.17,7.84,24.56,9.42,5.22,1,10.53,1.51,15.78,1.51,13.27,0,26.42-3.3,38.02-9.54,3.36-1.83,6.46-4.04,9.45-6.18l.85-.61c3.28-2.31,6.8-4.32,10.37-5.93,3.89-1.49,8.03-2.62,12.22-3.34,2.23-.23,4.5-.35,6.75-.35s4.54.12,6.71.34c4.26.73,8.39,1.85,12.18,3.3,3.08,1.39,6.11,3.07,9.01,4.99,1.19.79,2.34,1.62,3.49,2.45,1.84,1.33,3.75,2.71,5.77,3.88,7.68,4.58,16.17,7.84,24.56,9.42,5.22,1,10.53,1.51,15.78,1.51,13.27,0,26.42-3.3,38.02-9.54,3.36-1.83,6.45-4.04,9.44-6.17l.86-.61c3.28-2.31,6.8-4.31,10.37-5.93,3.89-1.49,8.03-2.62,12.22-3.34,2.23-.23,4.5-.34,6.75-.34s4.54.12,6.71.34c4.23.72,8.33,1.83,12.09,3.27,4.39,2,8.52,4.44,12.27,7.26,1.77,1.35,4.54,2.12,7.58,2.12,1.48,0,2.91-.18,4.11-.52,3.73-1.01,7.35-3.81,8.99-6.96,2.08-3.94,2.6-8.05,1.46-11.58-1.16-3.52-3.18-6.16-6.76-8.82Z"/></svg>