<?xml version="1.0" encoding="UTF-8"?><svg id="Icon" xmlns="http://www.w3.org/2000/svg" viewBox="0 0 512 512"><path d="M188.12,80h-58.62c-27.29,0-49.5,22.21-49.5,49.5v61.87l-14.56-14.56c-6.25-6.25-16.38-6.25-22.63,0-6.25,6.25-6.25,16.38,0,22.63l41.87,41.87c.38.38.77.73,1.18,1.07.18.15.36.27.55.41.24.18.47.36.71.52.22.15.46.28.68.42.22.13.43.27.66.39.24.13.48.23.72.35.23.11.46.23.7.32.24.1.48.18.71.26.25.09.5.19.76.27.24.07.48.13.72.19.26.07.53.14.8.19.28.06.56.09.84.13.24.03.47.08.71.1.52.05,1.05.08,1.58.08s1.05-.03,1.58-.08c.24-.02.47-.07.71-.1.28-.04.56-.07.84-.13.27-.05.53-.13.79-.19.24-.06.48-.11.72-.19.26-.08.51-.18.76-.27.24-.09.48-.16.71-.26.24-.1.47-.21.7-.32.24-.11.48-.22.72-.35.22-.12.44-.26.66-.39.23-.14.46-.27.69-.42.24-.16.47-.35.71-.52.18-.14.37-.26.55-.41.41-.34.81-.69,1.18-1.07l41.87-41.87c6.25-6.25,6.25-16.38,0-22.63-6.25-6.25-16.38-6.25-22.63,0l-14.56,14.56v-61.87c0-9.65,7.85-17.5,17.5-17.5h58.62c8.84,0,16-7.16,16-16s-7.16-16-16-16Z"/><path d="M176,400h-96c-8.84,0-16,7.16-16,16s7.16,16,16,16h96c8.84,0,16-7.16,16-16s-7.16-16-16-16Z"/><path d="M328.07,358.01c-9.91,0-17.94,7.98-17.94,17.82v.24c0,9.84,8.03,17.82,17.94,17.82s17.94-7.98,17.94-17.82v-.24c0-9.84-8.03-17.82-17.94-17.82Z"/><path d="M418,64h-176c-17.64,0-32,14.35-32,32v320c0,17.65,14.36,32,32,32h176c17.64,0,32-14.35,32-32V96c0-17.65-14.36-32-32-32ZM418,416h-176s0-320,0-320h16.58c.16,7.29,6.11,13.15,13.44,13.15h112.1c7.33,0,13.27-5.86,13.44-13.15h20.44v320Z"/></svg>