<?xml version="1.0" encoding="UTF-8"?><svg id="Icon" xmlns="http://www.w3.org/2000/svg" viewBox="0 0 512 512"><path d="M487.38,297.04l-53.69-36.64c-3.98-2.72-9.38.13-9.38,4.96v73.28c0,4.82,5.4,7.67,9.38,4.96l53.69-36.64c3.49-2.38,3.49-7.53,0-9.91Z"/><path d="M402.09,270.5c-22.29-11.15-36.4-16.81-51.61-16.81-.41,0-.83,0-1.26.01-15.69.33-30.26,6.76-52.33,16.49-19.74,8.7-29.65,12.88-39.14,12.88s-19.4-4.18-39.14-12.88c-1.91-.84-3.94-1.27-6.01-1.27-5.91,0-11.28,3.49-13.68,8.91-3.31,7.53.11,16.36,7.64,19.68,21.71,9.57,35.99,15.38,51.18,15.38s29.47-5.81,51.18-15.38c21.11-9.31,31.71-13.98,41.76-13.98s19.47,4.38,38.06,13.68c2.09,1.04,4.33,1.57,6.66,1.57,5.7,0,10.82-3.16,13.37-8.25,3.67-7.36.68-16.35-6.68-20.03Z"/><path d="M402.09,315.3c-22.29-11.15-36.4-16.81-51.61-16.81-.41,0-.83,0-1.26.01-15.69.33-30.26,6.76-52.33,16.49-19.74,8.7-29.65,12.88-39.14,12.88s-19.4-4.18-39.14-12.88c-1.91-.84-3.94-1.27-6.01-1.27-5.91,0-11.28,3.49-13.68,8.91-3.31,7.53.11,16.36,7.64,19.68,21.71,9.57,35.99,15.38,51.18,15.38s29.47-5.81,51.18-15.38c21.11-9.31,31.71-13.98,41.76-13.98s19.47,4.38,38.06,13.68c2.09,1.04,4.33,1.57,6.66,1.57,5.7,0,10.82-3.16,13.37-8.25,3.67-7.36.68-16.35-6.68-20.03Z"/><path d="M109.09,432h261.82c24.86,0,45.09-20.23,45.09-45.09v-18.91c0-8.84-7.16-16-16-16s-16,7.16-16,16v18.91c0,7.22-5.87,13.09-13.09,13.09H109.09c-7.22,0-13.09-5.87-13.09-13.09v-167.35c0-7.78,3.46-15.08,9.47-20.01l134.54-110.07,134.5,110.06c6.02,4.93,9.48,12.23,9.48,20.01v4.08c0,8.84,7.16,16,16,16s16-7.16,16-16v-4.08c0-17.42-7.73-33.74-21.21-44.77l-136.86-111.99c-10.36-8.46-25.42-8.47-35.84,0l-136.88,111.98c-13.48,11.04-21.21,27.35-21.21,44.77v167.35c0,24.86,20.23,45.09,45.09,45.09Z"/></svg>