<?xml version="1.0" encoding="UTF-8"?><svg id="Icon" xmlns="http://www.w3.org/2000/svg" viewBox="0 0 512 512"><path d="M182.32,480.02c-3.65,0-7.34-1.01-10.68-3.09-8.61-5.36-11.86-15.98-7.72-25.24h0s65.44-146.6,65.44-146.6c.58-1.29.19-2.34-.23-3-.42-.65-1.23-1.43-2.64-1.43h-54.96c-13.79,0-25.98-7.76-31.83-20.24-5.85-12.48-4-26.82,4.83-37.41L314.3,39.26c6.5-7.79,17.46-9.55,26.06-4.19,8.61,5.36,11.85,15.98,7.72,25.24l-65.44,146.6c-.58,1.29-.19,2.34.23,3,.42.65,1.23,1.43,2.64,1.43h54.96c13.79,0,25.98,7.76,31.83,20.24,5.85,12.48,4,26.82-4.83,37.41l-169.78,203.74c-3.97,4.77-9.62,7.28-15.38,7.28ZM283.77,125.89l-114.67,137.6c-.85,1.02-1,2.15-.43,3.35.56,1.2,1.52,1.81,2.85,1.81h54.96c11.96,0,22.98,5.99,29.49,16.02,6.51,10.03,7.48,22.54,2.61,33.46l-30.35,67.98,114.67-137.6c.85-1.02,1-2.15.43-3.35s-1.52-1.81-2.85-1.81h-54.96c-11.96,0-22.98-5.99-29.49-16.02-6.51-10.03-7.48-22.54-2.61-33.46l30.35-67.99Z"/></svg>