<?xml version="1.0" encoding="UTF-8"?><svg id="Icon" xmlns="http://www.w3.org/2000/svg" viewBox="0 0 512 512"><path d="M469.98,265.13l-155.25-62.6c-.52-.21-1.05-.39-1.57-.54l-2.92-22.11h107.91c7.65,0,14.24-5.42,15.7-12.93,1.47-7.51-2.59-15.01-9.69-17.89l-124.69-50.61-1.44-10.88c-.43-3.28-1.87-6.34-4.11-8.76l-26.5-28.67c-3.03-3.28-7.29-5.14-11.75-5.14s-8.72,1.86-11.75,5.14l-26.49,28.67c-2.24,2.43-3.68,5.49-4.11,8.76l-1.47,11.15-124.01,50.33c-7.12,2.89-11.18,10.43-9.67,17.97,1.5,7.48,8.07,12.86,15.69,12.86.05,0,.1,0,.15,0l107.25-1.01-3.09,23.36c-.3.1-.6.19-.9.31l-155.25,62.6c-7.11,2.86-11.18,10.37-9.72,17.89,1.46,7.52,8.05,12.95,15.71,12.95h137.79l-21.93,165.93c-1.16,8.76,5.01,16.8,13.77,17.96,5.34.71,10.4-1.32,13.81-4.99,2.11-1.51,3.87-3.56,5.07-6.07l58.99-123.09,58.99,123.09c1.39,2.9,3.55,5.19,6.11,6.75,2.9,2.77,6.81,4.44,11.02,4.44.7,0,1.4-.05,2.12-.14,8.76-1.16,14.92-9.2,13.77-17.96l-21.92-165.93h138.43c7.66,0,14.25-5.43,15.71-12.95,1.46-7.52-2.62-15.02-9.72-17.89ZM240.16,128.78h31.05l11.41,86.33-27.11,56.57-26.83-55.98,11.49-86.92ZM336.18,147.88h-30.17l-1.71-12.94,31.88,12.94ZM266.96,96.78h-22.55l11.28-12.2,11.28,12.2ZM177.78,147.09l29.25-11.87-1.53,11.61-27.71.26ZM130.47,263.97l62.89-25.36-3.35,25.36h-59.54ZM208.25,370.28l10.56-79.95c2.38-2.79,3.82-6.41,3.82-10.36,0-1.33-.18-2.61-.49-3.85l15.61,32.58-29.51,61.58ZM290.28,273.15l.15,1.13c-.67,1.77-1.06,3.68-1.06,5.69,0,3.5,1.14,6.73,3.05,9.37l10.83,81.98-30.01-62.62,17.04-35.55ZM321.34,263.97l-3.39-25.63,63.57,25.63h-60.18Z"/></svg>