<?xml version="1.0" encoding="UTF-8"?><svg id="Icon" xmlns="http://www.w3.org/2000/svg" viewBox="0 0 512 512"><path d="M288.52,256.09c0-56.26-42.14-102.86-96.52-109.89V48c0-8.84-7.16-16-16-16s-16,7.16-16,16v416c0,8.84,7.16,16,16,16s16-7.16,16-16v-98.01c54.38-7.03,96.52-53.63,96.52-109.89ZM192,333.58v-154.98c36.65,6.75,64.52,38.92,64.52,77.49s-27.87,70.74-64.52,77.49Z"/><path d="M306.62,365.38c-6.25-6.25-16.38-6.25-22.63,0-6.25,6.25-6.25,16.38,0,22.63l26.93,26.93c3.12,3.12,7.22,4.69,11.31,4.69s8.19-1.56,11.31-4.69c6.25-6.25,6.25-16.38,0-22.63l-26.93-26.93Z"/><path d="M383.3,240.09h-37.93c-8.84,0-16,7.16-16,16s7.16,16,16,16h37.93c8.84,0,16-7.16,16-16s-7.16-16-16-16Z"/><path d="M295.31,151.49c4.09,0,8.19-1.56,11.31-4.69l26.93-26.93c6.25-6.25,6.25-16.38,0-22.63-6.25-6.25-16.38-6.25-22.63,0l-26.93,26.93c-6.25,6.25-6.25,16.38,0,22.63,3.12,3.12,7.22,4.69,11.31,4.69Z"/></svg>