<?xml version="1.0" encoding="UTF-8"?><svg id="Icon" xmlns="http://www.w3.org/2000/svg" viewBox="0 0 512 512"><path d="M288,80H112c-26.47,0-48,21.51-48,47.94v160.11c0,26.44,21.53,47.94,48,47.94h80v37.37l-31.31,31.31c-6.25,6.25-6.25,16.38,0,22.63,3.12,3.12,7.22,4.69,11.31,4.69s8.19-1.56,11.31-4.69l24.69-24.69,24.69,24.69c3.12,3.12,7.22,4.69,11.31,4.69s8.19-1.56,11.31-4.69c6.25-6.25,6.25-16.38,0-22.63l-31.31-31.31v-37.37h32c8.84,0,16-7.16,16-16s-7.16-16-16-16H112c-8.82,0-16-7.15-16-15.94V127.94c0-8.79,7.18-15.94,16-15.94h176c8.84,0,16-7.16,16-16s-7.16-16-16-16Z"/><path d="M384,144c26.47,0,48-21.53,48-48s-21.53-48-48-48-48,21.53-48,48,21.53,48,48,48ZM384,80c8.82,0,16,7.18,16,16s-7.18,16-16,16-16-7.18-16-16,7.18-16,16-16Z"/><path d="M418.98,160h-69.97c-24.82,0-45.02,20.16-45.02,44.93v79.62c0,17.27,10.1,32.96,25.55,40.39v87.95c0,19.36,15.77,35.1,35.16,35.1h38.82c19.39,0,35.16-15.75,35.16-35.1v-87.97c15.3-7.46,25.31-23.15,25.31-40.36v-79.62c0-24.77-20.19-44.93-45.02-44.93ZM432,284.55c0,5.29-3.5,10.26-8.6,12.13-9.99,3.74-16.71,13.39-16.71,24.03v92.17c0,1.71-1.42,3.1-3.16,3.1h-38.82c-1.74,0-3.16-1.39-3.16-3.1v-92.17c0-10.64-6.71-20.29-16.71-24.03l-.19-.07c-5.17-1.86-8.65-6.71-8.65-12.06v-79.62c0-7.13,5.84-12.93,13.02-12.93h69.97c7.18,0,13.02,5.8,13.02,12.93v79.62Z"/></svg>