<?xml version="1.0" encoding="UTF-8"?><svg id="Icon" xmlns="http://www.w3.org/2000/svg" viewBox="0 0 512 512"><path d="M404.36,180.36c0-81.81-66.56-148.36-148.36-148.36S107.64,98.56,107.64,180.36c0,48.5,23.4,91.65,59.5,118.73l-22.98,162.66c-.95,6.7,2.42,13.27,8.42,16.41,2.34,1.23,4.89,1.83,7.42,1.83,3.94,0,7.84-1.45,10.86-4.25l85.14-78.69,85.14,78.69c4.97,4.59,12.29,5.56,18.28,2.42,5.99-3.14,9.36-9.71,8.42-16.41l-22.96-162.68c36.09-27.09,59.48-70.22,59.48-118.72ZM329.88,421.77l-63.02-58.25c-6.13-5.67-15.59-5.67-21.72,0l-63.01,58.24,14.87-105.29c18.09,7.87,38.04,12.25,59,12.25s40.93-4.38,59.02-12.26l14.86,105.3Z"/></svg>