<?xml version="1.0" encoding="UTF-8"?><svg id="Icon" xmlns="http://www.w3.org/2000/svg" viewBox="0 0 512 512"><path d="M64,335.68c0,26.65,21.53,48.32,48,48.32h22.4v48c0,8.84,7.16,16,16,16h211.2c8.84,0,16-7.16,16-16v-48h22.4c26.47,0,48-21.68,48-48.32v-95.35c0-26.65-21.53-48.32-48-48.32h-22.4v-112c0-8.84-7.16-16-16-16h-211.2c-8.84,0-16,7.16-16,16v112h-22.4c-26.47,0-48,21.68-48,48.32v95.35ZM345.6,416h-179.2v-108.8h179.2v108.8ZM166.4,96h179.2v96h-179.2v-96ZM96,240.32c0-9,7.18-16.32,16-16.32h288c8.82,0,16,7.32,16,16.32v95.35c0,9-7.18,16.32-16,16.32h-22.4v-60.8c0-8.84-7.16-16-16-16h-211.2c-8.84,0-16,7.16-16,16v60.8h-22.4c-8.82,0-16-7.32-16-16.32v-95.35Z"/></svg>