<?xml version="1.0" encoding="UTF-8"?><svg id="Icon" xmlns="http://www.w3.org/2000/svg" viewBox="0 0 512 512"><path d="M475.08,244.69l-50.78-50.78c-6.25-6.25-16.38-6.25-22.63,0s-6.25,16.38,0,22.63l23.46,23.46h-132.71c-8.84,0-16,7.16-16,16s7.16,16,16,16h132.71l-23.46,23.46c-6.25,6.25-6.25,16.38,0,22.63,3.12,3.12,7.22,4.69,11.31,4.69s8.19-1.56,11.31-4.69l50.78-50.78c6.25-6.25,6.25-16.38,0-22.63Z"/><path d="M157.01,295.46c-6.25,6.25-6.25,16.38,0,22.63,3.12,3.12,7.22,4.69,11.31,4.69,4.09,0,8.19-1.56,11.31-4.69l50.78-50.78c3-3,4.69-7.07,4.69-11.31s-1.69-8.31-4.69-11.31l-50.78-50.78c-6.25-6.25-16.38-6.25-22.63,0-6.25,6.25-6.25,16.38,0,22.63l23.46,23.46H47.77c-8.84,0-16,7.16-16,16s7.16,16,16,16h132.71l-23.46,23.46Z"/><path d="M75.39,184.42c8.84,0,16-7.16,16-16v-36.56c0-6.61,6.98-12.19,15.25-12.19h242.17c8.27,0,15.25,5.58,15.25,12.19v36.56c0,8.84,7.16,16,16,16s16-7.16,16-16v-36.56c0-24.37-21.2-44.19-47.25-44.19H106.64c-26.05,0-47.25,19.82-47.25,44.19v36.56c0,8.84,7.16,16,16,16Z"/><path d="M381.22,327.58c-8.84,0-16,7.16-16,16v36.56c0,6.61-6.98,12.19-15.25,12.19H107.8c-8.27,0-15.25-5.58-15.25-12.19v-36.56c0-8.84-7.16-16-16-16s-16,7.16-16,16v36.56c0,24.37,21.2,44.19,47.25,44.19h242.17c26.05,0,47.25-19.82,47.25-44.19v-36.56c0-8.84-7.16-16-16-16Z"/></svg>