<?xml version="1.0" encoding="UTF-8"?><svg id="Icon" xmlns="http://www.w3.org/2000/svg" viewBox="0 0 512 512"><path d="M417.03,320h-7.13v-18.16c0-16.36-13.31-29.66-29.66-29.66h-27.83c-16.36,0-29.66,13.31-29.66,29.66v18.16h-23.16v-18.16c0-16.36-13.31-29.66-29.66-29.66h-27.83c-16.36,0-29.66,13.31-29.66,29.66v18.16h-23.16v-18.16c0-16.36-13.31-29.66-29.66-29.66h-27.83c-16.36,0-29.66,13.31-29.66,29.66v18.16h-7.13c-34.72,0-62.97,28.25-62.97,62.97v2.06c0,34.72,28.25,62.97,62.97,62.97h322.06c34.72,0,62.97-28.25,62.97-62.97v-2.06c0-34.72-28.25-62.97-62.97-62.97ZM354.74,304.18h23.16v15.82h-23.16v-15.82ZM244.42,304.18h23.16v15.82h-23.16v-15.82ZM134.1,304.18h23.16v15.82h-23.16v-15.82ZM448,385.03c0,17.08-13.89,30.97-30.97,30.97H94.97c-17.08,0-30.97-13.89-30.97-30.97v-2.06c0-17.08,13.89-30.97,30.97-30.97h322.06c17.08,0,30.97,13.89,30.97,30.97v2.06Z"/><circle cx="208" cy="384" r="16"/><circle cx="112" cy="384" r="16"/><circle cx="304" cy="384" r="16"/><circle cx="400" cy="384" r="16"/><path d="M113.5,96h117.12l-14.07,29.56h-18.45c-24.03,0-43.58,19.55-43.58,43.58s19.55,43.58,43.58,43.58h87.34c8.84,0,16-7.16,16-16v-11.58h24.35c4.43,11.18,13.35,20.1,24.52,24.52v27.56c0,8.84,7.16,16,16,16s16-7.16,16-16v-27.56c16.13-6.39,27.58-22.14,27.58-40.52,0-24.03-19.55-43.58-43.58-43.58-18.38,0-34.13,11.45-40.52,27.58h-24.35v-11.58c0-8.84-7.16-16-16-16h-33.45l14.07-29.56h132.43c8.84,0,16-7.16,16-16s-7.16-16-16-16h-140.98c-1.02-.1-2.03-.1-3.03,0H113.5c-8.84,0-16,7.16-16,16s7.16,16,16,16ZM366.32,157.56c6.39,0,11.58,5.19,11.58,11.58s-5.19,11.58-11.58,11.58-11.58-5.19-11.58-11.58,5.19-11.58,11.58-11.58ZM269.44,180.72h-71.34c-6.39,0-11.58-5.19-11.58-11.58s5.19-11.58,11.58-11.58h71.34v23.16Z"/></svg>