<?xml version="1.0" encoding="UTF-8"?><svg id="Icon" xmlns="http://www.w3.org/2000/svg" viewBox="0 0 512 512"><path d="M464,96h-208c-82.53,0-150.62,63.26-158.64,144h-49.36c-8.84,0-16,7.16-16,16v144c0,8.84,7.16,16,16,16h208c82.53,0,150.62-63.26,158.64-144h49.36c8.84,0,16-7.16,16-16V112c0-8.84-7.16-16-16-16ZM448,240h-48.57c-8.84,0-16,7.16-16,16,0,70.58-57.17,128-127.43,128H64v-112h48.57c8.84,0,16-7.16,16-16,0-70.58,57.17-128,127.43-128h192v112Z"/><path d="M156.8,256c0,54.91,44.5,99.59,99.2,99.59s99.2-44.67,99.2-99.59-44.5-99.59-99.2-99.59-99.2,44.67-99.2,99.59ZM323.2,256c0,37.27-30.15,67.59-67.2,67.59s-67.2-30.32-67.2-67.59,30.15-67.59,67.2-67.59,67.2,30.32,67.2,67.59Z"/></svg>