<?xml version="1.0" encoding="UTF-8"?><svg id="Icon" xmlns="http://www.w3.org/2000/svg" viewBox="0 0 512 512"><path d="M123.48,420.51c-8.91,0-16.15-2.7-21.53-8.03-9.3-9.21-10.89-23.29-10.47-44.5v-61.12s0-.09,0-.13c.26-31.7-3.63-32.62-15.17-35.37-7.25-1.73-12.35-8.23-12.3-15.68.05-7.45,5.25-13.88,12.52-15.5,9.39-2.09,10.67-4.44,11.51-6,3.24-5.98,3.51-19.37,3.43-28.92,0-.04,0-.09,0-.13v-61.12c-.42-21.2,1.18-35.29,10.47-44.5,5.6-5.55,13.2-8.25,22.62-8.02h12.66c8.84,0,16,7.16,16,16s-7.16,16-16,16h-12.77c-.57,2.64-1.22,8.27-.98,20.04,0,.11,0,.21,0,.32v61.21c.17,21.61-1.94,34.47-7.3,44.35-1.3,2.39-2.75,4.52-4.32,6.42,9.53,11.53,11.8,28.42,11.62,51.08v61.21c0,.11,0,.21,0,.32-.24,11.77.41,17.4.98,20.04h12.77c8.84,0,16,7.16,16,16s-7.16,16-16,16h-12.66c-.36,0-.73.01-1.08.01Z"/><path d="M388.52,420.51c-.36,0-.72,0-1.08-.01h-12.66c-8.84,0-16-7.16-16-16s7.16-16,16-16h12.77c.57-2.64,1.22-8.27.99-20.04,0-.11,0-.21,0-.32v-61.21c-.17-21.61,1.94-34.47,7.3-44.35,1.3-2.39,2.75-4.52,4.32-6.42-9.53-11.53-11.8-28.42-11.62-51.08v-61.21c0-.11,0-.21,0-.32.24-11.77-.41-17.4-.98-20.04h-12.77c-8.84,0-16-7.16-16-16s7.16-16,16-16h12.66c9.4-.23,17.02,2.47,22.62,8.02,9.3,9.21,10.89,23.29,10.47,44.5v61.12s0,.09,0,.13c-.26,31.7,3.63,32.62,15.17,35.37,7.25,1.73,12.35,8.23,12.3,15.68-.05,7.45-5.25,13.88-12.52,15.5-9.39,2.09-10.67,4.44-11.51,6-3.24,5.98-3.51,19.37-3.43,28.92,0,.04,0,.09,0,.13v61.12c.42,21.2-1.18,35.29-10.47,44.5-5.39,5.33-12.63,8.03-21.53,8.03Z"/><path d="M319.9,361.68c-17.37,0-31.5-14.13-31.5-31.5s14.13-31.5,31.5-31.5,31.5,14.13,31.5,31.5-14.13,31.5-31.5,31.5Z"/><path d="M193.89,361.68c-17.37,0-31.5-14.13-31.5-31.5s14.13-31.5,31.5-31.5,31.5,14.13,31.5,31.5-14.13,31.5-31.5,31.5Z"/></svg>