<?xml version="1.0" encoding="UTF-8"?><svg id="Icon" xmlns="http://www.w3.org/2000/svg" viewBox="0 0 512 512"><path d="M210.2,160H61.8c-16.43,0-29.8,13.92-29.8,31.03v209.94c0,17.11,13.37,31.03,29.8,31.03h50.2c8.84,0,16-7.16,16-16v-32h16v32c0,8.84,7.16,16,16,16h50.2c16.43,0,29.8-13.92,29.8-31.03v-209.94c0-17.11-13.37-31.03-29.8-31.03ZM176,320h-80c-8.84,0-16-7.16-16-16s7.16-16,16-16h80c8.84,0,16,7.16,16,16s-7.16,16-16,16ZM176,256h-80c-8.84,0-16-7.16-16-16s7.16-16,16-16h80c8.84,0,16,7.16,16,16s-7.16,16-16,16Z"/><path d="M450.2,96h-148.41c-16.71,0-29.8,15.39-29.8,35.04v265.92c0,19.65,13.09,35.04,29.8,35.04h50.2c8.84,0,16-7.16,16-16v-44.8h16v44.8c0,8.84,7.16,16,16,16h50.2c16.71,0,29.8-15.39,29.8-35.04V131.04c0-19.65-13.09-35.04-29.8-35.04ZM416,320h-80c-8.84,0-16-7.16-16-16s7.16-16,16-16h80c8.84,0,16,7.16,16,16s-7.16,16-16,16ZM416,256h-80c-8.84,0-16-7.16-16-16s7.16-16,16-16h80c8.84,0,16,7.16,16,16s-7.16,16-16,16ZM416,192h-80c-8.84,0-16-7.16-16-16s7.16-16,16-16h80c8.84,0,16,7.16,16,16s-7.16,16-16,16Z"/></svg>