<?xml version="1.0" encoding="UTF-8"?><svg id="Icon" xmlns="http://www.w3.org/2000/svg" viewBox="0 0 512 512"><path d="M210.2,432h-50.2c-8.84,0-16-7.16-16-16v-32h-16v32c0,8.84-7.16,16-16,16h-50.2c-16.43,0-29.8-13.92-29.8-31.03v-209.94c0-17.11,13.37-31.03,29.8-31.03h148.41c16.43,0,29.8,13.92,29.8,31.03v209.94c0,17.11-13.37,31.03-29.8,31.03ZM176,400h31.99v-208s-143.99,0-143.99,0v208h32v-32c0-8.84,7.16-16,16-16h48c8.84,0,16,7.16,16,16v32Z"/><path d="M176,320h-80c-8.84,0-16-7.16-16-16s7.16-16,16-16h80c8.84,0,16,7.16,16,16s-7.16,16-16,16Z"/><path d="M176,256h-80c-8.84,0-16-7.16-16-16s7.16-16,16-16h80c8.84,0,16,7.16,16,16s-7.16,16-16,16Z"/><path d="M450.2,432h-50.2c-8.84,0-16-7.16-16-16v-44.8h-16v44.8c0,8.84-7.16,16-16,16h-50.2c-16.71,0-29.8-15.39-29.8-35.04V131.04c0-19.65,13.09-35.04,29.8-35.04h148.41c16.71,0,29.8,15.39,29.8,35.04v265.92c0,19.65-13.09,35.04-29.8,35.04ZM305.04,401.1h.01-.01ZM416,400h31.51c.25-.7.49-1.73.49-3.04V131.04c0-1.32-.24-2.34-.49-3.04h-143.02c-.25.7-.49,1.73-.49,3.04v265.92c0,1.32.24,2.34.49,3.04h31.51v-44.8c0-8.84,7.16-16,16-16h48c8.84,0,16,7.16,16,16v44.8Z"/><path d="M416,320h-80c-8.84,0-16-7.16-16-16s7.16-16,16-16h80c8.84,0,16,7.16,16,16s-7.16,16-16,16Z"/><path d="M416,256h-80c-8.84,0-16-7.16-16-16s7.16-16,16-16h80c8.84,0,16,7.16,16,16s-7.16,16-16,16Z"/><path d="M416,192h-80c-8.84,0-16-7.16-16-16s7.16-16,16-16h80c8.84,0,16,7.16,16,16s-7.16,16-16,16Z"/></svg>