<?xml version="1.0" encoding="UTF-8"?><svg id="Icon" xmlns="http://www.w3.org/2000/svg" viewBox="0 0 512 512"><path d="M399.83,312.83v-113.66c-.02-15.8-8.52-30.51-22.26-38.45l-99.36-56.78c-13.7-7.91-30.71-7.91-44.34-.04l-99.48,56.85c-13.68,7.9-22.19,22.62-22.2,38.43v113.64c.02,15.8,8.52,30.51,22.26,38.45l99.36,56.78c6.86,3.96,14.54,5.93,22.22,5.93s15.31-1.97,22.12-5.9l99.48-56.85c13.68-7.9,22.19-22.62,22.2-38.41ZM249.8,131.66c1.91-1.1,4.04-1.65,6.19-1.65s4.33.56,6.28,1.69l88.74,50.71-95.01,55.23-95.01-55.23,88.8-50.75ZM150.38,323.53c-3.82-2.21-6.2-6.32-6.2-10.71v-103.17l95.83,55.7v109.39l-89.62-51.21ZM361.68,323.49l-89.68,51.25v-109.39l95.83-55.7v103.17c-.01,4.41-2.39,8.51-6.14,10.68Z"/><path d="M88.26,184c2.67,0,5.37-.67,7.85-2.07,7.69-4.35,10.41-14.11,6.06-21.8-23.43-41.48-25.93-68.64-18.33-76.32,7.54-7.62,38.1-6.29,91.4,28.57,7.39,4.84,17.31,2.76,22.15-4.63,4.84-7.4,2.76-17.31-4.63-22.15-26.56-17.37-51.71-29.3-72.72-34.5-17.9-4.43-42.65-6.25-58.93,10.2-21.14,21.36-16.45,62.05,13.21,114.57,2.94,5.21,8.36,8.13,13.95,8.13Z"/><path d="M336.76,112.38c53.3-34.86,83.86-36.18,91.4-28.57,3.83,3.87,4.85,12.24,2.86,23.55-2.54,14.48-9.87,32.73-21.19,52.77-4.35,7.69-1.63,17.45,6.06,21.8,2.49,1.4,5.19,2.07,7.85,2.07,5.58,0,11-2.93,13.95-8.13,29.67-52.52,34.36-93.2,13.21-114.57-16.28-16.44-41.03-14.62-58.93-10.2-21.02,5.2-46.17,17.12-72.72,34.5-7.4,4.84-9.47,14.75-4.63,22.15s14.75,9.47,22.15,4.63Z"/><path d="M175.24,399.62c-53.3,34.86-83.86,36.18-91.4,28.57-3.83-3.87-4.85-12.24-2.86-23.55,2.54-14.48,9.87-32.73,21.19-52.77,4.35-7.69,1.63-17.45-6.06-21.8-7.7-4.35-17.46-1.63-21.8,6.06-29.67,52.52-34.36,93.2-13.21,114.57,9.92,10.02,22.98,13.26,35.73,13.26,8.17,0,16.21-1.33,23.21-3.06,21.02-5.2,46.17-17.12,72.72-34.5,7.4-4.84,9.47-14.75,4.63-22.15-4.84-7.4-14.75-9.47-22.15-4.63Z"/><path d="M437.69,336.13c-4.35-7.69-14.11-10.41-21.8-6.06-7.69,4.35-10.41,14.11-6.06,21.8,23.43,41.48,25.93,68.64,18.33,76.32-7.54,7.62-38.1,6.29-91.4-28.57-7.4-4.84-17.31-2.76-22.15,4.63-4.84,7.4-2.76,17.31,4.63,22.15,26.56,17.37,51.71,29.3,72.72,34.5,6.99,1.73,15.03,3.06,23.2,3.06,12.74,0,25.81-3.24,35.73-13.26,21.14-21.36,16.45-62.05-13.21-114.57Z"/></svg>
