<?xml version="1.0" encoding="UTF-8"?><svg id="Icon" xmlns="http://www.w3.org/2000/svg" viewBox="0 0 512 512"><path d="M256,480c59.83,0,116.08-23.3,158.39-65.61s65.61-98.56,65.61-158.39-23.3-116.08-65.61-158.39-98.56-65.61-158.39-65.61-116.08,23.3-158.39,65.61-65.61,98.56-65.61,158.39,23.3,116.08,65.61,158.39,98.56,65.61,158.39,65.61ZM427.05,168.84l-155.05,63.34V64.67c67.69,5.61,125.54,46.48,155.05,104.16ZM240,64.67v191.33c0,5.33,2.65,10.31,7.08,13.28,2.68,1.8,5.79,2.72,8.92,2.72,2.05,0,4.1-.39,6.05-1.19l177.13-72.37c5.72,18.18,8.82,37.51,8.82,57.55,0,105.87-86.13,192-192,192s-192-86.13-192-192S141.59,72.83,240,64.67Z"/><path d="M299.91,161.07h18.67v18.67c0,8.84,7.16,16,16,16s16-7.16,16-16v-18.67h18.67c8.84,0,16-7.16,16-16s-7.16-16-16-16h-18.67v-18.67c0-8.84-7.16-16-16-16s-16,7.16-16,16v18.67h-18.67c-8.84,0-16,7.16-16,16s7.16,16,16,16Z"/></svg>