<?xml version="1.0" encoding="UTF-8"?><svg id="Icon" xmlns="http://www.w3.org/2000/svg" viewBox="0 0 512 512"><path d="M256,480c-59.83,0-116.08-23.3-158.39-65.61s-65.61-98.56-65.61-158.39,23.3-116.08,65.61-158.39,98.56-65.61,158.39-65.61,116.08,23.3,158.39,65.61c42.31,42.31,65.61,98.56,65.61,158.39s-23.3,116.08-65.61,158.39c-42.31,42.31-98.56,65.61-158.39,65.61ZM256,64c-105.87,0-192,86.13-192,192s86.13,192,192,192,192-86.13,192-192-86.13-192-192-192Z"/><path d="M352,368h-192c-8.84,0-16-7.16-16-16v-160c0-6.06,3.42-11.6,8.84-14.31l96-48c4.5-2.25,9.81-2.25,14.31,0l96,48c5.42,2.71,8.84,8.25,8.84,14.31v160c0,8.84-7.16,16-16,16ZM176,336h160v-134.11l-80-40-80,40v134.11Z"/></svg>