<?xml version="1.0" encoding="UTF-8"?><svg id="Icon" xmlns="http://www.w3.org/2000/svg" viewBox="0 0 512 512"><rect x="114.07" y="114.28" width="35.99" height="35.95"/><path d="M199.88,64.5H64.25v135.5h135.63V64.5ZM167.88,168h-71.63v-71.5h71.63v71.5Z"/><rect x="361.88" y="114.28" width="35.99" height="35.95"/><path d="M312.06,64.5v135.5h135.63V64.5h-135.63ZM415.7,168h-71.63v-71.5h71.63v71.5Z"/><rect x="114.07" y="361.78" width="35.99" height="35.95"/><path d="M64.25,447.5h135.63v-135.5H64.25v135.5ZM96.25,344h71.63v71.5h-71.63v-71.5Z"/><rect x="418.11" y="324.71" width="27.03" height="27"/><rect x="229.03" y="67" width="27.03" height="27"/><rect x="229.03" y="418" width="27.03" height="27"/><rect x="274.86" y="418" width="27.03" height="27"/><rect x="418.18" y="216.38" width="27.03" height="27"/><polygon points="391.61 270.62 418.18 270.62 418.18 297.62 445.21 297.62 445.21 270.62 418.64 270.62 418.64 243.62 391.61 243.62 391.61 270.62"/><polygon points="387.59 327.63 360.56 327.63 360.56 350.18 341.58 350.18 341.58 382.18 405.12 382.18 405.12 350.18 387.59 350.18 387.59 327.63"/><rect x="303.92" y="314.5" width="27.03" height="27"/><rect x="362.64" y="285.37" width="27.03" height="27"/><polygon points="140.74 284.12 140.74 257.12 140.74 257.12 140.74 227.58 67.21 227.58 67.21 259.58 113.71 259.58 113.71 284.12 140.74 284.12"/><polygon points="285.46 94.14 253.46 94.14 253.46 168 229.03 168 229.03 200 285.46 200 285.46 94.14"/><polygon points="258.55 314.31 226.55 314.31 226.55 383.96 301.89 383.96 301.89 351.96 258.55 351.96 258.55 314.31"/><polygon points="415.63 415.33 368.88 415.33 368.88 391 341.84 391 341.84 415.33 320.68 415.33 320.68 447.33 447.63 447.33 447.63 377.68 415.63 377.68 415.63 415.33"/><polygon points="284.07 285.5 284.07 253.5 197.56 253.5 197.56 229.06 170.53 229.06 170.53 256 170.53 256.06 170.53 283 184.04 283 184.04 285.5 284.07 285.5"/><polygon points="344.06 273.25 379.77 273.25 379.77 241.25 344.06 241.25 344.06 217.63 312.06 217.63 312.06 298.87 344.06 298.87 344.06 273.25"/></svg>