<?xml version="1.0" encoding="UTF-8"?><svg id="Icon" xmlns="http://www.w3.org/2000/svg" viewBox="0 0 512 512"><path d="M376.72,332.73c1.56-1.2,3.05-2.5,4.48-3.93,12.36-12.39,16.08-30.2,9.73-46.49l-.33-.87c-5.76-14.63.9-30.99,15.17-37.52l1.27-.55c16.04-7.02,26.01-22.27,26.01-39.79s-9.87-32.61-25.78-39.66l-.76-.38-.32-.11c-14.55-6.38-21.38-22.97-15.54-37.78l.3-.8c6.35-16.34,2.63-34.12-9.75-46.47-12.37-12.34-30.15-16.07-46.43-9.75l-.84.34c-3.52,1.38-7.2,2.08-10.92,2.08-11.67,0-22.23-6.97-26.87-17.68l-.35-.81c-7.01-16.06-22.26-26.04-39.8-26.04s-32.79,9.98-39.8,26.04l-.31.74c-6.4,14.62-22.99,21.5-37.81,15.67l-.83-.34c-16.28-6.34-34.07-2.6-46.41,9.75-12.41,12.38-16.14,30.19-9.75,46.5l.32.85c5.83,14.77-1.03,31.34-15.62,37.71l-.51.23c-.13.05-.25.11-.38.17-16,7.02-25.93,22.23-25.93,39.72s9.97,32.79,26.02,39.8l.71.3c.07.03.15.06.22.09,14.48,6.44,21.27,22.97,15.46,37.73l-.26.69c-6.38,16.36-2.66,34.21,9.72,46.59,1.67,1.67,3.45,3.18,5.31,4.54l-41.66,72.47c-3.15,5.48-2.78,12.3.94,17.4,3.72,5.11,10.1,7.54,16.28,6.22l43.61-9.34,13.55,43.26c1.9,6.06,7.2,10.42,13.51,11.12.59.07,1.18.1,1.76.1,5.67,0,10.97-3.02,13.85-8l50.02-86.66c2.57.46,5.2.72,7.9.72h.06c2.97,0,5.87-.29,8.68-.85l50.57,86.84c2.89,4.96,8.17,7.95,13.82,7.95.59,0,1.19-.03,1.79-.1,6.3-.71,11.59-5.07,13.48-11.12l13.55-43.26,43.61,9.34c6.18,1.32,12.56-1.11,16.28-6.22,3.72-5.11,4.09-11.92.94-17.4l-42-73.06ZM188.5,418.98l-7.01-22.39c-2.47-7.89-10.54-12.59-18.62-10.86l-22.75,4.87,28.55-49.66c2.9-.51,5.78-1.32,8.62-2.44l.84-.32c14.64-5.76,31,.9,37.52,15.17l.93,2.76.69.76c1.07,2.11,2.3,4.09,3.64,5.96l-32.41,56.14ZM255.91,348.61c-4.81,0-8.39-2.33-10.36-6.75l-1.05-3.12-.7-.68c-14.17-28.38-47.43-41.39-77.29-29.7l-.87.33c-2.58,1.02-5.08,1.17-7.42.44l-.14-.05c-1.68-.55-3.24-1.53-4.63-2.93-3.46-3.46-4.34-7.74-2.52-12.35l.25-.66c12.09-30.84-2.16-65.35-32.49-78.69l-.19-.08c-.16-.07-.32-.14-.49-.21l-.33-.14c-4.41-1.96-6.73-5.57-6.73-10.43s2.21-8.26,6.41-10.25l1.3-.58c30.35-13.31,44.63-47.82,32.54-78.64l-.32-.85c-1.79-4.54-.91-8.76,2.56-12.22,3.39-3.39,7.53-4.3,11.99-2.65l.05.02c.46.21.92.39,1.39.55,30.85,11.83,65.21-2.59,78.41-32.99l.29-.68c1.96-4.42,5.57-6.76,10.43-6.76s8.49,2.35,10.45,6.8l.3.71c9.74,22.49,31.83,37.02,56.26,37.02,7.43,0,14.74-1.33,21.74-3.97l.34-.08,1.47-.63c4.47-1.66,8.62-.74,12.03,2.66,3.45,3.44,4.31,7.68,2.5,12.28l-.3.8c-12.03,30.85,2.23,65.33,32.55,78.62l1.1.53.29.1c4.14,1.99,6.32,5.5,6.32,10.21s-2.33,8.47-6.74,10.44l-.63.22-.65.33c-30.14,13.42-44.29,47.77-32.24,78.5l.32.83c1.8,4.57.91,8.83-2.54,12.29-.89.89-1.85,1.61-2.87,2.17h-10.18c-30.94-12.1-65.53,2.28-78.79,32.81l-.28.68c-1.97,4.42-5.58,6.76-10.46,6.76h-.06ZM350.32,385.72c-8.08-1.73-16.15,2.98-18.62,10.86l-7.07,22.57-33.14-56.9c1.66-2.39,3.12-4.97,4.33-7.74l.3-.73c6.36-14.48,22.74-21.34,37.46-15.73l.94.41c3.34,1.32,6.74,2.22,10.15,2.71l28.4,49.41-22.75-4.87Z"/><path d="M279.24,173.26l-36.19,36.19-10.28-10.28c-6.25-6.25-16.38-6.25-22.63,0-6.25,6.25-6.25,16.38,0,22.63l21.59,21.59c3,3,7.07,4.69,11.31,4.69s8.31-1.69,11.31-4.69l47.5-47.5c6.25-6.25,6.25-16.38,0-22.63-6.25-6.25-16.38-6.25-22.63,0Z"/><path d="M354.94,203.58c0-54.56-44.38-98.94-98.94-98.94s-98.94,44.38-98.94,98.94,44.38,98.94,98.94,98.94,98.94-44.38,98.94-98.94ZM256,270.52c-36.91,0-66.94-30.03-66.94-66.94s30.03-66.94,66.94-66.94,66.94,30.03,66.94,66.94-30.03,66.94-66.94,66.94Z"/></svg>