<?xml version="1.0" encoding="UTF-8"?><svg id="Icon" xmlns="http://www.w3.org/2000/svg" viewBox="0 0 512 512"><path d="M432,416H80c-8.84,0-16-7.16-16-16s7.16-16,16-16h352c8.84,0,16,7.16,16,16s-7.16,16-16,16Z"/><path d="M432,336H80c-8.84,0-16-7.16-16-16s7.16-16,16-16h352c8.84,0,16,7.16,16,16s-7.16,16-16,16Z"/><path d="M416.99,256H95.01c-17.1,0-31.01-13.91-31.01-31.01v-97.98c0-17.1,13.91-31.01,31.01-31.01h321.98c17.1,0,31.01,13.91,31.01,31.01v97.98c0,17.1-13.91,31.01-31.01,31.01ZM96,224h320v-96H96v96Z"/></svg>