<?xml version="1.0" encoding="UTF-8"?><svg id="Icon" xmlns="http://www.w3.org/2000/svg" viewBox="0 0 512 512"><path d="M445.96,401.52L269.16,95.28c-2.71-4.7-7.73-7.6-13.16-7.6s-10.44,2.9-13.16,7.6L66.03,401.52c-2.71,4.7-2.71,10.49,0,15.19,2.72,4.7,7.73,7.6,13.16,7.6h353.61c5.43,0,10.44-2.9,13.16-7.6,2.72-4.7,2.72-10.49,0-15.19ZM89.06,403.42L256,114.27l166.94,289.15H89.06Z"/><path d="M238.56,306.96c0,9.63,7.81,17.44,17.44,17.44s17.44-7.81,17.44-17.44-7.81-17.44-17.44-17.44-17.44,7.81-17.44,17.44Z"/><path d="M256,333.55c-4.84,0-9.37-1.3-13.28-3.56l-29.91,51.83c12.71,7.34,27.45,11.55,43.19,11.55s30.52-4.22,43.23-11.58l-29.91-51.83c-3.92,2.28-8.47,3.59-13.33,3.59Z"/><path d="M242.82,283.87l-30-51.77c-25.84,14.94-43.23,42.87-43.23,74.86h0s59.82,0,59.82,0c0-9.89,5.4-18.51,13.41-23.09Z"/><path d="M282.59,306.96h59.82c0-31.97-17.37-59.89-43.18-74.83l-29.91,51.83c7.93,4.6,13.26,13.18,13.26,23Z"/></svg>