<?xml version="1.0" encoding="UTF-8"?><svg id="Icon" xmlns="http://www.w3.org/2000/svg" viewBox="0 0 512 512"><path d="M80,96c-26.47,0-48,21.53-48,48v224c0,26.47,21.53,48,48,48s48-21.53,48-48v-224c0-26.47-21.53-48-48-48ZM96,368c0,8.82-7.18,16-16,16s-16-7.18-16-16v-224c0-8.82,7.18-16,16-16s16,7.18,16,16v224Z"/><path d="M192,96c-26.47,0-48,21.53-48,48v224c0,26.47,21.53,48,48,48s48-21.53,48-48v-224c0-26.47-21.53-48-48-48ZM208,368c0,8.82-7.18,16-16,16s-16-7.18-16-16v-224c0-8.82,7.18-16,16-16s16,7.18,16,16v224Z"/><path d="M304,96c-26.47,0-48,21.53-48,48v224c0,26.47,21.53,48,48,48s48-21.53,48-48v-224c0-26.47-21.53-48-48-48ZM320,368c0,8.82-7.18,16-16,16s-16-7.18-16-16v-224c0-8.82,7.18-16,16-16s16,7.18,16,16v224Z"/><path d="M480,144h-16c0-26.47-21.53-48-48-48s-48,21.53-48,48v224c0,26.47,21.53,48,48,48s48-21.53,48-48v-192h16c8.84,0,16-7.16,16-16s-7.16-16-16-16ZM432,368c0,8.82-7.18,16-16,16s-16-7.18-16-16v-224c0-8.82,7.18-16,16-16s16,7.18,16,16v224Z"/></svg>