<?xml version="1.0" encoding="UTF-8"?><svg id="Icon" xmlns="http://www.w3.org/2000/svg" viewBox="0 0 512 512"><path d="M318.68,255.62c-8.84,0-16,7.16-16,16v125.16c0,8.84,7.16,16,16,16s16-7.16,16-16v-125.16c0-8.84-7.16-16-16-16Z"/><path d="M193.52,255.62c-8.84,0-16,7.16-16,16v125.16c0,8.84,7.16,16,16,16s16-7.16,16-16v-125.16c0-8.84-7.16-16-16-16Z"/><path d="M256.1,286.9c-8.84,0-16,7.16-16,16v125.16c0,8.84,7.16,16,16,16s16-7.16,16-16v-125.16c0-8.84-7.16-16-16-16Z"/><path d="M380.16,166.37c-5.19-26.52-18.81-50.76-39.06-69.21-23.35-21.27-53.57-32.98-85.1-32.98-48.37,0-91.94,27.53-113.14,70.81-21.1,6.3-40.09,18.88-54.11,35.99-15.96,19.46-24.74,43.9-24.74,68.83,0,31.91,13.86,62.24,38.04,83.21,6.67,5.79,16.78,5.07,22.57-1.6s5.07-16.78-1.6-22.57c-17.16-14.89-27.01-36.41-27.01-59.04,0-36.03,25.94-67.83,61.69-75.62,5.12-1.12,9.37-4.67,11.37-9.51,14.71-35.53,48.84-58.49,86.94-58.49,23.54,0,46.11,8.75,63.55,24.64,17.25,15.71,28.06,37.03,30.45,60.06.1,1.29.36,2.55.76,3.75.75,2.27,1.99,4.3,3.58,5.98,1.6,1.69,3.58,3.04,5.83,3.91,1.16.45,2.39.77,3.65.94,14.34,2.27,27.5,9.55,37.08,20.52,9.73,11.15,15.09,25.43,15.09,40.21,0,18.98-8.58,36.66-23.55,48.49-6.93,5.48-8.11,15.54-2.63,22.47,3.16,4,7.84,6.08,12.56,6.08,3.47,0,6.97-1.13,9.91-3.45,22.7-17.94,35.71-44.76,35.71-73.59,0-22.52-8.16-44.27-22.98-61.25-11.94-13.68-27.57-23.58-44.86-28.56Z"/></svg>