<?xml version="1.0" encoding="UTF-8"?><svg id="Icon" xmlns="http://www.w3.org/2000/svg" viewBox="0 0 512 512"><path d="M208,288H64c-8.84,0-16,7.16-16,16v112c0,8.84,7.16,16,16,16s16-7.16,16-16v-96h128c8.84,0,16-7.16,16-16s-7.16-16-16-16Z"/><path d="M63.77,272c8.84,0,16-7.16,16-16s7.18-16,16-16h64.47c8.82,0,16,7.18,16,16s7.16,16,16,16,16-7.16,16-16c0-26.47-21.53-48-48-48h-64.47c-26.47,0-48,21.53-48,48,0,8.84,7.16,16,16,16Z"/><path d="M128,193c26.47,0,48-21.53,48-48s-21.53-48-48-48-48,21.53-48,48,21.53,48,48,48ZM128,129c8.82,0,16,7.18,16,16s-7.18,16-16,16-16-7.18-16-16,7.18-16,16-16Z"/><path d="M336,144c26.47,0,48-21.53,48-48s-21.53-48-48-48-48,21.53-48,48,21.53,48,48,48ZM336,80c8.82,0,16,7.18,16,16s-7.18,16-16,16-16-7.18-16-16,7.18-16,16-16Z"/><path d="M370.98,160h-69.97c-24.82,0-45.02,20.16-45.02,44.93v79.62c0,17.27,10.1,32.96,25.55,40.39v87.95c0,19.36,15.77,35.1,35.16,35.1h38.82c19.39,0,35.16-15.75,35.16-35.1v-87.97c15.3-7.46,25.31-23.15,25.31-40.36v-79.62c0-24.77-20.19-44.93-45.02-44.93ZM384,284.55c0,5.29-3.5,10.26-8.6,12.13-9.99,3.74-16.71,13.39-16.71,24.03v92.17c0,1.71-1.42,3.1-3.16,3.1h-38.82c-1.74,0-3.16-1.39-3.16-3.1v-92.17c0-10.64-6.71-20.29-16.71-24.03l-.19-.07c-5.17-1.86-8.65-6.71-8.65-12.06v-79.62c0-7.13,5.84-12.93,13.02-12.93h69.97c7.18,0,13.02,5.8,13.02,12.93v79.62Z"/></svg>