<?xml version="1.0" encoding="UTF-8"?><svg id="Icon" xmlns="http://www.w3.org/2000/svg" viewBox="0 0 512 512"><path d="M365.91,172.18c-8.84,0-16,7.16-16,16v9.02c-23.57-26.29-57.62-42.08-93.94-42.08-69.48,0-126,56.52-126,126s56.52,126,126,126c30.3,0,59.59-10.91,82.46-30.73,22.64-19.61,37.58-46.64,42.09-76.1,1.33-8.73-4.66-16.9-13.4-18.23-8.74-1.33-16.9,4.66-18.23,13.4-3.35,21.96-14.51,42.11-31.41,56.75-17.06,14.78-38.91,22.92-61.51,22.92-51.83,0-94-42.17-94-94s42.17-94,94-94c29.08,0,56.21,13.58,73.82,35.83h-14.65c-8.84,0-16,7.16-16,16s7.16,16,16,16h50.77c8.84,0,16-7.16,16-16v-50.77c0-8.84-7.16-16-16-16Z"/><path d="M392.89,80h-40.89v-16c0-8.84-7.16-16-16-16s-16,7.16-16,16v16h-128v-16c0-8.84-7.16-16-16-16s-16,7.16-16,16v16h-40.89c-30.39,0-55.11,24.72-55.11,55.11v273.78c0,30.39,24.72,55.11,55.11,55.11h273.78c30.39,0,55.11-24.72,55.11-55.11V135.11c0-30.39-24.72-55.11-55.11-55.11ZM416,408.89c0,12.74-10.37,23.11-23.11,23.11H119.11c-12.74,0-23.11-10.37-23.11-23.11V135.11c0-12.74,10.37-23.11,23.11-23.11h40.89v16c0,8.84,7.16,16,16,16s16-7.16,16-16v-16h128v16c0,8.84,7.16,16,16,16s16-7.16,16-16v-16h40.89c12.74,0,23.11,10.37,23.11,23.11v273.78Z"/></svg>