<?xml version="1.0" encoding="UTF-8"?><svg id="Icon" xmlns="http://www.w3.org/2000/svg" viewBox="0 0 512 512"><path d="M255.99,431.75c46.93,0,91.06-18.28,124.25-51.47,29.88-29.88,48-69.52,51.01-111.62,2.99-41.66-8.92-83.05-33.54-116.54-5.23-7.12-15.25-8.65-22.37-3.42-7.12,5.23-8.65,15.25-3.42,22.37,20.12,27.37,29.85,61.22,27.4,95.3-2.47,34.42-17.29,66.84-41.72,91.28-27.14,27.14-63.23,42.09-101.62,42.09s-74.48-14.95-101.62-42.09c-27.14-27.14-42.09-63.23-42.09-101.62s14.95-74.48,42.09-101.62,62.57-41.81,100.56-42.09c7.17-.05,18.02-.07,28.51-.09,2.41,0,4.81,0,7.16-.01l-28.46,28.46c-6.25,6.25-6.25,16.38,0,22.63,3.12,3.12,7.22,4.69,11.31,4.69s8.19-1.56,11.31-4.69l52.12-52.12c6.25-6.25,6.25-16.38,0-22.63l-52.12-52.12c-6.25-6.25-16.38-6.25-22.63,0-6.25,6.25-6.25,16.38,0,22.63l21.17,21.17c-10.51.02-21.37.04-28.61.09-46.44.34-90.1,18.62-122.95,51.46-33.19,33.19-51.47,77.31-51.47,124.25s18.28,91.06,51.47,124.25c33.19,33.19,77.31,51.47,124.25,51.47Z"/></svg>