<?xml version="1.0" encoding="UTF-8"?><svg id="Icon" xmlns="http://www.w3.org/2000/svg" viewBox="0 0 512 512"><path d="M241.89,397.77l-16.91,62.02c-1.51,5.54.06,11.46,4.12,15.52,3.04,3.04,7.13,4.69,11.31,4.69,1.4,0,2.82-.18,4.21-.56l62.02-16.91c2.69-.73,5.13-2.15,7.1-4.12l152.23-152.23c18.67-18.67,18.67-49.06,0-67.73-18.67-18.67-49.06-18.67-67.73,0l-152.23,152.23c-1.97,1.97-3.39,4.42-4.12,7.1ZM420.87,261.07c6.2-6.2,16.28-6.2,22.48,0s6.2,16.28,0,22.48l-148.76,148.76c-2.38-4.32-5.8-9.44-10.49-14.08-3.79-3.75-7.78-6.73-11.36-9.02l148.13-148.13Z"/><path d="M200,224c0-17.64-14.35-32-32-32s-32,14.36-32,32,14.35,32,32,32,32-14.36,32-32Z"/><path d="M80,416h112c8.84,0,16-7.16,16-16s-7.16-16-16-16h-112c-8.82,0-16-7.18-16-16v-224c0-8.82,7.18-16,16-16h112v16c0,8.84,7.16,16,16,16h96c8.84,0,16-7.16,16-16v-16h112c8.82,0,16,7.18,16,16v32c0,8.84,7.16,16,16,16s16-7.16,16-16v-32c0-26.47-21.53-48-48-48h-112v-16c0-8.84-7.16-16-16-16h-96c-8.84,0-16,7.16-16,16v16h-112c-26.47,0-48,21.53-48,48v224c0,26.47,21.53,48,48,48ZM224,96h64v32h-64v-32Z"/><path d="M272,288h32c8.84,0,16-7.16,16-16s-7.16-16-16-16h-32c-8.84,0-16,7.16-16,16s7.16,16,16,16Z"/><path d="M272,224h96c8.84,0,16-7.16,16-16s-7.16-16-16-16h-96c-8.84,0-16,7.16-16,16s7.16,16,16,16Z"/><path d="M112.33,320c0,8.84,7.16,16,16,16s16-7.16,16-16,7.18-16,16-16h15.33c8.82,0,16,7.18,16,16s7.16,16,16,16,16-7.16,16-16c0-26.47-21.53-48-48-48h-15.33c-26.47,0-48,21.53-48,48Z"/></svg>