<?xml version="1.0" encoding="UTF-8"?><svg id="Icon" xmlns="http://www.w3.org/2000/svg" viewBox="0 0 512 512"><path d="M405.6,150.8c24.26,0,44-19.74,44-44s-19.74-44-44-44-44,19.74-44,44,19.74,44,44,44ZM405.6,94.8c6.62,0,12,5.38,12,12s-5.38,12-12,12-12-5.38-12-12,5.38-12,12-12Z"/><path d="M117.59,156.01c24.26,0,44-19.74,44-44s-19.74-44-44-44-44,19.74-44,44,19.74,44,44,44ZM117.59,100c6.62,0,12,5.38,12,12s-5.38,12-12,12-12-5.38-12-12,5.38-12,12-12Z"/><path d="M203.59,361.2c-24.26,0-44,19.74-44,44s19.74,44,44,44,44-19.74,44-44-19.74-44-44-44ZM203.59,417.2c-6.62,0-12-5.38-12-12s5.38-12,12-12,12,5.38,12,12-5.38,12-12,12Z"/><path d="M426,272.81c-24.26,0-44,19.74-44,44s19.74,44,44,44,44-19.74,44-44-19.74-44-44-44Z"/><path d="M86,243.6c-24.26,0-44,19.74-44,44s19.74,44,44,44,44-19.74,44-44-19.74-44-44-44Z"/><path d="M268.39,171.2c-31.32,0-56.8,25.48-56.8,56.8s25.48,56.8,56.8,56.8,56.8-25.48,56.8-56.8-25.48-56.8-56.8-56.8Z"/><path d="M165.16,171.47l25.06,19.09c2.9,2.21,6.3,3.27,9.69,3.27,4.82,0,9.59-2.17,12.74-6.3,5.35-7.03,4-17.07-3.03-22.42l-25.06-19.09c-7.03-5.36-17.07-4-22.42,3.03-5.35,7.03-4,17.07,3.03,22.42Z"/><path d="M329.99,191.45c3.96,0,7.92-1.46,11.02-4.4l23.87-22.67c6.41-6.09,6.67-16.21.58-22.62-6.09-6.41-16.21-6.67-22.62-.58l-23.87,22.67c-6.41,6.09-6.67,16.21-.58,22.62,3.15,3.31,7.37,4.98,11.6,4.98Z"/><path d="M203.41,248.76c-2.35-8.52-11.16-13.52-19.68-11.17l-34.61,9.55c-8.52,2.35-13.52,11.16-11.17,19.68,1.96,7.09,8.4,11.75,15.41,11.75,1.41,0,2.84-.19,4.26-.58l34.61-9.55c8.52-2.35,13.52-11.16,11.17-19.68Z"/><path d="M249.81,290.59c-8.25-3.17-17.5.94-20.68,9.19l-11.93,31.03c-3.17,8.25.94,17.5,9.19,20.68,1.89.73,3.83,1.07,5.74,1.07,6.43,0,12.49-3.9,14.94-10.26l11.93-31.03c3.17-8.25-.94-17.5-9.19-20.68Z"/><path d="M371.99,272.24l-27.45-14.32c-7.83-4.09-17.5-1.05-21.59,6.78-4.09,7.83-1.05,17.5,6.78,21.59l27.45,14.32c2.36,1.23,4.89,1.82,7.39,1.82,5.77,0,11.34-3.13,14.2-8.6,4.09-7.83,1.05-17.5-6.78-21.59Z"/></svg>