<?xml version="1.0" encoding="UTF-8"?><svg id="Icon" xmlns="http://www.w3.org/2000/svg" viewBox="0 0 512 512"><path d="M79.96,256h.04c8.82,0,15.98-7.14,16-15.96l.09-33.86c0-34.29,27.89-62.18,62.18-62.18h235.1l-52.69,52.69c-6.25,6.25-6.25,16.38,0,22.63,3.12,3.12,7.22,4.69,11.31,4.69s8.19-1.56,11.31-4.69l80-80c6.25-6.25,6.25-16.38,0-22.63l-80-80c-6.25-6.25-16.38-6.25-22.63,0-6.25,6.25-6.25,16.38,0,22.63l52.69,52.69h-235.1c-51.93,0-94.18,42.25-94.18,94.14l-.09,33.82c-.02,8.84,7.12,16.02,15.96,16.04Z"/><path d="M432.04,256h-.04c-8.82,0-15.98,7.14-16,15.96l-.09,33.86c0,34.29-27.89,62.18-62.18,62.18H118.96l52.39-52.72c6.23-6.27,6.2-16.4-.07-22.63-6.27-6.23-16.4-6.2-22.63.07l-77.53,78.03c-3.52,2.39-6.02,6.15-6.78,10.51-.22,1.08-.35,2.18-.34,3.3.01,4.24,1.71,8.31,4.72,11.3l80,79.49c3.12,3.1,7.2,4.65,11.28,4.65s8.22-1.58,11.35-4.72c6.23-6.27,6.2-16.4-.07-22.63l-52.99-52.65h235.44c51.93,0,94.18-42.25,94.18-94.14l.09-33.82c.02-8.84-7.12-16.02-15.96-16.04Z"/></svg>