<?xml version="1.0" encoding="UTF-8"?><svg id="Icon" xmlns="http://www.w3.org/2000/svg" viewBox="0 0 512 512"><path d="M159.58,190.77l.08-.09c6.25-6.25,6.25-16.38,0-22.63-6.25-6.25-16.38-6.25-22.63,0l-.09.09c-48.39,48.45-48.35,127.23.1,175.62,3.12,3.12,7.22,4.68,11.31,4.68s8.2-1.56,11.32-4.69c6.25-6.25,6.24-16.38-.01-22.63-35.96-35.92-35.99-94.4-.08-130.36Z"/><path d="M371.49,168.23c-6.25-6.25-16.38-6.24-22.63.01-6.25,6.25-6.24,16.38.01,22.63,35.96,35.92,35.99,94.4.07,130.37-.03.03-.05.05-.08.08-6.25,6.25-6.25,16.38,0,22.63,3.12,3.12,7.22,4.69,11.31,4.69s8.19-1.56,11.31-4.69l.09-.09c48.39-48.45,48.35-127.23-.1-175.62Z"/><path d="M112.11,139.84c6.25-6.25,6.25-16.38,0-22.63s-16.38-6.25-22.63,0c-76.51,76.53-76.5,201.05,0,277.58,3.12,3.13,7.22,4.69,11.32,4.69s8.19-1.56,11.31-4.68c6.25-6.25,6.25-16.38,0-22.63-64.03-64.05-64.03-168.27,0-232.33Z"/><path d="M422.52,117.21c-6.25-6.25-16.38-6.25-22.63,0-6.25,6.25-6.25,16.38,0,22.63,64.03,64.05,64.03,168.27,0,232.33-6.25,6.25-6.25,16.38,0,22.63,3.12,3.12,7.22,4.68,11.31,4.68s8.19-1.56,11.32-4.69c76.5-76.53,76.51-201.05,0-277.58Z"/><path d="M234.06,214.46c-6.23,6.26-6.21,16.39.05,22.63,3.12,3.11,7.2,4.66,11.29,4.66s8.21-1.57,11.34-4.71l28.79-28.92c6.23-6.26,6.21-16.39-.05-22.63l-28.92-28.79c-6.26-6.23-16.39-6.21-22.63.05-6.23,6.26-6.21,16.39.05,22.63l1.14,1.14c-12.27,2.66-23.84,8.28-33.53,16.44-14.1,11.89-23.5,28.45-26.47,46.64-2.93,17.98.57,36.46,9.87,52.03,3,5.02,8.31,7.8,13.75,7.8,2.79,0,5.62-.73,8.18-2.26,7.59-4.53,10.07-14.35,5.54-21.94-11.41-19.11-7.31-43.42,9.75-57.8,3.75-3.16,7.89-5.65,12.3-7.42l-.46.46Z"/><path d="M305.04,210.84c-7.59,4.53-10.07,14.35-5.54,21.94,11.41,19.11,7.31,43.42-9.75,57.8-3.3,2.78-6.96,5.05-10.85,6.78,4.17-6.23,3.5-14.74-2.01-20.23-6.26-6.23-16.39-6.21-22.63.05l-26.66,26.78c-6.23,6.26-6.21,16.39.05,22.63l26.78,26.66c3.12,3.11,7.2,4.66,11.29,4.66,4.11,0,8.21-1.57,11.34-4.71,5.99-6.02,6.19-15.6.64-21.87,11.99-2.72,23.2-8.29,32.68-16.28,14.1-11.89,23.5-28.45,26.47-46.64,2.93-17.98-.57-36.46-9.87-52.03-4.53-7.59-14.35-10.07-21.94-5.54Z"/></svg>