<?xml version="1.0" encoding="UTF-8"?><svg id="Icon" xmlns="http://www.w3.org/2000/svg" viewBox="0 0 512 512"><path d="M38,252.49l160,128c4.8,3.84,11.38,4.59,16.93,1.93,5.54-2.66,9.07-8.27,9.07-14.42v-54.49c45.93.96,181.57,10.98,225.88,94.02,2.83,5.31,8.32,8.47,14.11,8.47,1.43,0,2.87-.19,4.3-.59,7.23-2.02,12.08-8.78,11.68-16.27-.13-2.39-3.56-59.27-38.74-116.62-20.84-33.97-48.49-61.06-82.19-80.51-37.82-21.83-83.19-33.89-135.04-35.93v-53.71c0-6.15-3.52-11.75-9.06-14.42s-12.11-1.92-16.92,1.91L38.02,227.49c-3.8,3.03-6.02,7.63-6.02,12.5,0,4.86,2.21,9.47,6,12.51ZM192,145.6v36.17c0,8.84,7.16,16,16,16,52.54,0,97.74,10.62,134.36,31.56,28.99,16.58,52.85,39.75,70.94,68.86,9.14,14.7,15.89,29.51,20.88,43.12-8.3-6.44-17.39-12.39-27.27-17.85-25.07-13.85-55.25-24.52-89.7-31.71-43.88-9.17-83.12-10.35-100.47-10.35-5.55,0-8.86.12-9.37.14-8.58.34-15.37,7.4-15.37,15.99v37.19l-118.36-94.69,118.36-94.42Z"/></svg>