<?xml version="1.0" encoding="UTF-8"?><svg id="Icon" xmlns="http://www.w3.org/2000/svg" viewBox="0 0 512 512"><path d="M38,252.49l160,128c4.8,3.84,11.38,4.59,16.93,1.93,5.54-2.66,9.07-8.27,9.07-14.42v-54.49c45.93.96,181.57,10.98,225.88,94.02,2.83,5.31,8.32,8.47,14.11,8.47,1.43,0,2.87-.19,4.3-.59,7.23-2.02,12.08-8.78,11.68-16.27-.13-2.39-3.56-59.27-38.74-116.62-20.84-33.97-48.49-61.06-82.19-80.51-37.82-21.83-83.19-33.89-135.04-35.93v-53.71c0-6.15-3.52-11.75-9.06-14.42s-12.11-1.92-16.92,1.91L38.02,227.49c-3.8,3.03-6.02,7.63-6.02,12.5,0,4.86,2.21,9.47,6,12.51Z"/></svg>