<?xml version="1.0" encoding="UTF-8"?><svg id="Icon" xmlns="http://www.w3.org/2000/svg" viewBox="0 0 512 512"><path d="M416,64H96c-17.6,0-32,14.4-32,32v320c0,17.6,14.4,32,32,32h320c17.6,0,32-14.4,32-32V96c0-17.6-14.4-32-32-32ZM163.69,400.41c0,8.84-7.16,16-16,16s-16-7.16-16-16v-108.31c0-8.84,7.16-16,16-16s16,7.16,16,16v108.31ZM272,400.41c0,8.84-7.16,16-16,16s-16-7.16-16-16V111.59c0-8.84,7.16-16,16-16s16,7.16,16,16v288.82ZM380.31,400.41c0,8.84-7.16,16-16,16s-16-7.16-16-16v-180.51c0-8.84,7.16-16,16-16s16,7.16,16,16v180.51Z"/></svg>