<?xml version="1.0" encoding="UTF-8"?><svg id="Icon" xmlns="http://www.w3.org/2000/svg" viewBox="0 0 512 512"><path d="M374.46,384.82c8.84,0,16-7.16,16-16v-180.51c0-8.84-7.16-16-16-16s-16,7.16-16,16v180.51c0,8.84,7.16,16,16,16Z"/><path d="M266.15,384.82c8.84,0,16-7.16,16-16V80c0-8.84-7.16-16-16-16s-16,7.16-16,16v288.82c0,8.84,7.16,16,16,16Z"/><path d="M157.85,384.82c8.84,0,16-7.16,16-16v-108.31c0-8.84-7.16-16-16-16s-16,7.16-16,16v108.31c0,8.84,7.16,16,16,16Z"/><path d="M432,416H96V80c0-8.84-7.16-16-16-16s-16,7.16-16,16v352c0,8.84,7.16,16,16,16h352c8.84,0,16-7.16,16-16s-7.16-16-16-16Z"/></svg>