<?xml version="1.0" encoding="UTF-8"?><svg id="Icon" xmlns="http://www.w3.org/2000/svg" viewBox="0 0 512 512"><path d="M256,64c-106.04,0-192,85.96-192,192s85.96,192,192,192,192-85.96,192-192-85.96-192-192-192ZM256,429.23c-95.52,0-173.23-77.71-173.23-173.23s77.71-173.23,173.23-173.23,173.23,77.71,173.23,173.23-77.71,173.23-173.23,173.23Z"/><path d="M255.79,335.73c.08,0,.15,0,.22,0,16.3.23,38.75,5.11,51.92,25.9-4.36-14.21-18.48-31.03-52.75-30.69-.46,0-.93-.02-1.38-.02-32.99.11-45.63,16.7-49.94,30.71,13.17-20.79,35.62-25.67,51.92-25.9Z"/><path d="M257.62,318.49c-1.21,0-2.47.04-3.74.09-6.62-.03-12.32.57-17.26,1.69-.27.04-.53.07-.8.11l-.02.06c-15.08,3.68-22.74,12.62-26.53,25.01,7.73-7.32,16.16-11.84,24.43-14.48l-.02.11c4.44-1.4,12.46-3.25,22.12-3.34h.22c9.66.09,17.68,1.94,22.12,3.34l-.02-.11c8.28,2.64,16.7,7.15,24.44,14.48-5.09-16.67-17.2-27.16-44.93-26.97Z"/><path d="M340.39,206.96c-4.12-1.2-6.73-2.05-11.25,1.51l12.34-42.15-44.41-52.44c-10.54-5.02-49.43-10.54-49.43-10.54-2.76,0-15.05,12.8-15.05,12.8l-36.13,14.3-12.04,15.31c-19.82,12.8-6.65,38.26-1.5,62.98-4.52-3.56-7.17-2.96-11.29-1.76-5.35,1.56-4.52,8.78-4.52,8.78,0,0,7.24,31.1,13.55,42.91,4.23,7.93,7,6,9.28,5.52l-1.04-8.85c-3.71-6.15-10.54-27.49-11.96-37.16-.57-2.42-.62-3.41.99-2.7,3.34,1.99,12.09,6.54,12.09,6.54-3.6-10.09-5.35-58.2-5.35-58.2.6-5.76,10.29-18.32,10.29-18.32,7.69-3.96,22.33-3.51,22.33-3.51,0-2.64,15.81-18.82,15.81-18.82,11.41,8.65,37.39,14.91,48.68,15.31-.36-1.92-11.29-11.54-11.29-11.54,4.8.12,15.81,6.58,18.57,7.78l-3.01-6.52c15.25.36,47.02,35.78,47.02,35.78.72,5.42-11.06,58.05-11.06,58.05,0,0,8.75-4.55,12.09-6.54,1.61-.71,1.56.28,1,2.7-1.42,9.67-8.25,31-11.96,37.16l-1.04,8.85c2.28.48,5.05,2.41,9.28-5.52,6.31-11.8,13.55-42.91,13.55-42.91,0,0,.83-7.22-4.52-8.78Z"/><path d="M316.89,210.28c-2.47-14.14-.97-24.92-9.11-27.71-8.48-2.91-29.25-2.35-49.67-3.39v-.27c-.73.05-1.47.09-2.2.13-.74-.04-1.47-.09-2.2-.13v.27c-20.43,1.04-41.19.48-49.67,3.39-8.14,2.79-6.64,13.57-9.11,27.71-4.76,27.21-9.83,32.86-1.29,63.19,1.52,5.4,3.28,15.56,8.82,25.12,5.55,9.56,14.87,18.54,22.99,23.34,0,0,4.95-7.37,30.47-7.86,25.53.49,30.47,7.86,30.47,7.86,8.11-4.8,17.44-13.78,22.99-23.34,5.54-9.56,7.3-19.72,8.82-25.12,8.53-30.33,3.47-35.98-1.29-63.19ZM241.87,245.21c-7.25,9.32-22.32,11.29-31.45,3.63-14.14-9.79-18.36-31.61-8.04-45.59,4.15-7.1,12.2-11.02,20.29-11.23,5.54-.14,11.1,1.46,15.44,4.97,13.86,11.58,15.53,34.6,3.76,48.22ZM301.39,248.84c-9.13,7.66-24.21,5.69-31.45-3.63-11.76-13.62-10.1-36.64,3.76-48.22,4.07-3.29,9.22-4.89,14.41-4.97.35,0,.68,0,1.02,0,8.09.21,16.14,4.12,20.29,11.23,10.32,13.98,6.1,35.8-8.04,45.59Z"/><path d="M223.54,196.27c-.43,0-.87.01-1.31.04-14.44.29-23.61,16.54-20.96,29.65,1.68,12.4,12.63,25.12,25.95,23.12,11.98-2.13,18.84-15.28,18.22-26.73-.06-12.29-8.46-26.14-21.9-26.08ZM226.95,245.34c-10.95,1.83-19.87-9.09-21.61-19.58-2.54-11.78,5.3-26.66,17.73-26.64.3-.02.6-.02.89-.02,9.06.05,15.6,9.31,17.08,18.06,2.34,11.04-2.63,25.44-14.1,28.18Z"/><path d="M289.59,196.32c-.44-.03-.88-.04-1.32-.04-13.43-.06-21.84,13.79-21.9,26.08-.61,11.45,6.24,24.6,18.22,26.73,13.32,2,24.27-10.72,25.95-23.12,2.65-13.1-6.52-29.36-20.96-29.65ZM306.47,225.76c-1.74,10.49-10.66,21.4-21.61,19.58-11.47-2.74-16.44-17.14-14.1-28.18,1.48-8.76,8.03-18.02,17.08-18.06.29,0,.59,0,.89.02,12.43-.02,20.27,14.86,17.73,26.64Z"/><path d="M223.29,203.4c-9.81.33-15.42,11.76-13.99,20.56,1.1,8.41,7.62,18.32,17.06,17.11,10.44-3.72,13.11-17.45,9.47-26.97-1.96-5.31-6.35-11.03-12.54-10.69Z"/><path d="M288.52,203.4c-6.19-.34-10.58,5.38-12.54,10.69-3.64,9.52-.97,23.25,9.47,26.97,9.44,1.21,15.96-8.69,17.06-17.11,1.44-8.8-4.18-20.23-13.99-20.56Z"/><path d="M255.91,337.98c-29.17,0-52.85,16.02-52.85,35.75s23.68,35.75,52.85,35.75,52.83-16.02,52.83-35.75-23.66-35.75-52.83-35.75ZM285.63,351.39c3.41,0,6.19,1.07,6.19,2.38s-2.78,2.36-6.19,2.36-6.17-1.05-6.17-2.36,2.76-2.38,6.17-2.38ZM283.76,373.88c0,1.31-2.76,2.36-6.17,2.36s-6.19-1.05-6.19-2.36,2.78-2.38,6.19-2.38,6.17,1.07,6.17,2.38ZM272,345.08c3.41,0,6.17,1.05,6.17,2.36s-2.76,2.38-6.17,2.38-6.17-1.07-6.17-2.38,2.76-2.36,6.17-2.36ZM270.99,361.01c3.41,0,6.17,1.07,6.17,2.38s-2.76,2.36-6.17,2.36-6.19-1.05-6.19-2.36,2.78-2.38,6.19-2.38ZM247.58,363.39c0,1.31-2.76,2.36-6.17,2.36s-6.19-1.05-6.19-2.36,2.78-2.38,6.19-2.38,6.17,1.07,6.17,2.38ZM240.39,345.08c3.41,0,6.19,1.05,6.19,2.36s-2.78,2.38-6.19,2.38-6.17-1.07-6.17-2.38,2.76-2.36,6.17-2.36ZM226.76,351.39c3.41,0,6.17,1.07,6.17,2.38s-2.76,2.36-6.17,2.36-6.17-1.05-6.17-2.36,2.76-2.38,6.17-2.38ZM218.43,360.74c3.41,0,6.17,1.05,6.17,2.36s-2.76,2.36-6.17,2.36-6.17-1.05-6.17-2.36,2.76-2.36,6.17-2.36ZM208.67,373.88c0-1.31,2.78-2.38,6.19-2.38s6.17,1.07,6.17,2.38-2.76,2.36-6.17,2.36-6.19-1.05-6.19-2.36ZM211.39,384.57c0-1.31,2.76-2.36,6.17-2.36s6.17,1.05,6.17,2.36-2.76,2.36-6.17,2.36-6.17-1.05-6.17-2.36ZM227.47,396.13c-3.41,0-6.17-1.05-6.17-2.36s2.76-2.38,6.17-2.38,6.17,1.08,6.17,2.38-2.76,2.36-6.17,2.36ZM228.63,373.88c0-1.31,2.78-2.38,6.19-2.38s6.17,1.07,6.17,2.38-2.76,2.36-6.17,2.36-6.19-1.05-6.19-2.36ZM241.12,402.3c-3.41,0-6.19-1.05-6.19-2.36s2.78-2.36,6.19-2.36,6.17,1.05,6.17,2.36-2.76,2.36-6.17,2.36ZM242.42,385.22c-3.41,0-6.19-1.05-6.19-2.36s2.78-2.38,6.19-2.38,6.17,1.08,6.17,2.38-2.76,2.36-6.17,2.36ZM256.2,404.75c-3.41,0-6.19-1.05-6.19-2.36s2.78-2.39,6.19-2.39,6.17,1.08,6.17,2.39-2.76,2.36-6.17,2.36ZM256.2,390.97c-3.41,0-6.19-1.05-6.19-2.36s2.78-2.38,6.19-2.38,6.17,1.08,6.17,2.38-2.76,2.36-6.17,2.36ZM256.2,376.31c-3.41,0-6.19-1.05-6.19-2.36s2.78-2.36,6.19-2.36,6.17,1.05,6.17,2.36-2.76,2.36-6.17,2.36ZM256.2,361.59c-3.41,0-6.19-1.05-6.19-2.36s2.78-2.38,6.19-2.38,6.17,1.08,6.17,2.38-2.76,2.36-6.17,2.36ZM256.2,347.8c-3.41,0-6.19-1.05-6.19-2.36s2.78-2.36,6.19-2.36,6.17,1.05,6.17,2.36-2.76,2.36-6.17,2.36ZM264.53,382.57c0-1.31,2.76-2.38,6.17-2.38s6.17,1.07,6.17,2.38-2.76,2.36-6.17,2.36-6.17-1.05-6.17-2.36ZM272,402.01c-3.41,0-6.17-1.05-6.17-2.36s2.76-2.36,6.17-2.36,6.17,1.05,6.17,2.36-2.76,2.36-6.17,2.36ZM283.62,395.84c-3.41,0-6.17-1.05-6.17-2.36s2.76-2.38,6.17-2.38,6.17,1.08,6.17,2.38-2.76,2.36-6.17,2.36ZM292.11,386.67c-3.41,0-6.19-1.07-6.19-2.38s2.78-2.36,6.19-2.36,6.17,1.05,6.17,2.36-2.76,2.38-6.17,2.38ZM302.29,373.88c0,1.31-2.76,2.36-6.17,2.36s-6.19-1.05-6.19-2.36,2.78-2.38,6.19-2.38,6.17,1.07,6.17,2.38ZM293.96,365.46c-3.41,0-6.17-1.05-6.17-2.36s2.76-2.36,6.17-2.36,6.19,1.05,6.19,2.36-2.78,2.36-6.19,2.36Z"/></svg>