<?xml version="1.0" encoding="UTF-8"?><svg id="Icon" xmlns="http://www.w3.org/2000/svg" viewBox="0 0 512 512"><path d="M256.01,143.72c-8.84,0-16,7.16-16,16v105.31c0,6.06,3.42,11.6,8.84,14.31l72.21,36.1c2.3,1.15,4.74,1.69,7.14,1.69,5.87,0,11.52-3.24,14.32-8.85,3.95-7.9.75-17.51-7.16-21.47l-63.36-31.68v-95.42c0-8.84-7.16-16-16-16Z"/><path d="M432,208c8.84,0,16-7.16,16-16v-80c0-8.84-7.16-16-16-16s-16,7.16-16,16v37.85c-14.39-21.67-33.06-40.29-55.08-54.68-31.21-20.39-67.48-31.17-104.91-31.17-105.87,0-192,86.13-192,192s86.13,192,192,192c46.17,0,90.8-16.63,125.66-46.82,34.5-29.88,57.27-71.06,64.13-115.96,1.33-8.73-4.67-16.9-13.4-18.23-8.74-1.33-16.9,4.66-18.23,13.4-5.71,37.38-24.7,71.69-53.45,96.6-29.04,25.16-66.23,39.01-104.7,39.01-88.22,0-160-71.78-160-160s71.78-160,160-160c31.2,0,61.42,8.98,87.41,25.96,21.17,13.83,38.63,32.34,51.17,54.04h-42.58c-8.84,0-16,7.16-16,16s7.16,16,16,16h80Z"/></svg>