<?xml version="1.0" encoding="UTF-8"?><svg id="Icon" xmlns="http://www.w3.org/2000/svg" viewBox="0 0 512 512"><path d="M77.96,379.78c-3.7,0-7.17-1.44-9.79-4.05-2.62-2.62-4.06-6.1-4.06-9.8,0-3.7,1.44-7.18,4.06-9.8l21.42-21.42c2.62-2.61,6.09-4.05,9.79-4.05s7.17,1.44,9.79,4.05c2.62,2.62,4.06,6.1,4.06,9.8s-1.44,7.18-4.05,9.79l-21.42,21.42c-2.61,2.61-6.09,4.05-9.79,4.05Z"/><path d="M145.96,448c-3.7,0-7.17-1.44-9.79-4.05-5.41-5.41-5.41-14.19,0-19.59l21.42-21.42c2.61-2.61,6.09-4.05,9.79-4.05s7.17,1.44,9.79,4.05c5.41,5.41,5.41,14.19,0,19.59l-21.42,21.42c-2.61,2.61-6.09,4.05-9.79,4.05Z"/><path d="M77.84,448c-3.7,0-7.18-1.44-9.79-4.06-2.61-2.61-4.05-6.09-4.05-9.79s1.44-7.18,4.05-9.79l55.54-55.54c2.61-2.61,6.09-4.05,9.79-4.05s7.17,1.44,9.79,4.05c5.4,5.4,5.4,14.18.01,19.59l-55.54,55.54c-2.62,2.62-6.09,4.06-9.79,4.06h0Z"/><path d="M257.91,431.11c-1.44,0-2.86-.22-4.23-.66-4.96-1.6-8.57-5.78-9.43-10.9l-9.16-54.97-2.9-2.9-15.74,28.83c-2.43,4.45-7.09,7.21-12.16,7.21s-9.52-2.65-11.99-6.93l-26.01-45.13-44.96-26.15c-4.31-2.51-6.94-7.16-6.88-12.14.05-4.97,2.8-9.56,7.17-11.97l28.59-15.71-2.78-2.78-54.96-9.16c-5.14-.85-9.33-4.47-10.91-9.44-1.6-4.94-.3-10.32,3.4-14.01l79.11-79.12c2.63-2.62,6.1-4.05,9.8-4.05.76,0,1.53.06,2.28.19l52.16,8.7,11.71-11.74c51.75-51.97,118.27-84.53,192.37-94.16.6-.08,1.2-.12,1.8-.12,3.97,0,7.76,1.72,10.39,4.71,2.63,2.99,3.84,6.97,3.33,10.92h0c-9.63,74.11-42.2,140.63-94.17,192.38l-11.74,11.71,8.7,52.15c.73,4.41-.71,8.92-3.87,12.07l-79.11,79.11c-2.62,2.62-6.09,4.06-9.79,4.06ZM267.14,388.45l55.04-55.04-4.28-25.65-55.06,54.94,4.3,25.76ZM183.41,323.58c2.1,1.22,3.84,2.97,5.04,5.06l15.52,26.93,7.81-14.3-41.18-41.18-14.18,7.79,26.99,15.7ZM248.03,338.35c19.19-19.15,85.88-85.7,86.13-85.95l2.08-2.07c41.99-42.62,69.94-96.26,81.24-155.79-60.5,11.49-114.91,40.16-157.86,83.3-.12.12-85.96,86.15-85.96,86.15l27.39,27.39,65.9-65.9c2.62-2.61,6.09-4.05,9.79-4.05s7.17,1.44,9.79,4.05c5.41,5.41,5.4,14.19,0,19.59l-65.9,65.9,27.39,27.39ZM149.31,249.15l54.94-55.06-25.65-4.28-55.04,55.04,25.76,4.3Z"/><circle cx="333.72" cy="178.28" r="22.71"/></svg>