<?xml version="1.0" encoding="UTF-8"?><svg id="Icon" xmlns="http://www.w3.org/2000/svg" viewBox="0 0 512 512"><path d="M77.96,379.78c-3.7,0-7.17-1.44-9.79-4.05-2.62-2.62-4.06-6.1-4.06-9.8,0-3.7,1.44-7.18,4.06-9.8l21.42-21.42c2.62-2.61,6.09-4.05,9.79-4.05s7.17,1.44,9.79,4.05c2.62,2.62,4.06,6.1,4.06,9.8s-1.44,7.18-4.05,9.79l-21.42,21.42c-2.61,2.61-6.09,4.05-9.79,4.05Z"/><path d="M145.96,448c-3.7,0-7.17-1.44-9.79-4.05-5.41-5.41-5.41-14.19,0-19.59l21.42-21.42c2.61-2.61,6.09-4.05,9.79-4.05s7.17,1.44,9.79,4.05c5.41,5.41,5.41,14.19,0,19.59l-21.42,21.42c-2.61,2.61-6.09,4.05-9.79,4.05Z"/><path d="M77.84,448c-3.7,0-7.18-1.44-9.79-4.06-2.61-2.61-4.05-6.09-4.05-9.79s1.44-7.18,4.05-9.79l55.54-55.54c2.61-2.61,6.09-4.05,9.79-4.05s7.17,1.44,9.79,4.05c5.4,5.4,5.4,14.18.01,19.59l-55.54,55.54c-2.62,2.62-6.09,4.06-9.79,4.06h0Z"/><path d="M444.55,68.71c-2.63-3-6.42-4.71-10.39-4.71-.59,0-1.2.04-1.8.12-74.1,9.63-140.63,42.19-192.37,94.16l-11.71,11.74-52.16-8.7c-.75-.12-1.52-.19-2.28-.19-3.69,0-7.17,1.44-9.8,4.05l-79.11,79.12c-3.69,3.69-4.99,9.07-3.4,14.01,1.59,4.97,5.77,8.59,10.91,9.44l54.96,9.16,2.78,2.78-28.59,15.71c-4.37,2.41-7.12,7-7.17,11.97-.06,4.98,2.58,9.63,6.88,12.14l44.96,26.15,26.01,45.13c2.47,4.27,7.07,6.93,11.99,6.93s9.72-2.76,12.16-7.21l15.74-28.83,2.9,2.9,9.16,54.97c.86,5.12,4.47,9.3,9.43,10.9,1.37.44,2.79.66,4.23.66,3.7,0,7.17-1.44,9.79-4.06l79.11-79.11c3.15-3.15,4.6-7.67,3.86-12.07l-8.7-52.15,11.74-11.71c51.97-51.75,84.54-118.27,94.17-192.38h0c.51-3.95-.7-7.93-3.33-10.92ZM149.31,249.15l-25.76-4.3,55.04-55.04,25.65,4.28-54.94,55.06ZM203.97,355.57l-15.52-26.93c-1.2-2.09-2.94-3.84-5.04-5.06l-26.99-15.7,14.18-7.79,41.18,41.18-7.81,14.3ZM220.63,310.95l-19.58-19.58,65.9-65.9c2.61-2.61,6.09-4.05,9.79-4.05s7.17,1.44,9.79,4.05c5.41,5.41,5.4,14.19,0,19.59l-65.9,65.9ZM267.14,388.45l-4.3-25.76,55.06-54.94,4.28,25.65-55.04,55.04ZM333.72,201c-12.54,0-22.71-10.17-22.71-22.71s10.17-22.71,22.71-22.71,22.71,10.17,22.71,22.71-10.17,22.71-22.71,22.71Z"/></svg>