<?xml version="1.0" encoding="UTF-8"?><svg id="Icon" xmlns="http://www.w3.org/2000/svg" viewBox="0 0 512 512"><path d="M477.42,71.29c-2.95-4.55-8-7.29-13.42-7.29h-248.4c-6.31,0-12.04,3.71-14.61,9.48L65.39,377.3c-2.21,4.95-1.76,10.68,1.19,15.23,2.95,4.55,8,7.29,13.42,7.29h124.82c1.03.21,2.09.32,3.18.32s2.15-.11,3.18-.32h117.22c6.31,0,12.04-3.71,14.61-9.48L478.61,86.52c2.21-4.95,1.76-10.68-1.19-15.23ZM318.02,367.82h-94.02v-31.82c0-8.84-7.16-16-16-16s-16,7.16-16,16v31.82h-87.34L225.98,96h213.36l-121.31,271.82Z"/></svg>