<?xml version="1.0" encoding="UTF-8"?><svg id="Icon" xmlns="http://www.w3.org/2000/svg" viewBox="0 0 512 512"><path d="M477.42,71.29c-2.95-4.55-8-7.29-13.42-7.29h-250.25c-4.52,0-8.83,1.91-11.86,5.26L35.03,253.66c-4.25,4.69-5.33,11.44-2.76,17.22,2.57,5.78,8.3,9.51,14.62,9.51h61.75l-43.25,96.91c-2.21,4.95-1.76,10.68,1.19,15.23,2.95,4.55,8,7.29,13.42,7.29h248.4c6.31,0,12.04-3.71,14.61-9.48L478.61,86.52c2.21-4.95,1.76-10.68-1.19-15.23ZM220.85,96h205.99l-137.9,152.39H82.95L220.85,96ZM318.02,367.82H104.66l39.02-87.43h13.27v32.54c0,8.84,7.16,16,16,16s16-7.16,16-16v-32.54h107.08c4.52,0,8.83-1.91,11.86-5.26l101.61-112.29-91.48,204.98Z"/></svg>