<?xml version="1.0" encoding="UTF-8"?><svg id="Icon" xmlns="http://www.w3.org/2000/svg" viewBox="0 0 512 512"><path d="M327.67,267.77l59.9,11.23h2.07c6.88,0,13.34-2.56,18.22-7.21,5.25-4.95,8.13-11.75,8.13-19.16v-60.41c0-7.66-3.05-14.58-8.58-19.5-4.87-4.4-11.02-6.73-17.78-6.73h-1.54l-59.99,5.49c-13.75,1.31-24.11,12.61-24.11,26.29v43.7c0,13.41,10.31,24.76,23.67,26.29ZM336,202.9l48-4.39v47.26l-48-9v-33.87Z"/><path d="M480,121.44c0-4.54-1.93-8.87-5.31-11.91-3.38-3.03-7.89-4.48-12.41-4l-205.91,22.33-205.93-31.68c-4.62-.71-9.31.63-12.85,3.67-3.54,3.04-5.58,7.48-5.58,12.14v232.17c0,.51.03,1.01.08,1.51.02.18.05.35.07.53.04.32.08.63.14.94.04.21.09.41.13.62.06.27.13.54.21.81.06.21.12.42.19.63.09.26.18.51.28.76.08.2.15.4.24.6.12.28.26.56.4.83.08.15.14.31.23.45.22.41.47.8.72,1.19.09.14.19.26.28.4.19.26.37.52.58.77.11.14.23.27.35.41.2.23.4.46.62.68.13.13.25.26.38.38.22.22.45.42.69.63.13.11.26.23.4.34.25.2.52.4.78.58.13.09.26.19.39.28.32.21.65.41.98.6.09.05.18.11.27.16.41.22.83.42,1.27.61.2.09.41.16.61.24.25.09.49.19.74.27.23.08.46.14.7.2.16.04.31.1.46.14l208,51c1.25.31,2.53.46,3.81.46s2.56-.15,3.81-.46l208-51c7.16-1.75,12.19-8.17,12.19-15.54,0-.03,0-.06,0-.09,0-.03,0-.05,0-.08V121.44ZM448,323.78l-176-43.15v-122.26l176-19.09v184.51ZM240,157.73v122.9l-38.63,9.47v-99.05c0-8.08-6.02-14.89-14.03-15.88l-72.31-8.96c-4.55-.56-9.13.85-12.56,3.89-3.44,3.04-5.4,7.4-5.4,11.99v133.58l-33.06,8.11v-193.13l176,27.08ZM169.4,297.93l-40.34,9.89v-107.63l40.31,5v92.18c0,.19.02.38.03.57ZM256,378.7l-140.81-34.53,140.81-34.53,140.81,34.53-140.81,34.53Z"/></svg>