<?xml version="1.0" encoding="UTF-8"?><svg id="Icon" xmlns="http://www.w3.org/2000/svg" viewBox="0 0 512 512"><path d="M392.89,448h-39.86c-8.84,0-16-7.16-16-16s7.16-16,16-16h39.86c12.74,0,23.11-10.37,23.11-23.11V119.11c0-12.74-10.37-23.11-23.11-23.11H119.11c-12.74,0-23.11,10.37-23.11,23.11v273.78c0,12.74,10.37,23.11,23.11,23.11h39.86c8.84,0,16,7.16,16,16s-7.16,16-16,16h-39.86c-30.39,0-55.11-24.72-55.11-55.11V119.11c0-30.39,24.72-55.11,55.11-55.11h273.78c30.39,0,55.11,24.72,55.11,55.11v273.78c0,30.39-24.72,55.11-55.11,55.11Z"/></svg>