<?xml version="1.0" encoding="UTF-8"?><svg id="Icon" xmlns="http://www.w3.org/2000/svg" viewBox="0 0 512 512"><path d="M269.84,306.38c-4.44-2.97-7.11-7.96-7.11-13.3v-102.35c0-3.71-3.02-6.73-6.73-6.73s-6.73,3.02-6.73,6.73v102.35c0,5.34-2.67,10.34-7.11,13.3-5.53,3.7-9.29,9.32-10.59,15.85-1.3,6.52.02,13.16,3.72,18.69,3.7,5.53,9.32,9.29,15.85,10.59,6.53,1.3,13.16-.02,18.7-3.72,11.42-7.63,14.5-23.13,6.87-34.54-1.83-2.73-4.14-5.05-6.87-6.87Z"/><path d="M425.26,167.91l-150.54-123.19c-10.81-8.83-26.52-8.84-37.4,0l-150.57,123.18c-14.45,11.84-22.74,29.33-22.74,48.01v184.08c0,26.47,21.53,48,48,48h288c26.47,0,48-21.53,48-48v-184.08c0-18.68-8.29-36.18-22.75-48.01ZM287.61,374.41c-9.47,6.33-20.36,9.61-31.5,9.61-3.73,0-7.48-.37-11.22-1.11-14.91-2.97-27.77-11.56-36.21-24.2-8.44-12.64-11.46-27.81-8.5-42.72,2.37-11.91,8.34-22.52,17.09-30.61v-94.65c0-21.35,17.37-38.73,38.73-38.73s38.73,17.37,38.73,38.73v94.66c3.23,3,6.11,6.37,8.59,10.09,17.43,26.09,10.39,61.5-15.7,78.93Z"/></svg>