<?xml version="1.0" encoding="UTF-8"?><svg id="Icon" xmlns="http://www.w3.org/2000/svg" viewBox="0 0 512 512"><path d="M244.9,382.9c3.74.74,7.49,1.11,11.22,1.11,11.14,0,22.03-3.28,31.5-9.61,26.09-17.43,33.13-52.84,15.7-78.93-2.48-3.71-5.35-7.09-8.59-10.09v-94.66c0-21.35-17.37-38.73-38.73-38.73s-38.73,17.37-38.73,38.73v94.65c-8.75,8.09-14.72,18.7-17.09,30.61-2.97,14.91.05,30.08,8.5,42.72,8.44,12.64,21.31,21.23,36.21,24.2ZM231.57,322.23c1.3-6.52,5.06-12.15,10.59-15.85,4.44-2.97,7.11-7.96,7.11-13.3v-102.35c0-3.71,3.02-6.73,6.73-6.73s6.73,3.02,6.73,6.73v102.35c0,5.34,2.67,10.33,7.11,13.3,2.73,1.83,5.05,4.14,6.87,6.87,7.63,11.42,4.55,26.91-6.87,34.54-11.42,7.63-26.91,4.55-34.54-6.87-3.7-5.53-5.02-12.17-3.72-18.69Z"/><path d="M112,448h288c26.47,0,48-21.53,48-48v-184.08c0-18.68-8.29-36.18-22.75-48.01l-150.54-123.19c-10.81-8.83-26.52-8.84-37.4,0l-150.57,123.18c-14.45,11.83-22.74,29.33-22.74,48.01v184.08c0,26.47,21.53,48,48,48ZM96,215.92c0-9.04,4.01-17.52,11.01-23.25l149.01-121.9,148.97,121.9c7,5.73,11.01,14.21,11.01,23.25v184.08c0,8.82-7.18,16-16,16H112c-8.82,0-16-7.18-16-16v-184.08Z"/></svg>