<?xml version="1.0" encoding="UTF-8"?><svg id="Icon" xmlns="http://www.w3.org/2000/svg" viewBox="0 0 512 512"><path d="M336,112h-160c-8.84,0-16,7.16-16,16v112c0,8.84,7.16,16,16,16h160c8.84,0,16-7.16,16-16v-112c0-8.84-7.16-16-16-16ZM320,224h-128v-80h128v80Z"/><path d="M255.9,288h-.05c-26.47.08-47.93,21.68-47.85,48.15.08,26.42,21.6,47.85,48,47.85h.15c26.39-.08,47.85-21.61,47.85-48.05-.08-26.44-21.66-47.95-48.1-47.95ZM256.05,352h-.05c-8.8,0-15.97-7.15-16-15.95-.03-8.82,7.12-16.01,15.93-16.05,8.84.02,16.04,7.21,16.07,16,0,8.8-7.16,15.97-15.95,16Z"/><path d="M368,64h-224c-26.47,0-48,21.53-48,48v288c0,26.47,21.53,48,48,48h224c26.47,0,48-21.53,48-48V112c0-26.47-21.53-48-48-48ZM384,400c0,8.82-7.18,16-16,16h-224c-8.82,0-16-7.18-16-16V112c0-8.82,7.18-16,16-16h224c8.82,0,16,7.18,16,16v288Z"/></svg>