<?xml version="1.0" encoding="UTF-8"?><svg id="Icon" xmlns="http://www.w3.org/2000/svg" viewBox="0 0 512 512"><path d="M120.9,311.34c-7.71,0-13.95,6.25-13.95,13.95s6.25,13.95,13.95,13.95,13.95-6.25,13.95-13.95-6.25-13.95-13.95-13.95Z"/><path d="M176.82,311.34c-7.71,0-13.95,6.25-13.95,13.95s6.25,13.95,13.95,13.95,13.95-6.25,13.95-13.95-6.25-13.95-13.95-13.95Z"/><path d="M232.75,311.34c-7.71,0-13.95,6.25-13.95,13.95s6.25,13.95,13.95,13.95,13.95-6.25,13.95-13.95-6.25-13.95-13.95-13.95Z"/><path d="M86.03,63.46c-6.25-6.25-16.38-6.25-22.63,0-6.25,6.25-6.25,16.38,0,22.63l137.91,137.91h-126.99c-23.34,0-42.33,18.99-42.33,42.33v123.34c0,23.34,18.99,42.33,42.33,42.33h334.99l16.69,16.69c3.12,3.12,7.22,4.69,11.31,4.69s8.19-1.56,11.31-4.69c6.25-6.25,6.25-16.38,0-22.63L86.03,63.46ZM74.33,400c-5.6,0-10.33-4.73-10.33-10.33v-123.34c0-5.6,4.73-10.33,10.33-10.33h158.99l144,144H74.33Z"/><path d="M281.91,120.98c38.65-38.63,101.53-38.63,140.17,0,3.12,3.12,7.22,4.68,11.31,4.68s8.19-1.56,11.32-4.69c6.25-6.25,6.25-16.38,0-22.63-51.12-51.11-134.3-51.11-185.42,0-6.25,6.25-6.25,16.38,0,22.63,6.25,6.25,16.38,6.25,22.63,0Z"/><path d="M291.85,129.98c-6.25,6.25-6.25,16.38,0,22.63s16.38,6.25,22.63,0c20.69-20.69,54.36-20.69,75.06,0,3.12,3.12,7.22,4.69,11.31,4.68,4.1,0,8.19-1.56,11.32-4.69,6.25-6.25,6.25-16.38,0-22.63-33.17-33.16-87.14-33.16-120.3,0Z"/><path d="M437.67,224h-69.67v-48c0-8.84-7.16-16-16-16s-16,7.16-16,16v64c0,8.84,7.16,16,16,16h85.67c5.6,0,10.33,4.73,10.33,10.33v123.34c0,8.84,7.16,16,16,16s16-7.16,16-16v-123.34c0-23.34-18.99-42.33-42.33-42.33Z"/></svg>