<?xml version="1.0" encoding="UTF-8"?><svg id="Icon" xmlns="http://www.w3.org/2000/svg" viewBox="0 0 512 512"><path d="M304,384H96v-224h304v80c0,8.84,7.16,16,16,16s16-7.16,16-16V80c0-8.84-7.16-16-16-16H80c-8.84,0-16,7.16-16,16v320c0,8.84,7.16,16,16,16h224c8.84,0,16-7.16,16-16s-7.16-16-16-16ZM400,96v32H96v-32h304Z"/><path d="M128,224h48c8.84,0,16-7.16,16-16s-7.16-16-16-16h-48c-8.84,0-16,7.16-16,16s7.16,16,16,16Z"/><path d="M272,224c8.84,0,16-7.16,16-16s-7.16-16-16-16h-48c-8.84,0-16,7.16-16,16s7.16,16,16,16h48Z"/><path d="M368,192h-48c-8.84,0-16,7.16-16,16s7.16,16,16,16h48c8.84,0,16-7.16,16-16s-7.16-16-16-16Z"/><path d="M128,320c-8.84,0-16,7.16-16,16s7.16,16,16,16h48c8.84,0,16-7.16,16-16s-7.16-16-16-16h-48Z"/><path d="M224,320c-8.84,0-16,7.16-16,16s7.16,16,16,16h48c8.84,0,16-7.16,16-16s-7.16-16-16-16h-48Z"/><path d="M384,272c0-8.84-7.16-16-16-16H128c-8.84,0-16,7.16-16,16s7.16,16,16,16h240c8.84,0,16-7.16,16-16Z"/><path d="M464,384h-32v-32c0-8.84-7.16-16-16-16s-16,7.16-16,16v32h-32c-8.84,0-16,7.16-16,16s7.16,16,16,16h32v32c0,8.84,7.16,16,16,16s16-7.16,16-16v-32h32c8.84,0,16-7.16,16-16s-7.16-16-16-16Z"/></svg>