<?xml version="1.0" encoding="UTF-8"?><svg id="Icon" xmlns="http://www.w3.org/2000/svg" viewBox="0 0 512 512"><path d="M418.5,319.83c-8.7-1.5-16.98,4.36-18.47,13.07-1.49,8.71,4.36,16.98,13.07,18.47,19.9,3.41,34.91,23.13,34.91,45.86,0,24.54-19.96,44.5-44.5,44.5-8.08,0-14.63-1.27-20.35-4.15h2.27c8.84,0,16-7.16,16-16s-7.16-16-16-16h-44.8c-8.84,0-16,7.16-16,16v42.43c0,8.84,7.16,16,16,16s16-7.16,16-16v-5.73c12.89,10.47,28.17,15.45,46.88,15.45,42.18,0,76.5-34.32,76.5-76.5,0-38.74-25.86-71.29-61.5-77.4Z"/><path d="M368,320h-240c-8.84,0-16,7.16-16,16s7.16,16,16,16h240c8.84,0,16-7.16,16-16s-7.16-16-16-16Z"/><path d="M272,384H96v-224h304v80c0,8.84,7.16,16,16,16s16-7.16,16-16V80c0-8.84-7.16-16-16-16H80c-8.84,0-16,7.16-16,16v320c0,8.84,7.16,16,16,16h192c8.84,0,16-7.16,16-16s-7.16-16-16-16ZM400,96v32H96v-32h304Z"/><path d="M128,224h48c8.84,0,16-7.16,16-16s-7.16-16-16-16h-48c-8.84,0-16,7.16-16,16s7.16,16,16,16Z"/><path d="M272,224c8.84,0,16-7.16,16-16s-7.16-16-16-16h-48c-8.84,0-16,7.16-16,16s7.16,16,16,16h48Z"/><path d="M368,192h-48c-8.84,0-16,7.16-16,16s7.16,16,16,16h48c8.84,0,16-7.16,16-16s-7.16-16-16-16Z"/><path d="M368,256h-240c-8.84,0-16,7.16-16,16s7.16,16,16,16h240c8.84,0,16-7.16,16-16s-7.16-16-16-16Z"/></svg>