<?xml version="1.0" encoding="UTF-8"?><svg id="Icon" xmlns="http://www.w3.org/2000/svg" viewBox="0 0 512 512"><path d="M272,56H80c-8.84,0-16,7.16-16,16v80c0,8.84,7.16,16,16,16h192c8.84,0,16-7.16,16-16v-80c0-8.84-7.16-16-16-16Z"/><path d="M272,192H80c-8.84,0-16,7.16-16,16v80c0,8.84,7.16,16,16,16h192c8.84,0,16-7.16,16-16v-80c0-8.84-7.16-16-16-16ZM256,272H96v-48h160v48Z"/><path d="M272,328H80c-8.84,0-16,7.16-16,16v80c0,8.84,7.16,16,16,16h192c8.84,0,16-7.16,16-16v-80c0-8.84-7.16-16-16-16ZM256,408H96v-48h160v48Z"/><path d="M459.31,101.3c-3-3-7.07-4.68-11.31-4.68h-.01l-86.87.08c-8.84,0-15.99,7.18-15.99,16.01,0,8.83,7.17,15.99,16,15.99h.02l70.86-.07v173.32h-60.29l22.33-22.33c6.25-6.25,6.25-16.38,0-22.63-6.25-6.25-16.38-6.25-22.63,0l-49.64,49.64c-3,3-4.69,7.07-4.69,11.31s1.69,8.31,4.69,11.31l49.64,49.64c3.12,3.12,7.22,4.69,11.31,4.69s8.19-1.56,11.31-4.69c6.25-6.25,6.25-16.38,0-22.63l-22.33-22.33h76.29c8.84,0,16-7.16,16-16V112.62c0-4.25-1.69-8.32-4.69-11.32Z"/></svg>