<?xml version="1.0" encoding="UTF-8"?><svg id="Icon" xmlns="http://www.w3.org/2000/svg" viewBox="0 0 512 512"><path d="M438.63,400l36.69-36.69c6.25-6.25,6.25-16.38,0-22.63-6.25-6.25-16.38-6.25-22.63,0l-36.69,36.69-36.69-36.69c-6.25-6.25-16.38-6.25-22.63,0-6.25,6.25-6.25,16.38,0,22.63l36.69,36.69-36.69,36.69c-6.25,6.25-6.25,16.38,0,22.63,3.12,3.12,7.22,4.69,11.31,4.69s8.19-1.56,11.31-4.69l36.69-36.69,36.69,36.69c3.12,3.12,7.22,4.69,11.31,4.69s8.19-1.56,11.31-4.69c6.25-6.25,6.25-16.38,0-22.63l-36.69-36.69Z"/><path d="M304,384H96v-224h304v80c0,8.84,7.16,16,16,16s16-7.16,16-16V80c0-8.84-7.16-16-16-16H80c-8.84,0-16,7.16-16,16v320c0,8.84,7.16,16,16,16h224c8.84,0,16-7.16,16-16s-7.16-16-16-16ZM400,96v32H96v-32h304Z"/><path d="M128,224h48c8.84,0,16-7.16,16-16s-7.16-16-16-16h-48c-8.84,0-16,7.16-16,16s7.16,16,16,16Z"/><path d="M272,224c8.84,0,16-7.16,16-16s-7.16-16-16-16h-48c-8.84,0-16,7.16-16,16s7.16,16,16,16h48Z"/><path d="M368,192h-48c-8.84,0-16,7.16-16,16s7.16,16,16,16h48c8.84,0,16-7.16,16-16s-7.16-16-16-16Z"/><path d="M128,320c-8.84,0-16,7.16-16,16s7.16,16,16,16h48c8.84,0,16-7.16,16-16s-7.16-16-16-16h-48Z"/><path d="M224,320c-8.84,0-16,7.16-16,16s7.16,16,16,16h48c8.84,0,16-7.16,16-16s-7.16-16-16-16h-48Z"/><path d="M384,272c0-8.84-7.16-16-16-16H128c-8.84,0-16,7.16-16,16s7.16,16,16,16h240c8.84,0,16-7.16,16-16Z"/></svg>