<?xml version="1.0" encoding="UTF-8"?><svg id="Icon" xmlns="http://www.w3.org/2000/svg" viewBox="0 0 512 512"><path d="M329.71,36.69c-6.25-6.25-16.38-6.25-22.63,0L36.69,307.09c-6.25,6.25-6.25,16.38,0,22.63l145.6,145.6c3,3,7.07,4.69,11.31,4.69s8.31-1.69,11.31-4.69L475.31,204.91c3-3,4.69-7.07,4.69-11.31s-1.69-8.31-4.69-11.31L329.71,36.69ZM193.6,441.37l-122.97-122.97,8.57-8.57,30.29,30.29c3.12,3.12,7.22,4.69,11.31,4.69s8.19-1.56,11.31-4.69c6.25-6.25,6.25-16.38,0-22.63l-30.29-30.29,8.57-8.57,9.49,9.49c3.12,3.12,7.22,4.69,11.31,4.69s8.19-1.56,11.31-4.69c6.25-6.25,6.25-16.38,0-22.63l-9.49-9.49,8.57-8.57,30.29,30.29c3.12,3.12,7.22,4.69,11.31,4.69s8.19-1.56,11.31-4.69c6.25-6.25,6.25-16.38,0-22.63l-30.29-30.29,8.57-8.57,9.49,9.49c3.12,3.12,7.22,4.69,11.31,4.69s8.19-1.56,11.31-4.69c6.25-6.25,6.25-16.38,0-22.63l-9.49-9.49,8.57-8.57,30.29,30.29c3.12,3.12,7.22,4.69,11.31,4.69s8.19-1.56,11.31-4.69c6.25-6.25,6.25-16.38,0-22.63l-30.29-30.29,8.57-8.57,9.49,9.49c3.12,3.12,7.22,4.69,11.31,4.69s8.19-1.56,11.31-4.69c6.25-6.25,6.25-16.38,0-22.63l-9.49-9.49,8.57-8.57,30.29,30.29c3.12,3.12,7.22,4.69,11.31,4.69s8.19-1.56,11.31-4.69c6.25-6.25,6.25-16.38,0-22.63l-30.29-30.29,29.37-29.37,122.97,122.97-247.77,247.77Z"/><circle cx="357.4" cy="154.6" r="18.38"/></svg>