<?xml version="1.0" encoding="UTF-8"?><svg id="Icon" xmlns="http://www.w3.org/2000/svg" viewBox="0 0 512 512"><path d="M64,400c0,26.47,21.53,48,48,48h288c26.47,0,48-21.53,48-48v-208.97c0-12.82-4.99-24.88-14.06-33.94l-79.03-79.03c-9.07-9.07-21.12-14.06-33.94-14.06H112c-26.47,0-48,21.53-48,48v288ZM336,416h-160v-128h160v128ZM176,96h128v64h-128v-64ZM96,112c0-8.82,7.18-16,16-16h32v80c0,8.84,7.16,16,16,16h160c8.84,0,16-7.16,16-16v-71.59l75.31,75.31c3.02,3.02,4.69,7.04,4.69,11.31v208.97c0,8.82-7.18,16-16,16h-32v-144c0-8.84-7.16-16-16-16h-192c-8.84,0-16,7.16-16,16v144h-32c-8.82,0-16-7.18-16-16V112Z"/></svg>