<?xml version="1.0" encoding="UTF-8"?><svg id="Icon" xmlns="http://www.w3.org/2000/svg" viewBox="0 0 512 512"><circle cx="149.18" cy="268.39" r="13.25"/><path d="M463.42,230.72c-8.13-3.46-17.53.33-20.99,8.46-3.27,7.68-14.93,7.46-19.83,7-.23-1.06-.49-2.08-.78-3.01-7.96-25.36-29.27-60.85-65.21-84.39-.73-.48-1.49-.87-2.26-1.21.15-1.83.22-3.68.22-5.54,0-38.36-31.21-69.56-69.56-69.56-34.76,0-63.65,25.63-68.76,58.98-16.95,4.58-34.58,11.24-52.55,19.88-3.7-.81-7.44-1.67-11.08-2.49-8-1.82-16.28-3.71-24.61-5.3-6.16-1.18-12.94-1.23-19.61-.14-13.89,2.26-19.48,10.35-21.57,14.97-2.1,4.65-4.51,14.24,3.03,26.29,5.74,9.18,13.08,16.28,20.83,23.11-5.23,7.57-8.97,16.43-11.17,26.5-.69,3.16-1.49,6.33-2.34,9.69-.24.96-.49,1.92-.74,2.92-.22.1-.44.2-.66.29-3,1.35-5.83,2.61-7.47,2.57-11.93-.37-22.04,8.35-23.54,20.35-.64,5.18-1.17,12.02.45,18.92,2.48,10.52,5.71,20.67,8.54,29.35,1.67,5.12,4.43,9.22,7.16,12.9,8.96,12.04,22.67,16.45,35.76,11.49.04-.01.07-.03.1-.04.31.32.69.74,1.16,1.29,8.88,10.57,20.42,19.21,35.14,26.28-.04,6.53-.02,13.05,0,19.41v6.67c.03,14.71,8.42,23.15,23.02,23.17,12.43.01,24.86.01,37.29,0,11.83-.01,18.95-5.28,22.42-16.59,1.1-3.59,2.19-7.18,3.28-10.77.14-.46.28-.91.42-1.37,12.2,3.05,18.48,3.56,31.56,2.04,0,1.58.01,3.16.02,4.73.11,13.08,8.96,21.89,22.02,21.93,5.76.02,11.51.01,17.27.01,7.23,0,14.46,0,21.68.03h.14c9,0,16.42-4.54,20.36-12.48,2.17-4.37,4.32-8.75,6.47-13.12,6.05-12.32,12.31-25.05,18.83-37.23,1.93-3.61,5.78-7.56,9.24-10.98,7.38-7.3,15.76-16.28,21.91-27.52,8.58-15.68,13.72-32.41,15.36-49.83.54.01,1.08.02,1.63.02,15.87,0,36.87-5.56,45.86-26.69,3.46-8.13-.33-17.53-8.46-20.99ZM285.01,114.46c20.71,0,37.56,16.85,37.56,37.56,0,15.57-9.71,29.61-24.22,35.12-10.09-2.55-20.52-3.86-31.09-3.86-1.01,0-2.01.01-3.01.04-10.41-6.93-16.8-18.73-16.8-31.3,0-20.71,16.85-37.56,37.56-37.56ZM392.93,268.71c-.4,15.7-4.32,30.14-11.98,44.14-4.16,7.61-10.31,14.17-16.34,20.13-5.12,5.06-10.92,11.09-14.95,18.63-6.78,12.66-13.16,25.65-19.34,38.21-1.26,2.57-2.52,5.13-3.79,7.7-5.39-.01-10.77-.01-16.16,0-2.43,0-4.87,0-7.3,0,0-.52,0-1.04,0-1.57,0-2.63,0-5.26,0-7.88,0-1.37-.09-2.59-.17-3.57-.02-.31-.05-.62-.06-.93-.26-4.48-2.39-8.65-5.88-11.48-3.48-2.83-8-4.07-12.43-3.42l-1.14.17c-13.56,2-20.36,3-25.42,2.81-4.72-.19-9.64-1.53-20.42-4.48l-4.49-1.23c-8.09-2.2-16.52,2.23-19.29,10.15-.12.34-.24.67-.36,1.01-.36.99-.77,2.12-1.16,3.39-1.26,4.12-2.52,8.24-3.77,12.36-.48,1.56-.95,3.12-1.42,4.68-7.32,0-14.64,0-21.97,0-.02-7.84-.03-15.89.07-23.78.11-9.29-4.53-16.4-13.05-20-13.13-5.56-22.83-12.21-29.65-20.34-3.8-4.52-15.19-18.09-35.72-11.09-.04-.05-.08-.11-.13-.17-1.74-2.34-2.28-3.32-2.42-3.73-3.26-10-5.84-18.38-7.82-26.76-.06-.24-.1-.5-.14-.79,5.01-1.08,9.25-2.99,12.68-4.53.55-.25,1.11-.5,1.67-.75,8.47-3.74,14.39-10.84,16.66-20,.31-1.26.63-2.53.95-3.79.88-3.46,1.78-7.04,2.58-10.71,2.02-9.25,5.65-15.91,11.43-20.98,1.49-1.31,2.49-2.55,3.15-3.37.1-.12.2-.25.31-.38,2.83-3.28,4.21-7.56,3.82-11.87-.38-4.31-2.5-8.28-5.86-11.01-1.09-.88-2.17-1.75-3.24-2.6-2.16-1.72-4.2-3.34-6.07-4.97-4.26-3.69-8.19-7.19-11.54-10.8,7.53,1.46,15.26,3.22,22.73,4.92,4.39,1,8.93,2.04,13.45,3.01,2.19.47,8.85,1.92,15.41-1.33,15.33-7.57,30.29-13.53,44.64-17.8,1.88,5.64,4.48,11.01,7.71,15.99-2.96,1-5.88,2.11-8.78,3.33-8.14,3.44-11.95,12.83-8.5,20.97,3.44,8.14,12.83,11.94,20.97,8.5,11.66-4.93,24.06-7.43,36.85-7.43,18.5,0,36.41,5.33,51.8,15.42,2.7,1.77,5.75,2.62,8.75,2.62,5.21,0,10.33-2.55,13.4-7.23,4.84-7.39,2.78-17.31-4.62-22.15-1.05-.69-2.11-1.34-3.17-1.99,4.02-3.91,7.54-8.29,10.51-13.03,26,18.89,41.68,45.78,47.33,63.77.48,1.73,1.05,7.38,1.23,9.23l.09.88c.28,2.75.38,4.47.34,5.92Z"/></svg>