<?xml version="1.0" encoding="UTF-8"?><svg id="Icon" xmlns="http://www.w3.org/2000/svg" viewBox="0 0 512 512"><path d="M449.08,363.02l-16.29-60.06c-2.31-8.53-11.1-13.56-19.63-11.25-8.53,2.31-13.57,11.1-11.25,19.63l6.12,22.57-26.17-15.15c1.39-4.13,2.14-8.5,2.14-12.96v-99.59c-.02-14.54-7.85-28.1-20.51-35.4l-87.05-49.74c-1.44-.83-2.93-1.56-4.44-2.2v-32.23l16.69,16.69c3.12,3.12,7.22,4.69,11.31,4.69s8.19-1.56,11.31-4.69c6.25-6.25,6.25-16.38,0-22.63l-44-44c-6.25-6.25-16.38-6.25-22.63,0l-44,44c-6.25,6.25-6.25,16.38,0,22.63,6.25,6.25,16.38,6.25,22.63,0l16.69-16.69v32.22c-1.49.64-2.96,1.35-4.38,2.17l-87.17,49.81c-12.6,7.27-20.43,20.82-20.44,35.38v99.57c0,4.47.75,8.84,2.15,12.96l-26.17,15.15,6.12-22.57c2.31-8.53-2.72-17.32-11.25-19.63-8.53-2.31-17.32,2.72-19.63,11.25l-16.29,60.06c-1.12,4.14-.54,8.55,1.62,12.25,2.16,3.7,5.72,6.38,9.87,7.44l60.06,15.29c1.32.34,2.65.5,3.96.5,7.14,0,13.65-4.82,15.49-12.06,2.18-8.56-2.99-17.27-11.56-19.45l-22-5.6,31.54-18.25,83.65,47.8c6.31,3.65,13.39,5.46,20.46,5.46s14.1-1.81,20.36-5.43l83.72-47.84,31.54,18.25-22,5.6c-8.56,2.18-13.74,10.89-11.56,19.45,1.84,7.24,8.35,12.06,15.49,12.06,1.31,0,2.64-.16,3.96-.5l60.06-15.29c4.15-1.06,7.71-3.74,9.87-7.44,2.16-3.7,2.75-8.12,1.62-12.25ZM240,155.38v29.62c0,8.84,7.16,16,16,16s16-7.16,16-16v-29.63l63.28,36.16-79.28,46.08-79.28-46.08,63.28-36.16ZM183.94,324.59l19.17-11.09c7.65-4.43,10.26-14.21,5.83-21.86-4.43-7.65-14.21-10.26-21.86-5.83l-27.08,15.67v-82.65l80,46.5v91.29l-56.06-32.03ZM272,356.62v-91.29l80-46.5v82.65l-27.08-15.67c-7.65-4.43-17.44-1.82-21.86,5.83-4.43,7.65-1.81,17.44,5.83,21.86l19.17,11.09-56.06,32.03Z"/></svg>