<?xml version="1.0" encoding="UTF-8"?><svg id="Icon" xmlns="http://www.w3.org/2000/svg" viewBox="0 0 512 512"><path d="M80,172.5c8.84,0,16-7.16,16-16v-60.5h60.5c8.84,0,16-7.16,16-16s-7.16-16-16-16h-63c-16.27,0-29.5,13.23-29.5,29.5v63c0,8.84,7.16,16,16,16Z"/><path d="M355.5,96h60.5v60.5c0,8.84,7.16,16,16,16s16-7.16,16-16v-63c0-16.27-13.23-29.5-29.5-29.5h-63c-8.84,0-16,7.16-16,16s7.16,16,16,16Z"/><path d="M156.5,416h-60.5v-60.5c0-8.84-7.16-16-16-16s-16,7.16-16,16v63c0,16.27,13.23,29.5,29.5,29.5h63c8.84,0,16-7.16,16-16s-7.16-16-16-16Z"/><path d="M432,339.5c-8.84,0-16,7.16-16,16v60.5h-60.5c-8.84,0-16,7.16-16,16s7.16,16,16,16h63c16.27,0,29.5-13.23,29.5-29.5v-63c0-8.84-7.16-16-16-16Z"/><rect x="157.37" y="157.37" width="31.26" height="31.26"/><path d="M445,280.5H67c-8.84,0-16,7.16-16,16s7.16,16,16,16h378c8.84,0,16-7.16,16-16s-7.16-16-16-16Z"/><polygon points="152.08 330.75 120.08 330.75 120.08 400.4 242.91 400.4 242.91 368.4 152.08 368.4 152.08 330.75"/><polygon points="288.9 368.4 288.9 400.4 391.66 400.4 391.66 330.75 359.66 330.75 359.66 368.4 345.23 368.4 345.23 328.25 266.76 328.25 266.76 360.25 313.23 360.25 313.23 368.4 288.9 368.4"/><polygon points="359.66 181.9 391.66 181.9 391.66 112.25 306.05 112.25 306.05 144.25 359.66 144.25 359.66 181.9"/><rect x="181.01" y="328.25" width="54.05" height="32"/><path d="M112,234h122v-122h-122v122ZM144,144h58v58h-58v-58Z"/><rect x="259.49" y="114.75" width="32" height="50.11"/><rect x="359.66" y="217.19" width="32" height="50.11"/><rect x="307.49" y="151.62" width="34.08" height="32"/><path d="M262.71,266.87h77v-77h-77v77ZM294.71,221.87h13v13h-13v-13Z"/></svg>