<?xml version="1.0" encoding="UTF-8"?><svg id="Icon" xmlns="http://www.w3.org/2000/svg" viewBox="0 0 512 512"><path d="M404.92,194.78h-183.23l175.02-35.45c24.05-4.87,39.66-28.4,34.78-52.45-4.87-24.05-28.4-39.65-52.45-34.78l-279.37,56.58c-24.05,4.87-39.66,28.4-34.78,52.45l3.57,17.63v174.16c0,23.75,19.32,43.08,43.08,43.08h293.39c23.75,0,43.08-19.32,43.08-43.08v-135.06c0-23.75-19.32-43.08-43.08-43.08ZM299.8,146.31l-21.02,4.26-21.19-21.22,21.02-4.26,21.19,21.22ZM316.22,117.47l21.02-4.26,21.19,21.22-21.02,4.26-21.19-21.22ZM241.16,158.19l-21.02,4.26-21.19-21.22,21.02-4.26,21.19,21.22ZM182.53,170.06l-21.02,4.26-21.19-21.22,21.02-4.26,21.19,21.22ZM385.39,103.46c.83-.17,1.67-.25,2.49-.25,5.82,0,11.05,4.1,12.25,10.02.66,3.24,0,6.57-1.86,9.37-.86,1.3-1.94,2.4-3.16,3.28l-20.26-20.29,10.54-2.13ZM103.05,161.06l20.84,20.88-25.16,5.1-2.48-12.25c-1.15-5.7,1.8-11.29,6.8-13.72ZM416,372.92c0,6-5.07,11.08-11.08,11.08H111.53c-6,0-11.08-5.07-11.08-11.08v-146.14h304.47c6,0,11.08,5.07,11.08,11.08v135.06Z"/></svg>