<?xml version="1.0" encoding="UTF-8"?><svg id="Icon" xmlns="http://www.w3.org/2000/svg" viewBox="0 0 512 512"><path d="M272.67,348.39v-75.06c0-9.2-7.46-16.67-16.67-16.67s-16.67,7.46-16.67,16.67v75.06c-13.78,9.2-17.48,27.83-8.28,41.61,5.78,8.65,15.29,13.34,24.97,13.34,5.73,0,11.52-1.64,16.64-5.06,13.78-9.2,17.48-27.83,8.28-41.61-2.19-3.28-5-6.09-8.28-8.28Z"/><path d="M392.89,80h-40.89v-16c0-8.84-7.16-16-16-16s-16,7.16-16,16v16h-128v-16c0-8.84-7.16-16-16-16s-16,7.16-16,16v16h-40.89c-30.39,0-55.11,24.72-55.11,55.11v273.78c0,30.39,24.72,55.11,55.11,55.11h273.78c30.39,0,55.11-24.72,55.11-55.11V135.11c0-30.39-24.72-55.11-55.11-55.11ZM119.11,112h40.89v16c0,8.84,7.16,16,16,16s16-7.16,16-16v-16h128v16c0,8.84,7.16,16,16,16s16-7.16,16-16v-16h40.89c12.74,0,23.11,10.37,23.11,23.11v56.78H96v-56.78c0-12.74,10.37-23.11,23.11-23.11ZM392.89,432H119.11c-12.74,0-23.11-10.37-23.11-23.11v-185h320v185c0,12.74-10.37,23.11-23.11,23.11Z"/></svg>