<?xml version="1.0" encoding="UTF-8"?><svg id="Icon" xmlns="http://www.w3.org/2000/svg" viewBox="0 0 512 512"><path d="M295.54,311.04h-38.17v-16.96h15.22c12.69-11.3.84-24.49.84-24.49h-44.82c-13.53,12.24,0,24.49,0,24.49h13.54v16.96h-47.25v37.68h78.66c8.45.94,6.77,8.47,6.77,8.47v34.61h36.79v-56.75c0-24.03-21.57-24.01-21.57-24.01Z"/><path d="M392.89,80h-40.89v-16c0-8.84-7.16-16-16-16s-16,7.16-16,16v16h-128v-16c0-8.84-7.16-16-16-16s-16,7.16-16,16v16h-40.89c-30.39,0-55.11,24.72-55.11,55.11v273.78c0,30.39,24.72,55.11,55.11,55.11h273.78c30.39,0,55.11-24.72,55.11-55.11V135.11c0-30.39-24.72-55.11-55.11-55.11ZM119.11,112h40.89v16c0,8.84,7.16,16,16,16s16-7.16,16-16v-16h128v16c0,8.84,7.16,16,16,16s16-7.16,16-16v-16h40.89c12.74,0,23.11,10.37,23.11,23.11v56.78H96v-56.78c0-12.74,10.37-23.11,23.11-23.11ZM392.89,432H119.11c-12.74,0-23.11-10.37-23.11-23.11v-185h320v185c0,12.74-10.37,23.11-23.11,23.11Z"/></svg>