<?xml version="1.0" encoding="UTF-8"?><svg id="Icon" xmlns="http://www.w3.org/2000/svg" viewBox="0 0 512 512"><path d="M256,313.66c-9.32,0-16.87,7.55-16.87,16.87s7.55,16.87,16.87,16.87,16.87-7.55,16.87-16.87-7.55-16.87-16.87-16.87Z"/><path d="M392.89,80h-40.89v-16c0-8.84-7.16-16-16-16s-16,7.16-16,16v16h-128v-16c0-8.84-7.16-16-16-16s-16,7.16-16,16v16h-40.89c-30.39,0-55.11,24.72-55.11,55.11v273.78c0,30.39,24.72,55.11,55.11,55.11h273.78c30.39,0,55.11-24.72,55.11-55.11V135.11c0-30.39-24.72-55.11-55.11-55.11ZM312.2,360.81s-9.51,1.37-13.25-11.29c0,0-7.43-14.55-17.79-18.55-.21,5.85-2.51,11.14-6.21,15.28,8.66,14.55,14.22,35.88-10.88,53.17,0,0-27.47,15.11-37.77-10.45,0,0-2.21-9.06,10.5-13.75,0,0,16.16-9.34,18.15-20.49-5.61-.18-10.7-2.14-14.83-5.3-15.5,7.4-37.66,11.3-53.85-13.87,0,0-13.92-27.48,13.05-35.91,0,0,9.47-1.59,13.53,10.99,0,0,7.5,13.89,17.68,17.96.4-5.98,2.92-11.4,6.95-15.47-8.11-14.36-12.3-34.53,11.41-51.29,0,0,27.28-15.47,37.92,9.98,0,0,2.31,9.04-10.32,13.87,0,0-15.38,9.19-17.71,20.11,4.71.52,8.99,2.26,12.54,4.94,15.72-7.45,38.78-11.75,54.79,14.46,0,0,13.27,27.8-13.89,35.62ZM416,191.89H96v-56.78c0-12.74,10.37-23.11,23.11-23.11h40.89v16c0,8.84,7.16,16,16,16s16-7.16,16-16v-16h128v16c0,8.84,7.16,16,16,16s16-7.16,16-16v-16h40.89c12.74,0,23.11,10.37,23.11,23.11v56.78Z"/></svg>