<?xml version="1.0" encoding="UTF-8"?><svg id="Icon" xmlns="http://www.w3.org/2000/svg" viewBox="0 0 512 512"><path d="M271.3,310.74c-3.56-2.68-7.83-4.42-12.54-4.94,2.33-10.92,17.71-20.11,17.71-20.11,12.63-4.83,10.32-13.87,10.32-13.87-10.64-25.44-37.92-9.98-37.92-9.98-23.7,16.76-19.51,36.92-11.41,51.29-4.03,4.08-6.55,9.49-6.95,15.47-10.18-4.08-17.68-17.96-17.68-17.96-4.05-12.57-13.53-10.99-13.53-10.99-26.97,8.43-13.05,35.91-13.05,35.91,16.19,25.17,38.35,21.27,53.85,13.87,4.13,3.16,9.22,5.12,14.83,5.3-1.99,11.15-18.15,20.49-18.15,20.49-12.71,4.69-10.5,13.75-10.5,13.75,10.29,25.56,37.77,10.45,37.77,10.45,25.1-17.29,19.54-38.62,10.88-53.17,3.69-4.14,6-9.43,6.21-15.28,10.37,4,17.79,18.55,17.79,18.55,3.75,12.66,13.25,11.29,13.25,11.29,27.16-7.82,13.89-35.61,13.89-35.61-16.01-26.21-39.07-21.91-54.79-14.46ZM256,347.39c-9.32,0-16.87-7.55-16.87-16.87s7.55-16.87,16.87-16.87,16.87,7.55,16.87,16.87-7.55,16.87-16.87,16.87Z"/><path d="M392.89,80h-40.89v-16c0-8.84-7.16-16-16-16s-16,7.16-16,16v16h-128v-16c0-8.84-7.16-16-16-16s-16,7.16-16,16v16h-40.89c-30.39,0-55.11,24.72-55.11,55.11v273.78c0,30.39,24.72,55.11,55.11,55.11h273.78c30.39,0,55.11-24.72,55.11-55.11V135.11c0-30.39-24.72-55.11-55.11-55.11ZM119.11,112h40.89v16c0,8.84,7.16,16,16,16s16-7.16,16-16v-16h128v16c0,8.84,7.16,16,16,16s16-7.16,16-16v-16h40.89c12.74,0,23.11,10.37,23.11,23.11v56.78H96v-56.78c0-12.74,10.37-23.11,23.11-23.11ZM392.89,432H119.11c-12.74,0-23.11-10.37-23.11-23.11v-185h320v185c0,12.74-10.37,23.11-23.11,23.11Z"/></svg>