<?xml version="1.0" encoding="UTF-8"?><svg id="Icon" xmlns="http://www.w3.org/2000/svg" viewBox="0 0 512 512"><path d="M392.89,80h-40.89v-16c0-8.84-7.16-16-16-16s-16,7.16-16,16v16h-128v-16c0-8.84-7.16-16-16-16s-16,7.16-16,16v16h-40.89c-30.39,0-55.11,24.72-55.11,55.11v273.78c0,30.39,24.72,55.11,55.11,55.11h273.78c30.39,0,55.11-24.72,55.11-55.11V135.11c0-30.39-24.72-55.11-55.11-55.11ZM317.11,391.81h-36.79v-34.61s1.69-7.53-6.77-8.47h-78.66v-37.68h47.25v-16.96h-13.54s-13.53-12.25,0-24.49h44.82s11.85,13.19-.84,24.49h-15.22v16.96h38.17s21.57-.02,21.57,24.01v56.75ZM416,191.89H96v-56.78c0-12.74,10.37-23.11,23.11-23.11h40.89v16c0,8.84,7.16,16,16,16s16-7.16,16-16v-16h128v16c0,8.84,7.16,16,16,16s16-7.16,16-16v-16h40.89c12.74,0,23.11,10.37,23.11,23.11v56.78Z"/></svg>