<?xml version="1.0" encoding="UTF-8"?><svg id="Icon" xmlns="http://www.w3.org/2000/svg" viewBox="0 0 512 512"><path d="M392.89,80h-40.89v-16c0-8.84-7.16-16-16-16s-16,7.16-16,16v16h-128v-16c0-8.84-7.16-16-16-16s-16,7.16-16,16v16h-40.89c-30.39,0-55.11,24.72-55.11,55.11v273.78c0,30.39,24.72,55.11,55.11,55.11h273.78c30.39,0,55.11-24.72,55.11-55.11V135.11c0-30.39-24.72-55.11-55.11-55.11ZM272.67,398.27c-5.12,3.42-10.91,5.06-16.64,5.06-9.68,0-19.19-4.68-24.97-13.34-9.2-13.77-5.5-32.4,8.28-41.61v-75.06c0-9.2,7.46-16.67,16.67-16.67s16.67,7.46,16.67,16.67v75.06c3.28,2.19,6.09,5,8.28,8.28,9.2,13.77,5.5,32.4-8.28,41.61ZM416,191.89H96v-56.78c0-12.74,10.37-23.11,23.11-23.11h40.89v16c0,8.84,7.16,16,16,16s16-7.16,16-16v-16h128v16c0,8.84,7.16,16,16,16s16-7.16,16-16v-16h40.89c12.74,0,23.11,10.37,23.11,23.11v56.78Z"/></svg>