<?xml version="1.0" encoding="UTF-8"?><svg id="Icon" xmlns="http://www.w3.org/2000/svg" viewBox="0 0 512 512"><path d="M256,330.67c-41.17,0-74.67-33.5-74.67-74.67s33.49-74.67,74.67-74.67,74.67,33.5,74.67,74.67-33.49,74.67-74.67,74.67ZM256,213.33c-23.53,0-42.67,19.14-42.67,42.67s19.14,42.67,42.67,42.67,42.67-19.14,42.67-42.67-19.14-42.67-42.67-42.67Z"/><path d="M80,172.72c-8.84,0-16-7.16-16-16v-63.18c0-16.29,13.25-29.54,29.54-29.54h63.18c8.84,0,16,7.16,16,16s-7.16,16-16,16h-60.72v60.72c0,8.84-7.16,16-16,16Z"/><path d="M432,172.72c-8.84,0-16-7.16-16-16v-60.72h-60.72c-8.84,0-16-7.16-16-16s7.16-16,16-16h63.18c16.29,0,29.54,13.25,29.54,29.54v63.18c0,8.84-7.16,16-16,16Z"/><path d="M156.72,448h-63.18c-16.29,0-29.54-13.25-29.54-29.54v-63.18c0-8.84,7.16-16,16-16s16,7.16,16,16v60.72h60.72c8.84,0,16,7.16,16,16s-7.16,16-16,16Z"/><path d="M418.46,448h-63.18c-8.84,0-16-7.16-16-16s7.16-16,16-16h60.72v-60.72c0-8.84,7.16-16,16-16s16,7.16,16,16v63.18c0,16.29-13.25,29.54-29.54,29.54Z"/></svg>