<?xml version="1.0" encoding="UTF-8"?><svg id="Icon" xmlns="http://www.w3.org/2000/svg" viewBox="0 0 512 512"><path d="M256,480.02c-28.5,0-57-5.51-84.21-16.55-55.44-22.49-98.8-65.22-122.1-120.32-3.44-8.14.37-17.53,8.51-20.97,8.14-3.44,17.53.37,20.97,8.51,30.94,73.16,102.22,117.2,177.07,117.2,24.89,0,50.17-4.87,74.51-15.16,97.49-41.23,143.27-154.08,102.04-251.58-19.24-45.49-54.76-81.43-100.03-101.18-8.1-3.53-11.8-12.96-8.27-21.06,3.53-8.1,12.96-11.8,21.06-8.27,52.82,23.05,94.26,64.97,116.71,118.05,23.3,55.1,23.75,115.98,1.26,171.41-22.49,55.44-65.22,98.8-120.32,122.1-28.06,11.87-57.63,17.8-87.21,17.81Z"/><path d="M255.97,272.02H48c-8.84,0-16-7.16-16-16,0-59.82,23.3-116.07,65.6-158.37,42.3-42.3,98.55-65.6,158.37-65.6,8.84,0,16,7.16,16,16v207.97c0,8.84-7.16,16-16,16ZM64.66,240.02h175.31V64.71c-93.12,7.72-167.59,82.19-175.31,175.31Z"/></svg>