<?xml version="1.0" encoding="UTF-8"?><svg id="Icon" xmlns="http://www.w3.org/2000/svg" viewBox="0 0 512 512"><path d="M240,144v128c0,8.84,7.16,16,16,16s16-7.16,16-16v-128c0-8.84-7.16-16-16-16s-16,7.16-16,16Z"/><path d="M256.15,336h-.3c-10.96,0-19.85,8.96-19.85,20s8.89,20,19.85,20h.3c10.96,0,19.85-8.96,19.85-20s-8.89-20-19.85-20Z"/><path d="M261.62,33.02c-3.62-1.36-7.61-1.36-11.24,0l-166.4,62.4c-6.25,2.34-10.38,8.31-10.38,14.98v145.6c0,31.47,9.55,62.94,28.37,93.54,14.64,23.8,34.93,47.11,60.29,69.31,42.65,37.32,84.81,58.58,86.58,59.47,2.25,1.13,4.7,1.69,7.16,1.69s4.9-.56,7.16-1.69c1.77-.89,43.93-22.15,86.58-59.47,25.36-22.19,45.65-45.51,60.29-69.31,18.83-30.59,28.37-62.06,28.37-93.54V110.4c0-6.67-4.14-12.64-10.38-14.98l-166.4-62.4ZM406.4,256c0,99.24-119.58,172.58-150.4,189.83-30.82-17.25-150.4-90.59-150.4-189.83V121.49l150.4-56.4,150.4,56.4v134.51Z"/></svg>