<?xml version="1.0" encoding="UTF-8"?><svg id="Icon" xmlns="http://www.w3.org/2000/svg" viewBox="0 0 512 512"><path d="M479.7,204c-1.14-5.81-5.4-10.52-11.08-12.24L96.38,79.4c-4.06-1.23-8.45-.79-12.19,1.22-3.74,2.01-6.53,5.41-7.76,9.48l-32.77,108.56c-2.55,8.46,2.23,17.39,10.69,19.94l298.5,90.1c1.52.46,3.08.68,4.62.68,3.62,0,7.19-1.23,10.07-3.57l10.52-8.52-8.64,25.18L80.47,234.19c-8.45-2.58-17.39,2.18-19.98,10.63-2.58,8.45,2.18,17.39,10.63,19.98l133.75,40.85-46.63,47.03h-94.24v-34c0-8.84-7.16-16-16-16s-16,7.16-16,16v98.61c0,8.84,7.16,16,16,16s16-7.16,16-16v-32.61h99.27c.6,0,1.19-.04,1.77-.1,4.11,0,8.21-1.59,11.33-4.73l63.09-63.62,135.42,41.36c1.56.48,3.13.7,4.68.7,6.66,0,12.86-4.19,15.13-10.81l28.65-83.49c.46-1.33.71-2.68.81-4.02l49.93-40.44c4.6-3.73,6.77-9.7,5.63-15.51Z"/><path d="M448.82,255.28c-8.4-2.74-17.43,1.85-20.17,10.25l-18.34,56.25c-2.74,8.4,1.85,17.43,10.25,20.17,1.65.54,3.32.79,4.96.79,6.74,0,13.01-4.29,15.21-11.04l18.34-56.25c2.74-8.4-1.85-17.43-10.25-20.17Z"/></svg>