<?xml version="1.0" encoding="UTF-8"?><svg id="Icon" xmlns="http://www.w3.org/2000/svg" viewBox="0 0 512 512"><path d="M428.02,95.42l-166.4-62.4c-3.62-1.36-7.61-1.36-11.24,0l-166.4,62.4c-6.24,2.34-10.38,8.31-10.38,14.98v145.6c0,31.47,9.55,62.94,28.37,93.54,14.64,23.8,34.93,47.11,60.29,69.31,42.65,37.32,84.81,58.58,86.58,59.47,2.25,1.13,4.7,1.69,7.16,1.69s4.9-.56,7.16-1.69c1.77-.89,43.93-22.15,86.58-59.47,25.36-22.19,45.65-45.51,60.29-69.31,18.83-30.59,28.37-62.06,28.37-93.54V110.4c0-6.67-4.14-12.64-10.38-14.98ZM363.51,201.18l-132.27,132.27c-3.12,3.12-7.22,4.69-11.31,4.69s-8.19-1.56-11.31-4.69l-60.13-60.12c-6.25-6.25-6.25-16.38,0-22.63,6.25-6.25,16.38-6.25,22.63,0l48.81,48.81,120.96-120.96c6.25-6.25,16.38-6.25,22.63,0,6.25,6.25,6.25,16.38,0,22.63Z"/></svg>