<?xml version="1.0" encoding="UTF-8"?><svg id="Icon" xmlns="http://www.w3.org/2000/svg" viewBox="0 0 512 512"><path d="M279.6,95.35l-51.23,19.95c-9.75,3.8-14.86,14.53-11.66,24.49l10.48,32.65c3.49,10.86,15.4,16.53,26.03,12.39l51.22-19.96c9.75-3.8,14.85-14.52,11.66-24.49l-10.47-32.64c-3.48-10.86-15.4-16.53-26.03-12.4Z"/><path d="M382.95,168.3l-48-126c-3.08-8.1-12.06-12.27-20.24-9.41l-160,56c-4.12,1.44-7.47,4.5-9.28,8.48-1.81,3.97-1.91,8.51-.29,12.57l46.86,117.14v144.9l-56.27,22.8c-5.24,2.12-8.97,6.85-9.81,12.43-.85,5.59,1.32,11.21,5.69,14.78l64.61,52.82c.71.78,1.51,1.49,2.38,2.13,2.77,2.01,6.07,3.06,9.41,3.06.04,0,.09,0,.13,0,.04,0,.08,0,.12,0,.22,0,.44-.03.66-.04.13,0,.27-.01.4-.02,1.8-.12,3.57-.54,5.25-1.25l158.38-51.47c6.59-2.14,11.05-8.29,11.05-15.22v-238c0-1.95-.35-3.88-1.05-5.7ZM192,406.51v23.53l-19.24-15.73,19.24-7.8ZM352,400.38l-128,41.6v-217.98c0-2.04-.39-4.05-1.14-5.94l-41.79-104.48,129.53-45.33,41.41,108.7v223.43Z"/><path d="M249.98,203.18c-8.19,3.33-12.13,12.66-8.8,20.85,2.52,6.21,8.51,9.98,14.83,9.98,2.01,0,4.04-.38,6.02-1.18l64-26c8.19-3.33,12.13-12.66,8.8-20.85-3.33-8.19-12.66-12.13-20.85-8.8l-64,26Z"/></svg>