<?xml version="1.0" encoding="UTF-8"?><svg id="Icon" xmlns="http://www.w3.org/2000/svg" viewBox="0 0 512 512"><path d="M213.14,306.16c-.08,0-.15,0-.23,0,.08.1.15.2.23.3v-.31Z"/><path d="M213.14,324.85v-.31c-.08.1-.15.21-.23.31.08,0,.15,0,.23,0Z"/><path d="M243.84,68.86h-36.7c-40.88,0-74.28,23.9-87.85,48.4-13.69,4.51-25.8,13.1-34.6,24.67-9.47,12.43-14.83,27.51-15.64,43.83-18.07,15.02-28.66,39.67-28.66,67.51,0,18.47,6.34,38.32,16.46,52.39-1.55,20.14,2.82,47.74,20.24,67.47,7.24,8.43,22.86,21.84,49.7,23.6,18.31,31.21,46.46,46.39,85.77,46.39,9.94,0,21.07-1.15,35.03-3.61.1-.02.2-.05.3-.06,9.72-1.94,16.52-10.29,16.52-20.32V89.44c0-11.72-8.84-20.57-20.57-20.57ZM205.17,364.21c4.49,1.92,9.77.83,12.98-2.85,3.14-3.61,8.14-7.16,15.61-7.16,1.01,0,2.04.07,3.1.21v58.98c-9.55,1.5-17.38,2.2-24.29,2.2-28.63,0-47.81-9.71-61.08-31.24h.68v-4.44c0-21.6,10.39-61,48.32-66.82,5.64-.86,9.84-5.63,9.84-11.33h0c0-7.05-6.31-12.4-13.28-11.31-18.33,2.85-34.05,11.74-46.08,26.11-5.26-2.13-9.64-6.17-12.03-10.03-2.13-3.44-5.8-5.62-9.85-5.62h0c-8.82,0-14.44,9.63-9.9,17.19,4.42,7.36,11.34,13.82,19.45,17.97-4.72,10.17-7.73,21.43-8.86,33.23-16.74-.78-26.51-7.96-31.84-14.17-.05-.06-.09-.1-.14-.16-12.2-13.79-15.32-35.75-13-51.39.6-4.02-.61-8.09-3.31-11.15-8.11-9.17-13.55-24.91-13.55-39.15,0-21.53,8.35-39.84,22.32-48.98,3.89-2.55,6.23-6.88,6.23-11.53v-2.72c0-20.32,10.42-37.28,26.69-44.78,4.71,39.98,28.72,50.35,54.91,52.42,6.63.52,12.28-4.78,12.28-11.42h0c0-6.02-4.67-10.96-10.67-11.42-23.28-1.81-34.42-11.16-34.42-44.72v-2.67c10.56-15.95,34.79-31.03,61.86-31.03h29.72v45.03c-2.88.61-5.76.93-8.61.93-9.34,0-17.17-3.25-22.16-8.95-3.09-3.53-7.97-4.88-12.32-3.12l-.57.23c-7.27,2.94-9.47,12.19-4.29,18.08,9.27,10.55,23.29,16.71,39.26,16.71,2.89,0,5.8-.21,8.69-.61v49.29c-6.11-2.9-12.36-4.39-18.73-4.39-13.07.01-25.57,6.2-37.15,18.38-6.12,6.42-16.02,10.4-25.83,10.4-3.46,0-6.66-.51-9.46-1.48-2.46-12.96-11.31-23.22-23.58-27.92-7.47-2.86-15.47,2.83-15.47,10.83h0c0,4.69,2.85,8.9,7.2,10.67,5.78,2.35,9.62,7.54,9.62,13.84,0,5.17-2.29,10.39-5.75,13.89-3.05,3.09-4.03,7.68-2.58,11.77h0c2.78,7.86,12.89,10.31,18.76,4.39,4.02-4.06,7.27-9.02,9.44-14.45,3.71.82,7.63,1.25,11.7,1.25,16.28,0,32.18-6.5,42.55-17.39,7.11-7.46,14.02-11.25,20.6-11.25,5.89,0,12.17,3.04,18.68,9.07v89.77c-1.01-.06-2.03-.1-3.03-.1-12.67,0-24.51,5.58-32.85,14.94-5.14,5.78-2.93,14.95,4.19,17.98h0Z"/><path d="M243.84,68.86h-36.7c-40.88,0-74.28,23.9-87.85,48.4-13.69,4.51-25.8,13.1-34.6,24.67-9.47,12.43-14.83,27.51-15.64,43.83-18.07,15.02-28.66,39.67-28.66,67.51,0,18.47,6.34,38.32,16.46,52.39-1.55,20.14,2.82,47.74,20.24,67.47,7.24,8.43,22.86,21.84,49.7,23.6,18.31,31.21,46.46,46.39,85.77,46.39,9.94,0,21.07-1.15,35.03-3.61.1-.02.2-.05.3-.06,9.72-1.94,16.52-10.29,16.52-20.32V89.44c0-11.72-8.84-20.57-20.57-20.57ZM205.17,364.21c4.49,1.92,9.77.83,12.98-2.85,3.14-3.61,8.14-7.16,15.61-7.16,1.01,0,2.04.07,3.1.21v58.98c-9.55,1.5-17.38,2.2-24.29,2.2-28.63,0-47.81-9.71-61.08-31.24h.68v-4.44c0-21.6,10.39-61,48.32-66.82,5.64-.86,9.84-5.63,9.84-11.33h0c0-7.05-6.31-12.4-13.28-11.31-18.33,2.85-34.05,11.74-46.08,26.11-5.26-2.13-9.64-6.17-12.03-10.03-2.13-3.44-5.8-5.62-9.85-5.62h0c-8.82,0-14.44,9.63-9.9,17.19,4.42,7.36,11.34,13.82,19.45,17.97-4.72,10.17-7.73,21.43-8.86,33.23-16.74-.78-26.51-7.96-31.84-14.17-.05-.06-.09-.1-.14-.16-12.2-13.79-15.32-35.75-13-51.39.6-4.02-.61-8.09-3.31-11.15-8.11-9.17-13.55-24.91-13.55-39.15,0-21.53,8.35-39.84,22.32-48.98,3.89-2.55,6.23-6.88,6.23-11.53v-2.72c0-20.32,10.42-37.28,26.69-44.78,4.71,39.98,28.72,50.35,54.91,52.42,6.63.52,12.28-4.78,12.28-11.42h0c0-6.02-4.67-10.96-10.67-11.42-23.28-1.81-34.42-11.16-34.42-44.72v-2.67c10.56-15.95,34.79-31.03,61.86-31.03h29.72v45.03c-2.88.61-5.76.93-8.61.93-9.34,0-17.17-3.25-22.16-8.95-3.09-3.53-7.97-4.88-12.32-3.12l-.57.23c-7.27,2.94-9.47,12.19-4.29,18.08,9.27,10.55,23.29,16.71,39.26,16.71,2.89,0,5.8-.21,8.69-.61v49.29c-6.11-2.9-12.36-4.39-18.73-4.39-13.07.01-25.57,6.2-37.15,18.38-6.12,6.42-16.02,10.4-25.83,10.4-3.46,0-6.66-.51-9.46-1.48-2.46-12.96-11.31-23.22-23.58-27.92-7.47-2.86-15.47,2.83-15.47,10.83h0c0,4.69,2.85,8.9,7.2,10.67,5.78,2.35,9.62,7.54,9.62,13.84,0,5.17-2.29,10.39-5.75,13.89-3.05,3.09-4.03,7.68-2.58,11.77h0c2.78,7.86,12.89,10.31,18.76,4.39,4.02-4.06,7.27-9.02,9.44-14.45,3.71.82,7.63,1.25,11.7,1.25,16.28,0,32.18-6.5,42.55-17.39,7.11-7.46,14.02-11.25,20.6-11.25,5.89,0,12.17,3.04,18.68,9.07v89.77c-1.01-.06-2.03-.1-3.03-.1-12.67,0-24.51,5.58-32.85,14.94-5.14,5.78-2.93,14.95,4.19,17.98h0Z"/><path d="M290.42,287.31c-7.61,0-13.78,6.17-13.78,13.78s6.17,13.78,13.78,13.78c32.46,0,58.87-26.41,58.87-58.86s-26.41-58.86-58.87-58.86c-7.61,0-13.78,6.17-13.78,13.78s6.17,13.78,13.78,13.78c17.27,0,31.31,14.05,31.31,31.31s-14.05,31.31-31.31,31.31Z"/><path d="M444.75,286.8l-25-19.55c.22-2.7.38-5.24.46-7.67l.06-3.57c0-3.5-.18-7.17-.52-11.25l25-19.55c11.88-9.28,15.14-26.14,7.59-39.18l-27.32-47.23c-7.51-13.02-23.73-18.61-37.65-13.02l-27.46,11.02c-1.8.72-3.63-.28-4.35-.72-4.65-3.12-9.51-5.95-14.54-8.47-.76-.38-2.56-1.48-2.84-3.39l-4.2-29.24c-2.12-14.9-15.06-26.1-30.1-26.1h-14.19c-7.21,0-13.05,5.84-13.05,13.05h0c0,7.21,5.84,13.05,13.05,13.05h14.19c2.18,0,3.95,1.56,4.27,3.7l4.19,29.26c1.38,9.79,7.75,18.39,16.94,23,4.09,2.06,8.01,4.35,11.84,6.87,8.65,5.75,19.31,6.95,28.5,3.22l27.46-11.01c1.94-.84,4.25-.02,5.33,1.84l27.3,47.27c1.08,1.82.62,4.21-1.08,5.53l-30.7,24c-3.64,2.84-5.51,7.35-4.91,11.9.42,3.35.78,6.79.96,10.25l.16,5.19c0,5.21-.5,10.41-1.12,15.44-.6,4.57,1.28,9.08,4.91,11.9l30.7,24c1.7,1.34,2.16,3.72,1.08,5.57l-27.3,47.25c-1.08,1.84-3.39,2.64-5.33,1.84l-27.46-11.01c-9.19-3.7-19.89-2.54-28.52,3.22-3.82,2.52-7.73,4.79-11.79,6.85-9.23,4.63-15.6,13.24-16.98,23.02l-4.19,29.24c-.32,2.14-2.1,3.7-4.27,3.7h-14.19c-7.21,0-13.05,5.84-13.05,13.05h0c0,7.21,5.84,13.05,13.05,13.05h14.19c15.04,0,27.98-11.22,30.1-26.08l4.2-29.26c.28-1.92,2.08-3.01,2.87-3.39,4.99-2.52,9.85-5.33,14.48-8.43.7-.48,2.56-1.5,4.37-.76l27.46,11.04c13.94,5.59,30.14.02,37.65-13.02l27.32-47.25c7.55-13.04,4.29-29.88-7.59-39.18Z"/></svg>