<?xml version="1.0" encoding="UTF-8"?><svg id="Icon" xmlns="http://www.w3.org/2000/svg" viewBox="0 0 512 512"><path d="M439.16,241.69L87.16,65.69c-5.73-2.87-12.61-2.04-17.5,2.1-4.89,4.14-6.83,10.79-4.95,16.91l52.71,171.29-52.71,171.29c-1.88,6.12.06,12.77,4.95,16.91,2.95,2.5,6.63,3.79,10.34,3.79,2.43,0,4.88-.55,7.15-1.69l352-176c5.42-2.71,8.84-8.25,8.84-14.31s-3.42-11.6-8.84-14.31ZM106.29,400.97l39.68-128.97h110.03c8.84,0,16-7.16,16-16s-7.16-16-16-16h-110.03l-39.68-128.97,289.93,144.97L106.29,400.97Z"/></svg>