<?xml version="1.0" encoding="UTF-8"?><svg id="Icon" xmlns="http://www.w3.org/2000/svg" viewBox="0 0 512 512"><path d="M448,256c0-8.84-7.16-16-16-16s-16,7.16-16,16v112c0,8.82-7.18,16-16,16H112c-8.82,0-16-7.18-16-16v-160c0-8.82,7.18-16,16-16h48c8.84,0,16-7.16,16-16s-7.16-16-16-16h-48c-26.47,0-48,21.53-48,48v160c0,26.47,21.53,48,48,48h288c26.47,0,48-21.53,48-48v-112Z"/><path d="M225.79,256c-1.43,0-2.87-.19-4.3-.59-7.23-2.02-12.08-8.78-11.68-16.27.08-1.44,2.14-35.69,23.18-69.99,18.26-29.77,54.27-64.86,123.38-69.58v-24.27c0-6.15,3.52-11.75,9.06-14.42,5.54-2.67,12.11-1.92,16.92,1.91l91.62,73.08c3.8,3.03,6.02,7.63,6.02,12.5,0,4.86-2.21,9.47-6,12.51l-91.62,73.3c-4.8,3.84-11.39,4.59-16.93,1.93-5.54-2.66-9.07-8.27-9.07-14.42v-24.15c-10.7.5-25.89,1.82-42.01,5.24-47.14,9.99-66.51,29.85-74.47,44.76-2.83,5.31-8.32,8.47-14.12,8.47Z"/></svg>