<?xml version="1.0" encoding="UTF-8"?><svg id="Icon" xmlns="http://www.w3.org/2000/svg" viewBox="0 0 512 512"><path d="M224,317.82c0-8.73-9.45-15.27-9.45-22.54v-19.63h-13.09v19.63c0,7.27-9.45,13.82-9.45,22.54v66.18h32v-66.18Z"/><path d="M296.84,320.76c-19.43,0-35.18,15.75-35.18,35.18v44.06h-85.66c0,2.43.37,5.17,1.05,7.37,22.7,10.31,52.9,16.06,79.46,16.06s52.54-5.93,75.51-16.55v-50.95c0-19.43-15.75-35.18-35.18-35.18Z"/><path d="M256,32c-49.69,0-94.76,27.56-117.63,71.92-7.59,14.73-8.4,30.05-2.27,43.13,5.96,12.71,17.98,22.18,32.17,25.32,22.25,4.93,44.78-8.55,54.77-32.79,4.38-10.62,14.49-28.43,32.96-28.43s32.91,14.76,32.91,32.91-14.76,32.91-32.91,32.91h-107.43c-13.64,0-24.73,11.1-24.73,24.73v237.67l7.48,4.71c37.31,23.49,80.43,35.91,124.68,35.91s87.37-12.42,124.68-35.91l7.48-4.71V164.16c0-72.87-59.29-132.16-132.16-132.16ZM356.16,421.5c-30.42,17.36-64.87,26.5-100.16,26.5s-69.73-9.14-100.16-26.5v-212.52h100.16c35.79,0,64.91-29.12,64.91-64.91s-29.12-64.91-64.91-64.91c-27.1,0-49.89,17.58-62.54,48.23-2.7,6.55-9.81,15.62-18.27,13.75-4.43-.98-8.4-3.99-10.12-7.66-1.88-4.01-1.3-9.02,1.73-14.89,17.36-33.67,51.54-54.59,89.19-54.59,55.23,0,100.16,44.93,100.16,100.16v257.34Z"/><circle cx="296" cy="280" r="24"/></svg>