<?xml version="1.0" encoding="UTF-8"?><svg id="Icon" xmlns="http://www.w3.org/2000/svg" viewBox="0 0 512 512"><path d="M448,162.75v-21.32c0-20.38-13.49-37.66-32-43.41v-7.4c0-23.5-19.12-42.63-42.63-42.63h-234.75c-23.5,0-42.63,19.12-42.63,42.63v7.4c-18.51,5.74-32,23.03-32,43.41v21.32c-18.62,6.6-32,24.39-32,45.25v192c0,26.47,21.53,48,48,48h352c26.47,0,48-21.53,48-48v-192c0-20.86-13.38-38.64-32-45.25ZM138.63,80h234.75c5.76,0,10.63,4.87,10.63,10.63v5.37H128v-5.37c0-5.76,4.87-10.63,10.63-10.63ZM109.44,128h293.13c7.41,0,13.44,6.03,13.44,13.44v18.56H96v-18.56c0-7.41,6.03-13.44,13.44-13.44Z"/></svg>