<?xml version="1.0" encoding="UTF-8"?><svg id="Icon" xmlns="http://www.w3.org/2000/svg" viewBox="0 0 512 512"><defs><style>.cls-1{fill-rule:evenodd;}</style></defs><path class="cls-1" d="M224.48,474.55c-18.41,0-34.24-13.71-36.83-31.9l-4.88-34.08-.07-.19c-.39-1.08-1.75-1.86-2.15-2.07-5.7-2.89-11.42-6.23-17-9.93-.26-.18-1.23-.77-2.25-.77-.3,0-.57.05-.83.15l-31.84,12.8c-4.39,1.76-9.02,2.66-13.76,2.66-13.34,0-25.72-7.11-32.31-18.56l-31.59-54.7c-9.23-15.94-5.24-36.53,9.28-47.89l28.08-21.99-.08-1.07c-.29-3.91-.44-7.51-.44-11.01s.14-7.09.44-11.02l.08-1.07-28.08-21.99c-14.53-11.33-18.52-31.93-9.28-47.92l31.59-54.66c6.6-11.44,19.01-18.55,32.38-18.55,4.72,0,9.33.89,13.69,2.63l32.18,12.95h.39c.77,0,1.65-.29,2.37-.77,5.54-3.68,11.27-7.03,17.05-9.96.41-.22,1.73-.97,2.1-2.07l.06-.18,4.88-34.04c2.58-18.2,18.42-31.92,36.83-31.92h63.05c18.4,0,34.22,13.72,36.81,31.92l4.87,33.93.02.09c.3,1.26,1.85,2.08,2.15,2.23,5.77,2.89,11.49,6.21,16.97,9.88l.09.06c1.09.65,1.88.78,2.35.78h.39l32.2-12.9c4.37-1.75,8.98-2.64,13.7-2.64,13.34,0,25.74,7.11,32.34,18.56l31.62,54.66c9.24,15.96,5.25,36.57-9.28,47.92l-28.08,21.96.08,1.06c.3,4.06.44,7.67.44,11.04l-.07,4.17c-.07,2.13-.19,4.39-.37,6.87l-.08,1.06,28.08,21.96c14.52,11.37,18.51,31.97,9.28,47.92l-31.62,54.68c-6.6,11.46-18.98,18.57-32.32,18.57-4.73,0-9.35-.89-13.72-2.65l-32.14-12.92h-.39c-1.13,0-2.08.57-2.44.82-5.37,3.59-11.09,6.92-16.98,9.89-.41.19-1.88.98-2.2,2.21l-.03.11-4.87,33.97c-2.59,18.19-18.41,31.9-36.81,31.9h-63.05ZM161.29,361.43c7.48,0,14.8,2.22,21.17,6.42,4.63,3.08,9.08,5.68,13.61,7.95,11.19,5.72,18.88,16.23,20.57,28.11l4.88,33.88c.2,1.43,1.51,2.56,2.97,2.56h63.05c1.52,0,2.74-1.06,2.97-2.57l4.85-33.82c1.69-11.96,9.43-22.48,20.73-28.15,4.59-2.33,9.1-4.95,13.43-7.81,6.39-4.26,13.76-6.51,21.3-6.51,4.7,0,9.26.88,13.55,2.6l31.77,12.73c.34.14.7.21,1.08.21,1.06,0,2.09-.59,2.63-1.5l31.59-54.67c.74-1.28.42-2.95-.76-3.88l-35.51-27.77c-4.75-3.69-7.21-9.67-6.44-15.61.59-4.82,1.27-11.16,1.28-17.54l-.19-6.01c-.18-3.45-.53-7.14-1.09-11.67-.78-5.92,1.69-11.89,6.44-15.6l35.52-27.78c1.18-.91,1.51-2.55.76-3.81l-31.6-54.72c-.53-.92-1.55-1.51-2.59-1.51-.37,0-.73.07-1.06.22l-31.82,12.75c-4.28,1.74-8.83,2.62-13.52,2.62-7.51,0-14.88-2.26-21.31-6.54-4.58-3.01-8.99-5.57-13.5-7.83-11.26-5.66-18.99-16.17-20.68-28.13l-4.85-33.85c-.22-1.49-1.47-2.56-2.97-2.56h-63.05c-1.46,0-2.76,1.12-2.97,2.56l-4.88,33.88c-1.68,11.87-9.36,22.37-20.53,28.07-4.64,2.36-9.09,4.97-13.62,7.98-6.37,4.22-13.71,6.45-21.2,6.45-4.7,0-9.27-.88-13.58-2.61l-31.82-12.78c-.36-.14-.74-.21-1.11-.21-1.07,0-2.04.56-2.59,1.5l-31.59,54.67c-.74,1.29-.42,2.94.75,3.85l35.53,27.78c4.7,3.68,7.16,9.64,6.44,15.55-.6,4.86-1.28,11.26-1.28,17.67s.68,12.8,1.28,17.67c.72,5.91-1.74,11.86-6.44,15.54l-35.52,27.8c-1.16.9-1.48,2.56-.74,3.86l31.59,54.67c.53.91,1.52,1.47,2.59,1.47.39,0,.77-.07,1.14-.21l31.77-12.77c4.33-1.73,8.91-2.61,13.62-2.61ZM256,333.55c-42.76,0-77.55-34.79-77.55-77.55s34.79-77.55,77.55-77.55,77.55,34.79,77.55,77.55-34.79,77.55-77.55,77.55ZM256,212.68c-23.89,0-43.32,19.44-43.32,43.32s19.43,43.32,43.32,43.32,43.32-19.43,43.32-43.32-19.43-43.32-43.32-43.32Z"/></svg>