<?xml version="1.0" encoding="UTF-8"?><svg id="Icon" xmlns="http://www.w3.org/2000/svg" viewBox="0 0 512 512"><defs><style>.cls-1{fill-rule:evenodd;}</style></defs><path d="M256,368c-2.45,0-4.9-.56-7.16-1.69-3.35-1.67-81.99-41.73-81.99-105.74v-64c0-6.67,4.14-12.64,10.38-14.98l73.14-27.43c3.62-1.36,7.61-1.36,11.24,0l73.14,27.43c6.25,2.34,10.38,8.31,10.38,14.98v64c0,64.01-78.64,104.07-81.99,105.74-2.25,1.13-4.7,1.69-7.16,1.69ZM198.86,207.66v52.91c0,32.48,36.38,60.83,57.14,73.16,20.76-12.33,57.14-40.69,57.14-73.16v-52.91l-57.14-21.43-57.14,21.43Z"/><path d="M243.53,299.43s0,0,0,0c-4.24,0-8.31-1.69-11.31-4.69l-20.78-20.78c-6.25-6.25-6.25-16.38,0-22.63s16.38-6.25,22.63,0l9.46,9.47,34.4-34.4c6.25-6.25,16.38-6.25,22.63,0,6.25,6.25,6.25,16.38,0,22.63l-45.71,45.71c-3,3-7.07,4.69-11.31,4.69Z"/><path class="cls-1" d="M451.76,290.06l-28.08-21.96.08-1.06c.18-2.48.3-4.73.37-6.87l.07-4.17c0-3.38-.14-6.99-.44-11.04l-.08-1.06,28.08-21.96c14.53-11.35,18.52-31.96,9.28-47.92l-31.62-54.66c-6.61-11.45-19-18.56-32.34-18.56-4.72,0-9.33.89-13.7,2.64l-32.2,12.9h-.39c-.47,0-1.27-.14-2.35-.78l-.09-.06c-5.49-3.67-11.2-6.99-16.97-9.88-.31-.15-1.85-.97-2.15-2.23l-.02-.09-4.87-33.93c-2.59-18.2-18.41-31.92-36.81-31.92h-63.05c-18.41,0-34.24,13.72-36.83,31.92l-4.88,34.04-.06.18c-.38,1.1-1.69,1.85-2.1,2.07-5.78,2.93-11.51,6.28-17.05,9.96-.73.48-1.6.77-2.37.77h-.39l-32.18-12.95c-4.36-1.75-8.96-2.63-13.69-2.63-13.37,0-25.78,7.11-32.38,18.55l-31.59,54.66c-9.24,15.99-5.25,36.59,9.28,47.92l28.08,21.99-.08,1.07c-.29,3.92-.44,7.53-.44,11.02s.14,7.11.44,11.01l.08,1.07-28.08,21.99c-14.52,11.37-18.51,31.96-9.28,47.89l31.59,54.7c6.59,11.45,18.96,18.56,32.31,18.56,4.74,0,9.37-.89,13.76-2.66l31.84-12.8c.26-.1.54-.15.83-.15,1.02,0,1.98.59,2.25.77,5.59,3.7,11.3,7.04,17,9.93.41.21,1.77.99,2.15,2.07l.07.19,4.88,34.08c2.59,18.19,18.42,31.9,36.83,31.9h63.05c18.39,0,34.22-13.71,36.81-31.9l4.87-33.97.03-.11c.32-1.22,1.79-2.01,2.2-2.21,5.9-2.97,11.61-6.3,16.98-9.89.36-.25,1.31-.82,2.44-.82h.39l32.14,12.92c4.38,1.76,8.99,2.65,13.72,2.65,13.34,0,25.72-7.12,32.32-18.57l31.62-54.68c9.23-15.95,5.24-36.55-9.28-47.92ZM431.42,320.87l-31.59,54.67c-.53.91-1.56,1.5-2.63,1.5-.38,0-.73-.07-1.08-.21l-31.77-12.73c-4.29-1.73-8.85-2.6-13.55-2.6-7.54,0-14.91,2.25-21.3,6.51-4.33,2.86-8.85,5.48-13.43,7.81-11.29,5.67-19.04,16.19-20.73,28.15l-4.85,33.82c-.23,1.52-1.45,2.57-2.97,2.57h-63.05c-1.46,0-2.76-1.13-2.97-2.56l-4.88-33.88c-1.69-11.87-9.38-22.38-20.57-28.11-4.53-2.27-8.99-4.87-13.61-7.95-6.36-4.2-13.68-6.42-21.17-6.42-4.71,0-9.29.88-13.62,2.61l-31.77,12.77c-.37.14-.75.21-1.14.21-1.07,0-2.06-.56-2.59-1.47l-31.59-54.67c-.74-1.3-.42-2.96.74-3.86l35.52-27.8c4.69-3.68,7.16-9.64,6.44-15.54-.6-4.86-1.28-11.26-1.28-17.67s.68-12.81,1.28-17.67c.73-5.91-1.74-11.86-6.44-15.55l-35.53-27.78c-1.17-.91-1.49-2.56-.75-3.85l31.59-54.67c.55-.94,1.52-1.5,2.59-1.5.37,0,.75.07,1.11.21l31.82,12.78c4.31,1.73,8.88,2.61,13.58,2.61,7.5,0,14.83-2.23,21.2-6.45,4.53-3.01,8.99-5.62,13.62-7.98,11.17-5.71,18.85-16.2,20.53-28.07l4.88-33.88c.2-1.44,1.51-2.56,2.97-2.56h63.05c1.5,0,2.74,1.07,2.97,2.56l4.85,33.85c1.69,11.96,9.42,22.47,20.68,28.13,4.5,2.26,8.91,4.82,13.5,7.83,6.43,4.28,13.8,6.54,21.31,6.54,4.69,0,9.24-.88,13.52-2.62l31.82-12.75c.33-.15.69-.22,1.06-.22,1.04,0,2.06.59,2.59,1.51l31.6,54.72c.75,1.26.42,2.9-.76,3.81l-35.52,27.78c-4.75,3.71-7.22,9.68-6.44,15.6.57,4.53.91,8.23,1.09,11.67l.19,6.01c0,6.38-.68,12.72-1.28,17.54-.78,5.94,1.68,11.92,6.44,15.61l35.51,27.77c1.18.93,1.5,2.6.76,3.88Z"/></svg>