<?xml version="1.0" encoding="UTF-8"?><svg id="Icon" xmlns="http://www.w3.org/2000/svg" viewBox="0 0 512 512"><path d="M136,344c24.77,0,47.17-10.29,63.18-26.81.07.04.14.09.22.13l92.02,50.36c-2.22,7.73-3.42,15.88-3.42,24.31,0,48.52,39.48,88,88,88s88-39.48,88-88-39.48-88-88-88c-28.66,0-54.17,13.78-70.24,35.05l-88.79-48.59c4.52-10.59,7.03-22.24,7.03-34.46,0-8.63-1.25-16.96-3.58-24.85l88.32-54.47c16.16,19.14,40.31,31.32,67.25,31.32,48.52,0,88-39.48,88-88s-39.48-88-88-88-88,39.48-88,88c0,10.11,1.72,19.83,4.87,28.88l-87.02,53.67c-16.1-20.99-41.42-34.55-69.85-34.55-48.52,0-88,39.48-88,88s39.48,88,88,88Z"/></svg>