<?xml version="1.0" encoding="UTF-8"?><svg id="Icon" xmlns="http://www.w3.org/2000/svg" viewBox="0 0 512 512"><path d="M256,336c8.84,0,16-7.16,16-16V86.63l31.26,31.26c3.12,3.12,7.22,4.69,11.31,4.69s8.19-1.56,11.31-4.69c6.25-6.25,6.25-16.38,0-22.63l-58.57-58.57c-3-3-7.07-4.69-11.31-4.69s-8.31,1.69-11.31,4.69l-58.57,58.57c-6.25,6.25-6.25,16.38,0,22.63,6.25,6.25,16.38,6.25,22.63,0l31.26-31.26v233.37c0,8.84,7.16,16,16,16Z"/><path d="M448,432v-224c0-26.47-21.53-48-48-48h-48c-8.84,0-16,7.16-16,16s7.16,16,16,16h48c8.82,0,16,7.18,16,16v224c0,8.82-7.18,16-16,16H112c-8.82,0-16-7.18-16-16v-224c0-8.82,7.18-16,16-16h48c8.84,0,16-7.16,16-16s-7.16-16-16-16h-48c-26.47,0-48,21.53-48,48v224c0,26.47,21.53,48,48,48h288c26.47,0,48-21.53,48-48Z"/></svg>