<?xml version="1.0" encoding="UTF-8"?><svg id="Icon" xmlns="http://www.w3.org/2000/svg" viewBox="0 0 512 512"><path d="M375.21,344.26h-168.91c-21.03,0-38.89-15.05-42.46-35.78l-36.18-212.49h-47.66c-8.84,0-16-7.16-16-16s7.16-16,16-16h61.16c7.8,0,14.46,5.62,15.77,13.31l12.47,73.21,248.9-1.25h.16c9.07,0,17.5,4.07,23.14,11.19,5.67,7.16,7.71,16.35,5.58,25.23l-30.08,125.53c-4.66,19.45-21.89,33.04-41.89,33.04ZM174.85,182.5l20.54,120.59c.91,5.31,5.5,9.17,10.91,9.17h168.91c5.14,0,9.57-3.49,10.77-8.5l29.35-122.48-240.48,1.21Z"/><path d="M382.37,373.4c-19.91,0-36.1,16.2-36.1,36.1s16.2,36.1,36.1,36.1,36.1-16.2,36.1-36.1-16.2-36.1-36.1-36.1Z"/><path d="M206.37,373.4c-19.91,0-36.1,16.2-36.1,36.1s16.2,36.1,36.1,36.1,36.1-16.2,36.1-36.1-16.2-36.1-36.1-36.1Z"/></svg>