<?xml version="1.0" encoding="UTF-8"?><svg id="Icon" xmlns="http://www.w3.org/2000/svg" viewBox="0 0 512 512"><path d="M290.14,313.92c2.75,1.87,5.88,2.76,8.97,2.76,5.12,0,10.16-2.46,13.25-7.01l37.39-55.07c3.33-4.9,3.67-11.24.9-16.48-2.77-5.24-8.21-8.51-14.14-8.51h-23.77l18.28-29.05c4.71-7.48,2.46-17.36-5.02-22.06-7.48-4.71-17.36-2.46-22.06,5.02l-33.71,53.57c-3.1,4.93-3.28,11.16-.46,16.26,2.82,5.1,8.18,8.27,14.01,8.27h22.55l-20.43,30.09c-4.96,7.31-3.06,17.26,4.25,22.22Z"/><path d="M161.25,96.03h145.52c42.19,0,76.52,34.33,76.52,76.52,0,17.92-6.32,35.34-17.79,49.05-5.67,6.78-4.77,16.87,2.01,22.54,2.99,2.5,6.64,3.73,10.26,3.73,4.57,0,9.12-1.95,12.28-5.74,16.28-19.46,25.25-44.18,25.25-69.59,0-59.84-48.68-108.52-108.52-108.52h-145.52c-8.84,0-16,7.16-16,16s7.16,16,16,16Z"/><path d="M412.17,388.87h-30.29v-11.16c0-8.84-7.16-16-16-16h-72.27c-8.84,0-16,7.16-16,16v11.16h-89.37c-32.89,0-59.66-26.76-59.66-59.66s26.76-59.66,59.66-59.66h54.29c8.84,0,16-7.16,16-16s-7.16-16-16-16h-54.29c-50.54,0-91.66,41.12-91.66,91.66s41.12,91.66,91.66,91.66h89.37v11.16c0,8.84,7.16,16,16,16h72.27c8.84,0,16-7.16,16-16v-11.16h30.29c8.84,0,16-7.16,16-16s-7.16-16-16-16ZM349.89,416.03h-40.27v-22.32h40.27v22.32Z"/></svg>