<?xml version="1.0" encoding="UTF-8"?><svg id="Icon" xmlns="http://www.w3.org/2000/svg" viewBox="0 0 512 512"><path d="M89.33,320.19c52.09,42.34,107.69,63.81,165.24,63.81s113.65-21.47,166.7-63.83c25.29-20.19,43.85-40.5,54.98-54,4.87-5.91,4.87-14.44,0-20.36-11.12-13.49-29.69-33.81-54.98-54-53.05-42.35-109.14-63.82-166.7-63.82s-113.15,21.47-165.24,63.81c-24.93,20.26-43.08,40.66-53.92,54.2-4.68,5.84-4.68,14.15,0,20,10.84,13.54,28.99,33.93,53.92,54.19ZM109.52,216.64c46.24-37.58,95.04-56.64,145.05-56.64s99.49,19.12,146.74,56.83c17.73,14.16,31.88,28.51,41.47,39.17-9.59,10.65-23.73,25.01-41.47,39.17-47.24,37.71-96.61,56.83-146.74,56.83s-98.82-19.06-145.05-56.64c-17.53-14.25-31.4-28.69-40.74-39.36,9.34-10.67,23.21-25.12,40.74-39.36Z"/><path d="M256,320c35.29,0,64-28.71,64-64s-28.71-64-64-64-64,28.71-64,64,28.71,64,64,64ZM256,224c17.64,0,32,14.36,32,32s-14.36,32-32,32-32-14.36-32-32,14.36-32,32-32Z"/></svg>