<?xml version="1.0" encoding="UTF-8"?><svg id="Icon" xmlns="http://www.w3.org/2000/svg" viewBox="0 0 512 512"><path d="M256,224c-17.64,0-32,14.36-32,32s14.36,32,32,32,32-14.36,32-32-14.36-32-32-32Z"/><path d="M476.25,245.82c-11.12-13.49-29.69-33.81-54.98-54-53.05-42.35-109.14-63.82-166.7-63.82s-113.15,21.47-165.24,63.81c-24.93,20.26-43.08,40.66-53.92,54.2-4.68,5.84-4.68,14.15,0,20,10.84,13.54,28.99,33.93,53.92,54.19,52.09,42.34,107.69,63.81,165.24,63.81s113.65-21.47,166.7-63.83c25.29-20.19,43.85-40.5,54.98-54,4.87-5.91,4.87-14.44,0-20.36ZM256,320c-35.29,0-64-28.71-64-64s28.71-64,64-64,64,28.71,64,64-28.71,64-64,64Z"/></svg>