<?xml version="1.0" encoding="UTF-8"?><svg id="Icon" xmlns="http://www.w3.org/2000/svg" viewBox="0 0 512 512"><path d="M400,192h-32v-112c0-8.84-7.16-16-16-16h-192c-8.84,0-16,7.16-16,16v112h-32c-26.47,0-48,21.68-48,48.32v95.35c0,26.65,21.53,48.32,48,48.32h29.4c.89,0,1.75-.09,2.6-.23v64.23c0,8.84,7.16,16,16,16s16-7.16,16-16v-112h160v128c0,8.84,7.16,16,16,16s16-7.16,16-16v-80.08c.53.05,1.06.08,1.6.08h30.4c26.47,0,48-21.68,48-48.32v-95.35c0-26.65-21.53-48.32-48-48.32ZM176,96h160v96h-160v-96ZM416,335.68c0,9-7.18,16.32-16,16.32h-30.4c-.54,0-1.07.03-1.6.08v-32.08c0-8.84-7.16-16-16-16h-192c-8.84,0-16,7.16-16,16v32.23c-.85-.14-1.71-.23-2.6-.23h-29.4c-8.82,0-16-7.32-16-16.32v-95.35c0-9,7.18-16.32,16-16.32h288c8.82,0,16,7.32,16,16.32v95.35Z"/><path d="M160,240h-16c-8.84,0-16,7.16-16,16s7.16,16,16,16h16c8.84,0,16-7.16,16-16s-7.16-16-16-16Z"/><path d="M208,352c-8.84,0-16,7.16-16,16v64c0,8.84,7.16,16,16,16s16-7.16,16-16v-64c0-8.84-7.16-16-16-16Z"/><path d="M256,352c-8.84,0-16,7.16-16,16v96c0,8.84,7.16,16,16,16s16-7.16,16-16v-96c0-8.84-7.16-16-16-16Z"/><path d="M304,352c-8.84,0-16,7.16-16,16v96c0,8.84,7.16,16,16,16s16-7.16,16-16v-96c0-8.84-7.16-16-16-16Z"/></svg>