<?xml version="1.0" encoding="UTF-8"?><svg id="Icon" xmlns="http://www.w3.org/2000/svg" viewBox="0 0 512 512"><path d="M448,79.96c0-.51-.03-1.02-.08-1.53-.02-.25-.07-.48-.1-.73-.04-.27-.07-.55-.13-.82-.05-.27-.13-.54-.2-.81-.06-.24-.11-.48-.18-.71-.08-.26-.18-.52-.27-.77-.08-.24-.16-.47-.26-.71-.1-.24-.22-.47-.33-.71-.11-.24-.22-.48-.34-.71-.12-.23-.26-.44-.39-.66-.14-.23-.26-.46-.41-.68-.17-.25-.35-.48-.53-.72-.14-.18-.26-.37-.4-.54-.67-.82-1.42-1.57-2.24-2.24-.17-.14-.35-.26-.53-.4-.24-.18-.48-.37-.73-.53-.22-.15-.44-.27-.67-.41-.22-.13-.44-.28-.68-.4-.23-.12-.46-.22-.69-.33-.24-.11-.48-.23-.72-.34-.22-.09-.45-.17-.68-.25-.26-.1-.53-.2-.8-.28-.23-.07-.46-.12-.68-.18-.28-.07-.55-.15-.83-.2-.26-.05-.52-.08-.78-.12-.26-.04-.51-.09-.77-.11-.46-.05-.93-.07-1.39-.07-.06,0-.12,0-.18,0h-97.78c-8.84,0-16,7.16-16,16s7.16,16,16,16h59.15L68.69,420.69c-6.25,6.25-6.25,16.38,0,22.63,3.12,3.12,7.22,4.69,11.31,4.69s8.19-1.56,11.31-4.69L416,118.63v59.15c0,8.84,7.16,16,16,16s16-7.16,16-16v-97.78s0-.03,0-.04Z"/><path d="M432,318.22c-8.84,0-16,7.16-16,16v59.15l-100.69-100.69c-6.25-6.25-16.38-6.25-22.63,0-6.25,6.25-6.25,16.38,0,22.63l100.69,100.69h-59.15c-8.84,0-16,7.16-16,16s7.16,16,16,16h97.78c.53,0,1.05-.03,1.58-.08.24-.02.47-.07.71-.1.28-.04.56-.07.84-.13.27-.05.54-.13.8-.2.24-.06.48-.11.72-.18.26-.08.52-.18.77-.27.24-.08.47-.16.7-.26.24-.1.47-.22.71-.33.24-.11.48-.22.71-.34.23-.12.45-.26.67-.39.23-.14.45-.26.68-.41.25-.17.48-.35.72-.53.18-.13.36-.26.54-.4.82-.67,1.57-1.42,2.24-2.24.14-.17.27-.36.4-.54.18-.24.36-.47.53-.72.15-.22.28-.45.41-.68.13-.22.27-.44.39-.67.12-.23.23-.47.34-.71.11-.24.23-.47.33-.71.1-.23.17-.47.26-.71.09-.26.19-.51.27-.77.07-.24.12-.47.18-.71.07-.27.14-.53.2-.81.05-.27.09-.55.13-.82.03-.24.08-.48.1-.73.05-.51.08-1.02.08-1.53,0-.02,0-.03,0-.04v-97.78c0-8.84-7.16-16-16-16Z"/><path d="M196.69,219.31c3.12,3.12,7.22,4.69,11.31,4.69s8.19-1.56,11.31-4.69c6.25-6.25,6.25-16.38,0-22.63L91.31,68.69c-6.25-6.25-16.38-6.25-22.63,0-6.25,6.25-6.25,16.38,0,22.63l128,128Z"/></svg>