<?xml version="1.0" encoding="UTF-8"?><svg id="Icon" xmlns="http://www.w3.org/2000/svg" viewBox="0 0 512 512"><path d="M463.45,216.1c-.31-.72-.63-1.27-.95-1.45-44.67-25.58-89.35-47.84-134.02-73.4-9.48-5.42-19.26-7.02-29.52-2.34-13.56,6.18-26.99,12.67-40.72,18.43-2.99,1.25-7.86,1.26-10.85,0-12.7-5.32-25.32-10.96-37.52-17.32-9.25-4.82-17.23-3.92-25.9,1.3-44.08,26.57-85.04,49.59-129.22,76.01-.02.01-3.33,2.22-3.35,2.23-3.49,2.14-3.95,9.25-1.14,12.22,2.31,2.44,4.64,4.85,6.99,7.24,1.55,5.27,5.73,9.4,11.03,10.88,41.25,39.33,89.04,69.95,146.1,79.02,0,18.21.1,27.76-.11,44.93h23.78c-.02-.26-.04-.53-.04-.79-.03-45.87-.06-91.73,0-137.6.01-9.61,4.66-15.48,13.44-17.68,7.65-1.91,16.18,1.39,19.86,8.11,1.32,2.41,2.37,5.33,2.37,8.02.12,46.65.07,93.29.04,139.94h26.11c-.01-17.08-.09-26.13.22-42.83.03-1.53,1.8-4.08,3.65-4.33,34.63-4.57,66.47-16.71,96-35.09,23.81-14.82,44.04-40.06,61.97-62.84,2.83-3.6,3.57-8.46,1.77-12.67ZM100.04,250.51h112.5v51.4c-40.95-8.93-79.21-24.22-112.5-51.4ZM255.45,192.42c-18.46-.06-30.64,9.91-38.64,25.76-.06.11-.11.22-.16.33h-113.6c30.54-17.16,60.02-33.87,89.79-50.01,3.8-2.06,10.02-1.9,14.29-.4,12.78,4.49,25.21,9.99,37.63,15.44,7.15,3.14,13.66,2.95,20.73-.56,11.94-5.93,24.23-11.17,36.39-16.67,5.35-2.42,10.49-2.1,15.7.8,30.87,17.18,61.79,34.27,92.69,51.39h-116.47c-.12-.22-.23-.45-.35-.69-7.58-15.82-19.91-25.34-38.01-25.4ZM297.77,301.08v-50.57h113.95c-33.54,27.75-70.89,45.85-113.95,50.57Z"/></svg>