<?xml version="1.0" encoding="UTF-8"?><svg id="Icon" xmlns="http://www.w3.org/2000/svg" viewBox="0 0 512 512"><path d="M251.36,297.99c3.12,3.12,7.22,4.69,11.31,4.69s8.19-1.56,11.31-4.69c6.25-6.25,6.25-16.38,0-22.63l-100.74-100.74,123.38,71.23c2.52,1.46,5.27,2.15,7.98,2.15,5.53,0,10.91-2.87,13.87-8,4.42-7.65,1.8-17.44-5.86-21.86l-123.38-71.23,137.61,36.87c1.39.37,2.78.55,4.15.55,7.06,0,13.53-4.71,15.44-11.86,2.29-8.54-2.78-17.31-11.31-19.6l-137.61-36.87h142.47c8.84,0,16-7.16,16-16s-7.16-16-16-16H76c-.06,0-.12,0-.18,0-.03,0-.06,0-.08,0-.21,0-.42,0-.63.02-.15,0-.3.02-.45.03-.08,0-.15,0-.23.01-.11.01-.21.03-.31.04-.19.02-.38.05-.57.08-.13.02-.26.04-.39.07-.09.02-.19.03-.28.05-.12.02-.24.06-.37.08-.16.04-.31.07-.47.11-.12.03-.24.06-.36.1-.11.03-.22.06-.33.09-.13.04-.26.09-.39.13-.13.04-.25.09-.37.13-.12.04-.24.09-.37.13-.12.04-.23.09-.35.13-.13.05-.25.11-.37.17-.1.05-.21.09-.31.14-.13.06-.27.13-.4.19-.11.06-.23.11-.34.17-.11.06-.21.12-.32.18-.09.05-.19.11-.28.16-.15.09-.3.18-.45.27-.1.06-.2.12-.3.19-.09.06-.17.12-.26.18-.09.07-.19.13-.28.2-.16.12-.33.24-.49.37-.08.06-.16.12-.23.18-.07.05-.13.11-.19.17-.1.09-.21.18-.31.27-.16.15-.32.3-.48.45-.11.1-.22.21-.32.32-.12.12-.23.24-.34.36-.13.14-.26.29-.39.44-.07.08-.14.15-.21.24-.04.05-.08.1-.12.16-.11.14-.21.28-.32.42-.1.13-.19.26-.28.39-.07.1-.14.19-.21.29-.04.07-.09.13-.13.2-.1.15-.19.31-.28.47-.04.07-.09.14-.14.21-.03.05-.05.1-.08.15-.06.1-.12.2-.18.31-.04.08-.09.17-.13.25-.08.15-.15.31-.22.47-.06.14-.13.27-.19.41-.04.1-.09.19-.13.29-.04.1-.08.2-.12.3-.05.14-.1.28-.15.42-.06.16-.12.33-.18.49-.03.09-.06.18-.09.27-.03.11-.06.23-.09.34-.02.06-.04.11-.05.16-.02.08-.03.16-.05.24-.05.18-.1.36-.13.54-.02.08-.03.15-.05.23-.02.11-.04.23-.06.34-.03.16-.05.32-.08.48-.03.18-.05.36-.07.54,0,.06-.02.13-.02.19-.01.1-.01.21-.02.31-.02.19-.03.39-.04.58,0,.17-.01.34-.01.52,0,.05,0,.1,0,.15,0,0,0,.01,0,.02v264c0,8.84,7.16,16,16,16s16-7.16,16-16v-225.37l159.36,159.36Z"/><path d="M447.19,244.69l-41.88-41.88c-6.25-6.25-16.38-6.25-22.63,0l-41.88,41.88c-6.25,6.25-6.25,16.38,0,22.63,6.25,6.25,16.38,6.25,22.63,0l14.16-14.16.4,29.62c-.06,52.51-42.8,95.22-95.32,95.22h-29.55l14.56-14.56c6.25-6.25,6.25-16.38,0-22.63-6.25-6.25-16.38-6.25-22.63,0l-41.88,41.88c-6.25,6.25-6.25,16.38,0,22.63l41.88,41.88c3.12,3.12,7.22,4.69,11.31,4.69s8.19-1.56,11.31-4.69c6.25-6.25,6.25-16.38,0-22.63l-14.56-14.56h29.55c70.21,0,127.32-57.12,127.32-127.32l-.41-30.33,14.97,14.97c3.12,3.12,7.22,4.69,11.31,4.69s8.19-1.56,11.31-4.69c6.25-6.25,6.25-16.38,0-22.63Z"/></svg>