<?xml version="1.0" encoding="UTF-8"?><svg id="Icon" xmlns="http://www.w3.org/2000/svg" viewBox="0 0 512 512"><path d="M464,192c-8.84,0-16,7.16-16,16v64H64v-64c0-8.84-7.16-16-16-16s-16,7.16-16,16v128c0,8.84,7.16,16,16,16s16-7.16,16-16v-32h384v32c0,8.84,7.16,16,16,16s16-7.16,16-16v-128c0-8.84-7.16-16-16-16Z"/><path d="M208,256h192c8.84,0,16-7.16,16-16v-24.68c0-26.47-21.53-48-48-48h-128c-26.47,0-48,21.53-48,48v24.68c0,8.84,7.16,16,16,16ZM224,215.32c0-8.82,7.18-16,16-16h128c8.82,0,16,7.18,16,16v8.68h-160v-8.68Z"/><path d="M128,256c26.47,0,48-21.53,48-48s-21.53-48-48-48-48,21.53-48,48,21.53,48,48,48ZM128,192c8.82,0,16,7.18,16,16s-7.18,16-16,16-16-7.18-16-16,7.18-16,16-16Z"/></svg>