<?xml version="1.0" encoding="UTF-8"?><svg id="Icon" xmlns="http://www.w3.org/2000/svg" viewBox="0 0 512 512"><path d="M308.69,200.69l-76.69,76.69-28.69-28.69c-6.25-6.25-16.38-6.25-22.63,0-6.25,6.25-6.25,16.38,0,22.63l40,40c3.12,3.12,7.22,4.69,11.31,4.69s8.19-1.56,11.31-4.69l88-88c6.25-6.25,6.25-16.38,0-22.63-6.25-6.25-16.38-6.25-22.63,0Z"/><path d="M344,64h-176c-28.23,0-51.2,22.97-51.2,51.2v281.6c0,28.23,22.97,51.2,51.2,51.2h176c28.23,0,51.2-22.97,51.2-51.2V115.2c0-28.23-22.97-51.2-51.2-51.2ZM363.2,396.8c0,10.59-8.61,19.2-19.2,19.2h-176c-10.59,0-19.2-8.61-19.2-19.2V115.2c0-10.59,8.61-19.2,19.2-19.2h18.06c.11,7.38,6.12,13.33,13.53,13.33h112.82c7.41,0,13.42-5.95,13.53-13.33h18.06c10.59,0,19.2,8.61,19.2,19.2v281.6Z"/><path d="M256.12,359.85h-.24c-9.87,0-17.88,8.06-17.88,18s8.01,18,17.88,18h.24c9.87,0,17.88-8.06,17.88-18s-8.01-18-17.88-18Z"/></svg>