<?xml version="1.0" encoding="UTF-8"?><svg id="Icon" xmlns="http://www.w3.org/2000/svg" viewBox="0 0 512 512"><path d="M263.62,135.57h0M301.71,89.86h0"/><path d="M280.04,377.15c-8.84,0-16-7.16-16-16,0-44.32-36.06-80.38-80.38-80.38-8.84,0-16-7.16-16-16s7.16-16,16-16c61.97,0,112.38,50.42,112.38,112.38,0,8.84-7.16,16-16,16Z"/><path d="M355,377.15c-8.84,0-16-7.16-16-16,0-85.66-69.69-155.35-155.35-155.35-8.84,0-16-7.16-16-16s7.16-16,16-16c103.3,0,187.35,84.04,187.35,187.35,0,8.84-7.16,16-16,16Z"/><path d="M190.98,370.31c-10.33,0-18.74-8.41-18.74-18.74s8.41-18.74,18.74-18.74,18.74,8.41,18.74,18.74-8.41,18.74-18.74,18.74Z"/><path d="M400,448H112c-26.47,0-48-21.53-48-48v-184.08c0-18.68,8.29-36.17,22.74-48.01L237.31,44.73c10.88-8.84,26.59-8.84,37.4,0l150.54,123.19c14.46,11.84,22.75,29.33,22.75,48.01v184.08c0,26.47-21.53,48-48,48ZM256.02,70.77l-149.01,121.9c-6.99,5.73-11.01,14.2-11.01,23.25v184.08c0,8.82,7.18,16,16,16h288c8.82,0,16-7.18,16-16v-184.08c0-9.04-4.01-17.52-11.01-23.25l-148.97-121.9Z"/></svg>