<?xml version="1.0" encoding="UTF-8"?><svg id="Icon" xmlns="http://www.w3.org/2000/svg" viewBox="0 0 512 512"><path d="M425.25,167.91l-150.54-123.19c-10.81-8.83-26.52-8.84-37.4,0l-150.57,123.18c-14.45,11.83-22.74,29.33-22.74,48.01v184.08c0,26.47,21.53,48,48,48h288c26.47,0,48-21.53,48-48v-184.08c0-18.68-8.29-36.18-22.75-48.01ZM151.04,304.35v-17.64h17.64v17.64h-17.64ZM247.11,218.87v-17.64h17.64v17.64h-17.64ZM416,400c0,8.82-7.18,16-16,16h-64.82v-39.62c0-3.01,1.25-5.93,3.43-8.01l6.36-6.07h30.95c13.8,0,25.03-11.23,25.03-25.03v-31.59c0-13.8-11.23-25.03-25.03-25.03h-31.59c-13.8,0-25.03,11.23-25.03,25.03v31.59c0,1.65.17,3.27.47,4.83l-3.27,3.13c-8.46,8.09-13.32,19.44-13.32,31.15v39.62h-31.18v-165.14c13.67-.15,24.75-11.31,24.75-25.02v-31.59c0-13.8-11.23-25.03-25.03-25.03h-31.59c-13.8,0-25.03,11.23-25.03,25.03v31.59c0,13.75,11.15,24.95,24.89,25.02v165.14h-31.18v-64.15c0-10.62-4.01-20.94-11.07-28.8,1.86-3.5,2.92-7.49,2.92-11.72v-31.59c0-13.8-11.23-25.03-25.03-25.03h-31.59c-13.8,0-25.03,11.23-25.03,25.03v31.59c0,13.8,11.23,25.03,25.03,25.03h21.51l7.83,7.49c2.17,2.08,3.42,5,3.42,8v64.15h-64.82c-8.82,0-16-7.18-16-16v-184.08c0-9.04,4.01-17.52,11.01-23.25l149.01-121.9,148.97,121.9c7,5.73,11.01,14.21,11.01,23.25v184.08ZM351.3,330.3v-17.64h17.64v17.64h-17.64Z"/></svg>