<?xml version="1.0" encoding="UTF-8"?><svg id="Icon" xmlns="http://www.w3.org/2000/svg" viewBox="0 0 512 512"><path d="M344,64h-176c-28.23,0-51.2,22.97-51.2,51.2v281.6c0,28.23,22.97,51.2,51.2,51.2h176c28.23,0,51.2-22.97,51.2-51.2V115.2c0-28.23-22.97-51.2-51.2-51.2ZM363.2,396.8c0,10.59-8.61,19.2-19.2,19.2h-176c-10.59,0-19.2-8.61-19.2-19.2V115.2c0-10.59,8.61-19.2,19.2-19.2h18.06c.11,7.38,6.12,13.33,13.53,13.33h112.82c7.41,0,13.42-5.95,13.53-13.33h18.06c10.59,0,19.2,8.61,19.2,19.2v281.6Z"/><path d="M256.12,359.79h-.24c-9.9,0-17.93,8.08-17.93,18.05s8.03,18.05,17.93,18.05h.24c9.9,0,17.93-8.08,17.93-18.05s-8.03-18.05-17.93-18.05Z"/></svg>