<?xml version="1.0" encoding="UTF-8"?><svg id="Icon" xmlns="http://www.w3.org/2000/svg" viewBox="0 0 512 512"><path d="M325.48,312.38c-3.43,0-6.86-1.1-9.73-3.3-5.6-4.29-7.73-11.73-5.25-18.33,1.78-4.75,3.62-9.32,5.4-13.75,3.76-9.37,7.31-18.22,9.69-27.01,3.22-11.9,1.29-23.73-5.73-35.16-2.43-3.96-5.06-7.84-7.84-11.95-3.18-4.69-6.46-9.54-9.54-14.67-10.22-17.03-13.12-33.54-8.63-49.07,3.2-11.08,7.76-20.65,19.63-31.4,10.72-9.71,21.58-16.3,32.07-22.67,4.59-2.79,9.33-5.67,14.07-8.81,3.99-2.65,8.95-3.37,13.53-1.97,4.58,1.4,8.29,4.77,10.11,9.2l.57,1.39c1.94,4.7,1.53,10.04-1.1,14.39-1.79,2.95-3.62,5.88-5.39,8.71-3.89,6.21-7.56,12.08-10.75,18.11-5.99,11.31-5.4,22.15,1.88,34.09,1.53,2.51,3.1,4.98,4.76,7.6,1.33,2.09,2.66,4.19,3.97,6.3.7,1.13,1.41,2.26,2.11,3.38,2.4,3.83,4.88,7.8,7.22,11.99,10.55,18.95,14.25,35.82,11.31,51.58-2.96,15.88-12.58,30.26-29.41,43.96-7.65,6.23-15.66,11.8-23.4,17.18-3.38,2.35-6.86,4.77-10.21,7.18-2.79,2.01-6.07,3.01-9.34,3.01ZM330.74,135.76c-3.61,4.25-4.86,7.81-6.15,12.27-1.24,4.3-2.04,11.44,5.33,23.72,2.62,4.37,5.52,8.65,8.59,13.19,2.86,4.22,5.81,8.58,8.61,13.15,10.23,16.65,13.96,34.75,10.98,52.75,11.65-13.38,11.34-26.24.45-45.81-1.94-3.48-4.1-6.93-6.38-10.58-.73-1.17-1.47-2.34-2.19-3.52-1.24-2-2.5-3.99-3.77-5.98-1.67-2.63-3.4-5.35-5.09-8.12-8.2-13.46-11.67-27.35-10.39-41.08Z"/><path d="M356.65,337.04H81.59c-7.61,0-13.78,6.17-13.78,13.78s6.17,13.78,13.78,13.78h223.59c.4,1.2.46,2.76.13,4.83-1.18,7.38,1.66,10.49,9.41,9.59,3.5-.4,8.16-1.54,8.94,4.83,1.54,12.55,1.75,12.51,14.78,13.56,1.07.09,2.09.7,3.81,1.32,0,5.36-.52,10.78.12,16.07.25,2.04.24,3.71-.01,5.1H81.59c-7.61,0-13.78,6.17-13.78,13.78s6.17,13.78,13.78,13.78h275.06c7.61,0,13.78-6.17,13.78-13.78v-82.87c0-7.61-6.17-13.78-13.78-13.78Z"/></svg>