<?xml version="1.0" encoding="UTF-8"?><svg id="Icon" xmlns="http://www.w3.org/2000/svg" viewBox="0 0 512 512"><path d="M449.33,176.82c5.87-9.5,6.4-21.14,1.4-31.13l-16-32c-5.14-10.28-15.17-16.88-26.51-17.62l-138.93-31.5c-8.62-1.95-17.19,3.45-19.14,12.07s3.45,17.19,12.07,19.14l.96.22h-13.3c-12.2,0-23.17,6.78-28.62,17.69l-16,32c-5,9.99-4.47,21.63,1.4,31.13,4.05,6.55,10.14,11.28,17.19,13.59l9.46,71.84c-6.76.77-13.34,1.81-19.57,3.14-22.18,4.74-38,12.45-46.99,22.91-3.07,3.56-6.85,9.4-9.49,18.32-44.46,23.95-49.51,31.07-51.21,33.48-3.03,4.27-3.74,9.04-3.27,13.94-3.45,3.97-12.33,14.4-20.61,26.08-12.96,18.28-24.84,39.04-14.64,54.42,5.93,8.94,17.08,13.2,35.31,13.2,5.22,0,11.01-.35,17.43-1.04,12.65-1.35,24.5-3.68,29.84-4.81,2.87,2.16,4.95,2.82,6.52,3.32,2.83.89,5.9,1.28,9.1,1.28,10.24,0,21.7-3.93,30.28-7.66,2.86,2.53,5.83,4.71,8.92,6.48,12.01,6.86,33.04,10.71,53.85,10.71s39.85-3.57,51.22-11.47h0c2.25-1.56,4.46-3.38,6.64-5.43,8.5,3.64,19.64,7.37,29.61,7.37,3.2,0,6.27-.38,9.1-1.28,1.57-.5,3.65-1.16,6.52-3.32,5.34,1.13,17.19,3.45,29.84,4.81,6.42.69,12.22,1.04,17.43,1.04,18.23,0,29.38-4.26,35.31-13.2,10.2-15.38-1.68-36.14-14.64-54.42-6.94-9.79-14.31-18.71-18.54-23.67l21.91-166.42c6.6-2.42,12.3-6.99,16.14-13.21ZM383.42,322.94c-6.89-4.22-15.94-9.44-27.89-15.89-1.54-6.23-3.91-12.11-7.38-17.26-6.2-9.19-16.96-16.36-31.96-21.3-11.76-3.88-26.32-6.41-42.13-7.34-2.87-.17-5.76-.28-8.65-.34l-9.06-68.81h144.31l-17.24,130.94ZM249.89,128h156.17s.04,0,.05,0l15.99,32h-188.22s16-32,16-32ZM97.74,415.66c3.19-6.53,9.77-16.42,17.65-26.62,3.41,7.06,7.28,14.44,11.29,21.43.57,1,1.14,1.97,1.69,2.91-12.18,1.87-23.61,2.73-30.64,2.27ZM149.18,384.97c-7.07-13.4-11.15-23.2-13.11-28.88,4.41-2.96,11.15-7.04,18.69-11.39.36,3.48.86,7.13,1.52,10.99,3.13,18.15,9.88,39.05,19.52,56.6-3.26,1.1-6.17,1.89-8.22,2.17-3.23-3.81-9.89-13.35-18.41-29.49ZM291.75,418.27c-11.45,7.95-56.53,7.48-70.94-.75-11.42-6.52-27.28-34.1-33-67.27-3.96-22.97-.75-36.48,3.19-41.07,7.36-8.55,35.7-16.44,68.98-16.44,4,0,8.08.11,12.2.35,32.6,1.91,46.59,10.38,49.43,14.6,7.06,10.46,4.55,36.57-.78,56.39-6.61,24.6-18.57,46.88-29.09,54.19ZM344.42,414.45c-2.03-.28-4.91-1.05-8.13-2.14,6.18-11.55,11.49-25.11,15.46-39.93,1.72-6.39,4.04-16.45,5.31-27.8,7.62,4.39,14.44,8.51,18.88,11.5-1.96,5.69-6.04,15.48-13.11,28.88-8.51,16.14-15.17,25.67-18.41,29.49ZM383.62,413.39c.55-.94,1.12-1.91,1.69-2.91,4.01-7,7.89-14.38,11.29-21.43,7.88,10.2,14.47,20.1,17.65,26.62-7.04.46-18.46-.41-30.64-2.27Z"/></svg>