<?xml version="1.0" encoding="UTF-8"?><svg id="Icon" xmlns="http://www.w3.org/2000/svg" viewBox="0 0 512 512"><path d="M286.15,349.85h-60.29c-13.47,0-33.3-1.91-49.83-18.44l-41.98-41.98c-9.57-9.55-14.63-21.12-14.63-33.42s5.06-23.85,14.63-33.42l41.97-41.97c16.53-16.54,36.36-18.45,49.83-18.45h60.29c13.47,0,33.3,1.91,49.83,18.45l41.98,41.97c9.57,9.57,14.63,21.12,14.63,33.42s-5.06,23.86-14.64,33.43l-41.97,41.97c-16.53,16.53-36.35,18.44-49.82,18.44ZM225.86,194.16c-9.42,0-19.23,1.1-27.21,9.08l-41.98,41.98c-3.49,3.49-5.26,7.12-5.26,10.79s1.77,7.31,5.25,10.79l41.98,41.99c7.97,7.97,17.79,9.07,27.21,9.07h60.29c9.41,0,19.22-1.1,27.2-9.07l41.97-41.97c3.49-3.49,5.26-7.12,5.26-10.8s-1.77-7.3-5.26-10.79l-41.99-41.98c-7.97-7.97-17.78-9.07-27.19-9.07h-60.29Z"/><path d="M196.92,239.83c-8.93,0-16.17,7.24-16.17,16.18s7.24,16.17,16.17,16.17,16.18-7.24,16.18-16.17-7.24-16.18-16.18-16.18Z"/><path d="M315.08,239.83c-8.93,0-16.18,7.24-16.18,16.18s7.24,16.17,16.18,16.17,16.17-7.24,16.17-16.17-7.24-16.18-16.17-16.18Z"/><path d="M256.01,272.18c-8.93,0-16.18,7.24-16.18,16.17s7.24,16.18,16.18,16.18,16.17-7.24,16.17-16.18-7.24-16.17-16.17-16.17Z"/><path d="M392.89,448H119.11c-30.39,0-55.11-24.72-55.11-55.11V119.11c0-30.39,24.72-55.11,55.11-55.11h273.78c30.39,0,55.11,24.72,55.11,55.11v273.78c0,30.39-24.72,55.11-55.11,55.11ZM119.11,96c-12.74,0-23.11,10.37-23.11,23.11v273.78c0,12.74,10.37,23.11,23.11,23.11h273.78c12.74,0,23.11-10.37,23.11-23.11V119.11c0-12.74-10.37-23.11-23.11-23.11H119.11Z"/></svg>