<?xml version="1.0" encoding="UTF-8"?><svg id="Icon" xmlns="http://www.w3.org/2000/svg" viewBox="0 0 512 512"><path d="M256,159.18c-53.39,0-96.82,43.43-96.82,96.82s43.43,96.82,96.82,96.82,96.82-43.43,96.82-96.82-43.43-96.82-96.82-96.82ZM193.66,278.84c-12.49,0-22.6-10.17-22.6-22.67s10.1-22.68,22.6-22.68,22.75,10.18,22.75,22.68-10.18,22.67-22.75,22.67ZM340.61,256.17c0,12.49-10.11,22.67-22.6,22.67s-22.67-10.17-22.67-22.67,10.11-22.68,22.67-22.68,22.6,10.18,22.6,22.68Z"/><path d="M392.89,64H119.11c-30.39,0-55.11,24.72-55.11,55.11v273.78c0,30.39,24.72,55.11,55.11,55.11h273.78c30.39,0,55.11-24.72,55.11-55.11V119.11c0-30.39-24.72-55.11-55.11-55.11ZM256,384.82c-71.03,0-128.82-57.79-128.82-128.82s57.79-128.82,128.82-128.82,128.82,57.79,128.82,128.82-57.79,128.82-128.82,128.82Z"/></svg>