<?xml version="1.0" encoding="UTF-8"?><svg id="Icon" xmlns="http://www.w3.org/2000/svg" viewBox="0 0 512 512"><path d="M392.89,64H119.11c-30.39,0-55.11,24.72-55.11,55.11v273.78c0,30.39,24.72,55.11,55.11,55.11h273.78c30.39,0,55.11-24.72,55.11-55.11V119.11c0-30.39-24.72-55.11-55.11-55.11ZM167.89,149.95c0-12.5,10.1-22.68,22.6-22.68,5.71,0,10.91,2.11,14.9,5.58v-9.98h18.05v54.15h-18.05v-9.98c-3.99,3.46-9.19,5.57-14.9,5.57-12.49,0-22.6-10.17-22.6-22.67ZM233.29,383.2c-2.52,1.45-5.27,2.15-7.99,2.15-5.53,0-10.91-2.87-13.87-8l-27.08-46.9c-4.42-7.65-1.8-17.44,5.86-21.86,7.65-4.42,17.44-1.8,21.86,5.86l27.08,46.9c4.42,7.65,1.8,17.44-5.86,21.86ZM256,292.3c-8.84,0-16-7.16-16-16v-54.15c0-8.84,7.16-16,16-16s16,7.16,16,16v54.15c0,8.84-7.16,16-16,16ZM328.43,330.44l-27.08,46.9c-2.96,5.13-8.34,8-13.87,8-2.71,0-5.46-.69-7.99-2.15-7.65-4.42-10.27-14.2-5.86-21.86l27.08-46.9c4.42-7.65,14.2-10.28,21.86-5.86,7.65,4.42,10.27,14.2,5.86,21.86ZM321.56,172.63c-5.71,0-10.91-2.11-14.9-5.58v9.98h-18.05v-54.15h18.05v9.98c3.99-3.46,9.19-5.57,14.9-5.57,12.49,0,22.6,10.17,22.6,22.67s-10.1,22.68-22.6,22.68Z"/></svg>