<?xml version="1.0" encoding="UTF-8"?><svg id="Icon" xmlns="http://www.w3.org/2000/svg" viewBox="0 0 512 512"><path d="M256,225.08c36.58,0,66.34-29.76,66.34-66.34s-29.76-66.34-66.34-66.34-66.34,29.76-66.34,66.34,29.76,66.34,66.34,66.34ZM256,124.4c18.93,0,34.34,15.4,34.34,34.34s-15.4,34.34-34.34,34.34-34.34-15.4-34.34-34.34,15.4-34.34,34.34-34.34Z"/><path d="M256,84.13c8.84,0,16-7.16,16-16v-20.13c0-8.84-7.16-16-16-16s-16,7.16-16,16v20.13c0,8.84,7.16,16,16,16Z"/><path d="M240,249.35v20.13c0,8.84,7.16,16,16,16s16-7.16,16-16v-20.13c0-8.84-7.16-16-16-16s-16,7.16-16,16Z"/><path d="M180.66,106.03c3.12,3.12,7.22,4.69,11.31,4.69s8.19-1.56,11.31-4.69c6.25-6.25,6.25-16.38,0-22.63l-14.3-14.3c-6.25-6.25-16.38-6.25-22.63,0-6.25,6.25-6.25,16.38,0,22.63l14.3,14.3Z"/><path d="M331.34,211.45c-6.25-6.25-16.38-6.25-22.63,0-6.25,6.25-6.25,16.38,0,22.63l14.3,14.3c3.12,3.12,7.22,4.69,11.31,4.69s8.19-1.56,11.31-4.69c6.25-6.25,6.25-16.38,0-22.63l-14.3-14.3Z"/><path d="M145.26,174.74h20.13c8.84,0,16-7.16,16-16s-7.16-16-16-16h-20.13c-8.84,0-16,7.16-16,16s7.16,16,16,16Z"/><path d="M330.61,158.74c0,8.84,7.16,16,16,16h20.13c8.84,0,16-7.16,16-16s-7.16-16-16-16h-20.13c-8.84,0-16,7.16-16,16Z"/><path d="M180.66,211.45l-14.3,14.3c-6.25,6.25-6.25,16.38,0,22.63,3.12,3.12,7.22,4.69,11.31,4.69s8.19-1.56,11.31-4.69l14.3-14.3c6.25-6.25,6.25-16.38,0-22.63-6.25-6.25-16.38-6.25-22.63,0Z"/><path d="M320.03,110.71c4.09,0,8.19-1.56,11.31-4.69l14.3-14.3c6.25-6.25,6.25-16.38,0-22.63-6.25-6.25-16.38-6.25-22.63,0l-14.3,14.3c-6.25,6.25-6.25,16.38,0,22.63,3.12,3.12,7.22,4.69,11.31,4.69Z"/><path d="M444.46,424.19l-62.64-112c-2.83-5.06-8.17-8.19-13.96-8.19h-223.72c-5.79,0-11.14,3.13-13.96,8.19l-62.64,112c-2.77,4.95-2.71,11.01.16,15.9,2.87,4.9,8.12,7.91,13.8,7.91h349c5.68,0,10.93-3.01,13.8-7.91,2.87-4.9,2.93-10.95.16-15.9ZM367.42,352h-49.64l-4.54-16h45.24l8.95,16ZM227.49,352l4.54-16h47.94l4.54,16h-57.03ZM293.6,384l9.09,32h-93.38l9.09-32h75.21ZM198.77,336l-4.54,16h-49.64l8.95-16h45.24ZM126.68,384h58.45l-9.09,32h-67.26l17.9-32ZM335.96,416l-9.09-32h58.45l17.9,32h-67.26Z"/></svg>