<?xml version="1.0" encoding="UTF-8"?><svg id="Icon" xmlns="http://www.w3.org/2000/svg" viewBox="0 0 512 512"><path d="M214.82,274.46l-54.81,54.82v-185.27c0-8.84-7.16-16-16-16s-16,7.16-16,16v185.27l-54.82-54.82c-6.25-6.25-16.38-6.25-22.63,0-6.25,6.25-6.25,16.38,0,22.63l81.12,81.12c2.93,3.54,7.36,5.79,12.32,5.79s9.38-2.25,12.32-5.79l81.13-81.13c6.25-6.25,6.25-16.38,0-22.63s-16.38-6.25-22.63,0Z"/><path d="M464,128h-176c-8.84,0-16,7.16-16,16s7.16,16,16,16h176c8.84,0,16-7.16,16-16s-7.16-16-16-16Z"/><path d="M432,240h-144c-8.84,0-16,7.16-16,16s7.16,16,16,16h144c8.84,0,16-7.16,16-16s-7.16-16-16-16Z"/><path d="M400,352h-112c-8.84,0-16,7.16-16,16s7.16,16,16,16h112c8.84,0,16-7.16,16-16s-7.16-16-16-16Z"/></svg>