<?xml version="1.0" encoding="UTF-8"?><svg id="Icon" xmlns="http://www.w3.org/2000/svg" viewBox="0 0 512 512"><path d="M217.69,299.96v-.27c-.07,0-.13,0-.2,0,.07.09.13.18.2.26Z"/><path d="M156.32,133.79c-2.93-3.54-7.36-5.79-12.32-5.79s-9.38,2.25-12.32,5.79l-81.13,81.13c-6.25,6.25-6.25,16.38,0,22.63,3.12,3.12,7.22,4.69,11.31,4.69s8.19-1.56,11.31-4.69l54.82-54.82v185.27c0,8.84,7.16,16,16,16s16-7.16,16-16v-185.27l54.82,54.82c3.12,3.12,7.22,4.69,11.31,4.69s8.19-1.56,11.31-4.69c6.25-6.25,6.25-16.38,0-22.63l-81.12-81.12Z"/><path d="M464,128h-176c-8.84,0-16,7.16-16,16s7.16,16,16,16h176c8.84,0,16-7.16,16-16s-7.16-16-16-16Z"/><path d="M432,240h-144c-8.84,0-16,7.16-16,16s7.16,16,16,16h144c8.84,0,16-7.16,16-16s-7.16-16-16-16Z"/><path d="M400,352h-112c-8.84,0-16,7.16-16,16s7.16,16,16,16h112c8.84,0,16-7.16,16-16s-7.16-16-16-16Z"/></svg>