<?xml version="1.0" encoding="UTF-8"?><svg id="Icon" xmlns="http://www.w3.org/2000/svg" viewBox="0 0 512 512"><path d="M406.63,256l52.69-52.69c6.25-6.25,6.25-16.38,0-22.63-6.25-6.25-16.38-6.25-22.63,0l-52.69,52.69-52.69-52.69c-6.25-6.25-16.38-6.25-22.63,0-6.25,6.25-6.25,16.38,0,22.63l52.69,52.69-52.69,52.69c-6.25,6.25-6.25,16.38,0,22.63,3.12,3.12,7.22,4.69,11.31,4.69s8.19-1.56,11.31-4.69l52.69-52.69,52.69,52.69c3.12,3.12,7.22,4.69,11.31,4.69s8.19-1.56,11.31-4.69c6.25-6.25,6.25-16.38,0-22.63l-52.69-52.69Z"/><path d="M247.32,97.77c-5.33-2.74-11.74-2.28-16.62,1.21l-107.83,77.02H48c-8.84,0-16,7.16-16,16v128c0,8.84,7.16,16,16,16h74.87l107.83,77.02c2.77,1.98,6.02,2.98,9.3,2.98,2.5,0,5.01-.59,7.32-1.77,5.33-2.74,8.68-8.23,8.68-14.23V112c0-5.99-3.35-11.48-8.68-14.23Z"/></svg>