<?xml version="1.0" encoding="UTF-8"?><svg id="Icon" xmlns="http://www.w3.org/2000/svg" viewBox="0 0 512 512"><path d="M240,416c-3.28,0-6.54-1-9.3-2.98l-107.83-77.02H48c-8.84,0-16-7.16-16-16v-128c0-8.84,7.16-16,16-16h74.87l107.83-77.02c4.88-3.48,11.29-3.95,16.62-1.21,5.33,2.74,8.68,8.23,8.68,14.23v288c0,5.99-3.35,11.48-8.68,14.23-2.31,1.19-4.82,1.77-7.32,1.77ZM64,304h64c3.33,0,6.59,1.04,9.3,2.98l86.7,61.93v-225.82l-86.7,61.93c-2.71,1.94-5.96,2.98-9.3,2.98h-64v96Z"/><path d="M403.09,419.07c-4.09,0-8.19-1.56-11.31-4.68-6.25-6.25-6.25-16.38,0-22.63,74.84-74.86,74.84-196.66,0-271.52-6.25-6.25-6.25-16.38,0-22.63,6.25-6.25,16.38-6.25,22.63,0,42.3,42.31,65.59,98.56,65.59,158.38s-23.29,116.07-65.59,158.38c-3.12,3.12-7.22,4.69-11.32,4.69ZM329.66,345.43c-4.09,0-8.19-1.56-11.31-4.68-6.25-6.25-6.25-16.38,0-22.63,34.3-34.31,34.3-90.14,0-124.45-6.25-6.25-6.25-16.38,0-22.63,6.25-6.25,16.38-6.25,22.63,0,46.77,46.79,46.77,122.91,0,169.69-3.12,3.13-7.22,4.69-11.32,4.69Z"/></svg>