<?xml version="1.0" encoding="UTF-8"?><svg id="Icon" xmlns="http://www.w3.org/2000/svg" viewBox="0 0 512 512"><path d="M340.98,171.05c-6.25-6.25-16.38-6.25-22.63,0-6.25,6.25-6.25,16.38,0,22.63,21.89,21.89,29.78,52.55,23.74,80.78l25.6,25.6c17-43.13,8.1-94.19-26.7-129.01Z"/><path d="M480,256c0-59.83-23.29-116.07-65.59-158.38-6.25-6.25-16.38-6.25-22.63,0-6.25,6.25-6.25,16.38,0,22.63,63.17,63.19,73.02,159.83,29.54,233.45l23.29,23.29c23.04-35.77,35.4-77.42,35.4-120.97Z"/><path d="M443.31,420.69L91.31,68.69c-6.25-6.25-16.38-6.25-22.63,0-6.25,6.25-6.25,16.38,0,22.63l71.98,71.98-17.79,12.71H48c-8.84,0-16,7.16-16,16v128c0,8.84,7.16,16,16,16h74.87l107.83,77.02c2.77,1.98,6.02,2.98,9.3,2.98,2.5,0,5.01-.59,7.32-1.77,5.33-2.74,8.68-8.23,8.68-14.23v-121.37l164.69,164.69c3.12,3.12,7.22,4.69,11.31,4.69s8.19-1.56,11.31-4.69c6.25-6.25,6.25-16.38,0-22.63ZM224,368.91l-86.7-61.93c-2.71-1.94-5.96-2.98-9.3-2.98h-64v-96h64c3.33,0,6.59-1.04,9.3-2.98l26.3-18.79,60.4,60.4v122.28Z"/><path d="M224,156.37l32,32v-76.37c0-5.99-3.35-11.48-8.68-14.23-5.33-2.74-11.74-2.28-16.62,1.21l-37.39,26.71,22.94,22.94,7.75,7.75Z"/></svg>