<?xml version="1.0" encoding="UTF-8"?><svg id="Icon" xmlns="http://www.w3.org/2000/svg" viewBox="0 0 512 512"><path d="M208,224H80c-8.84,0-16-7.16-16-16V80c0-8.84,7.16-16,16-16h128c8.84,0,16,7.16,16,16v128c0,8.84-7.16,16-16,16ZM96,192h96v-96h-96v96Z"/><path d="M432,224h-128c-8.84,0-16-7.16-16-16V80c0-8.84,7.16-16,16-16h128c8.84,0,16,7.16,16,16v128c0,8.84-7.16,16-16,16ZM320,192h96v-96h-96v96Z"/><path d="M432,448h-128c-8.84,0-16-7.16-16-16v-128c0-8.84,7.16-16,16-16h128c8.84,0,16,7.16,16,16v128c0,8.84-7.16,16-16,16ZM320,416h96v-96h-96v96Z"/><path d="M208,448H80c-8.84,0-16-7.16-16-16v-128c0-8.84,7.16-16,16-16h128c8.84,0,16,7.16,16,16v128c0,8.84-7.16,16-16,16ZM96,416h96v-96h-96v96Z"/></svg>