<?xml version="1.0" encoding="UTF-8"?><svg id="Icon" xmlns="http://www.w3.org/2000/svg" viewBox="0 0 512 512"><path d="M416.5,128h-65c-8.84,0-16,7.16-16,16v48h-48c-8.84,0-16,7.16-16,16v48h-48c-8.84,0-16,7.16-16,16v48h-48c-8.84,0-16,7.16-16,16v48h-48c-8.84,0-16,7.16-16,16s7.16,16,16,16h64c8.84,0,16-7.16,16-16v-48h48c8.84,0,16-7.16,16-16v-48h48c8.84,0,16-7.16,16-16v-48h48c8.84,0,16-7.16,16-16v-48h49c8.84,0,16-7.16,16-16s-7.16-16-16-16Z"/><path d="M150.87,217.33c4.09,0,8.19-1.56,11.31-4.69l46.23-46.23v25.37c0,8.84,7.16,16,16,16s16-7.16,16-16v-64s0-.03,0-.04c0-.51-.03-1.02-.08-1.53-.02-.25-.07-.48-.1-.73-.04-.27-.07-.55-.13-.82-.05-.27-.13-.54-.2-.81-.06-.24-.11-.48-.18-.71-.08-.26-.18-.52-.27-.77-.08-.24-.16-.47-.26-.71-.1-.24-.22-.47-.33-.71-.11-.24-.22-.48-.34-.71-.12-.23-.26-.44-.39-.67-.14-.23-.26-.46-.41-.68-.17-.25-.35-.48-.53-.72-.14-.18-.26-.37-.4-.54-.67-.82-1.42-1.57-2.24-2.24-.17-.14-.35-.26-.53-.4-.24-.18-.48-.37-.73-.53-.22-.15-.44-.27-.67-.41-.22-.13-.44-.28-.68-.4-.23-.12-.46-.22-.69-.33-.24-.11-.48-.23-.72-.34-.22-.09-.45-.17-.68-.25-.26-.1-.53-.2-.8-.28-.23-.07-.46-.12-.68-.18-.28-.07-.55-.15-.83-.2-.26-.05-.52-.08-.78-.12-.26-.04-.51-.09-.77-.11-.46-.05-.93-.07-1.39-.07-.06,0-.12,0-.18,0h-64c-8.84,0-16,7.16-16,16s7.16,16,16,16h25.37l-46.23,46.23c-6.25,6.25-6.25,16.38,0,22.63,3.12,3.12,7.22,4.69,11.31,4.69Z"/></svg>