<?xml version="1.0" encoding="UTF-8"?><svg id="Icon" xmlns="http://www.w3.org/2000/svg" viewBox="0 0 512 512"><path d="M256,480c-57.76,0-112.07-22.49-152.91-63.34-40.84-40.84-63.34-95.15-63.34-152.91,0-40.64,11.34-80.25,32.8-114.55,20.86-33.34,50.38-60.4,85.37-78.23,7.87-4.01,17.51-.88,21.52,6.99,4.01,7.87.88,17.51-6.99,21.52-29.83,15.2-54.99,38.27-72.78,66.69-18.27,29.2-27.93,62.94-27.93,97.57,0,101.6,82.66,184.25,184.25,184.25s184.25-82.66,184.25-184.25c0-34.68-9.68-68.47-28-97.7-17.83-28.46-43.06-51.53-72.96-66.7-7.88-4-11.02-13.63-7.02-21.51,4-7.88,13.63-11.02,21.51-7.02,35.07,17.81,64.67,44.86,85.59,78.24,21.52,34.33,32.89,73.99,32.89,114.69,0,57.76-22.49,112.07-63.34,152.91-40.84,40.84-95.15,63.34-152.91,63.34Z"/><path d="M256,207.69c-8.84,0-16-7.16-16-16V41.5c0-8.84,7.16-16,16-16s16,7.16,16,16v150.19c0,8.84-7.16,16-16,16Z"/></svg>