<?xml version="1.0" encoding="UTF-8"?><svg id="Icon" xmlns="http://www.w3.org/2000/svg" viewBox="0 0 512 512"><path d="M256,311c-11.05,0-20-8.95-20-20v-29.22c0-7.49,4.18-14.35,10.84-17.78.91-.47,1.84-.86,2.79-1.18,10.43-3.62,33.09-15.84,33.09-28.82.02-11.91-7.5-22.54-18.71-26.49-14.56-5.12-30.58,2.56-35.7,17.12-3.67,10.42-15.08,15.9-25.5,12.23-10.42-3.67-15.9-15.08-12.23-25.5,12.44-35.37,51.34-54.02,86.71-41.58,27.22,9.58,45.48,35.4,45.44,64.25,0,13.92-5.57,34.34-32.11,52.4-5.12,3.49-10.2,6.31-14.61,8.5v16.07c0,11.05-8.95,20-20,20Z"/><path d="M256.16,375h-.32c-13.17,0-23.84-10.75-23.84-24s10.67-24,23.84-24h.32c13.17,0,23.84,10.75,23.84,24s-10.67,24-23.84,24Z"/></svg>