<?xml version="1.0" encoding="UTF-8"?><svg id="Icon" xmlns="http://www.w3.org/2000/svg" viewBox="0 0 512 512"><path d="M240,211.1v89.8c0,8.84,7.16,16,16,16s16-7.16,16-16v-89.8c0-8.84-7.16-16-16-16s-16,7.16-16,16Z"/><path d="M436,351.8h-64.23l16.69-16.69c6.25-6.25,6.25-16.38,0-22.63-6.25-6.25-16.38-6.25-22.63,0l-44,44c-6.25,6.25-6.25,16.38,0,22.63l44,44c3.12,3.12,7.22,4.69,11.31,4.69s8.19-1.56,11.31-4.69c6.25-6.25,6.25-16.38,0-22.63l-16.69-16.69h64.23c8.84,0,16-7.16,16-16s-7.16-16-16-16Z"/><path d="M288.46,390.42l-27.87,27.7c-2.49,2.49-6.7,2.49-9.19,0l-157.53-157.53c-2.49-2.49-2.49-6.7,0-9.19L251.41,93.88c2.49-2.49,6.7-2.49,9.19,0l157.53,157.53c2.49,2.49,2.49,6.7,0,9.19l-18.24,18.23c-6.25,6.25-6.25,16.38,0,22.63,6.25,6.25,16.38,6.25,22.63,0l18.24-18.24c15.01-15.01,15.01-39.43,0-54.44l-157.53-157.53c-15.01-15.01-39.43-15.01-54.44,0L71.25,228.78c-15.01,15.01-15.01,39.43,0,54.44l157.53,157.53c7.51,7.51,17.37,11.26,27.23,11.26s19.69-3.74,27.18-11.23l27.83-27.67c6.27-6.23,6.3-16.36.07-22.63-6.23-6.27-16.36-6.3-22.63-.07Z"/></svg>