<?xml version="1.0" encoding="UTF-8"?><svg id="Icon" xmlns="http://www.w3.org/2000/svg" viewBox="0 0 512 512"><path d="M284.28,256l59.86-59.86c7.81-7.81,7.81-20.47,0-28.28-7.81-7.81-20.47-7.81-28.29,0l-59.86,59.86-59.86-59.86c-7.81-7.81-20.47-7.81-28.29,0-7.81,7.81-7.81,20.47,0,28.28l59.86,59.86-59.86,59.86c-7.81,7.81-7.81,20.47,0,28.28,3.91,3.91,9.02,5.86,14.14,5.86s10.24-1.95,14.14-5.86l59.86-59.86,59.86,59.86c3.91,3.91,9.02,5.86,14.14,5.86s10.24-1.95,14.14-5.86c7.81-7.81,7.81-20.47,0-28.28l-59.86-59.86Z"/></svg>