<?xml version="1.0" encoding="UTF-8"?><svg id="Icon" xmlns="http://www.w3.org/2000/svg" viewBox="0 0 512 512"><path d="M240,211.1v89.8c0,8.84,7.16,16,16,16s16-7.16,16-16v-89.8c0-8.84-7.16-16-16-16s-16,7.16-16,16Z"/><path d="M418.9,347.98c-9.9-8.36-22.23-13.15-35.08-13.71,11.86-7.48,19.75-20.68,19.75-35.7,0-23.26-18.92-42.19-42.19-42.19s-42.19,18.92-42.19,42.19c0,15.02,7.9,28.23,19.76,35.71-12.84.57-25.17,5.35-35.07,13.68-.3.25-.59.51-.87.78-14.92,14.55-14.53,43.29-12.96,59.12.44,4.47,2.74,8.55,6.35,11.25,16.08,12.02,37.95,17.8,64.98,17.23,1.26.03,2.5.04,3.74.04,25.31,0,45.9-5.8,61.25-17.27,3.6-2.69,5.91-6.78,6.35-11.26,1.55-15.85,1.93-44.6-12.97-59.11-.27-.26-.55-.52-.84-.76ZM361.38,288.38c5.62,0,10.19,4.57,10.19,10.19s-4.57,10.19-10.19,10.19-10.19-4.57-10.19-10.19,4.57-10.19,10.19-10.19ZM401.38,397.13c-9.9,5.17-23.13,7.59-39.47,7.21-.12,0-.25,0-.37,0h-.31c-.12,0-.24,0-.36,0-16.35.39-29.59-2.05-39.48-7.22-.51-14.56,2.1-23.02,3.76-25.22,3.6-2.84,7.84-4.68,12.33-5.38,7.01,4.75,15.27,7.31,23.91,7.31s16.9-2.56,23.91-7.31c4.48.7,8.72,2.54,12.31,5.39,1.66,2.2,4.26,10.67,3.77,25.23Z"/><path d="M440.75,228.78l-157.53-157.53c-15.01-15.01-39.43-15.01-54.44,0L71.25,228.78c-15.01,15.01-15.01,39.43,0,54.44l157.53,157.53c7.5,7.5,17.36,11.26,27.22,11.26s19.72-3.75,27.22-11.26c6.25-6.25,6.25-16.38,0-22.63-6.25-6.25-16.38-6.25-22.63,0-2.49,2.49-6.7,2.49-9.19,0l-157.53-157.53c-2.49-2.49-2.49-6.7,0-9.19L251.41,93.88c2.49-2.49,6.7-2.49,9.19,0l157.53,157.53c2.49,2.49,2.49,6.7,0,9.19-6.25,6.25-6.25,16.38,0,22.63,6.25,6.25,16.38,6.25,22.63,0,15.01-15.01,15.01-39.43,0-54.44Z"/></svg>