<?xml version="1.0" encoding="UTF-8"?><svg id="Icon" xmlns="http://www.w3.org/2000/svg" viewBox="0 0 512 512"><path d="M256,452.01c-9.86,0-19.72-3.75-27.22-11.26l-157.53-157.53c-15.01-15.01-15.01-39.43,0-54.44L228.78,71.25c15.01-15.01,39.43-15.01,54.44,0l157.53,157.53c15.01,15.01,15.01,39.43,0,54.44h0l-157.53,157.53c-7.5,7.5-17.36,11.26-27.22,11.26ZM256,92.01c-1.67,0-3.35.62-4.59,1.87L93.88,251.4c-2.49,2.49-2.49,6.7,0,9.19l157.53,157.53c2.49,2.49,6.7,2.49,9.19,0l157.53-157.53c2.49-2.49,2.49-6.7,0-9.19l-157.53-157.53c-1.25-1.25-2.92-1.87-4.59-1.87Z"/><path d="M256,316.9c-8.84,0-16-7.16-16-16v-89.8c0-8.84,7.16-16,16-16s16,7.16,16,16v89.8c0,8.84-7.16,16-16,16Z"/></svg>