<?xml version="1.0" encoding="UTF-8"?><svg id="Icon" xmlns="http://www.w3.org/2000/svg" viewBox="0 0 512 512"><path d="M454.89,317.33c-2.56,0-5.16-.62-7.57-1.92-7.78-4.19-10.69-13.89-6.5-21.67,4.83-8.98,7.19-17.05,7.19-24.67,0-26.75-21.76-48.51-48.51-48.51-9.05,0-18.68,3-26.57,8.25-6.05,5-14.77,6.68-22.33,4.16-6.1-2.03-11.38-6.03-14.87-11.27l-.31-.49c-17.14-27.86-46.68-44.49-79-44.49s-62.25,16.57-78.91,44.34l-.41.64c-3.49,5.23-8.77,9.23-14.87,11.27-4.87,1.62-12.5,2.34-21.24-3.43-9.43-6.04-18.75-8.98-28.48-8.98-26.75,0-48.51,21.76-48.51,48.51,0,8.3,2.26,16.21,6.92,24.19,4.45,7.63,1.87,17.43-5.76,21.88-7.63,4.45-17.43,1.87-21.88-5.76-7.48-12.83-11.28-26.39-11.28-40.32,0-44.39,36.12-80.51,80.51-80.51,14.01,0,27.68,3.71,40.73,11.03,22.94-34.46,61.08-54.86,103.18-54.86s79.68,20.37,103.07,54.79c12.18-7.01,26.44-10.96,40.01-10.96,44.39,0,80.51,36.12,80.51,80.51,0,12.87-3.7,26.27-11.01,39.84-2.89,5.37-8.4,8.42-14.1,8.42Z"/><path d="M255.57,386.09c-8.84,0-16-7.16-16-16v-101.69c0-8.84,7.16-16,16-16s16,7.16,16,16v101.69c0,8.84-7.16,16-16,16Z"/><path d="M170.07,379.28c-5.53,0-10.91-2.87-13.87-8l-50.84-88.07c-4.42-7.65-1.8-17.44,5.86-21.86,7.65-4.42,17.44-1.8,21.86,5.86l50.84,88.07c4.42,7.65,1.8,17.44-5.86,21.86-2.52,1.45-5.27,2.15-7.98,2.15Z"/><path d="M341.06,379.28c-2.71,0-5.46-.69-7.98-2.15-7.65-4.42-10.27-14.2-5.86-21.86l50.84-88.07c4.42-7.65,14.2-10.27,21.86-5.86,7.65,4.42,10.27,14.2,5.86,21.86l-50.84,88.07c-2.96,5.13-8.34,8-13.87,8Z"/></svg>