<?xml version="1.0" encoding="UTF-8"?><svg id="Icon" xmlns="http://www.w3.org/2000/svg" viewBox="0 0 512 512"><path d="M450.42,304.8c0-26.09-21.22-47.31-47.31-47.31s-47.31,21.22-47.31,47.31c0,20.47,13.08,37.95,31.31,44.52v20.78c0,39.65-32.25,71.9-71.9,71.9s-72.79-32.65-72.79-72.79v-58.32c23.65-4.09,44.76-17.58,62.93-40.26,25.52-31.86,39.73-75.34,47.16-106.21,7.67-31.89,11.46-64.89,8.8-76.76-4.95-22.15-28.25-32.55-40.89-36.64-4.08-5.48-10.6-9.03-17.96-9.03-12.35,0-22.37,10.01-22.37,22.37s10.01,22.37,22.37,22.37c4.6,0,8.88-1.39,12.44-3.78,8.84,3.56,14.36,8.54,15.15,11.57.73,5.23-1.01,32.07-9.56,66.12-12.71,50.58-30.17,78.48-42.59,92.97-15.34,17.91-32.1,26.62-51.23,26.62h-.29c-19.13,0-35.89-8.71-51.23-26.62-22.49-26.26-35.57-65.05-42.59-92.97-8.56-34.06-10.3-60.92-9.56-66.13,1.08-4.27,7.99-8.57,15.1-11.46,3.52,2.32,7.74,3.67,12.28,3.67,12.35,0,22.37-10.01,22.37-22.37s-10.01-22.37-22.37-22.37c-7.39,0-13.95,3.59-18.02,9.12-12.7,4.15-35.71,14.56-40.62,36.55-2.66,11.87,1.13,44.87,8.8,76.76,7.43,30.87,21.64,74.35,47.16,106.21,18.12,22.62,39.16,36.09,62.72,40.23v58.35c0,57.78,47.01,104.79,104.79,104.79s103.9-46.61,103.9-103.9v-20.78c18.24-6.57,31.31-24.05,31.31-44.52ZM403.1,289.48c8.44,0,15.31,6.87,15.31,15.31s-6.87,15.31-15.31,15.31-15.31-6.87-15.31-15.31,6.87-15.31,15.31-15.31Z"/></svg>