<?xml version="1.0" encoding="UTF-8"?><svg id="Icon" xmlns="http://www.w3.org/2000/svg" viewBox="0 0 512 512"><path d="M464,400h-16V124.03c0-5.94-3.29-11.4-8.56-14.16-44.21-23.24-91.03-37.81-139.15-43.33-38.47-4.41-77.82-3.06-116.94,4-66.71,12.05-109.56,36.47-111.35,37.5-4.95,2.86-8,8.14-8,13.86v278.09h-16c-8.84,0-16,7.16-16,16s7.16,16,16,16h416c8.84,0,16-7.16,16-16s-7.16-16-16-16ZM96,131.57c17.97-8.79,52.5-22.35,94.27-29.76,35.91-6.37,71.96-7.51,107.17-3.39,40.81,4.77,80.65,16.68,118.56,35.41v266.17H96V131.57Z"/><path d="M344.3,182.19c-7.91,0-15.95,1.59-23.28,4.56-15.68-16.87-39.32-26.75-64.77-26.75s-49.42,9.89-64.89,26.8c-7.65-3.06-15.58-4.6-23.67-4.6-30.71,0-55.7,21.83-55.7,48.66,0,8.98,2.88,17.58,8.55,25.58,5.11,7.21,15.1,8.91,22.31,3.8s8.91-15.1,3.8-22.31c-1.78-2.52-2.65-4.83-2.65-7.08,0-9.03,10.85-16.66,23.7-16.66,5.26,0,10.28,1.3,15.35,3.97,6.74,3.65,12.62,3.19,16.37,2.16,4.88-1.34,9.24-4.13,12.27-7.86l.5-.65c9.04-12.4,25.52-19.81,44.07-19.81s34.98,7.65,44.19,19.96l.38.49c3.03,3.73,7.38,6.53,12.27,7.87,5.78,1.58,12.33.54,17.26-2.66,4.06-2.18,9.23-3.47,13.95-3.47,12.85,0,23.7,7.63,23.7,16.66,0,1.97-1.03,4.58-2.99,7.57-4.84,7.39-2.77,17.31,4.63,22.15,2.7,1.77,5.74,2.61,8.75,2.61,5.22,0,10.33-2.55,13.4-7.24,5.45-8.33,8.21-16.77,8.21-25.09,0-26.83-24.99-48.66-55.7-48.66Z"/><path d="M255.78,240c-8.84,0-16,7.16-16,16v48c0,8.84,7.16,16,16,16s16-7.16,16-16v-48c0-8.84-7.16-16-16-16Z"/><path d="M335.78,245.36c-7.65-4.42-17.44-1.8-21.86,5.86l-24,41.57c-4.42,7.65-1.8,17.44,5.86,21.86,2.52,1.46,5.27,2.15,7.99,2.15,5.53,0,10.91-2.87,13.87-8l24-41.57c4.42-7.65,1.8-17.44-5.86-21.86Z"/><path d="M198.64,251.22c-4.42-7.65-14.2-10.27-21.86-5.86-7.65,4.42-10.27,14.2-5.86,21.86l24,41.57c2.96,5.13,8.34,8,13.87,8,2.71,0,5.47-.69,7.99-2.15,7.65-4.42,10.27-14.2,5.86-21.86l-24-41.57Z"/></svg>