<?xml version="1.0" encoding="UTF-8"?><svg id="Icon" xmlns="http://www.w3.org/2000/svg" viewBox="0 0 512 512"><path d="M366.58,48h-221.15c-27.25,0-49.42,22.17-49.42,49.42v317.15c0,27.25,22.17,49.42,49.42,49.42h221.15c27.25,0,49.42-22.17,49.42-49.42V97.42c0-27.25-22.17-49.42-49.42-49.42ZM128,208h256v95.88H128v-95.88ZM145.42,80h221.15c9.61,0,17.42,7.82,17.42,17.42v78.58H128v-78.58c0-9.61,7.82-17.42,17.42-17.42ZM366.58,432h-221.15c-9.61,0-17.42-7.82-17.42-17.42v-78.7h256v78.7c0,9.61-7.82,17.42-17.42,17.42Z"/><path d="M208,160h96c8.84,0,16-7.16,16-16s-7.16-16-16-16h-96c-8.84,0-16,7.16-16,16s7.16,16,16,16Z"/><path d="M304,256h-96c-8.84,0-16,7.16-16,16s7.16,16,16,16h96c8.84,0,16-7.16,16-16s-7.16-16-16-16Z"/><path d="M304,384h-96c-8.84,0-16,7.16-16,16s7.16,16,16,16h96c8.84,0,16-7.16,16-16s-7.16-16-16-16Z"/></svg>