<?xml version="1.0" encoding="UTF-8"?><svg id="Icon" xmlns="http://www.w3.org/2000/svg" viewBox="0 0 512 512"><path d="M474.1,116.69l-80-65.1c-2.85-2.32-6.42-3.59-10.1-3.59H128c-3.68,0-7.25,1.27-10.1,3.59L37.9,116.69c-3.73,3.04-5.9,7.6-5.9,12.41v52.9c0,21.35,13.28,39.64,32,47.09v202.92c0,8.84,7.16,16,16,16h352c8.84,0,16-7.16,16-16v-202.92c18.72-7.45,32-25.74,32-47.09v-52.9c0-4.81-2.17-9.37-5.9-12.41ZM352,416h-48v-128h48v128ZM384,416v-144c0-8.84-7.16-16-16-16h-80c-8.84,0-16,7.16-16,16v144H96v-185.13c8.1-2.21,15.39-6.38,21.33-11.97,9.07,8.53,21.27,13.77,34.67,13.77s25.6-5.24,34.67-13.77c9.07,8.53,21.26,13.77,34.67,13.77s25.6-5.24,34.67-13.77c9.07,8.53,21.27,13.77,34.67,13.77s25.6-5.24,34.67-13.77c9.07,8.53,21.27,13.77,34.67,13.77s25.6-5.24,34.67-13.77c5.95,5.59,13.24,9.76,21.33,11.97v185.13h-32ZM448,182c0,10.29-8.37,18.67-18.67,18.67s-18.67-8.37-18.67-18.67c0-7.73-5.48-14.18-12.78-15.67-1.04-.21-2.12-.33-3.22-.33s-2.18.11-3.22.33c-7.29,1.49-12.78,7.94-12.78,15.67,0,10.29-8.37,18.67-18.67,18.67s-18.67-8.37-18.67-18.67c0-8.84-7.16-16-16-16s-16,7.16-16,16c0,10.29-8.37,18.67-18.67,18.67s-18.67-8.37-18.67-18.67c0-8.84-7.16-16-16-16s-16,7.16-16,16c0,10.29-8.37,18.67-18.67,18.67s-18.67-8.37-18.67-18.67c0-8.84-7.16-16-16-16s-16,7.16-16,16c0,10.29-8.37,18.67-18.67,18.67s-18.67-8.37-18.67-18.67c0-7.73-5.48-14.18-12.78-15.67-1.04-.21-2.12-.33-3.22-.33s-2.18.11-3.22.33c-7.29,1.49-12.78,7.94-12.78,15.67,0,10.29-8.37,18.67-18.67,18.67s-18.67-8.37-18.67-18.67v-45.29l69.69-56.71h244.62l69.69,56.71v45.29Z"/><path d="M224,272h-80c-8.84,0-16,7.16-16,16v80c0,8.84,7.16,16,16,16h80c8.84,0,16-7.16,16-16v-80c0-8.84-7.16-16-16-16ZM208,352h-48v-48h48v48Z"/></svg>