<?xml version="1.0" encoding="UTF-8"?><svg id="Icon" xmlns="http://www.w3.org/2000/svg" viewBox="0 0 512 512"><path d="M192.02,224.54c0-8.04,4.16-16.86,13.1-27.75,5.61-6.83,4.62-16.91-2.21-22.52-6.83-5.61-16.91-4.62-22.52,2.21-13.9,16.93-20.37,32.2-20.37,48.05,0,15.86,6.47,31.13,20.36,48.04,7.52,9.18,11.17,16.56,11.17,22.56,0,6-3.66,13.38-11.17,22.56-5.6,6.84-4.59,16.92,2.24,22.52,2.97,2.44,6.56,3.62,10.13,3.62,4.63,0,9.23-2,12.39-5.86,12.56-15.34,18.42-28.95,18.42-42.84,0-13.88-5.85-27.49-18.43-42.85-8.94-10.89-13.1-19.71-13.1-27.75Z"/><path d="M255.66,224.54c0-8.04,4.16-16.86,13.1-27.75,5.61-6.83,4.62-16.91-2.21-22.52-6.83-5.61-16.91-4.62-22.52,2.21-13.9,16.93-20.37,32.2-20.37,48.05,0,15.86,6.47,31.13,20.36,48.04,7.52,9.18,11.17,16.56,11.17,22.56,0,6-3.66,13.38-11.17,22.56-5.6,6.84-4.6,16.92,2.24,22.52,2.97,2.44,6.56,3.62,10.13,3.62,4.63,0,9.22-2,12.39-5.86,12.56-15.34,18.42-28.95,18.42-42.84,0-13.88-5.85-27.49-18.43-42.85-8.94-10.89-13.1-19.71-13.1-27.75Z"/><path d="M333.55,252.29c-8.94-10.89-13.1-19.71-13.1-27.75,0-8.04,4.16-16.86,13.1-27.75,5.61-6.83,4.62-16.91-2.21-22.52-6.83-5.61-16.91-4.62-22.52,2.21-13.9,16.93-20.37,32.2-20.37,48.05,0,15.86,6.47,31.13,20.36,48.04,7.52,9.18,11.17,16.56,11.17,22.56,0,6-3.66,13.38-11.17,22.56-5.6,6.84-4.59,16.92,2.24,22.52,2.97,2.44,6.56,3.62,10.13,3.62,4.63,0,9.23-2,12.39-5.86,12.56-15.34,18.42-28.95,18.42-42.84,0-13.88-5.85-27.49-18.43-42.85Z"/><path d="M464,400h-16V124.03c0-5.94-3.29-11.4-8.56-14.16-44.21-23.24-91.03-37.81-139.15-43.33-38.47-4.41-77.82-3.06-116.94,4-66.71,12.05-109.56,36.47-111.35,37.5-4.95,2.86-8,8.14-8,13.86v278.09h-16c-8.84,0-16,7.16-16,16s7.16,16,16,16h416c8.84,0,16-7.16,16-16s-7.16-16-16-16ZM96,131.57c17.97-8.79,52.5-22.35,94.27-29.76,35.91-6.37,71.96-7.51,107.17-3.39,40.81,4.77,80.65,16.68,118.56,35.41v266.17H96V131.57Z"/></svg>