<?xml version="1.0" encoding="UTF-8"?><svg id="Icon" xmlns="http://www.w3.org/2000/svg" viewBox="0 0 512 512"><path d="M303.98,319.96h-66.04l47.38-71.06c4.9-7.35,2.91-17.29-4.44-22.19-7.35-4.9-17.29-2.92-22.19,4.44l-63.96,95.94c-3.27,4.91-3.58,11.22-.79,16.42,2.78,5.2,8.21,8.45,14.11,8.45h66.04l-47.38,71.07c-4.9,7.35-2.91,17.29,4.44,22.19,2.73,1.82,5.81,2.69,8.86,2.69,5.17,0,10.24-2.5,13.33-7.13l63.96-95.94c3.27-4.91,3.58-11.22.79-16.42-2.78-5.2-8.21-8.45-14.11-8.45Z"/><path d="M382.66,164.67c-5.26-27.13-19.17-51.94-39.88-70.8-23.81-21.69-54.64-33.63-86.79-33.63-49.38,0-93.86,28.14-115.46,72.35-21.57,6.41-40.98,19.25-55.32,36.74-16.27,19.84-25.22,44.76-25.22,70.17,0,32.53,14.13,63.45,38.77,84.82,6.67,5.79,16.78,5.07,22.57-1.6,5.79-6.67,5.07-16.78-1.6-22.57-17.63-15.3-27.74-37.4-27.74-60.65,0-37.02,26.65-69.69,63.38-77.7,5.12-1.12,9.37-4.67,11.37-9.51,15.1-36.48,50.14-60.04,89.25-60.04,24.16,0,47.33,8.98,65.24,25.29,17.72,16.13,28.81,38.02,31.26,61.67.1,1.28.36,2.53.75,3.72.75,2.29,2,4.33,3.6,6.02,1.6,1.69,3.57,3.03,5.82,3.9,1.16.45,2.39.77,3.66.94,14.76,2.33,28.29,9.82,38.15,21.11,10.01,11.47,15.52,26.16,15.52,41.36,0,19.53-8.83,37.71-24.23,49.87-6.93,5.48-8.11,15.54-2.63,22.47,3.16,4,7.84,6.08,12.56,6.08,3.47,0,6.97-1.13,9.91-3.45,23.12-18.27,36.39-45.6,36.39-74.98,0-22.94-8.32-45.1-23.42-62.4-12.22-14-28.22-24.1-45.92-29.17Z"/></svg>