<?xml version="1.0" encoding="UTF-8"?><svg id="Icon" xmlns="http://www.w3.org/2000/svg" viewBox="0 0 512 512"><path d="M464,400h-16V124.03c0-5.94-3.29-11.4-8.56-14.16-44.21-23.24-91.03-37.81-139.15-43.33-38.47-4.41-77.82-3.06-116.94,4-66.71,12.05-109.56,36.47-111.35,37.5-4.95,2.86-8,8.14-8,13.86v278.09h-16c-8.84,0-16,7.16-16,16s7.16,16,16,16h416c8.84,0,16-7.16,16-16s-7.16-16-16-16ZM96,131.57c17.97-8.79,52.5-22.35,94.27-29.76,35.91-6.37,71.96-7.51,107.17-3.39,40.81,4.77,80.65,16.68,118.56,35.41v266.17H96V131.57Z"/><path d="M340.11,293.89l-3.99-2.31c3.4-3.13,4.83-8.09,3.23-12.74-2.16-6.27-8.99-9.6-15.25-7.44-3.97,1.36-7.74,3.92-10.97,6.91l-33.13-19.13,33.13-19.13c3.23,2.99,7,5.55,10.97,6.91,1.29.45,2.61.66,3.91.66,4.98,0,9.64-3.12,11.35-8.1,1.6-4.66.17-9.62-3.24-12.75l3.98-2.3c5.74-3.31,7.71-10.65,4.39-16.39-3.31-5.74-10.65-7.71-16.39-4.39l-3.99,2.31c-1.01-4.51-4.59-8.23-9.42-9.17-6.5-1.27-12.81,2.98-14.07,9.49-.8,4.12-.47,8.67.5,12.95l-33.13,19.13v-38.25c4.2-1.3,8.3-3.29,11.47-6.04,5-4.35,5.54-11.94,1.19-16.94-3.23-3.72-8.24-4.96-12.66-3.57v-4.6c0-6.63-5.37-12-12-12s-12,5.37-12,12v4.61c-4.41-1.38-9.42-.14-12.65,3.57-4.35,5-3.82,12.58,1.18,16.93,3.17,2.75,7.27,4.74,11.47,6.04v38.25l-33.13-19.13c.98-4.29,1.3-8.84.5-12.95-1.27-6.5-7.56-10.76-14.08-9.5-4.83.94-8.42,4.66-9.42,9.18l-3.98-2.3c-5.74-3.31-13.08-1.35-16.39,4.39-3.31,5.74-1.35,13.08,4.39,16.39l3.99,2.31c-3.4,3.13-4.83,8.09-3.23,12.74,1.71,4.97,6.37,8.1,11.35,8.1,1.29,0,2.61-.21,3.9-.66,3.97-1.36,7.74-3.92,10.97-6.91l33.13,19.13-33.13,19.13c-3.23-2.99-7-5.55-10.97-6.91-6.27-2.16-13.11,1.17-15.26,7.44-1.6,4.66-.17,9.62,3.24,12.75l-3.98,2.3c-5.74,3.31-7.71,10.65-4.39,16.39,2.22,3.85,6.26,6,10.4,6,2.04,0,4.1-.52,5.99-1.61l3.99-2.31c1.01,4.51,4.59,8.23,9.42,9.17.77.15,1.54.22,2.31.22,5.63,0,10.65-3.98,11.77-9.71.8-4.12.47-8.67-.5-12.95l33.13-19.13v38.25c-4.2,1.3-8.3,3.29-11.47,6.04-5,4.35-5.54,11.94-1.19,16.94,2.37,2.73,5.71,4.13,9.06,4.13,1.21,0,2.42-.19,3.6-.56v4.61c0,6.63,5.37,12,12,12s12-5.37,12-12v-4.62c1.17.37,2.38.56,3.59.56,3.35,0,6.69-1.4,9.06-4.12,4.35-5,3.82-12.58-1.18-16.93-3.17-2.75-7.27-4.74-11.47-6.04v-38.25l33.13,19.13c-.98,4.29-1.3,8.84-.5,12.95,1.12,5.73,6.14,9.72,11.77,9.72.76,0,1.53-.07,2.3-.22,4.83-.94,8.42-4.66,9.42-9.18l3.98,2.3c1.89,1.09,3.95,1.61,5.99,1.61,4.15,0,8.18-2.15,10.4-6,3.31-5.74,1.35-13.08-4.39-16.39Z"/></svg>