<?xml version="1.0" encoding="UTF-8"?><svg id="Icon" xmlns="http://www.w3.org/2000/svg" viewBox="0 0 512 512"><path d="M483.86,241.73l-101.75-51.66v-43.18c0-.06,0-.11,0-.17,0-.2-.01-.4-.02-.61-.01-.22-.02-.44-.04-.67-.01-.12-.02-.24-.03-.35-.02-.17-.04-.33-.07-.49-.03-.23-.07-.46-.11-.69-.03-.14-.05-.27-.08-.41-.03-.15-.07-.29-.11-.43-.05-.22-.11-.44-.17-.66-.04-.14-.08-.29-.13-.43-.05-.15-.11-.29-.16-.44,0,0,0,0,0,0-.07-.2-.14-.39-.22-.59-.05-.14-.1-.27-.16-.41-.07-.16-.15-.31-.23-.47-.01-.03-.03-.05-.04-.08-.06-.12-.1-.24-.16-.36-.02-.05-.05-.09-.08-.13-.05-.1-.11-.21-.16-.32-.11-.2-.24-.39-.36-.59-.1-.17-.2-.34-.31-.5-.04-.07-.08-.13-.13-.2-.14-.2-.29-.39-.43-.59-.13-.17-.26-.35-.39-.52-.03-.04-.06-.07-.09-.11-.16-.19-.33-.37-.49-.55-.16-.17-.31-.35-.48-.52-.02-.02-.05-.05-.08-.07-.17-.17-.35-.32-.52-.48-.18-.16-.35-.33-.54-.49-.04-.03-.07-.06-.11-.09-.17-.14-.35-.27-.53-.4-.19-.14-.38-.29-.58-.43-.06-.04-.13-.08-.2-.12-.17-.11-.34-.21-.52-.31-.19-.12-.38-.24-.58-.35-.1-.06-.21-.11-.31-.16-.05-.03-.1-.06-.15-.08l-110.11-55.9c-4.55-2.31-9.93-2.31-14.49,0l-107.76,54.71s-.02.01-.03.02c-.33.17-.65.34-.97.53-.09.05-.18.12-.26.17-.11.07-.22.14-.33.21-.35.23-.7.48-1.03.74-.09.07-.17.14-.26.21-.29.24-.57.49-.85.75-.12.11-.24.23-.35.34-.29.29-.57.59-.84.9-.08.1-.16.2-.24.3-.21.26-.42.53-.61.8-.09.12-.18.25-.26.37-.24.35-.47.72-.67,1.09-.04.08-.08.16-.12.24-.18.33-.35.67-.5,1.02-.05.1-.09.21-.14.31-.18.41-.34.83-.48,1.26-.02.06-.03.12-.05.17-.12.38-.23.77-.32,1.16-.03.11-.05.22-.08.33-.09.43-.17.87-.23,1.31-.01.09-.02.18-.03.27-.04.35-.07.71-.08,1.07,0,.16-.01.31-.02.47,0,.07,0,.15,0,.22v43.18l-104.1,52.85c-5.37,2.73-8.76,8.24-8.76,14.27s3.38,11.54,8.76,14.27l110.43,56.06s.04.02.06.03h.02s0,0,0,0l110.11,55.9c2.28,1.16,4.76,1.73,7.24,1.73s4.97-.58,7.24-1.73l107.67-54.66s.04-.02.07-.03h.02s112.86-57.3,112.86-57.3c5.37-2.73,8.76-8.24,8.76-14.27s-3.38-11.54-8.76-14.27ZM240,229.37l-75.76-40.28v-16.76l75.76,40.28v16.76ZM272,212.8l78.11-39.8v17.09l-78.11,39.8v-17.09ZM256,108.94l74.81,37.98-74.66,38.04-73.22-38.93,73.06-37.09ZM148.07,216.73l73.28,38.96-75.47,38.45-75.15-38.15,77.34-39.27ZM256,350.06l-74.81-37.98,74.66-38.04,73.22,38.93-73.06,37.09ZM363.93,295.27l-73.28-38.96,75.47-38.45,75.15,38.15-77.34,39.27Z"/></svg>