<?xml version="1.0" encoding="UTF-8"?><svg id="Icon" xmlns="http://www.w3.org/2000/svg" viewBox="0 0 512 512"><path d="M231.29,63.55c-8.84,0-16,7.16-16,16v11.14h-43.27v-39.07c0-8.84-7.16-16-16-16s-16,7.16-16,16v39.07h-43.27v-11.14c0-8.84-7.16-16-16-16s-16,7.16-16,16v27.14c0,8.84,7.16,16,16,16h59.27v36.98h-43.27v-11.14c0-8.84-7.16-16-16-16s-16,7.16-16,16v27.14c0,8.84,7.16,16,16,16h59.27v224.71h-34.18c-8.84,0-16,7.16-16,16s7.16,16,16,16h100.36c8.84,0,16-7.16,16-16s-7.16-16-16-16h-34.18v-224.71h59.27c8.84,0,16-7.16,16-16v-27.14c0-8.84-7.16-16-16-16s-16,7.16-16,16v11.14h-43.27v-36.98h59.27c8.84,0,16-7.16,16-16v-27.14c0-8.84-7.16-16-16-16Z"/><path d="M437.19,279.63l-70.2-25.09c-3.48-1.24-7.29-1.24-10.77,0l-70.2,25.09c-6.37,2.28-10.62,8.31-10.62,15.07v136.95c0,8.84,7.16,16,16,16h140.41c8.84,0,16-7.16,16-16v-136.95c0-6.76-4.25-12.79-10.62-15.07ZM415.8,415.65h-108.41v-109.68l54.2-19.37,54.2,19.37v109.68Z"/><path d="M353.71,303.19l-25.95,41.24c-3.1,4.93-3.28,11.16-.46,16.26,2.82,5.1,8.18,8.27,14.01,8.27h10.4l-11.82,17.41c-4.96,7.31-3.06,17.26,4.25,22.22,2.75,1.87,5.88,2.76,8.97,2.76,5.12,0,10.16-2.46,13.25-7.01l28.78-42.4c3.33-4.9,3.67-11.24.9-16.48-2.77-5.24-8.21-8.51-14.14-8.51h-11.63l10.52-16.72c4.71-7.48,2.46-17.36-5.02-22.06-7.48-4.71-17.36-2.46-22.06,5.02Z"/><path d="M329.72,226.51l-39.53,13.64c-8.35,2.88-12.79,11.99-9.91,20.34,2.29,6.63,8.49,10.79,15.12,10.79,1.73,0,3.49-.28,5.22-.88l39.53-13.64c8.35-2.88,12.79-11.99,9.91-20.34-2.88-8.35-11.99-12.79-20.34-9.91Z"/><path d="M289.71,238.77l39.53-13.64c8.35-2.88,12.79-11.99,9.91-20.34-2.88-8.35-11.99-12.79-20.34-9.91l-39.53,13.64c-8.35,2.88-12.79,11.99-9.91,20.34,2.29,6.63,8.49,10.79,15.12,10.79,1.73,0,3.49-.28,5.22-.88Z"/><path d="M382.03,255.79l39.08,14.87c1.87.71,3.8,1.05,5.69,1.05,6.45,0,12.53-3.93,14.96-10.31,3.14-8.26-1.01-17.5-9.26-20.64l-39.08-14.87c-8.26-3.14-17.5,1.01-20.64,9.26-3.14,8.26,1.01,17.5,9.26,20.64Z"/><path d="M444.39,209.49l-39.08-14.87c-8.26-3.14-17.5,1.01-20.64,9.27-3.14,8.26,1.01,17.5,9.26,20.64l39.08,14.87c1.87.71,3.8,1.05,5.69,1.05,6.45,0,12.53-3.93,14.96-10.31,3.14-8.26-1.01-17.5-9.26-20.64Z"/></svg>