<?xml version="1.0" encoding="UTF-8"?><svg id="Icon" xmlns="http://www.w3.org/2000/svg" viewBox="0 0 512 512"><path d="M252.64,64c-52.18,0-101.24,20.32-138.14,57.22-6.25,6.25-6.25,16.38,0,22.63l115.51,115.51-161.33,161.33c-6.25,6.25-6.25,16.38,0,22.63,3.12,3.12,7.22,4.69,11.31,4.69s8.19-1.56,11.31-4.69l161.33-161.33,115.51,115.51c3.12,3.12,7.22,4.69,11.31,4.69s8.19-1.56,11.31-4.69c36.9-36.9,57.22-85.96,57.22-138.14s-20.32-101.24-57.22-138.14c-36.9-36.9-85.96-57.22-138.14-57.22ZM378.92,363.02l-229.94-229.94c29.15-24.02,65.4-37.08,103.66-37.08,43.63,0,84.66,16.99,115.51,47.85s47.85,71.88,47.85,115.51c0,38.26-13.06,74.51-37.08,103.66Z"/></svg>