<?xml version="1.0" encoding="UTF-8"?><svg id="Icon" xmlns="http://www.w3.org/2000/svg" viewBox="0 0 512 512"><path d="M256,366.55c60.96,0,110.55-49.59,110.55-110.55s-49.59-110.55-110.55-110.55-110.55,49.59-110.55,110.55,49.59,110.55,110.55,110.55ZM256,177.45c43.31,0,78.55,35.24,78.55,78.55s-35.24,78.55-78.55,78.55-78.55-35.24-78.55-78.55,35.24-78.55,78.55-78.55Z"/><path d="M256,101.82c8.84,0,16-7.16,16-16v-37.82c0-8.84-7.16-16-16-16s-16,7.16-16,16v37.82c0,8.84,7.16,16,16,16Z"/><path d="M272,464v-37.82c0-8.84-7.16-16-16-16s-16,7.16-16,16v37.82c0,8.84,7.16,16,16,16s16-7.16,16-16Z"/><path d="M124.42,147.05c3.12,3.12,7.22,4.69,11.31,4.69s8.19-1.56,11.31-4.69c6.25-6.25,6.25-16.38,0-22.63l-26.85-26.85c-6.25-6.25-16.38-6.25-22.63,0-6.25,6.25-6.25,16.38,0,22.63l26.85,26.85Z"/><path d="M364.95,364.95c-6.25,6.25-6.25,16.38,0,22.63l26.85,26.85c3.12,3.12,7.22,4.69,11.31,4.69s8.19-1.56,11.31-4.69c6.25-6.25,6.25-16.38,0-22.63l-26.85-26.85c-6.25-6.25-16.38-6.25-22.63,0Z"/><path d="M101.82,256c0-8.84-7.16-16-16-16h-37.82c-8.84,0-16,7.16-16,16s7.16,16,16,16h37.82c8.84,0,16-7.16,16-16Z"/><path d="M464,240h-37.82c-8.84,0-16,7.16-16,16s7.16,16,16,16h37.82c8.84,0,16-7.16,16-16s-7.16-16-16-16Z"/><path d="M120.2,414.43l26.85-26.85c6.25-6.25,6.25-16.38,0-22.63-6.25-6.25-16.38-6.25-22.63,0l-26.85,26.85c-6.25,6.25-6.25,16.38,0,22.63,3.12,3.12,7.22,4.69,11.31,4.69s8.19-1.56,11.31-4.69Z"/><path d="M376.26,151.74c4.09,0,8.19-1.56,11.31-4.69l26.85-26.85c6.25-6.25,6.25-16.38,0-22.63-6.25-6.25-16.38-6.25-22.63,0l-26.85,26.85c-6.25,6.25-6.25,16.38,0,22.63,3.12,3.12,7.22,4.69,11.31,4.69Z"/></svg>