<?xml version="1.0" encoding="UTF-8"?><svg id="Icon" xmlns="http://www.w3.org/2000/svg" viewBox="0 0 512 512"><path d="M256,101.82c8.84,0,16-7.16,16-16v-37.82c0-8.84-7.16-16-16-16s-16,7.16-16,16v37.82c0,8.84,7.16,16,16,16Z"/><path d="M124.42,147.05c3.12,3.12,7.22,4.69,11.31,4.69s8.19-1.56,11.31-4.69c6.25-6.25,6.25-16.38,0-22.63l-26.85-26.85c-6.25-6.25-16.38-6.25-22.63,0-6.25,6.25-6.25,16.38,0,22.63l26.85,26.85Z"/><path d="M85.82,240h-37.82c-8.84,0-16,7.16-16,16s7.16,16,16,16h37.82c8.84,0,16-7.16,16-16s-7.16-16-16-16Z"/><path d="M464,240h-37.82c-8.84,0-16,7.16-16,16s7.16,16,16,16h37.82c8.84,0,16-7.16,16-16s-7.16-16-16-16Z"/><path d="M376.26,151.74c4.09,0,8.19-1.56,11.31-4.69l26.85-26.85c6.25-6.25,6.25-16.38,0-22.63-6.25-6.25-16.38-6.25-22.63,0l-26.85,26.85c-6.25,6.25-6.25,16.38,0,22.63,3.12,3.12,7.22,4.69,11.31,4.69Z"/><path d="M384,288h-22.15c3.12-10.3,4.7-21,4.7-32,0-60.96-49.59-110.55-110.55-110.55s-110.55,49.59-110.55,110.55c0,10.84,1.61,21.66,4.73,32h-22.18c-8.84,0-16,7.16-16,16s7.16,16,16,16h256c8.84,0,16-7.16,16-16s-7.16-16-16-16ZM177.45,256c0-43.31,35.24-78.55,78.55-78.55s78.55,35.24,78.55,78.55c0,11.19-2.29,21.93-6.8,32h-143.5c-4.51-10.06-6.79-20.8-6.79-32Z"/><path d="M288.69,408.69l-16.69,16.69v-57.37c0-8.84-7.16-16-16-16s-16,7.16-16,16v57.37l-16.69-16.69c-6.25-6.25-16.38-6.25-22.63,0-6.25,6.25-6.25,16.38,0,22.63l44,44c3.12,3.12,7.22,4.69,11.31,4.69s8.19-1.56,11.31-4.69l44-44c6.25-6.25,6.25-16.38,0-22.63-6.25-6.25-16.38-6.25-22.63,0Z"/></svg>