<?xml version="1.0" encoding="UTF-8"?><svg id="Icon" xmlns="http://www.w3.org/2000/svg" viewBox="0 0 512 512"><path d="M255.89,111.62c32.23,0,58.45,26.22,58.45,58.45,0,1.67-.07,3.36-.21,5.01-.75,8.81,5.79,16.55,14.59,17.29,8.8.75,16.55-5.78,17.29-14.59.22-2.55.33-5.14.33-7.71,0-49.87-40.57-90.45-90.45-90.45s-90.45,40.58-90.45,90.45c0,18.61,5.61,36.49,16.23,51.71,3.11,4.46,8.08,6.85,13.14,6.85,3.16,0,6.35-.93,9.14-2.88,7.25-5.06,9.02-15.03,3.97-22.28-6.85-9.82-10.47-21.37-10.47-33.4,0-32.23,26.22-58.45,58.45-58.45Z"/><path d="M234.4,288h43.2c7.37,0,13.49-5.62,14.3-12.78,37.36-9.12,69.44-33.45,88.27-67.22h13.42c7.92,0,14.4-6.48,14.4-14.4v-43.2c0-7.92-6.48-14.4-14.4-14.4h-3.84c-15.18-59.71-69.39-104-133.76-104s-118.57,44.29-133.76,104h-3.84c-7.92,0-14.4,6.48-14.4,14.4v43.2c0,7.92,6.48,14.4,14.4,14.4h19.2c7.92,0,14.4-6.48,14.4-14.4v-43.2c0-.24-.02-.48-.04-.72,9.51-48.76,52.54-85.68,104.04-85.68s94.53,36.92,104.04,85.67c-.01.24-.04.48-.04.73v24.63c-11.69,34.08-39.44,59.3-73.09,68.42-2.52-2.15-5.77-3.45-9.31-3.45h-43.2c-7.92,0-14.4,6.48-14.4,14.4v19.2c0,7.92,6.48,14.4,14.4,14.4Z"/><path d="M434.45,368.22c-2.78-2.4-69.43-58.78-177.35-58.78-91.69,0-174.57,55.29-178.06,57.64-7.32,4.94-9.24,14.88-4.3,22.2,4.94,7.32,14.88,9.25,22.21,4.32.77-.52,78.44-52.17,160.15-52.17,49.81,0,89.6,13.81,114.21,25.39,26.9,12.66,42.12,25.53,42.24,25.63,3.02,2.61,6.74,3.88,10.44,3.88,4.49,0,8.96-1.88,12.13-5.55,5.77-6.69,5.02-16.8-1.67-22.57Z"/></svg>