<?xml version="1.0" encoding="UTF-8"?><svg id="Icon" xmlns="http://www.w3.org/2000/svg" viewBox="0 0 512 512"><path d="M347.75,312.31s-.05-.1-.07-.15l-2.15-4.4c-.21-.44-1.68-3.59-3.44-8.53-2.35-6.6-5.34-16.58-6.29-26.68-1.97-21.5,3.3-35.17,4.39-37.72l8.17-19.25c2.61-6.22,2.22-13.16-1.09-19.05-3.31-5.89-9.04-9.84-15.81-10.86l-22.54-3.33c-33.44-5.13-65.16-12.01-94.22-20.41-5.67-1.67-10.29-3.08-14.17-4.34-6.73-2.17-12.82-4.31-18.1-6.37l-1.58-.64c-.44-.18-.89-.34-1.34-.47l-1.01-.31c-6.08-1.84-11.89-2.73-17.74-2.73-14.77,0-25.62,5.64-34.34,10.17-.04.02-.08.04-.12.07-2.15,1.14-4.48,2.36-7.18,3.62l-.13.06c-4.35,2.07-7.16,2.92-11.45,3.45-2.32.24-5.13.42-8.83.56-.06,0-.12,0-.18,0l-12.71.64c-6.15.31-11.59,4.12-13.96,9.81l-6.39,15.29c-.2.48-.37.96-.53,1.45l-.46,1.47c-3.25,10.38-10,31.98-8.09,71.18,1.5,30.69,9.99,61.8,23.92,87.59,16.75,31.04,41.19,54.35,70.71,67.42,13.29,5.85,27.56,8.81,42.42,8.81,44.26,0,83.23-26.6,97.9-38.02,19.08-14.79,43.72-36.66,45.26-38.03l6.64-5.88c8.83-7.91,11.29-20.38,6.14-31.06l-1.61-3.38ZM303.93,275.53c1.26,13.41,5.05,26.13,8.01,34.45,2.33,6.53,4.35,10.85,4.74,11.65.02.05.04.09.07.14l1.94,3.97-3.36,2.98s-.46.41-1.23,1.09c-7.28-17.84-16.68-43.98-17.77-59.96-1.07-15.72,5.43-39.92,10.5-55.44l6.84,1.02-2.93,6.9c-2.89,6.78-9.35,25.52-6.8,53.21ZM193.43,396.67c-10.4,0-20.34-2.05-29.5-6.08-23.26-10.3-41.92-28.25-55.47-53.34-3.61-6.69-6.78-13.81-9.48-21.23h122.63c8.84,0,16-7.16,16-16s-7.16-16-16-16H90.59c-1.14-6.87-1.91-13.8-2.25-20.72-.02-.31-.03-.62-.04-.93h142.22c8.84,0,16-7.16,16-16s-7.16-16-16-16H89.15c1.48-13.12,4.12-21.57,5.86-27.14l.26-.83,2.21-5.29,2.55-.13c4.46-.17,7.96-.41,11-.73.09,0,.18-.02.26-.03,7.74-.95,13.94-2.77,21.37-6.3,3.35-1.56,6.17-3.04,8.56-4.3,7.03-3.65,12.6-6.53,19.53-6.53,2.67,0,5.45.45,8.48,1.36l1.33.5c.06.02.11.05.17.07,5.89,2.29,12.61,4.66,19.93,7.02,4.13,1.34,9.04,2.85,15.08,4.62,21.81,6.31,44.98,11.78,69.19,16.34-5.28,16.86-11.9,42.72-10.52,62.99,1.76,25.98,17.54,64.47,24.2,79.71-5.66,4.72-11.53,9.51-16.9,13.67-36.3,28.25-66.83,31.29-78.27,31.29Z"/><path d="M98.3,157.74c2.95,2.35,6.47,3.5,9.97,3.5,4.7,0,9.35-2.06,12.51-6.01.21-.27,21.53-26.7,47.19-41.4,8.75-5.01,19.54-5.58,24.13-2.95,1.67.95,2.49,1.58,3.35,3.54,1.15,2.61,2.89,9.13,1.56,23.43-.82,8.8,5.65,16.6,14.45,17.42,8.8.82,16.6-5.65,17.42-14.45,2.8-30.06-3.64-47.86-20.89-57.72-15.19-8.69-37.66-7.49-55.92,2.97-31.07,17.8-55.28,47.93-56.3,49.21-5.5,6.91-4.37,16.96,2.53,22.47Z"/><path d="M445.81,138.57c-7.19-9.92-18.36-15.94-32.32-17.41-10.15-1.07-21.27.36-31.31,4.02-32.51,11.84-49.69,32.29-50.41,33.16l24.66,20.4-.07.08c.13-.15,12.83-14.85,36.77-23.57,9.65-3.51,22.71-3.51,26.77,2.09,2.9,4,4.5,11.45,4.09,18.97l-.03.57c-.34,6.16-.56,10.23-6.9,22.56-9.98,19.39-57.88,74.04-65.18,80.22-6.81,5.63-7.76,15.72-2.13,22.53,3.16,3.83,7.73,5.8,12.34,5.8,3.59,0,7.2-1.2,10.19-3.67,9.35-7.73,60.85-66.15,73.24-90.24,8.77-17.05,9.87-25.79,10.4-35.45l.03-.55c.4-7.13.2-25.26-10.13-39.52Z"/></svg>