<?xml version="1.0" encoding="UTF-8"?><svg id="Icon" xmlns="http://www.w3.org/2000/svg" viewBox="0 0 512 512"><path d="M156.78,160c0,52.93,43.07,96,96,96s96-43.07,96-96-43.07-96-96-96-96,43.07-96,96ZM252.78,96c35.29,0,64,28.71,64,64s-28.71,64-64,64-64-28.71-64-64,28.71-64,64-64Z"/><path d="M253.85,304c-89.16,0-169.75,53.76-173.14,56.05-7.32,4.94-9.24,14.88-4.3,22.2,3.09,4.58,8.14,7.05,13.28,7.05,3.08,0,6.18-.88,8.93-2.73.75-.51,76.05-50.57,155.24-50.57,8.84,0,16-7.16,16-16s-7.16-16-16-16Z"/><path d="M392,272c-48.52,0-88,39.48-88,88s39.48,88,88,88,88-39.48,88-88-39.48-88-88-88ZM392,304c9.55,0,18.54,2.41,26.41,6.64l-75.78,75.78c-4.23-7.87-6.64-16.87-6.64-26.41,0-30.88,25.12-56,56-56ZM392,416c-9.72,0-18.86-2.49-26.84-6.86l75.97-75.97c4.37,7.97,6.86,17.12,6.86,26.84,0,30.88-25.12,56-56,56Z"/></svg>