<?xml version="1.0" encoding="UTF-8"?><svg id="Icon" xmlns="http://www.w3.org/2000/svg" viewBox="0 0 512 512"><path d="M224,64H80c-8.84,0-16,7.16-16,16v352c0,8.84,7.16,16,16,16h144c8.84,0,16-7.16,16-16V80c0-8.84-7.16-16-16-16ZM208,96v96h-112v-96h112ZM96,416v-192h112v192h-112Z"/><rect x="136" y="128" width="32" height="32"/><path d="M176.93,306.52h-21.4l17.07-28.06c4.59-7.55,2.2-17.39-5.35-21.99-7.55-4.59-17.39-2.2-21.99,5.35l-31.87,52.38c-3.01,4.94-3.11,11.12-.28,16.16s8.17,8.16,13.95,8.16h20.23l-19.08,29.07c-4.85,7.39-2.79,17.31,4.59,22.16,2.71,1.78,5.75,2.63,8.77,2.63,5.21,0,10.32-2.54,13.39-7.22l35.35-53.85c3.23-4.92,3.5-11.21.7-16.38-2.79-5.17-8.2-8.4-14.08-8.4Z"/><path d="M432,64h-144c-8.84,0-16,7.16-16,16v352c0,8.84,7.16,16,16,16h144c8.84,0,16-7.16,16-16V80c0-8.84-7.16-16-16-16ZM416,96v96h-112v-96h112ZM304,416v-192h112v192h-112Z"/><rect x="344" y="128" width="32" height="32"/><path d="M384.93,306.52h-21.4l17.07-28.06c4.59-7.55,2.2-17.39-5.35-21.99-7.55-4.59-17.39-2.2-21.99,5.35l-31.87,52.38c-3.01,4.94-3.11,11.12-.28,16.16s8.17,8.16,13.95,8.16h20.23l-19.08,29.07c-4.85,7.39-2.79,17.31,4.59,22.16,2.71,1.78,5.75,2.63,8.77,2.63,5.21,0,10.32-2.54,13.39-7.22l35.35-53.85c3.23-4.92,3.5-11.21.7-16.38-2.79-5.17-8.2-8.4-14.08-8.4Z"/></svg>