<?xml version="1.0" encoding="UTF-8"?><svg id="Icon" xmlns="http://www.w3.org/2000/svg" viewBox="0 0 512 512"><path d="M336,192c0,8.84,7.16,16,16,16h80c8.84,0,16-7.16,16-16v-80c0-8.84-7.16-16-16-16s-16,7.16-16,16v37.37c-35.21-52.9-94.78-85.58-160-85.58-45.87,0-90.28,16.42-125.06,46.24-34.39,29.49-57.35,70.22-64.63,114.7-1.43,8.72,4.48,16.95,13.2,18.38.88.14,1.75.21,2.61.21,7.7,0,14.48-5.57,15.77-13.42,6.07-37.05,25.21-70.99,53.88-95.58,28.98-24.85,66-38.53,104.23-38.53,57.91,0,110.48,30.92,138.85,80.2h-42.85c-8.84,0-16,7.16-16,16Z"/><path d="M64,400c0,8.84,7.16,16,16,16s16-7.16,16-16v-37.73c35.21,52.88,94.77,85.53,159.97,85.53,45.87,0,90.28-16.42,125.06-46.24,34.39-29.49,57.35-70.22,64.64-114.7,1.43-8.72-4.48-16.95-13.2-18.38-8.72-1.43-16.95,4.48-18.38,13.2-6.07,37.05-25.21,70.99-53.88,95.58-28.98,24.85-66,38.53-104.23,38.53-57.75,0-110.18-30.75-138.61-79.8h42.64c8.84,0,16-7.16,16-16s-7.16-16-16-16h-80c-8.84,0-16,7.16-16,16v80Z"/></svg>