<?xml version="1.0" encoding="UTF-8"?><svg id="Icon" xmlns="http://www.w3.org/2000/svg" viewBox="0 0 512 512"><path d="M441.66,147.4c-8.68-42.14-32.87-76.56-68.12-96.91-72.13-41.64-168.47-10.28-214.77,69.9-18.21,31.54-26.61,66.69-24.29,101.66,1.99,30,12.14,58.43,28.86,81.31l-67.54,110.08c-2.26,3.68-2.93,8.12-1.87,12.3,1.06,4.19,3.77,7.76,7.51,9.92l73.09,42.2c2.45,1.42,5.22,2.14,8,2.14,1.43,0,2.86-.19,4.26-.58,4.13-1.14,7.63-3.89,9.72-7.64l62.87-112.87c5.18.57,10.42.86,15.68.86,23.39,0,47.29-5.59,69.37-16.45,31.47-15.47,57.74-40.33,75.96-71.9,22.25-38.54,29.81-82.59,21.27-124.04ZM253.9,325.74c-.09-.02-.18-.02-.27-.04-.42-.08-.85-.14-1.27-.19-.19-.02-.37-.02-.55-.03-.33-.02-.66-.04-.99-.04-.26,0-.52.02-.78.03-.25.01-.5.02-.75.04-.3.03-.59.07-.89.12-.21.03-.42.06-.63.1-.3.06-.59.13-.89.21-.21.05-.41.1-.62.16-.27.08-.54.18-.8.27-.23.08-.45.16-.67.25-.23.09-.45.2-.68.3-.25.12-.5.23-.75.36-.19.1-.37.21-.55.31-.27.15-.54.31-.8.48-.16.1-.31.22-.46.32-.27.19-.53.38-.79.59-.15.12-.29.25-.44.38-.24.21-.48.42-.71.64-.17.16-.33.34-.49.51-.19.2-.38.39-.55.6-.21.25-.4.51-.6.77-.11.15-.23.3-.34.45-.25.36-.47.73-.69,1.1-.04.07-.09.14-.13.21l-.04.07s-.05.09-.08.13l-60.25,108.16-44.79-25.86,64.77-105.56c.3-.49.58-.99.82-1.5.04-.09.08-.18.12-.27.17-.38.34-.76.49-1.15.1-.28.18-.56.27-.84.06-.21.14-.42.19-.63.09-.34.16-.69.22-1.04.03-.16.07-.31.09-.47.06-.35.09-.7.12-1.05.02-.16.04-.32.05-.49.02-.32.02-.64.02-.96,0-.2,0-.4,0-.61,0-.27-.04-.53-.06-.8-.02-.25-.04-.51-.07-.76-.03-.21-.07-.42-.11-.63-.05-.3-.1-.61-.17-.91-.04-.17-.09-.34-.14-.51-.09-.33-.18-.66-.29-.98-.06-.16-.12-.32-.19-.48-.12-.32-.24-.64-.38-.95-.1-.22-.21-.43-.32-.64-.12-.24-.24-.49-.37-.73-.22-.39-.47-.77-.73-1.15-.04-.05-.06-.11-.1-.16-.32-.46-.67-.9-1.05-1.33-11.8-13.52-20.3-30.36-24.87-48.78l138.77,80.12c-18.3,5.27-37.2,6.31-54.86,2.82ZM392.67,255.43c-12.19,21.12-28.67,38.56-48.2,51.16l-178.19-102.88c1.15-23.21,8.01-46.2,20.21-67.32,37.47-64.91,114.21-91.01,171.05-58.19,27.23,15.72,45.97,42.58,52.78,75.65,6.95,33.76.68,69.84-17.64,101.58Z"/><circle cx="264" cy="136" r="40"/></svg>