<?xml version="1.0" encoding="UTF-8"?><svg id="Icon" xmlns="http://www.w3.org/2000/svg" viewBox="0 0 512 512"><path d="M226.36,432.5s.05.05.07.08c10.28,10.27,23.77,15.4,37.27,15.4s27.02-5.15,37.3-15.43l131.68-131.68s.02-.02.03-.03c20.38-20.5,20.38-53.85-.03-74.38l-157.76-157.76c-3-3-7.07-4.69-11.31-4.69H79.95c-8.84,0-16,7.16-16,16v183.65c0,4.25,1.69,8.32,4.69,11.32l157.71,157.53ZM95.95,96h161.03l153.04,153.04c8.01,8.06,8.01,21.16,0,29.22l-131.66,131.66c-8.07,8.08-21.2,8.09-29.28.06-.02-.02-.05-.05-.07-.07l-153.07-152.89V96Z"/><circle cx="170.23" cy="170.23" r="22.57" transform="translate(-34.56 43.67) rotate(-13.28)"/></svg>