<?xml version="1.0" encoding="UTF-8"?><svg id="Icon" xmlns="http://www.w3.org/2000/svg" viewBox="0 0 512 512"><path d="M408.53,198.4h-11.84v-27.2c0-8.84-7.16-16-16-16h-50.62c-8.84,0-16,7.16-16,16v27.2h-16.32v-27.2c0-8.84-7.16-16-16-16h-50.62c-8.84,0-16,7.16-16,16v27.2h-17.19v-27.2c0-8.84-7.16-16-16-16h-50.62c-8.84,0-16,7.16-16,16v27.2h-11.84c-8.84,0-16,7.16-16,16v194.13c0,8.84,7.16,16,16,16h305.07c8.84,0,16-7.16,16-16v-194.13c0-8.84-7.16-16-16-16ZM346.07,187.2h18.62v11.2h-18.62v-11.2ZM247.12,187.2h18.62v11.2h-18.62v-11.2ZM147.31,187.2h18.62v11.2h-18.62v-11.2ZM392.53,392.53H119.47v-162.13h273.07v162.13Z"/><path d="M229.52,326.84h22.62l-20.48,30.17c-4.96,7.31-3.06,17.26,4.25,22.22,2.75,1.87,5.88,2.76,8.97,2.76,5.12,0,10.16-2.46,13.25-7.01l37.44-55.15c3.33-4.9,3.67-11.24.9-16.48-2.77-5.24-8.21-8.51-14.14-8.51h-23.85l18.33-29.12c4.71-7.48,2.46-17.36-5.02-22.06-7.48-4.7-17.36-2.46-22.06,5.02l-33.76,53.65c-3.1,4.93-3.28,11.16-.46,16.26s8.18,8.27,14.01,8.27Z"/><path d="M179.73,118.99h-46.22c-8.84,0-16,7.16-16,16s7.16,16,16,16h46.22c8.84,0,16-7.16,16-16s-7.16-16-16-16Z"/><path d="M233.32,150.99h46.22c8.84,0,16-7.16,16-16s-7.16-16-16-16h-46.22c-8.84,0-16,7.16-16,16s7.16,16,16,16Z"/><path d="M233.32,114.01h46.22c8.84,0,16-7.16,16-16s-7.16-16-16-16h-7.54v-34.01c0-8.84-7.16-16-16-16s-16,7.16-16,16v34.01h-6.68c-8.84,0-16,7.16-16,16s7.16,16,16,16Z"/><path d="M332.27,150.99h46.22c8.84,0,16-7.16,16-16s-7.16-16-16-16h-46.22c-8.84,0-16,7.16-16,16s7.16,16,16,16Z"/><path d="M140.62,64v18.01h-7.11c-8.84,0-16,7.16-16,16s7.16,16,16,16h46.22c8.84,0,16-7.16,16-16s-7.16-16-16-16h-7.11v-34.01c0-8.84-7.16-16-16-16h-67.02c-8.84,0-16,7.16-16,16s7.16,16,16,16h51.02Z"/><path d="M422.4,32h-67.02c-8.84,0-16,7.16-16,16v34.01h-7.11c-8.84,0-16,7.16-16,16s7.16,16,16,16h46.22c8.84,0,16-7.16,16-16s-7.16-16-16-16h-7.11v-18.01h51.02c8.84,0,16-7.16,16-16s-7.16-16-16-16Z"/><path d="M145.07,448h-41.6c-8.84,0-16,7.16-16,16s7.16,16,16,16h41.6c8.84,0,16-7.16,16-16s-7.16-16-16-16Z"/><path d="M320.71,448h-41.6c-8.84,0-16,7.16-16,16s7.16,16,16,16h41.6c8.84,0,16-7.16,16-16s-7.16-16-16-16Z"/><path d="M232.89,448h-41.6c-8.84,0-16,7.16-16,16s7.16,16,16,16h41.6c8.84,0,16-7.16,16-16s-7.16-16-16-16Z"/><path d="M408.53,448h-41.6c-8.84,0-16,7.16-16,16s7.16,16,16,16h41.6c8.84,0,16-7.16,16-16s-7.16-16-16-16Z"/></svg>