<?xml version="1.0" encoding="UTF-8"?><svg id="Icon" xmlns="http://www.w3.org/2000/svg" viewBox="0 0 512 512"><path d="M154.69,280.94l56.25,56.25c3.12,3.12,7.22,4.69,11.31,4.69s8.19-1.56,11.31-4.69l123.75-123.75c6.25-6.25,6.25-16.38,0-22.63-6.25-6.25-16.38-6.25-22.63,0l-112.44,112.44-44.94-44.94c-6.25-6.25-16.38-6.25-22.63,0-6.25,6.25-6.25,16.38,0,22.63Z"/><path d="M72.01,157.6c2.67,1.71,5.65,2.52,8.6,2.52,5.28,0,10.44-2.61,13.5-7.38,14.16-22.16,32.38-40.89,54.14-55.67,7.31-4.97,9.21-14.92,4.24-22.23-4.96-7.31-14.92-9.21-22.23-4.24-25.37,17.23-46.6,39.07-63.12,64.9-4.76,7.45-2.58,17.34,4.86,22.1Z"/><path d="M148.31,414.98c-21.77-14.77-39.99-33.5-54.17-55.65-4.76-7.44-14.66-9.61-22.1-4.85-7.44,4.76-9.62,14.66-4.85,22.1,16.52,25.82,37.77,47.65,63.15,64.88,2.75,1.87,5.88,2.76,8.97,2.76,5.12,0,10.16-2.46,13.25-7.02,4.96-7.31,3.06-17.26-4.25-22.22Z"/><path d="M67.93,294.87c-2.61-12.7-3.93-25.78-3.93-38.87s1.32-26.11,3.92-38.79c1.77-8.66-3.8-17.11-12.46-18.89-8.66-1.78-17.11,3.8-18.89,12.46-3.03,14.79-4.57,30-4.57,45.22s1.54,30.5,4.59,45.31c1.56,7.57,8.22,12.78,15.66,12.78,1.07,0,2.15-.11,3.24-.33,8.66-1.78,14.23-10.24,12.45-18.89Z"/><path d="M414.39,97.61c-42.31-42.31-98.56-65.61-158.39-65.61-17.3,0-34.54,1.98-51.23,5.89-8.6,2.01-13.95,10.62-11.93,19.23,1.73,7.38,8.3,12.36,15.57,12.36,1.21,0,2.43-.14,3.66-.42,14.31-3.35,29.1-5.05,43.94-5.05,105.87,0,192,86.13,192,192s-86.13,192-192,192c-14.85,0-29.63-1.7-43.94-5.05-8.6-2.01-17.21,3.33-19.23,11.93-2.01,8.6,3.33,17.21,11.93,19.23,16.7,3.91,33.94,5.89,51.23,5.89,59.83,0,116.08-23.3,158.39-65.61,42.31-42.31,65.61-98.56,65.61-158.39s-23.3-116.08-65.61-158.39Z"/></svg>