<?xml version="1.0" encoding="UTF-8"?><svg id="Icon" xmlns="http://www.w3.org/2000/svg" viewBox="0 0 512 512"><path d="M309.38,192c0,31.22-25.4,56.62-56.62,56.62s-56.62-25.4-56.62-56.62c0-8.84-7.16-16-16-16s-16,7.16-16,16c0,48.86,39.75,88.62,88.62,88.62s88.62-39.75,88.62-88.62c0-8.84-7.16-16-16-16s-16,7.16-16,16Z"/><path d="M156.33,160h192.88c8.84,0,16-7.16,16-16s-7.16-16-16-16h-8.87c-5.71-36.84-34.19-66.25-70.55-73.35-.93-7.95-7.68-14.13-15.88-14.13s-14.7,5.96-15.82,13.7c-37.48,6.28-67.06,36.15-72.89,73.77h-8.87c-8.84,0-16,7.16-16,16s7.16,16,16,16ZM237.9,87v3.56c0,8.84,7.16,16,16,16s16-7.16,16-16v-2.9c18.62,5.92,33.08,21.23,37.82,40.34h-109.9c4.93-19.88,20.38-35.64,40.08-41Z"/><path d="M96.95,393.6c.78-.52,78.44-52.17,160.15-52.17,49.81,0,89.6,13.81,114.21,25.39,26.9,12.66,42.12,25.53,42.24,25.63,3.02,2.61,6.74,3.88,10.44,3.88,4.49,0,8.96-1.88,12.12-5.55,5.77-6.69,5.02-16.8-1.67-22.57-2.78-2.4-69.43-58.78-177.35-58.78-91.69,0-174.57,55.29-178.06,57.64-7.32,4.94-9.24,14.88-4.3,22.2,4.94,7.32,14.88,9.25,22.21,4.32Z"/></svg>