<?xml version="1.0" encoding="UTF-8"?><svg id="Icon" xmlns="http://www.w3.org/2000/svg" viewBox="0 0 512 512"><path d="M240,480c55.53,0,100.71-45.18,100.71-100.71,0-37.28-20.27-70.91-52.48-88.42V80.24c0-26.6-21.64-48.24-48.24-48.24s-48.24,21.64-48.24,48.24v210.63c-32.2,17.52-52.48,51.14-52.48,88.42,0,55.53,45.18,100.71,100.71,100.71ZM213.86,315.74c5.99-2.47,9.91-8.31,9.91-14.79V80.24c0-8.95,7.28-16.24,16.24-16.24s16.24,7.28,16.24,16.24v220.71c0,6.48,3.91,12.32,9.91,14.79,25.86,10.65,42.57,35.6,42.57,63.55,0,37.89-30.82,68.71-68.71,68.71s-68.71-30.82-68.71-68.71c0-27.95,16.71-52.9,42.57-63.55Z"/><path d="M336,96h32c8.84,0,16-7.16,16-16s-7.16-16-16-16h-32c-8.84,0-16,7.16-16,16s7.16,16,16,16Z"/><path d="M336,144h96c8.84,0,16-7.16,16-16s-7.16-16-16-16h-96c-8.84,0-16,7.16-16,16s7.16,16,16,16Z"/><path d="M336,192h32c8.84,0,16-7.16,16-16s-7.16-16-16-16h-32c-8.84,0-16,7.16-16,16s7.16,16,16,16Z"/><path d="M336,240h96c8.84,0,16-7.16,16-16s-7.16-16-16-16h-96c-8.84,0-16,7.16-16,16s7.16,16,16,16Z"/></svg>