<?xml version="1.0" encoding="UTF-8"?><svg id="Icon" xmlns="http://www.w3.org/2000/svg" viewBox="0 0 512 512"><path d="M338.47,267.31c6.25-6.25,6.25-16.38,0-22.63l-64-64c-6.25-6.25-16.38-6.25-22.63,0-6.25,6.25-6.25,16.38,0,22.63l52.69,52.69-52.69,52.69c-6.25,6.25-6.25,16.38,0,22.63,3.12,3.12,7.22,4.69,11.31,4.69s8.19-1.56,11.31-4.69l64-64Z"/><path d="M189.13,180.69c-6.25-6.25-16.38-6.25-22.63,0l-64,64c-6.25,6.25-6.25,16.38,0,22.63l64,64c3.12,3.12,7.22,4.69,11.31,4.69s8.19-1.56,11.31-4.69c6.25-6.25,6.25-16.38,0-22.63l-52.69-52.69,52.69-52.69c6.25-6.25,6.25-16.38,0-22.63Z"/><path d="M432,96H80c-26.47,0-48,21.53-48,48v224c0,26.47,21.53,48,48,48h272c4.24,0,8.31-1.69,11.31-4.69l112-112c3-3,4.69-7.07,4.69-11.31v-144c0-26.47-21.53-48-48-48ZM64,368v-224c0-8.82,7.18-16,16-16h352c8.82,0,16,7.18,16,16v128h-96c-8.84,0-16,7.16-16,16v96H80c-8.82,0-16-7.18-16-16ZM425.37,304l-57.37,57.37v-57.37h57.37Z"/></svg>