<?xml version="1.0" encoding="UTF-8"?><svg id="Icon" xmlns="http://www.w3.org/2000/svg" viewBox="0 0 512 512"><path d="M145.07,345.96c-4.09,0-8.19-1.56-11.31-4.69-6.25-6.25-6.25-16.38,0-22.63l62.64-62.64-62.64-62.64c-6.25-6.25-6.25-16.38,0-22.63,6.25-6.25,16.38-6.25,22.63,0l73.96,73.96c6.25,6.25,6.25,16.38,0,22.63l-73.96,73.96c-3.12,3.12-7.22,4.69-11.31,4.69Z"/><path d="M464,416H48c-8.84,0-16-7.16-16-16V112c0-8.84,7.16-16,16-16h416c8.84,0,16,7.16,16,16v288c0,8.84-7.16,16-16,16ZM64,384h384V128H64v256Z"/><path d="M384,336.46h-128c-8.84,0-16-7.16-16-16s7.16-16,16-16h128c8.84,0,16,7.16,16,16s-7.16,16-16,16Z"/></svg>