<?xml version="1.0" encoding="UTF-8"?><svg id="Icon" xmlns="http://www.w3.org/2000/svg" viewBox="0 0 512 512"><path d="M351.24,107.43v-39.62c0-19.75-16.06-35.81-35.81-35.81h-118.86c-19.75,0-35.81,16.06-35.81,35.81v39.62c0,19.75,16.06,35.81,35.81,35.81h118.86c19.75,0,35.81-16.06,35.81-35.81ZM192.76,107.43v-39.62c0-2.1,1.71-3.81,3.81-3.81h118.86c2.1,0,3.81,1.71,3.81,3.81v39.62c0,2.1-1.71,3.81-3.81,3.81h-118.86c-2.1,0-3.81-1.71-3.81-3.81Z"/><path d="M243.37,179.47c-6.71-5.75-16.81-4.97-22.56,1.74l-48.46,56.54-20.94-19.91c-6.4-6.09-16.53-5.83-22.62.57-6.09,6.4-5.83,16.53.57,22.62l33.15,31.51c2.98,2.83,6.93,4.4,11.02,4.4.27,0,.54,0,.82-.02,4.38-.22,8.48-2.24,11.33-5.57l59.43-69.33c5.75-6.71,4.97-16.81-1.74-22.56Z"/><path d="M364.95,207.81h-66.86c-8.84,0-16,7.16-16,16s7.16,16,16,16h66.86c8.84,0,16-7.16,16-16s-7.16-16-16-16Z"/><path d="M406.44,61.71h-21.68c-8.84,0-16,7.16-16,16s7.16,16,16,16h21.14v354.29H106.1V93.71h21.14c8.84,0,16-7.16,16-16s-7.16-16-16-16h-21.68c-17.35,0-31.46,14.11-31.46,31.46v355.36c0,17.35,14.11,31.46,31.46,31.46h300.88c17.35,0,31.46-14.11,31.46-31.46V93.18c0-17.35-14.11-31.46-31.46-31.46Z"/><path d="M243.37,308.23c-6.71-5.75-16.81-4.97-22.56,1.74l-48.46,56.54-20.94-19.91c-6.4-6.09-16.53-5.83-22.62.57-6.09,6.4-5.83,16.53.57,22.62l33.15,31.51c2.98,2.83,6.93,4.4,11.02,4.4.27,0,.54,0,.82-.02,4.38-.22,8.48-2.24,11.33-5.57l59.43-69.33c5.75-6.71,4.97-16.81-1.74-22.56Z"/><path d="M364.95,336.57h-66.86c-8.84,0-16,7.16-16,16s7.16,16,16,16h66.86c8.84,0,16-7.16,16-16s-7.16-16-16-16Z"/></svg>