<?xml version="1.0" encoding="UTF-8"?><svg id="Icon" xmlns="http://www.w3.org/2000/svg" viewBox="0 0 512 512"><path d="M422.63,352l20.69-20.69c6.25-6.25,6.25-16.38,0-22.63-6.25-6.25-16.38-6.25-22.63,0l-20.69,20.69-20.69-20.69c-6.25-6.25-16.38-6.25-22.63,0-6.25,6.25-6.25,16.38,0,22.63l20.69,20.69-20.69,20.69c-6.25,6.25-6.25,16.38,0,22.63,3.12,3.12,7.22,4.69,11.31,4.69s8.19-1.56,11.31-4.69l20.69-20.69,20.69,20.69c3.12,3.12,7.22,4.69,11.31,4.69s8.19-1.56,11.31-4.69c6.25-6.25,6.25-16.38,0-22.63l-20.69-20.69Z"/><path d="M368,232.04c8.84,0,16-7.16,16-16v-103.59c0-26.47-21.53-48-48-48H112c-26.47,0-48,21.53-48,48v239.1c0,8.84,7.16,16,16,16h65.03c8.84,0,16-7.16,16-16s-7.16-16-16-16h-49.03V112.45c0-8.82,7.18-16,16-16h224c8.82,0,16,7.18,16,16v103.59c0,8.84,7.16,16,16,16Z"/><path d="M321,255.08c-5.54-2.66-12.12-1.92-16.93,1.93l-54.55,43.64h-41.53c-8.84,0-16,7.16-16,16v70.72c0,8.84,7.16,16,16,16h41.53l54.55,43.64c2.89,2.31,6.43,3.51,10,3.51,2.35,0,4.72-.52,6.93-1.58,5.54-2.66,9.07-8.27,9.07-14.42v-165c0-6.15-3.53-11.76-9.07-14.42ZM298.07,401.21l-32.93-26.35c-2.84-2.27-6.36-3.51-10-3.51h-31.14v-38.72h31.14c3.63,0,7.16-1.24,10-3.51l32.93-26.35v98.42Z"/><path d="M316.9,134.13h-185.81c-8.84,0-16,7.16-16,16s7.16,16,16,16h185.81c8.84,0,16-7.16,16-16s-7.16-16-16-16Z"/><path d="M256.64,212.09c0-8.84-7.16-16-16-16h-107.2c-8.84,0-16,7.16-16,16s7.16,16,16,16h107.2c8.84,0,16-7.16,16-16Z"/></svg>