<?xml version="1.0" encoding="UTF-8"?><svg id="Icon" xmlns="http://www.w3.org/2000/svg" viewBox="0 0 512 512"><path d="M126.2,146.55l12.65,12.1c3.3,3.3,7.15,5.22,11.55,5.78,4.4.55,7.97-.55,10.72-3.3s3.85-6.32,3.3-10.72c-.55-4.4-2.47-8.25-5.77-11.55l-12.1-12.65c-3.67-3.3-7.7-5.22-12.1-5.77-4.4-.55-7.98.55-10.73,3.3-2.75,2.75-3.85,6.33-3.3,10.72.55,4.4,2.48,8.44,5.78,12.1Z"/><path d="M256,132.8c4.03,0,7.42-1.74,10.17-5.23,2.75-3.48,4.12-7.61,4.12-12.38v-17.6c0-4.76-1.38-8.88-4.12-12.38-2.75-3.48-6.15-5.23-10.17-5.23s-7.42,1.75-10.17,5.23c-2.75,3.49-4.12,7.61-4.12,12.38v17.6c0,4.77,1.38,8.89,4.12,12.38,2.75,3.49,6.13,5.23,10.17,5.23Z"/><path d="M132.25,256c0-4.03-1.65-7.42-4.95-10.17s-7.34-4.12-12.1-4.12h-17.6c-4.77,0-8.89,1.38-12.38,4.12-3.48,2.75-5.22,6.14-5.22,10.17s1.74,7.43,5.22,10.18c3.48,2.75,7.61,4.12,12.38,4.12h17.6c4.76,0,8.8-1.37,12.1-4.12,3.3-2.75,4.95-6.14,4.95-10.18Z"/><path d="M361.6,164.43c4.4-.55,8.25-2.48,11.55-5.78l12.65-12.1c3.3-3.66,5.23-7.7,5.78-12.1.55-4.4-.55-7.97-3.3-10.72-2.75-2.75-6.33-3.85-10.73-3.3-4.4.55-8.25,2.47-11.55,5.77l-12.65,12.65c-3.3,3.3-5.22,7.15-5.77,11.55-.55,4.4.55,7.97,3.3,10.72s6.33,3.85,10.72,3.3Z"/><path d="M379.75,256c0,4.04,1.65,7.43,4.95,10.18,3.3,2.75,7.51,4.12,12.65,4.12h17.05c4.76,0,8.88-1.37,12.38-4.12,3.48-2.75,5.22-6.14,5.22-10.18s-1.74-7.42-5.22-10.17c-3.49-2.75-7.62-4.12-12.38-4.12h-17.05c-5.14,0-9.35,1.38-12.65,4.12s-4.95,6.14-4.95,10.17Z"/><path d="M324.47,187.53c-18.89-18.88-41.71-28.33-68.47-28.33s-49.6,9.44-68.47,28.33c-18.89,18.89-28.33,41.71-28.33,68.47s9.43,49.6,28.33,68.48c18.88,18.89,41.7,28.33,68.47,28.33s49.59-9.44,68.47-28.33c18.88-18.88,28.33-41.71,28.33-68.48s-9.44-49.59-28.33-68.47ZM305.78,305.78c-13.75,13.75-30.35,20.62-49.78,20.62s-36.03-6.88-49.78-20.62-20.62-30.34-20.62-49.78,6.88-36.02,20.62-49.77c13.75-13.75,30.34-20.62,49.78-20.62s36.03,6.87,49.78,20.62c13.75,13.75,20.62,30.35,20.62,49.77s-6.88,36.03-20.62,49.78Z"/><path d="M256,379.2c-4.04,0-7.42,1.75-10.17,5.23-2.75,3.49-4.12,7.61-4.12,12.37v17.6c0,4.76,1.38,8.88,4.12,12.38,2.75,3.48,6.13,5.22,10.17,5.22s7.42-1.74,10.17-5.22c2.75-3.49,4.12-7.62,4.12-12.38v-17.6c0-4.76-1.38-8.89-4.12-12.37-2.75-3.48-6.15-5.23-10.17-5.23Z"/><path d="M150.4,347.58c-4.4.55-8.25,2.48-11.55,5.78l-12.65,12.1c-3.3,3.67-5.23,7.7-5.78,12.1-.55,4.4.55,7.97,3.3,10.72s6.33,3.85,10.73,3.3c4.4-.55,8.25-2.47,11.55-5.77l12.65-12.65c3.3-3.3,5.22-7.15,5.77-11.55.55-4.4-.55-7.98-3.3-10.73s-6.33-3.85-10.72-3.3Z"/><path d="M447.36,410.06l-40-100c-2.43-6.07-8.31-10.06-14.86-10.06s-12.43,3.98-14.86,10.06l-40,100c-3.28,8.21.71,17.52,8.91,20.8,8.21,3.28,17.52-.71,20.8-8.91l5.58-13.94h39.14l5.58,13.94c2.5,6.26,8.51,10.06,14.86,10.06,1.98,0,3.99-.37,5.94-1.15,8.2-3.28,12.19-12.59,8.91-20.8ZM385.73,376l6.77-16.92,6.77,16.92h-13.54Z"/></svg>