<?xml version="1.0" encoding="UTF-8"?><svg id="Icon" xmlns="http://www.w3.org/2000/svg" viewBox="0 0 512 512"><path d="M404.84,64.06h-27.97v221.46h27.97c23.75,0,43.07-19.32,43.07-43.07V107.13c0-23.75-19.32-43.07-43.07-43.07Z"/><path d="M344.86,64.06h-201.28c-20.67,0-38.42,14.7-42.3,34.98l-35.98,169.46c-.03.13-.05.27-.08.4-2.4,12.91,1.3,26.78,9.88,37.11,8.24,9.92,20.07,15.6,32.46,15.6h91.81v52.84c-.33,5.65-.88,33.22,17.89,53.53,12.32,13.33,29.6,20.08,51.37,20.08h.02c6.54,0,12.41-3.98,14.85-10.04l61.18-152.5h.18V64.06Z"/></svg>