<?xml version="1.0" encoding="UTF-8"?><svg id="Icon" xmlns="http://www.w3.org/2000/svg" viewBox="0 0 512 512"><path d="M404.84,64.06H143.59c-20.67,0-38.42,14.7-42.3,34.98l-35.98,169.46c-.03.13-.05.27-.08.4-2.4,12.91,1.3,26.78,9.88,37.11,8.24,9.92,20.07,15.6,32.46,15.6h91.81v52.84c-.33,5.65-.88,33.22,17.89,53.53,12.32,13.33,29.6,20.08,51.37,20.08h.02c6.54,0,12.41-3.98,14.85-10.04l61.18-152.5h60.15c23.75,0,43.07-19.32,43.07-43.07V107.13c0-23.75-19.32-43.07-43.07-43.07ZM258.18,415.19c-7.33-1.35-13.04-4.26-17.3-8.81-10.4-11.11-9.61-29.16-9.55-30.2.04-.45.04-.74.04-1.21v-69.37c0-8.84-7.16-16-16-16h-107.81c-3.89,0-6.59-2.54-7.85-4.06-2.54-3.06-3.68-7.02-3.06-10.65l35.97-169.39c.03-.13.05-.27.08-.4.97-5.24,5.55-9.04,10.88-9.04h174.28v170.37l-59.68,148.76ZM415.9,242.46c0,6.1-4.96,11.07-11.07,11.07h-54.97V96.06h54.97c6.1,0,11.07,4.96,11.07,11.07v135.33Z"/></svg>