<?xml version="1.0" encoding="UTF-8"?><svg id="Icon" xmlns="http://www.w3.org/2000/svg" viewBox="0 0 512 512"><path d="M136,226.48h-28.84c-23.75,0-43.07,19.32-43.07,43.07v135.33c0,23.75,19.32,43.07,43.07,43.07h28.84v-221.46Z"/><path d="M436.89,205.99c-8.24-9.92-20.07-15.6-32.46-15.6h-91.81v-52.84c.33-5.65.88-33.22-17.89-53.53-12.32-13.33-29.6-20.09-51.37-20.09h-.02c-6.54,0-12.41,3.98-14.85,10.04l-60.5,150.8v223.16h200.41c20.67,0,38.42-14.7,42.3-34.98l35.98-169.46c.03-.13.05-.27.08-.4,2.4-12.91-1.3-26.78-9.88-37.11Z"/></svg>