<?xml version="1.0" encoding="UTF-8"?><svg id="Icon" xmlns="http://www.w3.org/2000/svg" viewBox="0 0 512 512"><path d="M420.23,103.63c-38.33-41.31-90.27-66.51-146.25-70.96-1.49-.12-2.95-.01-4.35.26-8.5.38-15.28,7.37-15.28,15.96v76.01c0,8.84,7.16,16,16,16s16-7.16,16-16v-58.55c42.22,6.71,81,27.33,110.42,59.04,33.03,35.6,51.22,81.97,51.22,130.56,0,105.87-86.13,192-192,192s-192-86.13-192-192c0-47.65,17.58-93.35,49.49-128.67,5.92-6.56,5.41-16.67-1.15-22.6-6.56-5.92-16.67-5.41-22.6,1.15-37.24,41.22-57.75,94.53-57.75,150.12,0,59.83,23.3,116.08,65.61,158.39s98.56,65.61,158.39,65.61,116.08-23.3,158.39-65.61c42.31-42.31,65.61-98.56,65.61-158.39,0-56.69-21.23-110.79-59.77-152.33Z"/><path d="M221.11,243.69c-1.35,3.84-2.09,7.96-2.09,12.26,0,20.42,16.56,36.98,36.98,36.98s36.98-16.56,36.98-36.98-16.56-36.98-36.98-36.98c-4.3,0-8.42.74-12.26,2.09l-68.87-68.87c-6.25-6.25-16.38-6.25-22.63,0-6.25,6.25-6.25,16.38,0,22.63l68.87,68.87Z"/></svg>