<?xml version="1.0" encoding="UTF-8"?><svg id="Icon" xmlns="http://www.w3.org/2000/svg" viewBox="0 0 512 512"><path d="M145.44,157.64c-7.54,0-21.63,3.25-31.34,25.01-5.36,12.02-8.32,27.65-8.32,44.01s2.95,31.99,8.32,44.01c9.71,21.76,23.8,25.01,31.34,25.01s21.63-3.25,31.34-25.01c5.36-12.02,8.32-27.65,8.32-44.01s-2.95-31.99-8.32-44.01c-9.71-21.76-23.8-25.01-31.34-25.01ZM145.44,261.67c-3.14-4.93-7.66-16.58-7.66-35s4.52-30.08,7.66-35c3.14,4.93,7.66,16.58,7.66,35s-4.52,30.08-7.66,35Z"/><path d="M427.45,116.44c-15.09-33.82-36.71-52.44-60.88-52.44h-221.13c-24.17,0-45.79,18.62-60.88,52.44-13.25,29.71-20.55,68.86-20.55,110.23s7.3,80.52,20.55,110.23c15.09,33.82,36.71,52.44,60.88,52.44,18.59,0,35.67-11.03,49.44-31.51v74.17c0,8.84,7.16,16,16,16h221.13c8.84,0,16-7.16,16-16v-205.33c0-41.37-7.3-80.52-20.55-110.23ZM177.09,323.86c-9.35,20.96-21.19,33.48-31.66,33.48s-22.31-12.51-31.66-33.48c-11.46-25.7-17.78-60.21-17.78-97.19s6.31-71.5,17.78-97.19c9.35-20.96,21.19-33.48,31.66-33.48s22.31,12.51,31.66,33.48c11.46,25.7,17.78,60.21,17.78,97.19s-6.31,71.49-17.78,97.19ZM416,416h-189.13v-189.33c0-41.37-7.3-80.52-20.55-110.23-3.39-7.59-7.11-14.42-11.11-20.44h171.36c10.47,0,22.31,12.51,31.66,33.48,11.46,25.7,17.78,60.21,17.78,97.19v189.33Z"/></svg>