<?xml version="1.0" encoding="UTF-8"?><svg id="Icon" xmlns="http://www.w3.org/2000/svg" viewBox="0 0 512 512"><path d="M369.76,146h-13.14v-10.45c0-16.12-13.11-29.23-29.23-29.23h-52.9c-16.12,0-29.23,13.11-29.23,29.23v10.45h-42.4v-10.45c0-16.12-13.11-29.23-29.23-29.23h-52.9c-16.12,0-29.23,13.11-29.23,29.23v10.45h-27.52v-53.44c0-8.84-7.16-16-16-16s-16,7.16-16,16v324.86c0,8.84,7.16,16,16,16s16-7.16,16-16v-50.96h27.52v10.45c0,16.12,13.11,29.23,29.23,29.23h52.9c16.12,0,29.23-13.11,29.23-29.23v-10.45h42.4v10.45c0,16.12,13.11,29.23,29.23,29.23h52.9c16.12,0,29.23-13.11,29.23-29.23v-10.45h13.14c60.78,0,110.24-49.45,110.24-110.24s-49.45-110.24-110.24-110.24ZM277.27,138.33h47.36v47.36h-47.36v-47.36ZM123.52,138.33h47.36v47.36h-47.36v-47.36ZM170.87,374.15h-47.36v-47.36h47.36v47.36ZM324.63,374.15h-47.36v-47.36h47.36v47.36ZM369.76,334.48h-13.14v-10.45c0-16.12-13.11-29.23-29.23-29.23h-52.9c-16.12,0-29.23,13.11-29.23,29.23v10.45h-42.4v-10.45c0-16.12-13.11-29.23-29.23-29.23h-52.9c-16.12,0-29.23,13.11-29.23,29.23v10.45h-27.52v-156.47h27.52v10.45c0,16.12,13.11,29.23,29.23,29.23h52.9c16.12,0,29.23-13.11,29.23-29.23v-10.45h42.4v10.45c0,16.12,13.11,29.23,29.23,29.23h52.9c16.12,0,29.23-13.11,29.23-29.23v-10.45h13.14c43.14,0,78.24,35.1,78.24,78.24s-35.1,78.24-78.24,78.24Z"/></svg>