<?xml version="1.0" encoding="UTF-8"?><svg id="Icon" xmlns="http://www.w3.org/2000/svg" viewBox="0 0 512 512"><path d="M451.67,203.18h-49.3c-15.62,0-28.33,12.71-28.33,28.33v8.65h-37.33v-8.65c0-15.62-12.71-28.33-28.33-28.33h-49.3c-15.62,0-28.33,12.71-28.33,28.33v8.65h-37.33v-8.65c0-15.62-12.71-28.33-28.33-28.33h-49.3c-15.62,0-28.33,12.71-28.33,28.33v8.65h-23.47V103.62c0-8.84-7.16-16-16-16s-16,7.16-16,16v302.76c0,8.84,7.16,16,16,16s16-7.16,16-16v-134.22h23.47v8.65c0,15.62,12.71,28.33,28.33,28.33h49.3c15.62,0,28.33-12.71,28.33-28.33v-8.65h37.33v8.65c0,15.62,12.71,28.33,28.33,28.33h49.3c15.62,0,28.33-12.71,28.33-28.33v-8.65h37.33v8.65c0,15.62,12.71,28.33,28.33,28.33h49.3c15.62,0,28.33-12.71,28.33-28.33v-49.3c0-15.62-12.71-28.33-28.33-28.33ZM161.42,277.13h-41.96v-41.96h41.96v41.96ZM304.71,277.13h-41.96v-41.96h41.96v41.96ZM448,277.13h-41.96v-41.96h41.96v41.96Z"/></svg>