<?xml version="1.0" encoding="UTF-8"?><svg id="Icon" xmlns="http://www.w3.org/2000/svg" viewBox="0 0 512 512"><path d="M436,416h-102.2c11.11-9.4,18.51-23.04,19.69-38.39,19.09-.02,33.3-.03,39.6-.03,20.27,0,30.68-8.35,35.84-15.36,11.3-15.33,5.8-34.57,5.13-36.71l-.24-.72c-.19-.53-19.4-53.4-41.12-110.5-13.28-34.91-35.98-51.12-52.68-58.58-17.22-7.68-31.69-7.87-34.48-7.81h-48.85l23.75-18.11c3.97-3.03,6.3-7.73,6.3-12.72s-2.33-9.7-6.3-12.72l-58.97-44.97c-5.73-4.37-13.67-4.37-19.4,0l-58.97,44.97c-3.97,3.03-6.3,7.73-6.3,12.72s2.33,9.7,6.3,12.72l23.75,18.11h-90.84c-8.84,0-16,7.16-16,16s7.16,16,16,16h229.79s.34,0,.34,0h.03c2.14,0,24.25.52,42.15,20.99h-59.59c-8.84,0-16,7.16-16,16v72.55c0,8.84,7.16,16,16,16h103.93c5.91,16.04,9.92,27.04,10.88,29.67.61,2.47.77,6.65-.37,8.14-.65.86-3.51,2.32-10.06,2.32-35,0-314.29.31-317.11.31-8.84,0-15.99,7.18-15.98,16.02,0,8.83,7.17,15.98,16,15.98h.02c.56,0,12.01-.01,30.26-.03,1.18,15.22,8.46,28.75,19.41,38.14h-49.68c-8.84,0-16,7.16-16,16s7.16,16,16,16h360c8.84,0,16-7.16,16-16s-7.16-16-16-16ZM211.76,92.22l32.59,24.85-32.59,24.85-32.59-24.85,32.59-24.85ZM304.72,273.45v-40.55h60.82c5.37,14.16,10.54,27.93,15.24,40.55h-76.06ZM297.68,397.26c-11.72,0-21.5-8.45-23.58-19.57,16.55-.02,32.53-.03,47.18-.05-2.07,11.15-11.85,19.62-23.59,19.62ZM185.7,377.77c-2.02,11.2-11.84,19.73-23.61,19.73s-21.56-8.5-23.6-19.68c14.33-.02,30.36-.03,47.21-.05ZM217.92,377.74c7.95,0,15.97-.02,23.96-.02,1.21,15.31,8.6,28.91,19.68,38.28h-63.06c10.97-9.42,18.27-22.99,19.41-38.26Z"/></svg>