<?xml version="1.0" encoding="UTF-8"?><svg id="Icon" xmlns="http://www.w3.org/2000/svg" viewBox="0 0 512 512"><path d="M404.92,226.46h-11.19v-26.18c0-8.84-7.16-16-16-16h-49.42c-8.84,0-16,7.16-16,16v26.18h-15.18v-26.18c0-8.84-7.16-16-16-16h-49.42c-8.84,0-16,7.16-16,16v26.18h-16.03v-26.18c0-8.84-7.16-16-16-16h-49.42c-8.84,0-16,7.16-16,16v26.18h-11.19c-8.84,0-16,7.16-16,16v189.54c0,8.84,7.16,16,16,16h297.85c8.84,0,16-7.16,16-16v-189.54c0-8.84-7.16-16-16-16ZM344.31,216.28h17.42v10.18h-17.42v-10.18ZM247.71,216.28h17.42v10.18h-17.42v-10.18ZM150.26,216.28h17.42v10.18h-17.42v-10.18ZM388.92,416H123.08v-157.54h265.85v157.54Z"/><path d="M230.14,352.62h21.37l-19.59,28.86c-4.96,7.31-3.06,17.26,4.25,22.22,2.75,1.87,5.88,2.76,8.97,2.76,5.12,0,10.16-2.46,13.25-7.01l36.56-53.85c3.33-4.9,3.67-11.24.9-16.48-2.77-5.24-8.21-8.51-14.14-8.51h-22.6l17.53-27.85c4.71-7.48,2.46-17.36-5.02-22.06-7.48-4.71-17.36-2.46-22.06,5.02l-32.96,52.38c-3.1,4.93-3.28,11.16-.46,16.26,2.82,5.1,8.18,8.27,14.01,8.27Z"/><path d="M181.54,148.93h-45.13c-8.84,0-16,7.16-16,16s7.16,16,16,16h45.13c8.84,0,16-7.16,16-16s-7.16-16-16-16Z"/><path d="M233.86,180.93h45.13c8.84,0,16-7.16,16-16s-7.16-16-16-16h-45.13c-8.84,0-16,7.16-16,16s7.16,16,16,16Z"/><path d="M233.86,144.83h45.13c8.84,0,16-7.16,16-16s-7.16-16-16-16h-6.99v-32.83c0-8.84-7.16-16-16-16s-16,7.16-16,16v32.83h-6.14c-8.84,0-16,7.16-16,16s7.16,16,16,16Z"/><path d="M330.46,180.93h45.13c8.84,0,16-7.16,16-16s-7.16-16-16-16h-45.13c-8.84,0-16,7.16-16,16s7.16,16,16,16Z"/><path d="M142.97,96v16.83h-6.56c-8.84,0-16,7.16-16,16s7.16,16,16,16h45.13c8.84,0,16-7.16,16-16s-7.16-16-16-16h-6.56v-32.83c0-8.84-7.16-16-16-16h-65.44c-8.84,0-16,7.16-16,16s7.16,16,16,16h49.44Z"/><path d="M418.46,64h-65.44c-8.84,0-16,7.16-16,16v32.83h-6.56c-8.84,0-16,7.16-16,16s7.16,16,16,16h45.13c8.84,0,16-7.16,16-16s-7.16-16-16-16h-6.56v-16.83h49.44c8.84,0,16-7.16,16-16s-7.16-16-16-16Z"/></svg>