<?xml version="1.0" encoding="UTF-8"?><svg id="Icon" xmlns="http://www.w3.org/2000/svg" viewBox="0 0 512 512"><path d="M460.53,381.07l-94.22-188.45c-2.71-5.42-8.25-8.84-14.31-8.84s-11.6,3.42-14.31,8.84l-94.22,188.45c-3.95,7.9-.75,17.51,7.16,21.47,7.9,3.95,17.51.75,21.47-7.16l29.6-59.21h100.62l29.6,59.21c2.8,5.61,8.45,8.85,14.32,8.85,2.4,0,4.85-.54,7.14-1.69,7.9-3.95,11.11-13.56,7.16-21.47ZM317.69,304.17l34.31-68.62,34.31,68.62h-68.62Z"/><path d="M256.67,288.02c0-8.84-7.16-16-16-16-19.76,0-36.24-3.57-49.98-9.22,14.77-14.09,25.43-30.05,33.05-44.93,15.15-29.57,20.58-58.94,22.47-73.87h25.78c8.84,0,16-7.16,16-16s-7.16-16-16-16h-80v-32.15c0-8.84-7.16-16-16-16s-16,7.16-16,16v32.15h-80c-8.84,0-16,7.16-16,16s7.16,16,16,16h133.89c-2.04,13.56-7.07,37.07-19.07,60.14-8.78,16.89-19.71,30.66-32.71,41.27-28.14-23.92-36-55.64-36.52-57.88-1.96-8.59-10.5-13.99-19.11-12.05-8.62,1.94-14.04,10.5-12.1,19.12.25,1.13,6.48,28.08,27.54,54.85,3.33,4.23,7.15,8.6,11.5,12.93-15.77,6.4-33.6,9.62-53.41,9.62-8.84,0-16,7.16-16,16s7.16,16,16,16c33.69,0,60.5-7.84,81.81-19.8,19.88,11.51,45.71,19.82,78.87,19.82,8.84,0,16-7.16,16-16Z"/></svg>