<?xml version="1.0" encoding="UTF-8"?><svg id="Icon" xmlns="http://www.w3.org/2000/svg" viewBox="0 0 512 512"><path d="M63.75,233.01c8.84,0,16-7.16,16-16,0-14.11,11.48-25.58,25.58-25.58h300.77l-37.79,37.79c-6.25,6.25-6.25,16.38,0,22.63,3.12,3.12,7.22,4.69,11.31,4.69s8.19-1.56,11.31-4.69l63.76-63.76c3.79-2.93,6.25-7.5,6.25-12.66,0-.03,0-.07,0-.1.03-4.13-1.53-8.27-4.68-11.42l-65.32-65.32c-6.25-6.25-16.38-6.25-22.63,0-6.25,6.25-6.25,16.38,0,22.63l38.21,38.21H103.44c-.71,0-1.41.05-2.1.14-29.9,2.06-53.59,27.04-53.59,57.45,0,8.84,7.16,16,16,16Z"/><path d="M448.75,278.8c-8.84,0-16,7.16-16,16,0,14.11-11.48,25.58-25.58,25.58H106.4l37.79-37.79c6.25-6.25,6.25-16.38,0-22.63-6.25-6.25-16.38-6.25-22.63,0l-63.76,63.76c-3.79,2.93-6.25,7.5-6.25,12.66,0,.03,0,.07,0,.1-.03,4.13,1.53,8.27,4.68,11.42l65.32,65.32c3.12,3.12,7.22,4.69,11.31,4.69s8.19-1.56,11.31-4.69c6.25-6.25,6.25-16.38,0-22.63l-38.21-38.21h303.08c.71,0,1.41-.05,2.1-.14,29.9-2.06,53.59-27.04,53.59-57.45,0-8.84-7.16-16-16-16Z"/></svg>