<?xml version="1.0" encoding="UTF-8"?><svg id="Icon" xmlns="http://www.w3.org/2000/svg" viewBox="0 0 512 512"><path d="M432,416H96V80c0-8.84-7.16-16-16-16s-16,7.16-16,16v352c0,8.84,7.16,16,16,16h352c8.84,0,16-7.16,16-16s-7.16-16-16-16Z"/><path d="M135.65,344.61c4.09,0,8.19-1.56,11.31-4.69l95.89-95.89,53.69,53.69c6.25,6.25,16.38,6.25,22.63,0l123.07-123.07c6.25-6.25,6.25-16.38,0-22.63-6.25-6.25-16.38-6.25-22.63,0l-111.75,111.75-53.69-53.69c-6.25-6.25-16.38-6.25-22.63,0l-107.21,107.21c-6.25,6.25-6.25,16.38,0,22.63,3.12,3.12,7.22,4.69,11.31,4.69Z"/></svg>