<?xml version="1.0" encoding="UTF-8"?><svg id="Icon" xmlns="http://www.w3.org/2000/svg" viewBox="0 0 512 512"><path d="M416,64H96c-17.6,0-32,14.4-32,32v320c0,17.6,14.4,32,32,32h320c17.6,0,32-14.4,32-32V96c0-17.6-14.4-32-32-32ZM414.95,174.65l-123.07,123.07c-6.25,6.25-16.38,6.25-22.63,0l-53.69-53.69-95.89,95.89c-3.12,3.12-7.22,4.69-11.31,4.69s-8.19-1.56-11.31-4.69c-6.25-6.25-6.25-16.38,0-22.63l107.21-107.21c6.25-6.25,16.38-6.25,22.63,0l53.69,53.69,111.75-111.75c6.25-6.25,16.38-6.25,22.63,0,6.25,6.25,6.25,16.38,0,22.63Z"/></svg>