<?xml version="1.0" encoding="UTF-8"?><svg id="Icon" xmlns="http://www.w3.org/2000/svg" viewBox="0 0 512 512"><path d="M472.52,368.47c-.04-.07-.09-.15-.13-.22L303.73,86.68c-7.73-12.75-19.96-21.72-34.45-25.27-14.48-3.55-29.48-1.24-42.22,6.49-7.65,4.64-14.14,11.13-18.77,18.78-.02.02-.03.05-.04.07L39.62,368.25c-.04.07-.09.15-.13.22-15.39,26.65-6.23,60.86,20.42,76.25,8.29,4.79,17.73,7.37,27.3,7.48.06,0,.12,0,.18,0h337.24c.06,0,.12,0,.18,0,30.77-.34,55.54-25.65,55.2-56.43-.11-9.57-2.69-19.01-7.48-27.3Z"/></svg>