<?xml version="1.0" encoding="UTF-8"?><svg id="Icon" xmlns="http://www.w3.org/2000/svg" viewBox="0 0 512 512"><path d="M467.87,350.07c-.04-.07-.09-.14-.13-.22L302.69,74.31c-7.57-12.47-19.54-21.25-33.71-24.73-14.17-3.47-28.85-1.21-41.32,6.35-7.48,4.54-13.84,10.89-18.37,18.37-.02.02-.03.05-.04.07L44.24,349.85c-.04.07-.09.14-.13.22-15.06,26.08-6.1,59.55,19.99,74.61,8.11,4.68,17.35,7.21,26.71,7.32.06,0,.11,0,.17,0h330.01c.06,0,.11,0,.17,0,30.12-.33,54.35-25.1,54.02-55.22-.1-9.36-2.63-18.6-7.32-26.71Z"/></svg>