<?xml version="1.0" encoding="UTF-8"?><svg id="Icon" xmlns="http://www.w3.org/2000/svg" viewBox="0 0 512 512"><path d="M278.54,478s0,0,0,0h0c-45.67,0-87.66-26.76-106.98-68.14l-52.47-112.63c-2.39-5.11-3.65-10.8-3.65-16.43-.01-15.04,8.8-28.89,22.46-35.27,5.12-2.39,10.8-3.66,16.43-3.66,15.06,0,28.91,8.82,35.29,22.47l11.48,24.37v-131.71c0-20.33,16.55-36.87,36.88-36.88,20.33,0,36.87,16.55,36.88,36.88v43.23c1.21-.13,2.45-.2,3.7-.2,13,0,25.32,6.95,32.05,17.53,2.66-.62,5.5-.99,8.52-.99,15.54,0,29.38,9.63,34.92,23.38,1.81-.3,3.69-.47,5.65-.47,20.33,0,36.87,16.54,36.88,36.88v83.62c0,65.07-52.95,118.01-118.02,118.03h0ZM154.32,273.87c-.96,0-1.99.23-2.88.65-2.4,1.12-4.01,3.64-4.01,6.27,0,.99.23,2.01.65,2.91l52.48,112.63c14.08,30.16,44.69,49.66,77.98,49.66,47.43,0,86.02-38.6,86.02-86.03v-83.61c0-2.69-2.19-4.88-4.88-4.88-.92,0-2.15.64-3.33,1.51v20.63c0,8.84-7.16,16-16,16s-16-7.16-16-16v-41.72c-.73-1.87-2.94-3.33-5.25-3.33-1.42,0-2.95.67-4.3,1.53v44.11c0,8.84-7.16,16-16,16s-16-7.16-16-16v-60.44c-1.04-.97-2.66-1.75-4.27-1.75-.9,0-2.25.48-3.7,1.2v60.6c0,8.84-7.16,16-16,16s-16-7.16-16-16v-136.82c0-2.69-2.19-4.88-4.88-4.88-2.68,0-4.88,2.19-4.88,4.88v203.23c0,7.49-5.2,13.98-12.51,15.61-7.31,1.64-14.78-2.02-17.97-8.8l-41.97-89.12c-1.16-2.48-3.63-4.06-6.32-4.06Z"/><path d="M322.48,167.63h-20.27c-8.84,0-16-7.16-16-16s7.16-16,16-16h4.27v-39.63h-134.62v39.63h4.88c8.84,0,16,7.16,16,16s-7.16,16-16,16h-20.88c-8.84,0-16-7.16-16-16v-71.63c0-8.84,7.16-16,16-16h166.62c8.84,0,16,7.16,16,16v71.63c0,8.84-7.16,16-16,16Z"/></svg>