<?xml version="1.0" encoding="UTF-8"?><svg id="Icon" xmlns="http://www.w3.org/2000/svg" viewBox="0 0 512 512"><path d="M465.92,227.37l-85.76-80.86c-12.66-11.94-29.22-18.52-46.63-18.52H48c-8.84,0-16,7.16-16,16v191.89c0,8.84,7.16,16,16,16h26.04c6.87,23.16,28.33,40.11,53.69,40.11s46.76-16.89,53.66-40h148.95c6.9,23.11,28.34,40,53.66,40s46.82-16.95,53.69-40.11h26.31c8.84,0,16-7.16,16-16v-75.89c0-12.3-5.13-24.19-14.08-32.63ZM415.61,223.92h-63.61v-58.81c2.21,1.33,4.29,2.89,6.2,4.69l57.4,54.12ZM127.73,360c-13.23,0-24-10.77-24-24s10.77-24,24-24,24,10.77,24,24-10.77,24-24,24ZM384,360c-13.23,0-24-10.77-24-24s10.77-24,24-24,24,10.77,24,24-10.77,24-24,24ZM448,319.89h-10.37c-6.94-23.05-28.35-39.89-53.63-39.89s-46.76,16.89-53.66,40h-148.95c-6.9-23.11-28.34-40-53.66-40s-46.69,16.84-53.63,39.89h-10.11v-159.89h256v80c0,8.84,7.16,16,16,16,.55,0,1.1-.03,1.64-.08h109.68c.44,1.31.68,2.69.68,4.09v59.89Z"/></svg>