<?xml version="1.0" encoding="UTF-8"?><svg id="Icon" xmlns="http://www.w3.org/2000/svg" viewBox="0 0 512 512"><path d="M320,416h-128c-8.84,0-16-7.16-16-16s7.16-16,16-16h128c8.84,0,16,7.16,16,16s-7.16,16-16,16Z"/><path d="M399.82,368H112.18c-26.57,0-48.18-21.53-48.18-48v-176c0-26.47,21.61-48,48.18-48h287.63c26.57,0,48.18,21.53,48.18,48v176c0,26.47-21.61,48-48.18,48ZM112.18,128c-8.92,0-16.18,7.18-16.18,16v176c0,8.82,7.26,16,16.18,16h287.63c8.92,0,16.18-7.18,16.18-16v-176c0-8.82-7.26-16-16.18-16H112.18Z"/></svg>