<?xml version="1.0" encoding="UTF-8"?><svg id="Icon" xmlns="http://www.w3.org/2000/svg" viewBox="0 0 512 512"><path d="M464,80h-240c-8.84,0-16,7.16-16,16v208c0,8.84,7.16,16,16,16h64v74.93c0,11.62-9.45,21.07-21.07,21.07h-117.85c-11.62,0-21.07-9.45-21.07-21.07v-7.33c16.97-3.23,30.98-16.42,34.75-33.73l22.67-104.27c2.83-13.01-.34-26.43-8.7-36.79s-20.79-16.32-34.11-16.32h-59.6c-13.32,0-25.75,5.95-34.11,16.32-8.36,10.37-11.53,23.78-8.7,36.79l22.67,104.27c3.64,16.76,16.89,29.66,33.13,33.4v7.66c0,29.27,23.81,53.07,53.07,53.07h117.85c29.27,0,53.07-23.81,53.07-53.07v-74.93h144c8.84,0,16-7.16,16-16V96c0-8.84-7.16-16-16-16ZM71.48,242.8c-1.04-4.8,1.02-8.27,2.34-9.92,1.32-1.64,4.28-4.4,9.19-4.4h59.6c4.91,0,7.87,2.75,9.19,4.4,1.32,1.64,3.39,5.11,2.34,9.92l-22.67,104.27c-1.17,5.39-6.02,9.3-11.54,9.3h-14.27c-5.51,0-10.36-3.91-11.54-9.3l-22.67-104.27ZM448,288h-208V112h208v176Z"/><path d="M265.59,244.18c24.34,13.98,52.11,21.38,80.32,21.38s55.99-7.39,80.32-21.38c7.66-4.4,10.3-14.17,5.91-21.83l-42.1-73.44c-2.11-3.68-5.6-6.38-9.7-7.49-4.1-1.11-8.47-.54-12.15,1.57-6.74,3.87-14.45,5.92-22.28,5.92s-15.54-2.05-22.28-5.92c-3.68-2.11-8.05-2.68-12.15-1.57-4.1,1.11-7.59,3.8-9.7,7.49l-42.1,73.44c-4.39,7.66-1.75,17.43,5.91,21.83ZM322.43,177.25c7.56,2.42,15.49,3.67,23.49,3.67s15.93-1.25,23.49-3.67l26.53,46.28c-15.75,6.59-32.78,10.03-50.02,10.03s-34.27-3.44-50.02-10.03l26.53-46.28Z"/><path d="M59.3,136.91c14.85-13.22,33.98-20.49,53.88-20.49s38.51,7.08,53.26,19.95c6.66,5.81,16.77,5.12,22.58-1.54,5.81-6.66,5.12-16.77-1.54-22.57-20.58-17.95-46.96-27.84-74.3-27.84s-54.44,10.15-75.16,28.59c-6.6,5.88-7.19,15.99-1.31,22.59,3.16,3.55,7.55,5.36,11.96,5.36,3.78,0,7.58-1.33,10.63-4.05Z"/><path d="M172.49,157.71c-16.68-14.13-37.93-21.91-59.82-21.91s-43.13,7.78-59.82,21.91c-6.74,5.71-7.58,15.81-1.87,22.55,5.71,6.74,15.81,7.58,22.55,1.87,10.91-9.24,24.81-14.33,39.14-14.33s28.22,5.09,39.13,14.33c3.01,2.55,6.68,3.79,10.33,3.79,4.54,0,9.05-1.92,12.22-5.66,5.71-6.74,4.88-16.84-1.87-22.55Z"/></svg>