<?xml version="1.0" encoding="UTF-8"?><svg id="Icon" xmlns="http://www.w3.org/2000/svg" viewBox="0 0 512 512"><path d="M368,223.61h-176v-63.61c0-35.29,28.71-64,64-64,22.28,0,42.65,11.42,54.49,30.56,4.65,7.52,14.51,9.84,22.02,5.19,7.52-4.65,9.84-14.51,5.19-22.02-17.71-28.63-48.25-45.72-81.7-45.72-52.93,0-96,43.07-96,96v63.61h-16c-26.47,0-48,22.84-48,50.91v122.18c0,28.07,21.53,50.91,48,50.91h224c26.47,0,48-22.84,48-50.91v-122.18c0-28.07-21.53-50.91-48-50.91ZM384,396.7c0,10.43-7.18,18.91-16,18.91h-224c-8.82,0-16-8.48-16-18.91v-122.18c0-10.43,7.18-18.91,16-18.91h28.51c1.13.25,2.29.39,3.49.39s2.37-.14,3.49-.39h188.51c8.82,0,16,8.48,16,18.91v122.18Z"/><path d="M256,288c-13.25,0-24,10.75-24,24,0,7.11,3.09,13.49,8,17.88v38.12c0,8.84,7.16,16,16,16s16-7.16,16-16v-38.12c4.91-4.39,8-10.78,8-17.88,0-13.25-10.75-24-24-24Z"/></svg>