<?xml version="1.0" encoding="UTF-8"?><svg id="Icon" xmlns="http://www.w3.org/2000/svg" viewBox="0 0 512 512"><circle cx="392" cy="208.37" r="32"/><path d="M405.15,448h-26.47c-15.2,0-27.57-12.37-27.57-27.57v-49.57c-9.45-6.08-15.42-16.64-15.42-28.13v-48.21c0-18.48,15.04-33.52,33.52-33.52h45.27c18.48,0,33.52,15.04,33.52,33.52v48.21c0,11.45-5.92,22-15.28,28.09v49.61c0,15.2-12.37,27.57-27.57,27.57Z"/><path d="M260.8,304H107.2c-23.82,0-43.2-19.42-43.2-43.28v-100.79c0-13.02,5.77-25.22,15.82-33.48l88.98-73.01c8.85-7.22,21.63-7.21,30.42,0l88.96,73.02c10.06,8.26,15.82,20.46,15.82,33.49v100.79c0,23.87-19.38,43.28-43.2,43.28ZM184.01,82.35l-83.89,68.84c-2.62,2.15-4.12,5.34-4.12,8.75v100.79c0,6.22,5.02,11.28,11.2,11.28h153.6c6.17,0,11.2-5.06,11.2-11.28v-100.79c0-3.41-1.5-6.6-4.13-8.75l-83.86-68.83Z"/></svg>