<?xml version="1.0" encoding="UTF-8"?><svg id="Icon" xmlns="http://www.w3.org/2000/svg" viewBox="0 0 512 512"><path d="M189.27,114.75l102.79,84.12,16.04,13.13c4.13,3.38,6.4,8.17,6.4,13.5v141.08c0,9.6-7.81,17.42-17.42,17.42H81.42c-9.61,0-17.42-7.81-17.42-17.42v-141.08c0-5.33,2.27-10.13,6.37-13.49l118.9-97.26M189.27,80c-5.05,0-10.1,1.68-14.23,5.04l-124.93,102.2c-11.52,9.44-18.11,23.37-18.11,38.26v141.08c0,27.25,22.16,49.42,49.42,49.42h215.66c27.26,0,49.42-22.17,49.42-49.42v-141.08c0-14.88-6.6-28.82-18.12-38.26h0l-124.89-102.2c-4.12-3.35-9.16-5.04-14.21-5.04h0Z"/><circle cx="424" cy="192" r="32"/><path d="M437.15,426.63h-26.47c-15.2,0-27.57-12.37-27.57-27.57v-49.57c-9.45-6.08-15.42-16.64-15.42-28.13v-48.21c0-18.48,15.04-33.52,33.52-33.52h45.27c18.48,0,33.52,15.04,33.52,33.52v48.21c0,11.45-5.92,22-15.28,28.09v49.61c0,15.2-12.37,27.57-27.57,27.57Z"/></svg>