<?xml version="1.0" encoding="UTF-8"?><svg id="Icon" xmlns="http://www.w3.org/2000/svg" viewBox="0 0 512 512"><path d="M256.03,71.04l129.32,105.82,20.25,16.58c6.61,5.41,10.4,13.41,10.4,21.95v172.26c0,15.63-12.71,28.34-28.34,28.34H124.34c-15.63,0-28.34-12.71-28.34-28.34v-172.26c0-8.54,3.79-16.55,10.37-21.94l149.65-122.42M256.03,37.75c-6.16,0-12.33,2.05-17.37,6.16l-152.54,124.78c-14.06,11.52-22.11,28.54-22.11,46.71v172.26c0,33.27,27.06,60.34,60.34,60.34h263.31c33.28,0,60.34-27.07,60.34-60.34v-172.26c0-18.17-8.06-35.19-22.13-46.71h.01l-152.49-124.79c-5.03-4.1-11.19-6.15-17.36-6.15h0Z"/></svg>