<?xml version="1.0" encoding="UTF-8"?><svg id="Icon" xmlns="http://www.w3.org/2000/svg" viewBox="0 0 512 512"><path d="M68.69,443.31c3.12,3.12,7.22,4.69,11.31,4.69s8.19-1.56,11.31-4.69l115.69-115.69,83.97,83.97c3.12,3.12,7.22,4.69,11.31,4.69s8.19-1.56,11.31-4.69c13.3-13.3,22.15-30.17,26.12-49.25l80.97,80.97c3.12,3.12,7.22,4.69,11.31,4.69s8.19-1.56,11.31-4.69c6.25-6.25,6.25-16.38,0-22.63L91.31,68.69c-6.25-6.25-16.38-6.25-22.63,0-6.25,6.25-6.25,16.38,0,22.63l81.02,81.02c-19.15,4.02-36.14,12.91-49.3,26.07-3,3-4.69,7.07-4.69,11.31s1.69,8.31,4.69,11.31l83.97,83.97-115.69,115.69c-6.25,6.25-6.25,16.38,0,22.63Z"/><path d="M328.08,261.42c2.95,2.34,6.46,3.48,9.95,3.48,4.71,0,9.37-2.07,12.53-6.04l62.5-78.51c24.54,6.99,47.15,2.73,62.05-12.17,6.25-6.25,6.25-16.38,0-22.63l-108.68-108.68c-6.25-6.25-16.38-6.25-22.63,0-14.9,14.9-19.17,37.51-12.18,62.05l-80.96,64.43c-6.91,5.5-8.06,15.57-2.56,22.48l79.96,75.59Z"/></svg>