<?xml version="1.0" encoding="UTF-8"?><svg id="Icon" xmlns="http://www.w3.org/2000/svg" viewBox="0 0 512 512"><path d="M68.69,443.31c3.12,3.12,7.22,4.69,11.31,4.69s8.19-1.56,11.31-4.69l115.69-115.69,83.97,83.97c3.12,3.12,7.22,4.69,11.31,4.69s8.19-1.56,11.31-4.69c13.3-13.3,22.15-30.17,26.12-49.25l80.97,80.97c3.12,3.12,7.22,4.69,11.31,4.69s8.19-1.56,11.31-4.69c6.25-6.25,6.25-16.38,0-22.63L91.31,68.69c-6.25-6.25-16.38-6.25-22.63,0-6.25,6.25-6.25,16.38,0,22.63l81.02,81.02c-19.15,4.02-36.14,12.91-49.3,26.07-3,3-4.69,7.07-4.69,11.31s1.69,8.31,4.69,11.31l83.97,83.97-115.69,115.69c-6.25,6.25-6.25,16.38,0,22.63ZM174.82,201.9c1.38.02,2.71-.16,3.99-.47l131.11,131.11c1,16.46-2.17,31.4-9.16,43.59l-164.91-164.91c10.99-6.33,24.2-9.53,38.97-9.32Z"/><path d="M248.13,185.83c5.5,6.91,15.57,8.06,22.48,2.56l89.85-71.51c5.61-4.47,7.57-12.12,4.78-18.73-3.33-7.91-4.93-15.48-4.83-22.04l75.47,75.47c-6.56.12-14.13-1.49-22.04-4.83-6.61-2.79-14.26-.83-18.73,4.78l-69.58,87.41c-5.5,6.91-4.36,16.98,2.55,22.48,2.95,2.34,6.46,3.48,9.95,3.48,4.71,0,9.37-2.07,12.53-6.04l62.5-78.51c24.54,6.99,47.15,2.73,62.05-12.17,6.25-6.25,6.25-16.38,0-22.63l-108.68-108.68c-6.25-6.25-16.38-6.25-22.63,0-14.9,14.9-19.17,37.51-12.18,62.05l-80.96,64.43c-6.91,5.5-8.06,15.57-2.56,22.48Z"/></svg>