<?xml version="1.0" encoding="UTF-8"?><svg id="Icon" xmlns="http://www.w3.org/2000/svg" viewBox="0 0 512 512"><path d="M112,448h288c26.47,0,48-21.53,48-48v-80c0-8.84-7.16-16-16-16s-16,7.16-16,16v80c0,8.82-7.18,16-16,16H112c-8.82,0-16-7.18-16-16v-80c0-8.84-7.16-16-16-16s-16,7.16-16,16v80c0,26.47,21.53,48,48,48Z"/><path d="M256,336c8.84,0,16-7.16,16-16V118.63l70.46,70.46c3.12,3.12,7.22,4.69,11.31,4.69s8.19-1.56,11.31-4.69c6.25-6.25,6.25-16.38,0-22.63l-97.78-97.78c-6.25-6.25-16.38-6.25-22.63,0l-97.78,97.78c-6.25,6.25-6.25,16.38,0,22.63,6.25,6.25,16.38,6.25,22.63,0l70.46-70.46v201.37c0,8.84,7.16,16,16,16Z"/></svg>