<?xml version="1.0" encoding="UTF-8"?><svg id="Icon" xmlns="http://www.w3.org/2000/svg" viewBox="0 0 512 512"><path d="M256,144c26.47,0,48-21.53,48-48s-21.53-48-48-48-48,21.53-48,48,21.53,48,48,48ZM256,80c8.82,0,16,7.18,16,16s-7.18,16-16,16-16-7.18-16-16,7.18-16,16-16Z"/><path d="M293.38,160h-74.76c-24.77,0-44.93,20.16-44.93,44.93v79.62c0,17.25,10.06,32.95,25.47,40.37v87.96c0,19.36,15.75,35.1,35.1,35.1h43.71c19.36,0,35.1-15.75,35.1-35.1v-87.98c15.26-7.46,25.23-23.15,25.23-40.35v-79.62c0-24.77-20.16-44.93-44.93-44.93ZM306.31,284.55c0,5.29-3.48,10.27-8.56,12.14-9.97,3.74-16.67,13.39-16.67,24.02v92.17c0,1.71-1.39,3.1-3.1,3.1h-43.71c-1.71,0-3.1-1.39-3.1-3.1v-92.17c0-10.63-6.7-20.28-16.67-24.02l-.19-.07c-5.15-1.86-8.61-6.71-8.61-12.07v-79.62c0-7.13,5.8-12.93,12.93-12.93h74.76c7.13,0,12.93,5.8,12.93,12.93v79.62Z"/><path d="M116,48c-26.47,0-48,21.53-48,48s21.53,48,48,48,48-21.53,48-48-21.53-48-48-48ZM116,112c-8.82,0-16-7.18-16-16s7.18-16,16-16,16,7.18,16,16-7.18,16-16,16Z"/><path d="M144,160h-67.07c-24.77,0-44.93,20.16-44.93,44.93v79.62c0,17.25,10.06,32.95,25.47,40.37v87.96c0,19.36,15.75,35.1,35.1,35.1h43.71c8.84,0,16-7.16,16-16s-7.16-16-16-16h-43.71c-1.71,0-3.1-1.39-3.1-3.1v-92.17c0-10.63-6.7-20.28-16.67-24.02l-.19-.07c-5.15-1.86-8.61-6.71-8.61-12.07v-79.62c0-7.13,5.8-12.93,12.93-12.93h67.07c8.84,0,16-7.16,16-16s-7.16-16-16-16Z"/><path d="M396,144c26.47,0,48-21.53,48-48s-21.53-48-48-48-48,21.53-48,48,21.53,48,48,48ZM396,80c8.82,0,16,7.18,16,16s-7.18,16-16,16-16-7.18-16-16,7.18-16,16-16Z"/><path d="M435.07,160h-67.07c-8.84,0-16,7.16-16,16s7.16,16,16,16h67.07c7.13,0,12.93,5.8,12.93,12.93v79.62c0,5.29-3.48,10.27-8.56,12.14-9.97,3.74-16.67,13.39-16.67,24.02v92.17c0,1.71-1.39,3.1-3.1,3.1h-43.71c-8.84,0-16,7.16-16,16s7.16,16,16,16h43.71c19.36,0,35.1-15.75,35.1-35.1v-87.98c15.26-7.46,25.23-23.15,25.23-40.35v-79.62c0-24.77-20.16-44.93-44.93-44.93Z"/></svg>