<?xml version="1.0" encoding="UTF-8"?><svg id="Icon" xmlns="http://www.w3.org/2000/svg" viewBox="0 0 512 512"><path d="M256,144c26.47,0,48-21.53,48-48s-21.53-48-48-48-48,21.53-48,48,21.53,48,48,48Z"/><path d="M293.38,160h-74.76c-24.77,0-44.93,20.16-44.93,44.93v79.62c0,17.25,10.06,32.95,25.47,40.37v87.96c0,19.36,15.75,35.1,35.1,35.1h43.71c19.36,0,35.1-15.75,35.1-35.1v-87.98c15.26-7.46,25.23-23.15,25.23-40.35v-79.62c0-24.77-20.16-44.93-44.93-44.93Z"/><path d="M171.16,339.75c-15.87-13.68-25.47-33.85-25.47-55.2v-79.62c0-16.54,5.54-31.8,14.85-44.05-2.86-.57-5.82-.88-8.86-.88h-74.76c-24.77,0-44.93,20.16-44.93,44.93v79.62c0,17.25,10.06,32.95,25.47,40.37v87.96c0,19.36,15.75,35.1,35.1,35.1h43.71c18.31,0,33.39-14.1,34.96-32.01-.05-1.02-.08-2.05-.08-3.09v-73.13Z"/><path d="M435.07,160h-74.76c-3.03,0-5.99.31-8.86.88,9.31,12.25,14.85,27.51,14.85,44.05v79.62c0,21.26-9.52,41.39-25.23,55.08v73.25c0,1.03-.03,2.06-.08,3.09,1.57,17.91,16.64,32.02,34.96,32.02h43.71c19.36,0,35.1-15.75,35.1-35.1v-87.98c15.26-7.46,25.23-23.15,25.23-40.35v-79.62c0-24.77-20.16-44.93-44.93-44.93Z"/><path d="M116,48c-26.47,0-48,21.53-48,48s21.53,48,48,48,48-21.53,48-48-21.53-48-48-48Z"/><path d="M396,144c26.47,0,48-21.53,48-48s-21.53-48-48-48-48,21.53-48,48,21.53,48,48,48Z"/></svg>