<?xml version="1.0" encoding="UTF-8"?><svg id="Icon" xmlns="http://www.w3.org/2000/svg" viewBox="0 0 512 512"><path d="M335.05,364.06c-14.62-12.34-33.17-18.85-52.33-18.33-4.03.11-7.87,1.73-10.75,4.55-4.31,4.22-10.01,6.54-16.04,6.54s-11.73-2.32-16.04-6.54c-2.88-2.82-6.73-4.45-10.76-4.55-19.1-.53-37.69,5.99-52.31,18.31-.3.25-.59.51-.86.78-19.55,19.07-18.87,58.45-16.72,80.22.44,4.47,2.74,8.55,6.34,11.24,22.12,16.53,52.52,24.49,90.3,23.66h.08c1.82.04,3.62.06,5.42.06,35.27,0,63.81-7.97,84.89-23.72,3.6-2.69,5.91-6.78,6.34-11.26,2.13-21.79,2.79-61.19-16.73-80.2-.27-.26-.55-.52-.84-.76ZM321.37,434.51c-15.95,9.55-37.71,14.07-64.84,13.44-.12,0-.25,0-.37,0h-.45c-.12,0-.24,0-.36,0-27.14.63-48.9-3.9-64.85-13.44-1.57-26.32,3.31-41.86,7.48-46.45,7.17-5.85,15.89-9.38,25.04-10.19,9.45,7.1,20.9,10.94,32.91,10.94s23.46-3.84,32.91-10.94c9.15.8,17.87,4.33,25.04,10.2,4.16,4.56,9.03,20.08,7.48,46.44Z"/><path d="M174.54,293.32c-.31-8.83-7.74-15.74-16.54-15.43-3.76.13-7.66.15-11.62.06-.12,0-.25,0-.37,0h-.45c-.12,0-.24,0-.36,0-27.16.62-48.91-3.9-64.85-13.44-1.57-26.32,3.32-41.86,7.49-46.45,7.17-5.85,15.89-9.38,25.04-10.18,9.46,7.1,20.91,10.94,32.91,10.94s23.46-3.84,32.92-10.94c4.6.4,9.09,1.49,13.41,3.27,8.18,3.36,17.52-.54,20.88-8.71,3.36-8.17-.54-17.52-8.72-20.88-10.11-4.15-20.76-6.11-31.7-5.81-4.03.11-7.87,1.73-10.75,4.55-4.31,4.22-10.01,6.54-16.04,6.54s-11.73-2.32-16.04-6.54c-2.88-2.82-6.73-4.44-10.76-4.55-19.11-.53-37.68,5.99-52.31,18.31-.3.25-.59.51-.86.78-8.39,8.19-21.73,29.49-16.72,80.22.44,4.47,2.74,8.55,6.34,11.24,22.12,16.53,52.54,24.48,90.3,23.66h.08c1.82.04,3.64.06,5.44.06,2.66,0,5.28-.04,7.85-.13,8.83-.31,15.74-7.71,15.43-16.54Z"/><path d="M145.76,160c26.47,0,48-21.53,48-48s-21.53-48-48-48-48,21.53-48,48,21.53,48,48,48ZM145.76,96c8.82,0,16,7.18,16,16s-7.18,16-16,16-16-7.18-16-16,7.18-16,16-16Z"/><path d="M446.19,194.81c-.28-.27-.57-.53-.86-.78-14.62-12.31-33.2-18.83-52.31-18.31-4.03.11-7.87,1.73-10.76,4.55-4.31,4.22-10.01,6.54-16.04,6.54s-11.73-2.32-16.04-6.54c-2.88-2.82-6.72-4.44-10.75-4.55-10.95-.29-21.59,1.66-31.7,5.81-8.17,3.36-12.07,12.7-8.71,20.88,3.36,8.17,12.7,12.08,20.88,8.71,4.32-1.77,8.81-2.87,13.41-3.27,9.46,7.1,20.91,10.94,32.92,10.94s23.46-3.84,32.91-10.94c9.15.8,17.87,4.33,25.04,10.18,4.17,4.59,9.05,20.13,7.48,46.45-15.94,9.54-37.69,14.06-64.85,13.44-.12,0-.24,0-.36,0h-.45c-.12,0-.25,0-.37,0-3.96.09-7.87.07-11.62-.06-8.8-.31-16.23,6.6-16.54,15.43-.31,8.83,6.6,16.23,15.43,16.54,2.57.09,5.19.13,7.85.13,1.8,0,3.62-.02,5.44-.06h.08c37.76.83,68.18-7.12,90.3-23.66,3.6-2.69,5.9-6.77,6.34-11.24,5.01-50.73-8.33-72.04-16.72-80.22Z"/><path d="M366.24,160c26.47,0,48-21.53,48-48s-21.53-48-48-48-48,21.53-48,48,21.53,48,48,48ZM366.24,96c8.82,0,16,7.18,16,16s-7.18,16-16,16-16-7.18-16-16,7.18-16,16-16Z"/><path d="M256,336c26.47,0,48-21.53,48-48s-21.53-48-48-48-48,21.53-48,48,21.53,48,48,48ZM256,272c8.82,0,16,7.18,16,16s-7.18,16-16,16-16-7.18-16-16,7.18-16,16-16Z"/></svg>