<?xml version="1.0" encoding="UTF-8"?><svg id="Icon" xmlns="http://www.w3.org/2000/svg" viewBox="0 0 512 512"><path d="M335.05,364.06c-14.62-12.34-33.17-18.85-52.33-18.33-4.03.11-7.87,1.73-10.75,4.55-4.31,4.22-10.01,6.54-16.04,6.54s-11.73-2.32-16.04-6.54c-2.88-2.82-6.73-4.45-10.76-4.55-19.1-.53-37.69,5.99-52.31,18.31-.3.25-.59.51-.86.78-19.55,19.07-18.87,58.45-16.72,80.22.44,4.47,2.74,8.55,6.34,11.24,22.12,16.53,52.52,24.49,90.3,23.66h.08c1.82.04,3.62.06,5.42.06,35.27,0,63.81-7.97,84.89-23.72,3.6-2.69,5.91-6.78,6.34-11.26,2.13-21.79,2.79-61.19-16.73-80.2-.27-.26-.55-.52-.84-.76Z"/><path d="M145.76,160c26.47,0,48-21.53,48-48s-21.53-48-48-48-48,21.53-48,48,21.53,48,48,48Z"/><path d="M366.24,160c26.47,0,48-21.53,48-48s-21.53-48-48-48-48,21.53-48,48,21.53,48,48,48Z"/><path d="M256,336c26.47,0,48-21.53,48-48s-21.53-48-48-48-48,21.53-48,48,21.53,48,48,48Z"/><path d="M236.09,210.51c-2.57-5.98-5.96-11.37-10.4-15.69-.27-.26-.55-.52-.84-.76-14.62-12.34-33.17-18.85-52.33-18.33-4.03.11-7.87,1.73-10.75,4.55-4.31,4.22-10.01,6.54-16.04,6.54s-11.73-2.32-16.04-6.54c-2.88-2.82-6.73-4.45-10.76-4.55-19.1-.53-37.69,5.99-52.31,18.31-.3.25-.59.51-.86.78-19.55,19.07-18.87,58.45-16.72,80.22.44,4.47,2.74,8.55,6.34,11.24,22.12,16.53,52.52,24.49,90.3,23.66h.08c1.82.04,3.62.06,5.42.06,9.65,0,18.77-.62,27.39-1.81-1.68-6.45-2.58-13.21-2.58-20.19,0-37.24,25.58-68.62,60.09-77.49Z"/><path d="M446.23,194.82c-.27-.26-.55-.52-.84-.76-14.62-12.34-33.17-18.85-52.33-18.33-4.03.11-7.87,1.73-10.75,4.55-4.31,4.22-10.01,6.54-16.04,6.54s-11.73-2.32-16.04-6.54c-2.88-2.82-6.73-4.45-10.76-4.55-19.1-.53-37.69,5.99-52.31,18.31-.3.25-.59.51-.86.78-4.44,4.33-7.83,9.72-10.4,15.7,34.51,8.87,60.09,40.25,60.09,77.49,0,6.97-.9,13.74-2.59,20.19,10.22,1.41,21.17,2,32.82,1.74h.08c1.82.04,3.62.06,5.42.06,35.27,0,63.81-7.97,84.89-23.72,3.6-2.69,5.91-6.78,6.34-11.26,2.13-21.79,2.79-61.19-16.73-80.2Z"/></svg>