<?xml version="1.0" encoding="UTF-8"?><svg id="Icon" xmlns="http://www.w3.org/2000/svg" viewBox="0 0 512 512"><path d="M203.55,345.12c39.7,0,72-32.3,72-72s-32.3-72-72-72-72,32.3-72,72,32.3,72,72,72ZM203.55,233.12c22.06,0,40,17.94,40,40s-17.94,40-40,40-40-17.94-40-40,17.94-40,40-40Z"/><path d="M96.79,437.27c.52-.35,52.84-35.08,107.52-35.08,63.78,0,104.15,33.63,104.5,33.93,3.02,2.61,6.74,3.88,10.44,3.88,4.49,0,8.96-1.88,12.13-5.55,5.77-6.69,5.02-16.8-1.67-22.57-1.98-1.7-49.24-41.69-125.39-41.69-64.65,0-122.97,38.9-125.42,40.55-7.32,4.94-9.24,14.87-4.3,22.19,4.93,7.32,14.88,9.26,22.2,4.33Z"/><path d="M453.6,274.86c-1.76-1.51-43.82-37.14-112.38-41.3-8.82-.53-16.4,6.18-16.94,15s6.18,16.4,15,16.94c57.32,3.48,93.12,33.33,93.42,33.6,3.02,2.61,6.74,3.88,10.44,3.88,4.49,0,8.96-1.88,12.13-5.55,5.77-6.69,5.02-16.8-1.67-22.57Z"/><path d="M327.45,208.1c39.7,0,72-32.3,72-72s-32.3-72-72-72-72,32.3-72,72,32.3,72,72,72ZM327.45,96.1c22.06,0,40,17.94,40,40s-17.94,40-40,40-40-17.94-40-40,17.94-40,40-40Z"/></svg>