<?xml version="1.0" encoding="UTF-8"?><svg id="Icon" xmlns="http://www.w3.org/2000/svg" viewBox="0 0 512 512"><path d="M256,258.25c53.49,0,97-43.51,97-97s-43.51-97-97-97-97,43.51-97,97,43.51,97,97,97ZM256,96.25c35.84,0,65,29.16,65,65s-29.16,65-65,65-65-29.16-65-65,29.16-65,65-65Z"/><path d="M434.45,368.22c-2.78-2.4-69.43-58.78-177.35-58.78-91.69,0-174.57,55.29-178.06,57.64-7.32,4.94-9.24,14.88-4.3,22.2,4.94,7.32,14.88,9.25,22.21,4.32.77-.52,78.44-52.17,160.15-52.17,49.81,0,89.6,13.81,114.21,25.39,26.9,12.66,42.12,25.53,42.24,25.63,3.02,2.61,6.74,3.88,10.44,3.88,4.49,0,8.96-1.88,12.13-5.55,5.77-6.69,5.02-16.8-1.67-22.57Z"/></svg>