<?xml version="1.0" encoding="UTF-8"?><svg id="Icon" xmlns="http://www.w3.org/2000/svg" viewBox="0 0 512 512"><path d="M105.71,144.07h22.27s-16.6,48.42-16.6,48.42c-1.27,3.7.18,7.91,3.68,9.98,4.01,2.36,9.17,1.04,11.53-2.97,0,0,38.22-64.73,38.22-64.73,5.95-9.75-1.45-22.86-12.96-22.7h-1.57s-11.32,0-22.64,0l15.86-48.69c2.91-9.64-10.09-15.45-15.32-6.78,0,0-37.11,64.99-37.11,64.99-6.05,10.64,2.46,23.51,14.63,22.47Z"/><path d="M144,329.92v-11.92c0-8.84-7.16-16-16-16s-16,7.16-16,16v11.92c-14.55,6.23-24.77,20.69-24.77,37.49v73.48c0,13.84,11.26,25.11,25.11,25.11h31.33c13.84,0,25.11-11.26,25.11-25.11v-73.48c0-16.8-10.22-31.26-24.77-37.49ZM119.23,367.41c0-4.75,4.02-8.77,8.77-8.77s8.77,4.02,8.77,8.77v1.82h-17.54v-1.82ZM119.23,434v-32.76h17.54v32.76h-17.54Z"/><path d="M384,204c16.66,0,32.42-6.39,44.37-18,11.92-11.58,18.77-27.09,19.29-43.68l.03-2.01c0-3.82-.39-7.77-1.16-11.74-2.92-14.99-11.39-30.95-25.17-47.45-4.99-5.96-10.52-11.83-16.45-17.44-1.91-1.81-3.77-3.5-5.47-4.99-1.08-.95-1.86-1.61-2.3-1.97l-.64-.5c-.56-.43-1.15-.83-1.75-1.2h0s-.48-.29-.48-.29c-.64-.37-1.3-.71-1.98-1l-2.35-.86c-.36-.11-.73-.21-1.12-.3l-.9-.2c-.31-.06-.62-.11-.94-.15-.59-.09-1.2-.15-1.81-.18-.39-.02-.77-.04-1.17-.04l-1.07.03c-.63.03-1.26.09-1.88.18-.32.04-.63.09-.95.15l-.96.21c-.35.09-.69.18-1.04.28l-.33.1c-.15.04-.29.09-.43.14l-.45.16c-.32.12-.65.25-.97.38l-.39.17c-.46.21-.92.43-1.35.67l-.55.31c-.21.12-.42.25-.63.38-.48.3-.95.63-1.4.97l-.75.59c-.44.36-1.22,1.03-2.27,1.94-1.74,1.52-3.59,3.2-5.5,5.01-5.93,5.61-11.47,11.48-16.46,17.45-13.78,16.49-22.25,32.46-25.17,47.45-.77,3.96-1.16,7.9-1.16,11.72v.02c0,35.12,28.57,63.69,63.69,63.69ZM371.19,101.65c3.88-4.64,8.18-9.24,12.81-13.69,4.62,4.44,8.92,9.04,12.8,13.68,10.28,12.3,16.44,23.42,18.32,33.04.37,1.92.57,3.77.57,5.51l-.02,1.24c-.45,13.12-8.7,24.05-20.25,28.47.79-1.01,1.48-2.13,2.02-3.36,3.59-8.08-.05-17.53-8.12-21.12-5.8-2.58-8.2-5.43-8.86-10.54-1.14-8.76-9.16-14.95-17.92-13.81-2.02.26-3.89.9-5.58,1.82,3.17-6.59,7.92-13.69,14.23-21.25Z"/><path d="M256,32c-8.84,0-16,7.16-16,16v160c0,8.84,7.16,16,16,16s16-7.16,16-16V48c0-8.84-7.16-16-16-16Z"/><path d="M256,288c-8.84,0-16,7.16-16,16v160c0,8.84,7.16,16,16,16s16-7.16,16-16v-160c0-8.84-7.16-16-16-16Z"/><path d="M208,240H48c-8.84,0-16,7.16-16,16s7.16,16,16,16h160c8.84,0,16-7.16,16-16s-7.16-16-16-16Z"/><path d="M464,240h-160c-8.84,0-16,7.16-16,16s7.16,16,16,16h160c8.84,0,16-7.16,16-16s-7.16-16-16-16Z"/><path d="M320.09,412.69c-.11,8.84,6.96,16.09,15.8,16.2.07,0,.14,0,.2,0,8.74,0,15.89-7.03,15.99-15.8.35-27.9,13.27-34.01,19.49-35.33-2.82,2.89-4.57,6.83-4.57,11.18,0,8.84,7.16,16,16,16h42.99c24.13,0,43.03-23.73,43.03-54.03s-18.9-54.03-43.03-54.03h-42.99c-17.06,0-32.03,11.93-39.06,31.13-3.04,8.3,1.22,17.49,9.52,20.53.85.31,1.71.53,2.58.69-17.07,7.06-35.48,25.07-35.95,63.45ZM437.03,350.92c0,13.24-6.64,22.03-11.03,22.03h-3.58c2.32-6.7,3.62-14.14,3.62-22.03s-1.29-15.33-3.62-22.03h3.58c4.39,0,11.03,8.79,11.03,22.03ZM374,339.02c2.44-6.65,6.38-10.14,9.02-10.14,4.39,0,11.03,8.79,11.03,22.03,0,10.2-3.94,17.74-7.75,20.67,2.49-3.02,3.9-6.95,3.64-11.17-.54-8.56-7.72-15.1-16.2-15-1.38.01-2.86.12-4.41.3,2.05-1.73,3.69-4,4.68-6.69Z"/><path d="M455.14,431.72s-.23,0-.77-.09c-3.38-.51-6.67-1.79-11.35-4.42-.56-.32-1.12-.64-1.67-.96-1.76-1.02-3.75-2.17-6.03-3.26-5.73-2.74-12.06-2.82-17.84-.22-2.11.95-3.86,1.94-5.4,2.81l-.44.25c-3.76,2.13-7.01,3.97-10.45,5.03-3.4,1.05-6.46,1.12-9.62.23-3.1-.87-5.99-2.32-9.94-4.52-.49-.27-.98-.55-1.46-.83-1.34-.76-2.85-1.63-4.56-2.48-6.3-3.13-13.24-3.12-19.54.02-1.6.8-3.04,1.62-4.3,2.33l-.34.19c-3.77,2.14-6.92,3.86-10.31,4.99-4.12,1.37-7.92,1.23-12.32-.46-2.73-1.05-5.45-2.58-8.34-4.2-7.71-4.32-17.46-1.57-21.78,6.13-4.32,7.71-1.58,17.46,6.13,21.78,3.4,1.9,7.62,4.27,12.5,6.15,6.11,2.35,12.24,3.53,18.35,3.53,5.22,0,10.43-.86,15.59-2.58,5.54-1.85,10.12-4.23,14.6-6.74.07.04.14.08.21.12,4.61,2.57,10.09,5.46,16.84,7.36,9.1,2.57,18.43,2.41,27.72-.45,6.16-1.9,11.13-4.57,15.52-7.04.41.23.81.47,1.22.7,5.45,3.06,12.9,6.75,22.24,8.16,2.18.33,4.15.48,6.05.44,8.84-.14,15.89-7.42,15.75-16.26-.14-8.83-7.42-15.91-16.25-15.74Z"/></svg>