<?xml version="1.0" encoding="UTF-8"?><svg id="Icon" xmlns="http://www.w3.org/2000/svg" viewBox="0 0 512 512"><path d="M450.13,255.58h-30.22v-.18c0-16.47-13.4-29.87-29.87-29.87h-36.98c-16.47,0-29.87,13.4-29.87,29.87v.18h-14.22v-37.33h9.42c16.47,0,29.87-13.4,29.87-29.87v-36.98c0-16.47-13.4-29.87-29.87-29.87h-9.42v-20.98c0-16.47-13.4-29.87-29.87-29.87h-46.22c-16.47,0-29.87,13.4-29.87,29.87v20.98h-9.42c-16.47,0-29.87,13.4-29.87,29.87v36.98c0,16.47,13.4,29.87,29.87,29.87h9.42v37.33h-14.22v-.18c0-16.47-13.4-29.87-29.87-29.87h-36.98c-16.47,0-29.87,13.4-29.87,29.87v.18h-30.22c-16.47,0-29.87,13.4-29.87,29.87v73.96c0,16.47,13.4,29.87,29.87,29.87h30.22v.18c0,16.47,13.4,29.87,29.87,29.87h36.98c16.47,0,29.87-13.4,29.87-29.87v-.18h134.4v.18c0,16.47,13.4,29.87,29.87,29.87h36.98c16.47,0,29.87-13.4,29.87-29.87v-.18h30.22c16.47,0,29.87-13.4,29.87-29.87v-73.96c0-16.47-13.4-29.87-29.87-29.87ZM195.73,186.24v-32.71h120.53v32.71h-120.53ZM124.09,373.27v-115.73h32.71v129.78h-32.71v-14.04ZM355.2,373.27v-115.73h32.71v129.78h-32.71v-14.04Z"/></svg>