<?xml version="1.0" encoding="UTF-8"?><svg id="Icon" xmlns="http://www.w3.org/2000/svg" viewBox="0 0 512 512"><path d="M429.33,162.89h-11.73v-4.8c0-8.84-7.16-16-16-16s-16,7.16-16,16v4.8h-115.91v-11.6c0-8.84-7.16-16-16-16h-101.69c-8.84,0-16,7.16-16,16v11.6h-9.6v-4.8c0-8.84-7.16-16-16-16s-16,7.16-16,16v4.8h-11.73c-27.94,0-50.67,22.73-50.67,50.67v115.56c0,27.94,22.73,50.67,50.67,50.67h11.73v4.8c0,8.84,7.16,16,16,16s16-7.16,16-16v-4.8h259.2v4.8c0,8.84,7.16,16,16,16s16-7.16,16-16v-4.8h11.73c27.94,0,50.67-22.73,50.67-50.67v-115.56c0-27.94-22.73-50.67-50.67-50.67ZM168,167.3h69.69v23.47h-69.69v-23.47ZM82.67,347.78c-10.29,0-18.67-8.37-18.67-18.67v-115.56c0-10.29,8.37-18.67,18.67-18.67h11.73v152.89h-11.73ZM126.4,347.78v-152.89h9.6v11.87c0,8.84,7.16,16,16,16h101.69c8.84,0,16-7.16,16-16v-11.87h115.91v152.89H126.4ZM448,329.12c0,10.29-8.37,18.67-18.67,18.67h-11.73v-152.89h11.73c10.29,0,18.67,8.37,18.67,18.67v115.56Z"/></svg>