<?xml version="1.0" encoding="UTF-8"?><svg id="Icon" xmlns="http://www.w3.org/2000/svg" viewBox="0 0 512 512"><path d="M443.31,420.69L91.31,68.69c-6.25-6.25-16.38-6.25-22.63,0-6.25,6.25-6.25,16.38,0,22.63l20.69,20.69h-9.37c-26.47,0-48,21.53-48,48v192c0,26.47,21.53,48,48,48h208c24.36,0,44.53-18.25,47.58-41.79l85.1,85.1c3.12,3.12,7.22,4.69,11.31,4.69s8.19-1.56,11.31-4.69c6.25-6.25,6.25-16.38,0-22.63ZM304,352c0,8.82-7.18,16-16,16H80c-8.82,0-16-7.18-16-16v-192c0-8.82,7.18-16,16-16h41.37l182.63,182.63v25.37Z"/><path d="M472.57,146.49c-4.63-2.94-10.43-3.3-15.39-.96l-121.18,57.09v-42.62c0-26.47-21.53-48-48-48h-108.37l32,32h76.37c8.82,0,16,7.18,16,16v76.37l32,32v-30.38l112-52.76v166.78c0,8.84,7.16,16,16,16s16-7.16,16-16v-192c0-5.48-2.8-10.58-7.43-13.51Z"/></svg>