<?xml version="1.0" encoding="UTF-8"?><svg id="Icon" xmlns="http://www.w3.org/2000/svg" viewBox="0 0 512 512"><path d="M91.31,68.69c-6.25-6.25-16.38-6.25-22.63,0-6.25,6.25-6.25,16.38,0,22.63l20.69,20.69h-9.37c-26.47,0-48,21.53-48,48v192c0,26.47,21.53,48,48,48h208c24.36,0,44.53-18.25,47.58-41.79l85.1,85.1c3.12,3.12,7.22,4.69,11.31,4.69s8.19-1.56,11.31-4.69c6.25-6.25,6.25-16.38,0-22.63L91.31,68.69Z"/><path d="M472.57,146.49c-4.63-2.94-10.43-3.3-15.39-.96l-121.18,57.09v-42.62c0-26.47-21.53-48-48-48h-108.37l233.92,233.92,43.64,20.56c2.17,1.02,4.5,1.53,6.82,1.53,2.99,0,5.97-.84,8.57-2.49,4.63-2.93,7.43-8.03,7.43-13.51v-192c0-5.48-2.8-10.58-7.43-13.51Z"/></svg>