<?xml version="1.0" encoding="UTF-8"?><svg id="Icon" xmlns="http://www.w3.org/2000/svg" viewBox="0 0 512 512"><path d="M472.57,146.49c-4.63-2.94-10.43-3.3-15.39-.96l-121.18,57.09v-42.62c0-26.47-21.53-48-48-48H80c-26.47,0-48,21.53-48,48v192c0,26.47,21.53,48,48,48h208c26.47,0,48-21.53,48-48v-42.62l121.18,57.09c2.17,1.02,4.5,1.53,6.82,1.53,2.99,0,5.97-.84,8.57-2.49,4.63-2.93,7.43-8.03,7.43-13.51v-192c0-5.48-2.8-10.58-7.43-13.51ZM304,352c0,8.82-7.18,16-16,16H80c-8.82,0-16-7.18-16-16v-192c0-8.82,7.18-16,16-16h208c8.82,0,16,7.18,16,16v192ZM448,326.78l-112-52.76v-36.02l112-52.76v141.55Z"/></svg>