<?xml version="1.0" encoding="UTF-8"?><svg id="Icon" xmlns="http://www.w3.org/2000/svg" viewBox="0 0 512 512"><path d="M232.88,65.12H81.06c-8.84,0-16,7.16-16,16v151.82c0,8.84,7.16,16,16,16h151.82c8.84,0,16-7.16,16-16V81.12c0-8.84-7.16-16-16-16ZM216.88,216.95h-119.82v-119.82h119.82v119.82Z"/><path d="M431.38,262.49h-152.95c-8.84,0-16,7.16-16,16v152.95c0,8.84,7.16,16,16,16h152.95c8.84,0,16-7.16,16-16v-152.95c0-8.84-7.16-16-16-16ZM415.38,415.44h-120.95v-120.95h120.95v120.95Z"/><path d="M231.2,415.44h-65.93c-11.95,0-21.67-9.72-21.67-21.67v-74.39l19.78,19.78c3.12,3.12,7.22,4.69,11.31,4.69s8.19-1.56,11.31-4.69c6.25-6.25,6.25-16.38,0-22.63l-47.09-47.09s-.02-.02-.03-.03c-.36-.36-.74-.7-1.13-1.02-.11-.09-.22-.16-.33-.25-.3-.24-.61-.47-.93-.69-.1-.07-.2-.12-.3-.18-.34-.22-.69-.43-1.04-.63-.07-.04-.15-.07-.22-.11-.39-.2-.79-.4-1.2-.57-.05-.02-.1-.04-.15-.06-.43-.17-.87-.34-1.32-.47-.05-.02-.11-.03-.17-.04-.44-.13-.89-.25-1.35-.34-.13-.03-.27-.04-.4-.06-.38-.07-.76-.13-1.15-.17-.53-.05-1.06-.08-1.6-.08s-1.07.03-1.6.08c-.39.04-.77.11-1.16.17-.13.02-.27.03-.4.06-.46.09-.91.21-1.35.34-.05.02-.11.03-.16.04-.45.14-.89.3-1.32.47-.05.02-.1.03-.15.05-.41.17-.81.36-1.2.57-.07.04-.14.07-.21.1-.36.2-.71.41-1.06.63-.09.06-.19.11-.29.17-.33.22-.65.46-.96.71-.1.08-.2.14-.3.22-.4.33-.79.68-1.16,1.05l-47.09,47.09c-6.25,6.25-6.25,16.38,0,22.63,6.25,6.25,16.38,6.25,22.63,0l19.78-19.78v74.4c0,29.6,24.08,53.67,53.67,53.67h65.93c8.84,0,16-7.16,16-16s-7.16-16-16-16Z"/><path d="M281.8,96.56h65.93c11.95,0,21.67,9.72,21.67,21.67v74.4l-19.78-19.78c-6.25-6.25-16.38-6.25-22.63,0-6.25,6.25-6.25,16.38,0,22.63l47.09,47.09s.01.01.02.02c.37.37.75.71,1.15,1.04.19.15.39.29.58.43.23.17.45.34.68.5.23.15.47.29.7.43.21.13.42.26.64.38.24.13.49.24.73.35.23.11.45.22.69.32.24.1.48.18.72.26.25.09.5.19.76.26.24.07.48.13.73.19.26.07.52.14.79.19.28.06.56.09.84.13.24.03.47.08.71.1.52.05,1.05.08,1.58.08s1.05-.03,1.58-.08c.24-.02.47-.07.71-.1.28-.04.56-.07.84-.13.27-.05.53-.13.79-.19.24-.06.49-.11.73-.19.26-.08.51-.17.76-.26.24-.09.48-.17.72-.26.23-.1.46-.21.69-.32.24-.11.49-.22.73-.35.22-.12.43-.25.64-.38.24-.14.47-.27.7-.43.23-.16.45-.33.68-.5.19-.14.39-.28.58-.43.4-.33.79-.68,1.15-1.04,0,0,.01-.01.02-.02l47.09-47.09c6.25-6.25,6.25-16.38,0-22.63-6.25-6.25-16.38-6.25-22.63,0l-19.78,19.78v-74.4c0-29.6-24.08-53.67-53.67-53.67h-65.93c-8.84,0-16,7.16-16,16s7.16,16,16,16Z"/></svg>