<?xml version="1.0" encoding="UTF-8"?><svg id="Icon" xmlns="http://www.w3.org/2000/svg" viewBox="0 0 512 512"><path d="M256,328.73c40.1,0,72.73-32.62,72.73-72.73V104.73c0-40.1-32.62-72.73-72.73-72.73s-72.73,32.62-72.73,72.73v151.27c0,40.1,32.62,72.73,72.73,72.73ZM215.27,104.73c0-22.46,18.27-40.73,40.73-40.73s40.73,18.27,40.73,40.73v151.27c0,22.46-18.27,40.73-40.73,40.73s-40.73-18.27-40.73-40.73V104.73Z"/><path d="M388.36,202.18c-8.84,0-16,7.16-16,16v37.82c0,64.16-52.2,116.36-116.36,116.36s-116.36-52.2-116.36-116.36v-37.82c0-8.84-7.16-16-16-16s-16,7.16-16,16v37.82c0,76.4,58.05,139.49,132.36,147.5v44.5h-64c-8.84,0-16,7.16-16,16s7.16,16,16,16h160c8.84,0,16-7.16,16-16s-7.16-16-16-16h-64v-44.5c74.31-8.01,132.36-71.1,132.36-147.5v-37.82c0-8.84-7.16-16-16-16Z"/></svg>