<?xml version="1.0" encoding="UTF-8"?><svg id="Icon" xmlns="http://www.w3.org/2000/svg" viewBox="0 0 512 512"><path d="M296.73,229.1l31.82,31.82c.11-1.63.18-3.26.18-4.92V104.73c0-40.1-32.62-72.73-72.73-72.73s-72.73,32.62-72.73,72.73v10.92l32,32,81.46,81.46Z"/><path d="M443.31,420.69L91.31,68.69c-6.25-6.25-16.38-6.25-22.63,0-6.25,6.25-6.25,16.38,0,22.63l114.59,114.59v50.1c0,40.1,32.62,72.73,72.73,72.73,14.27,0,27.59-4.14,38.83-11.27l31.32,31.32c-19.52,14.8-43.82,23.59-70.14,23.59-64.16,0-116.36-52.2-116.36-116.36v-37.82c0-8.84-7.16-16-16-16s-16,7.16-16,16v37.82c0,76.4,58.05,139.49,132.36,147.5v44.5h-64c-8.84,0-16,7.16-16,16s7.16,16,16,16h160c8.84,0,16-7.16,16-16s-7.16-16-16-16h-64v-44.51c28.93-3.12,55.39-14.58,76.93-31.94l71.76,71.76c3.12,3.12,7.22,4.69,11.31,4.69s8.19-1.56,11.31-4.69c6.25-6.25,6.25-16.38,0-22.63Z"/><path d="M404.36,256v-37.82c0-8.84-7.16-16-16-16s-16,7.16-16,16v37.82c0,14.5-2.67,28.38-7.54,41.2l24.28,24.28c9.76-19.76,15.26-41.99,15.26-65.48Z"/></svg>