<?xml version="1.0" encoding="UTF-8"?><svg id="Icon" xmlns="http://www.w3.org/2000/svg" viewBox="0 0 512 512"><path d="M448,144c-8.84,0-16,7.16-16,16v16H80v-16c0-8.84-7.16-16-16-16s-16,7.16-16,16v304c0,8.84,7.16,16,16,16s16-7.16,16-16v-64h352v64c0,8.84,7.16,16,16,16s16-7.16,16-16V160c0-8.84-7.16-16-16-16ZM240,304v64h-64v-64h64ZM176,272v-64h64v64h-64ZM272,304h64v64h-64v-64ZM272,272v-64h64v64h-64ZM368,208h64v64h-64v-64ZM144,208v64h-64v-64h64ZM80,304h64v64h-64v-64ZM368,368v-64h64v64h-64Z"/><circle cx="344" cy="88" r="40"/></svg>