<?xml version="1.0" encoding="UTF-8"?><svg id="Icon" xmlns="http://www.w3.org/2000/svg" viewBox="0 0 512 512"><path d="M275.63,410.1h-48.03l-13.09,36.65h-22.48l47.31-127.92h24.92l48.39,127.92h-23.83l-13.18-36.65ZM269.49,392.59l-10.74-30.33c-2.53-7.22-4.91-14.56-7.13-22.03-1.81,6.32-4.21,13.66-7.22,22.03l-10.74,30.33h35.84Z"/><path d="M313.96,446.76v-127.92h37.56c7.58,0,13.8.51,18.64,1.54,4.84,1.02,9.01,2.71,12.5,5.06,9.15,6.08,13.72,15.2,13.72,27.35,0,8.37-2.18,15.33-6.54,20.9-4.36,5.57-10.64,9.38-18.82,11.42,4.27,1.57,7.46,3.72,9.57,6.45,2.11,2.74,5.15,8.74,9.12,18.01l15.98,37.19h-23.92l-11.83-27.81c-2.83-6.68-4.98-11.36-6.46-14.04-1.48-2.68-3.15-4.95-5.01-6.82-3.55-3.49-9.06-5.24-16.52-5.24h-5.6v53.9h-22.39ZM335.99,375.35h8.58c8.49,0,14.93-1.08,19.32-3.25,6.44-3.19,9.66-8.73,9.66-16.61,0-7.34-2.59-12.52-7.76-15.53-4.09-2.41-10.83-3.61-20.22-3.61h-9.57v39Z"/><path d="M151.18,446.76l-46.67-127.92h23.74l25.19,70.6c4.51,12.76,8.03,23.5,10.56,32.23,3.91-12.64,7.46-23.44,10.65-32.41l25.37-70.42h22.3l-46.67,127.92h-24.47Z"/><path d="M414.39,97.61c-42.31-42.31-98.56-65.61-158.39-65.61s-116.08,23.3-158.39,65.61c-42.31,42.31-65.61,98.56-65.61,158.39,0,54.92,20.07,107.75,56.52,148.76,3.16,3.56,7.55,5.37,11.96,5.37,3.78,0,7.58-1.33,10.62-4.04,6.6-5.87,7.2-15.98,1.33-22.59-31.24-35.15-48.44-80.43-48.44-127.5,0-105.87,86.13-192,192-192s192,86.13,192,192c0,46.62-16.92,91.58-47.63,126.58-5.83,6.64-5.17,16.75,1.47,22.58,6.64,5.83,16.75,5.17,22.58-1.47,35.84-40.84,55.58-93.29,55.58-147.68,0-59.83-23.3-116.08-65.61-158.39Z"/><path d="M324.69,164.69l-60.4,60.4c-2.64-.71-5.42-1.09-8.28-1.09-17.67,0-32,14.33-32,32s14.33,32,32,32,32-14.33,32-32c0-2.87-.38-5.64-1.09-8.28l60.4-60.4c6.25-6.25,6.25-16.38,0-22.63-6.25-6.25-16.38-6.25-22.63,0Z"/></svg>