<?xml version="1.0" encoding="UTF-8"?><svg id="Icon" xmlns="http://www.w3.org/2000/svg" viewBox="0 0 512 512"><path d="M195.67,447.08c-1.9,0-3.75-.39-5.5-1.16-6.9-3.06-10.03-11.14-6.99-18.03,5.1-11.58,7.56-17.36,7.56-22.31s-2.45-10.73-7.56-22.31c-6.21-14.09-10.32-23.39-10.54-33.95,0-.31,0-.59,0-.87,0-10.21,3.81-19.76,10.83-33.8,2.33-4.66,7.02-7.55,12.23-7.55,2.1,0,4.21.5,6.1,1.44,6.74,3.37,9.48,11.6,6.12,18.33-5.94,11.87-8.03,16.93-7.96,21.69.08,5.2,2.98,11.77,8.23,23.69,6.13,13.91,9.85,23.1,9.85,33.34s-3.72,19.42-9.85,33.34c-2.19,4.96-7.1,8.16-12.51,8.16Z"/><path d="M256.34,447.08c-1.9,0-3.75-.39-5.5-1.16-6.9-3.06-10.03-11.14-6.99-18.03,5.1-11.58,7.56-17.36,7.56-22.31s-2.45-10.73-7.56-22.31c-6.21-14.09-10.32-23.39-10.54-33.95,0-.31,0-.59,0-.87,0-10.21,3.81-19.76,10.83-33.8,2.33-4.66,7.02-7.55,12.23-7.55,2.1,0,4.21.5,6.1,1.44,6.74,3.37,9.48,11.6,6.12,18.33-5.94,11.87-8.03,16.93-7.96,21.69.08,5.2,2.98,11.77,8.23,23.69,6.13,13.91,9.85,23.1,9.85,33.34s-3.72,19.42-9.85,33.34c-2.19,4.96-7.1,8.16-12.51,8.16Z"/><path d="M317,447.08c-1.9,0-3.75-.39-5.5-1.16-6.9-3.06-10.03-11.14-6.99-18.03,5.1-11.58,7.56-17.36,7.56-22.31s-2.45-10.73-7.56-22.31c-6.21-14.09-10.32-23.39-10.54-33.95,0-.31,0-.59,0-.87,0-10.21,3.81-19.76,10.83-33.8,2.33-4.66,7.02-7.55,12.23-7.55,2.1,0,4.21.5,6.1,1.44,6.74,3.37,9.48,11.6,6.12,18.33-5.94,11.87-8.03,16.93-7.96,21.69.08,5.2,2.98,11.77,8.23,23.69,6.13,13.91,9.85,23.1,9.85,33.34s-3.72,19.42-9.85,33.34c-2.19,4.96-7.1,8.16-12.51,8.16Z"/><path d="M363.21,263.13c0-4.69-3.96-8.66-8.66-8.66h-197.1c-4.69,0-8.66,3.96-8.66,8.66v19.08h214.41v-19.08Z"/><path d="M426.01,84.92H85.99c-29.77,0-53.99,24.22-53.99,53.99v91.25c0,29.77,24.22,53.99,53.99,53.99h49.24v-36.93c0-6.89,5.6-12.49,12.49-12.49h216.55c6.89,0,12.49,5.6,12.49,12.49v36.93h49.24c29.77,0,53.99-24.22,53.99-53.99v-91.25c0-29.77-24.22-53.99-53.99-53.99ZM417.78,164.96H94.22c-8.84,0-16-7.16-16-16s7.16-16,16-16h323.56c8.84,0,16,7.16,16,16s-7.16,16-16,16Z"/></svg>