<?xml version="1.0" encoding="UTF-8"?><svg id="Icon" xmlns="http://www.w3.org/2000/svg" viewBox="0 0 512 512"><path d="M149.62,202.04h.01c33.84,0,55.44-6.08,72.21-20.34,27.51-23.38,27.18-42.76,26.38-89.57-.06-3.68-.13-7.61-.19-11.8-.13-8.84-7.41-15.92-16.23-15.77-8.84.13-15.89,7.4-15.77,16.23.06,4.22.13,8.17.19,11.88.78,45.27.28,51.56-15.11,64.64-10.63,9.04-25.55,12.72-51.49,12.72h-.01c-19.54,0-43.53-2.11-73.91-4.79-4.07-.36-8.25-.73-12.53-1.1-8.81-.77-16.56,5.75-17.33,14.55-.77,8.8,5.75,16.56,14.55,17.33,4.27.37,8.44.74,12.52,1.1,31.15,2.75,55.76,4.92,76.7,4.92Z"/><path d="M268.19,119.13h120.62c8.84,0,16-7.16,16-16s-7.16-16-16-16h-120.62c-8.84,0-16,7.16-16,16s7.16,16,16,16Z"/><path d="M77.8,205.12c-8.84,0-16,7.16-16,16v120.62c0,8.84,7.16,16,16,16s16-7.16,16-16v-120.62c0-8.84-7.16-16-16-16Z"/><path d="M268.37,155.85c-8.38-2.8-17.45,1.73-20.24,10.11-2.8,8.38,1.73,17.45,10.11,20.24l114.41,38.2c1.68.56,3.39.83,5.07.83,6.7,0,12.94-4.24,15.17-10.94,2.8-8.38-1.73-17.44-10.11-20.24l-114.41-38.2Z"/><path d="M306.28,320.31c4.09,0,8.19-1.56,11.31-4.69,6.25-6.25,6.25-16.38,0-22.63l-87.79-87.8c-6.25-6.25-16.38-6.25-22.63,0-6.25,6.25-6.25,16.38,0,22.63l87.79,87.8c3.12,3.12,7.22,4.69,11.31,4.69Z"/><path d="M165.84,224.79c-1.64-8.68-10.02-14.39-18.7-12.75-8.68,1.64-14.39,10.01-12.75,18.7l22.11,116.83c1.45,7.68,8.17,13.03,15.7,13.03.99,0,1.99-.09,2.99-.28,8.68-1.64,14.39-10.01,12.75-18.7l-22.11-116.83Z"/><path d="M488.74,289.64l-38.7-45.85c-5.68-6.72-15.71-7.6-22.46-1.98-.93.63-1.79,1.36-2.57,2.17l-43.37,36.6c-6.75,5.7-7.61,15.79-1.91,22.55,5.7,6.75,15.79,7.61,22.55,1.91l13.74-11.59c-14.65,61.68-63.82,110.14-125.89,123.75l14.32-16.85c5.72-6.73,4.9-16.83-1.83-22.55-6.73-5.72-16.83-4.9-22.55,1.83l-38.85,45.73c-2.75,3.23-4.1,7.43-3.75,11.66.3,3.73,1.91,7.22,4.5,9.87,1.26,1.61,2.82,2.97,4.6,4.01l42.22,35.86c3.01,2.56,6.69,3.81,10.35,3.81,4.53,0,9.04-1.92,12.2-5.64,5.72-6.73,4.9-16.83-1.83-22.55l-15.6-13.25c78.4-15.87,140.13-78.22,155.1-156.93l15.28,18.11c3.17,3.75,7.68,5.68,12.24,5.68,3.64,0,7.31-1.24,10.31-3.77,6.75-5.7,7.61-15.79,1.91-22.55Z"/></svg>