<?xml version="1.0" encoding="UTF-8"?><svg id="Icon" xmlns="http://www.w3.org/2000/svg" viewBox="0 0 512 512"><path d="M271.23,112.13c-.06-3.68-.13-7.61-.19-11.8-.13-8.76-7.27-15.77-15.99-15.77-.08,0-.16,0-.24,0-8.84.13-15.89,7.4-15.77,16.23.06,4.22.13,8.17.19,11.88.78,45.27.28,51.56-15.11,64.64-10.63,9.04-25.55,12.72-51.49,12.72h-.01c-19.54,0-43.53-2.11-73.91-4.79-4.07-.36-8.25-.73-12.53-1.1-8.81-.77-16.56,5.75-17.33,14.55-.77,8.8,5.75,16.56,14.55,17.33,4.27.37,8.44.74,12.52,1.1,31.15,2.75,55.76,4.92,76.7,4.92h.01c33.84,0,55.44-6.08,72.21-20.34,27.51-23.38,27.18-42.76,26.38-89.57Z"/><path d="M404.24,192.33c0-.51-.03-1.02-.08-1.53-.02-.24-.07-.48-.1-.72-.04-.28-.07-.55-.13-.82-.05-.27-.13-.54-.2-.8-.06-.24-.11-.48-.18-.72-.08-.26-.18-.51-.27-.77-.09-.24-.16-.48-.26-.71-.1-.24-.21-.46-.32-.7-.11-.24-.22-.49-.35-.72-.12-.22-.25-.43-.38-.65-.14-.23-.27-.47-.42-.69-.16-.24-.34-.46-.51-.69-.14-.19-.27-.38-.42-.56-.67-.82-1.42-1.56-2.23-2.23-.19-.15-.38-.29-.58-.43-.23-.17-.45-.34-.68-.5-.23-.15-.47-.29-.7-.43-.21-.13-.42-.26-.64-.38-.24-.13-.49-.24-.73-.35-.23-.11-.45-.22-.68-.32-.24-.1-.48-.18-.73-.27-.25-.09-.49-.19-.75-.26-.24-.07-.49-.13-.74-.19-.26-.07-.52-.14-.78-.19-.28-.06-.57-.09-.86-.13-.23-.03-.46-.08-.69-.1-.53-.05-1.05-.08-1.58-.08h-60c-8.84,0-16,7.16-16,16s7.16,16,16,16h21.37l-22.69,22.69c-6.25,6.25-6.25,16.38,0,22.63,3.12,3.12,7.22,4.69,11.31,4.69s8.19-1.56,11.31-4.69l22.69-22.69v21.37c0,8.84,7.16,16,16,16s16-7.16,16-16v-60s0-.03,0-.04Z"/><path d="M252.09,371.72h-20.91l22.39-22.39c6.25-6.25,6.25-16.38,0-22.63-6.25-6.25-16.38-6.25-22.63,0l-22.85,22.85v-21.83c0-8.84-7.16-16-16-16s-16,7.16-16,16v60c0,2.87.77,5.56,2.09,7.89.72,1.33,1.64,2.59,2.76,3.71,3.12,3.12,7.22,4.69,11.31,4.69,1.02,0,2.04-.1,3.05-.29h56.78c8.84,0,16-7.16,16-16s-7.16-16-16-16Z"/><path d="M252.8,225.19c-6.25-6.25-16.38-6.25-22.63,0s-6.25,16.38,0,22.63l87.79,87.8c3.12,3.12,7.22,4.69,11.31,4.69s8.19-1.56,11.31-4.69c6.25-6.25,6.25-16.38,0-22.63l-87.79-87.8Z"/></svg>