<?xml version="1.0" encoding="UTF-8"?><svg id="Icon" xmlns="http://www.w3.org/2000/svg" viewBox="0 0 512 512"><path d="M441.54,312.77c-4.07-3.02-9.32-3.93-14.17-2.47l-352,106.39c-7.59,2.29-12.36,9.81-11.2,17.66,1.16,7.85,7.9,13.66,15.83,13.66h352c8.84,0,16-7.16,16-16v-106.39c0-5.06-2.4-9.83-6.46-12.85ZM416,416h-158.82v-20.84l158.82-48v68.84Z"/><path d="M185.69,246.42c14.63,0,28.81-4.6,40.84-10.34,7.65,5.85,17.1,9.49,27.49,9.83-3.68,20.67-33.65,38-33.65,38-23.57,8.68-19.47,25.49-19.47,25.49,8.75,21.72,24.2,27.6,38.35,27.6,16.75,0,31.7-8.23,31.7-8.23,46.54-32.06,36.23-71.62,20.18-98.61,6.85-7.67,11.13-17.48,11.5-28.32,19.24,7.41,33.01,34.4,33.01,34.4,5.72,19.3,18.65,21.01,23.08,21.01.96,0,1.52-.08,1.52-.08,50.36-14.5,25.76-66.05,25.76-66.05-17.25-28.23-38.9-37.37-59.74-37.37-15.04,0-29.66,4.77-41.88,10.56-6.59-4.96-14.52-8.19-23.25-9.17,4.31-20.24,32.84-37.28,32.84-37.28,23.43-8.96,19.13-25.72,19.13-25.72-8.91-21.3-24.1-27.14-38.09-27.14-17.01,0-32.23,8.64-32.23,8.64-43.97,31.08-36.19,68.48-21.17,95.11-7.45,7.56-12.14,17.59-12.88,28.69-18.88-7.56-32.8-33.31-32.8-33.31-5.99-18.62-18.4-20.5-23.16-20.5-1.2,0-1.91.12-1.91.12-50.02,15.63-24.2,66.6-24.2,66.6,17.47,27.16,38.68,36.06,59.03,36.06ZM256,169.72c17.28,0,31.28,14,31.28,31.28s-14,31.28-31.28,31.28-31.28-14-31.28-31.28,14-31.28,31.28-31.28Z"/></svg>