<?xml version="1.0" encoding="UTF-8"?><svg id="Icon" xmlns="http://www.w3.org/2000/svg" viewBox="0 0 512 512"><path d="M438.23,139.73l-176-74.46c-3.99-1.69-8.48-1.69-12.47,0l-176,74.46c-5.92,2.5-9.77,8.31-9.77,14.74v243.69c0,27.49,22.36,49.85,49.85,49.85h284.31c27.49,0,49.85-22.36,49.85-49.85v-243.69c0-6.43-3.85-12.23-9.77-14.74ZM256,256c8.84,0,16-7.16,16-16v-16h24v80h-80v-80h24v16c0,8.84,7.16,16,16,16ZM352,416h-80v-80h24v16c0,8.84,7.16,16,16,16s16-7.16,16-16v-16h24v80ZM200,368c8.84,0,16-7.16,16-16v-16h24v80h-80v-80h24v16c0,8.84,7.16,16,16,16ZM416,398.15c0,9.84-8.01,17.85-17.85,17.85h-14.15v-96c0-8.84-7.16-16-16-16h-40v-96c0-8.84-7.16-16-16-16h-112c-8.84,0-16,7.16-16,16v96h-40c-8.84,0-16,7.16-16,16v96h-14.15c-9.84,0-17.85-8.01-17.85-17.85v-233.09l160-67.69,160,67.69v233.09Z"/></svg>