<?xml version="1.0" encoding="UTF-8"?><svg id="Icon" xmlns="http://www.w3.org/2000/svg" viewBox="0 0 512 512"><path d="M472.52,368.47c-.04-.07-.09-.15-.13-.22L303.73,86.68c-7.73-12.75-19.96-21.72-34.45-25.27-14.48-3.55-29.48-1.24-42.22,6.49-7.65,4.64-14.14,11.13-18.77,18.78-.02.02-.03.05-.04.07L39.62,368.25c-.04.07-.09.15-.13.22-15.39,26.65-6.23,60.86,20.42,76.25,8.29,4.79,17.73,7.37,27.3,7.48.06,0,.12,0,.18,0h337.24c.06,0,.12,0,.18,0,30.77-.34,55.54-25.65,55.2-56.43-.11-9.57-2.69-19.01-7.48-27.3ZM236.8,175.2c0-10.6,8.6-19.2,19.2-19.2s19.2,8.6,19.2,19.2v115.2c0,10.6-8.6,19.2-19.2,19.2s-19.2-8.6-19.2-19.2v-115.2ZM256.17,396h-.34c-13.16,0-23.83-10.75-23.83-24s10.67-24,23.83-24h.34c13.16,0,23.83,10.75,23.83,24s-10.67,24-23.83,24Z"/></svg>