<?xml version="1.0" encoding="UTF-8"?><svg id="Icon" xmlns="http://www.w3.org/2000/svg" viewBox="0 0 512 512"><path d="M472.52,368.47c-.04-.07-.09-.15-.13-.22L303.73,86.68c-7.73-12.75-19.96-21.72-34.45-25.27-14.48-3.55-29.48-1.24-42.22,6.49-7.65,4.64-14.14,11.13-18.77,18.78-.02.02-.03.05-.04.07L39.62,368.25c-.04.07-.09.15-.13.22-15.39,26.65-6.23,60.86,20.42,76.25,8.29,4.79,17.73,7.37,27.3,7.48.06,0,.12,0,.18,0h337.24c.06,0,.12,0,.18,0,30.77-.34,55.54-25.65,55.2-56.43-.11-9.57-2.69-19.01-7.48-27.3ZM424.52,420.2H87.49c-4.06-.06-8.06-1.16-11.57-3.19-11.34-6.55-15.26-21.08-8.77-32.44L235.66,103.24c1.98-3.25,4.74-6.01,7.99-7.98,5.44-3.3,11.84-4.28,18.02-2.77,6.18,1.51,11.4,5.34,14.65,10.71l168.54,281.37c2.01,3.51,3.09,7.51,3.13,11.55.14,13.11-10.38,23.89-23.48,24.08Z"/><path d="M256,304c8.84,0,16-7.16,16-16v-96c0-8.84-7.16-16-16-16s-16,7.16-16,16v96c0,8.84,7.16,16,16,16Z"/><path d="M256.14,336h-.29c-10.97,0-19.86,8.96-19.86,20s8.89,20,19.86,20h.29c10.97,0,19.86-8.96,19.86-20s-8.89-20-19.86-20Z"/></svg>