<?xml version="1.0" encoding="UTF-8"?><svg id="Icon" xmlns="http://www.w3.org/2000/svg" viewBox="0 0 512 512"><circle cx="136" cy="120" r="14"/><circle cx="296" cy="120" r="14"/><circle cx="376" cy="120" r="14"/><path d="M400,64H112c-26.47,0-48,21.53-48,48v288c0,26.47,21.53,48,48,48h288c26.47,0,48-21.53,48-48V112c0-26.47-21.53-48-48-48ZM112,96h288c8.82,0,16,7.18,16,16v32H96v-32c0-8.82,7.18-16,16-16ZM400,416H112c-8.82,0-16-7.18-16-16v-224h320v224c0,8.82-7.18,16-16,16Z"/><path d="M256,208c-48.52,0-88,39.48-88,88s39.48,88,88,88,88-39.48,88-88-39.48-88-88-88ZM257.69,300.23c-23.82-21.24-44.79-16.29-57.45-9.29,2.57-28.51,26.59-50.94,55.76-50.94,30.88,0,56,25.12,56,56,0,5.43-.79,10.68-2.24,15.65-11.91,5.74-30.27,8.02-52.07-11.43Z"/></svg>