<?xml version="1.0" encoding="UTF-8"?><svg id="Icon" xmlns="http://www.w3.org/2000/svg" viewBox="0 0 512 512"><path d="M368,96c0-35.29-28.71-64-64-64h-100c-8.84,0-16,7.16-16,16s7.16,16,16,16h4c0,8.84,7.16,16,16,16h32c8.84,0,16-7.16,16-16h32c17.64,0,32,14.36,32,32,0,11.93-6.57,22.35-16.28,27.85-2.04-15.69-15.48-27.85-31.72-27.85h-96c-17.64,0-32,14.35-32,32v32c-8.84,0-16,7.16-16,16v288c0,8.84,7.16,16,16,16h160c8.84,0,16-7.16,16-16V176c0-8.84-7.16-16-16-16v-2.03c27.57-7.12,48-32.21,48-61.97ZM192,128h96v32h-96v-32ZM304,448h-128V192h128v256Z"/></svg>