<?xml version="1.0" encoding="UTF-8"?><svg id="Icon" xmlns="http://www.w3.org/2000/svg" viewBox="0 0 512 512"><path d="M240.26,68.54c-.71.44-1.38.91-2.01,1.39-.09.07-.19.14-.29.22l-.75.58c-1.5,1.24-3.72,3.15-6.07,5.2-4.78,4.16-9.89,8.83-15.19,13.85-16.53,15.64-31.94,31.97-45.8,48.55-37.04,44.33-59.66,86.47-67.21,125.26-1.88,9.69-2.84,19.28-2.84,28.51,0,85.96,69.94,155.9,155.9,155.9,40.78,0,79.35-15.64,108.6-44.05,29.19-28.34,45.96-66.31,47.22-106.91l.07-4.7v-.25c0-9.22-.95-18.81-2.84-28.51-7.55-38.78-30.17-80.93-67.21-125.26-13.86-16.57-29.27-32.91-45.79-48.54-5.31-5.03-10.42-9.7-15.17-13.83-2.38-2.08-4.6-3.99-6.1-5.23l-1-.78c-.35-.27-.71-.53-1.08-.78l-.43-.32-.37-.21c-.13-.08-.26-.17-.4-.25v.02s-1.02-.61-1.02-.61c-.85-.49-1.72-.93-2.6-1.31l-1.56-.62-1.91-.65c-.59-.18-1.19-.33-1.9-.5l-.69-.15c-.52-.1-1.04-.18-1.59-.26-.81-.12-1.63-.21-2.46-.25-.59-.03-1.18-.06-1.79-.06l-1.66.06c-.86.04-1.72.13-2.54.25-.52.07-1.05.15-1.57.25l-.9.2c-.57.14-1.13.28-1.7.45l-.47.15.07-.02c-.32.1-.64.2-.95.31l-.31.11c-.55.2-1.1.43-1.66.66l-.39.17c-.64.29-1.29.61-1.98.98l-.63.36.03-.02c-.36.2-.71.41-1.07.64ZM252.2,100.03c1.63-1.43,2.89-2.52,3.8-3.29.91.77,2.18,1.87,3.83,3.31,4.44,3.87,9.22,8.23,14.22,12.97,15.63,14.79,30.18,30.21,43.24,45.82,33.54,40.14,53.85,77.44,60.35,110.85,1.49,7.64,2.24,15.14,2.25,22.27l-.06,4.19c-1.04,32.21-14.36,62.33-37.53,84.82-23.25,22.57-53.9,35.01-86.3,35.01-68.27,0-123.82-55.51-123.9-123.67v-.39s0,0,0,0c.01-7.13.77-14.61,2.25-22.23,6.51-33.42,26.82-70.72,60.35-110.85,13.06-15.62,27.61-31.04,43.25-45.84,4.99-4.73,9.77-9.09,14.24-12.99Z"/><path d="M218.09,346.94c-25.26-11.56-31.25-40.64-30.2-52.91.75-8.8-5.77-16.55-14.58-17.31-8.79-.75-16.55,5.77-17.31,14.58-1.11,12.98,1.9,28.98,8.05,42.8,8.53,19.15,22.6,33.65,40.72,41.93,2.16.99,4.42,1.46,6.65,1.46,6.07,0,11.87-3.47,14.56-9.35,3.68-8.04.14-17.53-7.89-21.21Z"/></svg>