<?xml version="1.0" encoding="UTF-8"?><svg id="Icon" xmlns="http://www.w3.org/2000/svg" viewBox="0 0 512 512"><path d="M479.96,180.74c0-5.47-.05-10.95.03-16.42.02-1.87-.69-2.64-2.55-2.6-2.83.06-5.64-.33-8.39-.91-15.82-3.31-28.98-11.79-41.49-21.51-5.53-4.3-10.86-8.86-16.72-12.73-3.58-2.37-7.13-2.5-10.81-.21-3.93,2.45-7.53,5.33-11.16,8.18-10.57,8.28-21.14,16.52-33.65,21.85-15.26,6.5-30.52,7.24-46.13,1.16-12.29-4.79-22.78-12.36-33.09-20.3-4.4-3.39-8.64-6.96-13.23-10.12-4.46-3.06-8.61-3.02-13.04.04-3.31,2.29-6.45,4.78-9.61,7.26-10.22,8.02-20.53,15.86-32.45,21.37-19.53,9.02-38.48,7.53-57.14-2.39-9.24-4.92-17.5-11.29-25.75-17.68-3.98-3.09-7.83-6.34-12.1-9.05-3.58-2.27-7.13-2.76-10.8-.38-2.01,1.3-4,2.62-5.89,4.08-10.62,8.19-20.86,16.9-32.87,23.12-8.74,4.52-17.85,7.86-27.8,8.17-2.64.08-3.33,1.11-3.3,3.57.1,9.32.04,9.31.04,18.63q0,6.35,6.21,5.99c12.89-.76,25.09-4.22,36.71-9.72,11.28-5.34,21.63-12.08,30.31-21.17,1.27-1.34,2.27-1.16,3.42.06,1.11,1.18,2.2,2.39,3.42,3.44,8.65,7.5,18.34,13.41,28.74,18.12,20.48,9.28,41.61,12.5,63.66,6.4,18.86-5.23,35.7-14.09,49.86-27.77.9-.87,1.56-1.95,3.08-.47,11.4,11.15,24.63,19.42,39.57,25.03,11.09,4.16,22.57,6.39,34.35,6.39,11.35,0,22.4-2.32,33.04-6.37,14.8-5.63,28.13-13.58,39.29-24.93,1.26-1.28,2.04-1,3.15.11,6.19,6.21,13.26,11.27,20.82,15.69,15.3,8.95,31.69,14.36,49.42,15.58,2.04.14,2.98-.46,2.94-2.67-.1-5.39-.03-1.44-.04-6.83Z"/><path d="M479.96,275.25c0-5.47-.05-10.95.03-16.42.02-1.87-.69-2.64-2.55-2.6-2.83.06-5.64-.33-8.39-.91-15.82-3.31-28.98-11.79-41.49-21.51-5.53-4.3-10.86-8.86-16.72-12.73-3.58-2.37-7.13-2.5-10.81-.21-3.93,2.45-7.53,5.33-11.16,8.18-10.57,8.28-21.14,16.52-33.65,21.85-15.26,6.5-30.52,7.24-46.13,1.16-12.29-4.79-22.78-12.36-33.09-20.3-4.4-3.39-8.64-6.96-13.23-10.12-4.46-3.06-8.61-3.02-13.04.04-3.31,2.29-6.45,4.79-9.61,7.26-10.22,8.02-20.53,15.86-32.45,21.37-19.53,9.01-38.48,7.53-57.14-2.39-9.24-4.92-17.5-11.29-25.75-17.68-3.98-3.09-7.83-6.34-12.1-9.05-3.58-2.27-7.13-2.76-10.8-.38-2.01,1.3-4,2.62-5.89,4.08-10.62,8.19-20.86,16.9-32.87,23.12-8.74,4.52-17.85,7.86-27.8,8.17-2.64.08-3.33,1.11-3.3,3.57.1,9.32.04,9.31.04,18.63q0,6.35,6.21,5.99c12.89-.76,25.09-4.22,36.71-9.72,11.28-5.34,21.63-12.08,30.31-21.17,1.27-1.34,2.27-1.16,3.42.06,1.11,1.18,2.2,2.39,3.42,3.44,8.65,7.5,18.34,13.41,28.74,18.12,20.48,9.28,41.61,12.5,63.66,6.4,18.86-5.23,35.7-14.09,49.86-27.77.9-.87,1.56-1.95,3.08-.47,11.4,11.15,24.63,19.42,39.57,25.03,11.09,4.16,22.57,6.39,34.35,6.39,11.35,0,22.4-2.32,33.04-6.37,14.8-5.63,28.13-13.58,39.29-24.93,1.26-1.28,2.04-1,3.15.11,6.19,6.21,13.26,11.27,20.82,15.69,15.3,8.95,31.69,14.36,49.42,15.58,2.04.14,2.98-.46,2.94-2.67-.1-5.39-.03-1.44-.04-6.83Z"/><path d="M479.96,369.76c0-5.47-.05-10.95.03-16.42.02-1.87-.69-2.64-2.55-2.6-2.83.06-5.64-.33-8.39-.91-15.82-3.31-28.98-11.79-41.49-21.51-5.53-4.3-10.86-8.86-16.72-12.73-3.58-2.37-7.13-2.5-10.81-.21-3.93,2.45-7.53,5.33-11.16,8.18-10.57,8.28-21.14,16.52-33.65,21.85-15.26,6.5-30.52,7.24-46.13,1.16-12.29-4.79-22.78-12.36-33.09-20.3-4.4-3.39-8.64-6.96-13.23-10.12-4.46-3.06-8.61-3.02-13.04.04-3.31,2.29-6.45,4.79-9.61,7.26-10.22,8.02-20.53,15.86-32.45,21.37-19.53,9.02-38.48,7.53-57.14-2.39-9.24-4.92-17.5-11.29-25.75-17.68-3.98-3.09-7.83-6.34-12.1-9.05-3.58-2.27-7.13-2.76-10.8-.38-2.01,1.3-4,2.62-5.89,4.08-10.62,8.19-20.86,16.9-32.87,23.12-8.74,4.52-17.85,7.86-27.8,8.17-2.64.08-3.33,1.11-3.3,3.57.1,9.32.04,9.31.04,18.63q0,6.35,6.21,5.99c12.89-.76,25.09-4.22,36.71-9.72,11.28-5.34,21.63-12.08,30.31-21.17,1.27-1.34,2.27-1.16,3.42.06,1.11,1.18,2.2,2.39,3.42,3.44,8.65,7.5,18.34,13.41,28.74,18.12,20.48,9.28,41.61,12.5,63.66,6.4,18.86-5.23,35.7-14.09,49.86-27.77.9-.87,1.56-1.95,3.08-.47,11.4,11.15,24.63,19.42,39.57,25.03,11.09,4.16,22.57,6.39,34.35,6.39,11.35,0,22.4-2.32,33.04-6.37,14.8-5.63,28.13-13.58,39.29-24.93,1.26-1.28,2.04-1,3.15.11,6.19,6.21,13.26,11.27,20.82,15.69,15.3,8.95,31.69,14.36,49.42,15.58,2.04.14,2.98-.46,2.94-2.67-.1-5.39-.03-1.44-.04-6.83Z"/></svg>