<?xml version="1.0" encoding="UTF-8"?><svg id="Icon" xmlns="http://www.w3.org/2000/svg" viewBox="0 0 512 512"><path d="M409.06,263.59c-7.55-38.78-30.17-80.93-67.21-125.26-13.86-16.58-29.27-32.91-45.79-48.54-5.31-5.03-10.42-9.69-15.17-13.83-2.39-2.1-4.62-4.01-6.11-5.23l-1.01-.79c-.35-.27-.71-.53-1.08-.78l-.41-.3-.35-.2c-.14-.09-.28-.17-.41-.26v.02s-1.04-.62-1.04-.62c-.85-.49-1.74-.94-2.62-1.32l-1.55-.62-1.88-.64c-.58-.17-1.17-.32-1.76-.47l-.88-.2c-.51-.1-1.01-.18-1.55-.25-.81-.12-1.63-.21-2.46-.25-.59-.03-1.18-.06-1.79-.06l-1.66.06c-.86.04-1.72.13-2.54.25-.51.07-1.03.15-1.54.25l-.98.22c-.55.14-1.11.28-1.66.44l-.44.14.06-.02c-.33.1-.65.2-.97.31l-.27.1c-.57.21-1.12.43-1.69.67l-.34.15c-.64.29-1.3.61-2,.99l-.67.38.03-.02c-.35.2-.69.4-1.04.63-.71.44-1.38.91-2.02,1.39-.09.07-.19.15-.3.22l-.75.58c-1.51,1.25-3.73,3.15-6.07,5.2-4.78,4.17-9.9,8.83-15.18,13.85-16.53,15.64-31.94,31.98-45.8,48.55-37.04,44.33-59.66,86.47-67.21,125.26-1.89,9.69-2.84,19.28-2.84,28.51,0,85.96,69.94,155.9,155.9,155.9,40.78,0,79.35-15.64,108.6-44.05,29.19-28.34,45.96-66.31,47.22-106.91l.07-4.7v-.25c0-9.23-.95-18.82-2.84-28.51ZM225.99,368.14c-2.69,5.88-8.49,9.35-14.56,9.35-2.23,0-4.49-.47-6.65-1.46-18.11-8.29-32.19-22.79-40.72-41.93-6.16-13.82-9.17-29.82-8.05-42.8.75-8.8,8.51-15.33,17.31-14.57,8.8.75,15.33,8.5,14.57,17.31-1.05,12.27,4.95,41.35,30.2,52.9,8.04,3.68,11.57,13.17,7.89,21.21Z"/></svg>