<?xml version="1.0" encoding="UTF-8"?><svg id="Icon" xmlns="http://www.w3.org/2000/svg" viewBox="0 0 512 512"><path d="M206.03,446.76l-29.97-127.92h22.48l15.44,69.88c2.23,10.11,4.18,19.86,5.87,29.25,2.11-9.57,4.36-19.05,6.77-28.44l18.24-70.69h23.56l17.51,68.43c2.89,11.19,5.21,21.01,6.95,29.43,1.56-8.67,3.58-18.42,6.05-29.25l15.71-68.61h21.31l-30.69,127.92h-23.83l-17.69-68.61c-2.71-10.41-5.24-20.91-7.58-31.51-2.23,9.69-4.85,20.1-7.85,31.24l-18.33,68.88h-23.92Z"/><path d="M414.39,97.61c-42.31-42.31-98.56-65.61-158.39-65.61s-116.08,23.3-158.39,65.61c-42.31,42.31-65.61,98.56-65.61,158.39,0,54.92,20.07,107.75,56.52,148.76,3.16,3.56,7.55,5.37,11.96,5.37,3.78,0,7.58-1.33,10.62-4.04,6.6-5.87,7.2-15.98,1.33-22.59-31.24-35.15-48.44-80.43-48.44-127.5,0-105.87,86.13-192,192-192s192,86.13,192,192c0,46.62-16.92,91.58-47.63,126.58-5.83,6.64-5.17,16.75,1.47,22.58,6.64,5.83,16.75,5.17,22.58-1.47,35.84-40.84,55.58-93.29,55.58-147.68,0-59.83-23.3-116.08-65.61-158.39Z"/><path d="M324.69,164.69l-60.4,60.4c-2.64-.71-5.42-1.09-8.28-1.09-17.67,0-32,14.33-32,32s14.33,32,32,32,32-14.33,32-32c0-2.87-.38-5.64-1.09-8.28l60.4-60.4c6.25-6.25,6.25-16.38,0-22.63-6.25-6.25-16.38-6.25-22.63,0Z"/></svg>