<?xml version="1.0" encoding="UTF-8"?><svg id="Icon" xmlns="http://www.w3.org/2000/svg" viewBox="0 0 512 512"><path d="M316.8,422.08c-28.99,2.01-55.55-8.13-76.85-29.37l-71.93-71.74c-14.05-14.02-14.09-36.85-.08-50.89,1.01-1.01,2.07-1.96,3.17-2.83l-.06-.06c-14.08-14.05-14.03-36.96.08-51.1,1.95-1.96,4.08-3.65,6.32-5.07-1.22-3.69-1.83-7.61-1.81-11.63.07-9.61,3.83-18.64,10.59-25.41,11.22-11.25,27.99-13.63,41.45-7.1,1.18-1.68,2.52-3.27,3.99-4.75,14.08-14.12,36.98-14.21,51.03-.19l69.35,69.17v-10.94c-.5-11.46,3.28-21.83,10.69-29.26,6.28-6.29,14.75-9.92,23.82-10.24,19.73-.68,35.23,12.97,37.69,33.19l.11,1.13c1,12.85,5.88,78.04,3.91,100.37-2.18,24.67-14.63,48.56-37,70.99-20.95,21-47.16,33.68-73.81,35.71-.22.02-.45.03-.67.05ZM370.31,278.42c-7.45,2.49-15.37.76-20.68-4.54l-89.52-89.29c-1.56-1.55-4.15-1.5-5.77.13-1.07,1.07-1.23,2.36-1.24,3.04,0,.77.18,1.88,1.08,2.78l40.27,40.17c6.26,6.25,6.27,16.39.01,22.64h0c-6.24,6.24-16.36,6.25-22.62.01l-57.13-56.99c-1.5-1.5-4.23-1.41-5.82.19-1.07,1.07-1.24,2.37-1.24,3.05,0,.77.18,1.87,1.07,2.77l13.44,13.41s.03.03.04.04l55.67,55.56c6.24,6.23,6.25,16.34.01,22.58h0c-6.22,6.22-16.31,6.23-22.54.02l-55.75-55.51c-1.51-1.49-4.22-1.39-5.81.2-1.59,1.6-1.67,4.32-.17,5.82l63.3,62.77c6.36,6.35,6.39,16.65.09,22.99-6.38,6.37-16.68,6.37-23.01.06l-37.63-37.88c-.85-.84-1.95-1.02-2.72-1.02-.08,0-.17,0-.27.01-.73.05-1.88.31-2.84,1.3-1.52,1.58-1.39,4.12.16,5.67l71.84,71.65c14.55,14.51,32.54,21.46,52.05,20.1.15-.01.3-.02.44-.03,19.01-1.44,38.03-10.82,53.57-26.39,16.94-16.98,26.28-34.21,27.78-51.21,1.45-16.4-1.78-67.33-3.93-94.94-.65-5.09-3.16-5.01-4.82-4.95-.94.03-1.74.34-2.26.86-1,1-1.49,2.96-1.36,5.38l.02.91-.05,40.09-.07.74c-.65,6.8-5.11,14.94-13.64,17.8M279.97,261.46s.04.04.05.05l-.05-.05Z"/><path d="M387.84,149.44c-7.08,0-13.56-4.74-15.46-11.91-14-52.82-68.36-84.43-121.19-70.44-8.54,2.26-17.3-2.83-19.56-11.37-2.26-8.54,2.83-17.3,11.37-19.56,69.88-18.49,141.79,23.31,160.31,93.18,2.26,8.54-2.83,17.3-11.37,19.56-1.37.36-2.75.54-4.11.54Z"/><path d="M343.8,160.42c-7.08,0-13.56-4.74-15.46-11.91-7.49-28.28-36.61-45.21-64.89-37.72-8.54,2.26-17.3-2.83-19.56-11.37-2.26-8.54,2.83-17.3,11.37-19.56,45.34-12,92,15.12,104.01,60.46,2.26,8.54-2.83,17.3-11.37,19.56-1.37.36-2.75.54-4.11.54Z"/><path d="M142.24,417.16c-1.29,0-2.6-.16-3.91-.49-70.1-17.62-112.82-89-95.22-159.11,2.15-8.57,10.84-13.77,19.41-11.62,8.57,2.15,13.77,10.84,11.62,19.41-13.31,53,18.99,106.96,71.98,120.28,8.57,2.15,13.77,10.85,11.62,19.42-1.83,7.26-8.34,12.1-15.51,12.1Z"/><path d="M152.67,372.98c-1.29,0-2.6-.16-3.91-.49-45.48-11.43-73.2-57.74-61.78-103.23,2.15-8.57,10.85-13.77,19.41-11.62,8.57,2.15,13.77,10.84,11.62,19.41-7.12,28.38,10.17,57.27,38.54,64.4,8.57,2.15,13.77,10.85,11.62,19.42-1.82,7.26-8.34,12.1-15.51,12.1Z"/></svg>