<?xml version="1.0" encoding="UTF-8"?><svg id="Icon" xmlns="http://www.w3.org/2000/svg" viewBox="0 0 512 512"><path d="M343.11,139.97l-4.32-32.65c-2.42-24.76-22.87-43.32-47.7-43.32-.07,0-.13,0-.2,0h-69.61c-24.86.02-45.31,18.62-47.73,43.32l-4.32,32.58c-17.26,3.78-30.22,19.17-30.22,37.55v157.11c0,18.28,12.83,33.61,29.95,37.49l4.43,32.67c2.43,24.74,22.88,43.29,47.7,43.29.07,0,.13,0,.2,0h69.21c.07,0,.13,0,.2,0,24.88,0,45.33-18.55,47.76-43.29l4.43-32.63c17.21-3.82,30.12-19.19,30.12-37.53v-157.11c0-18.26-12.8-33.58-29.89-37.47ZM341,334.56c0,3.55-2.89,6.44-6.44,6.44h-157.11c-3.55,0-6.44-2.89-6.44-6.44v-157.11c0-3.55,2.89-6.44,6.44-6.44h157.11c3.55,0,6.44,2.89,6.44,6.44v157.11ZM205.38,110.56c.75-8.29,7.59-14.55,15.9-14.56h69.66s.04,0,.07,0c8.34,0,15.18,6.25,15.93,14.56.02.22.04.44.07.66l3.68,27.78h-109.08l3.68-27.78c.03-.22.05-.44.07-.66ZM306.62,401.44c-.75,8.31-7.59,14.56-16,14.56h-69.41s-.04,0-.07,0c-8.34,0-15.18-6.25-15.93-14.56-.02-.24-.05-.48-.08-.71l-3.76-27.73h109.09l-3.76,27.73c-.03.24-.06.47-.08.71Z"/></svg>