<?xml version="1.0" encoding="UTF-8"?><svg id="Icon" xmlns="http://www.w3.org/2000/svg" viewBox="0 0 512 512"><path d="M345.79,255.22c-3.86-12.41-17.68-18.69-29.57-13.43l-44.04,19.49,5.38-47.66c1.46-12.9-8.63-24.2-21.62-24.2h0c-12.98,0-23.07,11.3-21.62,24.2l5.38,47.66-43.94-19.44c-11.93-5.28-25.78,1.05-29.6,13.53l-.08.25c-3.78,12.34,3.96,25.24,16.63,27.72l46,8.98-30.59,34.18c-8.64,9.66-6.98,24.68,3.57,32.21l.37.27c10.62,7.59,25.48,4.18,31.74-7.27l22.13-40.53,22.31,40.56c6.29,11.43,21.16,14.8,31.75,7.18l.27-.2c10.5-7.55,12.14-22.54,3.52-32.17l-30.64-34.24,46.11-8.97c12.72-2.47,20.47-15.45,16.62-27.82l-.09-.3Z"/><path d="M392.89,80h-40.89v-16c0-8.84-7.16-16-16-16s-16,7.16-16,16v16h-128v-16c0-8.84-7.16-16-16-16s-16,7.16-16,16v16h-40.89c-30.39,0-55.11,24.72-55.11,55.11v273.78c0,30.39,24.72,55.11,55.11,55.11h273.78c30.39,0,55.11-24.72,55.11-55.11V135.11c0-30.39-24.72-55.11-55.11-55.11ZM416,408.89c0,12.74-10.37,23.11-23.11,23.11H119.11c-12.74,0-23.11-10.37-23.11-23.11V135.11c0-12.74,10.37-23.11,23.11-23.11h40.89v16c0,8.84,7.16,16,16,16s16-7.16,16-16v-16h128v16c0,8.84,7.16,16,16,16s16-7.16,16-16v-16h40.89c12.74,0,23.11,10.37,23.11,23.11v273.78Z"/></svg>