<?xml version="1.0" encoding="UTF-8"?><svg id="Icon" xmlns="http://www.w3.org/2000/svg" viewBox="0 0 512 512"><path d="M479.95,276.9c-.67-8.81-8.36-15.42-17.17-14.74l-57.29,4.36-153.16-127.65c-5.68-4.74-13.88-4.96-19.81-.53l-2.54,1.89c-5.81,4.33-12.24,9.39-19.04,14.73l-43.08,32.21c-.09.07-.19.14-.28.21-5.11,4-7.38,4.34-9.62,4.36-.04,0-.08,0-.11,0-.73-.79-1.57-1.75-2.11-2.37-.5-1.42.73-5.6,2.41-7.36l76.91-70.67,149.02,34.28c1.35.31,2.73.44,4.11.4l.5-.02c8.19-.27,15.16-.58,22.53-.9,3.45-.15,6.95-.31,10.66-.46,8.83-.37,15.69-7.82,15.32-16.65-.37-8.83-7.82-15.69-16.65-15.32-3.74.16-7.27.31-10.75.47-6.8.3-13.24.59-20.58.84l-155.2-35.7c-5.14-1.18-10.53.24-14.41,3.81l-19.97,18.35c-1.54-.49-3.18-.76-4.88-.76h-92.45c-8.84,0-16,7.16-16,16s7.16,16,16,16h63.33l-29.39,27c-.12.11-.23.22-.35.33-12.84,12.53-17.63,36.16-4.31,51.37,7.34,8.38,12.59,13.5,26.69,13.36,13.15-.13,22.33-5.95,28.87-11.04l43.1-32.22c.1-.08.2-.16.31-.23,3.83-3.01,7.54-5.93,11.05-8.64l148.37,123.66c2.89,2.4,6.51,3.71,10.24,3.71.4,0,.81-.02,1.21-.05l10.34-.79c.02.11.03.22.05.33,1.85,9.31-.99,17.29-7.99,22.47-3.57,2.63-8.02,4.26-12.76,4.74l-95.1-87.12c-6.52-5.97-16.64-5.53-22.61.99-5.97,6.52-5.52,16.64.99,22.61l89.29,81.79c-1.45,2.67-3.47,5.11-5.97,7.12-2.19,1.74-4.65,3.12-7.25,4.1l-95.37-87.36c-6.52-5.97-16.64-5.52-22.61.99-5.97,6.52-5.52,16.64.99,22.61l87.42,80.07c-.9,2.96-2.73,5.42-5.52,7.34-3.31,2.3-7.66,3.52-12.57,3.52-1.59,0-3.26-.13-4.95-.39-.25-.26-.49-.52-.75-.76l-89.37-81.28c-6.54-5.95-16.66-5.47-22.6,1.07-5.95,6.54-5.47,16.66,1.07,22.6l82.6,75.13s-.09.08-.14.11c-2.99,2.22-6.46,3.29-10.61,3.29-12.37,0-27.59-9.46-36.87-17.56l-.21-.18L58.1,251.78c-6.85-5.58-16.93-4.55-22.51,2.3s-4.55,16.93,2.3,22.51l162.44,132.26c8.93,7.75,31.95,25.27,57.7,25.27,11.12,0,21.1-3.23,29.69-9.6,3.95-2.93,7.32-6.43,10.03-10.38,1.68.13,3.36.2,5.03.2,11.47,0,22.14-3.2,30.77-9.2,6.36-4.37,11.4-10.09,14.83-16.7,10.64-1.36,20.83-5.63,29.32-12.4,6.32-5.09,11.38-11.38,14.89-18.36,11.04-.81,21.65-4.64,30.28-11.01,16.09-11.91,23.76-30.77,20.93-50.97l21.41-1.63c8.81-.67,15.41-8.36,14.74-17.17Z"/></svg>