<?xml version="1.0" encoding="UTF-8"?><svg id="Icon" xmlns="http://www.w3.org/2000/svg" viewBox="0 0 512 512"><path d="M471.21,205.99l-16.37-23.96c-4.99-7.3-14.94-9.17-22.24-4.18-7.26,4.96-9.15,14.84-4.26,22.12h-105.24c-.1-.06-.21-.14-.32-.21l-1.23-.89c-.53-.39-1.09-.71-1.65-1.02-2.96-1.99-6.64-4.57-10.54-7.56-11.12-8.55-19.28-16.87-22.98-23.42-4.04-7.15-3.59-17.51-2.11-25.79l18.21,2.17c8.79,1.05,16.73-5.22,17.78-14s-5.22-16.73-14-17.78l-31.92-3.79c-7.23-.86-14.13,3.27-16.79,10.05-.37.95-3.68,9.6-5.38,21.26-2.49,17.09-.35,31.77,6.34,43.62,7.39,13.08,20.97,25.21,32.43,33.92l-37.01,51.2-49.58-52.75c-5.6-5.96-14.79-6.73-21.31-1.81l-95.33,72.05h-32.31c-.57,0-1.13.03-1.68.09-2.15.03-4.33.49-6.4,1.45-8.03,3.68-11.56,13.18-7.88,21.21,15.94,34.79,41.41,64.2,73.64,85.06,32.91,21.29,71.28,32.55,110.96,32.55,45.4,0,90.3-15.94,126.43-44.9,35.34-28.32,60.78-67.68,71.62-110.83,2.16-8.57-3.04-17.26-11.62-19.42-8.58-2.16-17.26,3.04-19.42,11.62-9.16,36.42-30.68,69.68-60.6,93.66-30.47,24.42-68.26,37.87-106.42,37.87-33.5,0-65.87-9.48-93.58-27.41-19.81-12.82-36.56-29.49-49.39-48.94h10.28c.54.05,1.08.08,1.62.08s1.08-.03,1.62-.08h168.84c4.1,0,7.95-1.57,10.85-4.25.79-.69,1.51-1.47,2.15-2.36l56.85-78.65h106.26c.28,0,.55,0,.83-.02l18.42-.95c5.78-.3,10.94-3.69,13.51-8.88s2.14-11.35-1.13-16.13ZM140.8,285.23l50.09-37.86,35.58,37.86h-85.67Z"/><path d="M385.18,172.66c23.78,0,43.12-19.34,43.12-43.12s-19.34-43.12-43.12-43.12-43.12,19.34-43.12,43.12,19.34,43.12,43.12,43.12ZM385.18,118.41c6.13,0,11.12,4.99,11.12,11.12s-4.99,11.12-11.12,11.12-11.12-4.99-11.12-11.12,4.99-11.12,11.12-11.12Z"/></svg>