<?xml version="1.0" encoding="UTF-8"?><svg id="Icon" xmlns="http://www.w3.org/2000/svg" viewBox="0 0 512 512"><circle cx="352" cy="400" r="32"/><path d="M475.3,331.52c-3.12-8.27-12.35-12.44-20.62-9.31l-12.08,4.56-23.32-59.44c-6.51-16.6-22.25-27.33-40.08-27.33h-11.2v-52.94c0-23.74-19.32-43.06-43.06-43.06h-164.94v-32.33c0-26.28-21.53-47.67-48-47.67h-32c-8.84,0-16,7.16-16,16s7.16,16,16,16h32c8.97,0,16,6.88,16,15.67v124.13c-36.73,18.4-62,56.4-62,100.2,0,61.76,50.24,112,112,112s112-50.24,112-112c0-23.78-7.45-45.85-20.14-64h66.14v63.9c0,8.84,7.16,16,16,16s16-7.16,16-16v-63.9h11.2c4.58,0,8.62,2.75,10.29,7.02l29.09,74.14c2.47,6.3,8.5,10.16,14.9,10.16,1.88,0,3.79-.33,5.65-1.04l26.86-10.15c8.27-3.12,12.44-12.36,9.31-20.62ZM178,416c-44.11,0-80-35.89-80-80s35.89-80,80-80,80,35.89,80,80-35.89,80-80,80ZM235.63,240c-16.85-10.15-36.57-16-57.63-16-6.13,0-12.14.5-18,1.45v-49.45h164.94c6.1,0,11.06,4.96,11.06,11.06v52.94h-100.37Z"/><path d="M212.69,341.72c-3.3,12.13-12.79,22.04-24.77,25.88-8.42,2.69-13.05,11.7-10.36,20.12,2.18,6.79,8.46,11.12,15.23,11.12,1.62,0,3.26-.25,4.88-.77,22.53-7.21,39.68-25.14,45.89-47.95,2.32-8.53-2.71-17.32-11.24-19.64-8.53-2.32-17.32,2.71-19.64,11.24Z"/></svg>