<?xml version="1.0" encoding="UTF-8"?><svg id="Icon" xmlns="http://www.w3.org/2000/svg" viewBox="0 0 512 512"><path d="M160,336c8.84,0,16-7.16,16-16v-48c0-8.84-7.16-16-16-16s-16,7.16-16,16v48c0,8.84,7.16,16,16,16Z"/><path d="M352,256c-8.84,0-16,7.16-16,16v48c0,8.84,7.16,16,16,16s16-7.16,16-16v-48c0-8.84-7.16-16-16-16Z"/><path d="M380.44,64h-248.89c-28.43,0-51.56,23.13-51.56,51.56v248.89c0,18.58,11.07,36.41,28.24,45.54.01,0,.02.01.03.02l108.01,59.64c2.41,1.33,5.07,1.99,7.73,1.99,2.81,0,5.63-.74,8.13-2.22,4.88-2.88,7.87-8.12,7.87-13.78v-39.64h31.99v39.64c0,5.66,2.99,10.89,7.85,13.77,2.51,1.48,5.33,2.23,8.15,2.23,2.65,0,5.3-.66,7.71-1.98l112.32-61.72c.43-.24.85-.49,1.25-.77,14.23-9.61,22.72-25.59,22.72-42.74V115.56c0-28.43-23.13-51.56-51.56-51.56ZM208.01,428.53l-84.27-46.54c-.05-.03-.11-.05-.17-.08-.06-.03-.11-.07-.16-.09-6.93-3.62-11.41-10.44-11.41-17.37V115.56c0-1.74.25-3.41.68-5.02.33.21.67.42,1.02.61l94.31,49.79v267.59ZM240.01,384v-232.71c0-5.93-3.28-11.38-8.53-14.15l-77.93-41.15h204.92l-77.93,41.15c-5.25,2.77-8.53,8.22-8.53,14.15v232.71h-31.99ZM400,364.44c0,6.3-3.02,12.18-8.12,15.87l-87.88,48.29V160.94l94.31-49.79c.36-.19.7-.39,1.04-.6.42,1.6.65,3.28.65,5.01v248.89Z"/></svg>