<?xml version="1.0" encoding="UTF-8"?><svg id="Icon" xmlns="http://www.w3.org/2000/svg" viewBox="0 0 512 512"><path d="M426.92,214.98l.02-.02-56.12-40.58.21-.28c-1.91-1.4-3.88-2.67-5.91-3.84l-116.63-84.33h0c-15.33-11.07-33.93-17.14-52.94-17.14-49.83,0-90.36,40.54-90.36,90.36,0,20.59,7.11,40.74,20.03,56.73,12.06,14.94,28.72,25.72,47.17,30.62l211.14,58.67h0c4.34,1.2,8.9,1.86,13.61,1.86,28.04,0,50.86-22.82,50.86-50.86,0-16.93-8.32-31.94-21.08-41.19ZM346.59,261.69l-21.92-6.09v-.02c-13.31-3.9-22.62-16.33-22.62-30.23,0-17.37,14.13-31.5,31.5-31.5,5.09,0,9.99,1.2,14.42,3.48l21.98,15.89c-14.2,9.03-23.66,24.9-23.66,42.94,0,1.87.11,3.71.31,5.53ZM217.94,191.68c0-24.81,20.19-45,45-45,9.47,0,18.53,2.9,26.19,8.4l.14-.19,17.72,12.81c-21.78,10.08-36.93,32.12-36.93,57.65,0,5.35.69,10.59,1.98,15.62l-20.84-5.79v-.04c-19.58-5.27-33.26-23.14-33.26-43.46ZM137.19,159.15c0-32.18,26.18-58.36,58.36-58.36,12.63,0,24.53,3.92,34.58,11.35l.26.19c.66.49,1.31,1,1.96,1.53l.06-.07,6.57,4.75c-30.75,10.1-53.03,39.07-53.03,73.16,0,9.32,1.7,18.32,4.8,26.7l-8.25-2.29v-.04c-.55-.13-1.1-.27-1.66-.42l-.91-.25v.02c-25.3-6.97-42.74-29.73-42.74-56.25ZM397.14,275.03c-10.4,0-18.86-8.46-18.86-18.86s8.46-18.86,18.86-18.86,18.86,8.46,18.86,18.86-8.46,18.86-18.86,18.86Z"/><path d="M80,64c-8.84,0-16,7.16-16,16v352c0,8.84,7.16,16,16,16s16-7.16,16-16V80c0-8.84-7.16-16-16-16Z"/></svg>