<?xml version="1.0" encoding="UTF-8"?><svg id="Icon" xmlns="http://www.w3.org/2000/svg" viewBox="0 0 512 512"><path d="M380.44,64h-248.89c-28.43,0-51.56,23.13-51.56,51.56v248.89c0,28.43,23.13,51.56,51.56,51.56h248.89c28.43,0,51.56-23.13,51.56-51.56V115.56c0-28.43-23.13-51.56-51.56-51.56ZM112,364.44V115.56c0-10.78,8.77-19.56,19.56-19.56h108.44v288h-108.44c-10.78,0-19.56-8.77-19.56-19.56ZM400,364.44c0,10.78-8.77,19.56-19.56,19.56h-108.44V96h108.44c10.78,0,19.56,8.77,19.56,19.56v248.89Z"/><path d="M208,200c-8.84,0-16,7.16-16,16v48c0,8.84,7.16,16,16,16s16-7.16,16-16v-48c0-8.84-7.16-16-16-16Z"/><path d="M304,199c-8.84,0-16,7.16-16,16v48c0,8.84,7.16,16,16,16s16-7.16,16-16v-48c0-8.84-7.16-16-16-16Z"/></svg>