<?xml version="1.0" encoding="UTF-8"?><svg id="Icon" xmlns="http://www.w3.org/2000/svg" viewBox="0 0 512 512"><path d="M64,184.46c0,8.84,7.16,16,16,16h158.58c13.54,0,26.77-5.5,36.32-15.11,9.64-9.7,14.93-22.58,14.89-36.25-.04-13.68-5.41-26.52-15.11-36.16-9.66-9.61-22.48-14.89-36.1-14.89h-.16c-13.68.04-26.52,5.41-36.17,15.11-6.23,6.27-6.2,16.4.07,22.63,6.27,6.23,16.4,6.2,22.63-.07,3.62-3.64,8.43-5.65,13.56-5.67h.06c5.11,0,9.92,1.98,13.54,5.58,3.64,3.62,5.65,8.44,5.67,13.57.02,5.13-1.97,9.96-5.59,13.6-3.58,3.6-8.54,5.67-13.69,5.67H80c-8.84,0-16,7.16-16,16Z"/><path d="M291.46,311.54H80c-8.84,0-16,7.16-16,16s7.16,16,16,16h211.32c5.13-.02,10.1,2.04,13.7,5.67,7.47,7.51,7.43,19.7-.08,27.16-7.51,7.46-19.7,7.43-27.16-.08-6.23-6.27-16.36-6.3-22.63-.07-6.27,6.23-6.3,16.36-.07,22.63,9.64,9.7,22.49,15.06,36.16,15.11h.16c13.62,0,26.43-5.29,36.1-14.89,9.7-9.64,15.06-22.49,15.11-36.16.04-13.68-5.25-26.55-14.89-36.25-9.55-9.61-22.78-15.11-36.25-15.11Z"/><path d="M388.07,151.98h-.08c-16,0-31.05,6.22-42.38,17.52-6.26,6.24-6.27,16.37-.03,22.63,6.24,6.25,16.37,6.27,22.63.03,5.29-5.28,12.31-8.18,19.78-8.18h.04c7.48,0,14.51,2.93,19.8,8.23,5.28,5.3,8.19,12.33,8.18,19.82,0,7.48-2.93,14.51-8.23,19.79-5.27,5.26-12.28,8.17-19.7,8.18H80c-8.84,0-16,7.16-16,16s7.16,16,16,16h308.1c15.96-.03,30.97-6.25,42.27-17.52,11.35-11.32,17.61-26.38,17.63-42.41s-6.2-31.11-17.52-42.46c-11.32-11.35-26.38-17.61-42.41-17.63Z"/></svg>