<?xml version="1.0" encoding="UTF-8"?><svg id="Icon" xmlns="http://www.w3.org/2000/svg" viewBox="0 0 512 512"><path d="M449.05,138.28s0-.03-.01-.04c-.01-.04-.02-.08-.03-.12-2.06-7.67-7.11-14.12-14.24-18.17-9.13-5.18-21.06-6.31-41.17-3.88-11.76,1.42-26.86,4.15-44.88,8.1-34.26,7.51-69.47,17.32-79.45,20.15-2.02.57-3.91,1.37-5.66,2.35-.94-1.53-2.04-2.99-3.33-4.35-4.98-5.25-31.16-32.69-57.8-57.51-13.52-12.6-25.16-22.65-34.59-29.88-16.14-12.37-27.01-17.48-37.55-17.65-8.24-.13-15.91,2.89-21.59,8.5-.01.01-.02.02-.03.03-.03.03-.06.06-.09.09-5.61,5.62-8.68,13.22-8.62,21.42.08,10.5,5.07,21.39,17.23,37.59,7.11,9.48,17.02,21.19,29.45,34.82,23.63,25.91,49.74,51.5,57.17,58.73,1.5,1.46,3.14,2.68,4.87,3.71-.86,1.59-1.57,3.28-2.11,5.08-2.06,6.94-12.73,43.33-20.9,78.82-4.15,18.01-7.04,33.11-8.58,44.9-2.64,20.16-1.63,32.14,3.49,41.35,4.01,7.21,10.46,12.34,18.16,14.45.01,0,.03,0,.04.01.04.01.08.02.12.03,7.67,2.06,15.79.9,22.86-3.25,5.55-3.26,10.31-8.21,15-15.84v80.19h-33.42c-8.84,0-16,7.16-16,16s7.16,16,16,16h92.43c8.84,0,16-7.16,16-16s-7.16-16-16-16h-31.28v-148.18c0-.93-.1-1.83-.27-2.71,9.26-30.24,16.9-59.91,19.19-68.97.51-2.03.77-4.06.8-6.07,1.8-.05,3.62-.28,5.43-.71,7.03-1.69,43.89-10.64,78.71-21.3,17.67-5.41,32.2-10.46,43.18-15.02,18.78-7.79,28.65-14.65,34.06-23.7,4.24-7.07,5.46-15.22,3.43-22.95ZM127.18,64.45s0,0,.01-.01c10.71-10.59,92.37,73.1,114.03,95.94l-19.08,19.24c-23.19-22.54-105.51-104.62-94.97-115.17ZM205.73,361.42s-.01,0-.02,0c-14.52-3.98,17.12-116.54,26.07-146.73l26.2,6.9c-7.92,31.35-37.85,143.69-52.25,139.83ZM264.43,196.14c-1.32,2.74-3.53,4.97-6.26,6.32-1.82.9-3.87,1.42-6.05,1.42-4.66,0-8.76-2.33-11.23-5.89-1.54-2.21-2.44-4.89-2.44-7.79,0-.31.03-.6.05-.91.45-6.79,5.84-12.23,12.63-12.72.33-.02.66-.05,1-.05,2.85,0,5.5.88,7.7,2.37,3.61,2.46,5.98,6.6,5.98,11.3,0,2.13-.5,4.13-1.37,5.93ZM283.54,195.71l-7.12-26.14c31.11-8.82,143.36-39.07,147.22-24.66,0,0,0,.01,0,.02,3.81,14.57-109.49,43.44-140.11,50.78Z"/></svg>