<?xml version="1.0" encoding="UTF-8"?><svg id="Icon" xmlns="http://www.w3.org/2000/svg" viewBox="0 0 512 512"><path d="M423.82,342.48c0-7.39,0-14.79-.01-22.18-.01-9.6-.03-19.21-.05-28.81-.04-18.04-.07-36.07-.07-54.11,0-22.76-7.86-41.89-23.37-56.87-2.63-2.54-3.98-6.04-4.86-12.75v-82.99c0-13.41-14.04-22.07-35.78-22.07-20.47,0-33.7,8.67-33.7,22.07v82.15c-.83,6.77-2.88,11.46-6.99,16.04-1.54,1.71-2.96,3.42-4.3,5.1-3.44-5.09-7.46-9.87-12.12-14.36-3.75-3.62-5.54-8.48-6.52-17.79V55.44c0-4.64-1.81-15.96-18.56-20.85-7.32-2.14-15.67-2.59-21.38-2.59s-14.06.45-21.38,2.59c-16.76,4.89-18.56,16.21-18.56,20.85v99.43c-.96,10.16-3.29,16.04-8.24,20.85-4.06,3.94-7.62,8.15-10.72,12.58-3.11-3.62-5.83-6.35-7.34-7.8-2.63-2.54-3.98-6.04-4.86-12.75v-82.98c0-13.41-13.64-22.07-34.74-22.07s-34.74,8.67-34.74,22.07v82.16c-.88,7.45-2.65,11.76-6.22,15.22-7.53,7.31-13.12,15.43-16.61,24.15-3.76,9.4-5.68,19.94-5.69,31.31-.02,13.76.21,27.61.42,41.01.13,7.81.26,15.79.34,23.82h-.13v16c0,6.29,0,12.74,0,19.31.01,21.29.02,43.31-.08,64.7-.05,10.21,5.06,18.58,14.03,22.95,4.21,2.05,9.88,4.62,16.31,6.3,10.15,2.65,20.78,3.96,32.15,3.96,5.78,0,11.75-.34,17.94-1.02,4.27-.47,8.87-1.1,13.62-2.16-.01,3.52-.03,7.03-.04,10.54-.05,11.05,5.48,20.09,15.16,24.8,4.58,2.23,11.57,5.44,19.3,7.45,12.11,3.16,24.82,4.73,38.44,4.73,6.95,0,14.14-.41,21.61-1.22,11.35-1.24,24.67-3.42,37.4-10.21,13.71-7.31,16.5-18.62,16.43-26.83-.03-3.13-.05-6.28-.07-9.42,9.38,2.23,19.18,3.35,29.61,3.35,5.77,0,11.74-.34,17.94-1.02,9.55-1.04,20.77-2.88,31.6-8.66,9.75-5.19,15.06-13.9,14.98-24.53-.17-19.64-.17-39.64-.17-58.99ZM164.53,402.83c-14.46,1.58-27.07.89-38.54-2.1-1.92-.5-3.98-1.23-6.4-2.27.08-20.16.07-40.76.06-60.73,0-1.1,0-2.2,0-3.29h.21v-16c0-13.66-.22-27.22-.43-40.33-.21-13.26-.44-26.98-.42-40.46,0-7.3,1.15-13.85,3.4-19.46,1.81-4.52,4.9-8.92,9.18-13.08,11.91-11.56,14.72-25.1,15.84-35.6l.09-.84v-73.87c1.67-.13,3.81-.13,5.48,0v74.91l.11.95c1.19,9.93,3.92,22.63,14.53,32.87,7.42,7.16,13.73,16.02,15.34,21.53.04.14.1.27.14.41-.69,5.02-1.06,10.25-1.07,15.68l-.04,30.53c-.03,17.48-.05,34.99-.06,52.53h-.27v16c0,8.11,0,16.24,0,24.38,0,11.36.01,22.9,0,34.49-5.44,2.22-11.64,3.16-17.15,3.76ZM272.62,446.97c-18.17,1.98-34.04,1.11-48.5-2.66-3.09-.81-6.48-2.07-10.53-3.92.11-25.36.1-51,.08-75.83,0-2.79,0-5.58,0-8.37h.26v-16c0-22.87.04-45.7.07-68.48l.04-30.54c.01-9.63,1.46-18.13,4.3-25.24,2.5-6.25,6.49-12.06,11.85-17.26,13.82-13.41,16.82-29.33,17.9-41.7l.06-.69v-91.83c2.06-.26,4.7-.45,7.94-.45s5.89.19,7.94.45v93.06l.08.78c1.22,12.44,4.1,26.74,16.22,38.44,7.99,7.71,13.07,16.66,15.5,27.47.07,1.46.34,2.89.8,4.27.6,3.86.91,7.95.91,12.29,0,22.02.04,44.4.08,66.05.02,11.85.05,23.7.06,35.55.01,9.07.01,18.15.01,27.22,0,23.27,0,47.32.2,71.04-7.83,4.02-17.16,5.47-25.3,6.36ZM373.94,402.84c-14.46,1.58-27.07.89-38.55-2.1-1.72-.45-3.55-1.08-5.66-1.96-.01-9.81-.02-19.58-.02-29.2,0-9.09,0-18.17-.01-27.26h0c-.02-11.86-.04-23.72-.06-35.58-.04-21.63-.09-43.99-.08-65.98,0-5.21-.32-10.22-.95-15.03,3.13-6.06,7.37-13.79,14.2-21.41,8.8-9.82,13.59-20.87,15.07-34.8l.09-.84v-73.95c.53-.03,1.1-.04,1.7-.04,1.39,0,2.65.07,3.78.19v74.83l.11.95c1.19,9.93,3.92,22.63,14.53,32.87,9.28,8.96,13.6,19.71,13.6,33.84,0,18.06.03,36.12.07,54.18.02,9.6.04,19.19.05,28.79,0,7.38.01,14.76.01,22.14,0,18.43,0,37.45.15,56.24-5.64,2.49-12.21,3.48-18.03,4.12Z"/></svg>