<?xml version="1.0" encoding="UTF-8"?><svg id="Icon" xmlns="http://www.w3.org/2000/svg" viewBox="0 0 512 512"><path d="M144.23,245.22c-17.17,23.65-26.22,51.51-26.22,80.79,0,76.09,61.9,138,138,138s137.98-61.9,137.98-138c0-29.29-9.05-57.14-26.21-80.79l30.29-30.29c6.67-6.67,6.67-17.53,0-24.2-3.23-3.23-7.53-5.01-12.1-5.01s-8.87,1.78-12.1,5.01l-29.45,29.46c-9.46-7.92-19.88-14.51-31.07-19.64,19.76-17.32,30.77-42.63,29.72-68.96-1.83-45.76-39.13-82.46-84.92-83.56-.71-.02-1.43-.03-2.13-.03-48.04,0-87.12,39.08-87.12,87.12,0,25.33,10.77,48.83,29.78,65.43-11.19,5.13-21.6,11.71-31.06,19.63l-29.45-29.46c-3.23-3.23-7.53-5.01-12.1-5.01s-8.87,1.78-12.1,5.02c-6.67,6.67-6.66,17.52,0,24.19l30.29,30.29ZM203.21,131.62c1.71-26.42,22.92-47.61,49.33-49.29,1.15-.07,2.3-.11,3.45-.11,14.53,0,28.59,6.1,38.57,16.73,10.11,10.77,15.16,24.84,14.22,39.61-1.67,26.43-22.87,47.65-49.31,49.35-1.16.07-2.33.11-3.49.11-14.54,0-28.6-6.1-38.58-16.75-10.11-10.79-15.16-24.87-14.2-39.65ZM181.46,253.89c19.75-20.41,46.23-31.65,74.54-31.65,1.14,0,2.28.02,3.43.06,54.46,1.76,98.5,45.81,100.27,100.27.92,28.35-9.45,55.18-29.18,75.57-19.75,20.4-46.21,31.63-74.52,31.63-1.15,0-2.3-.02-3.46-.06-54.45-1.78-98.49-45.82-100.26-100.27-.92-28.34,9.44-55.17,29.17-75.56Z"/></svg>