<?xml version="1.0" encoding="UTF-8"?><svg id="Icon" xmlns="http://www.w3.org/2000/svg" viewBox="0 0 512 512"><path d="M361.81,101.17c-6.25-6.25-16.38-6.25-22.63,0l-23.13,23.13s-.07.08-.11.12l-38.65-38.65,22.25-22.25c6.25-6.25,6.25-16.38,0-22.63-6.25-6.25-16.38-6.25-22.63,0l-22.25,22.25-8.48-8.48-.09-.09c-13.31-13.09-28.62-13.08-42,.03-9.9,9.7-17.33,17.31-24.1,24.65-15.13,16.42-23.81,36.37-25.8,59.28-2.08,23.92,4.03,46.31,18.62,68.33l-9.26,9.26c-6.25,6.25-6.25,16.38,0,22.63,3.12,3.12,7.22,4.69,11.31,4.69s8.19-1.56,11.31-4.69l9.19-9.19c.27.16.53.31.77.45,1.12.65,1.85,1.08,2.4,1.43,18.21,11.71,37.79,17.51,57.12,17.51,24.17,0,47.93-9.06,68.07-26.94,6.74-5.98,12.97-12.33,19.01-18.47,1.9-1.94,3.8-3.87,5.71-5.79,7.66-7.68,9.23-15.47,9.19-20.65-.03-5.12-1.66-12.77-9.2-20.19l-9.88-9.88s.08-.07.12-.11l23.13-23.13c6.25-6.25,6.25-16.38,0-22.63ZM319.91,181.11c-5.92,6.02-11.5,11.71-17.42,16.96-25.44,22.58-57.82,24.99-86.64,6.45-1.15-.74-2.24-1.37-3.62-2.18-.26-.15-.53-.31-.83-.48l-10.97-11.26c-11.27-16.47-15.84-32.17-14.35-49.31,1.38-15.91,7.09-29.12,17.45-40.36,6.07-6.59,12.77-13.45,21.56-22.11l98.52,98.52c-1.24,1.25-2.47,2.51-3.71,3.77Z"/><path d="M349.44,312.89c6.25-6.25,6.25-16.38,0-22.63s-16.38-6.25-22.63,0l-9.19,9.19c-.27-.16-.52-.3-.76-.44-1.12-.65-1.86-1.08-2.41-1.43-40.97-26.36-88.94-22.75-125.19,9.43-6.74,5.98-12.97,12.33-19,18.47-1.9,1.94-3.8,3.87-5.72,5.79-7.66,7.68-9.23,15.47-9.19,20.65.03,5.12,1.66,12.77,9.2,20.19l102.25,102.25.1.09c6.65,6.54,13.8,9.81,20.96,9.81s14.35-3.28,21.04-9.85c9.9-9.71,17.33-17.31,24.1-24.65,15.13-16.42,23.81-36.37,25.8-59.28,2.08-23.92-4.03-46.31-18.62-68.33l9.26-9.26ZM326.91,387.71c-1.38,15.91-7.09,29.11-17.45,40.36-6.06,6.58-12.76,13.45-21.56,22.11l-98.52-98.52c1.24-1.25,2.48-2.51,3.71-3.77,5.91-6.02,11.5-11.71,17.42-16.96,25.44-22.58,57.82-24.99,86.64-6.45,1.15.74,2.24,1.38,3.63,2.18.26.15.53.31.82.48l10.97,11.26c11.27,16.47,15.84,32.17,14.35,49.31Z"/></svg>