<?xml version="1.0" encoding="UTF-8"?><svg id="Icon" xmlns="http://www.w3.org/2000/svg" viewBox="0 0 512 512"><path d="M272,448h-32c-19.14,0-32-12.86-32-32v-80h-16c-4.57,0-8.93-1.96-11.97-5.38-3.04-3.42-4.46-7.98-3.92-12.52l13.86-116.05c.02-.21.05-.42.09-.62,3.02-18.9,14.02-41.43,49.32-41.43h33.23c35.3,0,46.3,22.53,49.32,41.43.03.21.06.42.09.62l13.86,116.05c.54,4.54-.88,9.1-3.92,12.52-3.04,3.42-7.39,5.38-11.97,5.38h-16v80c0,19.14-12.86,32-32,32ZM240,416h32v-96c0-8.84,7.16-16,16-16h13.97l-11.69-97.82c-1.98-12.03-6.39-14.18-17.67-14.18h-33.23c-11.28,0-15.69,2.15-17.67,14.18l-11.69,97.82h13.97c8.84,0,16,7.16,16,16v96Z"/><path d="M256,144c-22.06,0-40-17.94-40-40s17.94-40,40-40,40,17.94,40,40-17.94,40-40,40ZM256,96c-4.41,0-8,3.59-8,8s3.59,8,8,8,8-3.59,8-8-3.59-8-8-8Z"/></svg>