<?xml version="1.0" encoding="UTF-8"?><svg id="Icon" xmlns="http://www.w3.org/2000/svg" viewBox="0 0 512 512"><path d="M191.58,223.92c8.84,0,16-7.16,16-16s7.18-16,16-16h64.47c8.82,0,16,7.18,16,16s7.16,16,16,16,16-7.16,16-16c0-26.47-21.53-48-48-48h-64.47c-26.47,0-48,21.53-48,48,0,8.84,7.16,16,16,16Z"/><path d="M256,144c26.47,0,48-21.53,48-48s-21.53-48-48-48-48,21.53-48,48,21.53,48,48,48ZM256,80c8.82,0,16,7.18,16,16s-7.18,16-16,16-16-7.18-16-16,7.18-16,16-16Z"/><path d="M416,240H96c-8.84,0-16,7.16-16,16s7.16,16,16,16h16v160c0,8.84,7.16,16,16,16s16-7.16,16-16v-160h224v160c0,8.84,7.16,16,16,16s16-7.16,16-16v-160h16c8.84,0,16-7.16,16-16s-7.16-16-16-16Z"/></svg>