<?xml version="1.0" encoding="UTF-8"?><svg id="Icon" xmlns="http://www.w3.org/2000/svg" viewBox="0 0 512 512"><circle cx="256" cy="240" r="32"/><path d="M464,144h-16v-8.56c0-21.78-17.72-39.49-39.5-39.49h-1.01c-21.78,0-39.5,17.72-39.5,39.49v8.5l-224,.13v-8.16c0-21.78-17.72-39.49-39.5-39.49h-1.01c-10.52,0-20.43,4.12-27.91,11.59-7.47,7.47-11.59,17.38-11.59,27.91v8.09h-16c-8.84,0-16,7.16-16,16s7.16,16,16,16h16v8.92c0,21.78,17.72,39.5,39.5,39.5h1.01c21.78,0,39.5-17.72,39.5-39.5v-8.85l224-.13v8.51c0,21.78,17.72,39.49,39.5,39.49h1.01c21.78,0,39.5-17.72,39.5-39.49v-8.45h16c8.84,0,16-7.16,16-16s-7.16-16-16-16ZM112,184.92c0,4.06-3.43,7.5-7.5,7.5h-1.01c-4.06,0-7.5-3.43-7.5-7.5v-49.01c0-2.67,1.39-4.45,2.21-5.28.83-.83,2.61-2.21,5.28-2.21h1.01c4.06,0,7.5,3.43,7.5,7.49v49.01ZM416,184.45c0,4.06-3.43,7.49-7.5,7.49h-1.01c-4.06,0-7.5-3.43-7.5-7.49v-49.01c0-4.06,3.43-7.49,7.5-7.49h1.01c4.06,0,7.5,3.43,7.5,7.49v49.01Z"/><path d="M354.47,208.19c-8.73-1.37-16.91,4.61-18.28,13.34l-9.24,59.17c-3.22,3.46-9,9.64-18.13,19.34-7.02-7.42-16.75-12.03-27.51-12.03h-50.63c-10.75,0-20.49,4.61-27.51,12.03-9.12-9.69-14.91-15.88-18.13-19.34l-9.24-59.17c-1.36-8.73-9.56-14.71-18.28-13.34-8.73,1.36-14.7,9.55-13.34,18.28l10,64c.49,3.13,1.9,6.04,4.04,8.37.31.34,7.95,8.62,29.77,31.75,1.19,1.26,2.54,2.29,3.99,3.08v66.33c0,8.84,7.16,16,16,16s16-7.16,16-16v-71.58c0-4.57,3.06-8.42,6.69-8.42h50.63c3.62,0,6.69,3.86,6.69,8.42v71.58c0,8.84,7.16,16,16,16s16-7.16,16-16v-66.33c1.45-.79,2.8-1.81,3.99-3.08,21.82-23.13,29.46-31.4,29.77-31.75,2.15-2.33,3.55-5.24,4.04-8.37l10-64c1.36-8.73-4.61-16.91-13.34-18.28Z"/></svg>