<?xml version="1.0" encoding="UTF-8"?><svg id="Icon" xmlns="http://www.w3.org/2000/svg" viewBox="0 0 512 512"><path d="M256,144c22.06,0,40-17.94,40-40s-17.94-40-40-40-40,17.94-40,40,17.94,40,40,40ZM256,96c4.41,0,8,3.59,8,8s-3.59,8-8,8-8-3.59-8-8,3.59-8,8-8Z"/><path d="M416.51,277.43l-53.32-25.53-50.72-70.14c-8.43-13.08-23.11-21.76-39.8-21.76h-33.34c-16.68,0-31.36,8.68-39.8,21.76l-50.72,70.14-53.32,25.53c-7.97,3.82-11.34,13.37-7.52,21.34,2.75,5.74,8.48,9.09,14.44,9.09,2.32,0,4.67-.51,6.9-1.57l56.99-27.29c2.41-1.15,4.49-2.89,6.06-5.06l19.64-27.16v75.31c-6.72-3.47-13.92-7.55-21.58-12.37-22.09-14.17-43.04-6.57-53.17,6.52-6.4,8.27-9.08,18.8-7.55,29.64,1.54,10.9,7.22,21.21,16.43,29.83,6.46,6.65,51.66,52.62,77.98,63.56,16.61,6.9,33.8,8.15,44.11,8.15,3.46,0,6.15-.14,7.77-.26,6.41.47,29,1.29,51.13-7.89,26.53-11.02,72.23-57.62,78.13-63.71,20.24-19.86,18.14-43.91,7.6-57.88-11.73-15.54-32.87-18.98-51.41-8.34-.19.11-.38.22-.56.34-7.41,4.66-14.36,8.62-20.87,12.02v-74.92l19.64,27.16c1.57,2.17,3.65,3.9,6.06,5.06l56.99,27.29c2.23,1.07,4.58,1.57,6.9,1.57,5.97,0,11.69-3.35,14.44-9.09,3.82-7.97.45-17.52-7.52-21.34ZM357.59,336.98c2.67-1.48,7.23-3.28,9.71,0,2.39,3.17,1.98,9.48-4.56,15.86-.11.11-.22.22-.33.33-17.85,18.43-51.97,50.09-67.56,56.57-17.64,7.32-36.68,5.53-37.13,5.48-1.14-.12-2.23-.13-3.37,0-.2.02-20.15,1.92-37.96-5.48-15.59-6.47-49.72-38.13-67.56-56.57-.21-.22-.43-.43-.65-.63-7.1-6.55-8.2-13.36-5.62-16.7.96-1.24,2.26-1.68,3.64-1.68,2.75,0,5.81,1.77,6.98,2.53.05.03.1.06.14.09,57.73,36.3,94.42,37.14,102.68,36.8,8.21.35,44.17-.57,101.59-36.6ZM257.31,341.6c-1.12-.13-1.48-.13-2.6,0-1.23.04-12,.15-30.71-5.92v-128.35c0-8.45,6.88-15.33,15.33-15.33h33.34c8.45,0,15.33,6.88,15.33,15.33v128.18c-18.73,6.21-29.43,6.13-30.69,6.09Z"/></svg>