<?xml version="1.0" encoding="UTF-8"?><svg id="Icon" xmlns="http://www.w3.org/2000/svg" viewBox="0 0 512 512"><path d="M426.37,261.62c.12-.33.23-.65.33-.99.06-.2.11-.4.16-.6.07-.28.13-.57.19-.86.05-.24.09-.47.12-.71.04-.26.07-.53.09-.79.02-.25.05-.51.06-.76.01-.26.02-.52.02-.78s0-.52-.02-.78c-.01-.25-.03-.51-.06-.76-.03-.27-.06-.53-.09-.79-.04-.24-.08-.47-.12-.71-.06-.29-.12-.58-.19-.86-.05-.2-.11-.4-.16-.6-.1-.33-.21-.66-.33-.99-.05-.14-.11-.29-.16-.43-.16-.39-.33-.77-.51-1.15-.03-.05-.04-.11-.07-.16-.02-.03-.04-.06-.06-.1-.22-.42-.45-.83-.71-1.23-.03-.04-.06-.09-.08-.14-.27-.42-.56-.82-.87-1.21-.02-.02-.03-.05-.05-.07-.32-.4-.66-.78-1.01-1.15,0,0-.01-.02-.02-.02-.36-.37-.73-.72-1.13-1.05,0,0,0,0-.01-.01-.38-.32-.79-.63-1.21-.92l-.04-.03c-.4-.28-.82-.54-1.26-.78-.02-.01-.04-.03-.07-.04-.17-.1-.34-.2-.51-.29l-77.88-39.54s0,0,0,0l-77.62-39.41c-.12-.06-.25-.11-.38-.17-.27-.13-.53-.25-.8-.36-.24-.1-.48-.19-.72-.27-.24-.08-.48-.16-.72-.24-.27-.08-.54-.16-.81-.22-.22-.05-.45-.1-.67-.15-.28-.06-.57-.11-.85-.15-.23-.03-.46-.06-.69-.08-.27-.03-.55-.05-.82-.06-.26-.01-.51-.02-.77-.02-.25,0-.5,0-.75.02-.28.01-.56.04-.84.06-.23.02-.45.05-.67.08-.29.04-.58.09-.87.15-.22.04-.44.09-.66.15-.28.07-.55.14-.83.23-.24.07-.47.15-.71.23-.25.09-.49.18-.73.28-.27.11-.53.23-.79.35-.13.06-.26.11-.39.17l-75.97,38.57-79.52,40.37c-1.63.83-3.04,1.9-4.24,3.14,0,0,0,0,0,0-.35.37-.69.75-1.01,1.14-.03.04-.07.09-.1.13-.28.36-.55.73-.8,1.12-.06.09-.12.19-.18.29-.21.34-.41.69-.6,1.04-.03.06-.07.12-.11.18-.05.1-.09.2-.13.3-.14.29-.27.58-.39.87-.1.25-.19.49-.28.74-.07.21-.14.41-.2.62-.1.33-.19.66-.27,1-.03.13-.06.26-.09.4-.08.4-.16.8-.21,1.2-.01.08-.02.16-.03.24-.05.45-.09.9-.1,1.34,0,.05,0,.1,0,.14-.01.48,0,.96.03,1.44,0,.02,0,.05,0,.07.39,5.42,3.51,10.51,8.7,13.14l77.88,39.54,77.5,39.35c.15.08.31.15.46.22.18.09.36.17.53.25.1.04.2.08.3.12.23.09.45.18.68.26.09.03.18.06.27.09.24.08.49.16.73.23.09.02.17.05.26.07.25.07.5.13.76.18.09.02.17.04.26.05.26.05.52.1.77.13.09.01.17.03.26.04.26.03.53.06.79.08.08,0,.17.02.25.02.33.02.66.03.98.03.02,0,.03,0,.05,0,.35,0,.7-.01,1.05-.04.03,0,.06,0,.09,0,.32-.02.64-.06.96-.1.05,0,.09-.01.14-.02.3-.04.6-.09.91-.16.05-.01.1-.02.15-.03.3-.06.6-.14.89-.22.05-.01.09-.02.14-.04.3-.08.6-.18.89-.28.04-.01.08-.03.12-.04.32-.11.64-.24.95-.37.01,0,.02,0,.03-.01.31-.13.61-.27.91-.43l.06-.03s0,0,.01,0l75.9-38.53s0,0,0,0l79.54-40.38c.67-.34,1.29-.73,1.89-1.15.04-.03.08-.06.12-.09.86-.61,1.64-1.28,2.34-2.03.05-.05.1-.11.16-.17.7-.76,1.32-1.58,1.85-2.45.05-.08.1-.15.14-.23.16-.27.31-.54.45-.81.02-.04.05-.08.07-.13.03-.05.04-.11.07-.16.19-.38.36-.76.51-1.15.06-.14.11-.29.16-.43ZM324.58,282.26s0,0,0,0l-68.72,34.89-70.38-35.73-49.8-25.28,51.46-26.12s0,0,0,0l68.72-34.89,70.38,35.73s0,0,0,0l49.8,25.28-51.46,26.12Z"/></svg>