<?xml version="1.0" encoding="UTF-8"?><svg id="Icon" xmlns="http://www.w3.org/2000/svg" viewBox="0 0 512 512"><path d="M240,64c-97.05,0-176,78.95-176,176s78.95,176,176,176c42.77,0,82.03-15.34,112.56-40.81l68.12,68.12c3.12,3.12,7.22,4.69,11.31,4.69s8.19-1.56,11.31-4.69c6.25-6.25,6.25-16.38,0-22.63l-68.12-68.12c25.47-30.53,40.81-69.79,40.81-112.56,0-97.05-78.95-176-176-176ZM240,384c-79.4,0-144-64.6-144-144S160.6,96,240,96s144,64.6,144,144-64.6,144-144,144Z"/><path d="M304,224h-128c-8.84,0-16,7.16-16,16s7.16,16,16,16h128c8.84,0,16-7.16,16-16s-7.16-16-16-16Z"/></svg>