<?xml version="1.0" encoding="UTF-8"?><svg id="Icon" xmlns="http://www.w3.org/2000/svg" viewBox="0 0 512 512"><path d="M192,96h-48c-26.47,0-48,21.53-48,48v48c0,8.84,7.16,16,16,16s16-7.16,16-16v-48c0-8.82,7.18-16,16-16h48c8.84,0,16-7.16,16-16s-7.16-16-16-16Z"/><path d="M416,144c0-26.47-21.53-48-48-48h-48c-8.84,0-16,7.16-16,16s7.16,16,16,16h48c8.82,0,16,7.18,16,16v48c0,8.84,7.16,16,16,16s16-7.16,16-16v-48Z"/><path d="M112,304c-8.84,0-16,7.16-16,16v48c0,26.47,21.53,48,48,48h48c8.84,0,16-7.16,16-16s-7.16-16-16-16h-48c-8.82,0-16-7.18-16-16v-48c0-8.84-7.16-16-16-16Z"/><path d="M400,304c-8.84,0-16,7.16-16,16v48c0,8.82-7.18,16-16,16h-48c-8.84,0-16,7.16-16,16s7.16,16,16,16h48c26.47,0,48-21.53,48-48v-48c0-8.84-7.16-16-16-16Z"/></svg>